%TF.GenerationSoftware,KiCad,Pcbnew,8.0.8*%
%TF.CreationDate,2025-04-03T15:34:39+02:00*%
%TF.ProjectId,MCU,4d43552e-6b69-4636-9164-5f7063625858,rev?*%
%TF.SameCoordinates,Original*%
%TF.FileFunction,Copper,L3,Inr*%
%TF.FilePolarity,Positive*%
%FSLAX46Y46*%
G04 Gerber Fmt 4.6, Leading zero omitted, Abs format (unit mm)*
G04 Created by KiCad (PCBNEW 8.0.8) date 2025-04-03 15:34:39*
%MOMM*%
%LPD*%
G01*
G04 APERTURE LIST*
%TA.AperFunction,HeatsinkPad*%
%ADD10O,2.100000X1.000000*%
%TD*%
%TA.AperFunction,HeatsinkPad*%
%ADD11O,1.800000X1.000000*%
%TD*%
%TA.AperFunction,ComponentPad*%
%ADD12R,1.650000X1.650000*%
%TD*%
%TA.AperFunction,ComponentPad*%
%ADD13C,1.650000*%
%TD*%
%TA.AperFunction,HeatsinkPad*%
%ADD14C,0.600000*%
%TD*%
%TA.AperFunction,ViaPad*%
%ADD15C,0.600000*%
%TD*%
%TA.AperFunction,ViaPad*%
%ADD16C,0.700000*%
%TD*%
%TA.AperFunction,ViaPad*%
%ADD17C,1.500000*%
%TD*%
%TA.AperFunction,ViaPad*%
%ADD18C,1.300000*%
%TD*%
%TA.AperFunction,ViaPad*%
%ADD19C,1.200000*%
%TD*%
G04 APERTURE END LIST*
D10*
%TO.N,GND*%
%TO.C,USB-C*%
X103455000Y-83260000D03*
D11*
X99275000Y-83260000D03*
D10*
X103455000Y-91900000D03*
D11*
X99275000Y-91900000D03*
%TD*%
D12*
%TO.N,GND*%
%TO.C,SPI1*%
X116850000Y-107580000D03*
D13*
%TO.N,+3.3V*%
X119350000Y-107580000D03*
%TO.N,mosi*%
X121850000Y-107580000D03*
%TO.N,sck*%
X124350000Y-107580000D03*
%TO.N,miso*%
X126850000Y-107580000D03*
%TO.N,ss1*%
X129350000Y-107580000D03*
%TO.N,+5Vin*%
X131850000Y-107580000D03*
%TD*%
D12*
%TO.N,GND*%
%TO.C,GPIO0*%
X140100000Y-99580000D03*
D13*
%TO.N,+3.3V*%
X140100000Y-102080000D03*
%TO.N,io46*%
X140100000Y-104580000D03*
%TO.N,io7*%
X140100000Y-107080000D03*
%TO.N,io15*%
X140100000Y-109580000D03*
%TO.N,io16*%
X140100000Y-112080000D03*
%TO.N,io17*%
X140100000Y-114580000D03*
%TO.N,+5Vin*%
X140100000Y-117080000D03*
%TD*%
D12*
%TO.N,GND*%
%TO.C,SPI2*%
X116850000Y-115830000D03*
D13*
%TO.N,+3.3V*%
X119350000Y-115830000D03*
%TO.N,mosi*%
X121850000Y-115830000D03*
%TO.N,sck*%
X124350000Y-115830000D03*
%TO.N,miso*%
X126850000Y-115830000D03*
%TO.N,ss2*%
X129350000Y-115830000D03*
%TO.N,+5Vin*%
X131850000Y-115830000D03*
%TD*%
D12*
%TO.N,GND*%
%TO.C,GPIO3*%
X167350000Y-99580000D03*
D13*
%TO.N,+3.3V*%
X167350000Y-102080000D03*
%TO.N,io39*%
X167350000Y-104580000D03*
%TO.N,txd0*%
X167350000Y-107080000D03*
%TO.N,rxd0*%
X167350000Y-109580000D03*
%TO.N,io2*%
X167350000Y-112080000D03*
%TO.N,io1*%
X167350000Y-114580000D03*
%TO.N,+5Vin*%
X167350000Y-117080000D03*
%TD*%
D12*
%TO.N,GND*%
%TO.C,GPIO2*%
X158266666Y-99580000D03*
D13*
%TO.N,+3.3V*%
X158266666Y-102080000D03*
%TO.N,io45*%
X158266666Y-104580000D03*
%TO.N,io35*%
X158266666Y-107080000D03*
%TO.N,io36*%
X158266666Y-109580000D03*
%TO.N,io37*%
X158266666Y-112080000D03*
%TO.N,io38*%
X158266666Y-114580000D03*
%TO.N,+5Vin*%
X158266666Y-117080000D03*
%TD*%
D14*
%TO.N,GND*%
%TO.C,U1*%
X132600000Y-78480000D03*
X132600000Y-79880000D03*
X133300000Y-77780000D03*
X133300000Y-79180000D03*
X133300000Y-80580000D03*
X134000000Y-78480000D03*
X134000000Y-79880000D03*
X134700000Y-77780000D03*
X134700000Y-79180000D03*
X134700000Y-80580000D03*
X135400000Y-78480000D03*
X135400000Y-79880000D03*
%TD*%
D12*
%TO.N,GND*%
%TO.C,SPI0*%
X116850000Y-99330000D03*
D13*
%TO.N,+3.3V*%
X119350000Y-99330000D03*
%TO.N,mosi*%
X121850000Y-99330000D03*
%TO.N,sck*%
X124350000Y-99330000D03*
%TO.N,miso*%
X126850000Y-99330000D03*
%TO.N,ss0*%
X129350000Y-99330000D03*
%TO.N,+5Vin*%
X131850000Y-99330000D03*
%TD*%
D12*
%TO.N,GND*%
%TO.C,GPIO1*%
X149183333Y-99580000D03*
D13*
%TO.N,+3.3V*%
X149183333Y-102080000D03*
%TO.N,io18*%
X149183333Y-104580000D03*
%TO.N,io8*%
X149183333Y-107080000D03*
%TO.N,io21*%
X149183333Y-109580000D03*
%TO.N,io47*%
X149183333Y-112080000D03*
%TO.N,io48*%
X149183333Y-114580000D03*
%TO.N,+5Vin*%
X149183333Y-117080000D03*
%TD*%
D15*
%TO.N,GND*%
X159350000Y-85590000D03*
X120412500Y-71017500D03*
D16*
X112000000Y-76250000D03*
D15*
X118850000Y-84580000D03*
X106100000Y-92070000D03*
X109122500Y-98992500D03*
X105750000Y-83250000D03*
X110750000Y-87080000D03*
X110750000Y-84750000D03*
D16*
X153500000Y-88500000D03*
D15*
X110662500Y-92382500D03*
X145975000Y-71455000D03*
D17*
X109000000Y-64080000D03*
D15*
X118850000Y-92570000D03*
%TO.N,+3.3V*%
X110600000Y-68830000D03*
X110750000Y-99500000D03*
X120600000Y-89750000D03*
X120100000Y-74080000D03*
X110600000Y-72750000D03*
D16*
X114250000Y-75500000D03*
D17*
%TO.N,+5Vout*%
X106875000Y-84625000D03*
D18*
X107100000Y-74080000D03*
D19*
X106000000Y-90750000D03*
D15*
%TO.N,i2s sd*%
X158500000Y-75590000D03*
X145750000Y-77810000D03*
%TO.N,i2s sck*%
X145750000Y-80330000D03*
X158750000Y-80500000D03*
%TO.N,i2s ws*%
X145750000Y-79080000D03*
X158465000Y-78090000D03*
%TO.N,io15*%
X137850000Y-108830000D03*
X123410000Y-82640000D03*
D17*
%TO.N,+5Vin*%
X109100000Y-76580000D03*
X108500000Y-111102500D03*
D15*
%TO.N,io1*%
X156350000Y-81500000D03*
%TO.N,io7*%
X122350000Y-83500000D03*
X136700000Y-106330000D03*
%TO.N,io17*%
X125250000Y-83200000D03*
%TO.N,txd0*%
X154010000Y-81490000D03*
X164350000Y-100750000D03*
%TO.N,io16*%
X124400000Y-82250000D03*
%TO.N,rxd0*%
X163100000Y-100750000D03*
X152600000Y-81500000D03*
%TO.N,io18*%
X128600000Y-84160000D03*
%TO.N,io35*%
X145600000Y-86700000D03*
X151600000Y-100580000D03*
%TO.N,io21*%
X138675000Y-90580000D03*
%TO.N,ss0*%
X128350000Y-94500000D03*
%TO.N,io39*%
X162100000Y-100750000D03*
X162100000Y-103330000D03*
X145750000Y-81620000D03*
%TO.N,io47*%
X139850000Y-93080000D03*
%TO.N,scl1*%
X115100000Y-71830000D03*
X111850000Y-71830000D03*
%TO.N,scl0*%
X121350000Y-84250000D03*
D16*
X120750000Y-93720000D03*
D15*
%TO.N,ss2*%
X133850000Y-95580000D03*
%TO.N,reset*%
X125000000Y-74000000D03*
X120100000Y-77830000D03*
%TO.N,io2*%
X155100000Y-81500000D03*
%TO.N,io8*%
X128350000Y-85430000D03*
%TO.N,io46*%
X135450000Y-103330000D03*
D16*
X127000000Y-93250000D03*
%TD*%
%TA.AperFunction,Conductor*%
%TO.N,+5Vin*%
G36*
X111443039Y-49520185D02*
G01*
X111488794Y-49572989D01*
X111500000Y-49624500D01*
X111500000Y-69970000D01*
X159500000Y-69970000D01*
X159500000Y-53878711D01*
X164149500Y-53878711D01*
X164149500Y-54121288D01*
X164181161Y-54361785D01*
X164243947Y-54596104D01*
X164336773Y-54820205D01*
X164336776Y-54820212D01*
X164458064Y-55030289D01*
X164458066Y-55030292D01*
X164458067Y-55030293D01*
X164605733Y-55222736D01*
X164605739Y-55222743D01*
X164777256Y-55394260D01*
X164777262Y-55394265D01*
X164969711Y-55541936D01*
X165179788Y-55663224D01*
X165403900Y-55756054D01*
X165638211Y-55818838D01*
X165818586Y-55842584D01*
X165878711Y-55850500D01*
X165878712Y-55850500D01*
X166121289Y-55850500D01*
X166169388Y-55844167D01*
X166361789Y-55818838D01*
X166596100Y-55756054D01*
X166820212Y-55663224D01*
X167030289Y-55541936D01*
X167222738Y-55394265D01*
X167394265Y-55222738D01*
X167541936Y-55030289D01*
X167663224Y-54820212D01*
X167756054Y-54596100D01*
X167818838Y-54361789D01*
X167850500Y-54121288D01*
X167850500Y-53878712D01*
X167818838Y-53638211D01*
X167756054Y-53403900D01*
X167663224Y-53179788D01*
X167541936Y-52969711D01*
X167394265Y-52777262D01*
X167394260Y-52777256D01*
X167222743Y-52605739D01*
X167222736Y-52605733D01*
X167030293Y-52458067D01*
X167030292Y-52458066D01*
X167030289Y-52458064D01*
X166820212Y-52336776D01*
X166820205Y-52336773D01*
X166596104Y-52243947D01*
X166361785Y-52181161D01*
X166121289Y-52149500D01*
X166121288Y-52149500D01*
X165878712Y-52149500D01*
X165878711Y-52149500D01*
X165638214Y-52181161D01*
X165403895Y-52243947D01*
X165179794Y-52336773D01*
X165179785Y-52336777D01*
X164969706Y-52458067D01*
X164777263Y-52605733D01*
X164777256Y-52605739D01*
X164605739Y-52777256D01*
X164605733Y-52777263D01*
X164458067Y-52969706D01*
X164336777Y-53179785D01*
X164336773Y-53179794D01*
X164243947Y-53403895D01*
X164181161Y-53638214D01*
X164149500Y-53878711D01*
X159500000Y-53878711D01*
X159500000Y-49624500D01*
X159519685Y-49557461D01*
X159572489Y-49511706D01*
X159624000Y-49500500D01*
X170375500Y-49500500D01*
X170442539Y-49520185D01*
X170488294Y-49572989D01*
X170499500Y-49624500D01*
X170499500Y-128375500D01*
X170479815Y-128442539D01*
X170427011Y-128488294D01*
X170375500Y-128499500D01*
X96624500Y-128499500D01*
X96557461Y-128479815D01*
X96511706Y-128427011D01*
X96500500Y-128375500D01*
X96500500Y-123878711D01*
X99149500Y-123878711D01*
X99149500Y-124121288D01*
X99181161Y-124361785D01*
X99243947Y-124596104D01*
X99336773Y-124820205D01*
X99336776Y-124820212D01*
X99458064Y-125030289D01*
X99458066Y-125030292D01*
X99458067Y-125030293D01*
X99605733Y-125222736D01*
X99605739Y-125222743D01*
X99777256Y-125394260D01*
X99777262Y-125394265D01*
X99969711Y-125541936D01*
X100179788Y-125663224D01*
X100403900Y-125756054D01*
X100638211Y-125818838D01*
X100818586Y-125842584D01*
X100878711Y-125850500D01*
X100878712Y-125850500D01*
X101121289Y-125850500D01*
X101169388Y-125844167D01*
X101361789Y-125818838D01*
X101596100Y-125756054D01*
X101820212Y-125663224D01*
X102030289Y-125541936D01*
X102222738Y-125394265D01*
X102394265Y-125222738D01*
X102541936Y-125030289D01*
X102663224Y-124820212D01*
X102756054Y-124596100D01*
X102818838Y-124361789D01*
X102850500Y-124121288D01*
X102850500Y-123878712D01*
X102850500Y-123878711D01*
X164149500Y-123878711D01*
X164149500Y-124121288D01*
X164181161Y-124361785D01*
X164243947Y-124596104D01*
X164336773Y-124820205D01*
X164336776Y-124820212D01*
X164458064Y-125030289D01*
X164458066Y-125030292D01*
X164458067Y-125030293D01*
X164605733Y-125222736D01*
X164605739Y-125222743D01*
X164777256Y-125394260D01*
X164777262Y-125394265D01*
X164969711Y-125541936D01*
X165179788Y-125663224D01*
X165403900Y-125756054D01*
X165638211Y-125818838D01*
X165818586Y-125842584D01*
X165878711Y-125850500D01*
X165878712Y-125850500D01*
X166121289Y-125850500D01*
X166169388Y-125844167D01*
X166361789Y-125818838D01*
X166596100Y-125756054D01*
X166820212Y-125663224D01*
X167030289Y-125541936D01*
X167222738Y-125394265D01*
X167394265Y-125222738D01*
X167541936Y-125030289D01*
X167663224Y-124820212D01*
X167756054Y-124596100D01*
X167818838Y-124361789D01*
X167850500Y-124121288D01*
X167850500Y-123878712D01*
X167818838Y-123638211D01*
X167756054Y-123403900D01*
X167663224Y-123179788D01*
X167541936Y-122969711D01*
X167394265Y-122777262D01*
X167394260Y-122777256D01*
X167222743Y-122605739D01*
X167222736Y-122605733D01*
X167030293Y-122458067D01*
X167030292Y-122458066D01*
X167030289Y-122458064D01*
X166820212Y-122336776D01*
X166820205Y-122336773D01*
X166596104Y-122243947D01*
X166361785Y-122181161D01*
X166121289Y-122149500D01*
X166121288Y-122149500D01*
X165878712Y-122149500D01*
X165878711Y-122149500D01*
X165638214Y-122181161D01*
X165403895Y-122243947D01*
X165179794Y-122336773D01*
X165179785Y-122336777D01*
X164969706Y-122458067D01*
X164777263Y-122605733D01*
X164777256Y-122605739D01*
X164605739Y-122777256D01*
X164605733Y-122777263D01*
X164458067Y-122969706D01*
X164336777Y-123179785D01*
X164336773Y-123179794D01*
X164243947Y-123403895D01*
X164181161Y-123638214D01*
X164149500Y-123878711D01*
X102850500Y-123878711D01*
X102818838Y-123638211D01*
X102756054Y-123403900D01*
X102663224Y-123179788D01*
X102541936Y-122969711D01*
X102394265Y-122777262D01*
X102394260Y-122777256D01*
X102222743Y-122605739D01*
X102222736Y-122605733D01*
X102030293Y-122458067D01*
X102030292Y-122458066D01*
X102030289Y-122458064D01*
X101820212Y-122336776D01*
X101820205Y-122336773D01*
X101596104Y-122243947D01*
X101361785Y-122181161D01*
X101121289Y-122149500D01*
X101121288Y-122149500D01*
X100878712Y-122149500D01*
X100878711Y-122149500D01*
X100638214Y-122181161D01*
X100403895Y-122243947D01*
X100179794Y-122336773D01*
X100179785Y-122336777D01*
X99969706Y-122458067D01*
X99777263Y-122605733D01*
X99777256Y-122605739D01*
X99605739Y-122777256D01*
X99605733Y-122777263D01*
X99458067Y-122969706D01*
X99336777Y-123179785D01*
X99336773Y-123179794D01*
X99243947Y-123403895D01*
X99181161Y-123638214D01*
X99149500Y-123878711D01*
X96500500Y-123878711D01*
X96500500Y-114960131D01*
X115724500Y-114960131D01*
X115724500Y-116699856D01*
X115724502Y-116699882D01*
X115727413Y-116724987D01*
X115727415Y-116724991D01*
X115772793Y-116827764D01*
X115772794Y-116827765D01*
X115852235Y-116907206D01*
X115955009Y-116952585D01*
X115980135Y-116955500D01*
X117719864Y-116955499D01*
X117719879Y-116955497D01*
X117719882Y-116955497D01*
X117744987Y-116952586D01*
X117744988Y-116952585D01*
X117744991Y-116952585D01*
X117847765Y-116907206D01*
X117927206Y-116827765D01*
X117972585Y-116724991D01*
X117975500Y-116699865D01*
X117975499Y-115876971D01*
X117989486Y-115829336D01*
X117988893Y-115828193D01*
X118209578Y-115828193D01*
X118218476Y-115842038D01*
X118222970Y-115865531D01*
X118238923Y-116037691D01*
X118238923Y-116037693D01*
X118238924Y-116037696D01*
X118296006Y-116238319D01*
X118296007Y-116238322D01*
X118322021Y-116290564D01*
X118388981Y-116425038D01*
X118514682Y-116591493D01*
X118668829Y-116732016D01*
X118846172Y-116841823D01*
X119040673Y-116917173D01*
X119245707Y-116955500D01*
X119245710Y-116955500D01*
X119454290Y-116955500D01*
X119454293Y-116955500D01*
X119659327Y-116917173D01*
X119853828Y-116841823D01*
X120031171Y-116732016D01*
X120185318Y-116591493D01*
X120311019Y-116425038D01*
X120403994Y-116238319D01*
X120461076Y-116037696D01*
X120476529Y-115870933D01*
X120492629Y-115830384D01*
X120707064Y-115830384D01*
X120721693Y-115858566D01*
X120723471Y-115870933D01*
X120738923Y-116037691D01*
X120738923Y-116037693D01*
X120738924Y-116037696D01*
X120796006Y-116238319D01*
X120796007Y-116238322D01*
X120822021Y-116290564D01*
X120888981Y-116425038D01*
X121014682Y-116591493D01*
X121168829Y-116732016D01*
X121346172Y-116841823D01*
X121540673Y-116917173D01*
X121745707Y-116955500D01*
X121745710Y-116955500D01*
X121954290Y-116955500D01*
X121954293Y-116955500D01*
X122159327Y-116917173D01*
X122353828Y-116841823D01*
X122531171Y-116732016D01*
X122685318Y-116591493D01*
X122811019Y-116425038D01*
X122903994Y-116238319D01*
X122961076Y-116037696D01*
X122976529Y-115870933D01*
X122992629Y-115830384D01*
X123207064Y-115830384D01*
X123221693Y-115858566D01*
X123223471Y-115870933D01*
X123238923Y-116037691D01*
X123238923Y-116037693D01*
X123238924Y-116037696D01*
X123296006Y-116238319D01*
X123296007Y-116238322D01*
X123322021Y-116290564D01*
X123388981Y-116425038D01*
X123514682Y-116591493D01*
X123668829Y-116732016D01*
X123846172Y-116841823D01*
X124040673Y-116917173D01*
X124245707Y-116955500D01*
X124245710Y-116955500D01*
X124454290Y-116955500D01*
X124454293Y-116955500D01*
X124659327Y-116917173D01*
X124853828Y-116841823D01*
X125031171Y-116732016D01*
X125185318Y-116591493D01*
X125311019Y-116425038D01*
X125403994Y-116238319D01*
X125461076Y-116037696D01*
X125476529Y-115870933D01*
X125492629Y-115830384D01*
X125707064Y-115830384D01*
X125721693Y-115858566D01*
X125723471Y-115870933D01*
X125738923Y-116037691D01*
X125738923Y-116037693D01*
X125738924Y-116037696D01*
X125796006Y-116238319D01*
X125796007Y-116238322D01*
X125822021Y-116290564D01*
X125888981Y-116425038D01*
X126014682Y-116591493D01*
X126168829Y-116732016D01*
X126346172Y-116841823D01*
X126540673Y-116917173D01*
X126745707Y-116955500D01*
X126745710Y-116955500D01*
X126954290Y-116955500D01*
X126954293Y-116955500D01*
X127159327Y-116917173D01*
X127353828Y-116841823D01*
X127531171Y-116732016D01*
X127685318Y-116591493D01*
X127811019Y-116425038D01*
X127903994Y-116238319D01*
X127961076Y-116037696D01*
X127976529Y-115870933D01*
X127992629Y-115830384D01*
X128207064Y-115830384D01*
X128221693Y-115858566D01*
X128223471Y-115870933D01*
X128238923Y-116037691D01*
X128238923Y-116037693D01*
X128238924Y-116037696D01*
X128296006Y-116238319D01*
X128296007Y-116238322D01*
X128322021Y-116290564D01*
X128388981Y-116425038D01*
X128514682Y-116591493D01*
X128668829Y-116732016D01*
X128846172Y-116841823D01*
X129040673Y-116917173D01*
X129245707Y-116955500D01*
X129245710Y-116955500D01*
X129454290Y-116955500D01*
X129454293Y-116955500D01*
X129659327Y-116917173D01*
X129853828Y-116841823D01*
X130031171Y-116732016D01*
X130185318Y-116591493D01*
X130311019Y-116425038D01*
X130379406Y-116287697D01*
X130426908Y-116236461D01*
X130494571Y-116219039D01*
X130560912Y-116240964D01*
X130602788Y-116290564D01*
X130698132Y-116495029D01*
X130698133Y-116495031D01*
X130753023Y-116573422D01*
X130753023Y-116573423D01*
X131285387Y-116041059D01*
X131290889Y-116061591D01*
X131369881Y-116198408D01*
X131481592Y-116310119D01*
X131618409Y-116389111D01*
X131638939Y-116394612D01*
X131106575Y-116926975D01*
X131184973Y-116981868D01*
X131395090Y-117079847D01*
X131395099Y-117079851D01*
X131619031Y-117139852D01*
X131619041Y-117139854D01*
X131849999Y-117160061D01*
X131850001Y-117160061D01*
X132080958Y-117139854D01*
X132080968Y-117139852D01*
X132304348Y-117079999D01*
X138769939Y-117079999D01*
X138769939Y-117080000D01*
X138790145Y-117310958D01*
X138790147Y-117310968D01*
X138850148Y-117534900D01*
X138850152Y-117534909D01*
X138948132Y-117745029D01*
X138948133Y-117745031D01*
X139003023Y-117823422D01*
X139003023Y-117823423D01*
X139535387Y-117291059D01*
X139540889Y-117311591D01*
X139619881Y-117448408D01*
X139731592Y-117560119D01*
X139868409Y-117639111D01*
X139888939Y-117644612D01*
X139356575Y-118176975D01*
X139434973Y-118231868D01*
X139645090Y-118329847D01*
X139645099Y-118329851D01*
X139869031Y-118389852D01*
X139869041Y-118389854D01*
X140099999Y-118410061D01*
X140100001Y-118410061D01*
X140330958Y-118389854D01*
X140330968Y-118389852D01*
X140554900Y-118329851D01*
X140554909Y-118329847D01*
X140765030Y-118231867D01*
X140843423Y-118176975D01*
X140311059Y-117644612D01*
X140331591Y-117639111D01*
X140468408Y-117560119D01*
X140580119Y-117448408D01*
X140659111Y-117311591D01*
X140664612Y-117291060D01*
X141196975Y-117823423D01*
X141251867Y-117745030D01*
X141349847Y-117534909D01*
X141349851Y-117534900D01*
X141409852Y-117310968D01*
X141409854Y-117310958D01*
X141430061Y-117080000D01*
X141430061Y-117079999D01*
X147853272Y-117079999D01*
X147853272Y-117080000D01*
X147873478Y-117310958D01*
X147873480Y-117310968D01*
X147933481Y-117534900D01*
X147933485Y-117534909D01*
X148031465Y-117745029D01*
X148031466Y-117745031D01*
X148086356Y-117823422D01*
X148086356Y-117823423D01*
X148618720Y-117291059D01*
X148624222Y-117311591D01*
X148703214Y-117448408D01*
X148814925Y-117560119D01*
X148951742Y-117639111D01*
X148972272Y-117644612D01*
X148439908Y-118176975D01*
X148518306Y-118231868D01*
X148728423Y-118329847D01*
X148728432Y-118329851D01*
X148952364Y-118389852D01*
X148952374Y-118389854D01*
X149183332Y-118410061D01*
X149183334Y-118410061D01*
X149414291Y-118389854D01*
X149414301Y-118389852D01*
X149638233Y-118329851D01*
X149638242Y-118329847D01*
X149848363Y-118231867D01*
X149926756Y-118176975D01*
X149394392Y-117644612D01*
X149414924Y-117639111D01*
X149551741Y-117560119D01*
X149663452Y-117448408D01*
X149742444Y-117311591D01*
X149747945Y-117291060D01*
X150280308Y-117823423D01*
X150335200Y-117745030D01*
X150433180Y-117534909D01*
X150433184Y-117534900D01*
X150493185Y-117310968D01*
X150493187Y-117310958D01*
X150513394Y-117080000D01*
X150513394Y-117079999D01*
X156936605Y-117079999D01*
X156936605Y-117080000D01*
X156956811Y-117310958D01*
X156956813Y-117310968D01*
X157016814Y-117534900D01*
X157016818Y-117534909D01*
X157114798Y-117745029D01*
X157114799Y-117745031D01*
X157169689Y-117823422D01*
X157169689Y-117823423D01*
X157702053Y-117291059D01*
X157707555Y-117311591D01*
X157786547Y-117448408D01*
X157898258Y-117560119D01*
X158035075Y-117639111D01*
X158055605Y-117644612D01*
X157523241Y-118176975D01*
X157601639Y-118231868D01*
X157811756Y-118329847D01*
X157811765Y-118329851D01*
X158035697Y-118389852D01*
X158035707Y-118389854D01*
X158266665Y-118410061D01*
X158266667Y-118410061D01*
X158497624Y-118389854D01*
X158497634Y-118389852D01*
X158721566Y-118329851D01*
X158721575Y-118329847D01*
X158931696Y-118231867D01*
X159010089Y-118176975D01*
X158477725Y-117644612D01*
X158498257Y-117639111D01*
X158635074Y-117560119D01*
X158746785Y-117448408D01*
X158825777Y-117311591D01*
X158831278Y-117291060D01*
X159363641Y-117823423D01*
X159418533Y-117745030D01*
X159516513Y-117534909D01*
X159516517Y-117534900D01*
X159576518Y-117310968D01*
X159576520Y-117310958D01*
X159596727Y-117080000D01*
X159596727Y-117079999D01*
X166019939Y-117079999D01*
X166019939Y-117080000D01*
X166040145Y-117310958D01*
X166040147Y-117310968D01*
X166100148Y-117534900D01*
X166100152Y-117534909D01*
X166198132Y-117745029D01*
X166198133Y-117745031D01*
X166253023Y-117823422D01*
X166253023Y-117823423D01*
X166785387Y-117291059D01*
X166790889Y-117311591D01*
X166869881Y-117448408D01*
X166981592Y-117560119D01*
X167118409Y-117639111D01*
X167138939Y-117644612D01*
X166606575Y-118176975D01*
X166684973Y-118231868D01*
X166895090Y-118329847D01*
X166895099Y-118329851D01*
X167119031Y-118389852D01*
X167119041Y-118389854D01*
X167349999Y-118410061D01*
X167350001Y-118410061D01*
X167580958Y-118389854D01*
X167580968Y-118389852D01*
X167804900Y-118329851D01*
X167804909Y-118329847D01*
X168015030Y-118231867D01*
X168093423Y-118176975D01*
X167561059Y-117644612D01*
X167581591Y-117639111D01*
X167718408Y-117560119D01*
X167830119Y-117448408D01*
X167909111Y-117311591D01*
X167914612Y-117291060D01*
X168446975Y-117823423D01*
X168501867Y-117745030D01*
X168599847Y-117534909D01*
X168599851Y-117534900D01*
X168659852Y-117310968D01*
X168659854Y-117310958D01*
X168680061Y-117080000D01*
X168680061Y-117079999D01*
X168659854Y-116849041D01*
X168659852Y-116849031D01*
X168599851Y-116625099D01*
X168599847Y-116625090D01*
X168501868Y-116414972D01*
X168446974Y-116336576D01*
X167914612Y-116868939D01*
X167909111Y-116848409D01*
X167830119Y-116711592D01*
X167718408Y-116599881D01*
X167581591Y-116520889D01*
X167561058Y-116515387D01*
X168093423Y-115983023D01*
X168015031Y-115928133D01*
X168015029Y-115928132D01*
X167811566Y-115833255D01*
X167759127Y-115787082D01*
X167739975Y-115719889D01*
X167760191Y-115653008D01*
X167813356Y-115607673D01*
X167819179Y-115605246D01*
X167853821Y-115591826D01*
X167853825Y-115591824D01*
X167853828Y-115591823D01*
X168031171Y-115482016D01*
X168185318Y-115341493D01*
X168311019Y-115175038D01*
X168403994Y-114988319D01*
X168461076Y-114787696D01*
X168480322Y-114580000D01*
X168461076Y-114372304D01*
X168403994Y-114171681D01*
X168311019Y-113984962D01*
X168185318Y-113818507D01*
X168031171Y-113677984D01*
X167853828Y-113568177D01*
X167853827Y-113568176D01*
X167711609Y-113513081D01*
X167659327Y-113492827D01*
X167454293Y-113454500D01*
X167245707Y-113454500D01*
X167040673Y-113492827D01*
X167040670Y-113492827D01*
X167040670Y-113492828D01*
X166846172Y-113568176D01*
X166846171Y-113568177D01*
X166668827Y-113677985D01*
X166514683Y-113818505D01*
X166388981Y-113984961D01*
X166296007Y-114171677D01*
X166238923Y-114372308D01*
X166219678Y-114579999D01*
X166219678Y-114580000D01*
X166238923Y-114787691D01*
X166238923Y-114787693D01*
X166238924Y-114787696D01*
X166296006Y-114988319D01*
X166388981Y-115175038D01*
X166514682Y-115341493D01*
X166668829Y-115482016D01*
X166846172Y-115591823D01*
X166864778Y-115599031D01*
X166880821Y-115605246D01*
X166936223Y-115647818D01*
X166959814Y-115713585D01*
X166944104Y-115781665D01*
X166894080Y-115830445D01*
X166888434Y-115833255D01*
X166684972Y-115928132D01*
X166606576Y-115983024D01*
X167138940Y-116515387D01*
X167118409Y-116520889D01*
X166981592Y-116599881D01*
X166869881Y-116711592D01*
X166790889Y-116848409D01*
X166785387Y-116868940D01*
X166253024Y-116336576D01*
X166198131Y-116414974D01*
X166100152Y-116625090D01*
X166100148Y-116625099D01*
X166040147Y-116849031D01*
X166040145Y-116849041D01*
X166019939Y-117079999D01*
X159596727Y-117079999D01*
X159576520Y-116849041D01*
X159576518Y-116849031D01*
X159516517Y-116625099D01*
X159516513Y-116625090D01*
X159418534Y-116414972D01*
X159363640Y-116336576D01*
X158831278Y-116868939D01*
X158825777Y-116848409D01*
X158746785Y-116711592D01*
X158635074Y-116599881D01*
X158498257Y-116520889D01*
X158477724Y-116515387D01*
X159010089Y-115983023D01*
X158931697Y-115928133D01*
X158931695Y-115928132D01*
X158728232Y-115833255D01*
X158675793Y-115787082D01*
X158656641Y-115719889D01*
X158676857Y-115653008D01*
X158730022Y-115607673D01*
X158735845Y-115605246D01*
X158770487Y-115591826D01*
X158770491Y-115591824D01*
X158770494Y-115591823D01*
X158947837Y-115482016D01*
X159101984Y-115341493D01*
X159227685Y-115175038D01*
X159320660Y-114988319D01*
X159377742Y-114787696D01*
X159396988Y-114580000D01*
X159377742Y-114372304D01*
X159320660Y-114171681D01*
X159227685Y-113984962D01*
X159101984Y-113818507D01*
X158947837Y-113677984D01*
X158770494Y-113568177D01*
X158770493Y-113568176D01*
X158628275Y-113513081D01*
X158575993Y-113492827D01*
X158370959Y-113454500D01*
X158162373Y-113454500D01*
X157957339Y-113492827D01*
X157957336Y-113492827D01*
X157957336Y-113492828D01*
X157762838Y-113568176D01*
X157762837Y-113568177D01*
X157585493Y-113677985D01*
X157431349Y-113818505D01*
X157305647Y-113984961D01*
X157212673Y-114171677D01*
X157155589Y-114372308D01*
X157136344Y-114579999D01*
X157136344Y-114580000D01*
X157155589Y-114787691D01*
X157155589Y-114787693D01*
X157155590Y-114787696D01*
X157212672Y-114988319D01*
X157305647Y-115175038D01*
X157431348Y-115341493D01*
X157585495Y-115482016D01*
X157762838Y-115591823D01*
X157781444Y-115599031D01*
X157797487Y-115605246D01*
X157852889Y-115647818D01*
X157876480Y-115713585D01*
X157860770Y-115781665D01*
X157810746Y-115830445D01*
X157805100Y-115833255D01*
X157601638Y-115928132D01*
X157523242Y-115983024D01*
X158055606Y-116515387D01*
X158035075Y-116520889D01*
X157898258Y-116599881D01*
X157786547Y-116711592D01*
X157707555Y-116848409D01*
X157702053Y-116868940D01*
X157169690Y-116336576D01*
X157114797Y-116414974D01*
X157016818Y-116625090D01*
X157016814Y-116625099D01*
X156956813Y-116849031D01*
X156956811Y-116849041D01*
X156936605Y-117079999D01*
X150513394Y-117079999D01*
X150493187Y-116849041D01*
X150493185Y-116849031D01*
X150433184Y-116625099D01*
X150433180Y-116625090D01*
X150335201Y-116414972D01*
X150280307Y-116336576D01*
X149747945Y-116868939D01*
X149742444Y-116848409D01*
X149663452Y-116711592D01*
X149551741Y-116599881D01*
X149414924Y-116520889D01*
X149394391Y-116515387D01*
X149926756Y-115983023D01*
X149848364Y-115928133D01*
X149848362Y-115928132D01*
X149644899Y-115833255D01*
X149592460Y-115787082D01*
X149573308Y-115719889D01*
X149593524Y-115653008D01*
X149646689Y-115607673D01*
X149652512Y-115605246D01*
X149687154Y-115591826D01*
X149687158Y-115591824D01*
X149687161Y-115591823D01*
X149864504Y-115482016D01*
X150018651Y-115341493D01*
X150144352Y-115175038D01*
X150237327Y-114988319D01*
X150294409Y-114787696D01*
X150313655Y-114580000D01*
X150294409Y-114372304D01*
X150237327Y-114171681D01*
X150144352Y-113984962D01*
X150018651Y-113818507D01*
X149864504Y-113677984D01*
X149687161Y-113568177D01*
X149687160Y-113568176D01*
X149544942Y-113513081D01*
X149492660Y-113492827D01*
X149287626Y-113454500D01*
X149079040Y-113454500D01*
X148874006Y-113492827D01*
X148874003Y-113492827D01*
X148874003Y-113492828D01*
X148679505Y-113568176D01*
X148679504Y-113568177D01*
X148502160Y-113677985D01*
X148348016Y-113818505D01*
X148222314Y-113984961D01*
X148129340Y-114171677D01*
X148072256Y-114372308D01*
X148053011Y-114579999D01*
X148053011Y-114580000D01*
X148072256Y-114787691D01*
X148072256Y-114787693D01*
X148072257Y-114787696D01*
X148129339Y-114988319D01*
X148222314Y-115175038D01*
X148348015Y-115341493D01*
X148502162Y-115482016D01*
X148679505Y-115591823D01*
X148698111Y-115599031D01*
X148714154Y-115605246D01*
X148769556Y-115647818D01*
X148793147Y-115713585D01*
X148777437Y-115781665D01*
X148727413Y-115830445D01*
X148721767Y-115833255D01*
X148518305Y-115928132D01*
X148439909Y-115983024D01*
X148972273Y-116515387D01*
X148951742Y-116520889D01*
X148814925Y-116599881D01*
X148703214Y-116711592D01*
X148624222Y-116848409D01*
X148618720Y-116868940D01*
X148086357Y-116336576D01*
X148031464Y-116414974D01*
X147933485Y-116625090D01*
X147933481Y-116625099D01*
X147873480Y-116849031D01*
X147873478Y-116849041D01*
X147853272Y-117079999D01*
X141430061Y-117079999D01*
X141409854Y-116849041D01*
X141409852Y-116849031D01*
X141349851Y-116625099D01*
X141349847Y-116625090D01*
X141251868Y-116414972D01*
X141196974Y-116336576D01*
X140664612Y-116868939D01*
X140659111Y-116848409D01*
X140580119Y-116711592D01*
X140468408Y-116599881D01*
X140331591Y-116520889D01*
X140311058Y-116515387D01*
X140843423Y-115983023D01*
X140765031Y-115928133D01*
X140765029Y-115928132D01*
X140561566Y-115833255D01*
X140509127Y-115787082D01*
X140489975Y-115719889D01*
X140510191Y-115653008D01*
X140563356Y-115607673D01*
X140569179Y-115605246D01*
X140603821Y-115591826D01*
X140603825Y-115591824D01*
X140603828Y-115591823D01*
X140781171Y-115482016D01*
X140935318Y-115341493D01*
X141061019Y-115175038D01*
X141153994Y-114988319D01*
X141211076Y-114787696D01*
X141230322Y-114580000D01*
X141211076Y-114372304D01*
X141153994Y-114171681D01*
X141061019Y-113984962D01*
X140935318Y-113818507D01*
X140781171Y-113677984D01*
X140603828Y-113568177D01*
X140603827Y-113568176D01*
X140461609Y-113513081D01*
X140409327Y-113492827D01*
X140204293Y-113454500D01*
X139995707Y-113454500D01*
X139790673Y-113492827D01*
X139790670Y-113492827D01*
X139790670Y-113492828D01*
X139596172Y-113568176D01*
X139596171Y-113568177D01*
X139418827Y-113677985D01*
X139264683Y-113818505D01*
X139138981Y-113984961D01*
X139046007Y-114171677D01*
X138988923Y-114372308D01*
X138969678Y-114579999D01*
X138969678Y-114580000D01*
X138988923Y-114787691D01*
X138988923Y-114787693D01*
X138988924Y-114787696D01*
X139046006Y-114988319D01*
X139138981Y-115175038D01*
X139264682Y-115341493D01*
X139418829Y-115482016D01*
X139596172Y-115591823D01*
X139614778Y-115599031D01*
X139630821Y-115605246D01*
X139686223Y-115647818D01*
X139709814Y-115713585D01*
X139694104Y-115781665D01*
X139644080Y-115830445D01*
X139638434Y-115833255D01*
X139434972Y-115928132D01*
X139356576Y-115983024D01*
X139888940Y-116515387D01*
X139868409Y-116520889D01*
X139731592Y-116599881D01*
X139619881Y-116711592D01*
X139540889Y-116848409D01*
X139535387Y-116868940D01*
X139003024Y-116336576D01*
X138948131Y-116414974D01*
X138850152Y-116625090D01*
X138850148Y-116625099D01*
X138790147Y-116849031D01*
X138790145Y-116849041D01*
X138769939Y-117079999D01*
X132304348Y-117079999D01*
X132304900Y-117079851D01*
X132304909Y-117079847D01*
X132515030Y-116981867D01*
X132593423Y-116926975D01*
X132061059Y-116394612D01*
X132081591Y-116389111D01*
X132218408Y-116310119D01*
X132330119Y-116198408D01*
X132409111Y-116061591D01*
X132414612Y-116041059D01*
X132946975Y-116573423D01*
X133001867Y-116495030D01*
X133099847Y-116284909D01*
X133099851Y-116284900D01*
X133159852Y-116060968D01*
X133159854Y-116060958D01*
X133180061Y-115830000D01*
X133180061Y-115829999D01*
X133159854Y-115599041D01*
X133159852Y-115599031D01*
X133099851Y-115375099D01*
X133099847Y-115375090D01*
X133001868Y-115164972D01*
X132946974Y-115086576D01*
X132414612Y-115618939D01*
X132409111Y-115598409D01*
X132330119Y-115461592D01*
X132218408Y-115349881D01*
X132081591Y-115270889D01*
X132061058Y-115265387D01*
X132593423Y-114733023D01*
X132515031Y-114678133D01*
X132515029Y-114678132D01*
X132304909Y-114580152D01*
X132304900Y-114580148D01*
X132080968Y-114520147D01*
X132080958Y-114520145D01*
X131850001Y-114499939D01*
X131849999Y-114499939D01*
X131619041Y-114520145D01*
X131619031Y-114520147D01*
X131395099Y-114580148D01*
X131395090Y-114580152D01*
X131184974Y-114678131D01*
X131106576Y-114733024D01*
X131638940Y-115265387D01*
X131618409Y-115270889D01*
X131481592Y-115349881D01*
X131369881Y-115461592D01*
X131290889Y-115598409D01*
X131285387Y-115618940D01*
X130753024Y-115086576D01*
X130698131Y-115164974D01*
X130602788Y-115369435D01*
X130556615Y-115421874D01*
X130489421Y-115441026D01*
X130422540Y-115420810D01*
X130379406Y-115372301D01*
X130311020Y-115234963D01*
X130265766Y-115175038D01*
X130185318Y-115068507D01*
X130031171Y-114927984D01*
X129853828Y-114818177D01*
X129853827Y-114818176D01*
X129685052Y-114752793D01*
X129659327Y-114742827D01*
X129454293Y-114704500D01*
X129245707Y-114704500D01*
X129040673Y-114742827D01*
X129040670Y-114742827D01*
X129040670Y-114742828D01*
X128846172Y-114818176D01*
X128846171Y-114818177D01*
X128668827Y-114927985D01*
X128514683Y-115068505D01*
X128388981Y-115234961D01*
X128296007Y-115421677D01*
X128296006Y-115421681D01*
X128243778Y-115605246D01*
X128238923Y-115622308D01*
X128223471Y-115789066D01*
X128207064Y-115830384D01*
X127992629Y-115830384D01*
X127992935Y-115829614D01*
X127978307Y-115801433D01*
X127976529Y-115789066D01*
X127961076Y-115622308D01*
X127961076Y-115622304D01*
X127903994Y-115421681D01*
X127811019Y-115234962D01*
X127685318Y-115068507D01*
X127531171Y-114927984D01*
X127353828Y-114818177D01*
X127353827Y-114818176D01*
X127185052Y-114752793D01*
X127159327Y-114742827D01*
X126954293Y-114704500D01*
X126745707Y-114704500D01*
X126540673Y-114742827D01*
X126540670Y-114742827D01*
X126540670Y-114742828D01*
X126346172Y-114818176D01*
X126346171Y-114818177D01*
X126168827Y-114927985D01*
X126014683Y-115068505D01*
X125888981Y-115234961D01*
X125796007Y-115421677D01*
X125796006Y-115421681D01*
X125743778Y-115605246D01*
X125738923Y-115622308D01*
X125723471Y-115789066D01*
X125707064Y-115830384D01*
X125492629Y-115830384D01*
X125492935Y-115829614D01*
X125478307Y-115801433D01*
X125476529Y-115789066D01*
X125461076Y-115622308D01*
X125461076Y-115622304D01*
X125403994Y-115421681D01*
X125311019Y-115234962D01*
X125185318Y-115068507D01*
X125031171Y-114927984D01*
X124853828Y-114818177D01*
X124853827Y-114818176D01*
X124685052Y-114752793D01*
X124659327Y-114742827D01*
X124454293Y-114704500D01*
X124245707Y-114704500D01*
X124040673Y-114742827D01*
X124040670Y-114742827D01*
X124040670Y-114742828D01*
X123846172Y-114818176D01*
X123846171Y-114818177D01*
X123668827Y-114927985D01*
X123514683Y-115068505D01*
X123388981Y-115234961D01*
X123296007Y-115421677D01*
X123296006Y-115421681D01*
X123243778Y-115605246D01*
X123238923Y-115622308D01*
X123223471Y-115789066D01*
X123207064Y-115830384D01*
X122992629Y-115830384D01*
X122992935Y-115829614D01*
X122978307Y-115801433D01*
X122976529Y-115789066D01*
X122961076Y-115622308D01*
X122961076Y-115622304D01*
X122903994Y-115421681D01*
X122811019Y-115234962D01*
X122685318Y-115068507D01*
X122531171Y-114927984D01*
X122353828Y-114818177D01*
X122353827Y-114818176D01*
X122185052Y-114752793D01*
X122159327Y-114742827D01*
X121954293Y-114704500D01*
X121745707Y-114704500D01*
X121540673Y-114742827D01*
X121540670Y-114742827D01*
X121540670Y-114742828D01*
X121346172Y-114818176D01*
X121346171Y-114818177D01*
X121168827Y-114927985D01*
X121014683Y-115068505D01*
X120888981Y-115234961D01*
X120796007Y-115421677D01*
X120796006Y-115421681D01*
X120743778Y-115605246D01*
X120738923Y-115622308D01*
X120723471Y-115789066D01*
X120707064Y-115830384D01*
X120492629Y-115830384D01*
X120492935Y-115829614D01*
X120478307Y-115801433D01*
X120476529Y-115789066D01*
X120461076Y-115622308D01*
X120461076Y-115622304D01*
X120403994Y-115421681D01*
X120311019Y-115234962D01*
X120185318Y-115068507D01*
X120031171Y-114927984D01*
X119853828Y-114818177D01*
X119853827Y-114818176D01*
X119685052Y-114752793D01*
X119659327Y-114742827D01*
X119454293Y-114704500D01*
X119245707Y-114704500D01*
X119040673Y-114742827D01*
X119040670Y-114742827D01*
X119040670Y-114742828D01*
X118846172Y-114818176D01*
X118846171Y-114818177D01*
X118668827Y-114927985D01*
X118514683Y-115068505D01*
X118388981Y-115234961D01*
X118296007Y-115421677D01*
X118296006Y-115421681D01*
X118243778Y-115605246D01*
X118238923Y-115622308D01*
X118222970Y-115794469D01*
X118209578Y-115828193D01*
X117988893Y-115828193D01*
X117977806Y-115806835D01*
X117975499Y-115783027D01*
X117975499Y-114960143D01*
X117975499Y-114960136D01*
X117975497Y-114960117D01*
X117972586Y-114935012D01*
X117972585Y-114935010D01*
X117972585Y-114935009D01*
X117927206Y-114832235D01*
X117847765Y-114752794D01*
X117802988Y-114733023D01*
X117744992Y-114707415D01*
X117719865Y-114704500D01*
X115980143Y-114704500D01*
X115980117Y-114704502D01*
X115955012Y-114707413D01*
X115955008Y-114707415D01*
X115852235Y-114752793D01*
X115772794Y-114832234D01*
X115727415Y-114935006D01*
X115727415Y-114935008D01*
X115724500Y-114960131D01*
X96500500Y-114960131D01*
X96500500Y-112079999D01*
X138969678Y-112079999D01*
X138969678Y-112080000D01*
X138988923Y-112287691D01*
X138988923Y-112287693D01*
X138988924Y-112287696D01*
X139046006Y-112488319D01*
X139138981Y-112675038D01*
X139264682Y-112841493D01*
X139418829Y-112982016D01*
X139596172Y-113091823D01*
X139790673Y-113167173D01*
X139995707Y-113205500D01*
X139995710Y-113205500D01*
X140204290Y-113205500D01*
X140204293Y-113205500D01*
X140409327Y-113167173D01*
X140603828Y-113091823D01*
X140781171Y-112982016D01*
X140935318Y-112841493D01*
X141061019Y-112675038D01*
X141153994Y-112488319D01*
X141211076Y-112287696D01*
X141230322Y-112080000D01*
X141230322Y-112079999D01*
X148053011Y-112079999D01*
X148053011Y-112080000D01*
X148072256Y-112287691D01*
X148072256Y-112287693D01*
X148072257Y-112287696D01*
X148129339Y-112488319D01*
X148222314Y-112675038D01*
X148348015Y-112841493D01*
X148502162Y-112982016D01*
X148679505Y-113091823D01*
X148874006Y-113167173D01*
X149079040Y-113205500D01*
X149079043Y-113205500D01*
X149287623Y-113205500D01*
X149287626Y-113205500D01*
X149492660Y-113167173D01*
X149687161Y-113091823D01*
X149864504Y-112982016D01*
X150018651Y-112841493D01*
X150144352Y-112675038D01*
X150237327Y-112488319D01*
X150294409Y-112287696D01*
X150313655Y-112080000D01*
X150313655Y-112079999D01*
X157136344Y-112079999D01*
X157136344Y-112080000D01*
X157155589Y-112287691D01*
X157155589Y-112287693D01*
X157155590Y-112287696D01*
X157212672Y-112488319D01*
X157305647Y-112675038D01*
X157431348Y-112841493D01*
X157585495Y-112982016D01*
X157762838Y-113091823D01*
X157957339Y-113167173D01*
X158162373Y-113205500D01*
X158162376Y-113205500D01*
X158370956Y-113205500D01*
X158370959Y-113205500D01*
X158575993Y-113167173D01*
X158770494Y-113091823D01*
X158947837Y-112982016D01*
X159101984Y-112841493D01*
X159227685Y-112675038D01*
X159320660Y-112488319D01*
X159377742Y-112287696D01*
X159396988Y-112080000D01*
X159396988Y-112079999D01*
X166219678Y-112079999D01*
X166219678Y-112080000D01*
X166238923Y-112287691D01*
X166238923Y-112287693D01*
X166238924Y-112287696D01*
X166296006Y-112488319D01*
X166388981Y-112675038D01*
X166514682Y-112841493D01*
X166668829Y-112982016D01*
X166846172Y-113091823D01*
X167040673Y-113167173D01*
X167245707Y-113205500D01*
X167245710Y-113205500D01*
X167454290Y-113205500D01*
X167454293Y-113205500D01*
X167659327Y-113167173D01*
X167853828Y-113091823D01*
X168031171Y-112982016D01*
X168185318Y-112841493D01*
X168311019Y-112675038D01*
X168403994Y-112488319D01*
X168461076Y-112287696D01*
X168480322Y-112080000D01*
X168461076Y-111872304D01*
X168403994Y-111671681D01*
X168311019Y-111484962D01*
X168185318Y-111318507D01*
X168031171Y-111177984D01*
X167853828Y-111068177D01*
X167853827Y-111068176D01*
X167711609Y-111013081D01*
X167659327Y-110992827D01*
X167454293Y-110954500D01*
X167245707Y-110954500D01*
X167040673Y-110992827D01*
X167040670Y-110992827D01*
X167040670Y-110992828D01*
X166846172Y-111068176D01*
X166846171Y-111068177D01*
X166668827Y-111177985D01*
X166514683Y-111318505D01*
X166388981Y-111484961D01*
X166296007Y-111671677D01*
X166238923Y-111872308D01*
X166219678Y-112079999D01*
X159396988Y-112079999D01*
X159377742Y-111872304D01*
X159320660Y-111671681D01*
X159227685Y-111484962D01*
X159101984Y-111318507D01*
X158947837Y-111177984D01*
X158770494Y-111068177D01*
X158770493Y-111068176D01*
X158628275Y-111013081D01*
X158575993Y-110992827D01*
X158370959Y-110954500D01*
X158162373Y-110954500D01*
X157957339Y-110992827D01*
X157957336Y-110992827D01*
X157957336Y-110992828D01*
X157762838Y-111068176D01*
X157762837Y-111068177D01*
X157585493Y-111177985D01*
X157431349Y-111318505D01*
X157305647Y-111484961D01*
X157212673Y-111671677D01*
X157155589Y-111872308D01*
X157136344Y-112079999D01*
X150313655Y-112079999D01*
X150294409Y-111872304D01*
X150237327Y-111671681D01*
X150144352Y-111484962D01*
X150018651Y-111318507D01*
X149864504Y-111177984D01*
X149687161Y-111068177D01*
X149687160Y-111068176D01*
X149544942Y-111013081D01*
X149492660Y-110992827D01*
X149287626Y-110954500D01*
X149079040Y-110954500D01*
X148874006Y-110992827D01*
X148874003Y-110992827D01*
X148874003Y-110992828D01*
X148679505Y-111068176D01*
X148679504Y-111068177D01*
X148502160Y-111177985D01*
X148348016Y-111318505D01*
X148222314Y-111484961D01*
X148129340Y-111671677D01*
X148072256Y-111872308D01*
X148053011Y-112079999D01*
X141230322Y-112079999D01*
X141211076Y-111872304D01*
X141153994Y-111671681D01*
X141061019Y-111484962D01*
X140935318Y-111318507D01*
X140781171Y-111177984D01*
X140603828Y-111068177D01*
X140603827Y-111068176D01*
X140461609Y-111013081D01*
X140409327Y-110992827D01*
X140204293Y-110954500D01*
X139995707Y-110954500D01*
X139790673Y-110992827D01*
X139790670Y-110992827D01*
X139790670Y-110992828D01*
X139596172Y-111068176D01*
X139596171Y-111068177D01*
X139418827Y-111177985D01*
X139264683Y-111318505D01*
X139138981Y-111484961D01*
X139046007Y-111671677D01*
X138988923Y-111872308D01*
X138969678Y-112079999D01*
X96500500Y-112079999D01*
X96500500Y-109579999D01*
X138969678Y-109579999D01*
X138969678Y-109580000D01*
X138988923Y-109787691D01*
X138988923Y-109787693D01*
X138988924Y-109787696D01*
X139046006Y-109988319D01*
X139138981Y-110175038D01*
X139264682Y-110341493D01*
X139418829Y-110482016D01*
X139596172Y-110591823D01*
X139790673Y-110667173D01*
X139995707Y-110705500D01*
X139995710Y-110705500D01*
X140204290Y-110705500D01*
X140204293Y-110705500D01*
X140409327Y-110667173D01*
X140603828Y-110591823D01*
X140781171Y-110482016D01*
X140935318Y-110341493D01*
X141061019Y-110175038D01*
X141153994Y-109988319D01*
X141211076Y-109787696D01*
X141230322Y-109580000D01*
X141230322Y-109579999D01*
X148053011Y-109579999D01*
X148053011Y-109580000D01*
X148072256Y-109787691D01*
X148072256Y-109787693D01*
X148072257Y-109787696D01*
X148129339Y-109988319D01*
X148222314Y-110175038D01*
X148348015Y-110341493D01*
X148502162Y-110482016D01*
X148679505Y-110591823D01*
X148874006Y-110667173D01*
X149079040Y-110705500D01*
X149079043Y-110705500D01*
X149287623Y-110705500D01*
X149287626Y-110705500D01*
X149492660Y-110667173D01*
X149687161Y-110591823D01*
X149864504Y-110482016D01*
X150018651Y-110341493D01*
X150144352Y-110175038D01*
X150237327Y-109988319D01*
X150294409Y-109787696D01*
X150313655Y-109580000D01*
X150313655Y-109579999D01*
X157136344Y-109579999D01*
X157136344Y-109580000D01*
X157155589Y-109787691D01*
X157155589Y-109787693D01*
X157155590Y-109787696D01*
X157212672Y-109988319D01*
X157305647Y-110175038D01*
X157431348Y-110341493D01*
X157585495Y-110482016D01*
X157762838Y-110591823D01*
X157957339Y-110667173D01*
X158162373Y-110705500D01*
X158162376Y-110705500D01*
X158370956Y-110705500D01*
X158370959Y-110705500D01*
X158575993Y-110667173D01*
X158770494Y-110591823D01*
X158947837Y-110482016D01*
X159101984Y-110341493D01*
X159227685Y-110175038D01*
X159320660Y-109988319D01*
X159377742Y-109787696D01*
X159396988Y-109580000D01*
X159396988Y-109579999D01*
X166219678Y-109579999D01*
X166219678Y-109580000D01*
X166238923Y-109787691D01*
X166238923Y-109787693D01*
X166238924Y-109787696D01*
X166296006Y-109988319D01*
X166388981Y-110175038D01*
X166514682Y-110341493D01*
X166668829Y-110482016D01*
X166846172Y-110591823D01*
X167040673Y-110667173D01*
X167245707Y-110705500D01*
X167245710Y-110705500D01*
X167454290Y-110705500D01*
X167454293Y-110705500D01*
X167659327Y-110667173D01*
X167853828Y-110591823D01*
X168031171Y-110482016D01*
X168185318Y-110341493D01*
X168311019Y-110175038D01*
X168403994Y-109988319D01*
X168461076Y-109787696D01*
X168480322Y-109580000D01*
X168461076Y-109372304D01*
X168403994Y-109171681D01*
X168311019Y-108984962D01*
X168185318Y-108818507D01*
X168031171Y-108677984D01*
X167853828Y-108568177D01*
X167853827Y-108568176D01*
X167711609Y-108513081D01*
X167659327Y-108492827D01*
X167454293Y-108454500D01*
X167245707Y-108454500D01*
X167040673Y-108492827D01*
X167040670Y-108492827D01*
X167040670Y-108492828D01*
X166846172Y-108568176D01*
X166846171Y-108568177D01*
X166668827Y-108677985D01*
X166514683Y-108818505D01*
X166388981Y-108984961D01*
X166296007Y-109171677D01*
X166296006Y-109171681D01*
X166243980Y-109354536D01*
X166238923Y-109372308D01*
X166219678Y-109579999D01*
X159396988Y-109579999D01*
X159377742Y-109372304D01*
X159320660Y-109171681D01*
X159227685Y-108984962D01*
X159101984Y-108818507D01*
X158947837Y-108677984D01*
X158770494Y-108568177D01*
X158770493Y-108568176D01*
X158628275Y-108513081D01*
X158575993Y-108492827D01*
X158370959Y-108454500D01*
X158162373Y-108454500D01*
X157957339Y-108492827D01*
X157957336Y-108492827D01*
X157957336Y-108492828D01*
X157762838Y-108568176D01*
X157762837Y-108568177D01*
X157585493Y-108677985D01*
X157431349Y-108818505D01*
X157305647Y-108984961D01*
X157212673Y-109171677D01*
X157212672Y-109171681D01*
X157160646Y-109354536D01*
X157155589Y-109372308D01*
X157136344Y-109579999D01*
X150313655Y-109579999D01*
X150294409Y-109372304D01*
X150237327Y-109171681D01*
X150144352Y-108984962D01*
X150018651Y-108818507D01*
X149864504Y-108677984D01*
X149687161Y-108568177D01*
X149687160Y-108568176D01*
X149544942Y-108513081D01*
X149492660Y-108492827D01*
X149287626Y-108454500D01*
X149079040Y-108454500D01*
X148874006Y-108492827D01*
X148874003Y-108492827D01*
X148874003Y-108492828D01*
X148679505Y-108568176D01*
X148679504Y-108568177D01*
X148502160Y-108677985D01*
X148348016Y-108818505D01*
X148222314Y-108984961D01*
X148129340Y-109171677D01*
X148129339Y-109171681D01*
X148077313Y-109354536D01*
X148072256Y-109372308D01*
X148053011Y-109579999D01*
X141230322Y-109579999D01*
X141211076Y-109372304D01*
X141153994Y-109171681D01*
X141061019Y-108984962D01*
X140935318Y-108818507D01*
X140781171Y-108677984D01*
X140603828Y-108568177D01*
X140603827Y-108568176D01*
X140461609Y-108513081D01*
X140409327Y-108492827D01*
X140204293Y-108454500D01*
X139995707Y-108454500D01*
X139790673Y-108492827D01*
X139790670Y-108492827D01*
X139790670Y-108492828D01*
X139596172Y-108568176D01*
X139596171Y-108568177D01*
X139418827Y-108677985D01*
X139264683Y-108818505D01*
X139138981Y-108984961D01*
X139046007Y-109171677D01*
X139046006Y-109171681D01*
X138993980Y-109354536D01*
X138988923Y-109372308D01*
X138969678Y-109579999D01*
X96500500Y-109579999D01*
X96500500Y-106710131D01*
X115724500Y-106710131D01*
X115724500Y-108449856D01*
X115724502Y-108449882D01*
X115727413Y-108474987D01*
X115727415Y-108474991D01*
X115772793Y-108577764D01*
X115772794Y-108577765D01*
X115852235Y-108657206D01*
X115955009Y-108702585D01*
X115980135Y-108705500D01*
X117719864Y-108705499D01*
X117719879Y-108705497D01*
X117719882Y-108705497D01*
X117744987Y-108702586D01*
X117744988Y-108702585D01*
X117744991Y-108702585D01*
X117847765Y-108657206D01*
X117927206Y-108577765D01*
X117972585Y-108474991D01*
X117975500Y-108449865D01*
X117975499Y-107626971D01*
X117989486Y-107579336D01*
X117988893Y-107578193D01*
X118209578Y-107578193D01*
X118218476Y-107592038D01*
X118222970Y-107615531D01*
X118238923Y-107787691D01*
X118238923Y-107787693D01*
X118238924Y-107787696D01*
X118296006Y-107988319D01*
X118296007Y-107988322D01*
X118322021Y-108040564D01*
X118388981Y-108175038D01*
X118514682Y-108341493D01*
X118668829Y-108482016D01*
X118846172Y-108591823D01*
X119040673Y-108667173D01*
X119245707Y-108705500D01*
X119245710Y-108705500D01*
X119454290Y-108705500D01*
X119454293Y-108705500D01*
X119659327Y-108667173D01*
X119853828Y-108591823D01*
X120031171Y-108482016D01*
X120185318Y-108341493D01*
X120311019Y-108175038D01*
X120403994Y-107988319D01*
X120461076Y-107787696D01*
X120476529Y-107620933D01*
X120492629Y-107580384D01*
X120707064Y-107580384D01*
X120721693Y-107608566D01*
X120723471Y-107620933D01*
X120738923Y-107787691D01*
X120738923Y-107787693D01*
X120738924Y-107787696D01*
X120796006Y-107988319D01*
X120796007Y-107988322D01*
X120822021Y-108040564D01*
X120888981Y-108175038D01*
X121014682Y-108341493D01*
X121168829Y-108482016D01*
X121346172Y-108591823D01*
X121540673Y-108667173D01*
X121745707Y-108705500D01*
X121745710Y-108705500D01*
X121954290Y-108705500D01*
X121954293Y-108705500D01*
X122159327Y-108667173D01*
X122353828Y-108591823D01*
X122531171Y-108482016D01*
X122685318Y-108341493D01*
X122811019Y-108175038D01*
X122903994Y-107988319D01*
X122961076Y-107787696D01*
X122976529Y-107620933D01*
X122992629Y-107580384D01*
X123207064Y-107580384D01*
X123221693Y-107608566D01*
X123223471Y-107620933D01*
X123238923Y-107787691D01*
X123238923Y-107787693D01*
X123238924Y-107787696D01*
X123296006Y-107988319D01*
X123296007Y-107988322D01*
X123322021Y-108040564D01*
X123388981Y-108175038D01*
X123514682Y-108341493D01*
X123668829Y-108482016D01*
X123846172Y-108591823D01*
X124040673Y-108667173D01*
X124245707Y-108705500D01*
X124245710Y-108705500D01*
X124454290Y-108705500D01*
X124454293Y-108705500D01*
X124659327Y-108667173D01*
X124853828Y-108591823D01*
X125031171Y-108482016D01*
X125185318Y-108341493D01*
X125311019Y-108175038D01*
X125403994Y-107988319D01*
X125461076Y-107787696D01*
X125476529Y-107620933D01*
X125492629Y-107580384D01*
X125707064Y-107580384D01*
X125721693Y-107608566D01*
X125723471Y-107620933D01*
X125738923Y-107787691D01*
X125738923Y-107787693D01*
X125738924Y-107787696D01*
X125796006Y-107988319D01*
X125796007Y-107988322D01*
X125822021Y-108040564D01*
X125888981Y-108175038D01*
X126014682Y-108341493D01*
X126168829Y-108482016D01*
X126346172Y-108591823D01*
X126540673Y-108667173D01*
X126745707Y-108705500D01*
X126745710Y-108705500D01*
X126954290Y-108705500D01*
X126954293Y-108705500D01*
X127159327Y-108667173D01*
X127353828Y-108591823D01*
X127531171Y-108482016D01*
X127685318Y-108341493D01*
X127811019Y-108175038D01*
X127903994Y-107988319D01*
X127961076Y-107787696D01*
X127976529Y-107620933D01*
X127992629Y-107580384D01*
X128207064Y-107580384D01*
X128221693Y-107608566D01*
X128223471Y-107620933D01*
X128238923Y-107787691D01*
X128238923Y-107787693D01*
X128238924Y-107787696D01*
X128296006Y-107988319D01*
X128296007Y-107988322D01*
X128322021Y-108040564D01*
X128388981Y-108175038D01*
X128514682Y-108341493D01*
X128668829Y-108482016D01*
X128846172Y-108591823D01*
X129040673Y-108667173D01*
X129245707Y-108705500D01*
X129245710Y-108705500D01*
X129454290Y-108705500D01*
X129454293Y-108705500D01*
X129659327Y-108667173D01*
X129853828Y-108591823D01*
X130031171Y-108482016D01*
X130185318Y-108341493D01*
X130311019Y-108175038D01*
X130379406Y-108037697D01*
X130426908Y-107986461D01*
X130494571Y-107969039D01*
X130560912Y-107990964D01*
X130602788Y-108040564D01*
X130698132Y-108245029D01*
X130698133Y-108245031D01*
X130753023Y-108323422D01*
X130753023Y-108323423D01*
X131285387Y-107791059D01*
X131290889Y-107811591D01*
X131369881Y-107948408D01*
X131481592Y-108060119D01*
X131618409Y-108139111D01*
X131638939Y-108144612D01*
X131106575Y-108676975D01*
X131184973Y-108731868D01*
X131395090Y-108829847D01*
X131395099Y-108829851D01*
X131619031Y-108889852D01*
X131619041Y-108889854D01*
X131849999Y-108910061D01*
X131850001Y-108910061D01*
X132080958Y-108889854D01*
X132080968Y-108889852D01*
X132304351Y-108829998D01*
X137244318Y-108829998D01*
X137244318Y-108830001D01*
X137264955Y-108986760D01*
X137264956Y-108986762D01*
X137325464Y-109132841D01*
X137421718Y-109258282D01*
X137547159Y-109354536D01*
X137693238Y-109415044D01*
X137771619Y-109425363D01*
X137849999Y-109435682D01*
X137850000Y-109435682D01*
X137850001Y-109435682D01*
X137902254Y-109428802D01*
X138006762Y-109415044D01*
X138152841Y-109354536D01*
X138278282Y-109258282D01*
X138374536Y-109132841D01*
X138435044Y-108986762D01*
X138455682Y-108830000D01*
X138455662Y-108829851D01*
X138435044Y-108673239D01*
X138435044Y-108673238D01*
X138374536Y-108527159D01*
X138278282Y-108401718D01*
X138152841Y-108305464D01*
X138006762Y-108244956D01*
X138006760Y-108244955D01*
X137850001Y-108224318D01*
X137849999Y-108224318D01*
X137693239Y-108244955D01*
X137693237Y-108244956D01*
X137547160Y-108305463D01*
X137421718Y-108401718D01*
X137325463Y-108527160D01*
X137264956Y-108673237D01*
X137264955Y-108673239D01*
X137244318Y-108829998D01*
X132304351Y-108829998D01*
X132304900Y-108829851D01*
X132304909Y-108829847D01*
X132515030Y-108731867D01*
X132593423Y-108676975D01*
X132061059Y-108144612D01*
X132081591Y-108139111D01*
X132218408Y-108060119D01*
X132330119Y-107948408D01*
X132409111Y-107811591D01*
X132414612Y-107791059D01*
X132946975Y-108323423D01*
X133001867Y-108245030D01*
X133099847Y-108034909D01*
X133099851Y-108034900D01*
X133159852Y-107810968D01*
X133159854Y-107810958D01*
X133180061Y-107580000D01*
X133180061Y-107579999D01*
X133159854Y-107349041D01*
X133159852Y-107349031D01*
X133099851Y-107125099D01*
X133099847Y-107125090D01*
X133078821Y-107079999D01*
X138969678Y-107079999D01*
X138969678Y-107080000D01*
X138988923Y-107287691D01*
X138988923Y-107287693D01*
X138988924Y-107287696D01*
X139006378Y-107349041D01*
X139046007Y-107488322D01*
X139091658Y-107580001D01*
X139138981Y-107675038D01*
X139264682Y-107841493D01*
X139418829Y-107982016D01*
X139596172Y-108091823D01*
X139790673Y-108167173D01*
X139995707Y-108205500D01*
X139995710Y-108205500D01*
X140204290Y-108205500D01*
X140204293Y-108205500D01*
X140409327Y-108167173D01*
X140603828Y-108091823D01*
X140781171Y-107982016D01*
X140935318Y-107841493D01*
X141061019Y-107675038D01*
X141153994Y-107488319D01*
X141211076Y-107287696D01*
X141230322Y-107080000D01*
X141230322Y-107079999D01*
X148053011Y-107079999D01*
X148053011Y-107080000D01*
X148072256Y-107287691D01*
X148072256Y-107287693D01*
X148072257Y-107287696D01*
X148089711Y-107349041D01*
X148129340Y-107488322D01*
X148174991Y-107580001D01*
X148222314Y-107675038D01*
X148348015Y-107841493D01*
X148502162Y-107982016D01*
X148679505Y-108091823D01*
X148874006Y-108167173D01*
X149079040Y-108205500D01*
X149079043Y-108205500D01*
X149287623Y-108205500D01*
X149287626Y-108205500D01*
X149492660Y-108167173D01*
X149687161Y-108091823D01*
X149864504Y-107982016D01*
X150018651Y-107841493D01*
X150144352Y-107675038D01*
X150237327Y-107488319D01*
X150294409Y-107287696D01*
X150313655Y-107080000D01*
X150313655Y-107079999D01*
X157136344Y-107079999D01*
X157136344Y-107080000D01*
X157155589Y-107287691D01*
X157155589Y-107287693D01*
X157155590Y-107287696D01*
X157173044Y-107349041D01*
X157212673Y-107488322D01*
X157258324Y-107580001D01*
X157305647Y-107675038D01*
X157431348Y-107841493D01*
X157585495Y-107982016D01*
X157762838Y-108091823D01*
X157957339Y-108167173D01*
X158162373Y-108205500D01*
X158162376Y-108205500D01*
X158370956Y-108205500D01*
X158370959Y-108205500D01*
X158575993Y-108167173D01*
X158770494Y-108091823D01*
X158947837Y-107982016D01*
X159101984Y-107841493D01*
X159227685Y-107675038D01*
X159320660Y-107488319D01*
X159377742Y-107287696D01*
X159396988Y-107080000D01*
X159396988Y-107079999D01*
X166219678Y-107079999D01*
X166219678Y-107080000D01*
X166238923Y-107287691D01*
X166238923Y-107287693D01*
X166238924Y-107287696D01*
X166256378Y-107349041D01*
X166296007Y-107488322D01*
X166341658Y-107580001D01*
X166388981Y-107675038D01*
X166514682Y-107841493D01*
X166668829Y-107982016D01*
X166846172Y-108091823D01*
X167040673Y-108167173D01*
X167245707Y-108205500D01*
X167245710Y-108205500D01*
X167454290Y-108205500D01*
X167454293Y-108205500D01*
X167659327Y-108167173D01*
X167853828Y-108091823D01*
X168031171Y-107982016D01*
X168185318Y-107841493D01*
X168311019Y-107675038D01*
X168403994Y-107488319D01*
X168461076Y-107287696D01*
X168480322Y-107080000D01*
X168461076Y-106872304D01*
X168403994Y-106671681D01*
X168311019Y-106484962D01*
X168185318Y-106318507D01*
X168031171Y-106177984D01*
X167853828Y-106068177D01*
X167853827Y-106068176D01*
X167711609Y-106013081D01*
X167659327Y-105992827D01*
X167454293Y-105954500D01*
X167245707Y-105954500D01*
X167040673Y-105992827D01*
X167040670Y-105992827D01*
X167040670Y-105992828D01*
X166846172Y-106068176D01*
X166846171Y-106068177D01*
X166668827Y-106177985D01*
X166514683Y-106318505D01*
X166388981Y-106484961D01*
X166296007Y-106671677D01*
X166296006Y-106671681D01*
X166243980Y-106854536D01*
X166238923Y-106872308D01*
X166219678Y-107079999D01*
X159396988Y-107079999D01*
X159377742Y-106872304D01*
X159320660Y-106671681D01*
X159227685Y-106484962D01*
X159101984Y-106318507D01*
X158947837Y-106177984D01*
X158770494Y-106068177D01*
X158770493Y-106068176D01*
X158628275Y-106013081D01*
X158575993Y-105992827D01*
X158370959Y-105954500D01*
X158162373Y-105954500D01*
X157957339Y-105992827D01*
X157957336Y-105992827D01*
X157957336Y-105992828D01*
X157762838Y-106068176D01*
X157762837Y-106068177D01*
X157585493Y-106177985D01*
X157431349Y-106318505D01*
X157305647Y-106484961D01*
X157212673Y-106671677D01*
X157212672Y-106671681D01*
X157160646Y-106854536D01*
X157155589Y-106872308D01*
X157136344Y-107079999D01*
X150313655Y-107079999D01*
X150294409Y-106872304D01*
X150237327Y-106671681D01*
X150144352Y-106484962D01*
X150018651Y-106318507D01*
X149864504Y-106177984D01*
X149687161Y-106068177D01*
X149687160Y-106068176D01*
X149544942Y-106013081D01*
X149492660Y-105992827D01*
X149287626Y-105954500D01*
X149079040Y-105954500D01*
X148874006Y-105992827D01*
X148874003Y-105992827D01*
X148874003Y-105992828D01*
X148679505Y-106068176D01*
X148679504Y-106068177D01*
X148502160Y-106177985D01*
X148348016Y-106318505D01*
X148222314Y-106484961D01*
X148129340Y-106671677D01*
X148129339Y-106671681D01*
X148077313Y-106854536D01*
X148072256Y-106872308D01*
X148053011Y-107079999D01*
X141230322Y-107079999D01*
X141211076Y-106872304D01*
X141153994Y-106671681D01*
X141061019Y-106484962D01*
X140935318Y-106318507D01*
X140781171Y-106177984D01*
X140603828Y-106068177D01*
X140603827Y-106068176D01*
X140461609Y-106013081D01*
X140409327Y-105992827D01*
X140204293Y-105954500D01*
X139995707Y-105954500D01*
X139790673Y-105992827D01*
X139790670Y-105992827D01*
X139790670Y-105992828D01*
X139596172Y-106068176D01*
X139596171Y-106068177D01*
X139418827Y-106177985D01*
X139264683Y-106318505D01*
X139138981Y-106484961D01*
X139046007Y-106671677D01*
X139046006Y-106671681D01*
X138993980Y-106854536D01*
X138988923Y-106872308D01*
X138969678Y-107079999D01*
X133078821Y-107079999D01*
X133001868Y-106914972D01*
X132946974Y-106836576D01*
X132414612Y-107368939D01*
X132409111Y-107348409D01*
X132330119Y-107211592D01*
X132218408Y-107099881D01*
X132081591Y-107020889D01*
X132061058Y-107015387D01*
X132593423Y-106483023D01*
X132515031Y-106428133D01*
X132515029Y-106428132D01*
X132304909Y-106330152D01*
X132304900Y-106330148D01*
X132304340Y-106329998D01*
X136094318Y-106329998D01*
X136094318Y-106330001D01*
X136114955Y-106486760D01*
X136114956Y-106486762D01*
X136175464Y-106632841D01*
X136271718Y-106758282D01*
X136397159Y-106854536D01*
X136543238Y-106915044D01*
X136621619Y-106925363D01*
X136699999Y-106935682D01*
X136700000Y-106935682D01*
X136700001Y-106935682D01*
X136752254Y-106928802D01*
X136856762Y-106915044D01*
X137002841Y-106854536D01*
X137128282Y-106758282D01*
X137224536Y-106632841D01*
X137285044Y-106486762D01*
X137305682Y-106330000D01*
X137285044Y-106173238D01*
X137224536Y-106027159D01*
X137128282Y-105901718D01*
X137002841Y-105805464D01*
X136856762Y-105744956D01*
X136856760Y-105744955D01*
X136700001Y-105724318D01*
X136699999Y-105724318D01*
X136543239Y-105744955D01*
X136543237Y-105744956D01*
X136397160Y-105805463D01*
X136271718Y-105901718D01*
X136175463Y-106027160D01*
X136114956Y-106173237D01*
X136114955Y-106173239D01*
X136094318Y-106329998D01*
X132304340Y-106329998D01*
X132080968Y-106270147D01*
X132080958Y-106270145D01*
X131850001Y-106249939D01*
X131849999Y-106249939D01*
X131619041Y-106270145D01*
X131619031Y-106270147D01*
X131395099Y-106330148D01*
X131395090Y-106330152D01*
X131184974Y-106428131D01*
X131106576Y-106483024D01*
X131638940Y-107015387D01*
X131618409Y-107020889D01*
X131481592Y-107099881D01*
X131369881Y-107211592D01*
X131290889Y-107348409D01*
X131285387Y-107368940D01*
X130753024Y-106836576D01*
X130698131Y-106914974D01*
X130602788Y-107119435D01*
X130556615Y-107171874D01*
X130489421Y-107191026D01*
X130422540Y-107170810D01*
X130379406Y-107122301D01*
X130311020Y-106984963D01*
X130258219Y-106915043D01*
X130185318Y-106818507D01*
X130031171Y-106677984D01*
X129853828Y-106568177D01*
X129853827Y-106568176D01*
X129685052Y-106502793D01*
X129659327Y-106492827D01*
X129454293Y-106454500D01*
X129245707Y-106454500D01*
X129040673Y-106492827D01*
X129040670Y-106492827D01*
X129040670Y-106492828D01*
X128846172Y-106568176D01*
X128846171Y-106568177D01*
X128668827Y-106677985D01*
X128514683Y-106818505D01*
X128388981Y-106984961D01*
X128296007Y-107171677D01*
X128238923Y-107372308D01*
X128223471Y-107539066D01*
X128207064Y-107580384D01*
X127992629Y-107580384D01*
X127992935Y-107579614D01*
X127978307Y-107551433D01*
X127976529Y-107539066D01*
X127961076Y-107372308D01*
X127961076Y-107372304D01*
X127903994Y-107171681D01*
X127811019Y-106984962D01*
X127685318Y-106818507D01*
X127531171Y-106677984D01*
X127353828Y-106568177D01*
X127353827Y-106568176D01*
X127185052Y-106502793D01*
X127159327Y-106492827D01*
X126954293Y-106454500D01*
X126745707Y-106454500D01*
X126540673Y-106492827D01*
X126540670Y-106492827D01*
X126540670Y-106492828D01*
X126346172Y-106568176D01*
X126346171Y-106568177D01*
X126168827Y-106677985D01*
X126014683Y-106818505D01*
X125888981Y-106984961D01*
X125796007Y-107171677D01*
X125738923Y-107372308D01*
X125723471Y-107539066D01*
X125707064Y-107580384D01*
X125492629Y-107580384D01*
X125492935Y-107579614D01*
X125478307Y-107551433D01*
X125476529Y-107539066D01*
X125461076Y-107372308D01*
X125461076Y-107372304D01*
X125403994Y-107171681D01*
X125311019Y-106984962D01*
X125185318Y-106818507D01*
X125031171Y-106677984D01*
X124853828Y-106568177D01*
X124853827Y-106568176D01*
X124685052Y-106502793D01*
X124659327Y-106492827D01*
X124454293Y-106454500D01*
X124245707Y-106454500D01*
X124040673Y-106492827D01*
X124040670Y-106492827D01*
X124040670Y-106492828D01*
X123846172Y-106568176D01*
X123846171Y-106568177D01*
X123668827Y-106677985D01*
X123514683Y-106818505D01*
X123388981Y-106984961D01*
X123296007Y-107171677D01*
X123238923Y-107372308D01*
X123223471Y-107539066D01*
X123207064Y-107580384D01*
X122992629Y-107580384D01*
X122992935Y-107579614D01*
X122978307Y-107551433D01*
X122976529Y-107539066D01*
X122961076Y-107372308D01*
X122961076Y-107372304D01*
X122903994Y-107171681D01*
X122811019Y-106984962D01*
X122685318Y-106818507D01*
X122531171Y-106677984D01*
X122353828Y-106568177D01*
X122353827Y-106568176D01*
X122185052Y-106502793D01*
X122159327Y-106492827D01*
X121954293Y-106454500D01*
X121745707Y-106454500D01*
X121540673Y-106492827D01*
X121540670Y-106492827D01*
X121540670Y-106492828D01*
X121346172Y-106568176D01*
X121346171Y-106568177D01*
X121168827Y-106677985D01*
X121014683Y-106818505D01*
X120888981Y-106984961D01*
X120796007Y-107171677D01*
X120738923Y-107372308D01*
X120723471Y-107539066D01*
X120707064Y-107580384D01*
X120492629Y-107580384D01*
X120492935Y-107579614D01*
X120478307Y-107551433D01*
X120476529Y-107539066D01*
X120461076Y-107372308D01*
X120461076Y-107372304D01*
X120403994Y-107171681D01*
X120311019Y-106984962D01*
X120185318Y-106818507D01*
X120031171Y-106677984D01*
X119853828Y-106568177D01*
X119853827Y-106568176D01*
X119685052Y-106502793D01*
X119659327Y-106492827D01*
X119454293Y-106454500D01*
X119245707Y-106454500D01*
X119040673Y-106492827D01*
X119040670Y-106492827D01*
X119040670Y-106492828D01*
X118846172Y-106568176D01*
X118846171Y-106568177D01*
X118668827Y-106677985D01*
X118514683Y-106818505D01*
X118388981Y-106984961D01*
X118296007Y-107171677D01*
X118238923Y-107372308D01*
X118222970Y-107544469D01*
X118209578Y-107578193D01*
X117988893Y-107578193D01*
X117977806Y-107556835D01*
X117975499Y-107533027D01*
X117975499Y-106710143D01*
X117975499Y-106710136D01*
X117975497Y-106710117D01*
X117972586Y-106685012D01*
X117972585Y-106685010D01*
X117972585Y-106685009D01*
X117927206Y-106582235D01*
X117847765Y-106502794D01*
X117811456Y-106486762D01*
X117744992Y-106457415D01*
X117719865Y-106454500D01*
X115980143Y-106454500D01*
X115980117Y-106454502D01*
X115955012Y-106457413D01*
X115955008Y-106457415D01*
X115852235Y-106502793D01*
X115772794Y-106582234D01*
X115727415Y-106685006D01*
X115727415Y-106685008D01*
X115724500Y-106710131D01*
X96500500Y-106710131D01*
X96500500Y-104579999D01*
X138969678Y-104579999D01*
X138969678Y-104580000D01*
X138988923Y-104787691D01*
X138988923Y-104787693D01*
X138988924Y-104787696D01*
X139046006Y-104988319D01*
X139138981Y-105175038D01*
X139264682Y-105341493D01*
X139418829Y-105482016D01*
X139596172Y-105591823D01*
X139790673Y-105667173D01*
X139995707Y-105705500D01*
X139995710Y-105705500D01*
X140204290Y-105705500D01*
X140204293Y-105705500D01*
X140409327Y-105667173D01*
X140603828Y-105591823D01*
X140781171Y-105482016D01*
X140935318Y-105341493D01*
X141061019Y-105175038D01*
X141153994Y-104988319D01*
X141211076Y-104787696D01*
X141230322Y-104580000D01*
X141230322Y-104579999D01*
X148053011Y-104579999D01*
X148053011Y-104580000D01*
X148072256Y-104787691D01*
X148072256Y-104787693D01*
X148072257Y-104787696D01*
X148129339Y-104988319D01*
X148222314Y-105175038D01*
X148348015Y-105341493D01*
X148502162Y-105482016D01*
X148679505Y-105591823D01*
X148874006Y-105667173D01*
X149079040Y-105705500D01*
X149079043Y-105705500D01*
X149287623Y-105705500D01*
X149287626Y-105705500D01*
X149492660Y-105667173D01*
X149687161Y-105591823D01*
X149864504Y-105482016D01*
X150018651Y-105341493D01*
X150144352Y-105175038D01*
X150237327Y-104988319D01*
X150294409Y-104787696D01*
X150313655Y-104580000D01*
X150313655Y-104579999D01*
X157136344Y-104579999D01*
X157136344Y-104580000D01*
X157155589Y-104787691D01*
X157155589Y-104787693D01*
X157155590Y-104787696D01*
X157212672Y-104988319D01*
X157305647Y-105175038D01*
X157431348Y-105341493D01*
X157585495Y-105482016D01*
X157762838Y-105591823D01*
X157957339Y-105667173D01*
X158162373Y-105705500D01*
X158162376Y-105705500D01*
X158370956Y-105705500D01*
X158370959Y-105705500D01*
X158575993Y-105667173D01*
X158770494Y-105591823D01*
X158947837Y-105482016D01*
X159101984Y-105341493D01*
X159227685Y-105175038D01*
X159320660Y-104988319D01*
X159377742Y-104787696D01*
X159396988Y-104580000D01*
X159396988Y-104579999D01*
X166219678Y-104579999D01*
X166219678Y-104580000D01*
X166238923Y-104787691D01*
X166238923Y-104787693D01*
X166238924Y-104787696D01*
X166296006Y-104988319D01*
X166388981Y-105175038D01*
X166514682Y-105341493D01*
X166668829Y-105482016D01*
X166846172Y-105591823D01*
X167040673Y-105667173D01*
X167245707Y-105705500D01*
X167245710Y-105705500D01*
X167454290Y-105705500D01*
X167454293Y-105705500D01*
X167659327Y-105667173D01*
X167853828Y-105591823D01*
X168031171Y-105482016D01*
X168185318Y-105341493D01*
X168311019Y-105175038D01*
X168403994Y-104988319D01*
X168461076Y-104787696D01*
X168480322Y-104580000D01*
X168461076Y-104372304D01*
X168403994Y-104171681D01*
X168311019Y-103984962D01*
X168185318Y-103818507D01*
X168031171Y-103677984D01*
X167853828Y-103568177D01*
X167853827Y-103568176D01*
X167711609Y-103513081D01*
X167659327Y-103492827D01*
X167454293Y-103454500D01*
X167245707Y-103454500D01*
X167040673Y-103492827D01*
X167040670Y-103492827D01*
X167040670Y-103492828D01*
X166846172Y-103568176D01*
X166846171Y-103568177D01*
X166668827Y-103677985D01*
X166514683Y-103818505D01*
X166388981Y-103984961D01*
X166296007Y-104171677D01*
X166238923Y-104372308D01*
X166219678Y-104579999D01*
X159396988Y-104579999D01*
X159377742Y-104372304D01*
X159320660Y-104171681D01*
X159227685Y-103984962D01*
X159101984Y-103818507D01*
X158947837Y-103677984D01*
X158770494Y-103568177D01*
X158770493Y-103568176D01*
X158628275Y-103513081D01*
X158575993Y-103492827D01*
X158370959Y-103454500D01*
X158162373Y-103454500D01*
X157957339Y-103492827D01*
X157957336Y-103492827D01*
X157957336Y-103492828D01*
X157762838Y-103568176D01*
X157762837Y-103568177D01*
X157585493Y-103677985D01*
X157431349Y-103818505D01*
X157305647Y-103984961D01*
X157212673Y-104171677D01*
X157155589Y-104372308D01*
X157136344Y-104579999D01*
X150313655Y-104579999D01*
X150294409Y-104372304D01*
X150237327Y-104171681D01*
X150144352Y-103984962D01*
X150018651Y-103818507D01*
X149864504Y-103677984D01*
X149687161Y-103568177D01*
X149687160Y-103568176D01*
X149544942Y-103513081D01*
X149492660Y-103492827D01*
X149287626Y-103454500D01*
X149079040Y-103454500D01*
X148874006Y-103492827D01*
X148874003Y-103492827D01*
X148874003Y-103492828D01*
X148679505Y-103568176D01*
X148679504Y-103568177D01*
X148502160Y-103677985D01*
X148348016Y-103818505D01*
X148222314Y-103984961D01*
X148129340Y-104171677D01*
X148072256Y-104372308D01*
X148053011Y-104579999D01*
X141230322Y-104579999D01*
X141211076Y-104372304D01*
X141153994Y-104171681D01*
X141061019Y-103984962D01*
X140935318Y-103818507D01*
X140781171Y-103677984D01*
X140603828Y-103568177D01*
X140603827Y-103568176D01*
X140461609Y-103513081D01*
X140409327Y-103492827D01*
X140204293Y-103454500D01*
X139995707Y-103454500D01*
X139790673Y-103492827D01*
X139790670Y-103492827D01*
X139790670Y-103492828D01*
X139596172Y-103568176D01*
X139596171Y-103568177D01*
X139418827Y-103677985D01*
X139264683Y-103818505D01*
X139138981Y-103984961D01*
X139046007Y-104171677D01*
X138988923Y-104372308D01*
X138969678Y-104579999D01*
X96500500Y-104579999D01*
X96500500Y-103329998D01*
X134844318Y-103329998D01*
X134844318Y-103330001D01*
X134864955Y-103486760D01*
X134864956Y-103486762D01*
X134925464Y-103632841D01*
X135021718Y-103758282D01*
X135147159Y-103854536D01*
X135293238Y-103915044D01*
X135371619Y-103925363D01*
X135449999Y-103935682D01*
X135450000Y-103935682D01*
X135450001Y-103935682D01*
X135502254Y-103928802D01*
X135606762Y-103915044D01*
X135752841Y-103854536D01*
X135878282Y-103758282D01*
X135974536Y-103632841D01*
X136035044Y-103486762D01*
X136055682Y-103330000D01*
X136055682Y-103329998D01*
X161494318Y-103329998D01*
X161494318Y-103330001D01*
X161514955Y-103486760D01*
X161514956Y-103486762D01*
X161575464Y-103632841D01*
X161671718Y-103758282D01*
X161797159Y-103854536D01*
X161943238Y-103915044D01*
X162021619Y-103925363D01*
X162099999Y-103935682D01*
X162100000Y-103935682D01*
X162100001Y-103935682D01*
X162152254Y-103928802D01*
X162256762Y-103915044D01*
X162402841Y-103854536D01*
X162528282Y-103758282D01*
X162624536Y-103632841D01*
X162685044Y-103486762D01*
X162705682Y-103330000D01*
X162685044Y-103173238D01*
X162624536Y-103027159D01*
X162528282Y-102901718D01*
X162402841Y-102805464D01*
X162256762Y-102744956D01*
X162256760Y-102744955D01*
X162100001Y-102724318D01*
X162099999Y-102724318D01*
X161943239Y-102744955D01*
X161943237Y-102744956D01*
X161797160Y-102805463D01*
X161671718Y-102901718D01*
X161575463Y-103027160D01*
X161514956Y-103173237D01*
X161514955Y-103173239D01*
X161494318Y-103329998D01*
X136055682Y-103329998D01*
X136035044Y-103173238D01*
X135974536Y-103027159D01*
X135878282Y-102901718D01*
X135752841Y-102805464D01*
X135606762Y-102744956D01*
X135606760Y-102744955D01*
X135450001Y-102724318D01*
X135449999Y-102724318D01*
X135293239Y-102744955D01*
X135293237Y-102744956D01*
X135147160Y-102805463D01*
X135021718Y-102901718D01*
X134925463Y-103027160D01*
X134864956Y-103173237D01*
X134864955Y-103173239D01*
X134844318Y-103329998D01*
X96500500Y-103329998D01*
X96500500Y-102079999D01*
X138969678Y-102079999D01*
X138969678Y-102080000D01*
X138988923Y-102287691D01*
X138988923Y-102287693D01*
X138988924Y-102287696D01*
X139046006Y-102488319D01*
X139138981Y-102675038D01*
X139264682Y-102841493D01*
X139418829Y-102982016D01*
X139596172Y-103091823D01*
X139790673Y-103167173D01*
X139995707Y-103205500D01*
X139995710Y-103205500D01*
X140204290Y-103205500D01*
X140204293Y-103205500D01*
X140409327Y-103167173D01*
X140603828Y-103091823D01*
X140781171Y-102982016D01*
X140935318Y-102841493D01*
X141061019Y-102675038D01*
X141153994Y-102488319D01*
X141211076Y-102287696D01*
X141230322Y-102080000D01*
X141230322Y-102079999D01*
X148053011Y-102079999D01*
X148053011Y-102080000D01*
X148072256Y-102287691D01*
X148072256Y-102287693D01*
X148072257Y-102287696D01*
X148129339Y-102488319D01*
X148222314Y-102675038D01*
X148348015Y-102841493D01*
X148502162Y-102982016D01*
X148679505Y-103091823D01*
X148874006Y-103167173D01*
X149079040Y-103205500D01*
X149079043Y-103205500D01*
X149287623Y-103205500D01*
X149287626Y-103205500D01*
X149492660Y-103167173D01*
X149687161Y-103091823D01*
X149864504Y-102982016D01*
X150018651Y-102841493D01*
X150144352Y-102675038D01*
X150237327Y-102488319D01*
X150294409Y-102287696D01*
X150313655Y-102080000D01*
X150313655Y-102079999D01*
X157136344Y-102079999D01*
X157136344Y-102080000D01*
X157155589Y-102287691D01*
X157155589Y-102287693D01*
X157155590Y-102287696D01*
X157212672Y-102488319D01*
X157305647Y-102675038D01*
X157431348Y-102841493D01*
X157585495Y-102982016D01*
X157762838Y-103091823D01*
X157957339Y-103167173D01*
X158162373Y-103205500D01*
X158162376Y-103205500D01*
X158370956Y-103205500D01*
X158370959Y-103205500D01*
X158575993Y-103167173D01*
X158770494Y-103091823D01*
X158947837Y-102982016D01*
X159101984Y-102841493D01*
X159227685Y-102675038D01*
X159320660Y-102488319D01*
X159377742Y-102287696D01*
X159396988Y-102080000D01*
X159396988Y-102079999D01*
X166219678Y-102079999D01*
X166219678Y-102080000D01*
X166238923Y-102287691D01*
X166238923Y-102287693D01*
X166238924Y-102287696D01*
X166296006Y-102488319D01*
X166388981Y-102675038D01*
X166514682Y-102841493D01*
X166668829Y-102982016D01*
X166846172Y-103091823D01*
X167040673Y-103167173D01*
X167245707Y-103205500D01*
X167245710Y-103205500D01*
X167454290Y-103205500D01*
X167454293Y-103205500D01*
X167659327Y-103167173D01*
X167853828Y-103091823D01*
X168031171Y-102982016D01*
X168185318Y-102841493D01*
X168311019Y-102675038D01*
X168403994Y-102488319D01*
X168461076Y-102287696D01*
X168480322Y-102080000D01*
X168461076Y-101872304D01*
X168403994Y-101671681D01*
X168311019Y-101484962D01*
X168185318Y-101318507D01*
X168031171Y-101177984D01*
X167853828Y-101068177D01*
X167853827Y-101068176D01*
X167690135Y-101004762D01*
X167659327Y-100992827D01*
X167454293Y-100954500D01*
X167245707Y-100954500D01*
X167040673Y-100992827D01*
X167040670Y-100992827D01*
X167040670Y-100992828D01*
X166846172Y-101068176D01*
X166846171Y-101068177D01*
X166668827Y-101177985D01*
X166514683Y-101318505D01*
X166388981Y-101484961D01*
X166296007Y-101671677D01*
X166238923Y-101872308D01*
X166219678Y-102079999D01*
X159396988Y-102079999D01*
X159377742Y-101872304D01*
X159320660Y-101671681D01*
X159227685Y-101484962D01*
X159101984Y-101318507D01*
X158947837Y-101177984D01*
X158770494Y-101068177D01*
X158770493Y-101068176D01*
X158606801Y-101004762D01*
X158575993Y-100992827D01*
X158370959Y-100954500D01*
X158162373Y-100954500D01*
X157957339Y-100992827D01*
X157957336Y-100992827D01*
X157957336Y-100992828D01*
X157762838Y-101068176D01*
X157762837Y-101068177D01*
X157585493Y-101177985D01*
X157431349Y-101318505D01*
X157305647Y-101484961D01*
X157212673Y-101671677D01*
X157155589Y-101872308D01*
X157136344Y-102079999D01*
X150313655Y-102079999D01*
X150294409Y-101872304D01*
X150237327Y-101671681D01*
X150144352Y-101484962D01*
X150018651Y-101318507D01*
X149864504Y-101177984D01*
X149687161Y-101068177D01*
X149687160Y-101068176D01*
X149523468Y-101004762D01*
X149492660Y-100992827D01*
X149287626Y-100954500D01*
X149079040Y-100954500D01*
X148874006Y-100992827D01*
X148874003Y-100992827D01*
X148874003Y-100992828D01*
X148679505Y-101068176D01*
X148679504Y-101068177D01*
X148502160Y-101177985D01*
X148348016Y-101318505D01*
X148222314Y-101484961D01*
X148129340Y-101671677D01*
X148072256Y-101872308D01*
X148053011Y-102079999D01*
X141230322Y-102079999D01*
X141211076Y-101872304D01*
X141153994Y-101671681D01*
X141061019Y-101484962D01*
X140935318Y-101318507D01*
X140781171Y-101177984D01*
X140603828Y-101068177D01*
X140603827Y-101068176D01*
X140440135Y-101004762D01*
X140409327Y-100992827D01*
X140204293Y-100954500D01*
X139995707Y-100954500D01*
X139790673Y-100992827D01*
X139790670Y-100992827D01*
X139790670Y-100992828D01*
X139596172Y-101068176D01*
X139596171Y-101068177D01*
X139418827Y-101177985D01*
X139264683Y-101318505D01*
X139138981Y-101484961D01*
X139046007Y-101671677D01*
X138988923Y-101872308D01*
X138969678Y-102079999D01*
X96500500Y-102079999D01*
X96500500Y-98992498D01*
X108516818Y-98992498D01*
X108516818Y-98992501D01*
X108537455Y-99149260D01*
X108537456Y-99149262D01*
X108597964Y-99295341D01*
X108694218Y-99420782D01*
X108819659Y-99517036D01*
X108965738Y-99577544D01*
X109044119Y-99587863D01*
X109122499Y-99598182D01*
X109122500Y-99598182D01*
X109122501Y-99598182D01*
X109174754Y-99591302D01*
X109279262Y-99577544D01*
X109425341Y-99517036D01*
X109447545Y-99499998D01*
X110144318Y-99499998D01*
X110144318Y-99500001D01*
X110164955Y-99656760D01*
X110164956Y-99656762D01*
X110219191Y-99787698D01*
X110225464Y-99802841D01*
X110321718Y-99928282D01*
X110447159Y-100024536D01*
X110593238Y-100085044D01*
X110642231Y-100091494D01*
X110749999Y-100105682D01*
X110750000Y-100105682D01*
X110750001Y-100105682D01*
X110802254Y-100098802D01*
X110906762Y-100085044D01*
X111052841Y-100024536D01*
X111178282Y-99928282D01*
X111274536Y-99802841D01*
X111335044Y-99656762D01*
X111355682Y-99500000D01*
X111335044Y-99343238D01*
X111274536Y-99197159D01*
X111178282Y-99071718D01*
X111052841Y-98975464D01*
X110969700Y-98941026D01*
X110906762Y-98914956D01*
X110906760Y-98914955D01*
X110750001Y-98894318D01*
X110749999Y-98894318D01*
X110593239Y-98914955D01*
X110593237Y-98914956D01*
X110447160Y-98975463D01*
X110321718Y-99071718D01*
X110225463Y-99197160D01*
X110164956Y-99343237D01*
X110164955Y-99343239D01*
X110144318Y-99499998D01*
X109447545Y-99499998D01*
X109550782Y-99420782D01*
X109647036Y-99295341D01*
X109707544Y-99149262D01*
X109728182Y-98992500D01*
X109726068Y-98976446D01*
X109707544Y-98835739D01*
X109707544Y-98835738D01*
X109647036Y-98689659D01*
X109550782Y-98564218D01*
X109425341Y-98467964D01*
X109406459Y-98460143D01*
X109406430Y-98460131D01*
X115724500Y-98460131D01*
X115724500Y-100199856D01*
X115724502Y-100199882D01*
X115727413Y-100224987D01*
X115727415Y-100224991D01*
X115772793Y-100327764D01*
X115772794Y-100327765D01*
X115852235Y-100407206D01*
X115955009Y-100452585D01*
X115980135Y-100455500D01*
X117719864Y-100455499D01*
X117719879Y-100455497D01*
X117719882Y-100455497D01*
X117744987Y-100452586D01*
X117744988Y-100452585D01*
X117744991Y-100452585D01*
X117847765Y-100407206D01*
X117927206Y-100327765D01*
X117972585Y-100224991D01*
X117975500Y-100199865D01*
X117975499Y-99376971D01*
X117989486Y-99329336D01*
X117988893Y-99328193D01*
X118209578Y-99328193D01*
X118218476Y-99342038D01*
X118222970Y-99365531D01*
X118238923Y-99537691D01*
X118238923Y-99537693D01*
X118238924Y-99537696D01*
X118296006Y-99738319D01*
X118296007Y-99738322D01*
X118322021Y-99790564D01*
X118388981Y-99925038D01*
X118514682Y-100091493D01*
X118668829Y-100232016D01*
X118846172Y-100341823D01*
X119040673Y-100417173D01*
X119245707Y-100455500D01*
X119245710Y-100455500D01*
X119454290Y-100455500D01*
X119454293Y-100455500D01*
X119659327Y-100417173D01*
X119853828Y-100341823D01*
X120031171Y-100232016D01*
X120185318Y-100091493D01*
X120311019Y-99925038D01*
X120403994Y-99738319D01*
X120461076Y-99537696D01*
X120476529Y-99370933D01*
X120492629Y-99330384D01*
X120707064Y-99330384D01*
X120721693Y-99358566D01*
X120723471Y-99370933D01*
X120738923Y-99537691D01*
X120738923Y-99537693D01*
X120738924Y-99537696D01*
X120796006Y-99738319D01*
X120796007Y-99738322D01*
X120822021Y-99790564D01*
X120888981Y-99925038D01*
X121014682Y-100091493D01*
X121168829Y-100232016D01*
X121346172Y-100341823D01*
X121540673Y-100417173D01*
X121745707Y-100455500D01*
X121745710Y-100455500D01*
X121954290Y-100455500D01*
X121954293Y-100455500D01*
X122159327Y-100417173D01*
X122353828Y-100341823D01*
X122531171Y-100232016D01*
X122685318Y-100091493D01*
X122811019Y-99925038D01*
X122903994Y-99738319D01*
X122961076Y-99537696D01*
X122976529Y-99370933D01*
X122992629Y-99330384D01*
X123207064Y-99330384D01*
X123221693Y-99358566D01*
X123223471Y-99370933D01*
X123238923Y-99537691D01*
X123238923Y-99537693D01*
X123238924Y-99537696D01*
X123296006Y-99738319D01*
X123296007Y-99738322D01*
X123322021Y-99790564D01*
X123388981Y-99925038D01*
X123514682Y-100091493D01*
X123668829Y-100232016D01*
X123846172Y-100341823D01*
X124040673Y-100417173D01*
X124245707Y-100455500D01*
X124245710Y-100455500D01*
X124454290Y-100455500D01*
X124454293Y-100455500D01*
X124659327Y-100417173D01*
X124853828Y-100341823D01*
X125031171Y-100232016D01*
X125185318Y-100091493D01*
X125311019Y-99925038D01*
X125403994Y-99738319D01*
X125461076Y-99537696D01*
X125476529Y-99370933D01*
X125492629Y-99330384D01*
X125707064Y-99330384D01*
X125721693Y-99358566D01*
X125723471Y-99370933D01*
X125738923Y-99537691D01*
X125738923Y-99537693D01*
X125738924Y-99537696D01*
X125796006Y-99738319D01*
X125796007Y-99738322D01*
X125822021Y-99790564D01*
X125888981Y-99925038D01*
X126014682Y-100091493D01*
X126168829Y-100232016D01*
X126346172Y-100341823D01*
X126540673Y-100417173D01*
X126745707Y-100455500D01*
X126745710Y-100455500D01*
X126954290Y-100455500D01*
X126954293Y-100455500D01*
X127159327Y-100417173D01*
X127353828Y-100341823D01*
X127531171Y-100232016D01*
X127685318Y-100091493D01*
X127811019Y-99925038D01*
X127903994Y-99738319D01*
X127961076Y-99537696D01*
X127976529Y-99370933D01*
X127992629Y-99330384D01*
X128207064Y-99330384D01*
X128221693Y-99358566D01*
X128223471Y-99370933D01*
X128238923Y-99537691D01*
X128238923Y-99537693D01*
X128238924Y-99537696D01*
X128296006Y-99738319D01*
X128296007Y-99738322D01*
X128322021Y-99790564D01*
X128388981Y-99925038D01*
X128514682Y-100091493D01*
X128668829Y-100232016D01*
X128846172Y-100341823D01*
X129040673Y-100417173D01*
X129245707Y-100455500D01*
X129245710Y-100455500D01*
X129454290Y-100455500D01*
X129454293Y-100455500D01*
X129659327Y-100417173D01*
X129853828Y-100341823D01*
X130031171Y-100232016D01*
X130185318Y-100091493D01*
X130311019Y-99925038D01*
X130379406Y-99787697D01*
X130426908Y-99736461D01*
X130494571Y-99719039D01*
X130560912Y-99740964D01*
X130602788Y-99790564D01*
X130698132Y-99995029D01*
X130698133Y-99995031D01*
X130753023Y-100073422D01*
X130753023Y-100073423D01*
X131285387Y-99541059D01*
X131290889Y-99561591D01*
X131369881Y-99698408D01*
X131481592Y-99810119D01*
X131618409Y-99889111D01*
X131638939Y-99894612D01*
X131106575Y-100426975D01*
X131184973Y-100481868D01*
X131395090Y-100579847D01*
X131395099Y-100579851D01*
X131619031Y-100639852D01*
X131619041Y-100639854D01*
X131849999Y-100660061D01*
X131850001Y-100660061D01*
X132080958Y-100639854D01*
X132080968Y-100639852D01*
X132304900Y-100579851D01*
X132304909Y-100579847D01*
X132515030Y-100481867D01*
X132593423Y-100426975D01*
X132061059Y-99894612D01*
X132081591Y-99889111D01*
X132218408Y-99810119D01*
X132330119Y-99698408D01*
X132409111Y-99561591D01*
X132414612Y-99541059D01*
X132946975Y-100073423D01*
X133001867Y-99995030D01*
X133099847Y-99784909D01*
X133099851Y-99784900D01*
X133159852Y-99560968D01*
X133159854Y-99560958D01*
X133180061Y-99330000D01*
X133180061Y-99329999D01*
X133159854Y-99099041D01*
X133159852Y-99099031D01*
X133099851Y-98875099D01*
X133099847Y-98875090D01*
X133022926Y-98710131D01*
X138974500Y-98710131D01*
X138974500Y-100449856D01*
X138974502Y-100449880D01*
X138977413Y-100474987D01*
X138977415Y-100474991D01*
X139022793Y-100577764D01*
X139022794Y-100577765D01*
X139102235Y-100657206D01*
X139205009Y-100702585D01*
X139230135Y-100705500D01*
X140969864Y-100705499D01*
X140969879Y-100705497D01*
X140969882Y-100705497D01*
X140994987Y-100702586D01*
X140994988Y-100702585D01*
X140994991Y-100702585D01*
X141097765Y-100657206D01*
X141177206Y-100577765D01*
X141222585Y-100474991D01*
X141225500Y-100449865D01*
X141225499Y-98710136D01*
X141225498Y-98710131D01*
X148057833Y-98710131D01*
X148057833Y-100449856D01*
X148057835Y-100449880D01*
X148060746Y-100474987D01*
X148060748Y-100474991D01*
X148106126Y-100577764D01*
X148106127Y-100577765D01*
X148185568Y-100657206D01*
X148288342Y-100702585D01*
X148313468Y-100705500D01*
X150053197Y-100705499D01*
X150053212Y-100705497D01*
X150053215Y-100705497D01*
X150078320Y-100702586D01*
X150078321Y-100702585D01*
X150078324Y-100702585D01*
X150181098Y-100657206D01*
X150258306Y-100579998D01*
X150994318Y-100579998D01*
X150994318Y-100580001D01*
X151014955Y-100736760D01*
X151014956Y-100736762D01*
X151075464Y-100882841D01*
X151171718Y-101008282D01*
X151297159Y-101104536D01*
X151443238Y-101165044D01*
X151481012Y-101170017D01*
X151599999Y-101185682D01*
X151600000Y-101185682D01*
X151600001Y-101185682D01*
X151658472Y-101177984D01*
X151756762Y-101165044D01*
X151902841Y-101104536D01*
X152028282Y-101008282D01*
X152124536Y-100882841D01*
X152179561Y-100749998D01*
X161494318Y-100749998D01*
X161494318Y-100750001D01*
X161514955Y-100906760D01*
X161514956Y-100906762D01*
X161557006Y-101008281D01*
X161575464Y-101052841D01*
X161671718Y-101178282D01*
X161797159Y-101274536D01*
X161943238Y-101335044D01*
X162021619Y-101345363D01*
X162099999Y-101355682D01*
X162100000Y-101355682D01*
X162100001Y-101355682D01*
X162152254Y-101348802D01*
X162256762Y-101335044D01*
X162402841Y-101274536D01*
X162524515Y-101181171D01*
X162589683Y-101155979D01*
X162658127Y-101170017D01*
X162675478Y-101181167D01*
X162797159Y-101274536D01*
X162943238Y-101335044D01*
X163021619Y-101345363D01*
X163099999Y-101355682D01*
X163100000Y-101355682D01*
X163100001Y-101355682D01*
X163152254Y-101348802D01*
X163256762Y-101335044D01*
X163402841Y-101274536D01*
X163528282Y-101178282D01*
X163624536Y-101052841D01*
X163624535Y-101052841D01*
X163626624Y-101050120D01*
X163683052Y-101008917D01*
X163752798Y-101004762D01*
X163813718Y-101038974D01*
X163823376Y-101050120D01*
X163825464Y-101052841D01*
X163921718Y-101178282D01*
X164047159Y-101274536D01*
X164193238Y-101335044D01*
X164271619Y-101345363D01*
X164349999Y-101355682D01*
X164350000Y-101355682D01*
X164350001Y-101355682D01*
X164402254Y-101348802D01*
X164506762Y-101335044D01*
X164652841Y-101274536D01*
X164778282Y-101178282D01*
X164874536Y-101052841D01*
X164935044Y-100906762D01*
X164955682Y-100750000D01*
X164949823Y-100705500D01*
X164935044Y-100593239D01*
X164935044Y-100593238D01*
X164874536Y-100447159D01*
X164778282Y-100321718D01*
X164652841Y-100225464D01*
X164651689Y-100224987D01*
X164506762Y-100164956D01*
X164506760Y-100164955D01*
X164350001Y-100144318D01*
X164349999Y-100144318D01*
X164193239Y-100164955D01*
X164193237Y-100164956D01*
X164047160Y-100225463D01*
X163921718Y-100321718D01*
X163823376Y-100449880D01*
X163766947Y-100491082D01*
X163697201Y-100495237D01*
X163636281Y-100461024D01*
X163626624Y-100449880D01*
X163609048Y-100426975D01*
X163528282Y-100321718D01*
X163402841Y-100225464D01*
X163401689Y-100224987D01*
X163256762Y-100164956D01*
X163256760Y-100164955D01*
X163100001Y-100144318D01*
X163099999Y-100144318D01*
X162943239Y-100164955D01*
X162943237Y-100164956D01*
X162797157Y-100225464D01*
X162675486Y-100318826D01*
X162610317Y-100344020D01*
X162541872Y-100329981D01*
X162524514Y-100318826D01*
X162402842Y-100225464D01*
X162256762Y-100164956D01*
X162256760Y-100164955D01*
X162100001Y-100144318D01*
X162099999Y-100144318D01*
X161943239Y-100164955D01*
X161943237Y-100164956D01*
X161797160Y-100225463D01*
X161671718Y-100321718D01*
X161575463Y-100447160D01*
X161514956Y-100593237D01*
X161514955Y-100593239D01*
X161494318Y-100749998D01*
X152179561Y-100749998D01*
X152185044Y-100736762D01*
X152205682Y-100580000D01*
X152205662Y-100579851D01*
X152185044Y-100423239D01*
X152185044Y-100423238D01*
X152124536Y-100277159D01*
X152028282Y-100151718D01*
X151902841Y-100055464D01*
X151828174Y-100024536D01*
X151756762Y-99994956D01*
X151756760Y-99994955D01*
X151600001Y-99974318D01*
X151599999Y-99974318D01*
X151443239Y-99994955D01*
X151443237Y-99994956D01*
X151297160Y-100055463D01*
X151171718Y-100151718D01*
X151075463Y-100277160D01*
X151014956Y-100423237D01*
X151014955Y-100423239D01*
X150994318Y-100579998D01*
X150258306Y-100579998D01*
X150260539Y-100577765D01*
X150305918Y-100474991D01*
X150308833Y-100449865D01*
X150308832Y-98710136D01*
X150308831Y-98710131D01*
X157141166Y-98710131D01*
X157141166Y-100449856D01*
X157141168Y-100449880D01*
X157144079Y-100474987D01*
X157144081Y-100474991D01*
X157189459Y-100577764D01*
X157189460Y-100577765D01*
X157268901Y-100657206D01*
X157371675Y-100702585D01*
X157396801Y-100705500D01*
X159136530Y-100705499D01*
X159136545Y-100705497D01*
X159136548Y-100705497D01*
X159161653Y-100702586D01*
X159161654Y-100702585D01*
X159161657Y-100702585D01*
X159264431Y-100657206D01*
X159343872Y-100577765D01*
X159389251Y-100474991D01*
X159392166Y-100449865D01*
X159392165Y-98710136D01*
X159392164Y-98710131D01*
X166224500Y-98710131D01*
X166224500Y-100449856D01*
X166224502Y-100449880D01*
X166227413Y-100474987D01*
X166227415Y-100474991D01*
X166272793Y-100577764D01*
X166272794Y-100577765D01*
X166352235Y-100657206D01*
X166455009Y-100702585D01*
X166480135Y-100705500D01*
X168219864Y-100705499D01*
X168219879Y-100705497D01*
X168219882Y-100705497D01*
X168244987Y-100702586D01*
X168244988Y-100702585D01*
X168244991Y-100702585D01*
X168347765Y-100657206D01*
X168427206Y-100577765D01*
X168472585Y-100474991D01*
X168475500Y-100449865D01*
X168475499Y-98710136D01*
X168475497Y-98710117D01*
X168472586Y-98685012D01*
X168472585Y-98685010D01*
X168472585Y-98685009D01*
X168427206Y-98582235D01*
X168347765Y-98502794D01*
X168347763Y-98502793D01*
X168244992Y-98457415D01*
X168219865Y-98454500D01*
X166480143Y-98454500D01*
X166480117Y-98454502D01*
X166455012Y-98457413D01*
X166455008Y-98457415D01*
X166352235Y-98502793D01*
X166272794Y-98582234D01*
X166227415Y-98685006D01*
X166227415Y-98685008D01*
X166224500Y-98710131D01*
X159392164Y-98710131D01*
X159392163Y-98710117D01*
X159389252Y-98685012D01*
X159389251Y-98685010D01*
X159389251Y-98685009D01*
X159343872Y-98582235D01*
X159264431Y-98502794D01*
X159264429Y-98502793D01*
X159161658Y-98457415D01*
X159136531Y-98454500D01*
X157396809Y-98454500D01*
X157396783Y-98454502D01*
X157371678Y-98457413D01*
X157371674Y-98457415D01*
X157268901Y-98502793D01*
X157189460Y-98582234D01*
X157144081Y-98685006D01*
X157144081Y-98685008D01*
X157141166Y-98710131D01*
X150308831Y-98710131D01*
X150308830Y-98710117D01*
X150305919Y-98685012D01*
X150305918Y-98685010D01*
X150305918Y-98685009D01*
X150260539Y-98582235D01*
X150181098Y-98502794D01*
X150181096Y-98502793D01*
X150078325Y-98457415D01*
X150053198Y-98454500D01*
X148313476Y-98454500D01*
X148313450Y-98454502D01*
X148288345Y-98457413D01*
X148288341Y-98457415D01*
X148185568Y-98502793D01*
X148106127Y-98582234D01*
X148060748Y-98685006D01*
X148060748Y-98685008D01*
X148057833Y-98710131D01*
X141225498Y-98710131D01*
X141225497Y-98710117D01*
X141222586Y-98685012D01*
X141222585Y-98685010D01*
X141222585Y-98685009D01*
X141177206Y-98582235D01*
X141097765Y-98502794D01*
X141097763Y-98502793D01*
X140994992Y-98457415D01*
X140969865Y-98454500D01*
X139230143Y-98454500D01*
X139230117Y-98454502D01*
X139205012Y-98457413D01*
X139205008Y-98457415D01*
X139102235Y-98502793D01*
X139022794Y-98582234D01*
X138977415Y-98685006D01*
X138977415Y-98685008D01*
X138974500Y-98710131D01*
X133022926Y-98710131D01*
X133001868Y-98664972D01*
X132946974Y-98586576D01*
X132414612Y-99118939D01*
X132409111Y-99098409D01*
X132330119Y-98961592D01*
X132218408Y-98849881D01*
X132081591Y-98770889D01*
X132061058Y-98765387D01*
X132593423Y-98233023D01*
X132515031Y-98178133D01*
X132515029Y-98178132D01*
X132304909Y-98080152D01*
X132304900Y-98080148D01*
X132080968Y-98020147D01*
X132080958Y-98020145D01*
X131850001Y-97999939D01*
X131849999Y-97999939D01*
X131619041Y-98020145D01*
X131619031Y-98020147D01*
X131395099Y-98080148D01*
X131395090Y-98080152D01*
X131184974Y-98178131D01*
X131106576Y-98233024D01*
X131638940Y-98765387D01*
X131618409Y-98770889D01*
X131481592Y-98849881D01*
X131369881Y-98961592D01*
X131290889Y-99098409D01*
X131285387Y-99118940D01*
X130753024Y-98586576D01*
X130698131Y-98664974D01*
X130602788Y-98869435D01*
X130556615Y-98921874D01*
X130489421Y-98941026D01*
X130422540Y-98920810D01*
X130379406Y-98872301D01*
X130311020Y-98734963D01*
X130269118Y-98679477D01*
X130185318Y-98568507D01*
X130031171Y-98427984D01*
X129853828Y-98318177D01*
X129853827Y-98318176D01*
X129685052Y-98252793D01*
X129659327Y-98242827D01*
X129454293Y-98204500D01*
X129245707Y-98204500D01*
X129040673Y-98242827D01*
X129040670Y-98242827D01*
X129040670Y-98242828D01*
X128846172Y-98318176D01*
X128846171Y-98318177D01*
X128668827Y-98427985D01*
X128514683Y-98568505D01*
X128388981Y-98734961D01*
X128296007Y-98921677D01*
X128238923Y-99122308D01*
X128223471Y-99289066D01*
X128207064Y-99330384D01*
X127992629Y-99330384D01*
X127992935Y-99329614D01*
X127978307Y-99301433D01*
X127976529Y-99289066D01*
X127961076Y-99122308D01*
X127961076Y-99122304D01*
X127903994Y-98921681D01*
X127811019Y-98734962D01*
X127685318Y-98568507D01*
X127531171Y-98427984D01*
X127353828Y-98318177D01*
X127353827Y-98318176D01*
X127185052Y-98252793D01*
X127159327Y-98242827D01*
X126954293Y-98204500D01*
X126745707Y-98204500D01*
X126540673Y-98242827D01*
X126540670Y-98242827D01*
X126540670Y-98242828D01*
X126346172Y-98318176D01*
X126346171Y-98318177D01*
X126168827Y-98427985D01*
X126014683Y-98568505D01*
X125888981Y-98734961D01*
X125796007Y-98921677D01*
X125738923Y-99122308D01*
X125723471Y-99289066D01*
X125707064Y-99330384D01*
X125492629Y-99330384D01*
X125492935Y-99329614D01*
X125478307Y-99301433D01*
X125476529Y-99289066D01*
X125461076Y-99122308D01*
X125461076Y-99122304D01*
X125403994Y-98921681D01*
X125311019Y-98734962D01*
X125185318Y-98568507D01*
X125031171Y-98427984D01*
X124853828Y-98318177D01*
X124853827Y-98318176D01*
X124685052Y-98252793D01*
X124659327Y-98242827D01*
X124454293Y-98204500D01*
X124245707Y-98204500D01*
X124040673Y-98242827D01*
X124040670Y-98242827D01*
X124040670Y-98242828D01*
X123846172Y-98318176D01*
X123846171Y-98318177D01*
X123668827Y-98427985D01*
X123514683Y-98568505D01*
X123388981Y-98734961D01*
X123296007Y-98921677D01*
X123238923Y-99122308D01*
X123223471Y-99289066D01*
X123207064Y-99330384D01*
X122992629Y-99330384D01*
X122992935Y-99329614D01*
X122978307Y-99301433D01*
X122976529Y-99289066D01*
X122961076Y-99122308D01*
X122961076Y-99122304D01*
X122903994Y-98921681D01*
X122811019Y-98734962D01*
X122685318Y-98568507D01*
X122531171Y-98427984D01*
X122353828Y-98318177D01*
X122353827Y-98318176D01*
X122185052Y-98252793D01*
X122159327Y-98242827D01*
X121954293Y-98204500D01*
X121745707Y-98204500D01*
X121540673Y-98242827D01*
X121540670Y-98242827D01*
X121540670Y-98242828D01*
X121346172Y-98318176D01*
X121346171Y-98318177D01*
X121168827Y-98427985D01*
X121014683Y-98568505D01*
X120888981Y-98734961D01*
X120796007Y-98921677D01*
X120738923Y-99122308D01*
X120723471Y-99289066D01*
X120707064Y-99330384D01*
X120492629Y-99330384D01*
X120492935Y-99329614D01*
X120478307Y-99301433D01*
X120476529Y-99289066D01*
X120461076Y-99122308D01*
X120461076Y-99122304D01*
X120403994Y-98921681D01*
X120311019Y-98734962D01*
X120185318Y-98568507D01*
X120031171Y-98427984D01*
X119853828Y-98318177D01*
X119853827Y-98318176D01*
X119685052Y-98252793D01*
X119659327Y-98242827D01*
X119454293Y-98204500D01*
X119245707Y-98204500D01*
X119040673Y-98242827D01*
X119040670Y-98242827D01*
X119040670Y-98242828D01*
X118846172Y-98318176D01*
X118846171Y-98318177D01*
X118668827Y-98427985D01*
X118514683Y-98568505D01*
X118388981Y-98734961D01*
X118296007Y-98921677D01*
X118238923Y-99122308D01*
X118222970Y-99294469D01*
X118209578Y-99328193D01*
X117988893Y-99328193D01*
X117977806Y-99306835D01*
X117975499Y-99283027D01*
X117975499Y-98460143D01*
X117975499Y-98460136D01*
X117975497Y-98460117D01*
X117972586Y-98435012D01*
X117972585Y-98435010D01*
X117972585Y-98435009D01*
X117927206Y-98332235D01*
X117847765Y-98252794D01*
X117802988Y-98233023D01*
X117744992Y-98207415D01*
X117719865Y-98204500D01*
X115980143Y-98204500D01*
X115980117Y-98204502D01*
X115955012Y-98207413D01*
X115955008Y-98207415D01*
X115852235Y-98252793D01*
X115772794Y-98332234D01*
X115727415Y-98435006D01*
X115727415Y-98435008D01*
X115724500Y-98460131D01*
X109406430Y-98460131D01*
X109279262Y-98407456D01*
X109279260Y-98407455D01*
X109122501Y-98386818D01*
X109122499Y-98386818D01*
X108965739Y-98407455D01*
X108965737Y-98407456D01*
X108819660Y-98467963D01*
X108694218Y-98564218D01*
X108597963Y-98689660D01*
X108537456Y-98835737D01*
X108537455Y-98835739D01*
X108516818Y-98992498D01*
X96500500Y-98992498D01*
X96500500Y-95579998D01*
X133244318Y-95579998D01*
X133244318Y-95580001D01*
X133264955Y-95736760D01*
X133264956Y-95736762D01*
X133325464Y-95882841D01*
X133421718Y-96008282D01*
X133547159Y-96104536D01*
X133693238Y-96165044D01*
X133771619Y-96175363D01*
X133849999Y-96185682D01*
X133850000Y-96185682D01*
X133850001Y-96185682D01*
X133902254Y-96178802D01*
X134006762Y-96165044D01*
X134152841Y-96104536D01*
X134278282Y-96008282D01*
X134374536Y-95882841D01*
X134435044Y-95736762D01*
X134455682Y-95580000D01*
X134435044Y-95423238D01*
X134374536Y-95277159D01*
X134278282Y-95151718D01*
X134152841Y-95055464D01*
X134078174Y-95024536D01*
X134006762Y-94994956D01*
X134006760Y-94994955D01*
X133850001Y-94974318D01*
X133849999Y-94974318D01*
X133693239Y-94994955D01*
X133693237Y-94994956D01*
X133547160Y-95055463D01*
X133421718Y-95151718D01*
X133325463Y-95277160D01*
X133264956Y-95423237D01*
X133264955Y-95423239D01*
X133244318Y-95579998D01*
X96500500Y-95579998D01*
X96500500Y-94499998D01*
X127744318Y-94499998D01*
X127744318Y-94500001D01*
X127764955Y-94656760D01*
X127764956Y-94656762D01*
X127825464Y-94802841D01*
X127921718Y-94928282D01*
X128047159Y-95024536D01*
X128193238Y-95085044D01*
X128271619Y-95095363D01*
X128349999Y-95105682D01*
X128350000Y-95105682D01*
X128350001Y-95105682D01*
X128402254Y-95098802D01*
X128506762Y-95085044D01*
X128652841Y-95024536D01*
X128778282Y-94928282D01*
X128874536Y-94802841D01*
X128935044Y-94656762D01*
X128955682Y-94500000D01*
X128935044Y-94343238D01*
X128874536Y-94197159D01*
X128778282Y-94071718D01*
X128652841Y-93975464D01*
X128506762Y-93914956D01*
X128506760Y-93914955D01*
X128350001Y-93894318D01*
X128349999Y-93894318D01*
X128193239Y-93914955D01*
X128193237Y-93914956D01*
X128047160Y-93975463D01*
X127921718Y-94071718D01*
X127825463Y-94197160D01*
X127764956Y-94343237D01*
X127764955Y-94343239D01*
X127744318Y-94499998D01*
X96500500Y-94499998D01*
X96500500Y-93719999D01*
X120094722Y-93719999D01*
X120094722Y-93720000D01*
X120113762Y-93876818D01*
X120151174Y-93975463D01*
X120169780Y-94024523D01*
X120259517Y-94154530D01*
X120377760Y-94259283D01*
X120377762Y-94259284D01*
X120517634Y-94332696D01*
X120671014Y-94370500D01*
X120671015Y-94370500D01*
X120828985Y-94370500D01*
X120982365Y-94332696D01*
X121122240Y-94259283D01*
X121240483Y-94154530D01*
X121330220Y-94024523D01*
X121386237Y-93876818D01*
X121405278Y-93720000D01*
X121386237Y-93563182D01*
X121382953Y-93554524D01*
X121364992Y-93507164D01*
X121330220Y-93415477D01*
X121240483Y-93285470D01*
X121200444Y-93249999D01*
X126344722Y-93249999D01*
X126344722Y-93250000D01*
X126363762Y-93406818D01*
X126402243Y-93508282D01*
X126419780Y-93554523D01*
X126509517Y-93684530D01*
X126627760Y-93789283D01*
X126627762Y-93789284D01*
X126767634Y-93862696D01*
X126921014Y-93900500D01*
X126921015Y-93900500D01*
X127078985Y-93900500D01*
X127232365Y-93862696D01*
X127372240Y-93789283D01*
X127490483Y-93684530D01*
X127580220Y-93554523D01*
X127636237Y-93406818D01*
X127655278Y-93250000D01*
X127653671Y-93236760D01*
X127636237Y-93093181D01*
X127631237Y-93079998D01*
X139244318Y-93079998D01*
X139244318Y-93080001D01*
X139264955Y-93236760D01*
X139264956Y-93236762D01*
X139285131Y-93285470D01*
X139325464Y-93382841D01*
X139421718Y-93508282D01*
X139547159Y-93604536D01*
X139693238Y-93665044D01*
X139771619Y-93675363D01*
X139849999Y-93685682D01*
X139850000Y-93685682D01*
X139850001Y-93685682D01*
X139902254Y-93678802D01*
X140006762Y-93665044D01*
X140152841Y-93604536D01*
X140278282Y-93508282D01*
X140374536Y-93382841D01*
X140435044Y-93236762D01*
X140455682Y-93080000D01*
X140435044Y-92923238D01*
X140374536Y-92777159D01*
X140278282Y-92651718D01*
X140152841Y-92555464D01*
X140071542Y-92521789D01*
X140006762Y-92494956D01*
X140006760Y-92494955D01*
X139850001Y-92474318D01*
X139849999Y-92474318D01*
X139693239Y-92494955D01*
X139693237Y-92494956D01*
X139547160Y-92555463D01*
X139421718Y-92651718D01*
X139325463Y-92777160D01*
X139264956Y-92923237D01*
X139264955Y-92923239D01*
X139244318Y-93079998D01*
X127631237Y-93079998D01*
X127596416Y-92988182D01*
X127580220Y-92945477D01*
X127490483Y-92815470D01*
X127372240Y-92710717D01*
X127372238Y-92710716D01*
X127372237Y-92710715D01*
X127232365Y-92637303D01*
X127078986Y-92599500D01*
X127078985Y-92599500D01*
X126921015Y-92599500D01*
X126921014Y-92599500D01*
X126767634Y-92637303D01*
X126627762Y-92710715D01*
X126509516Y-92815471D01*
X126419781Y-92945475D01*
X126419780Y-92945476D01*
X126363762Y-93093181D01*
X126344722Y-93249999D01*
X121200444Y-93249999D01*
X121122240Y-93180717D01*
X121122238Y-93180716D01*
X121122237Y-93180715D01*
X120982365Y-93107303D01*
X120828986Y-93069500D01*
X120828985Y-93069500D01*
X120671015Y-93069500D01*
X120671014Y-93069500D01*
X120517634Y-93107303D01*
X120377762Y-93180715D01*
X120259516Y-93285471D01*
X120169781Y-93415475D01*
X120169780Y-93415476D01*
X120113762Y-93563181D01*
X120094722Y-93719999D01*
X96500500Y-93719999D01*
X96500500Y-91821153D01*
X98074500Y-91821153D01*
X98074500Y-91978846D01*
X98105261Y-92133489D01*
X98105264Y-92133501D01*
X98165602Y-92279172D01*
X98165609Y-92279185D01*
X98253210Y-92410288D01*
X98253213Y-92410292D01*
X98364707Y-92521786D01*
X98364711Y-92521789D01*
X98495814Y-92609390D01*
X98495827Y-92609397D01*
X98641498Y-92669735D01*
X98641503Y-92669737D01*
X98796153Y-92700499D01*
X98796156Y-92700500D01*
X98796158Y-92700500D01*
X99753844Y-92700500D01*
X99753845Y-92700499D01*
X99908497Y-92669737D01*
X100054179Y-92609394D01*
X100185289Y-92521789D01*
X100296789Y-92410289D01*
X100384394Y-92279179D01*
X100444737Y-92133497D01*
X100475500Y-91978842D01*
X100475500Y-91821158D01*
X100475500Y-91821155D01*
X100475499Y-91821153D01*
X102104500Y-91821153D01*
X102104500Y-91978846D01*
X102135261Y-92133489D01*
X102135264Y-92133501D01*
X102195602Y-92279172D01*
X102195609Y-92279185D01*
X102283210Y-92410288D01*
X102283213Y-92410292D01*
X102394707Y-92521786D01*
X102394711Y-92521789D01*
X102525814Y-92609390D01*
X102525827Y-92609397D01*
X102671498Y-92669735D01*
X102671503Y-92669737D01*
X102826153Y-92700499D01*
X102826156Y-92700500D01*
X102826158Y-92700500D01*
X104083844Y-92700500D01*
X104083845Y-92700499D01*
X104238497Y-92669737D01*
X104384179Y-92609394D01*
X104515289Y-92521789D01*
X104626789Y-92410289D01*
X104714394Y-92279179D01*
X104774737Y-92133497D01*
X104805500Y-91978842D01*
X104805500Y-91821158D01*
X104805500Y-91821155D01*
X104805499Y-91821153D01*
X104774738Y-91666510D01*
X104774737Y-91666503D01*
X104750799Y-91608711D01*
X104714397Y-91520827D01*
X104714390Y-91520814D01*
X104626789Y-91389711D01*
X104626786Y-91389707D01*
X104515292Y-91278213D01*
X104515288Y-91278210D01*
X104384185Y-91190609D01*
X104384172Y-91190602D01*
X104238501Y-91130264D01*
X104238489Y-91130261D01*
X104083845Y-91099500D01*
X104083842Y-91099500D01*
X103438742Y-91099500D01*
X103371703Y-91079815D01*
X103325948Y-91027011D01*
X103316004Y-90957853D01*
X103345029Y-90894297D01*
X103351061Y-90887819D01*
X103356041Y-90882839D01*
X103415515Y-90823365D01*
X103457872Y-90750000D01*
X105094540Y-90750000D01*
X105114326Y-90938256D01*
X105114327Y-90938259D01*
X105172818Y-91118277D01*
X105172821Y-91118284D01*
X105267467Y-91282216D01*
X105364253Y-91389707D01*
X105394129Y-91422888D01*
X105547265Y-91534148D01*
X105547267Y-91534149D01*
X105547270Y-91534151D01*
X105557856Y-91538864D01*
X105611092Y-91584113D01*
X105631414Y-91650962D01*
X105612369Y-91718186D01*
X105605796Y-91727629D01*
X105575464Y-91767157D01*
X105514956Y-91913237D01*
X105514955Y-91913239D01*
X105494318Y-92069998D01*
X105494318Y-92070001D01*
X105514955Y-92226760D01*
X105514956Y-92226762D01*
X105575464Y-92372841D01*
X105671718Y-92498282D01*
X105797159Y-92594536D01*
X105943238Y-92655044D01*
X106021619Y-92665363D01*
X106099999Y-92675682D01*
X106100000Y-92675682D01*
X106100001Y-92675682D01*
X106152254Y-92668802D01*
X106256762Y-92655044D01*
X106402841Y-92594536D01*
X106528282Y-92498282D01*
X106617126Y-92382498D01*
X110056818Y-92382498D01*
X110056818Y-92382501D01*
X110077455Y-92539260D01*
X110077456Y-92539262D01*
X110131500Y-92669737D01*
X110137964Y-92685341D01*
X110234218Y-92810782D01*
X110359659Y-92907036D01*
X110505738Y-92967544D01*
X110584119Y-92977863D01*
X110662499Y-92988182D01*
X110662500Y-92988182D01*
X110662501Y-92988182D01*
X110714754Y-92981302D01*
X110819262Y-92967544D01*
X110965341Y-92907036D01*
X111090782Y-92810782D01*
X111187036Y-92685341D01*
X111234813Y-92569998D01*
X118244318Y-92569998D01*
X118244318Y-92570001D01*
X118264955Y-92726760D01*
X118264956Y-92726762D01*
X118301700Y-92815471D01*
X118325464Y-92872841D01*
X118421718Y-92998282D01*
X118547159Y-93094536D01*
X118693238Y-93155044D01*
X118771619Y-93165363D01*
X118849999Y-93175682D01*
X118850000Y-93175682D01*
X118850001Y-93175682D01*
X118902254Y-93168802D01*
X119006762Y-93155044D01*
X119152841Y-93094536D01*
X119278282Y-92998282D01*
X119374536Y-92872841D01*
X119435044Y-92726762D01*
X119455682Y-92570000D01*
X119453768Y-92555464D01*
X119435044Y-92413239D01*
X119435044Y-92413238D01*
X119374536Y-92267159D01*
X119278282Y-92141718D01*
X119152841Y-92045464D01*
X119006762Y-91984956D01*
X119006760Y-91984955D01*
X118850001Y-91964318D01*
X118849999Y-91964318D01*
X118693239Y-91984955D01*
X118693237Y-91984956D01*
X118547160Y-92045463D01*
X118421718Y-92141718D01*
X118325463Y-92267160D01*
X118264956Y-92413237D01*
X118264955Y-92413239D01*
X118244318Y-92569998D01*
X111234813Y-92569998D01*
X111247544Y-92539262D01*
X111268182Y-92382500D01*
X111266910Y-92372841D01*
X111247679Y-92226762D01*
X111247544Y-92225738D01*
X111187036Y-92079659D01*
X111090782Y-91954218D01*
X110965341Y-91857964D01*
X110876476Y-91821155D01*
X110819262Y-91797456D01*
X110819260Y-91797455D01*
X110662501Y-91776818D01*
X110662499Y-91776818D01*
X110505739Y-91797455D01*
X110505737Y-91797456D01*
X110359660Y-91857963D01*
X110234218Y-91954218D01*
X110137963Y-92079660D01*
X110077456Y-92225737D01*
X110077455Y-92225739D01*
X110056818Y-92382498D01*
X106617126Y-92382498D01*
X106624536Y-92372841D01*
X106685044Y-92226762D01*
X106705682Y-92070000D01*
X106685044Y-91913238D01*
X106624536Y-91767159D01*
X106528282Y-91641718D01*
X106528279Y-91641716D01*
X106525732Y-91638396D01*
X106500538Y-91573226D01*
X106514576Y-91504781D01*
X106551221Y-91462593D01*
X106605871Y-91422888D01*
X106732533Y-91282216D01*
X106827179Y-91118284D01*
X106885674Y-90938256D01*
X106905460Y-90750000D01*
X106887593Y-90579998D01*
X138069318Y-90579998D01*
X138069318Y-90580001D01*
X138089955Y-90736760D01*
X138089956Y-90736762D01*
X138150464Y-90882841D01*
X138246718Y-91008282D01*
X138372159Y-91104536D01*
X138518238Y-91165044D01*
X138596619Y-91175363D01*
X138674999Y-91185682D01*
X138675000Y-91185682D01*
X138675001Y-91185682D01*
X138727254Y-91178802D01*
X138831762Y-91165044D01*
X138977841Y-91104536D01*
X139103282Y-91008282D01*
X139199536Y-90882841D01*
X139260044Y-90736762D01*
X139280682Y-90580000D01*
X139260044Y-90423238D01*
X139199536Y-90277159D01*
X139103282Y-90151718D01*
X138977841Y-90055464D01*
X138831762Y-89994956D01*
X138831760Y-89994955D01*
X138675001Y-89974318D01*
X138674999Y-89974318D01*
X138518239Y-89994955D01*
X138518237Y-89994956D01*
X138372160Y-90055463D01*
X138246718Y-90151718D01*
X138150463Y-90277160D01*
X138089956Y-90423237D01*
X138089955Y-90423239D01*
X138069318Y-90579998D01*
X106887593Y-90579998D01*
X106885674Y-90561744D01*
X106827179Y-90381716D01*
X106732533Y-90217784D01*
X106605871Y-90077112D01*
X106605870Y-90077111D01*
X106452734Y-89965851D01*
X106452729Y-89965848D01*
X106279807Y-89888857D01*
X106279802Y-89888855D01*
X106134001Y-89857865D01*
X106094646Y-89849500D01*
X105905354Y-89849500D01*
X105872897Y-89856398D01*
X105720197Y-89888855D01*
X105720192Y-89888857D01*
X105547270Y-89965848D01*
X105547265Y-89965851D01*
X105394129Y-90077111D01*
X105267466Y-90217785D01*
X105172821Y-90381715D01*
X105172818Y-90381722D01*
X105114327Y-90561740D01*
X105114326Y-90561744D01*
X105094540Y-90750000D01*
X103457872Y-90750000D01*
X103491281Y-90692135D01*
X103530500Y-90545766D01*
X103530500Y-90394234D01*
X103491281Y-90247865D01*
X103415515Y-90116635D01*
X103308365Y-90009485D01*
X103232784Y-89965848D01*
X103177136Y-89933719D01*
X103076521Y-89906760D01*
X103030766Y-89894500D01*
X102879234Y-89894500D01*
X102732863Y-89933719D01*
X102601635Y-90009485D01*
X102601632Y-90009487D01*
X102494487Y-90116632D01*
X102494485Y-90116635D01*
X102418719Y-90247863D01*
X102379500Y-90394234D01*
X102379500Y-90545765D01*
X102418719Y-90692136D01*
X102456602Y-90757750D01*
X102494485Y-90823365D01*
X102601635Y-90930515D01*
X102614508Y-90937947D01*
X102662723Y-90988511D01*
X102675948Y-91057117D01*
X102649982Y-91121983D01*
X102599962Y-91159895D01*
X102525824Y-91190604D01*
X102525814Y-91190609D01*
X102394711Y-91278210D01*
X102394707Y-91278213D01*
X102283213Y-91389707D01*
X102283210Y-91389711D01*
X102195609Y-91520814D01*
X102195602Y-91520827D01*
X102135264Y-91666498D01*
X102135261Y-91666510D01*
X102104500Y-91821153D01*
X100475499Y-91821153D01*
X100444738Y-91666510D01*
X100444737Y-91666503D01*
X100420799Y-91608711D01*
X100384397Y-91520827D01*
X100384390Y-91520814D01*
X100296789Y-91389711D01*
X100296786Y-91389707D01*
X100185292Y-91278213D01*
X100185288Y-91278210D01*
X100054185Y-91190609D01*
X100054172Y-91190602D01*
X99908501Y-91130264D01*
X99908489Y-91130261D01*
X99753845Y-91099500D01*
X99753842Y-91099500D01*
X98796158Y-91099500D01*
X98796155Y-91099500D01*
X98641510Y-91130261D01*
X98641498Y-91130264D01*
X98495827Y-91190602D01*
X98495814Y-91190609D01*
X98364711Y-91278210D01*
X98364707Y-91278213D01*
X98253213Y-91389707D01*
X98253210Y-91389711D01*
X98165609Y-91520814D01*
X98165602Y-91520827D01*
X98105264Y-91666498D01*
X98105261Y-91666510D01*
X98074500Y-91821153D01*
X96500500Y-91821153D01*
X96500500Y-89749998D01*
X119994318Y-89749998D01*
X119994318Y-89750001D01*
X120014955Y-89906760D01*
X120014956Y-89906762D01*
X120039431Y-89965851D01*
X120075464Y-90052841D01*
X120171718Y-90178282D01*
X120297159Y-90274536D01*
X120443238Y-90335044D01*
X120521619Y-90345363D01*
X120599999Y-90355682D01*
X120600000Y-90355682D01*
X120600001Y-90355682D01*
X120652254Y-90348802D01*
X120756762Y-90335044D01*
X120902841Y-90274536D01*
X121028282Y-90178282D01*
X121124536Y-90052841D01*
X121185044Y-89906762D01*
X121205682Y-89750000D01*
X121185044Y-89593238D01*
X121124536Y-89447159D01*
X121028282Y-89321718D01*
X120902841Y-89225464D01*
X120756762Y-89164956D01*
X120756760Y-89164955D01*
X120600001Y-89144318D01*
X120599999Y-89144318D01*
X120443239Y-89164955D01*
X120443237Y-89164956D01*
X120297160Y-89225463D01*
X120171718Y-89321718D01*
X120075463Y-89447160D01*
X120014956Y-89593237D01*
X120014955Y-89593239D01*
X119994318Y-89749998D01*
X96500500Y-89749998D01*
X96500500Y-88499999D01*
X152844722Y-88499999D01*
X152844722Y-88500000D01*
X152863762Y-88656818D01*
X152919780Y-88804523D01*
X153009517Y-88934530D01*
X153127760Y-89039283D01*
X153127762Y-89039284D01*
X153267634Y-89112696D01*
X153421014Y-89150500D01*
X153421015Y-89150500D01*
X153578985Y-89150500D01*
X153732365Y-89112696D01*
X153872240Y-89039283D01*
X153990483Y-88934530D01*
X154080220Y-88804523D01*
X154136237Y-88656818D01*
X154155278Y-88500000D01*
X154136237Y-88343182D01*
X154080220Y-88195477D01*
X153990483Y-88065470D01*
X153872240Y-87960717D01*
X153872238Y-87960716D01*
X153872237Y-87960715D01*
X153732365Y-87887303D01*
X153578986Y-87849500D01*
X153578985Y-87849500D01*
X153421015Y-87849500D01*
X153421014Y-87849500D01*
X153267634Y-87887303D01*
X153127762Y-87960715D01*
X153009516Y-88065471D01*
X152919781Y-88195475D01*
X152919780Y-88195476D01*
X152863762Y-88343181D01*
X152844722Y-88499999D01*
X96500500Y-88499999D01*
X96500500Y-87079998D01*
X110144318Y-87079998D01*
X110144318Y-87080001D01*
X110164955Y-87236760D01*
X110164956Y-87236762D01*
X110225464Y-87382841D01*
X110321718Y-87508282D01*
X110447159Y-87604536D01*
X110593238Y-87665044D01*
X110671619Y-87675363D01*
X110749999Y-87685682D01*
X110750000Y-87685682D01*
X110750001Y-87685682D01*
X110802254Y-87678802D01*
X110906762Y-87665044D01*
X111052841Y-87604536D01*
X111178282Y-87508282D01*
X111274536Y-87382841D01*
X111335044Y-87236762D01*
X111355682Y-87080000D01*
X111335044Y-86923238D01*
X111274536Y-86777159D01*
X111215328Y-86699998D01*
X144994318Y-86699998D01*
X144994318Y-86700001D01*
X145014955Y-86856760D01*
X145014956Y-86856762D01*
X145075464Y-87002841D01*
X145171718Y-87128282D01*
X145297159Y-87224536D01*
X145443238Y-87285044D01*
X145521619Y-87295363D01*
X145599999Y-87305682D01*
X145600000Y-87305682D01*
X145600001Y-87305682D01*
X145652254Y-87298802D01*
X145756762Y-87285044D01*
X145902841Y-87224536D01*
X146028282Y-87128282D01*
X146124536Y-87002841D01*
X146185044Y-86856762D01*
X146205682Y-86700000D01*
X146185044Y-86543238D01*
X146124536Y-86397159D01*
X146028282Y-86271718D01*
X145902841Y-86175464D01*
X145756762Y-86114956D01*
X145756760Y-86114955D01*
X145600001Y-86094318D01*
X145599999Y-86094318D01*
X145443239Y-86114955D01*
X145443237Y-86114956D01*
X145297160Y-86175463D01*
X145171718Y-86271718D01*
X145075463Y-86397160D01*
X145014956Y-86543237D01*
X145014955Y-86543239D01*
X144994318Y-86699998D01*
X111215328Y-86699998D01*
X111178282Y-86651718D01*
X111052841Y-86555464D01*
X111023327Y-86543239D01*
X110906762Y-86494956D01*
X110906760Y-86494955D01*
X110750001Y-86474318D01*
X110749999Y-86474318D01*
X110593239Y-86494955D01*
X110593237Y-86494956D01*
X110447160Y-86555463D01*
X110321718Y-86651718D01*
X110225463Y-86777160D01*
X110164956Y-86923237D01*
X110164955Y-86923239D01*
X110144318Y-87079998D01*
X96500500Y-87079998D01*
X96500500Y-83181153D01*
X98074500Y-83181153D01*
X98074500Y-83338846D01*
X98105261Y-83493489D01*
X98105264Y-83493501D01*
X98165602Y-83639172D01*
X98165609Y-83639185D01*
X98253210Y-83770288D01*
X98253213Y-83770292D01*
X98364707Y-83881786D01*
X98364711Y-83881789D01*
X98495814Y-83969390D01*
X98495827Y-83969397D01*
X98640202Y-84029198D01*
X98641503Y-84029737D01*
X98796153Y-84060499D01*
X98796156Y-84060500D01*
X98796158Y-84060500D01*
X99753844Y-84060500D01*
X99753845Y-84060499D01*
X99908497Y-84029737D01*
X100054179Y-83969394D01*
X100185289Y-83881789D01*
X100296789Y-83770289D01*
X100384394Y-83639179D01*
X100386273Y-83634644D01*
X100420157Y-83552839D01*
X100444737Y-83493497D01*
X100475500Y-83338842D01*
X100475500Y-83181158D01*
X100475500Y-83181155D01*
X100475499Y-83181153D01*
X102104500Y-83181153D01*
X102104500Y-83338846D01*
X102135261Y-83493489D01*
X102135264Y-83493501D01*
X102195602Y-83639172D01*
X102195609Y-83639185D01*
X102283210Y-83770288D01*
X102283213Y-83770292D01*
X102394707Y-83881786D01*
X102394711Y-83881789D01*
X102525814Y-83969390D01*
X102525827Y-83969397D01*
X102599961Y-84000104D01*
X102654365Y-84043945D01*
X102676430Y-84110239D01*
X102659151Y-84177938D01*
X102614511Y-84222050D01*
X102608600Y-84225464D01*
X102601635Y-84229485D01*
X102601632Y-84229487D01*
X102494487Y-84336632D01*
X102494485Y-84336635D01*
X102418719Y-84467863D01*
X102379500Y-84614234D01*
X102379500Y-84765766D01*
X102381850Y-84774536D01*
X102418719Y-84912136D01*
X102446344Y-84959983D01*
X102494485Y-85043365D01*
X102601635Y-85150515D01*
X102732865Y-85226281D01*
X102879234Y-85265500D01*
X102879236Y-85265500D01*
X103030764Y-85265500D01*
X103030766Y-85265500D01*
X103177135Y-85226281D01*
X103308365Y-85150515D01*
X103415515Y-85043365D01*
X103491281Y-84912135D01*
X103530500Y-84765766D01*
X103530500Y-84614234D01*
X103491281Y-84467865D01*
X103415515Y-84336635D01*
X103351061Y-84272181D01*
X103317576Y-84210858D01*
X103322560Y-84141166D01*
X103364432Y-84085233D01*
X103429896Y-84060816D01*
X103438742Y-84060500D01*
X104083844Y-84060500D01*
X104083845Y-84060499D01*
X104238497Y-84029737D01*
X104384179Y-83969394D01*
X104515289Y-83881789D01*
X104626789Y-83770289D01*
X104714394Y-83639179D01*
X104716273Y-83634644D01*
X104750157Y-83552839D01*
X104774737Y-83493497D01*
X104805500Y-83338842D01*
X104805500Y-83249998D01*
X105144318Y-83249998D01*
X105144318Y-83250001D01*
X105164955Y-83406760D01*
X105164956Y-83406762D01*
X105203576Y-83500000D01*
X105225464Y-83552841D01*
X105321718Y-83678282D01*
X105447159Y-83774536D01*
X105593238Y-83835044D01*
X105615570Y-83837984D01*
X105749999Y-83855682D01*
X105750000Y-83855682D01*
X105884426Y-83837984D01*
X105953458Y-83848749D01*
X106005714Y-83895129D01*
X106024600Y-83962398D01*
X106004120Y-84029198D01*
X105998156Y-84037289D01*
X105997319Y-84038543D01*
X105997317Y-84038547D01*
X105997315Y-84038550D01*
X105984192Y-84063101D01*
X105899769Y-84221043D01*
X105899768Y-84221045D01*
X105899768Y-84221046D01*
X105892898Y-84243692D01*
X105839699Y-84419067D01*
X105819417Y-84625000D01*
X105839699Y-84830932D01*
X105861729Y-84903555D01*
X105899768Y-85028954D01*
X105997315Y-85211450D01*
X106031969Y-85253677D01*
X106128589Y-85371410D01*
X106199984Y-85430001D01*
X106288550Y-85502685D01*
X106471046Y-85600232D01*
X106669066Y-85660300D01*
X106669065Y-85660300D01*
X106687529Y-85662118D01*
X106875000Y-85680583D01*
X107080934Y-85660300D01*
X107278954Y-85600232D01*
X107461450Y-85502685D01*
X107550020Y-85429998D01*
X127744318Y-85429998D01*
X127744318Y-85430001D01*
X127764955Y-85586760D01*
X127764956Y-85586762D01*
X127803817Y-85680582D01*
X127825464Y-85732841D01*
X127921718Y-85858282D01*
X128047159Y-85954536D01*
X128193238Y-86015044D01*
X128271619Y-86025363D01*
X128349999Y-86035682D01*
X128350000Y-86035682D01*
X128350001Y-86035682D01*
X128402254Y-86028802D01*
X128506762Y-86015044D01*
X128652841Y-85954536D01*
X128778282Y-85858282D01*
X128874536Y-85732841D01*
X128933704Y-85589998D01*
X158744318Y-85589998D01*
X158744318Y-85590001D01*
X158764955Y-85746760D01*
X158764956Y-85746762D01*
X158825464Y-85892841D01*
X158921718Y-86018282D01*
X159047159Y-86114536D01*
X159193238Y-86175044D01*
X159271619Y-86185363D01*
X159349999Y-86195682D01*
X159350000Y-86195682D01*
X159350001Y-86195682D01*
X159402254Y-86188802D01*
X159506762Y-86175044D01*
X159652841Y-86114536D01*
X159778282Y-86018282D01*
X159874536Y-85892841D01*
X159935044Y-85746762D01*
X159955682Y-85590000D01*
X159955255Y-85586760D01*
X159935044Y-85433239D01*
X159935044Y-85433238D01*
X159874536Y-85287159D01*
X159778282Y-85161718D01*
X159652841Y-85065464D01*
X159622366Y-85052841D01*
X159506762Y-85004956D01*
X159506760Y-85004955D01*
X159350001Y-84984318D01*
X159349999Y-84984318D01*
X159193239Y-85004955D01*
X159193237Y-85004956D01*
X159047160Y-85065463D01*
X158921718Y-85161718D01*
X158825463Y-85287160D01*
X158764956Y-85433237D01*
X158764955Y-85433239D01*
X158744318Y-85589998D01*
X128933704Y-85589998D01*
X128935044Y-85586762D01*
X128955682Y-85430000D01*
X128935044Y-85273238D01*
X128874536Y-85127159D01*
X128778282Y-85001718D01*
X128723890Y-84959981D01*
X128682689Y-84903555D01*
X128678534Y-84833808D01*
X128712747Y-84772888D01*
X128751926Y-84747046D01*
X128756758Y-84745044D01*
X128756762Y-84745044D01*
X128902841Y-84684536D01*
X129028282Y-84588282D01*
X129124536Y-84462841D01*
X129185044Y-84316762D01*
X129202471Y-84184392D01*
X129205682Y-84160001D01*
X129205682Y-84159998D01*
X129185044Y-84003239D01*
X129185044Y-84003238D01*
X129124536Y-83857159D01*
X129028282Y-83731718D01*
X128902841Y-83635464D01*
X128900861Y-83634644D01*
X128756762Y-83574956D01*
X128756760Y-83574955D01*
X128600001Y-83554318D01*
X128599999Y-83554318D01*
X128443239Y-83574955D01*
X128443237Y-83574956D01*
X128297160Y-83635463D01*
X128171718Y-83731718D01*
X128075463Y-83857160D01*
X128014956Y-84003237D01*
X128014955Y-84003239D01*
X127994318Y-84159998D01*
X127994318Y-84160001D01*
X128014955Y-84316760D01*
X128014956Y-84316762D01*
X128075464Y-84462841D01*
X128171718Y-84588282D01*
X128226109Y-84630017D01*
X128267310Y-84686444D01*
X128271465Y-84756190D01*
X128237253Y-84817111D01*
X128198074Y-84842953D01*
X128047160Y-84905463D01*
X127921718Y-85001718D01*
X127825463Y-85127160D01*
X127764956Y-85273237D01*
X127764955Y-85273239D01*
X127744318Y-85429998D01*
X107550020Y-85429998D01*
X107621410Y-85371410D01*
X107752685Y-85211450D01*
X107850232Y-85028954D01*
X107910300Y-84830934D01*
X107918272Y-84749998D01*
X110144318Y-84749998D01*
X110144318Y-84750001D01*
X110164955Y-84906760D01*
X110164956Y-84906762D01*
X110207006Y-85008281D01*
X110225464Y-85052841D01*
X110321718Y-85178282D01*
X110447159Y-85274536D01*
X110593238Y-85335044D01*
X110671619Y-85345363D01*
X110749999Y-85355682D01*
X110750000Y-85355682D01*
X110750001Y-85355682D01*
X110802254Y-85348802D01*
X110906762Y-85335044D01*
X111052841Y-85274536D01*
X111178282Y-85178282D01*
X111274536Y-85052841D01*
X111335044Y-84906762D01*
X111353607Y-84765764D01*
X111355682Y-84750001D01*
X111355682Y-84749998D01*
X111339886Y-84630016D01*
X111335044Y-84593238D01*
X111329560Y-84579998D01*
X118244318Y-84579998D01*
X118244318Y-84580001D01*
X118264955Y-84736760D01*
X118264956Y-84736762D01*
X118303962Y-84830932D01*
X118325464Y-84882841D01*
X118421718Y-85008282D01*
X118547159Y-85104536D01*
X118693238Y-85165044D01*
X118771619Y-85175363D01*
X118849999Y-85185682D01*
X118850000Y-85185682D01*
X118850001Y-85185682D01*
X118906216Y-85178281D01*
X119006762Y-85165044D01*
X119152841Y-85104536D01*
X119278282Y-85008282D01*
X119374536Y-84882841D01*
X119435044Y-84736762D01*
X119455682Y-84580000D01*
X119452106Y-84552841D01*
X119435044Y-84423239D01*
X119435044Y-84423238D01*
X119374536Y-84277159D01*
X119353695Y-84249998D01*
X120744318Y-84249998D01*
X120744318Y-84250001D01*
X120764955Y-84406760D01*
X120764956Y-84406762D01*
X120825464Y-84552841D01*
X120921718Y-84678282D01*
X121047159Y-84774536D01*
X121193238Y-84835044D01*
X121253313Y-84842953D01*
X121349999Y-84855682D01*
X121350000Y-84855682D01*
X121350001Y-84855682D01*
X121431472Y-84844956D01*
X121506762Y-84835044D01*
X121652841Y-84774536D01*
X121778282Y-84678282D01*
X121874536Y-84552841D01*
X121935044Y-84406762D01*
X121952106Y-84277160D01*
X121955682Y-84250001D01*
X121955682Y-84250000D01*
X121952452Y-84225464D01*
X121947044Y-84184389D01*
X121957809Y-84115357D01*
X122004189Y-84063101D01*
X122071458Y-84044215D01*
X122117432Y-84053644D01*
X122193238Y-84085044D01*
X122255478Y-84093238D01*
X122349999Y-84105682D01*
X122350000Y-84105682D01*
X122350001Y-84105682D01*
X122444514Y-84093239D01*
X122506762Y-84085044D01*
X122652841Y-84024536D01*
X122778282Y-83928282D01*
X122874536Y-83802841D01*
X122935044Y-83656762D01*
X122955682Y-83500000D01*
X122954826Y-83493501D01*
X122935044Y-83343239D01*
X122935043Y-83343237D01*
X122923438Y-83315218D01*
X122915969Y-83245749D01*
X122947244Y-83183270D01*
X123007334Y-83147618D01*
X123077159Y-83150112D01*
X123099300Y-83161890D01*
X123100119Y-83160472D01*
X123107157Y-83164534D01*
X123107159Y-83164536D01*
X123253238Y-83225044D01*
X123331619Y-83235363D01*
X123409999Y-83245682D01*
X123410000Y-83245682D01*
X123410001Y-83245682D01*
X123462254Y-83238802D01*
X123566762Y-83225044D01*
X123712841Y-83164536D01*
X123838282Y-83068282D01*
X123934536Y-82942841D01*
X123970404Y-82856247D01*
X124014243Y-82801845D01*
X124080537Y-82779780D01*
X124132415Y-82789139D01*
X124243238Y-82835044D01*
X124321619Y-82845363D01*
X124399999Y-82855682D01*
X124400000Y-82855682D01*
X124549472Y-82836003D01*
X124618504Y-82846768D01*
X124670760Y-82893148D01*
X124689646Y-82960417D01*
X124680217Y-83006392D01*
X124664957Y-83043234D01*
X124664955Y-83043239D01*
X124644318Y-83199998D01*
X124644318Y-83200001D01*
X124664955Y-83356760D01*
X124664956Y-83356762D01*
X124724287Y-83500001D01*
X124725464Y-83502841D01*
X124821718Y-83628282D01*
X124947159Y-83724536D01*
X125093238Y-83785044D01*
X125171619Y-83795363D01*
X125249999Y-83805682D01*
X125250000Y-83805682D01*
X125250001Y-83805682D01*
X125302254Y-83798802D01*
X125406762Y-83785044D01*
X125552841Y-83724536D01*
X125678282Y-83628282D01*
X125774536Y-83502841D01*
X125835044Y-83356762D01*
X125855682Y-83200000D01*
X125853479Y-83183270D01*
X125835044Y-83043239D01*
X125835044Y-83043238D01*
X125774536Y-82897159D01*
X125678282Y-82771718D01*
X125552841Y-82675464D01*
X125527472Y-82664956D01*
X125406762Y-82614956D01*
X125406760Y-82614955D01*
X125250001Y-82594318D01*
X125249999Y-82594318D01*
X125100529Y-82613996D01*
X125031494Y-82603230D01*
X124979238Y-82556850D01*
X124960353Y-82489581D01*
X124969782Y-82443606D01*
X124985044Y-82406762D01*
X125005682Y-82250000D01*
X125002480Y-82225682D01*
X124987970Y-82115463D01*
X124985044Y-82093238D01*
X124924536Y-81947159D01*
X124828282Y-81821718D01*
X124702841Y-81725464D01*
X124556762Y-81664956D01*
X124556760Y-81664955D01*
X124400001Y-81644318D01*
X124399999Y-81644318D01*
X124243239Y-81664955D01*
X124243237Y-81664956D01*
X124097160Y-81725463D01*
X123971718Y-81821718D01*
X123875463Y-81947160D01*
X123839596Y-82033751D01*
X123795755Y-82088154D01*
X123729460Y-82110219D01*
X123677583Y-82100859D01*
X123566765Y-82054957D01*
X123566760Y-82054955D01*
X123410001Y-82034318D01*
X123409999Y-82034318D01*
X123253239Y-82054955D01*
X123253237Y-82054956D01*
X123107160Y-82115463D01*
X122981718Y-82211718D01*
X122885463Y-82337160D01*
X122824956Y-82483237D01*
X122824955Y-82483239D01*
X122804318Y-82639998D01*
X122804318Y-82640001D01*
X122824955Y-82796760D01*
X122824956Y-82796762D01*
X122836562Y-82824782D01*
X122844029Y-82894252D01*
X122812753Y-82956730D01*
X122752664Y-82992382D01*
X122682839Y-82989887D01*
X122660692Y-82978122D01*
X122659881Y-82979528D01*
X122652843Y-82975465D01*
X122652838Y-82975463D01*
X122506762Y-82914956D01*
X122506760Y-82914955D01*
X122350001Y-82894318D01*
X122349999Y-82894318D01*
X122193239Y-82914955D01*
X122193237Y-82914956D01*
X122047160Y-82975463D01*
X121921718Y-83071718D01*
X121825463Y-83197160D01*
X121764956Y-83343237D01*
X121764955Y-83343239D01*
X121744318Y-83499998D01*
X121744318Y-83500001D01*
X121752955Y-83565608D01*
X121742189Y-83634644D01*
X121695809Y-83686899D01*
X121628540Y-83705784D01*
X121582563Y-83696354D01*
X121506762Y-83664956D01*
X121506760Y-83664955D01*
X121350001Y-83644318D01*
X121349999Y-83644318D01*
X121193239Y-83664955D01*
X121193237Y-83664956D01*
X121047160Y-83725463D01*
X120921718Y-83821718D01*
X120825463Y-83947160D01*
X120764956Y-84093237D01*
X120764955Y-84093239D01*
X120744318Y-84249998D01*
X119353695Y-84249998D01*
X119278282Y-84151718D01*
X119152841Y-84055464D01*
X119089429Y-84029198D01*
X119006762Y-83994956D01*
X119006760Y-83994955D01*
X118850001Y-83974318D01*
X118849999Y-83974318D01*
X118693239Y-83994955D01*
X118693237Y-83994956D01*
X118547160Y-84055463D01*
X118421718Y-84151718D01*
X118325463Y-84277160D01*
X118264956Y-84423237D01*
X118264955Y-84423239D01*
X118244318Y-84579998D01*
X111329560Y-84579998D01*
X111274536Y-84447159D01*
X111178282Y-84321718D01*
X111052841Y-84225464D01*
X110906762Y-84164956D01*
X110906760Y-84164955D01*
X110750001Y-84144318D01*
X110749999Y-84144318D01*
X110593239Y-84164955D01*
X110593237Y-84164956D01*
X110447160Y-84225463D01*
X110321718Y-84321718D01*
X110225463Y-84447160D01*
X110164956Y-84593237D01*
X110164955Y-84593239D01*
X110144318Y-84749998D01*
X107918272Y-84749998D01*
X107930583Y-84625000D01*
X107910300Y-84419066D01*
X107850232Y-84221046D01*
X107752685Y-84038550D01*
X107695933Y-83969397D01*
X107621410Y-83878589D01*
X107461452Y-83747317D01*
X107461453Y-83747317D01*
X107461450Y-83747315D01*
X107283317Y-83652100D01*
X107278956Y-83649769D01*
X107278955Y-83649768D01*
X107278954Y-83649768D01*
X107080934Y-83589700D01*
X107080932Y-83589699D01*
X107080934Y-83589699D01*
X106875000Y-83569417D01*
X106669067Y-83589699D01*
X106471035Y-83649771D01*
X106465414Y-83652100D01*
X106464764Y-83650531D01*
X106404301Y-83663108D01*
X106339062Y-83638096D01*
X106297702Y-83581783D01*
X106293353Y-83512049D01*
X106299711Y-83492063D01*
X106335044Y-83406762D01*
X106355682Y-83250000D01*
X106355122Y-83245749D01*
X106335044Y-83093239D01*
X106335044Y-83093238D01*
X106274536Y-82947159D01*
X106178282Y-82821718D01*
X106052841Y-82725464D01*
X105906762Y-82664956D01*
X105906760Y-82664955D01*
X105750001Y-82644318D01*
X105749999Y-82644318D01*
X105593239Y-82664955D01*
X105593237Y-82664956D01*
X105447160Y-82725463D01*
X105321718Y-82821718D01*
X105225463Y-82947160D01*
X105164956Y-83093237D01*
X105164955Y-83093239D01*
X105144318Y-83249998D01*
X104805500Y-83249998D01*
X104805500Y-83181158D01*
X104805500Y-83181155D01*
X104805499Y-83181153D01*
X104801385Y-83160472D01*
X104774737Y-83026503D01*
X104759570Y-82989887D01*
X104714397Y-82880827D01*
X104714390Y-82880814D01*
X104626789Y-82749711D01*
X104626786Y-82749707D01*
X104515292Y-82638213D01*
X104515288Y-82638210D01*
X104384185Y-82550609D01*
X104384172Y-82550602D01*
X104238501Y-82490264D01*
X104238489Y-82490261D01*
X104083845Y-82459500D01*
X104083842Y-82459500D01*
X102826158Y-82459500D01*
X102826155Y-82459500D01*
X102671510Y-82490261D01*
X102671498Y-82490264D01*
X102525827Y-82550602D01*
X102525814Y-82550609D01*
X102394711Y-82638210D01*
X102394707Y-82638213D01*
X102283213Y-82749707D01*
X102283210Y-82749711D01*
X102195609Y-82880814D01*
X102195602Y-82880827D01*
X102135264Y-83026498D01*
X102135261Y-83026510D01*
X102104500Y-83181153D01*
X100475499Y-83181153D01*
X100471385Y-83160472D01*
X100444737Y-83026503D01*
X100429570Y-82989887D01*
X100384397Y-82880827D01*
X100384390Y-82880814D01*
X100296789Y-82749711D01*
X100296786Y-82749707D01*
X100185292Y-82638213D01*
X100185288Y-82638210D01*
X100054185Y-82550609D01*
X100054172Y-82550602D01*
X99908501Y-82490264D01*
X99908489Y-82490261D01*
X99753845Y-82459500D01*
X99753842Y-82459500D01*
X98796158Y-82459500D01*
X98796155Y-82459500D01*
X98641510Y-82490261D01*
X98641498Y-82490264D01*
X98495827Y-82550602D01*
X98495814Y-82550609D01*
X98364711Y-82638210D01*
X98364707Y-82638213D01*
X98253213Y-82749707D01*
X98253210Y-82749711D01*
X98165609Y-82880814D01*
X98165602Y-82880827D01*
X98105264Y-83026498D01*
X98105261Y-83026510D01*
X98074500Y-83181153D01*
X96500500Y-83181153D01*
X96500500Y-78479998D01*
X131994318Y-78479998D01*
X131994318Y-78480001D01*
X132014955Y-78636760D01*
X132014956Y-78636762D01*
X132039361Y-78695682D01*
X132075464Y-78782841D01*
X132171718Y-78908282D01*
X132297159Y-79004536D01*
X132443238Y-79065044D01*
X132444192Y-79065439D01*
X132498595Y-79109280D01*
X132520660Y-79175574D01*
X132503381Y-79243273D01*
X132452244Y-79290884D01*
X132444192Y-79294561D01*
X132297160Y-79355463D01*
X132171718Y-79451718D01*
X132075463Y-79577160D01*
X132014956Y-79723237D01*
X132014955Y-79723239D01*
X131994318Y-79879998D01*
X131994318Y-79880001D01*
X132014955Y-80036760D01*
X132014956Y-80036762D01*
X132075464Y-80182841D01*
X132171718Y-80308282D01*
X132297159Y-80404536D01*
X132443238Y-80465044D01*
X132589010Y-80484235D01*
X132652907Y-80512501D01*
X132691378Y-80570826D01*
X132695764Y-80590988D01*
X132704424Y-80656762D01*
X132714956Y-80736762D01*
X132775464Y-80882841D01*
X132871718Y-81008282D01*
X132997159Y-81104536D01*
X133143238Y-81165044D01*
X133221619Y-81175363D01*
X133299999Y-81185682D01*
X133300000Y-81185682D01*
X133300001Y-81185682D01*
X133352254Y-81178802D01*
X133456762Y-81165044D01*
X133602841Y-81104536D01*
X133728282Y-81008282D01*
X133824536Y-80882841D01*
X133885044Y-80736762D01*
X133885044Y-80736761D01*
X133885439Y-80735808D01*
X133929280Y-80681404D01*
X133995574Y-80659339D01*
X134063273Y-80676618D01*
X134110884Y-80727755D01*
X134114561Y-80735808D01*
X134175462Y-80882838D01*
X134175463Y-80882839D01*
X134175464Y-80882841D01*
X134271718Y-81008282D01*
X134397159Y-81104536D01*
X134543238Y-81165044D01*
X134621619Y-81175363D01*
X134699999Y-81185682D01*
X134700000Y-81185682D01*
X134700001Y-81185682D01*
X134752254Y-81178802D01*
X134856762Y-81165044D01*
X135002841Y-81104536D01*
X135128282Y-81008282D01*
X135224536Y-80882841D01*
X135285044Y-80736762D01*
X135304235Y-80590988D01*
X135332501Y-80527092D01*
X135390826Y-80488621D01*
X135410985Y-80484235D01*
X135556762Y-80465044D01*
X135702841Y-80404536D01*
X135828282Y-80308282D01*
X135924536Y-80182841D01*
X135985044Y-80036762D01*
X136005682Y-79880000D01*
X135985044Y-79723238D01*
X135924536Y-79577159D01*
X135828282Y-79451718D01*
X135702841Y-79355464D01*
X135702840Y-79355463D01*
X135702838Y-79355462D01*
X135555808Y-79294561D01*
X135501404Y-79250720D01*
X135479339Y-79184426D01*
X135496618Y-79116727D01*
X135547755Y-79069116D01*
X135555808Y-79065439D01*
X135556762Y-79065044D01*
X135702841Y-79004536D01*
X135828282Y-78908282D01*
X135924536Y-78782841D01*
X135985044Y-78636762D01*
X136005682Y-78480000D01*
X135999847Y-78435682D01*
X135985044Y-78323239D01*
X135985044Y-78323238D01*
X135924536Y-78177159D01*
X135828282Y-78051718D01*
X135702841Y-77955464D01*
X135556762Y-77894956D01*
X135530168Y-77891454D01*
X135410988Y-77875764D01*
X135347092Y-77847497D01*
X135322357Y-77809998D01*
X145144318Y-77809998D01*
X145144318Y-77810001D01*
X145164955Y-77966760D01*
X145164956Y-77966762D01*
X145225464Y-78112841D01*
X145321718Y-78238282D01*
X145447159Y-78334536D01*
X145447166Y-78334541D01*
X145452487Y-78337613D01*
X145500703Y-78388179D01*
X145513927Y-78456786D01*
X145487959Y-78521651D01*
X145452487Y-78552387D01*
X145447166Y-78555458D01*
X145321718Y-78651718D01*
X145225463Y-78777160D01*
X145164956Y-78923237D01*
X145164955Y-78923239D01*
X145144318Y-79079998D01*
X145144318Y-79080001D01*
X145164955Y-79236760D01*
X145164956Y-79236762D01*
X145225464Y-79382841D01*
X145321718Y-79508282D01*
X145411481Y-79577159D01*
X145449880Y-79606624D01*
X145491082Y-79663053D01*
X145495237Y-79732799D01*
X145461024Y-79793719D01*
X145449880Y-79803376D01*
X145321718Y-79901718D01*
X145225463Y-80027160D01*
X145164956Y-80173237D01*
X145164955Y-80173239D01*
X145144318Y-80329998D01*
X145144318Y-80330001D01*
X145164955Y-80486760D01*
X145164956Y-80486762D01*
X145203576Y-80580000D01*
X145225464Y-80632841D01*
X145321718Y-80758282D01*
X145447159Y-80854536D01*
X145460356Y-80860002D01*
X145461410Y-80860439D01*
X145515814Y-80904281D01*
X145537878Y-80970575D01*
X145520598Y-81038274D01*
X145469461Y-81085884D01*
X145461410Y-81089561D01*
X145447160Y-81095463D01*
X145321718Y-81191718D01*
X145225463Y-81317160D01*
X145164956Y-81463237D01*
X145164955Y-81463239D01*
X145144318Y-81619998D01*
X145144318Y-81620001D01*
X145164955Y-81776760D01*
X145164956Y-81776762D01*
X145223575Y-81918282D01*
X145225464Y-81922841D01*
X145321718Y-82048282D01*
X145447159Y-82144536D01*
X145593238Y-82205044D01*
X145671619Y-82215363D01*
X145749999Y-82225682D01*
X145750000Y-82225682D01*
X145750001Y-82225682D01*
X145802254Y-82218802D01*
X145906762Y-82205044D01*
X146052841Y-82144536D01*
X146178282Y-82048282D01*
X146274536Y-81922841D01*
X146335044Y-81776762D01*
X146350842Y-81656762D01*
X146355682Y-81620001D01*
X146355682Y-81619998D01*
X146339884Y-81500000D01*
X146339884Y-81499998D01*
X151994318Y-81499998D01*
X151994318Y-81500001D01*
X152014955Y-81656760D01*
X152014956Y-81656762D01*
X152075464Y-81802841D01*
X152171718Y-81928282D01*
X152297159Y-82024536D01*
X152443238Y-82085044D01*
X152505478Y-82093238D01*
X152599999Y-82105682D01*
X152600000Y-82105682D01*
X152600001Y-82105682D01*
X152652254Y-82098802D01*
X152756762Y-82085044D01*
X152902841Y-82024536D01*
X153028282Y-81928282D01*
X153124536Y-81802841D01*
X153185044Y-81656762D01*
X153185045Y-81656749D01*
X153186562Y-81651091D01*
X153222924Y-81591429D01*
X153285769Y-81560896D01*
X153355145Y-81569187D01*
X153409026Y-81613669D01*
X153420893Y-81639647D01*
X153421846Y-81639253D01*
X153424955Y-81646760D01*
X153424956Y-81646762D01*
X153485464Y-81792841D01*
X153581718Y-81918282D01*
X153707159Y-82014536D01*
X153853238Y-82075044D01*
X153929188Y-82085043D01*
X154009999Y-82095682D01*
X154010000Y-82095682D01*
X154010001Y-82095682D01*
X154090804Y-82085044D01*
X154166762Y-82075044D01*
X154312841Y-82014536D01*
X154438282Y-81918282D01*
X154452788Y-81899376D01*
X154509212Y-81858175D01*
X154578958Y-81854018D01*
X154639879Y-81888229D01*
X154649534Y-81899371D01*
X154671718Y-81928282D01*
X154797159Y-82024536D01*
X154943238Y-82085044D01*
X155005478Y-82093238D01*
X155099999Y-82105682D01*
X155100000Y-82105682D01*
X155100001Y-82105682D01*
X155152254Y-82098802D01*
X155256762Y-82085044D01*
X155402841Y-82024536D01*
X155528282Y-81928282D01*
X155624536Y-81802841D01*
X155624535Y-81802841D01*
X155626624Y-81800120D01*
X155683052Y-81758917D01*
X155752798Y-81754762D01*
X155813718Y-81788974D01*
X155823376Y-81800120D01*
X155914044Y-81918282D01*
X155921718Y-81928282D01*
X156047159Y-82024536D01*
X156193238Y-82085044D01*
X156255478Y-82093238D01*
X156349999Y-82105682D01*
X156350000Y-82105682D01*
X156350001Y-82105682D01*
X156402254Y-82098802D01*
X156506762Y-82085044D01*
X156652841Y-82024536D01*
X156778282Y-81928282D01*
X156874536Y-81802841D01*
X156935044Y-81656762D01*
X156955682Y-81500000D01*
X156954365Y-81490000D01*
X156939399Y-81376321D01*
X156935044Y-81343238D01*
X156874536Y-81197159D01*
X156778282Y-81071718D01*
X156652841Y-80975464D01*
X156628696Y-80965463D01*
X156506762Y-80914956D01*
X156506760Y-80914955D01*
X156350001Y-80894318D01*
X156349999Y-80894318D01*
X156193239Y-80914955D01*
X156193237Y-80914956D01*
X156047160Y-80975463D01*
X155921718Y-81071718D01*
X155823376Y-81199880D01*
X155766947Y-81241082D01*
X155697201Y-81245237D01*
X155636281Y-81211024D01*
X155626624Y-81199880D01*
X155599893Y-81165044D01*
X155528282Y-81071718D01*
X155402841Y-80975464D01*
X155378696Y-80965463D01*
X155256762Y-80914956D01*
X155256760Y-80914955D01*
X155100001Y-80894318D01*
X155099999Y-80894318D01*
X154943239Y-80914955D01*
X154943237Y-80914956D01*
X154797160Y-80975463D01*
X154797159Y-80975464D01*
X154671718Y-81071718D01*
X154671716Y-81071719D01*
X154671715Y-81071721D01*
X154657210Y-81090624D01*
X154600782Y-81131826D01*
X154531036Y-81135979D01*
X154470116Y-81101766D01*
X154460462Y-81090624D01*
X154438282Y-81061718D01*
X154312841Y-80965464D01*
X154223073Y-80928281D01*
X154166762Y-80904956D01*
X154166760Y-80904955D01*
X154010001Y-80884318D01*
X154009999Y-80884318D01*
X153853239Y-80904955D01*
X153853237Y-80904956D01*
X153707160Y-80965463D01*
X153581718Y-81061718D01*
X153485463Y-81187160D01*
X153424955Y-81333239D01*
X153423434Y-81338918D01*
X153387067Y-81398578D01*
X153324219Y-81429105D01*
X153254844Y-81420808D01*
X153200967Y-81376321D01*
X153189108Y-81350351D01*
X153188154Y-81350747D01*
X153185044Y-81343238D01*
X153124536Y-81197159D01*
X153028282Y-81071718D01*
X152902841Y-80975464D01*
X152878696Y-80965463D01*
X152756762Y-80914956D01*
X152756760Y-80914955D01*
X152600001Y-80894318D01*
X152599999Y-80894318D01*
X152443239Y-80914955D01*
X152443237Y-80914956D01*
X152297160Y-80975463D01*
X152171718Y-81071718D01*
X152075463Y-81197160D01*
X152014956Y-81343237D01*
X152014955Y-81343239D01*
X151994318Y-81499998D01*
X146339884Y-81499998D01*
X146335044Y-81463238D01*
X146274536Y-81317159D01*
X146178282Y-81191718D01*
X146052841Y-81095464D01*
X146038589Y-81089560D01*
X145984187Y-81045721D01*
X145962121Y-80979427D01*
X145979400Y-80911728D01*
X146030536Y-80864117D01*
X146038578Y-80860443D01*
X146052841Y-80854536D01*
X146178282Y-80758282D01*
X146274536Y-80632841D01*
X146329561Y-80499998D01*
X158144318Y-80499998D01*
X158144318Y-80500001D01*
X158164955Y-80656760D01*
X158164956Y-80656762D01*
X158207006Y-80758281D01*
X158225464Y-80802841D01*
X158321718Y-80928282D01*
X158447159Y-81024536D01*
X158593238Y-81085044D01*
X158627556Y-81089562D01*
X158749999Y-81105682D01*
X158750000Y-81105682D01*
X158750001Y-81105682D01*
X158802254Y-81098802D01*
X158906762Y-81085044D01*
X159052841Y-81024536D01*
X159178282Y-80928282D01*
X159274536Y-80802841D01*
X159335044Y-80656762D01*
X159355682Y-80500000D01*
X159351914Y-80471382D01*
X159335044Y-80343239D01*
X159335044Y-80343238D01*
X159274536Y-80197159D01*
X159178282Y-80071718D01*
X159052841Y-79975464D01*
X159050074Y-79974318D01*
X158906762Y-79914956D01*
X158906760Y-79914955D01*
X158750001Y-79894318D01*
X158749999Y-79894318D01*
X158593239Y-79914955D01*
X158593237Y-79914956D01*
X158447160Y-79975463D01*
X158321718Y-80071718D01*
X158225463Y-80197160D01*
X158164956Y-80343237D01*
X158164955Y-80343239D01*
X158144318Y-80499998D01*
X146329561Y-80499998D01*
X146335044Y-80486762D01*
X146355682Y-80330000D01*
X146335044Y-80173238D01*
X146274536Y-80027159D01*
X146178282Y-79901718D01*
X146178280Y-79901717D01*
X146178280Y-79901716D01*
X146050120Y-79803376D01*
X146008917Y-79746948D01*
X146004762Y-79677202D01*
X146038974Y-79616282D01*
X146050120Y-79606624D01*
X146088519Y-79577159D01*
X146178282Y-79508282D01*
X146274536Y-79382841D01*
X146335044Y-79236762D01*
X146355682Y-79080000D01*
X146354547Y-79071382D01*
X146335044Y-78923239D01*
X146335044Y-78923238D01*
X146274536Y-78777159D01*
X146178282Y-78651718D01*
X146052841Y-78555464D01*
X146052834Y-78555461D01*
X146047515Y-78552390D01*
X145999298Y-78501825D01*
X145986072Y-78433218D01*
X146012037Y-78368352D01*
X146047515Y-78337610D01*
X146052828Y-78334541D01*
X146052841Y-78334536D01*
X146178282Y-78238282D01*
X146274536Y-78112841D01*
X146283998Y-78089998D01*
X157859318Y-78089998D01*
X157859318Y-78090001D01*
X157879955Y-78246760D01*
X157879956Y-78246762D01*
X157937498Y-78385682D01*
X157940464Y-78392841D01*
X158036718Y-78518282D01*
X158162159Y-78614536D01*
X158308238Y-78675044D01*
X158386619Y-78685363D01*
X158464999Y-78695682D01*
X158465000Y-78695682D01*
X158465001Y-78695682D01*
X158517254Y-78688802D01*
X158621762Y-78675044D01*
X158767841Y-78614536D01*
X158893282Y-78518282D01*
X158989536Y-78392841D01*
X159050044Y-78246762D01*
X159070682Y-78090000D01*
X159050044Y-77933238D01*
X158989536Y-77787159D01*
X158893282Y-77661718D01*
X158767841Y-77565464D01*
X158621762Y-77504956D01*
X158621760Y-77504955D01*
X158465001Y-77484318D01*
X158464999Y-77484318D01*
X158308239Y-77504955D01*
X158308237Y-77504956D01*
X158162160Y-77565463D01*
X158036718Y-77661718D01*
X157940463Y-77787160D01*
X157879956Y-77933237D01*
X157879955Y-77933239D01*
X157859318Y-78089998D01*
X146283998Y-78089998D01*
X146335044Y-77966762D01*
X146355682Y-77810000D01*
X146351732Y-77780000D01*
X146335044Y-77653239D01*
X146335044Y-77653238D01*
X146274536Y-77507159D01*
X146178282Y-77381718D01*
X146052841Y-77285464D01*
X145980412Y-77255463D01*
X145906762Y-77224956D01*
X145906760Y-77224955D01*
X145750001Y-77204318D01*
X145749999Y-77204318D01*
X145593239Y-77224955D01*
X145593237Y-77224956D01*
X145447160Y-77285463D01*
X145321718Y-77381718D01*
X145225463Y-77507160D01*
X145164956Y-77653237D01*
X145164955Y-77653239D01*
X145144318Y-77809998D01*
X135322357Y-77809998D01*
X135308621Y-77789173D01*
X135304235Y-77769010D01*
X135291626Y-77673238D01*
X135285044Y-77623238D01*
X135224536Y-77477159D01*
X135128282Y-77351718D01*
X135002841Y-77255464D01*
X134977472Y-77244956D01*
X134856762Y-77194956D01*
X134856760Y-77194955D01*
X134700001Y-77174318D01*
X134699999Y-77174318D01*
X134543239Y-77194955D01*
X134543237Y-77194956D01*
X134397160Y-77255463D01*
X134271718Y-77351718D01*
X134175463Y-77477160D01*
X134163037Y-77507160D01*
X134114957Y-77623237D01*
X134114561Y-77624192D01*
X134070720Y-77678595D01*
X134004426Y-77700660D01*
X133936727Y-77683381D01*
X133889116Y-77632244D01*
X133885439Y-77624192D01*
X133885044Y-77623238D01*
X133824536Y-77477159D01*
X133728282Y-77351718D01*
X133602841Y-77255464D01*
X133577472Y-77244956D01*
X133456762Y-77194956D01*
X133456760Y-77194955D01*
X133300001Y-77174318D01*
X133299999Y-77174318D01*
X133143239Y-77194955D01*
X133143237Y-77194956D01*
X132997160Y-77255463D01*
X132871718Y-77351718D01*
X132775463Y-77477160D01*
X132714956Y-77623237D01*
X132714956Y-77623238D01*
X132713770Y-77632244D01*
X132695764Y-77769011D01*
X132667497Y-77832907D01*
X132609172Y-77871378D01*
X132589011Y-77875764D01*
X132465729Y-77891995D01*
X132443238Y-77894956D01*
X132443237Y-77894956D01*
X132297160Y-77955463D01*
X132171718Y-78051718D01*
X132075463Y-78177160D01*
X132014956Y-78323237D01*
X132014955Y-78323239D01*
X131994318Y-78479998D01*
X96500500Y-78479998D01*
X96500500Y-77829998D01*
X119494318Y-77829998D01*
X119494318Y-77830001D01*
X119514955Y-77986760D01*
X119514956Y-77986762D01*
X119575464Y-78132841D01*
X119671718Y-78258282D01*
X119797159Y-78354536D01*
X119943238Y-78415044D01*
X120021619Y-78425363D01*
X120099999Y-78435682D01*
X120100000Y-78435682D01*
X120100001Y-78435682D01*
X120152254Y-78428802D01*
X120256762Y-78415044D01*
X120402841Y-78354536D01*
X120528282Y-78258282D01*
X120624536Y-78132841D01*
X120685044Y-77986762D01*
X120700235Y-77871378D01*
X120705682Y-77830001D01*
X120705682Y-77829998D01*
X120685044Y-77673239D01*
X120685044Y-77673238D01*
X120624536Y-77527159D01*
X120528282Y-77401718D01*
X120402841Y-77305464D01*
X120354554Y-77285463D01*
X120256762Y-77244956D01*
X120256760Y-77244955D01*
X120100001Y-77224318D01*
X120099999Y-77224318D01*
X119943239Y-77244955D01*
X119943237Y-77244956D01*
X119797160Y-77305463D01*
X119671718Y-77401718D01*
X119575463Y-77527160D01*
X119514956Y-77673237D01*
X119514955Y-77673239D01*
X119494318Y-77829998D01*
X96500500Y-77829998D01*
X96500500Y-76249999D01*
X111344722Y-76249999D01*
X111344722Y-76250000D01*
X111363762Y-76406818D01*
X111419780Y-76554523D01*
X111509517Y-76684530D01*
X111627760Y-76789283D01*
X111627762Y-76789284D01*
X111767634Y-76862696D01*
X111921014Y-76900500D01*
X111921015Y-76900500D01*
X112078985Y-76900500D01*
X112232365Y-76862696D01*
X112372240Y-76789283D01*
X112490483Y-76684530D01*
X112580220Y-76554523D01*
X112636237Y-76406818D01*
X112655278Y-76250000D01*
X112638607Y-76112696D01*
X112636237Y-76093181D01*
X112607831Y-76018281D01*
X112580220Y-75945477D01*
X112490483Y-75815470D01*
X112372240Y-75710717D01*
X112372238Y-75710716D01*
X112372237Y-75710715D01*
X112232365Y-75637303D01*
X112078986Y-75599500D01*
X112078985Y-75599500D01*
X111921015Y-75599500D01*
X111921014Y-75599500D01*
X111767634Y-75637303D01*
X111627762Y-75710715D01*
X111509516Y-75815471D01*
X111419781Y-75945475D01*
X111419780Y-75945476D01*
X111363762Y-76093181D01*
X111344722Y-76249999D01*
X96500500Y-76249999D01*
X96500500Y-75499999D01*
X113594722Y-75499999D01*
X113594722Y-75500000D01*
X113613762Y-75656818D01*
X113634203Y-75710715D01*
X113669780Y-75804523D01*
X113759517Y-75934530D01*
X113877760Y-76039283D01*
X113877762Y-76039284D01*
X114017634Y-76112696D01*
X114171014Y-76150500D01*
X114171015Y-76150500D01*
X114328985Y-76150500D01*
X114482365Y-76112696D01*
X114519547Y-76093181D01*
X114622240Y-76039283D01*
X114740483Y-75934530D01*
X114830220Y-75804523D01*
X114886237Y-75656818D01*
X114894350Y-75589998D01*
X157894318Y-75589998D01*
X157894318Y-75590001D01*
X157914955Y-75746760D01*
X157914956Y-75746762D01*
X157975464Y-75892841D01*
X158071718Y-76018282D01*
X158197159Y-76114536D01*
X158343238Y-76175044D01*
X158421619Y-76185363D01*
X158499999Y-76195682D01*
X158500000Y-76195682D01*
X158500001Y-76195682D01*
X158552254Y-76188802D01*
X158656762Y-76175044D01*
X158802841Y-76114536D01*
X158928282Y-76018282D01*
X159024536Y-75892841D01*
X159085044Y-75746762D01*
X159105682Y-75590000D01*
X159085044Y-75433238D01*
X159024536Y-75287159D01*
X158928282Y-75161718D01*
X158802841Y-75065464D01*
X158656762Y-75004956D01*
X158656760Y-75004955D01*
X158500001Y-74984318D01*
X158499999Y-74984318D01*
X158343239Y-75004955D01*
X158343237Y-75004956D01*
X158197160Y-75065463D01*
X158071718Y-75161718D01*
X157975463Y-75287160D01*
X157914956Y-75433237D01*
X157914955Y-75433239D01*
X157894318Y-75589998D01*
X114894350Y-75589998D01*
X114905278Y-75500000D01*
X114886237Y-75343182D01*
X114830220Y-75195477D01*
X114740483Y-75065470D01*
X114622240Y-74960717D01*
X114622238Y-74960716D01*
X114622237Y-74960715D01*
X114482365Y-74887303D01*
X114328986Y-74849500D01*
X114328985Y-74849500D01*
X114171015Y-74849500D01*
X114171014Y-74849500D01*
X114017634Y-74887303D01*
X113877762Y-74960715D01*
X113759516Y-75065471D01*
X113669781Y-75195475D01*
X113669780Y-75195476D01*
X113613762Y-75343181D01*
X113594722Y-75499999D01*
X96500500Y-75499999D01*
X96500500Y-74080000D01*
X106144901Y-74080000D01*
X106163252Y-74266331D01*
X106163253Y-74266333D01*
X106217604Y-74445502D01*
X106305862Y-74610623D01*
X106305864Y-74610626D01*
X106424642Y-74755357D01*
X106569373Y-74874135D01*
X106569376Y-74874137D01*
X106731354Y-74960715D01*
X106734499Y-74962396D01*
X106874800Y-75004956D01*
X106913666Y-75016746D01*
X106913668Y-75016747D01*
X106930374Y-75018392D01*
X107100000Y-75035099D01*
X107286331Y-75016747D01*
X107465501Y-74962396D01*
X107630625Y-74874136D01*
X107775357Y-74755357D01*
X107894136Y-74610625D01*
X107982396Y-74445501D01*
X108036747Y-74266331D01*
X108055099Y-74080000D01*
X108055099Y-74079998D01*
X119494318Y-74079998D01*
X119494318Y-74080001D01*
X119514955Y-74236760D01*
X119514956Y-74236762D01*
X119575464Y-74382841D01*
X119671718Y-74508282D01*
X119797159Y-74604536D01*
X119943238Y-74665044D01*
X120021619Y-74675363D01*
X120099999Y-74685682D01*
X120100000Y-74685682D01*
X120100001Y-74685682D01*
X120152254Y-74678802D01*
X120256762Y-74665044D01*
X120402841Y-74604536D01*
X120528282Y-74508282D01*
X120624536Y-74382841D01*
X120685044Y-74236762D01*
X120705682Y-74080000D01*
X120695150Y-73999998D01*
X124394318Y-73999998D01*
X124394318Y-74000001D01*
X124414955Y-74156760D01*
X124414956Y-74156762D01*
X124475464Y-74302841D01*
X124571718Y-74428282D01*
X124697159Y-74524536D01*
X124843238Y-74585044D01*
X124921619Y-74595363D01*
X124999999Y-74605682D01*
X125000000Y-74605682D01*
X125000001Y-74605682D01*
X125052254Y-74598802D01*
X125156762Y-74585044D01*
X125302841Y-74524536D01*
X125428282Y-74428282D01*
X125524536Y-74302841D01*
X125585044Y-74156762D01*
X125605682Y-74000000D01*
X125585044Y-73843238D01*
X125524536Y-73697159D01*
X125428282Y-73571718D01*
X125302841Y-73475464D01*
X125300074Y-73474318D01*
X125156762Y-73414956D01*
X125156760Y-73414955D01*
X125000001Y-73394318D01*
X124999999Y-73394318D01*
X124843239Y-73414955D01*
X124843237Y-73414956D01*
X124697160Y-73475463D01*
X124571718Y-73571718D01*
X124475463Y-73697160D01*
X124414956Y-73843237D01*
X124414955Y-73843239D01*
X124394318Y-73999998D01*
X120695150Y-73999998D01*
X120685044Y-73923238D01*
X120624536Y-73777159D01*
X120528282Y-73651718D01*
X120402841Y-73555464D01*
X120388143Y-73549376D01*
X120256762Y-73494956D01*
X120256760Y-73494955D01*
X120100001Y-73474318D01*
X120099999Y-73474318D01*
X119943239Y-73494955D01*
X119943237Y-73494956D01*
X119797160Y-73555463D01*
X119671718Y-73651718D01*
X119575463Y-73777160D01*
X119514956Y-73923237D01*
X119514955Y-73923239D01*
X119494318Y-74079998D01*
X108055099Y-74079998D01*
X108036747Y-73893669D01*
X107982396Y-73714499D01*
X107948839Y-73651718D01*
X107894137Y-73549376D01*
X107894135Y-73549373D01*
X107775357Y-73404642D01*
X107630626Y-73285864D01*
X107630623Y-73285862D01*
X107465502Y-73197604D01*
X107286333Y-73143253D01*
X107286331Y-73143252D01*
X107100000Y-73124901D01*
X106913668Y-73143252D01*
X106913666Y-73143253D01*
X106734497Y-73197604D01*
X106569376Y-73285862D01*
X106569373Y-73285864D01*
X106424642Y-73404642D01*
X106305864Y-73549373D01*
X106305862Y-73549376D01*
X106217604Y-73714497D01*
X106163253Y-73893666D01*
X106163252Y-73893668D01*
X106144901Y-74080000D01*
X96500500Y-74080000D01*
X96500500Y-72749998D01*
X109994318Y-72749998D01*
X109994318Y-72750001D01*
X110014955Y-72906760D01*
X110014956Y-72906762D01*
X110075464Y-73052841D01*
X110171718Y-73178282D01*
X110297159Y-73274536D01*
X110443238Y-73335044D01*
X110521619Y-73345363D01*
X110599999Y-73355682D01*
X110600000Y-73355682D01*
X110600001Y-73355682D01*
X110652254Y-73348802D01*
X110756762Y-73335044D01*
X110902841Y-73274536D01*
X111028282Y-73178282D01*
X111124536Y-73052841D01*
X111185044Y-72906762D01*
X111205682Y-72750000D01*
X111185044Y-72593238D01*
X111124536Y-72447159D01*
X111028282Y-72321718D01*
X110902841Y-72225464D01*
X110756762Y-72164956D01*
X110756760Y-72164955D01*
X110600001Y-72144318D01*
X110599999Y-72144318D01*
X110443239Y-72164955D01*
X110443237Y-72164956D01*
X110297160Y-72225463D01*
X110171718Y-72321718D01*
X110075463Y-72447160D01*
X110014956Y-72593237D01*
X110014955Y-72593239D01*
X109994318Y-72749998D01*
X96500500Y-72749998D01*
X96500500Y-71829998D01*
X111244318Y-71829998D01*
X111244318Y-71830001D01*
X111264955Y-71986760D01*
X111264956Y-71986762D01*
X111325464Y-72132841D01*
X111421718Y-72258282D01*
X111547159Y-72354536D01*
X111693238Y-72415044D01*
X111771619Y-72425363D01*
X111849999Y-72435682D01*
X111850000Y-72435682D01*
X111850001Y-72435682D01*
X111902254Y-72428802D01*
X112006762Y-72415044D01*
X112152841Y-72354536D01*
X112278282Y-72258282D01*
X112374536Y-72132841D01*
X112435044Y-71986762D01*
X112455682Y-71830000D01*
X112455682Y-71829998D01*
X114494318Y-71829998D01*
X114494318Y-71830001D01*
X114514955Y-71986760D01*
X114514956Y-71986762D01*
X114575464Y-72132841D01*
X114671718Y-72258282D01*
X114797159Y-72354536D01*
X114943238Y-72415044D01*
X115021619Y-72425363D01*
X115099999Y-72435682D01*
X115100000Y-72435682D01*
X115100001Y-72435682D01*
X115152254Y-72428802D01*
X115256762Y-72415044D01*
X115402841Y-72354536D01*
X115528282Y-72258282D01*
X115624536Y-72132841D01*
X115685044Y-71986762D01*
X115705682Y-71830000D01*
X115685044Y-71673238D01*
X115624536Y-71527159D01*
X115528282Y-71401718D01*
X115402841Y-71305464D01*
X115385398Y-71298239D01*
X115256762Y-71244956D01*
X115256760Y-71244955D01*
X115100001Y-71224318D01*
X115099999Y-71224318D01*
X114943239Y-71244955D01*
X114943237Y-71244956D01*
X114797160Y-71305463D01*
X114671718Y-71401718D01*
X114575463Y-71527160D01*
X114514956Y-71673237D01*
X114514955Y-71673239D01*
X114494318Y-71829998D01*
X112455682Y-71829998D01*
X112435044Y-71673238D01*
X112374536Y-71527159D01*
X112278282Y-71401718D01*
X112152841Y-71305464D01*
X112135398Y-71298239D01*
X112006762Y-71244956D01*
X112006760Y-71244955D01*
X111850001Y-71224318D01*
X111849999Y-71224318D01*
X111693239Y-71244955D01*
X111693237Y-71244956D01*
X111547160Y-71305463D01*
X111421718Y-71401718D01*
X111325463Y-71527160D01*
X111264956Y-71673237D01*
X111264955Y-71673239D01*
X111244318Y-71829998D01*
X96500500Y-71829998D01*
X96500500Y-71017498D01*
X119806818Y-71017498D01*
X119806818Y-71017501D01*
X119827455Y-71174260D01*
X119827456Y-71174262D01*
X119878808Y-71298238D01*
X119887964Y-71320341D01*
X119984218Y-71445782D01*
X120109659Y-71542036D01*
X120255738Y-71602544D01*
X120325741Y-71611760D01*
X120412499Y-71623182D01*
X120412500Y-71623182D01*
X120412501Y-71623182D01*
X120464754Y-71616302D01*
X120569262Y-71602544D01*
X120715341Y-71542036D01*
X120828771Y-71454998D01*
X145369318Y-71454998D01*
X145369318Y-71455001D01*
X145389955Y-71611760D01*
X145389956Y-71611762D01*
X145450464Y-71757841D01*
X145546718Y-71883282D01*
X145672159Y-71979536D01*
X145818238Y-72040044D01*
X145896619Y-72050363D01*
X145974999Y-72060682D01*
X145975000Y-72060682D01*
X145975001Y-72060682D01*
X146027254Y-72053802D01*
X146131762Y-72040044D01*
X146277841Y-71979536D01*
X146403282Y-71883282D01*
X146499536Y-71757841D01*
X146560044Y-71611762D01*
X146580682Y-71455000D01*
X146579468Y-71445782D01*
X146560044Y-71298239D01*
X146560044Y-71298238D01*
X146499536Y-71152159D01*
X146403282Y-71026718D01*
X146277841Y-70930464D01*
X146131762Y-70869956D01*
X146131760Y-70869955D01*
X145975001Y-70849318D01*
X145974999Y-70849318D01*
X145818239Y-70869955D01*
X145818237Y-70869956D01*
X145672160Y-70930463D01*
X145546718Y-71026718D01*
X145450463Y-71152160D01*
X145389956Y-71298237D01*
X145389955Y-71298239D01*
X145369318Y-71454998D01*
X120828771Y-71454998D01*
X120840782Y-71445782D01*
X120937036Y-71320341D01*
X120997544Y-71174262D01*
X121011302Y-71069754D01*
X121018182Y-71017501D01*
X121018182Y-71017498D01*
X121004423Y-70912992D01*
X120997544Y-70860738D01*
X120937036Y-70714659D01*
X120840782Y-70589218D01*
X120715341Y-70492964D01*
X120569262Y-70432456D01*
X120569260Y-70432455D01*
X120412501Y-70411818D01*
X120412499Y-70411818D01*
X120255739Y-70432455D01*
X120255737Y-70432456D01*
X120109660Y-70492963D01*
X119984218Y-70589218D01*
X119887963Y-70714660D01*
X119827456Y-70860737D01*
X119827455Y-70860739D01*
X119806818Y-71017498D01*
X96500500Y-71017498D01*
X96500500Y-68829998D01*
X109994318Y-68829998D01*
X109994318Y-68830001D01*
X110014955Y-68986760D01*
X110014956Y-68986762D01*
X110075464Y-69132841D01*
X110171718Y-69258282D01*
X110297159Y-69354536D01*
X110443238Y-69415044D01*
X110521619Y-69425363D01*
X110599999Y-69435682D01*
X110600000Y-69435682D01*
X110600001Y-69435682D01*
X110652254Y-69428802D01*
X110756762Y-69415044D01*
X110902841Y-69354536D01*
X111028282Y-69258282D01*
X111124536Y-69132841D01*
X111185044Y-68986762D01*
X111205682Y-68830000D01*
X111185044Y-68673238D01*
X111124536Y-68527159D01*
X111028282Y-68401718D01*
X110902841Y-68305464D01*
X110756762Y-68244956D01*
X110756760Y-68244955D01*
X110600001Y-68224318D01*
X110599999Y-68224318D01*
X110443239Y-68244955D01*
X110443237Y-68244956D01*
X110297160Y-68305463D01*
X110171718Y-68401718D01*
X110075463Y-68527160D01*
X110014956Y-68673237D01*
X110014955Y-68673239D01*
X109994318Y-68829998D01*
X96500500Y-68829998D01*
X96500500Y-64080000D01*
X107944417Y-64080000D01*
X107964699Y-64285932D01*
X107964700Y-64285934D01*
X108024768Y-64483954D01*
X108122315Y-64666450D01*
X108122317Y-64666452D01*
X108253589Y-64826410D01*
X108350209Y-64905702D01*
X108413550Y-64957685D01*
X108596046Y-65055232D01*
X108794066Y-65115300D01*
X108794065Y-65115300D01*
X108812529Y-65117118D01*
X109000000Y-65135583D01*
X109205934Y-65115300D01*
X109403954Y-65055232D01*
X109586450Y-64957685D01*
X109746410Y-64826410D01*
X109877685Y-64666450D01*
X109975232Y-64483954D01*
X110035300Y-64285934D01*
X110055583Y-64080000D01*
X110035300Y-63874066D01*
X109975232Y-63676046D01*
X109877685Y-63493550D01*
X109825702Y-63430209D01*
X109746410Y-63333589D01*
X109586452Y-63202317D01*
X109586453Y-63202317D01*
X109586450Y-63202315D01*
X109403954Y-63104768D01*
X109205934Y-63044700D01*
X109205932Y-63044699D01*
X109205934Y-63044699D01*
X109000000Y-63024417D01*
X108794067Y-63044699D01*
X108596043Y-63104769D01*
X108485898Y-63163643D01*
X108413550Y-63202315D01*
X108413548Y-63202316D01*
X108413547Y-63202317D01*
X108253589Y-63333589D01*
X108122317Y-63493547D01*
X108024769Y-63676043D01*
X107964699Y-63874067D01*
X107944417Y-64080000D01*
X96500500Y-64080000D01*
X96500500Y-53878711D01*
X99149500Y-53878711D01*
X99149500Y-54121288D01*
X99181161Y-54361785D01*
X99243947Y-54596104D01*
X99336773Y-54820205D01*
X99336776Y-54820212D01*
X99458064Y-55030289D01*
X99458066Y-55030292D01*
X99458067Y-55030293D01*
X99605733Y-55222736D01*
X99605739Y-55222743D01*
X99777256Y-55394260D01*
X99777262Y-55394265D01*
X99969711Y-55541936D01*
X100179788Y-55663224D01*
X100403900Y-55756054D01*
X100638211Y-55818838D01*
X100818586Y-55842584D01*
X100878711Y-55850500D01*
X100878712Y-55850500D01*
X101121289Y-55850500D01*
X101169388Y-55844167D01*
X101361789Y-55818838D01*
X101596100Y-55756054D01*
X101820212Y-55663224D01*
X102030289Y-55541936D01*
X102222738Y-55394265D01*
X102394265Y-55222738D01*
X102541936Y-55030289D01*
X102663224Y-54820212D01*
X102756054Y-54596100D01*
X102818838Y-54361789D01*
X102850500Y-54121288D01*
X102850500Y-53878712D01*
X102818838Y-53638211D01*
X102756054Y-53403900D01*
X102663224Y-53179788D01*
X102541936Y-52969711D01*
X102394265Y-52777262D01*
X102394260Y-52777256D01*
X102222743Y-52605739D01*
X102222736Y-52605733D01*
X102030293Y-52458067D01*
X102030292Y-52458066D01*
X102030289Y-52458064D01*
X101820212Y-52336776D01*
X101820205Y-52336773D01*
X101596104Y-52243947D01*
X101361785Y-52181161D01*
X101121289Y-52149500D01*
X101121288Y-52149500D01*
X100878712Y-52149500D01*
X100878711Y-52149500D01*
X100638214Y-52181161D01*
X100403895Y-52243947D01*
X100179794Y-52336773D01*
X100179785Y-52336777D01*
X99969706Y-52458067D01*
X99777263Y-52605733D01*
X99777256Y-52605739D01*
X99605739Y-52777256D01*
X99605733Y-52777263D01*
X99458067Y-52969706D01*
X99336777Y-53179785D01*
X99336773Y-53179794D01*
X99243947Y-53403895D01*
X99181161Y-53638214D01*
X99149500Y-53878711D01*
X96500500Y-53878711D01*
X96500500Y-49624500D01*
X96520185Y-49557461D01*
X96572989Y-49511706D01*
X96624500Y-49500500D01*
X111376000Y-49500500D01*
X111443039Y-49520185D01*
G37*
%TD.AperFunction*%
%TD*%
M02*
