M48
; DRILL file {KiCad 8.0.8} date 2025-04-03T15:38:06+0200
; FORMAT={-:-/ absolute / metric / decimal}
; #@! TF.CreationDate,2025-04-03T15:38:06+02:00
; #@! TF.GenerationSoftware,Kicad,Pcbnew,8.0.8
; #@! TF.FileFunction,Plated,1,4,PTH
FMAT,2
METRIC
; #@! TA.AperFunction,Plated,PTH,ComponentDrill
T1C0.200
; #@! TA.AperFunction,Plated,PTH,ViaDrill
T2C0.300
; #@! TA.AperFunction,Plated,PTH,ComponentDrill
T3C0.600
; #@! TA.AperFunction,Plated,PTH,ViaDrill
T4C0.800
; #@! TA.AperFunction,Plated,PTH,ViaDrill
T5C1.000
; #@! TA.AperFunction,Plated,PTH,ComponentDrill
T6C1.200
%
G90
G05
T1
X132.6Y-78.48
X132.6Y-79.88
X133.3Y-77.78
X133.3Y-79.18
X133.3Y-80.58
X134.0Y-78.48
X134.0Y-79.88
X134.7Y-77.78
X134.7Y-79.18
X134.7Y-80.58
X135.4Y-78.48
X135.4Y-79.88
T2
X105.75Y-83.25
X106.1Y-92.07
X109.122Y-98.992
X110.6Y-68.83
X110.6Y-72.75
X110.662Y-92.382
X110.75Y-84.75
X110.75Y-87.08
X110.75Y-99.5
X111.85Y-71.83
X112.0Y-76.25
X114.25Y-75.5
X115.1Y-71.83
X118.85Y-84.58
X118.85Y-92.57
X120.1Y-74.08
X120.1Y-77.83
X120.412Y-71.017
X120.6Y-89.75
X120.75Y-93.72
X121.35Y-84.25
X122.35Y-83.5
X123.41Y-82.64
X124.4Y-82.25
X125.0Y-74.0
X125.25Y-83.2
X127.0Y-93.25
X128.35Y-85.43
X128.35Y-94.5
X128.6Y-84.16
X133.85Y-95.58
X135.45Y-103.33
X136.7Y-106.33
X137.85Y-108.83
X138.675Y-90.58
X139.85Y-93.08
X145.6Y-86.7
X145.75Y-77.81
X145.75Y-79.08
X145.75Y-80.33
X145.75Y-81.62
X145.975Y-71.455
X151.6Y-100.58
X152.6Y-81.5
X153.5Y-88.5
X154.01Y-81.49
X155.1Y-81.5
X156.35Y-81.5
X158.465Y-78.09
X158.5Y-75.59
X158.75Y-80.5
X159.35Y-85.59
X162.1Y-100.75
X162.1Y-103.33
X163.1Y-100.75
X164.35Y-100.75
T4
X106.0Y-90.75
X107.1Y-74.08
T5
X106.875Y-84.625
X108.5Y-111.102
X109.0Y-64.08
X109.1Y-76.58
T6
X116.85Y-99.33
X116.85Y-107.58
X116.85Y-115.83
X119.35Y-99.33
X119.35Y-107.58
X119.35Y-115.83
X121.85Y-99.33
X121.85Y-107.58
X121.85Y-115.83
X124.35Y-99.33
X124.35Y-107.58
X124.35Y-115.83
X126.85Y-99.33
X126.85Y-107.58
X126.85Y-115.83
X129.35Y-99.33
X129.35Y-107.58
X129.35Y-115.83
X131.85Y-99.33
X131.85Y-107.58
X131.85Y-115.83
X140.1Y-99.58
X140.1Y-102.08
X140.1Y-104.58
X140.1Y-107.08
X140.1Y-109.58
X140.1Y-112.08
X140.1Y-114.58
X140.1Y-117.08
X149.183Y-99.58
X149.183Y-102.08
X149.183Y-104.58
X149.183Y-107.08
X149.183Y-109.58
X149.183Y-112.08
X149.183Y-114.58
X149.183Y-117.08
X158.267Y-99.58
X158.267Y-102.08
X158.267Y-104.58
X158.267Y-107.08
X158.267Y-109.58
X158.267Y-112.08
X158.267Y-114.58
X158.267Y-117.08
X167.35Y-99.58
X167.35Y-102.08
X167.35Y-104.58
X167.35Y-107.08
X167.35Y-109.58
X167.35Y-112.08
X167.35Y-114.58
X167.35Y-117.08
T3
G00X99.675Y-83.26
M15
G01X98.875Y-83.26
M16
G05
G00X99.675Y-91.9
M15
G01X98.875Y-91.9
M16
G05
G00X104.005Y-83.26
M15
G01X102.905Y-83.26
M16
G05
G00X104.005Y-91.9
M15
G01X102.905Y-91.9
M16
G05
M30
