%TF.GenerationSoftware,KiCad,Pcbnew,8.0.8*%
%TF.CreationDate,2025-04-03T15:34:39+02:00*%
%TF.ProjectId,MCU,4d43552e-6b69-4636-9164-5f7063625858,rev?*%
%TF.SameCoordinates,Original*%
%TF.FileFunction,Copper,L4,Bot*%
%TF.FilePolarity,Positive*%
%FSLAX46Y46*%
G04 Gerber Fmt 4.6, Leading zero omitted, Abs format (unit mm)*
G04 Created by KiCad (PCBNEW 8.0.8) date 2025-04-03 15:34:39*
%MOMM*%
%LPD*%
G01*
G04 APERTURE LIST*
%TA.AperFunction,HeatsinkPad*%
%ADD10O,2.100000X1.000000*%
%TD*%
%TA.AperFunction,HeatsinkPad*%
%ADD11O,1.800000X1.000000*%
%TD*%
%TA.AperFunction,ComponentPad*%
%ADD12R,1.650000X1.650000*%
%TD*%
%TA.AperFunction,ComponentPad*%
%ADD13C,1.650000*%
%TD*%
%TA.AperFunction,HeatsinkPad*%
%ADD14C,0.600000*%
%TD*%
%TA.AperFunction,ViaPad*%
%ADD15C,0.600000*%
%TD*%
%TA.AperFunction,ViaPad*%
%ADD16C,0.700000*%
%TD*%
%TA.AperFunction,ViaPad*%
%ADD17C,1.500000*%
%TD*%
%TA.AperFunction,ViaPad*%
%ADD18C,1.300000*%
%TD*%
%TA.AperFunction,ViaPad*%
%ADD19C,1.200000*%
%TD*%
%TA.AperFunction,Conductor*%
%ADD20C,0.500000*%
%TD*%
%TA.AperFunction,Conductor*%
%ADD21C,1.500000*%
%TD*%
%TA.AperFunction,Conductor*%
%ADD22C,0.300000*%
%TD*%
G04 APERTURE END LIST*
D10*
%TO.P,USB-C,S1,SHIELD*%
%TO.N,GND*%
X103455000Y-83260000D03*
D11*
X99275000Y-83260000D03*
D10*
X103455000Y-91900000D03*
D11*
X99275000Y-91900000D03*
%TD*%
D12*
%TO.P,SPI1,1,1*%
%TO.N,GND*%
X116850000Y-107580000D03*
D13*
%TO.P,SPI1,2,2*%
%TO.N,+3.3V*%
X119350000Y-107580000D03*
%TO.P,SPI1,3,3*%
%TO.N,mosi*%
X121850000Y-107580000D03*
%TO.P,SPI1,4,4*%
%TO.N,sck*%
X124350000Y-107580000D03*
%TO.P,SPI1,5,5*%
%TO.N,miso*%
X126850000Y-107580000D03*
%TO.P,SPI1,6,6*%
%TO.N,ss1*%
X129350000Y-107580000D03*
%TO.P,SPI1,7,7*%
%TO.N,+5Vin*%
X131850000Y-107580000D03*
%TD*%
D12*
%TO.P,GPIO0,1,1*%
%TO.N,GND*%
X140100000Y-99580000D03*
D13*
%TO.P,GPIO0,2,2*%
%TO.N,+3.3V*%
X140100000Y-102080000D03*
%TO.P,GPIO0,3,3*%
%TO.N,io46*%
X140100000Y-104580000D03*
%TO.P,GPIO0,4,4*%
%TO.N,io7*%
X140100000Y-107080000D03*
%TO.P,GPIO0,5,5*%
%TO.N,io15*%
X140100000Y-109580000D03*
%TO.P,GPIO0,6,6*%
%TO.N,io16*%
X140100000Y-112080000D03*
%TO.P,GPIO0,7,7*%
%TO.N,io17*%
X140100000Y-114580000D03*
%TO.P,GPIO0,8,8*%
%TO.N,+5Vin*%
X140100000Y-117080000D03*
%TD*%
D12*
%TO.P,SPI2,1,1*%
%TO.N,GND*%
X116850000Y-115830000D03*
D13*
%TO.P,SPI2,2,2*%
%TO.N,+3.3V*%
X119350000Y-115830000D03*
%TO.P,SPI2,3,3*%
%TO.N,mosi*%
X121850000Y-115830000D03*
%TO.P,SPI2,4,4*%
%TO.N,sck*%
X124350000Y-115830000D03*
%TO.P,SPI2,5,5*%
%TO.N,miso*%
X126850000Y-115830000D03*
%TO.P,SPI2,6,6*%
%TO.N,ss2*%
X129350000Y-115830000D03*
%TO.P,SPI2,7,7*%
%TO.N,+5Vin*%
X131850000Y-115830000D03*
%TD*%
D12*
%TO.P,GPIO3,1,1*%
%TO.N,GND*%
X167350000Y-99580000D03*
D13*
%TO.P,GPIO3,2,2*%
%TO.N,+3.3V*%
X167350000Y-102080000D03*
%TO.P,GPIO3,3,3*%
%TO.N,io39*%
X167350000Y-104580000D03*
%TO.P,GPIO3,4,4*%
%TO.N,txd0*%
X167350000Y-107080000D03*
%TO.P,GPIO3,5,5*%
%TO.N,rxd0*%
X167350000Y-109580000D03*
%TO.P,GPIO3,6,6*%
%TO.N,io2*%
X167350000Y-112080000D03*
%TO.P,GPIO3,7,7*%
%TO.N,io1*%
X167350000Y-114580000D03*
%TO.P,GPIO3,8,8*%
%TO.N,+5Vin*%
X167350000Y-117080000D03*
%TD*%
D12*
%TO.P,GPIO2,1,1*%
%TO.N,GND*%
X158266666Y-99580000D03*
D13*
%TO.P,GPIO2,2,2*%
%TO.N,+3.3V*%
X158266666Y-102080000D03*
%TO.P,GPIO2,3,3*%
%TO.N,io45*%
X158266666Y-104580000D03*
%TO.P,GPIO2,4,4*%
%TO.N,io35*%
X158266666Y-107080000D03*
%TO.P,GPIO2,5,5*%
%TO.N,io36*%
X158266666Y-109580000D03*
%TO.P,GPIO2,6,6*%
%TO.N,io37*%
X158266666Y-112080000D03*
%TO.P,GPIO2,7,7*%
%TO.N,io38*%
X158266666Y-114580000D03*
%TO.P,GPIO2,8,8*%
%TO.N,+5Vin*%
X158266666Y-117080000D03*
%TD*%
D14*
%TO.P,U1,41,GND*%
%TO.N,GND*%
X132600000Y-78480000D03*
X132600000Y-79880000D03*
X133300000Y-77780000D03*
X133300000Y-79180000D03*
X133300000Y-80580000D03*
X134000000Y-78480000D03*
X134000000Y-79880000D03*
X134700000Y-77780000D03*
X134700000Y-79180000D03*
X134700000Y-80580000D03*
X135400000Y-78480000D03*
X135400000Y-79880000D03*
%TD*%
D12*
%TO.P,SPI0,1,1*%
%TO.N,GND*%
X116850000Y-99330000D03*
D13*
%TO.P,SPI0,2,2*%
%TO.N,+3.3V*%
X119350000Y-99330000D03*
%TO.P,SPI0,3,3*%
%TO.N,mosi*%
X121850000Y-99330000D03*
%TO.P,SPI0,4,4*%
%TO.N,sck*%
X124350000Y-99330000D03*
%TO.P,SPI0,5,5*%
%TO.N,miso*%
X126850000Y-99330000D03*
%TO.P,SPI0,6,6*%
%TO.N,ss0*%
X129350000Y-99330000D03*
%TO.P,SPI0,7,7*%
%TO.N,+5Vin*%
X131850000Y-99330000D03*
%TD*%
D12*
%TO.P,GPIO1,1,1*%
%TO.N,GND*%
X149183333Y-99580000D03*
D13*
%TO.P,GPIO1,2,2*%
%TO.N,+3.3V*%
X149183333Y-102080000D03*
%TO.P,GPIO1,3,3*%
%TO.N,io18*%
X149183333Y-104580000D03*
%TO.P,GPIO1,4,4*%
%TO.N,io8*%
X149183333Y-107080000D03*
%TO.P,GPIO1,5,5*%
%TO.N,io21*%
X149183333Y-109580000D03*
%TO.P,GPIO1,6,6*%
%TO.N,io47*%
X149183333Y-112080000D03*
%TO.P,GPIO1,7,7*%
%TO.N,io48*%
X149183333Y-114580000D03*
%TO.P,GPIO1,8,8*%
%TO.N,+5Vin*%
X149183333Y-117080000D03*
%TD*%
D15*
%TO.N,GND*%
X159350000Y-85590000D03*
X120412500Y-71017500D03*
D16*
X112000000Y-76250000D03*
D15*
X118850000Y-84580000D03*
X106100000Y-92070000D03*
X109122500Y-98992500D03*
X105750000Y-83250000D03*
X110750000Y-87080000D03*
X110750000Y-84750000D03*
D16*
X153500000Y-88500000D03*
D15*
X110662500Y-92382500D03*
X145975000Y-71455000D03*
D17*
X109000000Y-64080000D03*
D15*
X118850000Y-92570000D03*
%TO.N,+3.3V*%
X110600000Y-68830000D03*
X110750000Y-99500000D03*
X120600000Y-89750000D03*
X120100000Y-74080000D03*
X110600000Y-72750000D03*
D16*
X114250000Y-75500000D03*
D17*
%TO.N,+5Vout*%
X106875000Y-84625000D03*
D18*
X107100000Y-74080000D03*
D19*
X106000000Y-90750000D03*
D15*
%TO.N,i2s sd*%
X158500000Y-75590000D03*
X145750000Y-77810000D03*
%TO.N,i2s sck*%
X145750000Y-80330000D03*
X158750000Y-80500000D03*
%TO.N,i2s ws*%
X145750000Y-79080000D03*
X158465000Y-78090000D03*
%TO.N,io15*%
X137850000Y-108830000D03*
X123410000Y-82640000D03*
D17*
%TO.N,+5Vin*%
X109100000Y-76580000D03*
X108500000Y-111102500D03*
D15*
%TO.N,io1*%
X156350000Y-81500000D03*
%TO.N,io7*%
X122350000Y-83500000D03*
X136700000Y-106330000D03*
%TO.N,io17*%
X125250000Y-83200000D03*
%TO.N,txd0*%
X154010000Y-81490000D03*
X164350000Y-100750000D03*
%TO.N,io16*%
X124400000Y-82250000D03*
%TO.N,rxd0*%
X163100000Y-100750000D03*
X152600000Y-81500000D03*
%TO.N,io18*%
X128600000Y-84160000D03*
%TO.N,io35*%
X145600000Y-86700000D03*
X151600000Y-100580000D03*
%TO.N,io21*%
X138675000Y-90580000D03*
%TO.N,ss0*%
X128350000Y-94500000D03*
%TO.N,io39*%
X162100000Y-100750000D03*
X162100000Y-103330000D03*
X145750000Y-81620000D03*
%TO.N,io47*%
X139850000Y-93080000D03*
%TO.N,scl1*%
X115100000Y-71830000D03*
X111850000Y-71830000D03*
%TO.N,scl0*%
X121350000Y-84250000D03*
D16*
X120750000Y-93720000D03*
D15*
%TO.N,ss2*%
X133850000Y-95580000D03*
%TO.N,reset*%
X125000000Y-74000000D03*
X120100000Y-77830000D03*
%TO.N,io2*%
X155100000Y-81500000D03*
%TO.N,io8*%
X128350000Y-85430000D03*
%TO.N,io46*%
X135450000Y-103330000D03*
D16*
X127000000Y-93250000D03*
%TD*%
D20*
%TO.N,+3.3V*%
X112500000Y-101250000D02*
X110750000Y-99500000D01*
X120020000Y-74000000D02*
X120100000Y-74080000D01*
X120600000Y-89750000D02*
X120600000Y-92230000D01*
X119350000Y-93480000D02*
X119350000Y-99330000D01*
X110600000Y-68830000D02*
X110600000Y-72750000D01*
X111250000Y-73400000D02*
X114250000Y-73400000D01*
X120600000Y-92230000D02*
X119350000Y-93480000D01*
X119350000Y-107580000D02*
X119350000Y-115830000D01*
X114250000Y-73400000D02*
X117800000Y-73400000D01*
X117800000Y-73400000D02*
X118400000Y-74000000D01*
X114250000Y-73400000D02*
X114250000Y-75500000D01*
X118000000Y-74400000D02*
X118400000Y-74000000D01*
X118000000Y-77000000D02*
X118000000Y-74400000D01*
X119350000Y-101250000D02*
X112500000Y-101250000D01*
X120600000Y-79600000D02*
X118000000Y-77000000D01*
X119350000Y-99330000D02*
X119350000Y-107580000D01*
X118400000Y-74000000D02*
X120020000Y-74000000D01*
X120600000Y-89750000D02*
X120600000Y-79600000D01*
X119350000Y-99330000D02*
X119350000Y-101250000D01*
X110600000Y-72750000D02*
X111250000Y-73400000D01*
X149183333Y-102080000D02*
X167350000Y-102080000D01*
D21*
%TO.N,+5Vout*%
X106875000Y-84625000D02*
X107100000Y-84400000D01*
X106000000Y-85500000D02*
X106000000Y-90750000D01*
X106875000Y-84625000D02*
X106000000Y-85500000D01*
X107100000Y-84400000D02*
X107100000Y-74080000D01*
D22*
%TO.N,i2s sd*%
X155620000Y-77810000D02*
X145750000Y-77810000D01*
X157840000Y-75590000D02*
X155620000Y-77810000D01*
X158500000Y-75590000D02*
X157840000Y-75590000D01*
%TO.N,i2s sck*%
X158750000Y-80500000D02*
X158580000Y-80330000D01*
X158580000Y-80330000D02*
X145750000Y-80330000D01*
%TO.N,i2s ws*%
X157475000Y-79080000D02*
X145750000Y-79080000D01*
X158465000Y-78090000D02*
X157475000Y-79080000D01*
%TO.N,io15*%
X124600000Y-91830000D02*
X134850000Y-91830000D01*
X123400000Y-90630000D02*
X124600000Y-91830000D01*
X123400000Y-82650000D02*
X123400000Y-90630000D01*
X123410000Y-82640000D02*
X123400000Y-82650000D01*
X137350000Y-94330000D02*
X137350000Y-108330000D01*
X134850000Y-91830000D02*
X137350000Y-94330000D01*
X137350000Y-108330000D02*
X137850000Y-108830000D01*
%TO.N,io1*%
X156350000Y-83830000D02*
X169850000Y-97330000D01*
X169850000Y-113830000D02*
X169100000Y-114580000D01*
X156350000Y-81500000D02*
X156350000Y-83830000D01*
X169850000Y-97330000D02*
X169850000Y-113830000D01*
X169100000Y-114580000D02*
X167350000Y-114580000D01*
%TO.N,io7*%
X124135000Y-92500000D02*
X134020000Y-92500000D01*
X136100000Y-94580000D02*
X136100000Y-105730000D01*
X136100000Y-105730000D02*
X136700000Y-106330000D01*
X122350000Y-83500000D02*
X122350000Y-90715000D01*
X134020000Y-92500000D02*
X136100000Y-94580000D01*
X122350000Y-90715000D02*
X124135000Y-92500000D01*
%TO.N,io17*%
X142750000Y-113930000D02*
X142100000Y-114580000D01*
X136100000Y-90580000D02*
X142750000Y-97230000D01*
X125250000Y-83200000D02*
X125250000Y-90250000D01*
X125580000Y-90580000D02*
X136100000Y-90580000D01*
X142100000Y-114580000D02*
X140100000Y-114580000D01*
X142750000Y-97230000D02*
X142750000Y-113930000D01*
X125250000Y-90250000D02*
X125580000Y-90580000D01*
%TO.N,txd0*%
X164350000Y-100750000D02*
X164350000Y-93950000D01*
X154010000Y-83610000D02*
X154010000Y-81490000D01*
X164350000Y-93950000D02*
X154010000Y-83610000D01*
%TO.N,io16*%
X141600000Y-112080000D02*
X140100000Y-112080000D01*
X125020000Y-91250000D02*
X135520000Y-91250000D01*
X142000000Y-97730000D02*
X142000000Y-111680000D01*
X124400000Y-82250000D02*
X124400000Y-90630000D01*
X142000000Y-111680000D02*
X141600000Y-112080000D01*
X135520000Y-91250000D02*
X142000000Y-97730000D01*
X124400000Y-90630000D02*
X125020000Y-91250000D01*
%TO.N,rxd0*%
X163350000Y-94150000D02*
X152600000Y-83400000D01*
X163350000Y-100500000D02*
X163350000Y-94150000D01*
X163100000Y-100750000D02*
X163350000Y-100500000D01*
X152600000Y-83400000D02*
X152600000Y-81500000D01*
%TO.N,io18*%
X128600000Y-84160000D02*
X136637106Y-84160000D01*
X145850000Y-101246667D02*
X149183333Y-104580000D01*
X136637106Y-84160000D02*
X145850000Y-93372894D01*
X145850000Y-93372894D02*
X145850000Y-101246667D01*
%TO.N,io35*%
X151600000Y-97580000D02*
X151600000Y-100580000D01*
X145600000Y-91580000D02*
X151600000Y-97580000D01*
X145600000Y-86700000D02*
X145600000Y-91580000D01*
%TO.N,io21*%
X144250000Y-106230000D02*
X147600000Y-109580000D01*
X144250000Y-96155000D02*
X144250000Y-106230000D01*
X147600000Y-109580000D02*
X149183333Y-109580000D01*
X138675000Y-90580000D02*
X144250000Y-96155000D01*
%TO.N,miso*%
X126850000Y-99330000D02*
X126850000Y-107580000D01*
X126850000Y-107580000D02*
X126850000Y-115830000D01*
%TO.N,sck*%
X124350000Y-99330000D02*
X124350000Y-107580000D01*
X124350000Y-107580000D02*
X124350000Y-115830000D01*
%TO.N,mosi*%
X121850000Y-107580000D02*
X121850000Y-115830000D01*
X121850000Y-99330000D02*
X121850000Y-107580000D01*
%TO.N,ss0*%
X128350000Y-98330000D02*
X129350000Y-99330000D01*
X128350000Y-94500000D02*
X128350000Y-98330000D01*
%TO.N,io39*%
X162100000Y-103330000D02*
X163350000Y-104580000D01*
X162100000Y-95580000D02*
X148140000Y-81620000D01*
X163350000Y-104580000D02*
X167350000Y-104580000D01*
X148140000Y-81620000D02*
X145750000Y-81620000D01*
X162100000Y-100750000D02*
X162100000Y-95580000D01*
%TO.N,io47*%
X143500000Y-96730000D02*
X143500000Y-107980000D01*
X147600000Y-112080000D02*
X149183333Y-112080000D01*
X143500000Y-107980000D02*
X147600000Y-112080000D01*
X139850000Y-93080000D02*
X143500000Y-96730000D01*
%TO.N,scl1*%
X111850000Y-71830000D02*
X115100000Y-71830000D01*
%TO.N,scl0*%
X120750000Y-93720000D02*
X121350000Y-93120000D01*
X121350000Y-93120000D02*
X121350000Y-84250000D01*
%TO.N,ss2*%
X133850000Y-95580000D02*
X133850000Y-109900000D01*
X133850000Y-109900000D02*
X129350000Y-114400000D01*
X129350000Y-114400000D02*
X129350000Y-115830000D01*
D20*
%TO.N,reset*%
X124680000Y-77250000D02*
X124100000Y-77830000D01*
X124100000Y-77830000D02*
X120100000Y-77830000D01*
X125000000Y-74000000D02*
X124680000Y-74320000D01*
X124680000Y-74320000D02*
X124680000Y-77250000D01*
D22*
%TO.N,io2*%
X155100000Y-83700000D02*
X169350000Y-97950000D01*
X169350000Y-111830000D02*
X169100000Y-112080000D01*
X155100000Y-81500000D02*
X155100000Y-83700000D01*
X169350000Y-97950000D02*
X169350000Y-111830000D01*
X169100000Y-112080000D02*
X167350000Y-112080000D01*
%TO.N,io8*%
X136430000Y-85430000D02*
X140100000Y-89100000D01*
X140100000Y-89100000D02*
X140100000Y-90600000D01*
X145100000Y-104350000D02*
X147830000Y-107080000D01*
X147830000Y-107080000D02*
X149183333Y-107080000D01*
X128350000Y-85430000D02*
X136430000Y-85430000D01*
X140100000Y-90600000D02*
X145100000Y-95600000D01*
X145100000Y-95600000D02*
X145100000Y-104350000D01*
%TO.N,io46*%
X135450000Y-103330000D02*
X134850000Y-102730000D01*
X134850000Y-94830000D02*
X133100000Y-93080000D01*
X133100000Y-93080000D02*
X127170000Y-93080000D01*
X127170000Y-93080000D02*
X127000000Y-93250000D01*
X134850000Y-102730000D02*
X134850000Y-94830000D01*
%TD*%
M02*
