%TF.GenerationSoftware,KiCad,Pcbnew,8.0.8*%
%TF.CreationDate,2025-04-03T15:38:05+02:00*%
%TF.ProjectId,MCU,4d43552e-6b69-4636-9164-5f7063625858,rev?*%
%TF.SameCoordinates,Original*%
%TF.FileFunction,Drillmap*%
%TF.FilePolarity,Positive*%
%FSLAX45Y45*%
G04 Gerber Fmt 4.5, Leading zero omitted, Abs format (unit mm)*
G04 Created by KiCad (PCBNEW 8.0.8) date 2025-04-03 15:38:05*
%MOMM*%
%LPD*%
G01*
G04 APERTURE LIST*
%ADD10C,0.050000*%
%ADD11C,0.200000*%
%ADD12C,0.100000*%
%ADD13C,0.320000*%
G04 APERTURE END LIST*
D10*
X9600000Y-4900000D02*
X17100000Y-4900000D01*
X17100000Y-12900000D01*
X9600000Y-12900000D01*
X9600000Y-4900000D01*
D11*
D12*
X10263000Y-8436500D02*
X10328000Y-8501500D01*
X10328000Y-8436500D02*
X10263000Y-8501500D01*
X10263000Y-9014500D02*
X10328000Y-9079500D01*
X10328000Y-9014500D02*
X10263000Y-9079500D01*
D13*
X10260000Y-5400000D02*
G75*
G02*
X9940000Y-5400000I-160000J0D01*
G01*
X9940000Y-5400000D02*
G75*
G02*
X10260000Y-5400000I160000J0D01*
G01*
X10260000Y-12400000D02*
G75*
G02*
X9940000Y-12400000I-160000J0D01*
G01*
X9940000Y-12400000D02*
G75*
G02*
X10260000Y-12400000I160000J0D01*
G01*
X16760000Y-5400000D02*
G75*
G02*
X16440000Y-5400000I-160000J0D01*
G01*
X16440000Y-5400000D02*
G75*
G02*
X16760000Y-5400000I160000J0D01*
G01*
X16760000Y-12400000D02*
G75*
G02*
X16440000Y-12400000I-160000J0D01*
G01*
X16440000Y-12400000D02*
G75*
G02*
X16760000Y-12400000I160000J0D01*
G01*
D11*
X9858277Y-13213984D02*
X9858277Y-13013984D01*
X9858277Y-13013984D02*
X9905896Y-13013984D01*
X9905896Y-13013984D02*
X9934467Y-13023508D01*
X9934467Y-13023508D02*
X9953515Y-13042555D01*
X9953515Y-13042555D02*
X9963039Y-13061603D01*
X9963039Y-13061603D02*
X9972563Y-13099698D01*
X9972563Y-13099698D02*
X9972563Y-13128269D01*
X9972563Y-13128269D02*
X9963039Y-13166365D01*
X9963039Y-13166365D02*
X9953515Y-13185412D01*
X9953515Y-13185412D02*
X9934467Y-13204460D01*
X9934467Y-13204460D02*
X9905896Y-13213984D01*
X9905896Y-13213984D02*
X9858277Y-13213984D01*
X10058277Y-13213984D02*
X10058277Y-13080650D01*
X10058277Y-13118746D02*
X10067801Y-13099698D01*
X10067801Y-13099698D02*
X10077324Y-13090174D01*
X10077324Y-13090174D02*
X10096372Y-13080650D01*
X10096372Y-13080650D02*
X10115420Y-13080650D01*
X10182086Y-13213984D02*
X10182086Y-13080650D01*
X10182086Y-13013984D02*
X10172563Y-13023508D01*
X10172563Y-13023508D02*
X10182086Y-13033031D01*
X10182086Y-13033031D02*
X10191610Y-13023508D01*
X10191610Y-13023508D02*
X10182086Y-13013984D01*
X10182086Y-13013984D02*
X10182086Y-13033031D01*
X10305896Y-13213984D02*
X10286848Y-13204460D01*
X10286848Y-13204460D02*
X10277324Y-13185412D01*
X10277324Y-13185412D02*
X10277324Y-13013984D01*
X10410658Y-13213984D02*
X10391610Y-13204460D01*
X10391610Y-13204460D02*
X10382086Y-13185412D01*
X10382086Y-13185412D02*
X10382086Y-13013984D01*
X10639229Y-13213984D02*
X10639229Y-13013984D01*
X10639229Y-13013984D02*
X10705896Y-13156841D01*
X10705896Y-13156841D02*
X10772563Y-13013984D01*
X10772563Y-13013984D02*
X10772563Y-13213984D01*
X10953515Y-13213984D02*
X10953515Y-13109222D01*
X10953515Y-13109222D02*
X10943991Y-13090174D01*
X10943991Y-13090174D02*
X10924944Y-13080650D01*
X10924944Y-13080650D02*
X10886848Y-13080650D01*
X10886848Y-13080650D02*
X10867801Y-13090174D01*
X10953515Y-13204460D02*
X10934467Y-13213984D01*
X10934467Y-13213984D02*
X10886848Y-13213984D01*
X10886848Y-13213984D02*
X10867801Y-13204460D01*
X10867801Y-13204460D02*
X10858277Y-13185412D01*
X10858277Y-13185412D02*
X10858277Y-13166365D01*
X10858277Y-13166365D02*
X10867801Y-13147317D01*
X10867801Y-13147317D02*
X10886848Y-13137793D01*
X10886848Y-13137793D02*
X10934467Y-13137793D01*
X10934467Y-13137793D02*
X10953515Y-13128269D01*
X11048753Y-13080650D02*
X11048753Y-13280650D01*
X11048753Y-13090174D02*
X11067801Y-13080650D01*
X11067801Y-13080650D02*
X11105896Y-13080650D01*
X11105896Y-13080650D02*
X11124944Y-13090174D01*
X11124944Y-13090174D02*
X11134467Y-13099698D01*
X11134467Y-13099698D02*
X11143991Y-13118746D01*
X11143991Y-13118746D02*
X11143991Y-13175888D01*
X11143991Y-13175888D02*
X11134467Y-13194936D01*
X11134467Y-13194936D02*
X11124944Y-13204460D01*
X11124944Y-13204460D02*
X11105896Y-13213984D01*
X11105896Y-13213984D02*
X11067801Y-13213984D01*
X11067801Y-13213984D02*
X11048753Y-13204460D01*
X11229705Y-13194936D02*
X11239229Y-13204460D01*
X11239229Y-13204460D02*
X11229705Y-13213984D01*
X11229705Y-13213984D02*
X11220182Y-13204460D01*
X11220182Y-13204460D02*
X11229705Y-13194936D01*
X11229705Y-13194936D02*
X11229705Y-13213984D01*
X11229705Y-13090174D02*
X11239229Y-13099698D01*
X11239229Y-13099698D02*
X11229705Y-13109222D01*
X11229705Y-13109222D02*
X11220182Y-13099698D01*
X11220182Y-13099698D02*
X11229705Y-13090174D01*
X11229705Y-13090174D02*
X11229705Y-13109222D01*
D12*
X9532500Y-13510000D02*
X9597500Y-13575000D01*
X9597500Y-13510000D02*
X9532500Y-13575000D01*
D11*
X9896372Y-13433984D02*
X9915420Y-13433984D01*
X9915420Y-13433984D02*
X9934467Y-13443508D01*
X9934467Y-13443508D02*
X9943991Y-13453031D01*
X9943991Y-13453031D02*
X9953515Y-13472079D01*
X9953515Y-13472079D02*
X9963039Y-13510174D01*
X9963039Y-13510174D02*
X9963039Y-13557793D01*
X9963039Y-13557793D02*
X9953515Y-13595888D01*
X9953515Y-13595888D02*
X9943991Y-13614936D01*
X9943991Y-13614936D02*
X9934467Y-13624460D01*
X9934467Y-13624460D02*
X9915420Y-13633984D01*
X9915420Y-13633984D02*
X9896372Y-13633984D01*
X9896372Y-13633984D02*
X9877324Y-13624460D01*
X9877324Y-13624460D02*
X9867801Y-13614936D01*
X9867801Y-13614936D02*
X9858277Y-13595888D01*
X9858277Y-13595888D02*
X9848753Y-13557793D01*
X9848753Y-13557793D02*
X9848753Y-13510174D01*
X9848753Y-13510174D02*
X9858277Y-13472079D01*
X9858277Y-13472079D02*
X9867801Y-13453031D01*
X9867801Y-13453031D02*
X9877324Y-13443508D01*
X9877324Y-13443508D02*
X9896372Y-13433984D01*
X10048753Y-13614936D02*
X10058277Y-13624460D01*
X10058277Y-13624460D02*
X10048753Y-13633984D01*
X10048753Y-13633984D02*
X10039229Y-13624460D01*
X10039229Y-13624460D02*
X10048753Y-13614936D01*
X10048753Y-13614936D02*
X10048753Y-13633984D01*
X10229705Y-13433984D02*
X10191610Y-13433984D01*
X10191610Y-13433984D02*
X10172563Y-13443508D01*
X10172563Y-13443508D02*
X10163039Y-13453031D01*
X10163039Y-13453031D02*
X10143991Y-13481603D01*
X10143991Y-13481603D02*
X10134467Y-13519698D01*
X10134467Y-13519698D02*
X10134467Y-13595888D01*
X10134467Y-13595888D02*
X10143991Y-13614936D01*
X10143991Y-13614936D02*
X10153515Y-13624460D01*
X10153515Y-13624460D02*
X10172563Y-13633984D01*
X10172563Y-13633984D02*
X10210658Y-13633984D01*
X10210658Y-13633984D02*
X10229705Y-13624460D01*
X10229705Y-13624460D02*
X10239229Y-13614936D01*
X10239229Y-13614936D02*
X10248753Y-13595888D01*
X10248753Y-13595888D02*
X10248753Y-13548269D01*
X10248753Y-13548269D02*
X10239229Y-13529222D01*
X10239229Y-13529222D02*
X10229705Y-13519698D01*
X10229705Y-13519698D02*
X10210658Y-13510174D01*
X10210658Y-13510174D02*
X10172563Y-13510174D01*
X10172563Y-13510174D02*
X10153515Y-13519698D01*
X10153515Y-13519698D02*
X10143991Y-13529222D01*
X10143991Y-13529222D02*
X10134467Y-13548269D01*
X10429705Y-13433984D02*
X10334467Y-13433984D01*
X10334467Y-13433984D02*
X10324944Y-13529222D01*
X10324944Y-13529222D02*
X10334467Y-13519698D01*
X10334467Y-13519698D02*
X10353515Y-13510174D01*
X10353515Y-13510174D02*
X10401134Y-13510174D01*
X10401134Y-13510174D02*
X10420182Y-13519698D01*
X10420182Y-13519698D02*
X10429705Y-13529222D01*
X10429705Y-13529222D02*
X10439229Y-13548269D01*
X10439229Y-13548269D02*
X10439229Y-13595888D01*
X10439229Y-13595888D02*
X10429705Y-13614936D01*
X10429705Y-13614936D02*
X10420182Y-13624460D01*
X10420182Y-13624460D02*
X10401134Y-13633984D01*
X10401134Y-13633984D02*
X10353515Y-13633984D01*
X10353515Y-13633984D02*
X10334467Y-13624460D01*
X10334467Y-13624460D02*
X10324944Y-13614936D01*
X10563039Y-13433984D02*
X10582086Y-13433984D01*
X10582086Y-13433984D02*
X10601134Y-13443508D01*
X10601134Y-13443508D02*
X10610658Y-13453031D01*
X10610658Y-13453031D02*
X10620182Y-13472079D01*
X10620182Y-13472079D02*
X10629705Y-13510174D01*
X10629705Y-13510174D02*
X10629705Y-13557793D01*
X10629705Y-13557793D02*
X10620182Y-13595888D01*
X10620182Y-13595888D02*
X10610658Y-13614936D01*
X10610658Y-13614936D02*
X10601134Y-13624460D01*
X10601134Y-13624460D02*
X10582086Y-13633984D01*
X10582086Y-13633984D02*
X10563039Y-13633984D01*
X10563039Y-13633984D02*
X10543991Y-13624460D01*
X10543991Y-13624460D02*
X10534467Y-13614936D01*
X10534467Y-13614936D02*
X10524944Y-13595888D01*
X10524944Y-13595888D02*
X10515420Y-13557793D01*
X10515420Y-13557793D02*
X10515420Y-13510174D01*
X10515420Y-13510174D02*
X10524944Y-13472079D01*
X10524944Y-13472079D02*
X10534467Y-13453031D01*
X10534467Y-13453031D02*
X10543991Y-13443508D01*
X10543991Y-13443508D02*
X10563039Y-13433984D01*
X10715420Y-13633984D02*
X10715420Y-13500650D01*
X10715420Y-13519698D02*
X10724944Y-13510174D01*
X10724944Y-13510174D02*
X10743991Y-13500650D01*
X10743991Y-13500650D02*
X10772563Y-13500650D01*
X10772563Y-13500650D02*
X10791610Y-13510174D01*
X10791610Y-13510174D02*
X10801134Y-13529222D01*
X10801134Y-13529222D02*
X10801134Y-13633984D01*
X10801134Y-13529222D02*
X10810658Y-13510174D01*
X10810658Y-13510174D02*
X10829705Y-13500650D01*
X10829705Y-13500650D02*
X10858277Y-13500650D01*
X10858277Y-13500650D02*
X10877325Y-13510174D01*
X10877325Y-13510174D02*
X10886848Y-13529222D01*
X10886848Y-13529222D02*
X10886848Y-13633984D01*
X10982086Y-13633984D02*
X10982086Y-13500650D01*
X10982086Y-13519698D02*
X10991610Y-13510174D01*
X10991610Y-13510174D02*
X11010658Y-13500650D01*
X11010658Y-13500650D02*
X11039229Y-13500650D01*
X11039229Y-13500650D02*
X11058277Y-13510174D01*
X11058277Y-13510174D02*
X11067801Y-13529222D01*
X11067801Y-13529222D02*
X11067801Y-13633984D01*
X11067801Y-13529222D02*
X11077325Y-13510174D01*
X11077325Y-13510174D02*
X11096372Y-13500650D01*
X11096372Y-13500650D02*
X11124944Y-13500650D01*
X11124944Y-13500650D02*
X11143991Y-13510174D01*
X11143991Y-13510174D02*
X11153515Y-13529222D01*
X11153515Y-13529222D02*
X11153515Y-13633984D01*
X11543991Y-13424460D02*
X11372563Y-13681603D01*
X11801134Y-13433984D02*
X11820182Y-13433984D01*
X11820182Y-13433984D02*
X11839229Y-13443508D01*
X11839229Y-13443508D02*
X11848753Y-13453031D01*
X11848753Y-13453031D02*
X11858277Y-13472079D01*
X11858277Y-13472079D02*
X11867801Y-13510174D01*
X11867801Y-13510174D02*
X11867801Y-13557793D01*
X11867801Y-13557793D02*
X11858277Y-13595888D01*
X11858277Y-13595888D02*
X11848753Y-13614936D01*
X11848753Y-13614936D02*
X11839229Y-13624460D01*
X11839229Y-13624460D02*
X11820182Y-13633984D01*
X11820182Y-13633984D02*
X11801134Y-13633984D01*
X11801134Y-13633984D02*
X11782086Y-13624460D01*
X11782086Y-13624460D02*
X11772563Y-13614936D01*
X11772563Y-13614936D02*
X11763039Y-13595888D01*
X11763039Y-13595888D02*
X11753515Y-13557793D01*
X11753515Y-13557793D02*
X11753515Y-13510174D01*
X11753515Y-13510174D02*
X11763039Y-13472079D01*
X11763039Y-13472079D02*
X11772563Y-13453031D01*
X11772563Y-13453031D02*
X11782086Y-13443508D01*
X11782086Y-13443508D02*
X11801134Y-13433984D01*
X11953515Y-13614936D02*
X11963039Y-13624460D01*
X11963039Y-13624460D02*
X11953515Y-13633984D01*
X11953515Y-13633984D02*
X11943991Y-13624460D01*
X11943991Y-13624460D02*
X11953515Y-13614936D01*
X11953515Y-13614936D02*
X11953515Y-13633984D01*
X12086848Y-13433984D02*
X12105896Y-13433984D01*
X12105896Y-13433984D02*
X12124944Y-13443508D01*
X12124944Y-13443508D02*
X12134467Y-13453031D01*
X12134467Y-13453031D02*
X12143991Y-13472079D01*
X12143991Y-13472079D02*
X12153515Y-13510174D01*
X12153515Y-13510174D02*
X12153515Y-13557793D01*
X12153515Y-13557793D02*
X12143991Y-13595888D01*
X12143991Y-13595888D02*
X12134467Y-13614936D01*
X12134467Y-13614936D02*
X12124944Y-13624460D01*
X12124944Y-13624460D02*
X12105896Y-13633984D01*
X12105896Y-13633984D02*
X12086848Y-13633984D01*
X12086848Y-13633984D02*
X12067801Y-13624460D01*
X12067801Y-13624460D02*
X12058277Y-13614936D01*
X12058277Y-13614936D02*
X12048753Y-13595888D01*
X12048753Y-13595888D02*
X12039229Y-13557793D01*
X12039229Y-13557793D02*
X12039229Y-13510174D01*
X12039229Y-13510174D02*
X12048753Y-13472079D01*
X12048753Y-13472079D02*
X12058277Y-13453031D01*
X12058277Y-13453031D02*
X12067801Y-13443508D01*
X12067801Y-13443508D02*
X12086848Y-13433984D01*
X12229706Y-13453031D02*
X12239229Y-13443508D01*
X12239229Y-13443508D02*
X12258277Y-13433984D01*
X12258277Y-13433984D02*
X12305896Y-13433984D01*
X12305896Y-13433984D02*
X12324944Y-13443508D01*
X12324944Y-13443508D02*
X12334467Y-13453031D01*
X12334467Y-13453031D02*
X12343991Y-13472079D01*
X12343991Y-13472079D02*
X12343991Y-13491127D01*
X12343991Y-13491127D02*
X12334467Y-13519698D01*
X12334467Y-13519698D02*
X12220182Y-13633984D01*
X12220182Y-13633984D02*
X12343991Y-13633984D01*
X12524944Y-13433984D02*
X12429706Y-13433984D01*
X12429706Y-13433984D02*
X12420182Y-13529222D01*
X12420182Y-13529222D02*
X12429706Y-13519698D01*
X12429706Y-13519698D02*
X12448753Y-13510174D01*
X12448753Y-13510174D02*
X12496372Y-13510174D01*
X12496372Y-13510174D02*
X12515420Y-13519698D01*
X12515420Y-13519698D02*
X12524944Y-13529222D01*
X12524944Y-13529222D02*
X12534467Y-13548269D01*
X12534467Y-13548269D02*
X12534467Y-13595888D01*
X12534467Y-13595888D02*
X12524944Y-13614936D01*
X12524944Y-13614936D02*
X12515420Y-13624460D01*
X12515420Y-13624460D02*
X12496372Y-13633984D01*
X12496372Y-13633984D02*
X12448753Y-13633984D01*
X12448753Y-13633984D02*
X12429706Y-13624460D01*
X12429706Y-13624460D02*
X12420182Y-13614936D01*
X12705896Y-13433984D02*
X12667801Y-13433984D01*
X12667801Y-13433984D02*
X12648753Y-13443508D01*
X12648753Y-13443508D02*
X12639229Y-13453031D01*
X12639229Y-13453031D02*
X12620182Y-13481603D01*
X12620182Y-13481603D02*
X12610658Y-13519698D01*
X12610658Y-13519698D02*
X12610658Y-13595888D01*
X12610658Y-13595888D02*
X12620182Y-13614936D01*
X12620182Y-13614936D02*
X12629706Y-13624460D01*
X12629706Y-13624460D02*
X12648753Y-13633984D01*
X12648753Y-13633984D02*
X12686848Y-13633984D01*
X12686848Y-13633984D02*
X12705896Y-13624460D01*
X12705896Y-13624460D02*
X12715420Y-13614936D01*
X12715420Y-13614936D02*
X12724944Y-13595888D01*
X12724944Y-13595888D02*
X12724944Y-13548269D01*
X12724944Y-13548269D02*
X12715420Y-13529222D01*
X12715420Y-13529222D02*
X12705896Y-13519698D01*
X12705896Y-13519698D02*
X12686848Y-13510174D01*
X12686848Y-13510174D02*
X12648753Y-13510174D01*
X12648753Y-13510174D02*
X12629706Y-13519698D01*
X12629706Y-13519698D02*
X12620182Y-13529222D01*
X12620182Y-13529222D02*
X12610658Y-13548269D01*
X12801134Y-13433984D02*
X12801134Y-13472079D01*
X12877325Y-13433984D02*
X12877325Y-13472079D01*
X13172563Y-13710174D02*
X13163039Y-13700650D01*
X13163039Y-13700650D02*
X13143991Y-13672079D01*
X13143991Y-13672079D02*
X13134468Y-13653031D01*
X13134468Y-13653031D02*
X13124944Y-13624460D01*
X13124944Y-13624460D02*
X13115420Y-13576841D01*
X13115420Y-13576841D02*
X13115420Y-13538746D01*
X13115420Y-13538746D02*
X13124944Y-13491127D01*
X13124944Y-13491127D02*
X13134468Y-13462555D01*
X13134468Y-13462555D02*
X13143991Y-13443508D01*
X13143991Y-13443508D02*
X13163039Y-13414936D01*
X13163039Y-13414936D02*
X13172563Y-13405412D01*
X13239229Y-13453031D02*
X13248753Y-13443508D01*
X13248753Y-13443508D02*
X13267801Y-13433984D01*
X13267801Y-13433984D02*
X13315420Y-13433984D01*
X13315420Y-13433984D02*
X13334468Y-13443508D01*
X13334468Y-13443508D02*
X13343991Y-13453031D01*
X13343991Y-13453031D02*
X13353515Y-13472079D01*
X13353515Y-13472079D02*
X13353515Y-13491127D01*
X13353515Y-13491127D02*
X13343991Y-13519698D01*
X13343991Y-13519698D02*
X13229706Y-13633984D01*
X13229706Y-13633984D02*
X13353515Y-13633984D01*
X13591610Y-13633984D02*
X13591610Y-13433984D01*
X13677325Y-13633984D02*
X13677325Y-13529222D01*
X13677325Y-13529222D02*
X13667801Y-13510174D01*
X13667801Y-13510174D02*
X13648753Y-13500650D01*
X13648753Y-13500650D02*
X13620182Y-13500650D01*
X13620182Y-13500650D02*
X13601134Y-13510174D01*
X13601134Y-13510174D02*
X13591610Y-13519698D01*
X13801134Y-13633984D02*
X13782087Y-13624460D01*
X13782087Y-13624460D02*
X13772563Y-13614936D01*
X13772563Y-13614936D02*
X13763039Y-13595888D01*
X13763039Y-13595888D02*
X13763039Y-13538746D01*
X13763039Y-13538746D02*
X13772563Y-13519698D01*
X13772563Y-13519698D02*
X13782087Y-13510174D01*
X13782087Y-13510174D02*
X13801134Y-13500650D01*
X13801134Y-13500650D02*
X13829706Y-13500650D01*
X13829706Y-13500650D02*
X13848753Y-13510174D01*
X13848753Y-13510174D02*
X13858277Y-13519698D01*
X13858277Y-13519698D02*
X13867801Y-13538746D01*
X13867801Y-13538746D02*
X13867801Y-13595888D01*
X13867801Y-13595888D02*
X13858277Y-13614936D01*
X13858277Y-13614936D02*
X13848753Y-13624460D01*
X13848753Y-13624460D02*
X13829706Y-13633984D01*
X13829706Y-13633984D02*
X13801134Y-13633984D01*
X13982087Y-13633984D02*
X13963039Y-13624460D01*
X13963039Y-13624460D02*
X13953515Y-13605412D01*
X13953515Y-13605412D02*
X13953515Y-13433984D01*
X14134468Y-13624460D02*
X14115420Y-13633984D01*
X14115420Y-13633984D02*
X14077325Y-13633984D01*
X14077325Y-13633984D02*
X14058277Y-13624460D01*
X14058277Y-13624460D02*
X14048753Y-13605412D01*
X14048753Y-13605412D02*
X14048753Y-13529222D01*
X14048753Y-13529222D02*
X14058277Y-13510174D01*
X14058277Y-13510174D02*
X14077325Y-13500650D01*
X14077325Y-13500650D02*
X14115420Y-13500650D01*
X14115420Y-13500650D02*
X14134468Y-13510174D01*
X14134468Y-13510174D02*
X14143991Y-13529222D01*
X14143991Y-13529222D02*
X14143991Y-13548269D01*
X14143991Y-13548269D02*
X14048753Y-13567317D01*
X14220182Y-13624460D02*
X14239230Y-13633984D01*
X14239230Y-13633984D02*
X14277325Y-13633984D01*
X14277325Y-13633984D02*
X14296372Y-13624460D01*
X14296372Y-13624460D02*
X14305896Y-13605412D01*
X14305896Y-13605412D02*
X14305896Y-13595888D01*
X14305896Y-13595888D02*
X14296372Y-13576841D01*
X14296372Y-13576841D02*
X14277325Y-13567317D01*
X14277325Y-13567317D02*
X14248753Y-13567317D01*
X14248753Y-13567317D02*
X14229706Y-13557793D01*
X14229706Y-13557793D02*
X14220182Y-13538746D01*
X14220182Y-13538746D02*
X14220182Y-13529222D01*
X14220182Y-13529222D02*
X14229706Y-13510174D01*
X14229706Y-13510174D02*
X14248753Y-13500650D01*
X14248753Y-13500650D02*
X14277325Y-13500650D01*
X14277325Y-13500650D02*
X14296372Y-13510174D01*
X14372563Y-13710174D02*
X14382087Y-13700650D01*
X14382087Y-13700650D02*
X14401134Y-13672079D01*
X14401134Y-13672079D02*
X14410658Y-13653031D01*
X14410658Y-13653031D02*
X14420182Y-13624460D01*
X14420182Y-13624460D02*
X14429706Y-13576841D01*
X14429706Y-13576841D02*
X14429706Y-13538746D01*
X14429706Y-13538746D02*
X14420182Y-13491127D01*
X14420182Y-13491127D02*
X14410658Y-13462555D01*
X14410658Y-13462555D02*
X14401134Y-13443508D01*
X14401134Y-13443508D02*
X14382087Y-13414936D01*
X14382087Y-13414936D02*
X14372563Y-13405412D01*
X14734468Y-13710174D02*
X14724944Y-13700650D01*
X14724944Y-13700650D02*
X14705896Y-13672079D01*
X14705896Y-13672079D02*
X14696372Y-13653031D01*
X14696372Y-13653031D02*
X14686849Y-13624460D01*
X14686849Y-13624460D02*
X14677325Y-13576841D01*
X14677325Y-13576841D02*
X14677325Y-13538746D01*
X14677325Y-13538746D02*
X14686849Y-13491127D01*
X14686849Y-13491127D02*
X14696372Y-13462555D01*
X14696372Y-13462555D02*
X14705896Y-13443508D01*
X14705896Y-13443508D02*
X14724944Y-13414936D01*
X14724944Y-13414936D02*
X14734468Y-13405412D01*
X14810658Y-13500650D02*
X14810658Y-13633984D01*
X14810658Y-13519698D02*
X14820182Y-13510174D01*
X14820182Y-13510174D02*
X14839230Y-13500650D01*
X14839230Y-13500650D02*
X14867801Y-13500650D01*
X14867801Y-13500650D02*
X14886849Y-13510174D01*
X14886849Y-13510174D02*
X14896372Y-13529222D01*
X14896372Y-13529222D02*
X14896372Y-13633984D01*
X15020182Y-13633984D02*
X15001134Y-13624460D01*
X15001134Y-13624460D02*
X14991611Y-13614936D01*
X14991611Y-13614936D02*
X14982087Y-13595888D01*
X14982087Y-13595888D02*
X14982087Y-13538746D01*
X14982087Y-13538746D02*
X14991611Y-13519698D01*
X14991611Y-13519698D02*
X15001134Y-13510174D01*
X15001134Y-13510174D02*
X15020182Y-13500650D01*
X15020182Y-13500650D02*
X15048753Y-13500650D01*
X15048753Y-13500650D02*
X15067801Y-13510174D01*
X15067801Y-13510174D02*
X15077325Y-13519698D01*
X15077325Y-13519698D02*
X15086849Y-13538746D01*
X15086849Y-13538746D02*
X15086849Y-13595888D01*
X15086849Y-13595888D02*
X15077325Y-13614936D01*
X15077325Y-13614936D02*
X15067801Y-13624460D01*
X15067801Y-13624460D02*
X15048753Y-13633984D01*
X15048753Y-13633984D02*
X15020182Y-13633984D01*
X15143992Y-13500650D02*
X15220182Y-13500650D01*
X15172563Y-13433984D02*
X15172563Y-13605412D01*
X15172563Y-13605412D02*
X15182087Y-13624460D01*
X15182087Y-13624460D02*
X15201134Y-13633984D01*
X15201134Y-13633984D02*
X15220182Y-13633984D01*
X15439230Y-13500650D02*
X15439230Y-13700650D01*
X15439230Y-13510174D02*
X15458277Y-13500650D01*
X15458277Y-13500650D02*
X15496373Y-13500650D01*
X15496373Y-13500650D02*
X15515420Y-13510174D01*
X15515420Y-13510174D02*
X15524944Y-13519698D01*
X15524944Y-13519698D02*
X15534468Y-13538746D01*
X15534468Y-13538746D02*
X15534468Y-13595888D01*
X15534468Y-13595888D02*
X15524944Y-13614936D01*
X15524944Y-13614936D02*
X15515420Y-13624460D01*
X15515420Y-13624460D02*
X15496373Y-13633984D01*
X15496373Y-13633984D02*
X15458277Y-13633984D01*
X15458277Y-13633984D02*
X15439230Y-13624460D01*
X15648753Y-13633984D02*
X15629706Y-13624460D01*
X15629706Y-13624460D02*
X15620182Y-13605412D01*
X15620182Y-13605412D02*
X15620182Y-13433984D01*
X15810658Y-13633984D02*
X15810658Y-13529222D01*
X15810658Y-13529222D02*
X15801134Y-13510174D01*
X15801134Y-13510174D02*
X15782087Y-13500650D01*
X15782087Y-13500650D02*
X15743992Y-13500650D01*
X15743992Y-13500650D02*
X15724944Y-13510174D01*
X15810658Y-13624460D02*
X15791611Y-13633984D01*
X15791611Y-13633984D02*
X15743992Y-13633984D01*
X15743992Y-13633984D02*
X15724944Y-13624460D01*
X15724944Y-13624460D02*
X15715420Y-13605412D01*
X15715420Y-13605412D02*
X15715420Y-13586365D01*
X15715420Y-13586365D02*
X15724944Y-13567317D01*
X15724944Y-13567317D02*
X15743992Y-13557793D01*
X15743992Y-13557793D02*
X15791611Y-13557793D01*
X15791611Y-13557793D02*
X15810658Y-13548269D01*
X15877325Y-13500650D02*
X15953515Y-13500650D01*
X15905896Y-13433984D02*
X15905896Y-13605412D01*
X15905896Y-13605412D02*
X15915420Y-13624460D01*
X15915420Y-13624460D02*
X15934468Y-13633984D01*
X15934468Y-13633984D02*
X15953515Y-13633984D01*
X16096373Y-13624460D02*
X16077325Y-13633984D01*
X16077325Y-13633984D02*
X16039230Y-13633984D01*
X16039230Y-13633984D02*
X16020182Y-13624460D01*
X16020182Y-13624460D02*
X16010658Y-13605412D01*
X16010658Y-13605412D02*
X16010658Y-13529222D01*
X16010658Y-13529222D02*
X16020182Y-13510174D01*
X16020182Y-13510174D02*
X16039230Y-13500650D01*
X16039230Y-13500650D02*
X16077325Y-13500650D01*
X16077325Y-13500650D02*
X16096373Y-13510174D01*
X16096373Y-13510174D02*
X16105896Y-13529222D01*
X16105896Y-13529222D02*
X16105896Y-13548269D01*
X16105896Y-13548269D02*
X16010658Y-13567317D01*
X16277325Y-13633984D02*
X16277325Y-13433984D01*
X16277325Y-13624460D02*
X16258277Y-13633984D01*
X16258277Y-13633984D02*
X16220182Y-13633984D01*
X16220182Y-13633984D02*
X16201134Y-13624460D01*
X16201134Y-13624460D02*
X16191611Y-13614936D01*
X16191611Y-13614936D02*
X16182087Y-13595888D01*
X16182087Y-13595888D02*
X16182087Y-13538746D01*
X16182087Y-13538746D02*
X16191611Y-13519698D01*
X16191611Y-13519698D02*
X16201134Y-13510174D01*
X16201134Y-13510174D02*
X16220182Y-13500650D01*
X16220182Y-13500650D02*
X16258277Y-13500650D01*
X16258277Y-13500650D02*
X16277325Y-13510174D01*
X16353515Y-13710174D02*
X16363039Y-13700650D01*
X16363039Y-13700650D02*
X16382087Y-13672079D01*
X16382087Y-13672079D02*
X16391611Y-13653031D01*
X16391611Y-13653031D02*
X16401134Y-13624460D01*
X16401134Y-13624460D02*
X16410658Y-13576841D01*
X16410658Y-13576841D02*
X16410658Y-13538746D01*
X16410658Y-13538746D02*
X16401134Y-13491127D01*
X16401134Y-13491127D02*
X16391611Y-13462555D01*
X16391611Y-13462555D02*
X16382087Y-13443508D01*
X16382087Y-13443508D02*
X16363039Y-13414936D01*
X16363039Y-13414936D02*
X16353515Y-13405412D01*
X9597500Y-13806500D02*
G75*
G02*
X9397500Y-13806500I-100000J0D01*
G01*
X9397500Y-13806500D02*
G75*
G02*
X9597500Y-13806500I100000J0D01*
G01*
X9839229Y-13697984D02*
X9963039Y-13697984D01*
X9963039Y-13697984D02*
X9896372Y-13774174D01*
X9896372Y-13774174D02*
X9924944Y-13774174D01*
X9924944Y-13774174D02*
X9943991Y-13783698D01*
X9943991Y-13783698D02*
X9953515Y-13793222D01*
X9953515Y-13793222D02*
X9963039Y-13812269D01*
X9963039Y-13812269D02*
X9963039Y-13859888D01*
X9963039Y-13859888D02*
X9953515Y-13878936D01*
X9953515Y-13878936D02*
X9943991Y-13888460D01*
X9943991Y-13888460D02*
X9924944Y-13897984D01*
X9924944Y-13897984D02*
X9867801Y-13897984D01*
X9867801Y-13897984D02*
X9848753Y-13888460D01*
X9848753Y-13888460D02*
X9839229Y-13878936D01*
X10048753Y-13878936D02*
X10058277Y-13888460D01*
X10058277Y-13888460D02*
X10048753Y-13897984D01*
X10048753Y-13897984D02*
X10039229Y-13888460D01*
X10039229Y-13888460D02*
X10048753Y-13878936D01*
X10048753Y-13878936D02*
X10048753Y-13897984D01*
X10134467Y-13717031D02*
X10143991Y-13707508D01*
X10143991Y-13707508D02*
X10163039Y-13697984D01*
X10163039Y-13697984D02*
X10210658Y-13697984D01*
X10210658Y-13697984D02*
X10229705Y-13707508D01*
X10229705Y-13707508D02*
X10239229Y-13717031D01*
X10239229Y-13717031D02*
X10248753Y-13736079D01*
X10248753Y-13736079D02*
X10248753Y-13755127D01*
X10248753Y-13755127D02*
X10239229Y-13783698D01*
X10239229Y-13783698D02*
X10124944Y-13897984D01*
X10124944Y-13897984D02*
X10248753Y-13897984D01*
X10372563Y-13697984D02*
X10391610Y-13697984D01*
X10391610Y-13697984D02*
X10410658Y-13707508D01*
X10410658Y-13707508D02*
X10420182Y-13717031D01*
X10420182Y-13717031D02*
X10429705Y-13736079D01*
X10429705Y-13736079D02*
X10439229Y-13774174D01*
X10439229Y-13774174D02*
X10439229Y-13821793D01*
X10439229Y-13821793D02*
X10429705Y-13859888D01*
X10429705Y-13859888D02*
X10420182Y-13878936D01*
X10420182Y-13878936D02*
X10410658Y-13888460D01*
X10410658Y-13888460D02*
X10391610Y-13897984D01*
X10391610Y-13897984D02*
X10372563Y-13897984D01*
X10372563Y-13897984D02*
X10353515Y-13888460D01*
X10353515Y-13888460D02*
X10343991Y-13878936D01*
X10343991Y-13878936D02*
X10334467Y-13859888D01*
X10334467Y-13859888D02*
X10324944Y-13821793D01*
X10324944Y-13821793D02*
X10324944Y-13774174D01*
X10324944Y-13774174D02*
X10334467Y-13736079D01*
X10334467Y-13736079D02*
X10343991Y-13717031D01*
X10343991Y-13717031D02*
X10353515Y-13707508D01*
X10353515Y-13707508D02*
X10372563Y-13697984D01*
X10563039Y-13697984D02*
X10582086Y-13697984D01*
X10582086Y-13697984D02*
X10601134Y-13707508D01*
X10601134Y-13707508D02*
X10610658Y-13717031D01*
X10610658Y-13717031D02*
X10620182Y-13736079D01*
X10620182Y-13736079D02*
X10629705Y-13774174D01*
X10629705Y-13774174D02*
X10629705Y-13821793D01*
X10629705Y-13821793D02*
X10620182Y-13859888D01*
X10620182Y-13859888D02*
X10610658Y-13878936D01*
X10610658Y-13878936D02*
X10601134Y-13888460D01*
X10601134Y-13888460D02*
X10582086Y-13897984D01*
X10582086Y-13897984D02*
X10563039Y-13897984D01*
X10563039Y-13897984D02*
X10543991Y-13888460D01*
X10543991Y-13888460D02*
X10534467Y-13878936D01*
X10534467Y-13878936D02*
X10524944Y-13859888D01*
X10524944Y-13859888D02*
X10515420Y-13821793D01*
X10515420Y-13821793D02*
X10515420Y-13774174D01*
X10515420Y-13774174D02*
X10524944Y-13736079D01*
X10524944Y-13736079D02*
X10534467Y-13717031D01*
X10534467Y-13717031D02*
X10543991Y-13707508D01*
X10543991Y-13707508D02*
X10563039Y-13697984D01*
X10715420Y-13897984D02*
X10715420Y-13764650D01*
X10715420Y-13783698D02*
X10724944Y-13774174D01*
X10724944Y-13774174D02*
X10743991Y-13764650D01*
X10743991Y-13764650D02*
X10772563Y-13764650D01*
X10772563Y-13764650D02*
X10791610Y-13774174D01*
X10791610Y-13774174D02*
X10801134Y-13793222D01*
X10801134Y-13793222D02*
X10801134Y-13897984D01*
X10801134Y-13793222D02*
X10810658Y-13774174D01*
X10810658Y-13774174D02*
X10829705Y-13764650D01*
X10829705Y-13764650D02*
X10858277Y-13764650D01*
X10858277Y-13764650D02*
X10877325Y-13774174D01*
X10877325Y-13774174D02*
X10886848Y-13793222D01*
X10886848Y-13793222D02*
X10886848Y-13897984D01*
X10982086Y-13897984D02*
X10982086Y-13764650D01*
X10982086Y-13783698D02*
X10991610Y-13774174D01*
X10991610Y-13774174D02*
X11010658Y-13764650D01*
X11010658Y-13764650D02*
X11039229Y-13764650D01*
X11039229Y-13764650D02*
X11058277Y-13774174D01*
X11058277Y-13774174D02*
X11067801Y-13793222D01*
X11067801Y-13793222D02*
X11067801Y-13897984D01*
X11067801Y-13793222D02*
X11077325Y-13774174D01*
X11077325Y-13774174D02*
X11096372Y-13764650D01*
X11096372Y-13764650D02*
X11124944Y-13764650D01*
X11124944Y-13764650D02*
X11143991Y-13774174D01*
X11143991Y-13774174D02*
X11153515Y-13793222D01*
X11153515Y-13793222D02*
X11153515Y-13897984D01*
X11543991Y-13688460D02*
X11372563Y-13945603D01*
X11801134Y-13697984D02*
X11820182Y-13697984D01*
X11820182Y-13697984D02*
X11839229Y-13707508D01*
X11839229Y-13707508D02*
X11848753Y-13717031D01*
X11848753Y-13717031D02*
X11858277Y-13736079D01*
X11858277Y-13736079D02*
X11867801Y-13774174D01*
X11867801Y-13774174D02*
X11867801Y-13821793D01*
X11867801Y-13821793D02*
X11858277Y-13859888D01*
X11858277Y-13859888D02*
X11848753Y-13878936D01*
X11848753Y-13878936D02*
X11839229Y-13888460D01*
X11839229Y-13888460D02*
X11820182Y-13897984D01*
X11820182Y-13897984D02*
X11801134Y-13897984D01*
X11801134Y-13897984D02*
X11782086Y-13888460D01*
X11782086Y-13888460D02*
X11772563Y-13878936D01*
X11772563Y-13878936D02*
X11763039Y-13859888D01*
X11763039Y-13859888D02*
X11753515Y-13821793D01*
X11753515Y-13821793D02*
X11753515Y-13774174D01*
X11753515Y-13774174D02*
X11763039Y-13736079D01*
X11763039Y-13736079D02*
X11772563Y-13717031D01*
X11772563Y-13717031D02*
X11782086Y-13707508D01*
X11782086Y-13707508D02*
X11801134Y-13697984D01*
X11953515Y-13878936D02*
X11963039Y-13888460D01*
X11963039Y-13888460D02*
X11953515Y-13897984D01*
X11953515Y-13897984D02*
X11943991Y-13888460D01*
X11943991Y-13888460D02*
X11953515Y-13878936D01*
X11953515Y-13878936D02*
X11953515Y-13897984D01*
X12153515Y-13897984D02*
X12039229Y-13897984D01*
X12096372Y-13897984D02*
X12096372Y-13697984D01*
X12096372Y-13697984D02*
X12077325Y-13726555D01*
X12077325Y-13726555D02*
X12058277Y-13745603D01*
X12058277Y-13745603D02*
X12039229Y-13755127D01*
X12229706Y-13717031D02*
X12239229Y-13707508D01*
X12239229Y-13707508D02*
X12258277Y-13697984D01*
X12258277Y-13697984D02*
X12305896Y-13697984D01*
X12305896Y-13697984D02*
X12324944Y-13707508D01*
X12324944Y-13707508D02*
X12334467Y-13717031D01*
X12334467Y-13717031D02*
X12343991Y-13736079D01*
X12343991Y-13736079D02*
X12343991Y-13755127D01*
X12343991Y-13755127D02*
X12334467Y-13783698D01*
X12334467Y-13783698D02*
X12220182Y-13897984D01*
X12220182Y-13897984D02*
X12343991Y-13897984D01*
X12515420Y-13697984D02*
X12477325Y-13697984D01*
X12477325Y-13697984D02*
X12458277Y-13707508D01*
X12458277Y-13707508D02*
X12448753Y-13717031D01*
X12448753Y-13717031D02*
X12429706Y-13745603D01*
X12429706Y-13745603D02*
X12420182Y-13783698D01*
X12420182Y-13783698D02*
X12420182Y-13859888D01*
X12420182Y-13859888D02*
X12429706Y-13878936D01*
X12429706Y-13878936D02*
X12439229Y-13888460D01*
X12439229Y-13888460D02*
X12458277Y-13897984D01*
X12458277Y-13897984D02*
X12496372Y-13897984D01*
X12496372Y-13897984D02*
X12515420Y-13888460D01*
X12515420Y-13888460D02*
X12524944Y-13878936D01*
X12524944Y-13878936D02*
X12534467Y-13859888D01*
X12534467Y-13859888D02*
X12534467Y-13812269D01*
X12534467Y-13812269D02*
X12524944Y-13793222D01*
X12524944Y-13793222D02*
X12515420Y-13783698D01*
X12515420Y-13783698D02*
X12496372Y-13774174D01*
X12496372Y-13774174D02*
X12458277Y-13774174D01*
X12458277Y-13774174D02*
X12439229Y-13783698D01*
X12439229Y-13783698D02*
X12429706Y-13793222D01*
X12429706Y-13793222D02*
X12420182Y-13812269D01*
X12658277Y-13697984D02*
X12677325Y-13697984D01*
X12677325Y-13697984D02*
X12696372Y-13707508D01*
X12696372Y-13707508D02*
X12705896Y-13717031D01*
X12705896Y-13717031D02*
X12715420Y-13736079D01*
X12715420Y-13736079D02*
X12724944Y-13774174D01*
X12724944Y-13774174D02*
X12724944Y-13821793D01*
X12724944Y-13821793D02*
X12715420Y-13859888D01*
X12715420Y-13859888D02*
X12705896Y-13878936D01*
X12705896Y-13878936D02*
X12696372Y-13888460D01*
X12696372Y-13888460D02*
X12677325Y-13897984D01*
X12677325Y-13897984D02*
X12658277Y-13897984D01*
X12658277Y-13897984D02*
X12639229Y-13888460D01*
X12639229Y-13888460D02*
X12629706Y-13878936D01*
X12629706Y-13878936D02*
X12620182Y-13859888D01*
X12620182Y-13859888D02*
X12610658Y-13821793D01*
X12610658Y-13821793D02*
X12610658Y-13774174D01*
X12610658Y-13774174D02*
X12620182Y-13736079D01*
X12620182Y-13736079D02*
X12629706Y-13717031D01*
X12629706Y-13717031D02*
X12639229Y-13707508D01*
X12639229Y-13707508D02*
X12658277Y-13697984D01*
X12801134Y-13697984D02*
X12801134Y-13736079D01*
X12877325Y-13697984D02*
X12877325Y-13736079D01*
X13172563Y-13974174D02*
X13163039Y-13964650D01*
X13163039Y-13964650D02*
X13143991Y-13936079D01*
X13143991Y-13936079D02*
X13134468Y-13917031D01*
X13134468Y-13917031D02*
X13124944Y-13888460D01*
X13124944Y-13888460D02*
X13115420Y-13840841D01*
X13115420Y-13840841D02*
X13115420Y-13802746D01*
X13115420Y-13802746D02*
X13124944Y-13755127D01*
X13124944Y-13755127D02*
X13134468Y-13726555D01*
X13134468Y-13726555D02*
X13143991Y-13707508D01*
X13143991Y-13707508D02*
X13163039Y-13678936D01*
X13163039Y-13678936D02*
X13172563Y-13669412D01*
X13334468Y-13764650D02*
X13334468Y-13897984D01*
X13286848Y-13688460D02*
X13239229Y-13831317D01*
X13239229Y-13831317D02*
X13363039Y-13831317D01*
X13591610Y-13897984D02*
X13591610Y-13697984D01*
X13677325Y-13897984D02*
X13677325Y-13793222D01*
X13677325Y-13793222D02*
X13667801Y-13774174D01*
X13667801Y-13774174D02*
X13648753Y-13764650D01*
X13648753Y-13764650D02*
X13620182Y-13764650D01*
X13620182Y-13764650D02*
X13601134Y-13774174D01*
X13601134Y-13774174D02*
X13591610Y-13783698D01*
X13801134Y-13897984D02*
X13782087Y-13888460D01*
X13782087Y-13888460D02*
X13772563Y-13878936D01*
X13772563Y-13878936D02*
X13763039Y-13859888D01*
X13763039Y-13859888D02*
X13763039Y-13802746D01*
X13763039Y-13802746D02*
X13772563Y-13783698D01*
X13772563Y-13783698D02*
X13782087Y-13774174D01*
X13782087Y-13774174D02*
X13801134Y-13764650D01*
X13801134Y-13764650D02*
X13829706Y-13764650D01*
X13829706Y-13764650D02*
X13848753Y-13774174D01*
X13848753Y-13774174D02*
X13858277Y-13783698D01*
X13858277Y-13783698D02*
X13867801Y-13802746D01*
X13867801Y-13802746D02*
X13867801Y-13859888D01*
X13867801Y-13859888D02*
X13858277Y-13878936D01*
X13858277Y-13878936D02*
X13848753Y-13888460D01*
X13848753Y-13888460D02*
X13829706Y-13897984D01*
X13829706Y-13897984D02*
X13801134Y-13897984D01*
X13982087Y-13897984D02*
X13963039Y-13888460D01*
X13963039Y-13888460D02*
X13953515Y-13869412D01*
X13953515Y-13869412D02*
X13953515Y-13697984D01*
X14134468Y-13888460D02*
X14115420Y-13897984D01*
X14115420Y-13897984D02*
X14077325Y-13897984D01*
X14077325Y-13897984D02*
X14058277Y-13888460D01*
X14058277Y-13888460D02*
X14048753Y-13869412D01*
X14048753Y-13869412D02*
X14048753Y-13793222D01*
X14048753Y-13793222D02*
X14058277Y-13774174D01*
X14058277Y-13774174D02*
X14077325Y-13764650D01*
X14077325Y-13764650D02*
X14115420Y-13764650D01*
X14115420Y-13764650D02*
X14134468Y-13774174D01*
X14134468Y-13774174D02*
X14143991Y-13793222D01*
X14143991Y-13793222D02*
X14143991Y-13812269D01*
X14143991Y-13812269D02*
X14048753Y-13831317D01*
X14220182Y-13888460D02*
X14239230Y-13897984D01*
X14239230Y-13897984D02*
X14277325Y-13897984D01*
X14277325Y-13897984D02*
X14296372Y-13888460D01*
X14296372Y-13888460D02*
X14305896Y-13869412D01*
X14305896Y-13869412D02*
X14305896Y-13859888D01*
X14305896Y-13859888D02*
X14296372Y-13840841D01*
X14296372Y-13840841D02*
X14277325Y-13831317D01*
X14277325Y-13831317D02*
X14248753Y-13831317D01*
X14248753Y-13831317D02*
X14229706Y-13821793D01*
X14229706Y-13821793D02*
X14220182Y-13802746D01*
X14220182Y-13802746D02*
X14220182Y-13793222D01*
X14220182Y-13793222D02*
X14229706Y-13774174D01*
X14229706Y-13774174D02*
X14248753Y-13764650D01*
X14248753Y-13764650D02*
X14277325Y-13764650D01*
X14277325Y-13764650D02*
X14296372Y-13774174D01*
X14372563Y-13974174D02*
X14382087Y-13964650D01*
X14382087Y-13964650D02*
X14401134Y-13936079D01*
X14401134Y-13936079D02*
X14410658Y-13917031D01*
X14410658Y-13917031D02*
X14420182Y-13888460D01*
X14420182Y-13888460D02*
X14429706Y-13840841D01*
X14429706Y-13840841D02*
X14429706Y-13802746D01*
X14429706Y-13802746D02*
X14420182Y-13755127D01*
X14420182Y-13755127D02*
X14410658Y-13726555D01*
X14410658Y-13726555D02*
X14401134Y-13707508D01*
X14401134Y-13707508D02*
X14382087Y-13678936D01*
X14382087Y-13678936D02*
X14372563Y-13669412D01*
X14734468Y-13974174D02*
X14724944Y-13964650D01*
X14724944Y-13964650D02*
X14705896Y-13936079D01*
X14705896Y-13936079D02*
X14696372Y-13917031D01*
X14696372Y-13917031D02*
X14686849Y-13888460D01*
X14686849Y-13888460D02*
X14677325Y-13840841D01*
X14677325Y-13840841D02*
X14677325Y-13802746D01*
X14677325Y-13802746D02*
X14686849Y-13755127D01*
X14686849Y-13755127D02*
X14696372Y-13726555D01*
X14696372Y-13726555D02*
X14705896Y-13707508D01*
X14705896Y-13707508D02*
X14724944Y-13678936D01*
X14724944Y-13678936D02*
X14734468Y-13669412D01*
X14810658Y-13764650D02*
X14810658Y-13897984D01*
X14810658Y-13783698D02*
X14820182Y-13774174D01*
X14820182Y-13774174D02*
X14839230Y-13764650D01*
X14839230Y-13764650D02*
X14867801Y-13764650D01*
X14867801Y-13764650D02*
X14886849Y-13774174D01*
X14886849Y-13774174D02*
X14896372Y-13793222D01*
X14896372Y-13793222D02*
X14896372Y-13897984D01*
X15020182Y-13897984D02*
X15001134Y-13888460D01*
X15001134Y-13888460D02*
X14991611Y-13878936D01*
X14991611Y-13878936D02*
X14982087Y-13859888D01*
X14982087Y-13859888D02*
X14982087Y-13802746D01*
X14982087Y-13802746D02*
X14991611Y-13783698D01*
X14991611Y-13783698D02*
X15001134Y-13774174D01*
X15001134Y-13774174D02*
X15020182Y-13764650D01*
X15020182Y-13764650D02*
X15048753Y-13764650D01*
X15048753Y-13764650D02*
X15067801Y-13774174D01*
X15067801Y-13774174D02*
X15077325Y-13783698D01*
X15077325Y-13783698D02*
X15086849Y-13802746D01*
X15086849Y-13802746D02*
X15086849Y-13859888D01*
X15086849Y-13859888D02*
X15077325Y-13878936D01*
X15077325Y-13878936D02*
X15067801Y-13888460D01*
X15067801Y-13888460D02*
X15048753Y-13897984D01*
X15048753Y-13897984D02*
X15020182Y-13897984D01*
X15143992Y-13764650D02*
X15220182Y-13764650D01*
X15172563Y-13697984D02*
X15172563Y-13869412D01*
X15172563Y-13869412D02*
X15182087Y-13888460D01*
X15182087Y-13888460D02*
X15201134Y-13897984D01*
X15201134Y-13897984D02*
X15220182Y-13897984D01*
X15439230Y-13764650D02*
X15439230Y-13964650D01*
X15439230Y-13774174D02*
X15458277Y-13764650D01*
X15458277Y-13764650D02*
X15496373Y-13764650D01*
X15496373Y-13764650D02*
X15515420Y-13774174D01*
X15515420Y-13774174D02*
X15524944Y-13783698D01*
X15524944Y-13783698D02*
X15534468Y-13802746D01*
X15534468Y-13802746D02*
X15534468Y-13859888D01*
X15534468Y-13859888D02*
X15524944Y-13878936D01*
X15524944Y-13878936D02*
X15515420Y-13888460D01*
X15515420Y-13888460D02*
X15496373Y-13897984D01*
X15496373Y-13897984D02*
X15458277Y-13897984D01*
X15458277Y-13897984D02*
X15439230Y-13888460D01*
X15648753Y-13897984D02*
X15629706Y-13888460D01*
X15629706Y-13888460D02*
X15620182Y-13869412D01*
X15620182Y-13869412D02*
X15620182Y-13697984D01*
X15810658Y-13897984D02*
X15810658Y-13793222D01*
X15810658Y-13793222D02*
X15801134Y-13774174D01*
X15801134Y-13774174D02*
X15782087Y-13764650D01*
X15782087Y-13764650D02*
X15743992Y-13764650D01*
X15743992Y-13764650D02*
X15724944Y-13774174D01*
X15810658Y-13888460D02*
X15791611Y-13897984D01*
X15791611Y-13897984D02*
X15743992Y-13897984D01*
X15743992Y-13897984D02*
X15724944Y-13888460D01*
X15724944Y-13888460D02*
X15715420Y-13869412D01*
X15715420Y-13869412D02*
X15715420Y-13850365D01*
X15715420Y-13850365D02*
X15724944Y-13831317D01*
X15724944Y-13831317D02*
X15743992Y-13821793D01*
X15743992Y-13821793D02*
X15791611Y-13821793D01*
X15791611Y-13821793D02*
X15810658Y-13812269D01*
X15877325Y-13764650D02*
X15953515Y-13764650D01*
X15905896Y-13697984D02*
X15905896Y-13869412D01*
X15905896Y-13869412D02*
X15915420Y-13888460D01*
X15915420Y-13888460D02*
X15934468Y-13897984D01*
X15934468Y-13897984D02*
X15953515Y-13897984D01*
X16096373Y-13888460D02*
X16077325Y-13897984D01*
X16077325Y-13897984D02*
X16039230Y-13897984D01*
X16039230Y-13897984D02*
X16020182Y-13888460D01*
X16020182Y-13888460D02*
X16010658Y-13869412D01*
X16010658Y-13869412D02*
X16010658Y-13793222D01*
X16010658Y-13793222D02*
X16020182Y-13774174D01*
X16020182Y-13774174D02*
X16039230Y-13764650D01*
X16039230Y-13764650D02*
X16077325Y-13764650D01*
X16077325Y-13764650D02*
X16096373Y-13774174D01*
X16096373Y-13774174D02*
X16105896Y-13793222D01*
X16105896Y-13793222D02*
X16105896Y-13812269D01*
X16105896Y-13812269D02*
X16010658Y-13831317D01*
X16277325Y-13897984D02*
X16277325Y-13697984D01*
X16277325Y-13888460D02*
X16258277Y-13897984D01*
X16258277Y-13897984D02*
X16220182Y-13897984D01*
X16220182Y-13897984D02*
X16201134Y-13888460D01*
X16201134Y-13888460D02*
X16191611Y-13878936D01*
X16191611Y-13878936D02*
X16182087Y-13859888D01*
X16182087Y-13859888D02*
X16182087Y-13802746D01*
X16182087Y-13802746D02*
X16191611Y-13783698D01*
X16191611Y-13783698D02*
X16201134Y-13774174D01*
X16201134Y-13774174D02*
X16220182Y-13764650D01*
X16220182Y-13764650D02*
X16258277Y-13764650D01*
X16258277Y-13764650D02*
X16277325Y-13774174D01*
X16353515Y-13974174D02*
X16363039Y-13964650D01*
X16363039Y-13964650D02*
X16382087Y-13936079D01*
X16382087Y-13936079D02*
X16391611Y-13917031D01*
X16391611Y-13917031D02*
X16401134Y-13888460D01*
X16401134Y-13888460D02*
X16410658Y-13840841D01*
X16410658Y-13840841D02*
X16410658Y-13802746D01*
X16410658Y-13802746D02*
X16401134Y-13755127D01*
X16401134Y-13755127D02*
X16391611Y-13726555D01*
X16391611Y-13726555D02*
X16382087Y-13707508D01*
X16382087Y-13707508D02*
X16363039Y-13678936D01*
X16363039Y-13678936D02*
X16353515Y-13669412D01*
M02*
