%TF.GenerationSoftware,KiCad,Pcbnew,8.0.8*%
%TF.CreationDate,2025-04-03T15:34:38+02:00*%
%TF.ProjectId,MCU,4d43552e-6b69-4636-9164-5f7063625858,rev?*%
%TF.SameCoordinates,Original*%
%TF.FileFunction,Copper,L1,Top*%
%TF.FilePolarity,Positive*%
%FSLAX46Y46*%
G04 Gerber Fmt 4.6, Leading zero omitted, Abs format (unit mm)*
G04 Created by KiCad (PCBNEW 8.0.8) date 2025-04-03 15:34:38*
%MOMM*%
%LPD*%
G01*
G04 APERTURE LIST*
G04 Aperture macros list*
%AMRoundRect*
0 Rectangle with rounded corners*
0 $1 Rounding radius*
0 $2 $3 $4 $5 $6 $7 $8 $9 X,Y pos of 4 corners*
0 Add a 4 corners polygon primitive as box body*
4,1,4,$2,$3,$4,$5,$6,$7,$8,$9,$2,$3,0*
0 Add four circle primitives for the rounded corners*
1,1,$1+$1,$2,$3*
1,1,$1+$1,$4,$5*
1,1,$1+$1,$6,$7*
1,1,$1+$1,$8,$9*
0 Add four rect primitives between the rounded corners*
20,1,$1+$1,$2,$3,$4,$5,0*
20,1,$1+$1,$4,$5,$6,$7,0*
20,1,$1+$1,$6,$7,$8,$9,0*
20,1,$1+$1,$8,$9,$2,$3,0*%
G04 Aperture macros list end*
%TA.AperFunction,SMDPad,CuDef*%
%ADD10RoundRect,0.150000X-0.425000X0.150000X-0.425000X-0.150000X0.425000X-0.150000X0.425000X0.150000X0*%
%TD*%
%TA.AperFunction,SMDPad,CuDef*%
%ADD11RoundRect,0.075000X-0.500000X0.075000X-0.500000X-0.075000X0.500000X-0.075000X0.500000X0.075000X0*%
%TD*%
%TA.AperFunction,HeatsinkPad*%
%ADD12O,2.100000X1.000000*%
%TD*%
%TA.AperFunction,HeatsinkPad*%
%ADD13O,1.800000X1.000000*%
%TD*%
%TA.AperFunction,SMDPad,CuDef*%
%ADD14RoundRect,0.250000X-0.400000X-0.625000X0.400000X-0.625000X0.400000X0.625000X-0.400000X0.625000X0*%
%TD*%
%TA.AperFunction,SMDPad,CuDef*%
%ADD15RoundRect,0.250000X-0.650000X0.412500X-0.650000X-0.412500X0.650000X-0.412500X0.650000X0.412500X0*%
%TD*%
%TA.AperFunction,SMDPad,CuDef*%
%ADD16R,1.500000X1.500000*%
%TD*%
%TA.AperFunction,SMDPad,CuDef*%
%ADD17RoundRect,0.250000X0.400000X0.625000X-0.400000X0.625000X-0.400000X-0.625000X0.400000X-0.625000X0*%
%TD*%
%TA.AperFunction,ComponentPad*%
%ADD18R,1.650000X1.650000*%
%TD*%
%TA.AperFunction,ComponentPad*%
%ADD19C,1.650000*%
%TD*%
%TA.AperFunction,SMDPad,CuDef*%
%ADD20R,3.200000X1.200000*%
%TD*%
%TA.AperFunction,SMDPad,CuDef*%
%ADD21R,5.600000X2.200000*%
%TD*%
%TA.AperFunction,SMDPad,CuDef*%
%ADD22RoundRect,0.250000X0.625000X-0.400000X0.625000X0.400000X-0.625000X0.400000X-0.625000X-0.400000X0*%
%TD*%
%TA.AperFunction,SMDPad,CuDef*%
%ADD23RoundRect,0.250000X0.650000X-0.412500X0.650000X0.412500X-0.650000X0.412500X-0.650000X-0.412500X0*%
%TD*%
%TA.AperFunction,SMDPad,CuDef*%
%ADD24RoundRect,0.093750X-0.156250X-0.093750X0.156250X-0.093750X0.156250X0.093750X-0.156250X0.093750X0*%
%TD*%
%TA.AperFunction,SMDPad,CuDef*%
%ADD25RoundRect,0.075000X-0.250000X-0.075000X0.250000X-0.075000X0.250000X0.075000X-0.250000X0.075000X0*%
%TD*%
%TA.AperFunction,SMDPad,CuDef*%
%ADD26R,1.500000X0.900000*%
%TD*%
%TA.AperFunction,SMDPad,CuDef*%
%ADD27R,0.900000X1.500000*%
%TD*%
%TA.AperFunction,HeatsinkPad*%
%ADD28C,0.600000*%
%TD*%
%TA.AperFunction,HeatsinkPad*%
%ADD29R,3.900000X3.900000*%
%TD*%
%TA.AperFunction,SMDPad,CuDef*%
%ADD30RoundRect,0.250000X-0.625000X0.400000X-0.625000X-0.400000X0.625000X-0.400000X0.625000X0.400000X0*%
%TD*%
%TA.AperFunction,SMDPad,CuDef*%
%ADD31RoundRect,0.250000X-0.412500X-0.650000X0.412500X-0.650000X0.412500X0.650000X-0.412500X0.650000X0*%
%TD*%
%TA.AperFunction,ViaPad*%
%ADD32C,0.600000*%
%TD*%
%TA.AperFunction,ViaPad*%
%ADD33C,0.700000*%
%TD*%
%TA.AperFunction,ViaPad*%
%ADD34C,1.500000*%
%TD*%
%TA.AperFunction,ViaPad*%
%ADD35C,1.300000*%
%TD*%
%TA.AperFunction,ViaPad*%
%ADD36C,1.200000*%
%TD*%
%TA.AperFunction,Conductor*%
%ADD37C,0.300000*%
%TD*%
%TA.AperFunction,Conductor*%
%ADD38C,0.500000*%
%TD*%
%TA.AperFunction,Conductor*%
%ADD39C,1.500000*%
%TD*%
%TA.AperFunction,Conductor*%
%ADD40C,0.200000*%
%TD*%
%TA.AperFunction,Conductor*%
%ADD41C,1.000000*%
%TD*%
G04 APERTURE END LIST*
D10*
%TO.P,USB-C,A1,GND*%
%TO.N,GND*%
X104030000Y-84380000D03*
%TO.P,USB-C,A4,VBUS*%
%TO.N,+5Vout*%
X104030000Y-85180000D03*
D11*
%TO.P,USB-C,A5,CC1*%
%TO.N,Net-(J11-CC1)*%
X104030000Y-86330000D03*
%TO.P,USB-C,A6,D+*%
%TO.N,Net-(J11-D+-PadA6)*%
X104030000Y-87330000D03*
%TO.P,USB-C,A7,D-*%
%TO.N,Net-(J11-D--PadA7)*%
X104030000Y-87830000D03*
%TO.P,USB-C,A8,SBU1*%
%TO.N,unconnected-(J11-SBU1-PadA8)*%
X104030000Y-88830000D03*
D10*
%TO.P,USB-C,A9,VBUS*%
%TO.N,+5Vout*%
X104030000Y-89980000D03*
%TO.P,USB-C,A12,GND*%
%TO.N,GND*%
X104030000Y-90780000D03*
%TO.P,USB-C,B1,GND*%
X104030000Y-90780000D03*
%TO.P,USB-C,B4,VBUS*%
%TO.N,+5Vout*%
X104030000Y-89980000D03*
D11*
%TO.P,USB-C,B5,CC2*%
%TO.N,Net-(J11-CC2)*%
X104030000Y-89330000D03*
%TO.P,USB-C,B6,D+*%
%TO.N,Net-(J11-D+-PadA6)*%
X104030000Y-88330000D03*
%TO.P,USB-C,B7,D-*%
%TO.N,Net-(J11-D--PadA7)*%
X104030000Y-86830000D03*
%TO.P,USB-C,B8,SBU2*%
%TO.N,unconnected-(J11-SBU2-PadB8)*%
X104030000Y-85830000D03*
D10*
%TO.P,USB-C,B9,VBUS*%
%TO.N,+5Vout*%
X104030000Y-85180000D03*
%TO.P,USB-C,B12,GND*%
%TO.N,GND*%
X104030000Y-84380000D03*
D12*
%TO.P,USB-C,S1,SHIELD*%
X103455000Y-83260000D03*
D13*
X99275000Y-83260000D03*
D12*
X103455000Y-91900000D03*
D13*
X99275000Y-91900000D03*
%TD*%
D14*
%TO.P,R3,1*%
%TO.N,+3.3V*%
X114450000Y-77250000D03*
%TO.P,R3,2*%
%TO.N,reset*%
X117550000Y-77250000D03*
%TD*%
D15*
%TO.P,C3,1*%
%TO.N,GND*%
X118750000Y-83000000D03*
%TO.P,C3,2*%
%TO.N,-*%
X118750000Y-86125000D03*
%TD*%
D16*
%TO.P,Reset,1,1*%
%TO.N,reset*%
X116500000Y-81000000D03*
%TO.P,Reset,2,2*%
%TO.N,GND*%
X108700000Y-81000000D03*
%TD*%
D17*
%TO.P,R8,1*%
%TO.N,Net-(U1-USB_D-)*%
X124550000Y-86000000D03*
%TO.P,R8,2*%
%TO.N,-*%
X121450000Y-86000000D03*
%TD*%
D16*
%TO.P,Boot,1,1*%
%TO.N,boot0*%
X146600000Y-91250000D03*
%TO.P,Boot,2,2*%
%TO.N,GND*%
X154400000Y-91250000D03*
%TD*%
D18*
%TO.P,SPI1,1,1*%
%TO.N,GND*%
X116850000Y-107580000D03*
D19*
%TO.P,SPI1,2,2*%
%TO.N,+3.3V*%
X119350000Y-107580000D03*
%TO.P,SPI1,3,3*%
%TO.N,mosi*%
X121850000Y-107580000D03*
%TO.P,SPI1,4,4*%
%TO.N,sck*%
X124350000Y-107580000D03*
%TO.P,SPI1,5,5*%
%TO.N,miso*%
X126850000Y-107580000D03*
%TO.P,SPI1,6,6*%
%TO.N,ss1*%
X129350000Y-107580000D03*
%TO.P,SPI1,7,7*%
%TO.N,+5Vin*%
X131850000Y-107580000D03*
%TD*%
D20*
%TO.P,I2C1,1,1*%
%TO.N,GND*%
X105000000Y-64080000D03*
%TO.P,I2C1,2,2*%
%TO.N,+3.3V*%
X105000000Y-66580000D03*
%TO.P,I2C1,3,3*%
%TO.N,sda1*%
X105000000Y-69080000D03*
%TO.P,I2C1,4,4*%
%TO.N,scl1*%
X105000000Y-71580000D03*
%TO.P,I2C1,5,5*%
%TO.N,+5Vout*%
X105000000Y-74080000D03*
%TO.P,I2C1,6,6*%
%TO.N,+5Vin*%
X105000000Y-76580000D03*
D21*
%TO.P,I2C1,7,MP1*%
%TO.N,unconnected-(J8-MP1-Pad7)*%
X100750000Y-60730000D03*
%TO.P,I2C1,8,MP2*%
%TO.N,unconnected-(J8-MP2-Pad8)*%
X100750000Y-79930000D03*
%TD*%
D22*
%TO.P,R11,1*%
%TO.N,+3.3V*%
X116350000Y-91120000D03*
%TO.P,R11,2*%
%TO.N,+*%
X116350000Y-88020000D03*
%TD*%
D18*
%TO.P,GPIO0,1,1*%
%TO.N,GND*%
X140100000Y-99580000D03*
D19*
%TO.P,GPIO0,2,2*%
%TO.N,+3.3V*%
X140100000Y-102080000D03*
%TO.P,GPIO0,3,3*%
%TO.N,io46*%
X140100000Y-104580000D03*
%TO.P,GPIO0,4,4*%
%TO.N,io7*%
X140100000Y-107080000D03*
%TO.P,GPIO0,5,5*%
%TO.N,io15*%
X140100000Y-109580000D03*
%TO.P,GPIO0,6,6*%
%TO.N,io16*%
X140100000Y-112080000D03*
%TO.P,GPIO0,7,7*%
%TO.N,io17*%
X140100000Y-114580000D03*
%TO.P,GPIO0,8,8*%
%TO.N,+5Vin*%
X140100000Y-117080000D03*
%TD*%
D18*
%TO.P,SPI2,1,1*%
%TO.N,GND*%
X116850000Y-115830000D03*
D19*
%TO.P,SPI2,2,2*%
%TO.N,+3.3V*%
X119350000Y-115830000D03*
%TO.P,SPI2,3,3*%
%TO.N,mosi*%
X121850000Y-115830000D03*
%TO.P,SPI2,4,4*%
%TO.N,sck*%
X124350000Y-115830000D03*
%TO.P,SPI2,5,5*%
%TO.N,miso*%
X126850000Y-115830000D03*
%TO.P,SPI2,6,6*%
%TO.N,ss2*%
X129350000Y-115830000D03*
%TO.P,SPI2,7,7*%
%TO.N,+5Vin*%
X131850000Y-115830000D03*
%TD*%
D18*
%TO.P,GPIO3,1,1*%
%TO.N,GND*%
X167350000Y-99580000D03*
D19*
%TO.P,GPIO3,2,2*%
%TO.N,+3.3V*%
X167350000Y-102080000D03*
%TO.P,GPIO3,3,3*%
%TO.N,io39*%
X167350000Y-104580000D03*
%TO.P,GPIO3,4,4*%
%TO.N,txd0*%
X167350000Y-107080000D03*
%TO.P,GPIO3,5,5*%
%TO.N,rxd0*%
X167350000Y-109580000D03*
%TO.P,GPIO3,6,6*%
%TO.N,io2*%
X167350000Y-112080000D03*
%TO.P,GPIO3,7,7*%
%TO.N,io1*%
X167350000Y-114580000D03*
%TO.P,GPIO3,8,8*%
%TO.N,+5Vin*%
X167350000Y-117080000D03*
%TD*%
D23*
%TO.P,C2,1*%
%TO.N,GND*%
X118750000Y-91125000D03*
%TO.P,C2,2*%
%TO.N,+*%
X118750000Y-88000000D03*
%TD*%
D24*
%TO.P,U2,1,I/O1*%
%TO.N,Net-(J11-D--PadA7)*%
X112000000Y-86542500D03*
D25*
%TO.P,U2,2,GND*%
%TO.N,GND*%
X111925000Y-87080000D03*
D24*
%TO.P,U2,3,I/O2*%
%TO.N,Net-(J11-D+-PadA6)*%
X112000000Y-87617500D03*
%TO.P,U2,4,I/O2*%
%TO.N,+*%
X113700000Y-87617500D03*
D25*
%TO.P,U2,5,VBUS*%
%TO.N,+5Vout*%
X113775000Y-87080000D03*
D24*
%TO.P,U2,6,I/O1*%
%TO.N,-*%
X113700000Y-86542500D03*
%TD*%
D18*
%TO.P,GPIO2,1,1*%
%TO.N,GND*%
X158266666Y-99580000D03*
D19*
%TO.P,GPIO2,2,2*%
%TO.N,+3.3V*%
X158266666Y-102080000D03*
%TO.P,GPIO2,3,3*%
%TO.N,io45*%
X158266666Y-104580000D03*
%TO.P,GPIO2,4,4*%
%TO.N,io35*%
X158266666Y-107080000D03*
%TO.P,GPIO2,5,5*%
%TO.N,io36*%
X158266666Y-109580000D03*
%TO.P,GPIO2,6,6*%
%TO.N,io37*%
X158266666Y-112080000D03*
%TO.P,GPIO2,7,7*%
%TO.N,io38*%
X158266666Y-114580000D03*
%TO.P,GPIO2,8,8*%
%TO.N,+5Vin*%
X158266666Y-117080000D03*
%TD*%
D26*
%TO.P,U1,1,GND*%
%TO.N,GND*%
X126750000Y-71460000D03*
%TO.P,U1,2,3V3*%
%TO.N,+3.3V*%
X126750000Y-72730000D03*
%TO.P,U1,3,EN*%
%TO.N,reset*%
X126750000Y-74000000D03*
%TO.P,U1,4,IO4*%
%TO.N,scl1*%
X126750000Y-75270000D03*
%TO.P,U1,5,IO5*%
%TO.N,sda1*%
X126750000Y-76540000D03*
%TO.P,U1,6,IO6*%
%TO.N,scl0*%
X126750000Y-77810000D03*
%TO.P,U1,7,IO7*%
%TO.N,io7*%
X126750000Y-79080000D03*
%TO.P,U1,8,IO15*%
%TO.N,io15*%
X126750000Y-80350000D03*
%TO.P,U1,9,IO16*%
%TO.N,io16*%
X126750000Y-81620000D03*
%TO.P,U1,10,IO17*%
%TO.N,io17*%
X126750000Y-82890000D03*
%TO.P,U1,11,IO18*%
%TO.N,io18*%
X126750000Y-84160000D03*
%TO.P,U1,12,IO8*%
%TO.N,io8*%
X126750000Y-85430000D03*
%TO.P,U1,13,USB_D-*%
%TO.N,Net-(U1-USB_D-)*%
X126750000Y-86700000D03*
%TO.P,U1,14,USB_D+*%
%TO.N,Net-(U1-USB_D+)*%
X126750000Y-87970000D03*
D27*
%TO.P,U1,15,IO3*%
%TO.N,sda0*%
X128515000Y-89220000D03*
%TO.P,U1,16,IO46*%
%TO.N,io46*%
X129785000Y-89220000D03*
%TO.P,U1,17,IO9*%
%TO.N,ss1*%
X131055000Y-89220000D03*
%TO.P,U1,18,IO10*%
%TO.N,ss0*%
X132325000Y-89220000D03*
%TO.P,U1,19,IO11*%
%TO.N,mosi*%
X133595000Y-89220000D03*
%TO.P,U1,20,IO12*%
%TO.N,sck*%
X134865000Y-89220000D03*
%TO.P,U1,21,IO13*%
%TO.N,miso*%
X136135000Y-89220000D03*
%TO.P,U1,22,IO14*%
%TO.N,ss2*%
X137405000Y-89220000D03*
%TO.P,U1,23,IO21*%
%TO.N,io21*%
X138675000Y-89220000D03*
%TO.P,U1,24,IO47*%
%TO.N,io47*%
X139945000Y-89220000D03*
%TO.P,U1,25,IO48*%
%TO.N,io48*%
X141215000Y-89220000D03*
%TO.P,U1,26,IO45*%
%TO.N,io45*%
X142485000Y-89220000D03*
D26*
%TO.P,U1,27,IO0*%
%TO.N,boot0*%
X144250000Y-87970000D03*
%TO.P,U1,28,IO35*%
%TO.N,io35*%
X144250000Y-86700000D03*
%TO.P,U1,29,IO36*%
%TO.N,io36*%
X144250000Y-85430000D03*
%TO.P,U1,30,IO37*%
%TO.N,io37*%
X144250000Y-84160000D03*
%TO.P,U1,31,IO38*%
%TO.N,io38*%
X144250000Y-82890000D03*
%TO.P,U1,32,IO39*%
%TO.N,io39*%
X144250000Y-81620000D03*
%TO.P,U1,33,IO40*%
%TO.N,i2s sck*%
X144250000Y-80350000D03*
%TO.P,U1,34,IO41*%
%TO.N,i2s ws*%
X144250000Y-79080000D03*
%TO.P,U1,35,IO42*%
%TO.N,i2s sd*%
X144250000Y-77810000D03*
%TO.P,U1,36,RXD0*%
%TO.N,rxd0*%
X144250000Y-76540000D03*
%TO.P,U1,37,TXD0*%
%TO.N,txd0*%
X144250000Y-75270000D03*
%TO.P,U1,38,IO2*%
%TO.N,io2*%
X144250000Y-74000000D03*
%TO.P,U1,39,IO1*%
%TO.N,io1*%
X144250000Y-72730000D03*
%TO.P,U1,40,GND*%
%TO.N,GND*%
X144250000Y-71460000D03*
D28*
%TO.P,U1,41,GND*%
X132600000Y-78480000D03*
X132600000Y-79880000D03*
X133300000Y-77780000D03*
X133300000Y-79180000D03*
X133300000Y-80580000D03*
X134000000Y-78480000D03*
D29*
X134000000Y-79180000D03*
D28*
X134000000Y-79880000D03*
X134700000Y-77780000D03*
X134700000Y-79180000D03*
X134700000Y-80580000D03*
X135400000Y-78480000D03*
X135400000Y-79880000D03*
%TD*%
D15*
%TO.P,C1,1*%
%TO.N,GND*%
X122350000Y-71017500D03*
%TO.P,C1,2*%
%TO.N,+3.3V*%
X122350000Y-74142500D03*
%TD*%
D23*
%TO.P,C5,1*%
%TO.N,reset*%
X112000000Y-77812500D03*
%TO.P,C5,2*%
%TO.N,GND*%
X112000000Y-74687500D03*
%TD*%
D30*
%TO.P,R5,1*%
%TO.N,scl1*%
X108850000Y-71780000D03*
%TO.P,R5,2*%
%TO.N,+3.3V*%
X108850000Y-74880000D03*
%TD*%
D20*
%TO.P,I2S,1,1*%
%TO.N,GND*%
X161925000Y-85590000D03*
%TO.P,I2S,2,2*%
%TO.N,+3.3V*%
X161925000Y-83090000D03*
%TO.P,I2S,3,3*%
%TO.N,i2s sck*%
X161925000Y-80590000D03*
%TO.P,I2S,4,4*%
%TO.N,i2s ws*%
X161925000Y-78090000D03*
%TO.P,I2S,5,5*%
%TO.N,i2s sd*%
X161925000Y-75590000D03*
D21*
%TO.P,I2S,6*%
%TO.N,N/C*%
X166175000Y-88940000D03*
%TO.P,I2S,7*%
X166175000Y-72240000D03*
%TD*%
D30*
%TO.P,R2,1*%
%TO.N,scl0*%
X110250000Y-106200000D03*
%TO.P,R2,2*%
%TO.N,+3.3V*%
X110250000Y-109300000D03*
%TD*%
%TO.P,R7,1*%
%TO.N,+3.3V*%
X108850000Y-66780000D03*
%TO.P,R7,2*%
%TO.N,sda1*%
X108850000Y-69880000D03*
%TD*%
D17*
%TO.P,R13,1*%
%TO.N,GND*%
X112300000Y-84750000D03*
%TO.P,R13,2*%
%TO.N,Net-(J11-CC1)*%
X109200000Y-84750000D03*
%TD*%
D20*
%TO.P,I2C0,1,1*%
%TO.N,GND*%
X105437500Y-98992500D03*
%TO.P,I2C0,2,2*%
%TO.N,+3.3V*%
X105437500Y-101492500D03*
%TO.P,I2C0,3,3*%
%TO.N,sda0*%
X105437500Y-103992500D03*
%TO.P,I2C0,4,4*%
%TO.N,scl0*%
X105437500Y-106492500D03*
%TO.P,I2C0,5,5*%
%TO.N,+5Vin*%
X105437500Y-108992500D03*
D21*
%TO.P,I2C0,6*%
%TO.N,N/C*%
X101187500Y-95642500D03*
%TO.P,I2C0,7*%
X101187500Y-112342500D03*
%TD*%
D22*
%TO.P,R12,1*%
%TO.N,GND*%
X107850000Y-92680000D03*
%TO.P,R12,2*%
%TO.N,Net-(J11-CC2)*%
X107850000Y-89580000D03*
%TD*%
D17*
%TO.P,R9,1*%
%TO.N,Net-(U1-USB_D+)*%
X124550000Y-88250000D03*
%TO.P,R9,2*%
%TO.N,+*%
X121450000Y-88250000D03*
%TD*%
D31*
%TO.P,C6,1*%
%TO.N,boot0*%
X148437500Y-87750000D03*
%TO.P,C6,2*%
%TO.N,GND*%
X151562500Y-87750000D03*
%TD*%
D18*
%TO.P,SPI0,1,1*%
%TO.N,GND*%
X116850000Y-99330000D03*
D19*
%TO.P,SPI0,2,2*%
%TO.N,+3.3V*%
X119350000Y-99330000D03*
%TO.P,SPI0,3,3*%
%TO.N,mosi*%
X121850000Y-99330000D03*
%TO.P,SPI0,4,4*%
%TO.N,sck*%
X124350000Y-99330000D03*
%TO.P,SPI0,5,5*%
%TO.N,miso*%
X126850000Y-99330000D03*
%TO.P,SPI0,6,6*%
%TO.N,ss0*%
X129350000Y-99330000D03*
%TO.P,SPI0,7,7*%
%TO.N,+5Vin*%
X131850000Y-99330000D03*
%TD*%
D18*
%TO.P,GPIO1,1,1*%
%TO.N,GND*%
X149183333Y-99580000D03*
D19*
%TO.P,GPIO1,2,2*%
%TO.N,+3.3V*%
X149183333Y-102080000D03*
%TO.P,GPIO1,3,3*%
%TO.N,io18*%
X149183333Y-104580000D03*
%TO.P,GPIO1,4,4*%
%TO.N,io8*%
X149183333Y-107080000D03*
%TO.P,GPIO1,5,5*%
%TO.N,io21*%
X149183333Y-109580000D03*
%TO.P,GPIO1,6,6*%
%TO.N,io47*%
X149183333Y-112080000D03*
%TO.P,GPIO1,7,7*%
%TO.N,io48*%
X149183333Y-114580000D03*
%TO.P,GPIO1,8,8*%
%TO.N,+5Vin*%
X149183333Y-117080000D03*
%TD*%
D15*
%TO.P,C4,1*%
%TO.N,+5Vout*%
X112600000Y-89257500D03*
%TO.P,C4,2*%
%TO.N,GND*%
X112600000Y-92382500D03*
%TD*%
D30*
%TO.P,R6,1*%
%TO.N,+3.3V*%
X110262500Y-100802500D03*
%TO.P,R6,2*%
%TO.N,sda0*%
X110262500Y-103902500D03*
%TD*%
D32*
%TO.N,GND*%
X159350000Y-85590000D03*
X120412500Y-71017500D03*
D33*
X112000000Y-76250000D03*
D32*
X118850000Y-84580000D03*
X106100000Y-92070000D03*
X109122500Y-98992500D03*
X105750000Y-83250000D03*
X110750000Y-87080000D03*
X110750000Y-84750000D03*
D33*
X153500000Y-88500000D03*
D32*
X110662500Y-92382500D03*
X145975000Y-71455000D03*
D34*
X109000000Y-64080000D03*
D32*
X118850000Y-92570000D03*
%TO.N,+3.3V*%
X110600000Y-68830000D03*
X110750000Y-99500000D03*
X120600000Y-89750000D03*
X120100000Y-74080000D03*
X110600000Y-72750000D03*
D33*
X114250000Y-75500000D03*
D34*
%TO.N,+5Vout*%
X106875000Y-84625000D03*
D35*
X107100000Y-74080000D03*
D36*
X106000000Y-90750000D03*
D32*
%TO.N,i2s sd*%
X158500000Y-75590000D03*
X145750000Y-77810000D03*
%TO.N,i2s sck*%
X145750000Y-80330000D03*
X158750000Y-80500000D03*
%TO.N,i2s ws*%
X145750000Y-79080000D03*
X158465000Y-78090000D03*
%TO.N,io15*%
X137850000Y-108830000D03*
X123410000Y-82640000D03*
D34*
%TO.N,+5Vin*%
X109100000Y-76580000D03*
X108500000Y-111102500D03*
D32*
%TO.N,io1*%
X156350000Y-81500000D03*
%TO.N,io7*%
X122350000Y-83500000D03*
X136700000Y-106330000D03*
%TO.N,io17*%
X125250000Y-83200000D03*
%TO.N,txd0*%
X154010000Y-81490000D03*
X164350000Y-100750000D03*
%TO.N,io16*%
X124400000Y-82250000D03*
%TO.N,rxd0*%
X163100000Y-100750000D03*
X152600000Y-81500000D03*
%TO.N,io18*%
X128600000Y-84160000D03*
%TO.N,io35*%
X145600000Y-86700000D03*
X151600000Y-100580000D03*
%TO.N,io21*%
X138675000Y-90580000D03*
%TO.N,ss0*%
X128350000Y-94500000D03*
%TO.N,io39*%
X162100000Y-100750000D03*
X162100000Y-103330000D03*
X145750000Y-81620000D03*
%TO.N,io47*%
X139850000Y-93080000D03*
%TO.N,scl1*%
X115100000Y-71830000D03*
X111850000Y-71830000D03*
%TO.N,scl0*%
X121350000Y-84250000D03*
D33*
X120750000Y-93720000D03*
D32*
%TO.N,ss2*%
X133850000Y-95580000D03*
%TO.N,reset*%
X125000000Y-74000000D03*
X120100000Y-77830000D03*
%TO.N,io2*%
X155100000Y-81500000D03*
%TO.N,io8*%
X128350000Y-85430000D03*
%TO.N,io46*%
X135450000Y-103330000D03*
D33*
X127000000Y-93250000D03*
%TD*%
D37*
%TO.N,GND*%
X105120000Y-84380000D02*
X104075000Y-84380000D01*
D38*
X122350000Y-71017500D02*
X120412500Y-71017500D01*
D37*
X112000000Y-74687500D02*
X112000000Y-76250000D01*
D38*
X126490000Y-71200000D02*
X122532500Y-71200000D01*
D37*
X152750000Y-87750000D02*
X151562500Y-87750000D01*
X110750000Y-84750000D02*
X112300000Y-84750000D01*
X110750000Y-87080000D02*
X111925000Y-87080000D01*
X153500000Y-88500000D02*
X152750000Y-87750000D01*
X105750000Y-83750000D02*
X105120000Y-84380000D01*
X105750000Y-83250000D02*
X105750000Y-83750000D01*
X118850000Y-83100000D02*
X118750000Y-83000000D01*
D38*
X105437500Y-98992500D02*
X109122500Y-98992500D01*
D37*
X104075000Y-90780000D02*
X105365000Y-92070000D01*
D38*
X159350000Y-85590000D02*
X161925000Y-85590000D01*
D37*
X154400000Y-91250000D02*
X154400000Y-89400000D01*
X112600000Y-92382500D02*
X110662500Y-92382500D01*
D38*
X145970000Y-71460000D02*
X145975000Y-71455000D01*
X126750000Y-71460000D02*
X126490000Y-71200000D01*
D37*
X106710000Y-92680000D02*
X107850000Y-92680000D01*
X106750000Y-81000000D02*
X105750000Y-82000000D01*
X108700000Y-81000000D02*
X106750000Y-81000000D01*
X118850000Y-92570000D02*
X118850000Y-91225000D01*
D39*
X105000000Y-64080000D02*
X109000000Y-64080000D01*
D37*
X105365000Y-92070000D02*
X106100000Y-92070000D01*
X118850000Y-84580000D02*
X118850000Y-83100000D01*
D38*
X144250000Y-71460000D02*
X145970000Y-71460000D01*
X122532500Y-71200000D02*
X122350000Y-71017500D01*
D37*
X154400000Y-89400000D02*
X153500000Y-88500000D01*
X105750000Y-82000000D02*
X105750000Y-83250000D01*
X106100000Y-92070000D02*
X106710000Y-92680000D01*
X118850000Y-91225000D02*
X118750000Y-91125000D01*
D38*
%TO.N,+3.3V*%
X110262500Y-108512500D02*
X109292500Y-107542500D01*
X161925000Y-83090000D02*
X164090000Y-83090000D01*
X105437500Y-101492500D02*
X109572500Y-101492500D01*
X126750000Y-72730000D02*
X123070000Y-72730000D01*
X103757500Y-101492500D02*
X105437500Y-101492500D01*
X114250000Y-77050000D02*
X114450000Y-77250000D01*
X114250000Y-75500000D02*
X114250000Y-77050000D01*
X117470000Y-90000000D02*
X116350000Y-91120000D01*
X110000000Y-72750000D02*
X108850000Y-73900000D01*
X120162500Y-74142500D02*
X120100000Y-74080000D01*
X119350000Y-108830000D02*
X118680000Y-109500000D01*
X110360000Y-109500000D02*
X110262500Y-109402500D01*
X165000000Y-85500000D02*
X162750000Y-87750000D01*
X108650000Y-66580000D02*
X108850000Y-66780000D01*
X123070000Y-72730000D02*
X122350000Y-73450000D01*
X119350000Y-101100000D02*
X120330000Y-102080000D01*
X140100000Y-102080000D02*
X149183333Y-102080000D01*
X102470000Y-106690000D02*
X102470000Y-102780000D01*
X109780000Y-66780000D02*
X110600000Y-67600000D01*
X122350000Y-74142500D02*
X120162500Y-74142500D01*
X118680000Y-109500000D02*
X110360000Y-109500000D01*
X119350000Y-107580000D02*
X119350000Y-108830000D01*
X122350000Y-73450000D02*
X122350000Y-74142500D01*
X162750000Y-97480000D02*
X167350000Y-102080000D01*
X102470000Y-102780000D02*
X103757500Y-101492500D01*
X110262500Y-109402500D02*
X110262500Y-108512500D01*
X162750000Y-87750000D02*
X162750000Y-97480000D01*
X110600000Y-72750000D02*
X110000000Y-72750000D01*
X109292500Y-107542500D02*
X103322500Y-107542500D01*
X103322500Y-107542500D02*
X102470000Y-106690000D01*
X120600000Y-89750000D02*
X120350000Y-90000000D01*
X108850000Y-73900000D02*
X108850000Y-74880000D01*
X120350000Y-90000000D02*
X117470000Y-90000000D01*
X105000000Y-66580000D02*
X108650000Y-66580000D01*
X110262500Y-100802500D02*
X110262500Y-99987500D01*
X164090000Y-83090000D02*
X165000000Y-84000000D01*
X109572500Y-101492500D02*
X110262500Y-100802500D01*
X120330000Y-102080000D02*
X140100000Y-102080000D01*
X108850000Y-66780000D02*
X109780000Y-66780000D01*
X110600000Y-67600000D02*
X110600000Y-68830000D01*
X110262500Y-99987500D02*
X110750000Y-99500000D01*
X165000000Y-84000000D02*
X165000000Y-85500000D01*
X119350000Y-99330000D02*
X119350000Y-101100000D01*
D40*
%TO.N,-*%
X114206295Y-86542500D02*
X114748795Y-86000000D01*
X114748795Y-86000000D02*
X121450000Y-86000000D01*
X113700000Y-86542500D02*
X114206295Y-86542500D01*
%TO.N,+*%
X114117500Y-87617500D02*
X114750000Y-88250000D01*
X113700000Y-87617500D02*
X114117500Y-87617500D01*
X114750000Y-88250000D02*
X121450000Y-88250000D01*
X113737500Y-87580000D02*
X113700000Y-87617500D01*
D37*
%TO.N,+5Vout*%
X104075000Y-85180000D02*
X103965000Y-85290000D01*
D38*
X110100000Y-91070000D02*
X111912500Y-89257500D01*
D37*
X112600000Y-87820000D02*
X113340000Y-87080000D01*
D38*
X104075000Y-89980000D02*
X105095000Y-89980000D01*
X106185000Y-91070000D02*
X110100000Y-91070000D01*
X105095000Y-89980000D02*
X106185000Y-91070000D01*
D41*
X105000000Y-74080000D02*
X107100000Y-74080000D01*
D37*
X113775000Y-87080000D02*
X113340000Y-87080000D01*
D38*
X106875000Y-84625000D02*
X106320000Y-85180000D01*
X106320000Y-85180000D02*
X104075000Y-85180000D01*
D37*
X112600000Y-89257500D02*
X112600000Y-87820000D01*
X104075000Y-85180000D02*
X103925000Y-85330000D01*
D38*
X111912500Y-89257500D02*
X112600000Y-89257500D01*
D37*
X103965000Y-89870000D02*
X104075000Y-89980000D01*
%TO.N,i2s sd*%
X158500000Y-75590000D02*
X161925000Y-75590000D01*
X144250000Y-77810000D02*
X145750000Y-77810000D01*
%TO.N,i2s sck*%
X144250000Y-80350000D02*
X145730000Y-80350000D01*
X145730000Y-80350000D02*
X145750000Y-80330000D01*
X161925000Y-80590000D02*
X158840000Y-80590000D01*
X158840000Y-80590000D02*
X158750000Y-80500000D01*
%TO.N,i2s ws*%
X144250000Y-79080000D02*
X145750000Y-79080000D01*
X158465000Y-78090000D02*
X161925000Y-78090000D01*
%TO.N,io15*%
X137850000Y-108830000D02*
X138600000Y-109580000D01*
X124050000Y-80350000D02*
X123410000Y-80990000D01*
X126750000Y-80350000D02*
X124050000Y-80350000D01*
X123410000Y-80990000D02*
X123410000Y-82640000D01*
X138600000Y-109580000D02*
X140100000Y-109580000D01*
D39*
%TO.N,+5Vin*%
X105000000Y-76580000D02*
X109100000Y-76580000D01*
X106602500Y-111102500D02*
X108500000Y-111102500D01*
X105437500Y-109937500D02*
X106602500Y-111102500D01*
X105437500Y-108992500D02*
X105437500Y-109937500D01*
D37*
%TO.N,io1*%
X149147106Y-72730000D02*
X144250000Y-72730000D01*
X156350000Y-81500000D02*
X156350000Y-79932894D01*
X156350000Y-79932894D02*
X149147106Y-72730000D01*
%TO.N,io7*%
X137450000Y-107080000D02*
X140100000Y-107080000D01*
X136700000Y-106330000D02*
X137450000Y-107080000D01*
X122350000Y-83500000D02*
X122350000Y-80050000D01*
X122350000Y-80050000D02*
X123320000Y-79080000D01*
X123320000Y-79080000D02*
X126750000Y-79080000D01*
%TO.N,io17*%
X125560000Y-82890000D02*
X125250000Y-83200000D01*
X126750000Y-82890000D02*
X125560000Y-82890000D01*
%TO.N,txd0*%
X148770000Y-75270000D02*
X144250000Y-75270000D01*
X164350000Y-104080000D02*
X167350000Y-107080000D01*
X154010000Y-80510000D02*
X148770000Y-75270000D01*
X164350000Y-100750000D02*
X164350000Y-104080000D01*
X154010000Y-81490000D02*
X154010000Y-80510000D01*
%TO.N,io16*%
X125050000Y-81600000D02*
X126730000Y-81600000D01*
X126730000Y-81600000D02*
X126750000Y-81620000D01*
X124400000Y-82250000D02*
X125050000Y-81600000D01*
%TO.N,rxd0*%
X152600000Y-81500000D02*
X152600000Y-80600000D01*
X152600000Y-80600000D02*
X148540000Y-76540000D01*
X148540000Y-76540000D02*
X144250000Y-76540000D01*
X163100000Y-105330000D02*
X167350000Y-109580000D01*
X163100000Y-100750000D02*
X163100000Y-105330000D01*
%TO.N,io18*%
X126750000Y-84160000D02*
X128600000Y-84160000D01*
%TO.N,io35*%
X151600000Y-100580000D02*
X151600000Y-105580000D01*
X158191666Y-107155000D02*
X158266666Y-107080000D01*
X153175000Y-107155000D02*
X158191666Y-107155000D01*
X151600000Y-105580000D02*
X153175000Y-107155000D01*
X145600000Y-86700000D02*
X144250000Y-86700000D01*
%TO.N,io21*%
X138675000Y-89220000D02*
X138675000Y-90580000D01*
%TO.N,io37*%
X160600000Y-92580000D02*
X160600000Y-109746666D01*
X144250000Y-84160000D02*
X152180000Y-84160000D01*
X160600000Y-109746666D02*
X158266666Y-112080000D01*
X152180000Y-84160000D02*
X160600000Y-92580000D01*
%TO.N,io36*%
X159850000Y-93080000D02*
X159850000Y-107996666D01*
X152200000Y-85430000D02*
X159850000Y-93080000D01*
X159850000Y-107996666D02*
X158266666Y-109580000D01*
X144250000Y-85430000D02*
X152200000Y-85430000D01*
%TO.N,io38*%
X161350000Y-112050000D02*
X158745000Y-114655000D01*
X151910000Y-82890000D02*
X161350000Y-92330000D01*
X161350000Y-92330000D02*
X161350000Y-112050000D01*
X144250000Y-82890000D02*
X151910000Y-82890000D01*
%TO.N,miso*%
X127010000Y-99330000D02*
X126850000Y-99330000D01*
X136135000Y-89220000D02*
X136135000Y-90205000D01*
X136135000Y-90205000D02*
X127010000Y-99330000D01*
%TO.N,sck*%
X134865000Y-90272107D02*
X129307107Y-95830000D01*
X134865000Y-89220000D02*
X134865000Y-90272107D01*
X127850000Y-95830000D02*
X124350000Y-99330000D01*
X129307107Y-95830000D02*
X127850000Y-95830000D01*
%TO.N,ss1*%
X114250000Y-103250000D02*
X115500000Y-104500000D01*
X115500000Y-104500000D02*
X126270000Y-104500000D01*
X126270000Y-104500000D02*
X129350000Y-107580000D01*
X114250000Y-96930000D02*
X114250000Y-103250000D01*
X131055000Y-90270000D02*
X126825000Y-94500000D01*
X131055000Y-89220000D02*
X131055000Y-90270000D01*
X126825000Y-94500000D02*
X116680000Y-94500000D01*
X116680000Y-94500000D02*
X114250000Y-96930000D01*
%TO.N,mosi*%
X128715000Y-95250000D02*
X126000000Y-95250000D01*
X121920000Y-99330000D02*
X121850000Y-99330000D01*
X133595000Y-89220000D02*
X133595000Y-90370000D01*
X133595000Y-90370000D02*
X128715000Y-95250000D01*
X126000000Y-95250000D02*
X121920000Y-99330000D01*
%TO.N,ss0*%
X128350000Y-94400000D02*
X132325000Y-90425000D01*
X128350000Y-94500000D02*
X128350000Y-94400000D01*
X132325000Y-90425000D02*
X132325000Y-89220000D01*
D40*
%TO.N,Net-(J11-D--PadA7)*%
X111350000Y-86320000D02*
X111600000Y-86570000D01*
X111600000Y-86570000D02*
X111972500Y-86570000D01*
X103205000Y-86830000D02*
X104075000Y-86830000D01*
X103205000Y-87830000D02*
X103000000Y-87625000D01*
X103000000Y-87035000D02*
X103205000Y-86830000D01*
X109920000Y-86830000D02*
X110430000Y-86320000D01*
X110430000Y-86320000D02*
X111350000Y-86320000D01*
X103000000Y-87625000D02*
X103000000Y-87035000D01*
X111972500Y-86570000D02*
X112000000Y-86542500D01*
X104075000Y-87830000D02*
X103205000Y-87830000D01*
X104075000Y-86830000D02*
X109920000Y-86830000D01*
%TO.N,Net-(J11-D+-PadA6)*%
X111552500Y-87617500D02*
X112000000Y-87617500D01*
X104075000Y-88330000D02*
X104945000Y-88330000D01*
X110570000Y-87820000D02*
X111350000Y-87820000D01*
X105100000Y-88175000D02*
X105100000Y-87330000D01*
X104075000Y-87330000D02*
X105100000Y-87330000D01*
X105100000Y-87330000D02*
X110080000Y-87330000D01*
X111350000Y-87820000D02*
X111552500Y-87617500D01*
X104945000Y-88330000D02*
X105100000Y-88175000D01*
X110080000Y-87330000D02*
X110570000Y-87820000D01*
D37*
%TO.N,Net-(J11-CC1)*%
X104075000Y-86330000D02*
X105045000Y-86330000D01*
X105045000Y-86330000D02*
X105375000Y-86000000D01*
X105375000Y-86000000D02*
X108480000Y-86000000D01*
X108480000Y-86000000D02*
X108850000Y-85630000D01*
%TO.N,io39*%
X144250000Y-81620000D02*
X145750000Y-81620000D01*
X162100000Y-100750000D02*
X162100000Y-103330000D01*
%TO.N,io45*%
X158266666Y-104423333D02*
X158266666Y-104580000D01*
X150843333Y-97000000D02*
X158266666Y-104423333D01*
X149500000Y-97000000D02*
X150843333Y-97000000D01*
X142485000Y-89985000D02*
X149500000Y-97000000D01*
X157580000Y-104580000D02*
X158266666Y-104580000D01*
X142485000Y-89220000D02*
X142485000Y-89985000D01*
%TO.N,io48*%
X141215000Y-90845000D02*
X148120000Y-97750000D01*
X150750000Y-113013333D02*
X149183333Y-114580000D01*
X141215000Y-89220000D02*
X141215000Y-90845000D01*
X150750000Y-98500000D02*
X150750000Y-113013333D01*
X150000000Y-97750000D02*
X150750000Y-98500000D01*
X148120000Y-97750000D02*
X150000000Y-97750000D01*
%TO.N,io47*%
X139945000Y-92985000D02*
X139850000Y-93080000D01*
X139945000Y-89220000D02*
X139945000Y-92985000D01*
%TO.N,scl1*%
X119540000Y-75270000D02*
X126750000Y-75270000D01*
X115100000Y-71830000D02*
X116100000Y-71830000D01*
X105200000Y-71780000D02*
X105000000Y-71580000D01*
X108850000Y-71780000D02*
X105200000Y-71780000D01*
X111800000Y-71780000D02*
X108850000Y-71780000D01*
X116100000Y-71830000D02*
X119540000Y-75270000D01*
X111850000Y-71830000D02*
X111800000Y-71780000D01*
%TO.N,sda1*%
X119540000Y-76540000D02*
X115750000Y-72750000D01*
X108850000Y-69880000D02*
X107480000Y-69880000D01*
X106680000Y-69080000D02*
X105000000Y-69080000D01*
X126750000Y-76540000D02*
X119540000Y-76540000D01*
X109220000Y-70250000D02*
X108850000Y-69880000D01*
X111750000Y-70250000D02*
X109220000Y-70250000D01*
X107480000Y-69880000D02*
X106680000Y-69080000D01*
X114250000Y-72750000D02*
X111750000Y-70250000D01*
X115750000Y-72750000D02*
X114250000Y-72750000D01*
%TO.N,sda0*%
X119119239Y-93220000D02*
X116545788Y-93220000D01*
X113250000Y-93500000D02*
X111750000Y-95000000D01*
X110172500Y-103992500D02*
X110262500Y-103902500D01*
X116545788Y-93220000D02*
X116265788Y-93500000D01*
X110262500Y-103902500D02*
X110262500Y-104152500D01*
X111750000Y-95000000D02*
X111750000Y-101500000D01*
X111750000Y-101500000D02*
X110262500Y-102987500D01*
X126110394Y-93000000D02*
X119339239Y-93000000D01*
X105437500Y-103992500D02*
X110172500Y-103992500D01*
X119339239Y-93000000D02*
X119119239Y-93220000D01*
X128515000Y-89220000D02*
X128515000Y-90595394D01*
X128515000Y-90595394D02*
X126110394Y-93000000D01*
X116265788Y-93500000D02*
X113250000Y-93500000D01*
X110262500Y-102987500D02*
X110262500Y-103902500D01*
%TO.N,scl0*%
X113250000Y-97222894D02*
X113250000Y-103000000D01*
X110262500Y-105987500D02*
X110262500Y-106302500D01*
X105437500Y-106492500D02*
X110072500Y-106492500D01*
X121350000Y-84250000D02*
X121350000Y-79330000D01*
X110072500Y-106492500D02*
X110262500Y-106302500D01*
X122870000Y-77810000D02*
X126750000Y-77810000D01*
X113250000Y-103000000D02*
X110262500Y-105987500D01*
X116752894Y-93720000D02*
X113250000Y-97222894D01*
X121350000Y-79330000D02*
X122870000Y-77810000D01*
X120750000Y-93720000D02*
X116752894Y-93720000D01*
%TO.N,ss2*%
X137405000Y-90595000D02*
X133850000Y-94150000D01*
X133850000Y-94150000D02*
X133850000Y-95580000D01*
X137405000Y-89220000D02*
X137405000Y-90595000D01*
%TO.N,Net-(J11-CC2)*%
X104075000Y-89330000D02*
X107600000Y-89330000D01*
X107600000Y-89330000D02*
X107850000Y-89580000D01*
%TO.N,boot0*%
X146600000Y-88650000D02*
X147500000Y-87750000D01*
X144250000Y-87970000D02*
X144250000Y-88900000D01*
X147500000Y-87750000D02*
X148437500Y-87750000D01*
X144250000Y-88900000D02*
X146600000Y-91250000D01*
X146600000Y-91250000D02*
X146600000Y-88650000D01*
%TO.N,reset*%
X117250000Y-81000000D02*
X116500000Y-81000000D01*
X117550000Y-80700000D02*
X117250000Y-81000000D01*
D38*
X118130000Y-77830000D02*
X117550000Y-77250000D01*
X117505000Y-77250000D02*
X117550000Y-77250000D01*
D37*
X117550000Y-77250000D02*
X117550000Y-80700000D01*
D38*
X126750000Y-74000000D02*
X125000000Y-74000000D01*
D37*
X116500000Y-81000000D02*
X115187500Y-81000000D01*
D38*
X120100000Y-77830000D02*
X118130000Y-77830000D01*
D37*
X115187500Y-81000000D02*
X112000000Y-77812500D01*
%TO.N,io2*%
X155100000Y-81500000D02*
X155100000Y-80100000D01*
X149000000Y-74000000D02*
X144250000Y-74000000D01*
X155100000Y-80100000D02*
X149000000Y-74000000D01*
%TO.N,io8*%
X126750000Y-85430000D02*
X128350000Y-85430000D01*
D40*
%TO.N,Net-(U1-USB_D-)*%
X126750000Y-86700000D02*
X126592500Y-86542500D01*
X124550000Y-86000000D02*
X125250000Y-86700000D01*
X125250000Y-86700000D02*
X126750000Y-86700000D01*
%TO.N,Net-(U1-USB_D+)*%
X124550000Y-88250000D02*
X124830000Y-87970000D01*
X124830000Y-87970000D02*
X126750000Y-87970000D01*
X126750000Y-87970000D02*
X126360000Y-87580000D01*
D37*
%TO.N,io46*%
X135450000Y-103330000D02*
X136700000Y-104580000D01*
X136700000Y-104580000D02*
X140100000Y-104580000D01*
X129785000Y-90465000D02*
X127000000Y-93250000D01*
X129785000Y-89220000D02*
X129785000Y-90465000D01*
%TD*%
M02*
