%TF.GenerationSoftware,KiCad,Pcbnew,8.0.8*%
%TF.CreationDate,2025-04-03T15:34:39+02:00*%
%TF.ProjectId,MCU,4d43552e-6b69-4636-9164-5f7063625858,rev?*%
%TF.SameCoordinates,Original*%
%TF.FileFunction,Legend,Top*%
%TF.FilePolarity,Positive*%
%FSLAX46Y46*%
G04 Gerber Fmt 4.6, Leading zero omitted, Abs format (unit mm)*
G04 Created by KiCad (PCBNEW 8.0.8) date 2025-04-03 15:34:39*
%MOMM*%
%LPD*%
G01*
G04 APERTURE LIST*
%ADD10C,0.150000*%
%ADD11C,0.254000*%
%ADD12C,0.120000*%
%ADD13C,0.100000*%
%ADD14C,0.200000*%
G04 APERTURE END LIST*
D10*
X99804819Y-89960951D02*
X100614342Y-89960951D01*
X100614342Y-89960951D02*
X100709580Y-89913332D01*
X100709580Y-89913332D02*
X100757200Y-89865713D01*
X100757200Y-89865713D02*
X100804819Y-89770475D01*
X100804819Y-89770475D02*
X100804819Y-89579999D01*
X100804819Y-89579999D02*
X100757200Y-89484761D01*
X100757200Y-89484761D02*
X100709580Y-89437142D01*
X100709580Y-89437142D02*
X100614342Y-89389523D01*
X100614342Y-89389523D02*
X99804819Y-89389523D01*
X100757200Y-88960951D02*
X100804819Y-88818094D01*
X100804819Y-88818094D02*
X100804819Y-88579999D01*
X100804819Y-88579999D02*
X100757200Y-88484761D01*
X100757200Y-88484761D02*
X100709580Y-88437142D01*
X100709580Y-88437142D02*
X100614342Y-88389523D01*
X100614342Y-88389523D02*
X100519104Y-88389523D01*
X100519104Y-88389523D02*
X100423866Y-88437142D01*
X100423866Y-88437142D02*
X100376247Y-88484761D01*
X100376247Y-88484761D02*
X100328628Y-88579999D01*
X100328628Y-88579999D02*
X100281009Y-88770475D01*
X100281009Y-88770475D02*
X100233390Y-88865713D01*
X100233390Y-88865713D02*
X100185771Y-88913332D01*
X100185771Y-88913332D02*
X100090533Y-88960951D01*
X100090533Y-88960951D02*
X99995295Y-88960951D01*
X99995295Y-88960951D02*
X99900057Y-88913332D01*
X99900057Y-88913332D02*
X99852438Y-88865713D01*
X99852438Y-88865713D02*
X99804819Y-88770475D01*
X99804819Y-88770475D02*
X99804819Y-88532380D01*
X99804819Y-88532380D02*
X99852438Y-88389523D01*
X100281009Y-87627618D02*
X100328628Y-87484761D01*
X100328628Y-87484761D02*
X100376247Y-87437142D01*
X100376247Y-87437142D02*
X100471485Y-87389523D01*
X100471485Y-87389523D02*
X100614342Y-87389523D01*
X100614342Y-87389523D02*
X100709580Y-87437142D01*
X100709580Y-87437142D02*
X100757200Y-87484761D01*
X100757200Y-87484761D02*
X100804819Y-87579999D01*
X100804819Y-87579999D02*
X100804819Y-87960951D01*
X100804819Y-87960951D02*
X99804819Y-87960951D01*
X99804819Y-87960951D02*
X99804819Y-87627618D01*
X99804819Y-87627618D02*
X99852438Y-87532380D01*
X99852438Y-87532380D02*
X99900057Y-87484761D01*
X99900057Y-87484761D02*
X99995295Y-87437142D01*
X99995295Y-87437142D02*
X100090533Y-87437142D01*
X100090533Y-87437142D02*
X100185771Y-87484761D01*
X100185771Y-87484761D02*
X100233390Y-87532380D01*
X100233390Y-87532380D02*
X100281009Y-87627618D01*
X100281009Y-87627618D02*
X100281009Y-87960951D01*
X100423866Y-86960951D02*
X100423866Y-86199047D01*
X100709580Y-85151428D02*
X100757200Y-85199047D01*
X100757200Y-85199047D02*
X100804819Y-85341904D01*
X100804819Y-85341904D02*
X100804819Y-85437142D01*
X100804819Y-85437142D02*
X100757200Y-85579999D01*
X100757200Y-85579999D02*
X100661961Y-85675237D01*
X100661961Y-85675237D02*
X100566723Y-85722856D01*
X100566723Y-85722856D02*
X100376247Y-85770475D01*
X100376247Y-85770475D02*
X100233390Y-85770475D01*
X100233390Y-85770475D02*
X100042914Y-85722856D01*
X100042914Y-85722856D02*
X99947676Y-85675237D01*
X99947676Y-85675237D02*
X99852438Y-85579999D01*
X99852438Y-85579999D02*
X99804819Y-85437142D01*
X99804819Y-85437142D02*
X99804819Y-85341904D01*
X99804819Y-85341904D02*
X99852438Y-85199047D01*
X99852438Y-85199047D02*
X99900057Y-85151428D01*
X115583333Y-75954819D02*
X115250000Y-75478628D01*
X115011905Y-75954819D02*
X115011905Y-74954819D01*
X115011905Y-74954819D02*
X115392857Y-74954819D01*
X115392857Y-74954819D02*
X115488095Y-75002438D01*
X115488095Y-75002438D02*
X115535714Y-75050057D01*
X115535714Y-75050057D02*
X115583333Y-75145295D01*
X115583333Y-75145295D02*
X115583333Y-75288152D01*
X115583333Y-75288152D02*
X115535714Y-75383390D01*
X115535714Y-75383390D02*
X115488095Y-75431009D01*
X115488095Y-75431009D02*
X115392857Y-75478628D01*
X115392857Y-75478628D02*
X115011905Y-75478628D01*
X115916667Y-74954819D02*
X116535714Y-74954819D01*
X116535714Y-74954819D02*
X116202381Y-75335771D01*
X116202381Y-75335771D02*
X116345238Y-75335771D01*
X116345238Y-75335771D02*
X116440476Y-75383390D01*
X116440476Y-75383390D02*
X116488095Y-75431009D01*
X116488095Y-75431009D02*
X116535714Y-75526247D01*
X116535714Y-75526247D02*
X116535714Y-75764342D01*
X116535714Y-75764342D02*
X116488095Y-75859580D01*
X116488095Y-75859580D02*
X116440476Y-75907200D01*
X116440476Y-75907200D02*
X116345238Y-75954819D01*
X116345238Y-75954819D02*
X116059524Y-75954819D01*
X116059524Y-75954819D02*
X115964286Y-75907200D01*
X115964286Y-75907200D02*
X115916667Y-75859580D01*
X116333333Y-84859580D02*
X116285714Y-84907200D01*
X116285714Y-84907200D02*
X116142857Y-84954819D01*
X116142857Y-84954819D02*
X116047619Y-84954819D01*
X116047619Y-84954819D02*
X115904762Y-84907200D01*
X115904762Y-84907200D02*
X115809524Y-84811961D01*
X115809524Y-84811961D02*
X115761905Y-84716723D01*
X115761905Y-84716723D02*
X115714286Y-84526247D01*
X115714286Y-84526247D02*
X115714286Y-84383390D01*
X115714286Y-84383390D02*
X115761905Y-84192914D01*
X115761905Y-84192914D02*
X115809524Y-84097676D01*
X115809524Y-84097676D02*
X115904762Y-84002438D01*
X115904762Y-84002438D02*
X116047619Y-83954819D01*
X116047619Y-83954819D02*
X116142857Y-83954819D01*
X116142857Y-83954819D02*
X116285714Y-84002438D01*
X116285714Y-84002438D02*
X116333333Y-84050057D01*
X116666667Y-83954819D02*
X117285714Y-83954819D01*
X117285714Y-83954819D02*
X116952381Y-84335771D01*
X116952381Y-84335771D02*
X117095238Y-84335771D01*
X117095238Y-84335771D02*
X117190476Y-84383390D01*
X117190476Y-84383390D02*
X117238095Y-84431009D01*
X117238095Y-84431009D02*
X117285714Y-84526247D01*
X117285714Y-84526247D02*
X117285714Y-84764342D01*
X117285714Y-84764342D02*
X117238095Y-84859580D01*
X117238095Y-84859580D02*
X117190476Y-84907200D01*
X117190476Y-84907200D02*
X117095238Y-84954819D01*
X117095238Y-84954819D02*
X116809524Y-84954819D01*
X116809524Y-84954819D02*
X116714286Y-84907200D01*
X116714286Y-84907200D02*
X116666667Y-84859580D01*
X118511904Y-80954819D02*
X118178571Y-80478628D01*
X117940476Y-80954819D02*
X117940476Y-79954819D01*
X117940476Y-79954819D02*
X118321428Y-79954819D01*
X118321428Y-79954819D02*
X118416666Y-80002438D01*
X118416666Y-80002438D02*
X118464285Y-80050057D01*
X118464285Y-80050057D02*
X118511904Y-80145295D01*
X118511904Y-80145295D02*
X118511904Y-80288152D01*
X118511904Y-80288152D02*
X118464285Y-80383390D01*
X118464285Y-80383390D02*
X118416666Y-80431009D01*
X118416666Y-80431009D02*
X118321428Y-80478628D01*
X118321428Y-80478628D02*
X117940476Y-80478628D01*
X119321428Y-80907200D02*
X119226190Y-80954819D01*
X119226190Y-80954819D02*
X119035714Y-80954819D01*
X119035714Y-80954819D02*
X118940476Y-80907200D01*
X118940476Y-80907200D02*
X118892857Y-80811961D01*
X118892857Y-80811961D02*
X118892857Y-80431009D01*
X118892857Y-80431009D02*
X118940476Y-80335771D01*
X118940476Y-80335771D02*
X119035714Y-80288152D01*
X119035714Y-80288152D02*
X119226190Y-80288152D01*
X119226190Y-80288152D02*
X119321428Y-80335771D01*
X119321428Y-80335771D02*
X119369047Y-80431009D01*
X119369047Y-80431009D02*
X119369047Y-80526247D01*
X119369047Y-80526247D02*
X118892857Y-80621485D01*
X119750000Y-80907200D02*
X119845238Y-80954819D01*
X119845238Y-80954819D02*
X120035714Y-80954819D01*
X120035714Y-80954819D02*
X120130952Y-80907200D01*
X120130952Y-80907200D02*
X120178571Y-80811961D01*
X120178571Y-80811961D02*
X120178571Y-80764342D01*
X120178571Y-80764342D02*
X120130952Y-80669104D01*
X120130952Y-80669104D02*
X120035714Y-80621485D01*
X120035714Y-80621485D02*
X119892857Y-80621485D01*
X119892857Y-80621485D02*
X119797619Y-80573866D01*
X119797619Y-80573866D02*
X119750000Y-80478628D01*
X119750000Y-80478628D02*
X119750000Y-80431009D01*
X119750000Y-80431009D02*
X119797619Y-80335771D01*
X119797619Y-80335771D02*
X119892857Y-80288152D01*
X119892857Y-80288152D02*
X120035714Y-80288152D01*
X120035714Y-80288152D02*
X120130952Y-80335771D01*
X120988095Y-80907200D02*
X120892857Y-80954819D01*
X120892857Y-80954819D02*
X120702381Y-80954819D01*
X120702381Y-80954819D02*
X120607143Y-80907200D01*
X120607143Y-80907200D02*
X120559524Y-80811961D01*
X120559524Y-80811961D02*
X120559524Y-80431009D01*
X120559524Y-80431009D02*
X120607143Y-80335771D01*
X120607143Y-80335771D02*
X120702381Y-80288152D01*
X120702381Y-80288152D02*
X120892857Y-80288152D01*
X120892857Y-80288152D02*
X120988095Y-80335771D01*
X120988095Y-80335771D02*
X121035714Y-80431009D01*
X121035714Y-80431009D02*
X121035714Y-80526247D01*
X121035714Y-80526247D02*
X120559524Y-80621485D01*
X121321429Y-80288152D02*
X121702381Y-80288152D01*
X121464286Y-79954819D02*
X121464286Y-80811961D01*
X121464286Y-80811961D02*
X121511905Y-80907200D01*
X121511905Y-80907200D02*
X121607143Y-80954819D01*
X121607143Y-80954819D02*
X121702381Y-80954819D01*
X123583333Y-84704819D02*
X123250000Y-84228628D01*
X123011905Y-84704819D02*
X123011905Y-83704819D01*
X123011905Y-83704819D02*
X123392857Y-83704819D01*
X123392857Y-83704819D02*
X123488095Y-83752438D01*
X123488095Y-83752438D02*
X123535714Y-83800057D01*
X123535714Y-83800057D02*
X123583333Y-83895295D01*
X123583333Y-83895295D02*
X123583333Y-84038152D01*
X123583333Y-84038152D02*
X123535714Y-84133390D01*
X123535714Y-84133390D02*
X123488095Y-84181009D01*
X123488095Y-84181009D02*
X123392857Y-84228628D01*
X123392857Y-84228628D02*
X123011905Y-84228628D01*
X124154762Y-84133390D02*
X124059524Y-84085771D01*
X124059524Y-84085771D02*
X124011905Y-84038152D01*
X124011905Y-84038152D02*
X123964286Y-83942914D01*
X123964286Y-83942914D02*
X123964286Y-83895295D01*
X123964286Y-83895295D02*
X124011905Y-83800057D01*
X124011905Y-83800057D02*
X124059524Y-83752438D01*
X124059524Y-83752438D02*
X124154762Y-83704819D01*
X124154762Y-83704819D02*
X124345238Y-83704819D01*
X124345238Y-83704819D02*
X124440476Y-83752438D01*
X124440476Y-83752438D02*
X124488095Y-83800057D01*
X124488095Y-83800057D02*
X124535714Y-83895295D01*
X124535714Y-83895295D02*
X124535714Y-83942914D01*
X124535714Y-83942914D02*
X124488095Y-84038152D01*
X124488095Y-84038152D02*
X124440476Y-84085771D01*
X124440476Y-84085771D02*
X124345238Y-84133390D01*
X124345238Y-84133390D02*
X124154762Y-84133390D01*
X124154762Y-84133390D02*
X124059524Y-84181009D01*
X124059524Y-84181009D02*
X124011905Y-84228628D01*
X124011905Y-84228628D02*
X123964286Y-84323866D01*
X123964286Y-84323866D02*
X123964286Y-84514342D01*
X123964286Y-84514342D02*
X124011905Y-84609580D01*
X124011905Y-84609580D02*
X124059524Y-84657200D01*
X124059524Y-84657200D02*
X124154762Y-84704819D01*
X124154762Y-84704819D02*
X124345238Y-84704819D01*
X124345238Y-84704819D02*
X124440476Y-84657200D01*
X124440476Y-84657200D02*
X124488095Y-84609580D01*
X124488095Y-84609580D02*
X124535714Y-84514342D01*
X124535714Y-84514342D02*
X124535714Y-84323866D01*
X124535714Y-84323866D02*
X124488095Y-84228628D01*
X124488095Y-84228628D02*
X124440476Y-84181009D01*
X124440476Y-84181009D02*
X124345238Y-84133390D01*
X154380952Y-92931009D02*
X154523809Y-92978628D01*
X154523809Y-92978628D02*
X154571428Y-93026247D01*
X154571428Y-93026247D02*
X154619047Y-93121485D01*
X154619047Y-93121485D02*
X154619047Y-93264342D01*
X154619047Y-93264342D02*
X154571428Y-93359580D01*
X154571428Y-93359580D02*
X154523809Y-93407200D01*
X154523809Y-93407200D02*
X154428571Y-93454819D01*
X154428571Y-93454819D02*
X154047619Y-93454819D01*
X154047619Y-93454819D02*
X154047619Y-92454819D01*
X154047619Y-92454819D02*
X154380952Y-92454819D01*
X154380952Y-92454819D02*
X154476190Y-92502438D01*
X154476190Y-92502438D02*
X154523809Y-92550057D01*
X154523809Y-92550057D02*
X154571428Y-92645295D01*
X154571428Y-92645295D02*
X154571428Y-92740533D01*
X154571428Y-92740533D02*
X154523809Y-92835771D01*
X154523809Y-92835771D02*
X154476190Y-92883390D01*
X154476190Y-92883390D02*
X154380952Y-92931009D01*
X154380952Y-92931009D02*
X154047619Y-92931009D01*
X155190476Y-93454819D02*
X155095238Y-93407200D01*
X155095238Y-93407200D02*
X155047619Y-93359580D01*
X155047619Y-93359580D02*
X155000000Y-93264342D01*
X155000000Y-93264342D02*
X155000000Y-92978628D01*
X155000000Y-92978628D02*
X155047619Y-92883390D01*
X155047619Y-92883390D02*
X155095238Y-92835771D01*
X155095238Y-92835771D02*
X155190476Y-92788152D01*
X155190476Y-92788152D02*
X155333333Y-92788152D01*
X155333333Y-92788152D02*
X155428571Y-92835771D01*
X155428571Y-92835771D02*
X155476190Y-92883390D01*
X155476190Y-92883390D02*
X155523809Y-92978628D01*
X155523809Y-92978628D02*
X155523809Y-93264342D01*
X155523809Y-93264342D02*
X155476190Y-93359580D01*
X155476190Y-93359580D02*
X155428571Y-93407200D01*
X155428571Y-93407200D02*
X155333333Y-93454819D01*
X155333333Y-93454819D02*
X155190476Y-93454819D01*
X156095238Y-93454819D02*
X156000000Y-93407200D01*
X156000000Y-93407200D02*
X155952381Y-93359580D01*
X155952381Y-93359580D02*
X155904762Y-93264342D01*
X155904762Y-93264342D02*
X155904762Y-92978628D01*
X155904762Y-92978628D02*
X155952381Y-92883390D01*
X155952381Y-92883390D02*
X156000000Y-92835771D01*
X156000000Y-92835771D02*
X156095238Y-92788152D01*
X156095238Y-92788152D02*
X156238095Y-92788152D01*
X156238095Y-92788152D02*
X156333333Y-92835771D01*
X156333333Y-92835771D02*
X156380952Y-92883390D01*
X156380952Y-92883390D02*
X156428571Y-92978628D01*
X156428571Y-92978628D02*
X156428571Y-93264342D01*
X156428571Y-93264342D02*
X156380952Y-93359580D01*
X156380952Y-93359580D02*
X156333333Y-93407200D01*
X156333333Y-93407200D02*
X156238095Y-93454819D01*
X156238095Y-93454819D02*
X156095238Y-93454819D01*
X156714286Y-92788152D02*
X157095238Y-92788152D01*
X156857143Y-92454819D02*
X156857143Y-93311961D01*
X156857143Y-93311961D02*
X156904762Y-93407200D01*
X156904762Y-93407200D02*
X157000000Y-93454819D01*
X157000000Y-93454819D02*
X157095238Y-93454819D01*
D11*
X114844999Y-103513842D02*
X115026428Y-103574318D01*
X115026428Y-103574318D02*
X115328809Y-103574318D01*
X115328809Y-103574318D02*
X115449761Y-103513842D01*
X115449761Y-103513842D02*
X115510237Y-103453365D01*
X115510237Y-103453365D02*
X115570714Y-103332413D01*
X115570714Y-103332413D02*
X115570714Y-103211461D01*
X115570714Y-103211461D02*
X115510237Y-103090508D01*
X115510237Y-103090508D02*
X115449761Y-103030032D01*
X115449761Y-103030032D02*
X115328809Y-102969556D01*
X115328809Y-102969556D02*
X115086904Y-102909080D01*
X115086904Y-102909080D02*
X114965952Y-102848603D01*
X114965952Y-102848603D02*
X114905475Y-102788127D01*
X114905475Y-102788127D02*
X114844999Y-102667175D01*
X114844999Y-102667175D02*
X114844999Y-102546222D01*
X114844999Y-102546222D02*
X114905475Y-102425270D01*
X114905475Y-102425270D02*
X114965952Y-102364794D01*
X114965952Y-102364794D02*
X115086904Y-102304318D01*
X115086904Y-102304318D02*
X115389285Y-102304318D01*
X115389285Y-102304318D02*
X115570714Y-102364794D01*
X116114999Y-103574318D02*
X116114999Y-102304318D01*
X116114999Y-102304318D02*
X116598809Y-102304318D01*
X116598809Y-102304318D02*
X116719761Y-102364794D01*
X116719761Y-102364794D02*
X116780238Y-102425270D01*
X116780238Y-102425270D02*
X116840714Y-102546222D01*
X116840714Y-102546222D02*
X116840714Y-102727651D01*
X116840714Y-102727651D02*
X116780238Y-102848603D01*
X116780238Y-102848603D02*
X116719761Y-102909080D01*
X116719761Y-102909080D02*
X116598809Y-102969556D01*
X116598809Y-102969556D02*
X116114999Y-102969556D01*
X117384999Y-103574318D02*
X117384999Y-102304318D01*
X118655000Y-103574318D02*
X117929285Y-103574318D01*
X118292142Y-103574318D02*
X118292142Y-102304318D01*
X118292142Y-102304318D02*
X118171190Y-102485746D01*
X118171190Y-102485746D02*
X118050238Y-102606699D01*
X118050238Y-102606699D02*
X117929285Y-102667175D01*
X103655475Y-58324318D02*
X103655475Y-57054318D01*
X104199761Y-57175270D02*
X104260237Y-57114794D01*
X104260237Y-57114794D02*
X104381190Y-57054318D01*
X104381190Y-57054318D02*
X104683571Y-57054318D01*
X104683571Y-57054318D02*
X104804523Y-57114794D01*
X104804523Y-57114794D02*
X104864999Y-57175270D01*
X104864999Y-57175270D02*
X104925476Y-57296222D01*
X104925476Y-57296222D02*
X104925476Y-57417175D01*
X104925476Y-57417175D02*
X104864999Y-57598603D01*
X104864999Y-57598603D02*
X104139285Y-58324318D01*
X104139285Y-58324318D02*
X104925476Y-58324318D01*
X106195476Y-58203365D02*
X106135000Y-58263842D01*
X106135000Y-58263842D02*
X105953571Y-58324318D01*
X105953571Y-58324318D02*
X105832619Y-58324318D01*
X105832619Y-58324318D02*
X105651190Y-58263842D01*
X105651190Y-58263842D02*
X105530238Y-58142889D01*
X105530238Y-58142889D02*
X105469761Y-58021937D01*
X105469761Y-58021937D02*
X105409285Y-57780032D01*
X105409285Y-57780032D02*
X105409285Y-57598603D01*
X105409285Y-57598603D02*
X105469761Y-57356699D01*
X105469761Y-57356699D02*
X105530238Y-57235746D01*
X105530238Y-57235746D02*
X105651190Y-57114794D01*
X105651190Y-57114794D02*
X105832619Y-57054318D01*
X105832619Y-57054318D02*
X105953571Y-57054318D01*
X105953571Y-57054318D02*
X106135000Y-57114794D01*
X106135000Y-57114794D02*
X106195476Y-57175270D01*
X107405000Y-58324318D02*
X106679285Y-58324318D01*
X107042142Y-58324318D02*
X107042142Y-57054318D01*
X107042142Y-57054318D02*
X106921190Y-57235746D01*
X106921190Y-57235746D02*
X106800238Y-57356699D01*
X106800238Y-57356699D02*
X106679285Y-57417175D01*
D10*
X114954819Y-91392857D02*
X114478628Y-91726190D01*
X114954819Y-91964285D02*
X113954819Y-91964285D01*
X113954819Y-91964285D02*
X113954819Y-91583333D01*
X113954819Y-91583333D02*
X114002438Y-91488095D01*
X114002438Y-91488095D02*
X114050057Y-91440476D01*
X114050057Y-91440476D02*
X114145295Y-91392857D01*
X114145295Y-91392857D02*
X114288152Y-91392857D01*
X114288152Y-91392857D02*
X114383390Y-91440476D01*
X114383390Y-91440476D02*
X114431009Y-91488095D01*
X114431009Y-91488095D02*
X114478628Y-91583333D01*
X114478628Y-91583333D02*
X114478628Y-91964285D01*
X114954819Y-90440476D02*
X114954819Y-91011904D01*
X114954819Y-90726190D02*
X113954819Y-90726190D01*
X113954819Y-90726190D02*
X114097676Y-90821428D01*
X114097676Y-90821428D02*
X114192914Y-90916666D01*
X114192914Y-90916666D02*
X114240533Y-91011904D01*
X114954819Y-89488095D02*
X114954819Y-90059523D01*
X114954819Y-89773809D02*
X113954819Y-89773809D01*
X113954819Y-89773809D02*
X114097676Y-89869047D01*
X114097676Y-89869047D02*
X114192914Y-89964285D01*
X114192914Y-89964285D02*
X114240533Y-90059523D01*
D11*
X138375238Y-95114794D02*
X138254285Y-95054318D01*
X138254285Y-95054318D02*
X138072857Y-95054318D01*
X138072857Y-95054318D02*
X137891428Y-95114794D01*
X137891428Y-95114794D02*
X137770476Y-95235746D01*
X137770476Y-95235746D02*
X137709999Y-95356699D01*
X137709999Y-95356699D02*
X137649523Y-95598603D01*
X137649523Y-95598603D02*
X137649523Y-95780032D01*
X137649523Y-95780032D02*
X137709999Y-96021937D01*
X137709999Y-96021937D02*
X137770476Y-96142889D01*
X137770476Y-96142889D02*
X137891428Y-96263842D01*
X137891428Y-96263842D02*
X138072857Y-96324318D01*
X138072857Y-96324318D02*
X138193809Y-96324318D01*
X138193809Y-96324318D02*
X138375238Y-96263842D01*
X138375238Y-96263842D02*
X138435714Y-96203365D01*
X138435714Y-96203365D02*
X138435714Y-95780032D01*
X138435714Y-95780032D02*
X138193809Y-95780032D01*
X138979999Y-96324318D02*
X138979999Y-95054318D01*
X138979999Y-95054318D02*
X139463809Y-95054318D01*
X139463809Y-95054318D02*
X139584761Y-95114794D01*
X139584761Y-95114794D02*
X139645238Y-95175270D01*
X139645238Y-95175270D02*
X139705714Y-95296222D01*
X139705714Y-95296222D02*
X139705714Y-95477651D01*
X139705714Y-95477651D02*
X139645238Y-95598603D01*
X139645238Y-95598603D02*
X139584761Y-95659080D01*
X139584761Y-95659080D02*
X139463809Y-95719556D01*
X139463809Y-95719556D02*
X138979999Y-95719556D01*
X140249999Y-96324318D02*
X140249999Y-95054318D01*
X141096666Y-95054318D02*
X141338571Y-95054318D01*
X141338571Y-95054318D02*
X141459523Y-95114794D01*
X141459523Y-95114794D02*
X141580476Y-95235746D01*
X141580476Y-95235746D02*
X141640952Y-95477651D01*
X141640952Y-95477651D02*
X141640952Y-95900984D01*
X141640952Y-95900984D02*
X141580476Y-96142889D01*
X141580476Y-96142889D02*
X141459523Y-96263842D01*
X141459523Y-96263842D02*
X141338571Y-96324318D01*
X141338571Y-96324318D02*
X141096666Y-96324318D01*
X141096666Y-96324318D02*
X140975714Y-96263842D01*
X140975714Y-96263842D02*
X140854761Y-96142889D01*
X140854761Y-96142889D02*
X140794285Y-95900984D01*
X140794285Y-95900984D02*
X140794285Y-95477651D01*
X140794285Y-95477651D02*
X140854761Y-95235746D01*
X140854761Y-95235746D02*
X140975714Y-95114794D01*
X140975714Y-95114794D02*
X141096666Y-95054318D01*
X142427142Y-95054318D02*
X142548095Y-95054318D01*
X142548095Y-95054318D02*
X142669047Y-95114794D01*
X142669047Y-95114794D02*
X142729523Y-95175270D01*
X142729523Y-95175270D02*
X142789999Y-95296222D01*
X142789999Y-95296222D02*
X142850476Y-95538127D01*
X142850476Y-95538127D02*
X142850476Y-95840508D01*
X142850476Y-95840508D02*
X142789999Y-96082413D01*
X142789999Y-96082413D02*
X142729523Y-96203365D01*
X142729523Y-96203365D02*
X142669047Y-96263842D01*
X142669047Y-96263842D02*
X142548095Y-96324318D01*
X142548095Y-96324318D02*
X142427142Y-96324318D01*
X142427142Y-96324318D02*
X142306190Y-96263842D01*
X142306190Y-96263842D02*
X142245714Y-96203365D01*
X142245714Y-96203365D02*
X142185237Y-96082413D01*
X142185237Y-96082413D02*
X142124761Y-95840508D01*
X142124761Y-95840508D02*
X142124761Y-95538127D01*
X142124761Y-95538127D02*
X142185237Y-95296222D01*
X142185237Y-95296222D02*
X142245714Y-95175270D01*
X142245714Y-95175270D02*
X142306190Y-95114794D01*
X142306190Y-95114794D02*
X142427142Y-95054318D01*
X114844999Y-112263842D02*
X115026428Y-112324318D01*
X115026428Y-112324318D02*
X115328809Y-112324318D01*
X115328809Y-112324318D02*
X115449761Y-112263842D01*
X115449761Y-112263842D02*
X115510237Y-112203365D01*
X115510237Y-112203365D02*
X115570714Y-112082413D01*
X115570714Y-112082413D02*
X115570714Y-111961461D01*
X115570714Y-111961461D02*
X115510237Y-111840508D01*
X115510237Y-111840508D02*
X115449761Y-111780032D01*
X115449761Y-111780032D02*
X115328809Y-111719556D01*
X115328809Y-111719556D02*
X115086904Y-111659080D01*
X115086904Y-111659080D02*
X114965952Y-111598603D01*
X114965952Y-111598603D02*
X114905475Y-111538127D01*
X114905475Y-111538127D02*
X114844999Y-111417175D01*
X114844999Y-111417175D02*
X114844999Y-111296222D01*
X114844999Y-111296222D02*
X114905475Y-111175270D01*
X114905475Y-111175270D02*
X114965952Y-111114794D01*
X114965952Y-111114794D02*
X115086904Y-111054318D01*
X115086904Y-111054318D02*
X115389285Y-111054318D01*
X115389285Y-111054318D02*
X115570714Y-111114794D01*
X116114999Y-112324318D02*
X116114999Y-111054318D01*
X116114999Y-111054318D02*
X116598809Y-111054318D01*
X116598809Y-111054318D02*
X116719761Y-111114794D01*
X116719761Y-111114794D02*
X116780238Y-111175270D01*
X116780238Y-111175270D02*
X116840714Y-111296222D01*
X116840714Y-111296222D02*
X116840714Y-111477651D01*
X116840714Y-111477651D02*
X116780238Y-111598603D01*
X116780238Y-111598603D02*
X116719761Y-111659080D01*
X116719761Y-111659080D02*
X116598809Y-111719556D01*
X116598809Y-111719556D02*
X116114999Y-111719556D01*
X117384999Y-112324318D02*
X117384999Y-111054318D01*
X117929285Y-111175270D02*
X117989761Y-111114794D01*
X117989761Y-111114794D02*
X118110714Y-111054318D01*
X118110714Y-111054318D02*
X118413095Y-111054318D01*
X118413095Y-111054318D02*
X118534047Y-111114794D01*
X118534047Y-111114794D02*
X118594523Y-111175270D01*
X118594523Y-111175270D02*
X118655000Y-111296222D01*
X118655000Y-111296222D02*
X118655000Y-111417175D01*
X118655000Y-111417175D02*
X118594523Y-111598603D01*
X118594523Y-111598603D02*
X117868809Y-112324318D01*
X117868809Y-112324318D02*
X118655000Y-112324318D01*
X165625238Y-95114794D02*
X165504285Y-95054318D01*
X165504285Y-95054318D02*
X165322857Y-95054318D01*
X165322857Y-95054318D02*
X165141428Y-95114794D01*
X165141428Y-95114794D02*
X165020476Y-95235746D01*
X165020476Y-95235746D02*
X164959999Y-95356699D01*
X164959999Y-95356699D02*
X164899523Y-95598603D01*
X164899523Y-95598603D02*
X164899523Y-95780032D01*
X164899523Y-95780032D02*
X164959999Y-96021937D01*
X164959999Y-96021937D02*
X165020476Y-96142889D01*
X165020476Y-96142889D02*
X165141428Y-96263842D01*
X165141428Y-96263842D02*
X165322857Y-96324318D01*
X165322857Y-96324318D02*
X165443809Y-96324318D01*
X165443809Y-96324318D02*
X165625238Y-96263842D01*
X165625238Y-96263842D02*
X165685714Y-96203365D01*
X165685714Y-96203365D02*
X165685714Y-95780032D01*
X165685714Y-95780032D02*
X165443809Y-95780032D01*
X166229999Y-96324318D02*
X166229999Y-95054318D01*
X166229999Y-95054318D02*
X166713809Y-95054318D01*
X166713809Y-95054318D02*
X166834761Y-95114794D01*
X166834761Y-95114794D02*
X166895238Y-95175270D01*
X166895238Y-95175270D02*
X166955714Y-95296222D01*
X166955714Y-95296222D02*
X166955714Y-95477651D01*
X166955714Y-95477651D02*
X166895238Y-95598603D01*
X166895238Y-95598603D02*
X166834761Y-95659080D01*
X166834761Y-95659080D02*
X166713809Y-95719556D01*
X166713809Y-95719556D02*
X166229999Y-95719556D01*
X167499999Y-96324318D02*
X167499999Y-95054318D01*
X168346666Y-95054318D02*
X168588571Y-95054318D01*
X168588571Y-95054318D02*
X168709523Y-95114794D01*
X168709523Y-95114794D02*
X168830476Y-95235746D01*
X168830476Y-95235746D02*
X168890952Y-95477651D01*
X168890952Y-95477651D02*
X168890952Y-95900984D01*
X168890952Y-95900984D02*
X168830476Y-96142889D01*
X168830476Y-96142889D02*
X168709523Y-96263842D01*
X168709523Y-96263842D02*
X168588571Y-96324318D01*
X168588571Y-96324318D02*
X168346666Y-96324318D01*
X168346666Y-96324318D02*
X168225714Y-96263842D01*
X168225714Y-96263842D02*
X168104761Y-96142889D01*
X168104761Y-96142889D02*
X168044285Y-95900984D01*
X168044285Y-95900984D02*
X168044285Y-95477651D01*
X168044285Y-95477651D02*
X168104761Y-95235746D01*
X168104761Y-95235746D02*
X168225714Y-95114794D01*
X168225714Y-95114794D02*
X168346666Y-95054318D01*
X169314285Y-95054318D02*
X170100476Y-95054318D01*
X170100476Y-95054318D02*
X169677142Y-95538127D01*
X169677142Y-95538127D02*
X169858571Y-95538127D01*
X169858571Y-95538127D02*
X169979523Y-95598603D01*
X169979523Y-95598603D02*
X170039999Y-95659080D01*
X170039999Y-95659080D02*
X170100476Y-95780032D01*
X170100476Y-95780032D02*
X170100476Y-96082413D01*
X170100476Y-96082413D02*
X170039999Y-96203365D01*
X170039999Y-96203365D02*
X169979523Y-96263842D01*
X169979523Y-96263842D02*
X169858571Y-96324318D01*
X169858571Y-96324318D02*
X169495714Y-96324318D01*
X169495714Y-96324318D02*
X169374761Y-96263842D01*
X169374761Y-96263842D02*
X169314285Y-96203365D01*
D10*
X121109580Y-91416666D02*
X121157200Y-91464285D01*
X121157200Y-91464285D02*
X121204819Y-91607142D01*
X121204819Y-91607142D02*
X121204819Y-91702380D01*
X121204819Y-91702380D02*
X121157200Y-91845237D01*
X121157200Y-91845237D02*
X121061961Y-91940475D01*
X121061961Y-91940475D02*
X120966723Y-91988094D01*
X120966723Y-91988094D02*
X120776247Y-92035713D01*
X120776247Y-92035713D02*
X120633390Y-92035713D01*
X120633390Y-92035713D02*
X120442914Y-91988094D01*
X120442914Y-91988094D02*
X120347676Y-91940475D01*
X120347676Y-91940475D02*
X120252438Y-91845237D01*
X120252438Y-91845237D02*
X120204819Y-91702380D01*
X120204819Y-91702380D02*
X120204819Y-91607142D01*
X120204819Y-91607142D02*
X120252438Y-91464285D01*
X120252438Y-91464285D02*
X120300057Y-91416666D01*
X120300057Y-91035713D02*
X120252438Y-90988094D01*
X120252438Y-90988094D02*
X120204819Y-90892856D01*
X120204819Y-90892856D02*
X120204819Y-90654761D01*
X120204819Y-90654761D02*
X120252438Y-90559523D01*
X120252438Y-90559523D02*
X120300057Y-90511904D01*
X120300057Y-90511904D02*
X120395295Y-90464285D01*
X120395295Y-90464285D02*
X120490533Y-90464285D01*
X120490533Y-90464285D02*
X120633390Y-90511904D01*
X120633390Y-90511904D02*
X121204819Y-91083332D01*
X121204819Y-91083332D02*
X121204819Y-90464285D01*
X113488095Y-84704819D02*
X113488095Y-85514342D01*
X113488095Y-85514342D02*
X113535714Y-85609580D01*
X113535714Y-85609580D02*
X113583333Y-85657200D01*
X113583333Y-85657200D02*
X113678571Y-85704819D01*
X113678571Y-85704819D02*
X113869047Y-85704819D01*
X113869047Y-85704819D02*
X113964285Y-85657200D01*
X113964285Y-85657200D02*
X114011904Y-85609580D01*
X114011904Y-85609580D02*
X114059523Y-85514342D01*
X114059523Y-85514342D02*
X114059523Y-84704819D01*
X114488095Y-84800057D02*
X114535714Y-84752438D01*
X114535714Y-84752438D02*
X114630952Y-84704819D01*
X114630952Y-84704819D02*
X114869047Y-84704819D01*
X114869047Y-84704819D02*
X114964285Y-84752438D01*
X114964285Y-84752438D02*
X115011904Y-84800057D01*
X115011904Y-84800057D02*
X115059523Y-84895295D01*
X115059523Y-84895295D02*
X115059523Y-84990533D01*
X115059523Y-84990533D02*
X115011904Y-85133390D01*
X115011904Y-85133390D02*
X114440476Y-85704819D01*
X114440476Y-85704819D02*
X115059523Y-85704819D01*
D11*
X156125238Y-95114794D02*
X156004285Y-95054318D01*
X156004285Y-95054318D02*
X155822857Y-95054318D01*
X155822857Y-95054318D02*
X155641428Y-95114794D01*
X155641428Y-95114794D02*
X155520476Y-95235746D01*
X155520476Y-95235746D02*
X155459999Y-95356699D01*
X155459999Y-95356699D02*
X155399523Y-95598603D01*
X155399523Y-95598603D02*
X155399523Y-95780032D01*
X155399523Y-95780032D02*
X155459999Y-96021937D01*
X155459999Y-96021937D02*
X155520476Y-96142889D01*
X155520476Y-96142889D02*
X155641428Y-96263842D01*
X155641428Y-96263842D02*
X155822857Y-96324318D01*
X155822857Y-96324318D02*
X155943809Y-96324318D01*
X155943809Y-96324318D02*
X156125238Y-96263842D01*
X156125238Y-96263842D02*
X156185714Y-96203365D01*
X156185714Y-96203365D02*
X156185714Y-95780032D01*
X156185714Y-95780032D02*
X155943809Y-95780032D01*
X156729999Y-96324318D02*
X156729999Y-95054318D01*
X156729999Y-95054318D02*
X157213809Y-95054318D01*
X157213809Y-95054318D02*
X157334761Y-95114794D01*
X157334761Y-95114794D02*
X157395238Y-95175270D01*
X157395238Y-95175270D02*
X157455714Y-95296222D01*
X157455714Y-95296222D02*
X157455714Y-95477651D01*
X157455714Y-95477651D02*
X157395238Y-95598603D01*
X157395238Y-95598603D02*
X157334761Y-95659080D01*
X157334761Y-95659080D02*
X157213809Y-95719556D01*
X157213809Y-95719556D02*
X156729999Y-95719556D01*
X157999999Y-96324318D02*
X157999999Y-95054318D01*
X158846666Y-95054318D02*
X159088571Y-95054318D01*
X159088571Y-95054318D02*
X159209523Y-95114794D01*
X159209523Y-95114794D02*
X159330476Y-95235746D01*
X159330476Y-95235746D02*
X159390952Y-95477651D01*
X159390952Y-95477651D02*
X159390952Y-95900984D01*
X159390952Y-95900984D02*
X159330476Y-96142889D01*
X159330476Y-96142889D02*
X159209523Y-96263842D01*
X159209523Y-96263842D02*
X159088571Y-96324318D01*
X159088571Y-96324318D02*
X158846666Y-96324318D01*
X158846666Y-96324318D02*
X158725714Y-96263842D01*
X158725714Y-96263842D02*
X158604761Y-96142889D01*
X158604761Y-96142889D02*
X158544285Y-95900984D01*
X158544285Y-95900984D02*
X158544285Y-95477651D01*
X158544285Y-95477651D02*
X158604761Y-95235746D01*
X158604761Y-95235746D02*
X158725714Y-95114794D01*
X158725714Y-95114794D02*
X158846666Y-95054318D01*
X159874761Y-95175270D02*
X159935237Y-95114794D01*
X159935237Y-95114794D02*
X160056190Y-95054318D01*
X160056190Y-95054318D02*
X160358571Y-95054318D01*
X160358571Y-95054318D02*
X160479523Y-95114794D01*
X160479523Y-95114794D02*
X160539999Y-95175270D01*
X160539999Y-95175270D02*
X160600476Y-95296222D01*
X160600476Y-95296222D02*
X160600476Y-95417175D01*
X160600476Y-95417175D02*
X160539999Y-95598603D01*
X160539999Y-95598603D02*
X159814285Y-96324318D01*
X159814285Y-96324318D02*
X160600476Y-96324318D01*
D10*
X124738095Y-90454819D02*
X124738095Y-91264342D01*
X124738095Y-91264342D02*
X124785714Y-91359580D01*
X124785714Y-91359580D02*
X124833333Y-91407200D01*
X124833333Y-91407200D02*
X124928571Y-91454819D01*
X124928571Y-91454819D02*
X125119047Y-91454819D01*
X125119047Y-91454819D02*
X125214285Y-91407200D01*
X125214285Y-91407200D02*
X125261904Y-91359580D01*
X125261904Y-91359580D02*
X125309523Y-91264342D01*
X125309523Y-91264342D02*
X125309523Y-90454819D01*
X126309523Y-91454819D02*
X125738095Y-91454819D01*
X126023809Y-91454819D02*
X126023809Y-90454819D01*
X126023809Y-90454819D02*
X125928571Y-90597676D01*
X125928571Y-90597676D02*
X125833333Y-90692914D01*
X125833333Y-90692914D02*
X125738095Y-90740533D01*
X120083333Y-72939580D02*
X120035714Y-72987200D01*
X120035714Y-72987200D02*
X119892857Y-73034819D01*
X119892857Y-73034819D02*
X119797619Y-73034819D01*
X119797619Y-73034819D02*
X119654762Y-72987200D01*
X119654762Y-72987200D02*
X119559524Y-72891961D01*
X119559524Y-72891961D02*
X119511905Y-72796723D01*
X119511905Y-72796723D02*
X119464286Y-72606247D01*
X119464286Y-72606247D02*
X119464286Y-72463390D01*
X119464286Y-72463390D02*
X119511905Y-72272914D01*
X119511905Y-72272914D02*
X119559524Y-72177676D01*
X119559524Y-72177676D02*
X119654762Y-72082438D01*
X119654762Y-72082438D02*
X119797619Y-72034819D01*
X119797619Y-72034819D02*
X119892857Y-72034819D01*
X119892857Y-72034819D02*
X120035714Y-72082438D01*
X120035714Y-72082438D02*
X120083333Y-72130057D01*
X121035714Y-73034819D02*
X120464286Y-73034819D01*
X120750000Y-73034819D02*
X120750000Y-72034819D01*
X120750000Y-72034819D02*
X120654762Y-72177676D01*
X120654762Y-72177676D02*
X120559524Y-72272914D01*
X120559524Y-72272914D02*
X120464286Y-72320533D01*
X110509580Y-76416666D02*
X110557200Y-76464285D01*
X110557200Y-76464285D02*
X110604819Y-76607142D01*
X110604819Y-76607142D02*
X110604819Y-76702380D01*
X110604819Y-76702380D02*
X110557200Y-76845237D01*
X110557200Y-76845237D02*
X110461961Y-76940475D01*
X110461961Y-76940475D02*
X110366723Y-76988094D01*
X110366723Y-76988094D02*
X110176247Y-77035713D01*
X110176247Y-77035713D02*
X110033390Y-77035713D01*
X110033390Y-77035713D02*
X109842914Y-76988094D01*
X109842914Y-76988094D02*
X109747676Y-76940475D01*
X109747676Y-76940475D02*
X109652438Y-76845237D01*
X109652438Y-76845237D02*
X109604819Y-76702380D01*
X109604819Y-76702380D02*
X109604819Y-76607142D01*
X109604819Y-76607142D02*
X109652438Y-76464285D01*
X109652438Y-76464285D02*
X109700057Y-76416666D01*
X109604819Y-75511904D02*
X109604819Y-75988094D01*
X109604819Y-75988094D02*
X110081009Y-76035713D01*
X110081009Y-76035713D02*
X110033390Y-75988094D01*
X110033390Y-75988094D02*
X109985771Y-75892856D01*
X109985771Y-75892856D02*
X109985771Y-75654761D01*
X109985771Y-75654761D02*
X110033390Y-75559523D01*
X110033390Y-75559523D02*
X110081009Y-75511904D01*
X110081009Y-75511904D02*
X110176247Y-75464285D01*
X110176247Y-75464285D02*
X110414342Y-75464285D01*
X110414342Y-75464285D02*
X110509580Y-75511904D01*
X110509580Y-75511904D02*
X110557200Y-75559523D01*
X110557200Y-75559523D02*
X110604819Y-75654761D01*
X110604819Y-75654761D02*
X110604819Y-75892856D01*
X110604819Y-75892856D02*
X110557200Y-75988094D01*
X110557200Y-75988094D02*
X110509580Y-76035713D01*
X108583333Y-78454819D02*
X108250000Y-77978628D01*
X108011905Y-78454819D02*
X108011905Y-77454819D01*
X108011905Y-77454819D02*
X108392857Y-77454819D01*
X108392857Y-77454819D02*
X108488095Y-77502438D01*
X108488095Y-77502438D02*
X108535714Y-77550057D01*
X108535714Y-77550057D02*
X108583333Y-77645295D01*
X108583333Y-77645295D02*
X108583333Y-77788152D01*
X108583333Y-77788152D02*
X108535714Y-77883390D01*
X108535714Y-77883390D02*
X108488095Y-77931009D01*
X108488095Y-77931009D02*
X108392857Y-77978628D01*
X108392857Y-77978628D02*
X108011905Y-77978628D01*
X109488095Y-77454819D02*
X109011905Y-77454819D01*
X109011905Y-77454819D02*
X108964286Y-77931009D01*
X108964286Y-77931009D02*
X109011905Y-77883390D01*
X109011905Y-77883390D02*
X109107143Y-77835771D01*
X109107143Y-77835771D02*
X109345238Y-77835771D01*
X109345238Y-77835771D02*
X109440476Y-77883390D01*
X109440476Y-77883390D02*
X109488095Y-77931009D01*
X109488095Y-77931009D02*
X109535714Y-78026247D01*
X109535714Y-78026247D02*
X109535714Y-78264342D01*
X109535714Y-78264342D02*
X109488095Y-78359580D01*
X109488095Y-78359580D02*
X109440476Y-78407200D01*
X109440476Y-78407200D02*
X109345238Y-78454819D01*
X109345238Y-78454819D02*
X109107143Y-78454819D01*
X109107143Y-78454819D02*
X109011905Y-78407200D01*
X109011905Y-78407200D02*
X108964286Y-78359580D01*
D11*
X160290475Y-70074318D02*
X160290475Y-68804318D01*
X160834761Y-68925270D02*
X160895237Y-68864794D01*
X160895237Y-68864794D02*
X161016190Y-68804318D01*
X161016190Y-68804318D02*
X161318571Y-68804318D01*
X161318571Y-68804318D02*
X161439523Y-68864794D01*
X161439523Y-68864794D02*
X161499999Y-68925270D01*
X161499999Y-68925270D02*
X161560476Y-69046222D01*
X161560476Y-69046222D02*
X161560476Y-69167175D01*
X161560476Y-69167175D02*
X161499999Y-69348603D01*
X161499999Y-69348603D02*
X160774285Y-70074318D01*
X160774285Y-70074318D02*
X161560476Y-70074318D01*
X162044285Y-70013842D02*
X162225714Y-70074318D01*
X162225714Y-70074318D02*
X162528095Y-70074318D01*
X162528095Y-70074318D02*
X162649047Y-70013842D01*
X162649047Y-70013842D02*
X162709523Y-69953365D01*
X162709523Y-69953365D02*
X162770000Y-69832413D01*
X162770000Y-69832413D02*
X162770000Y-69711461D01*
X162770000Y-69711461D02*
X162709523Y-69590508D01*
X162709523Y-69590508D02*
X162649047Y-69530032D01*
X162649047Y-69530032D02*
X162528095Y-69469556D01*
X162528095Y-69469556D02*
X162286190Y-69409080D01*
X162286190Y-69409080D02*
X162165238Y-69348603D01*
X162165238Y-69348603D02*
X162104761Y-69288127D01*
X162104761Y-69288127D02*
X162044285Y-69167175D01*
X162044285Y-69167175D02*
X162044285Y-69046222D01*
X162044285Y-69046222D02*
X162104761Y-68925270D01*
X162104761Y-68925270D02*
X162165238Y-68864794D01*
X162165238Y-68864794D02*
X162286190Y-68804318D01*
X162286190Y-68804318D02*
X162588571Y-68804318D01*
X162588571Y-68804318D02*
X162770000Y-68864794D01*
D10*
X112524819Y-107916666D02*
X112048628Y-108249999D01*
X112524819Y-108488094D02*
X111524819Y-108488094D01*
X111524819Y-108488094D02*
X111524819Y-108107142D01*
X111524819Y-108107142D02*
X111572438Y-108011904D01*
X111572438Y-108011904D02*
X111620057Y-107964285D01*
X111620057Y-107964285D02*
X111715295Y-107916666D01*
X111715295Y-107916666D02*
X111858152Y-107916666D01*
X111858152Y-107916666D02*
X111953390Y-107964285D01*
X111953390Y-107964285D02*
X112001009Y-108011904D01*
X112001009Y-108011904D02*
X112048628Y-108107142D01*
X112048628Y-108107142D02*
X112048628Y-108488094D01*
X111620057Y-107535713D02*
X111572438Y-107488094D01*
X111572438Y-107488094D02*
X111524819Y-107392856D01*
X111524819Y-107392856D02*
X111524819Y-107154761D01*
X111524819Y-107154761D02*
X111572438Y-107059523D01*
X111572438Y-107059523D02*
X111620057Y-107011904D01*
X111620057Y-107011904D02*
X111715295Y-106964285D01*
X111715295Y-106964285D02*
X111810533Y-106964285D01*
X111810533Y-106964285D02*
X111953390Y-107011904D01*
X111953390Y-107011904D02*
X112524819Y-107583332D01*
X112524819Y-107583332D02*
X112524819Y-106964285D01*
X108833333Y-65954819D02*
X108500000Y-65478628D01*
X108261905Y-65954819D02*
X108261905Y-64954819D01*
X108261905Y-64954819D02*
X108642857Y-64954819D01*
X108642857Y-64954819D02*
X108738095Y-65002438D01*
X108738095Y-65002438D02*
X108785714Y-65050057D01*
X108785714Y-65050057D02*
X108833333Y-65145295D01*
X108833333Y-65145295D02*
X108833333Y-65288152D01*
X108833333Y-65288152D02*
X108785714Y-65383390D01*
X108785714Y-65383390D02*
X108738095Y-65431009D01*
X108738095Y-65431009D02*
X108642857Y-65478628D01*
X108642857Y-65478628D02*
X108261905Y-65478628D01*
X109166667Y-64954819D02*
X109833333Y-64954819D01*
X109833333Y-64954819D02*
X109404762Y-65954819D01*
X107357142Y-83704819D02*
X107023809Y-83228628D01*
X106785714Y-83704819D02*
X106785714Y-82704819D01*
X106785714Y-82704819D02*
X107166666Y-82704819D01*
X107166666Y-82704819D02*
X107261904Y-82752438D01*
X107261904Y-82752438D02*
X107309523Y-82800057D01*
X107309523Y-82800057D02*
X107357142Y-82895295D01*
X107357142Y-82895295D02*
X107357142Y-83038152D01*
X107357142Y-83038152D02*
X107309523Y-83133390D01*
X107309523Y-83133390D02*
X107261904Y-83181009D01*
X107261904Y-83181009D02*
X107166666Y-83228628D01*
X107166666Y-83228628D02*
X106785714Y-83228628D01*
X108309523Y-83704819D02*
X107738095Y-83704819D01*
X108023809Y-83704819D02*
X108023809Y-82704819D01*
X108023809Y-82704819D02*
X107928571Y-82847676D01*
X107928571Y-82847676D02*
X107833333Y-82942914D01*
X107833333Y-82942914D02*
X107738095Y-82990533D01*
X108642857Y-82704819D02*
X109261904Y-82704819D01*
X109261904Y-82704819D02*
X108928571Y-83085771D01*
X108928571Y-83085771D02*
X109071428Y-83085771D01*
X109071428Y-83085771D02*
X109166666Y-83133390D01*
X109166666Y-83133390D02*
X109214285Y-83181009D01*
X109214285Y-83181009D02*
X109261904Y-83276247D01*
X109261904Y-83276247D02*
X109261904Y-83514342D01*
X109261904Y-83514342D02*
X109214285Y-83609580D01*
X109214285Y-83609580D02*
X109166666Y-83657200D01*
X109166666Y-83657200D02*
X109071428Y-83704819D01*
X109071428Y-83704819D02*
X108785714Y-83704819D01*
X108785714Y-83704819D02*
X108690476Y-83657200D01*
X108690476Y-83657200D02*
X108642857Y-83609580D01*
D11*
X103655475Y-115824318D02*
X103655475Y-114554318D01*
X104199761Y-114675270D02*
X104260237Y-114614794D01*
X104260237Y-114614794D02*
X104381190Y-114554318D01*
X104381190Y-114554318D02*
X104683571Y-114554318D01*
X104683571Y-114554318D02*
X104804523Y-114614794D01*
X104804523Y-114614794D02*
X104864999Y-114675270D01*
X104864999Y-114675270D02*
X104925476Y-114796222D01*
X104925476Y-114796222D02*
X104925476Y-114917175D01*
X104925476Y-114917175D02*
X104864999Y-115098603D01*
X104864999Y-115098603D02*
X104139285Y-115824318D01*
X104139285Y-115824318D02*
X104925476Y-115824318D01*
X106195476Y-115703365D02*
X106135000Y-115763842D01*
X106135000Y-115763842D02*
X105953571Y-115824318D01*
X105953571Y-115824318D02*
X105832619Y-115824318D01*
X105832619Y-115824318D02*
X105651190Y-115763842D01*
X105651190Y-115763842D02*
X105530238Y-115642889D01*
X105530238Y-115642889D02*
X105469761Y-115521937D01*
X105469761Y-115521937D02*
X105409285Y-115280032D01*
X105409285Y-115280032D02*
X105409285Y-115098603D01*
X105409285Y-115098603D02*
X105469761Y-114856699D01*
X105469761Y-114856699D02*
X105530238Y-114735746D01*
X105530238Y-114735746D02*
X105651190Y-114614794D01*
X105651190Y-114614794D02*
X105832619Y-114554318D01*
X105832619Y-114554318D02*
X105953571Y-114554318D01*
X105953571Y-114554318D02*
X106135000Y-114614794D01*
X106135000Y-114614794D02*
X106195476Y-114675270D01*
X106981666Y-114554318D02*
X107102619Y-114554318D01*
X107102619Y-114554318D02*
X107223571Y-114614794D01*
X107223571Y-114614794D02*
X107284047Y-114675270D01*
X107284047Y-114675270D02*
X107344523Y-114796222D01*
X107344523Y-114796222D02*
X107405000Y-115038127D01*
X107405000Y-115038127D02*
X107405000Y-115340508D01*
X107405000Y-115340508D02*
X107344523Y-115582413D01*
X107344523Y-115582413D02*
X107284047Y-115703365D01*
X107284047Y-115703365D02*
X107223571Y-115763842D01*
X107223571Y-115763842D02*
X107102619Y-115824318D01*
X107102619Y-115824318D02*
X106981666Y-115824318D01*
X106981666Y-115824318D02*
X106860714Y-115763842D01*
X106860714Y-115763842D02*
X106800238Y-115703365D01*
X106800238Y-115703365D02*
X106739761Y-115582413D01*
X106739761Y-115582413D02*
X106679285Y-115340508D01*
X106679285Y-115340508D02*
X106679285Y-115038127D01*
X106679285Y-115038127D02*
X106739761Y-114796222D01*
X106739761Y-114796222D02*
X106800238Y-114675270D01*
X106800238Y-114675270D02*
X106860714Y-114614794D01*
X106860714Y-114614794D02*
X106981666Y-114554318D01*
D10*
X108107142Y-88704819D02*
X107773809Y-88228628D01*
X107535714Y-88704819D02*
X107535714Y-87704819D01*
X107535714Y-87704819D02*
X107916666Y-87704819D01*
X107916666Y-87704819D02*
X108011904Y-87752438D01*
X108011904Y-87752438D02*
X108059523Y-87800057D01*
X108059523Y-87800057D02*
X108107142Y-87895295D01*
X108107142Y-87895295D02*
X108107142Y-88038152D01*
X108107142Y-88038152D02*
X108059523Y-88133390D01*
X108059523Y-88133390D02*
X108011904Y-88181009D01*
X108011904Y-88181009D02*
X107916666Y-88228628D01*
X107916666Y-88228628D02*
X107535714Y-88228628D01*
X109059523Y-88704819D02*
X108488095Y-88704819D01*
X108773809Y-88704819D02*
X108773809Y-87704819D01*
X108773809Y-87704819D02*
X108678571Y-87847676D01*
X108678571Y-87847676D02*
X108583333Y-87942914D01*
X108583333Y-87942914D02*
X108488095Y-87990533D01*
X109440476Y-87800057D02*
X109488095Y-87752438D01*
X109488095Y-87752438D02*
X109583333Y-87704819D01*
X109583333Y-87704819D02*
X109821428Y-87704819D01*
X109821428Y-87704819D02*
X109916666Y-87752438D01*
X109916666Y-87752438D02*
X109964285Y-87800057D01*
X109964285Y-87800057D02*
X110011904Y-87895295D01*
X110011904Y-87895295D02*
X110011904Y-87990533D01*
X110011904Y-87990533D02*
X109964285Y-88133390D01*
X109964285Y-88133390D02*
X109392857Y-88704819D01*
X109392857Y-88704819D02*
X110011904Y-88704819D01*
X122833333Y-90524819D02*
X122500000Y-90048628D01*
X122261905Y-90524819D02*
X122261905Y-89524819D01*
X122261905Y-89524819D02*
X122642857Y-89524819D01*
X122642857Y-89524819D02*
X122738095Y-89572438D01*
X122738095Y-89572438D02*
X122785714Y-89620057D01*
X122785714Y-89620057D02*
X122833333Y-89715295D01*
X122833333Y-89715295D02*
X122833333Y-89858152D01*
X122833333Y-89858152D02*
X122785714Y-89953390D01*
X122785714Y-89953390D02*
X122738095Y-90001009D01*
X122738095Y-90001009D02*
X122642857Y-90048628D01*
X122642857Y-90048628D02*
X122261905Y-90048628D01*
X123309524Y-90524819D02*
X123500000Y-90524819D01*
X123500000Y-90524819D02*
X123595238Y-90477200D01*
X123595238Y-90477200D02*
X123642857Y-90429580D01*
X123642857Y-90429580D02*
X123738095Y-90286723D01*
X123738095Y-90286723D02*
X123785714Y-90096247D01*
X123785714Y-90096247D02*
X123785714Y-89715295D01*
X123785714Y-89715295D02*
X123738095Y-89620057D01*
X123738095Y-89620057D02*
X123690476Y-89572438D01*
X123690476Y-89572438D02*
X123595238Y-89524819D01*
X123595238Y-89524819D02*
X123404762Y-89524819D01*
X123404762Y-89524819D02*
X123309524Y-89572438D01*
X123309524Y-89572438D02*
X123261905Y-89620057D01*
X123261905Y-89620057D02*
X123214286Y-89715295D01*
X123214286Y-89715295D02*
X123214286Y-89953390D01*
X123214286Y-89953390D02*
X123261905Y-90048628D01*
X123261905Y-90048628D02*
X123309524Y-90096247D01*
X123309524Y-90096247D02*
X123404762Y-90143866D01*
X123404762Y-90143866D02*
X123595238Y-90143866D01*
X123595238Y-90143866D02*
X123690476Y-90096247D01*
X123690476Y-90096247D02*
X123738095Y-90048628D01*
X123738095Y-90048628D02*
X123785714Y-89953390D01*
X149833333Y-86259580D02*
X149785714Y-86307200D01*
X149785714Y-86307200D02*
X149642857Y-86354819D01*
X149642857Y-86354819D02*
X149547619Y-86354819D01*
X149547619Y-86354819D02*
X149404762Y-86307200D01*
X149404762Y-86307200D02*
X149309524Y-86211961D01*
X149309524Y-86211961D02*
X149261905Y-86116723D01*
X149261905Y-86116723D02*
X149214286Y-85926247D01*
X149214286Y-85926247D02*
X149214286Y-85783390D01*
X149214286Y-85783390D02*
X149261905Y-85592914D01*
X149261905Y-85592914D02*
X149309524Y-85497676D01*
X149309524Y-85497676D02*
X149404762Y-85402438D01*
X149404762Y-85402438D02*
X149547619Y-85354819D01*
X149547619Y-85354819D02*
X149642857Y-85354819D01*
X149642857Y-85354819D02*
X149785714Y-85402438D01*
X149785714Y-85402438D02*
X149833333Y-85450057D01*
X150690476Y-85354819D02*
X150500000Y-85354819D01*
X150500000Y-85354819D02*
X150404762Y-85402438D01*
X150404762Y-85402438D02*
X150357143Y-85450057D01*
X150357143Y-85450057D02*
X150261905Y-85592914D01*
X150261905Y-85592914D02*
X150214286Y-85783390D01*
X150214286Y-85783390D02*
X150214286Y-86164342D01*
X150214286Y-86164342D02*
X150261905Y-86259580D01*
X150261905Y-86259580D02*
X150309524Y-86307200D01*
X150309524Y-86307200D02*
X150404762Y-86354819D01*
X150404762Y-86354819D02*
X150595238Y-86354819D01*
X150595238Y-86354819D02*
X150690476Y-86307200D01*
X150690476Y-86307200D02*
X150738095Y-86259580D01*
X150738095Y-86259580D02*
X150785714Y-86164342D01*
X150785714Y-86164342D02*
X150785714Y-85926247D01*
X150785714Y-85926247D02*
X150738095Y-85831009D01*
X150738095Y-85831009D02*
X150690476Y-85783390D01*
X150690476Y-85783390D02*
X150595238Y-85735771D01*
X150595238Y-85735771D02*
X150404762Y-85735771D01*
X150404762Y-85735771D02*
X150309524Y-85783390D01*
X150309524Y-85783390D02*
X150261905Y-85831009D01*
X150261905Y-85831009D02*
X150214286Y-85926247D01*
D11*
X114844999Y-96263842D02*
X115026428Y-96324318D01*
X115026428Y-96324318D02*
X115328809Y-96324318D01*
X115328809Y-96324318D02*
X115449761Y-96263842D01*
X115449761Y-96263842D02*
X115510237Y-96203365D01*
X115510237Y-96203365D02*
X115570714Y-96082413D01*
X115570714Y-96082413D02*
X115570714Y-95961461D01*
X115570714Y-95961461D02*
X115510237Y-95840508D01*
X115510237Y-95840508D02*
X115449761Y-95780032D01*
X115449761Y-95780032D02*
X115328809Y-95719556D01*
X115328809Y-95719556D02*
X115086904Y-95659080D01*
X115086904Y-95659080D02*
X114965952Y-95598603D01*
X114965952Y-95598603D02*
X114905475Y-95538127D01*
X114905475Y-95538127D02*
X114844999Y-95417175D01*
X114844999Y-95417175D02*
X114844999Y-95296222D01*
X114844999Y-95296222D02*
X114905475Y-95175270D01*
X114905475Y-95175270D02*
X114965952Y-95114794D01*
X114965952Y-95114794D02*
X115086904Y-95054318D01*
X115086904Y-95054318D02*
X115389285Y-95054318D01*
X115389285Y-95054318D02*
X115570714Y-95114794D01*
X116114999Y-96324318D02*
X116114999Y-95054318D01*
X116114999Y-95054318D02*
X116598809Y-95054318D01*
X116598809Y-95054318D02*
X116719761Y-95114794D01*
X116719761Y-95114794D02*
X116780238Y-95175270D01*
X116780238Y-95175270D02*
X116840714Y-95296222D01*
X116840714Y-95296222D02*
X116840714Y-95477651D01*
X116840714Y-95477651D02*
X116780238Y-95598603D01*
X116780238Y-95598603D02*
X116719761Y-95659080D01*
X116719761Y-95659080D02*
X116598809Y-95719556D01*
X116598809Y-95719556D02*
X116114999Y-95719556D01*
X117384999Y-96324318D02*
X117384999Y-95054318D01*
X118231666Y-95054318D02*
X118352619Y-95054318D01*
X118352619Y-95054318D02*
X118473571Y-95114794D01*
X118473571Y-95114794D02*
X118534047Y-95175270D01*
X118534047Y-95175270D02*
X118594523Y-95296222D01*
X118594523Y-95296222D02*
X118655000Y-95538127D01*
X118655000Y-95538127D02*
X118655000Y-95840508D01*
X118655000Y-95840508D02*
X118594523Y-96082413D01*
X118594523Y-96082413D02*
X118534047Y-96203365D01*
X118534047Y-96203365D02*
X118473571Y-96263842D01*
X118473571Y-96263842D02*
X118352619Y-96324318D01*
X118352619Y-96324318D02*
X118231666Y-96324318D01*
X118231666Y-96324318D02*
X118110714Y-96263842D01*
X118110714Y-96263842D02*
X118050238Y-96203365D01*
X118050238Y-96203365D02*
X117989761Y-96082413D01*
X117989761Y-96082413D02*
X117929285Y-95840508D01*
X117929285Y-95840508D02*
X117929285Y-95538127D01*
X117929285Y-95538127D02*
X117989761Y-95296222D01*
X117989761Y-95296222D02*
X118050238Y-95175270D01*
X118050238Y-95175270D02*
X118110714Y-95114794D01*
X118110714Y-95114794D02*
X118231666Y-95054318D01*
X147125238Y-95114794D02*
X147004285Y-95054318D01*
X147004285Y-95054318D02*
X146822857Y-95054318D01*
X146822857Y-95054318D02*
X146641428Y-95114794D01*
X146641428Y-95114794D02*
X146520476Y-95235746D01*
X146520476Y-95235746D02*
X146459999Y-95356699D01*
X146459999Y-95356699D02*
X146399523Y-95598603D01*
X146399523Y-95598603D02*
X146399523Y-95780032D01*
X146399523Y-95780032D02*
X146459999Y-96021937D01*
X146459999Y-96021937D02*
X146520476Y-96142889D01*
X146520476Y-96142889D02*
X146641428Y-96263842D01*
X146641428Y-96263842D02*
X146822857Y-96324318D01*
X146822857Y-96324318D02*
X146943809Y-96324318D01*
X146943809Y-96324318D02*
X147125238Y-96263842D01*
X147125238Y-96263842D02*
X147185714Y-96203365D01*
X147185714Y-96203365D02*
X147185714Y-95780032D01*
X147185714Y-95780032D02*
X146943809Y-95780032D01*
X147729999Y-96324318D02*
X147729999Y-95054318D01*
X147729999Y-95054318D02*
X148213809Y-95054318D01*
X148213809Y-95054318D02*
X148334761Y-95114794D01*
X148334761Y-95114794D02*
X148395238Y-95175270D01*
X148395238Y-95175270D02*
X148455714Y-95296222D01*
X148455714Y-95296222D02*
X148455714Y-95477651D01*
X148455714Y-95477651D02*
X148395238Y-95598603D01*
X148395238Y-95598603D02*
X148334761Y-95659080D01*
X148334761Y-95659080D02*
X148213809Y-95719556D01*
X148213809Y-95719556D02*
X147729999Y-95719556D01*
X148999999Y-96324318D02*
X148999999Y-95054318D01*
X149846666Y-95054318D02*
X150088571Y-95054318D01*
X150088571Y-95054318D02*
X150209523Y-95114794D01*
X150209523Y-95114794D02*
X150330476Y-95235746D01*
X150330476Y-95235746D02*
X150390952Y-95477651D01*
X150390952Y-95477651D02*
X150390952Y-95900984D01*
X150390952Y-95900984D02*
X150330476Y-96142889D01*
X150330476Y-96142889D02*
X150209523Y-96263842D01*
X150209523Y-96263842D02*
X150088571Y-96324318D01*
X150088571Y-96324318D02*
X149846666Y-96324318D01*
X149846666Y-96324318D02*
X149725714Y-96263842D01*
X149725714Y-96263842D02*
X149604761Y-96142889D01*
X149604761Y-96142889D02*
X149544285Y-95900984D01*
X149544285Y-95900984D02*
X149544285Y-95477651D01*
X149544285Y-95477651D02*
X149604761Y-95235746D01*
X149604761Y-95235746D02*
X149725714Y-95114794D01*
X149725714Y-95114794D02*
X149846666Y-95054318D01*
X151600476Y-96324318D02*
X150874761Y-96324318D01*
X151237618Y-96324318D02*
X151237618Y-95054318D01*
X151237618Y-95054318D02*
X151116666Y-95235746D01*
X151116666Y-95235746D02*
X150995714Y-95356699D01*
X150995714Y-95356699D02*
X150874761Y-95417175D01*
D10*
X110333333Y-94109580D02*
X110285714Y-94157200D01*
X110285714Y-94157200D02*
X110142857Y-94204819D01*
X110142857Y-94204819D02*
X110047619Y-94204819D01*
X110047619Y-94204819D02*
X109904762Y-94157200D01*
X109904762Y-94157200D02*
X109809524Y-94061961D01*
X109809524Y-94061961D02*
X109761905Y-93966723D01*
X109761905Y-93966723D02*
X109714286Y-93776247D01*
X109714286Y-93776247D02*
X109714286Y-93633390D01*
X109714286Y-93633390D02*
X109761905Y-93442914D01*
X109761905Y-93442914D02*
X109809524Y-93347676D01*
X109809524Y-93347676D02*
X109904762Y-93252438D01*
X109904762Y-93252438D02*
X110047619Y-93204819D01*
X110047619Y-93204819D02*
X110142857Y-93204819D01*
X110142857Y-93204819D02*
X110285714Y-93252438D01*
X110285714Y-93252438D02*
X110333333Y-93300057D01*
X111190476Y-93538152D02*
X111190476Y-94204819D01*
X110952381Y-93157200D02*
X110714286Y-93871485D01*
X110714286Y-93871485D02*
X111333333Y-93871485D01*
X109583333Y-98204819D02*
X109250000Y-97728628D01*
X109011905Y-98204819D02*
X109011905Y-97204819D01*
X109011905Y-97204819D02*
X109392857Y-97204819D01*
X109392857Y-97204819D02*
X109488095Y-97252438D01*
X109488095Y-97252438D02*
X109535714Y-97300057D01*
X109535714Y-97300057D02*
X109583333Y-97395295D01*
X109583333Y-97395295D02*
X109583333Y-97538152D01*
X109583333Y-97538152D02*
X109535714Y-97633390D01*
X109535714Y-97633390D02*
X109488095Y-97681009D01*
X109488095Y-97681009D02*
X109392857Y-97728628D01*
X109392857Y-97728628D02*
X109011905Y-97728628D01*
X110440476Y-97204819D02*
X110250000Y-97204819D01*
X110250000Y-97204819D02*
X110154762Y-97252438D01*
X110154762Y-97252438D02*
X110107143Y-97300057D01*
X110107143Y-97300057D02*
X110011905Y-97442914D01*
X110011905Y-97442914D02*
X109964286Y-97633390D01*
X109964286Y-97633390D02*
X109964286Y-98014342D01*
X109964286Y-98014342D02*
X110011905Y-98109580D01*
X110011905Y-98109580D02*
X110059524Y-98157200D01*
X110059524Y-98157200D02*
X110154762Y-98204819D01*
X110154762Y-98204819D02*
X110345238Y-98204819D01*
X110345238Y-98204819D02*
X110440476Y-98157200D01*
X110440476Y-98157200D02*
X110488095Y-98109580D01*
X110488095Y-98109580D02*
X110535714Y-98014342D01*
X110535714Y-98014342D02*
X110535714Y-97776247D01*
X110535714Y-97776247D02*
X110488095Y-97681009D01*
X110488095Y-97681009D02*
X110440476Y-97633390D01*
X110440476Y-97633390D02*
X110345238Y-97585771D01*
X110345238Y-97585771D02*
X110154762Y-97585771D01*
X110154762Y-97585771D02*
X110059524Y-97633390D01*
X110059524Y-97633390D02*
X110011905Y-97681009D01*
X110011905Y-97681009D02*
X109964286Y-97776247D01*
D12*
%TO.C,USB-C*%
X100450000Y-82910000D02*
X102150000Y-82910000D01*
X100450000Y-92250000D02*
X102150000Y-92250000D01*
%TO.C,R3*%
X115272936Y-76340000D02*
X116727064Y-76340000D01*
X115272936Y-78160000D02*
X116727064Y-78160000D01*
%TO.C,C3*%
X117840000Y-83851248D02*
X117840000Y-85273752D01*
X119660000Y-83851248D02*
X119660000Y-85273752D01*
%TO.C,Reset*%
X109540000Y-79150000D02*
X115660000Y-79150000D01*
X109540000Y-82850000D02*
X109540000Y-79150000D01*
X115660000Y-79150000D02*
X115660000Y-82850000D01*
X115660000Y-82850000D02*
X109540000Y-82850000D01*
%TO.C,R8*%
X123727064Y-85090000D02*
X122272936Y-85090000D01*
X123727064Y-86910000D02*
X122272936Y-86910000D01*
%TO.C,Boot*%
X147440000Y-89400000D02*
X153560000Y-89400000D01*
X147440000Y-93100000D02*
X147440000Y-89400000D01*
X153560000Y-89400000D02*
X153560000Y-93100000D01*
X153560000Y-93100000D02*
X147440000Y-93100000D01*
D13*
%TO.C,SPI1*%
X114750000Y-105080000D02*
X133950000Y-105080000D01*
X114750000Y-110080000D02*
X114750000Y-105080000D01*
X133950000Y-105080000D02*
X133950000Y-110080000D01*
X133950000Y-110080000D02*
X114750000Y-110080000D01*
D14*
X114050000Y-107580000D02*
G75*
G02*
X113950000Y-107580000I-50000J0D01*
G01*
X113950000Y-107580000D02*
G75*
G02*
X114050000Y-107580000I50000J0D01*
G01*
%TO.C,I2C1*%
X97100000Y-60030000D02*
X97100000Y-80630000D01*
X97100000Y-80630000D02*
X97650000Y-80630000D01*
X97650000Y-60030000D02*
X97100000Y-60030000D01*
X103850000Y-80630000D02*
X104600000Y-80630000D01*
X104600000Y-60030000D02*
X103850000Y-60030000D01*
X104600000Y-63130000D02*
X104600000Y-60030000D01*
X104600000Y-80630000D02*
X104600000Y-77530000D01*
D13*
X107150000Y-64080000D02*
X107150000Y-64080000D01*
X107250000Y-64080000D02*
X107250000Y-64080000D01*
X107150000Y-64080000D02*
G75*
G02*
X107250000Y-64080000I50000J0D01*
G01*
X107250000Y-64080000D02*
G75*
G02*
X107150000Y-64080000I-50000J0D01*
G01*
D12*
%TO.C,R11*%
X115440000Y-90297064D02*
X115440000Y-88842936D01*
X117260000Y-90297064D02*
X117260000Y-88842936D01*
D13*
%TO.C,GPIO0*%
X137600000Y-97480000D02*
X142600000Y-97480000D01*
X137600000Y-119180000D02*
X137600000Y-97480000D01*
X142600000Y-97480000D02*
X142600000Y-119180000D01*
X142600000Y-119180000D02*
X137600000Y-119180000D01*
D14*
X140150000Y-96730000D02*
G75*
G02*
X140050000Y-96730000I-50000J0D01*
G01*
X140050000Y-96730000D02*
G75*
G02*
X140150000Y-96730000I50000J0D01*
G01*
D13*
%TO.C,SPI2*%
X114750000Y-113330000D02*
X133950000Y-113330000D01*
X114750000Y-118330000D02*
X114750000Y-113330000D01*
X133950000Y-113330000D02*
X133950000Y-118330000D01*
X133950000Y-118330000D02*
X114750000Y-118330000D01*
D14*
X114050000Y-115830000D02*
G75*
G02*
X113950000Y-115830000I-50000J0D01*
G01*
X113950000Y-115830000D02*
G75*
G02*
X114050000Y-115830000I50000J0D01*
G01*
D13*
%TO.C,GPIO3*%
X164850000Y-97480000D02*
X169850000Y-97480000D01*
X164850000Y-119180000D02*
X164850000Y-97480000D01*
X169850000Y-97480000D02*
X169850000Y-119180000D01*
X169850000Y-119180000D02*
X164850000Y-119180000D01*
D14*
X167400000Y-96730000D02*
G75*
G02*
X167300000Y-96730000I-50000J0D01*
G01*
X167300000Y-96730000D02*
G75*
G02*
X167400000Y-96730000I50000J0D01*
G01*
D12*
%TO.C,C2*%
X117840000Y-90273752D02*
X117840000Y-88851248D01*
X119660000Y-90273752D02*
X119660000Y-88851248D01*
%TO.C,U2*%
X113500000Y-86090000D02*
X112450000Y-86090000D01*
X113500000Y-88070000D02*
X112200000Y-88070000D01*
X112080000Y-86090000D02*
X111800000Y-86090000D01*
X112080000Y-85810000D01*
X112080000Y-86090000D01*
G36*
X112080000Y-86090000D02*
G01*
X111800000Y-86090000D01*
X112080000Y-85810000D01*
X112080000Y-86090000D01*
G37*
D13*
%TO.C,GPIO2*%
X155766666Y-97480000D02*
X160766666Y-97480000D01*
X155766666Y-119180000D02*
X155766666Y-97480000D01*
X160766666Y-97480000D02*
X160766666Y-119180000D01*
X160766666Y-119180000D02*
X155766666Y-119180000D01*
D14*
X158316666Y-96730000D02*
G75*
G02*
X158216666Y-96730000I-50000J0D01*
G01*
X158216666Y-96730000D02*
G75*
G02*
X158316666Y-96730000I50000J0D01*
G01*
D12*
%TO.C,U1*%
X126300000Y-63820000D02*
X126300000Y-70020000D01*
X126300000Y-63820000D02*
X144700000Y-63820000D01*
X126300000Y-88670000D02*
X126300000Y-89670000D01*
X126300000Y-89670000D02*
X127800000Y-89670000D01*
X144700000Y-63820000D02*
X144700000Y-70020000D01*
X144700000Y-89670000D02*
X143200000Y-89670000D01*
X144700000Y-89670000D02*
X144700000Y-88670000D01*
X126300000Y-70695000D02*
X125800000Y-70695000D01*
X126300000Y-70195000D01*
X126300000Y-70695000D01*
G36*
X126300000Y-70695000D02*
G01*
X125800000Y-70695000D01*
X126300000Y-70195000D01*
X126300000Y-70695000D01*
G37*
%TO.C,C1*%
X121440000Y-71868748D02*
X121440000Y-73291252D01*
X123260000Y-71868748D02*
X123260000Y-73291252D01*
%TO.C,C5*%
X111090000Y-76961252D02*
X111090000Y-75538748D01*
X112910000Y-76961252D02*
X112910000Y-75538748D01*
%TO.C,R5*%
X107940000Y-72602936D02*
X107940000Y-74057064D01*
X109760000Y-72602936D02*
X109760000Y-74057064D01*
D13*
%TO.C,I2S*%
X170175000Y-71540000D02*
X170175000Y-89640000D01*
D14*
X161975000Y-89440000D02*
G75*
G02*
X161875000Y-89440000I-50000J0D01*
G01*
X161875000Y-89440000D02*
G75*
G02*
X161975000Y-89440000I50000J0D01*
G01*
D12*
%TO.C,R2*%
X109340000Y-107022936D02*
X109340000Y-108477064D01*
X111160000Y-107022936D02*
X111160000Y-108477064D01*
%TO.C,R7*%
X107940000Y-67602936D02*
X107940000Y-69057064D01*
X109760000Y-67602936D02*
X109760000Y-69057064D01*
%TO.C,R13*%
X111477064Y-83840000D02*
X110022936Y-83840000D01*
X111477064Y-85660000D02*
X110022936Y-85660000D01*
D13*
%TO.C,I2C0*%
X97187500Y-113042500D02*
X97187500Y-94942500D01*
D14*
X105487500Y-95142500D02*
G75*
G02*
X105387500Y-95142500I-50000J0D01*
G01*
X105387500Y-95142500D02*
G75*
G02*
X105487500Y-95142500I50000J0D01*
G01*
D12*
%TO.C,R12*%
X106940000Y-91857064D02*
X106940000Y-90402936D01*
X108760000Y-91857064D02*
X108760000Y-90402936D01*
%TO.C,R9*%
X123727064Y-87340000D02*
X122272936Y-87340000D01*
X123727064Y-89160000D02*
X122272936Y-89160000D01*
%TO.C,C6*%
X149288748Y-86840000D02*
X150711252Y-86840000D01*
X149288748Y-88660000D02*
X150711252Y-88660000D01*
D13*
%TO.C,SPI0*%
X114750000Y-96830000D02*
X133950000Y-96830000D01*
X114750000Y-101830000D02*
X114750000Y-96830000D01*
X133950000Y-96830000D02*
X133950000Y-101830000D01*
X133950000Y-101830000D02*
X114750000Y-101830000D01*
D14*
X114050000Y-99330000D02*
G75*
G02*
X113950000Y-99330000I-50000J0D01*
G01*
X113950000Y-99330000D02*
G75*
G02*
X114050000Y-99330000I50000J0D01*
G01*
D13*
%TO.C,GPIO1*%
X146683333Y-97480000D02*
X151683333Y-97480000D01*
X146683333Y-119180000D02*
X146683333Y-97480000D01*
X151683333Y-97480000D02*
X151683333Y-119180000D01*
X151683333Y-119180000D02*
X146683333Y-119180000D01*
D14*
X149233333Y-96730000D02*
G75*
G02*
X149133333Y-96730000I-50000J0D01*
G01*
X149133333Y-96730000D02*
G75*
G02*
X149233333Y-96730000I50000J0D01*
G01*
D12*
%TO.C,C4*%
X111690000Y-90108748D02*
X111690000Y-91531252D01*
X113510000Y-90108748D02*
X113510000Y-91531252D01*
%TO.C,R6*%
X109352500Y-101625436D02*
X109352500Y-103079564D01*
X111172500Y-101625436D02*
X111172500Y-103079564D01*
%TD*%
M02*
