%TF.GenerationSoftware,KiCad,Pcbnew,8.0.8*%
%TF.CreationDate,2025-04-03T15:34:39+02:00*%
%TF.ProjectId,MCU,4d43552e-6b69-4636-9164-5f7063625858,rev?*%
%TF.SameCoordinates,Original*%
%TF.FileFunction,Copper,L2,Inr*%
%TF.FilePolarity,Positive*%
%FSLAX46Y46*%
G04 Gerber Fmt 4.6, Leading zero omitted, Abs format (unit mm)*
G04 Created by KiCad (PCBNEW 8.0.8) date 2025-04-03 15:34:39*
%MOMM*%
%LPD*%
G01*
G04 APERTURE LIST*
%TA.AperFunction,HeatsinkPad*%
%ADD10O,2.100000X1.000000*%
%TD*%
%TA.AperFunction,HeatsinkPad*%
%ADD11O,1.800000X1.000000*%
%TD*%
%TA.AperFunction,ComponentPad*%
%ADD12R,1.650000X1.650000*%
%TD*%
%TA.AperFunction,ComponentPad*%
%ADD13C,1.650000*%
%TD*%
%TA.AperFunction,HeatsinkPad*%
%ADD14C,0.600000*%
%TD*%
%TA.AperFunction,ViaPad*%
%ADD15C,0.600000*%
%TD*%
%TA.AperFunction,ViaPad*%
%ADD16C,0.700000*%
%TD*%
%TA.AperFunction,ViaPad*%
%ADD17C,1.500000*%
%TD*%
%TA.AperFunction,ViaPad*%
%ADD18C,1.300000*%
%TD*%
%TA.AperFunction,ViaPad*%
%ADD19C,1.200000*%
%TD*%
G04 APERTURE END LIST*
D10*
%TO.N,GND*%
%TO.C,USB-C*%
X103455000Y-83260000D03*
D11*
X99275000Y-83260000D03*
D10*
X103455000Y-91900000D03*
D11*
X99275000Y-91900000D03*
%TD*%
D12*
%TO.N,GND*%
%TO.C,SPI1*%
X116850000Y-107580000D03*
D13*
%TO.N,+3.3V*%
X119350000Y-107580000D03*
%TO.N,mosi*%
X121850000Y-107580000D03*
%TO.N,sck*%
X124350000Y-107580000D03*
%TO.N,miso*%
X126850000Y-107580000D03*
%TO.N,ss1*%
X129350000Y-107580000D03*
%TO.N,+5Vin*%
X131850000Y-107580000D03*
%TD*%
D12*
%TO.N,GND*%
%TO.C,GPIO0*%
X140100000Y-99580000D03*
D13*
%TO.N,+3.3V*%
X140100000Y-102080000D03*
%TO.N,io46*%
X140100000Y-104580000D03*
%TO.N,io7*%
X140100000Y-107080000D03*
%TO.N,io15*%
X140100000Y-109580000D03*
%TO.N,io16*%
X140100000Y-112080000D03*
%TO.N,io17*%
X140100000Y-114580000D03*
%TO.N,+5Vin*%
X140100000Y-117080000D03*
%TD*%
D12*
%TO.N,GND*%
%TO.C,SPI2*%
X116850000Y-115830000D03*
D13*
%TO.N,+3.3V*%
X119350000Y-115830000D03*
%TO.N,mosi*%
X121850000Y-115830000D03*
%TO.N,sck*%
X124350000Y-115830000D03*
%TO.N,miso*%
X126850000Y-115830000D03*
%TO.N,ss2*%
X129350000Y-115830000D03*
%TO.N,+5Vin*%
X131850000Y-115830000D03*
%TD*%
D12*
%TO.N,GND*%
%TO.C,GPIO3*%
X167350000Y-99580000D03*
D13*
%TO.N,+3.3V*%
X167350000Y-102080000D03*
%TO.N,io39*%
X167350000Y-104580000D03*
%TO.N,txd0*%
X167350000Y-107080000D03*
%TO.N,rxd0*%
X167350000Y-109580000D03*
%TO.N,io2*%
X167350000Y-112080000D03*
%TO.N,io1*%
X167350000Y-114580000D03*
%TO.N,+5Vin*%
X167350000Y-117080000D03*
%TD*%
D12*
%TO.N,GND*%
%TO.C,GPIO2*%
X158266666Y-99580000D03*
D13*
%TO.N,+3.3V*%
X158266666Y-102080000D03*
%TO.N,io45*%
X158266666Y-104580000D03*
%TO.N,io35*%
X158266666Y-107080000D03*
%TO.N,io36*%
X158266666Y-109580000D03*
%TO.N,io37*%
X158266666Y-112080000D03*
%TO.N,io38*%
X158266666Y-114580000D03*
%TO.N,+5Vin*%
X158266666Y-117080000D03*
%TD*%
D14*
%TO.N,GND*%
%TO.C,U1*%
X132600000Y-78480000D03*
X132600000Y-79880000D03*
X133300000Y-77780000D03*
X133300000Y-79180000D03*
X133300000Y-80580000D03*
X134000000Y-78480000D03*
X134000000Y-79880000D03*
X134700000Y-77780000D03*
X134700000Y-79180000D03*
X134700000Y-80580000D03*
X135400000Y-78480000D03*
X135400000Y-79880000D03*
%TD*%
D12*
%TO.N,GND*%
%TO.C,SPI0*%
X116850000Y-99330000D03*
D13*
%TO.N,+3.3V*%
X119350000Y-99330000D03*
%TO.N,mosi*%
X121850000Y-99330000D03*
%TO.N,sck*%
X124350000Y-99330000D03*
%TO.N,miso*%
X126850000Y-99330000D03*
%TO.N,ss0*%
X129350000Y-99330000D03*
%TO.N,+5Vin*%
X131850000Y-99330000D03*
%TD*%
D12*
%TO.N,GND*%
%TO.C,GPIO1*%
X149183333Y-99580000D03*
D13*
%TO.N,+3.3V*%
X149183333Y-102080000D03*
%TO.N,io18*%
X149183333Y-104580000D03*
%TO.N,io8*%
X149183333Y-107080000D03*
%TO.N,io21*%
X149183333Y-109580000D03*
%TO.N,io47*%
X149183333Y-112080000D03*
%TO.N,io48*%
X149183333Y-114580000D03*
%TO.N,+5Vin*%
X149183333Y-117080000D03*
%TD*%
D15*
%TO.N,GND*%
X159350000Y-85590000D03*
X120412500Y-71017500D03*
D16*
X112000000Y-76250000D03*
D15*
X118850000Y-84580000D03*
X106100000Y-92070000D03*
X109122500Y-98992500D03*
X105750000Y-83250000D03*
X110750000Y-87080000D03*
X110750000Y-84750000D03*
D16*
X153500000Y-88500000D03*
D15*
X110662500Y-92382500D03*
X145975000Y-71455000D03*
D17*
X109000000Y-64080000D03*
D15*
X118850000Y-92570000D03*
%TO.N,+3.3V*%
X110600000Y-68830000D03*
X110750000Y-99500000D03*
X120600000Y-89750000D03*
X120100000Y-74080000D03*
X110600000Y-72750000D03*
D16*
X114250000Y-75500000D03*
D17*
%TO.N,+5Vout*%
X106875000Y-84625000D03*
D18*
X107100000Y-74080000D03*
D19*
X106000000Y-90750000D03*
D15*
%TO.N,i2s sd*%
X158500000Y-75590000D03*
X145750000Y-77810000D03*
%TO.N,i2s sck*%
X145750000Y-80330000D03*
X158750000Y-80500000D03*
%TO.N,i2s ws*%
X145750000Y-79080000D03*
X158465000Y-78090000D03*
%TO.N,io15*%
X137850000Y-108830000D03*
X123410000Y-82640000D03*
D17*
%TO.N,+5Vin*%
X109100000Y-76580000D03*
X108500000Y-111102500D03*
D15*
%TO.N,io1*%
X156350000Y-81500000D03*
%TO.N,io7*%
X122350000Y-83500000D03*
X136700000Y-106330000D03*
%TO.N,io17*%
X125250000Y-83200000D03*
%TO.N,txd0*%
X154010000Y-81490000D03*
X164350000Y-100750000D03*
%TO.N,io16*%
X124400000Y-82250000D03*
%TO.N,rxd0*%
X163100000Y-100750000D03*
X152600000Y-81500000D03*
%TO.N,io18*%
X128600000Y-84160000D03*
%TO.N,io35*%
X145600000Y-86700000D03*
X151600000Y-100580000D03*
%TO.N,io21*%
X138675000Y-90580000D03*
%TO.N,ss0*%
X128350000Y-94500000D03*
%TO.N,io39*%
X162100000Y-100750000D03*
X162100000Y-103330000D03*
X145750000Y-81620000D03*
%TO.N,io47*%
X139850000Y-93080000D03*
%TO.N,scl1*%
X115100000Y-71830000D03*
X111850000Y-71830000D03*
%TO.N,scl0*%
X121350000Y-84250000D03*
D16*
X120750000Y-93720000D03*
D15*
%TO.N,ss2*%
X133850000Y-95580000D03*
%TO.N,reset*%
X125000000Y-74000000D03*
X120100000Y-77830000D03*
%TO.N,io2*%
X155100000Y-81500000D03*
%TO.N,io8*%
X128350000Y-85430000D03*
%TO.N,io46*%
X135450000Y-103330000D03*
D16*
X127000000Y-93250000D03*
%TD*%
%TA.AperFunction,Conductor*%
%TO.N,GND*%
G36*
X111443039Y-49520185D02*
G01*
X111488794Y-49572989D01*
X111500000Y-49624500D01*
X111500000Y-69970000D01*
X159500000Y-69970000D01*
X159500000Y-53878711D01*
X164149500Y-53878711D01*
X164149500Y-54121288D01*
X164181161Y-54361785D01*
X164243947Y-54596104D01*
X164336773Y-54820205D01*
X164336776Y-54820212D01*
X164458064Y-55030289D01*
X164458066Y-55030292D01*
X164458067Y-55030293D01*
X164605733Y-55222736D01*
X164605739Y-55222743D01*
X164777256Y-55394260D01*
X164777262Y-55394265D01*
X164969711Y-55541936D01*
X165179788Y-55663224D01*
X165403900Y-55756054D01*
X165638211Y-55818838D01*
X165818586Y-55842584D01*
X165878711Y-55850500D01*
X165878712Y-55850500D01*
X166121289Y-55850500D01*
X166169388Y-55844167D01*
X166361789Y-55818838D01*
X166596100Y-55756054D01*
X166820212Y-55663224D01*
X167030289Y-55541936D01*
X167222738Y-55394265D01*
X167394265Y-55222738D01*
X167541936Y-55030289D01*
X167663224Y-54820212D01*
X167756054Y-54596100D01*
X167818838Y-54361789D01*
X167850500Y-54121288D01*
X167850500Y-53878712D01*
X167818838Y-53638211D01*
X167756054Y-53403900D01*
X167663224Y-53179788D01*
X167541936Y-52969711D01*
X167394265Y-52777262D01*
X167394260Y-52777256D01*
X167222743Y-52605739D01*
X167222736Y-52605733D01*
X167030293Y-52458067D01*
X167030292Y-52458066D01*
X167030289Y-52458064D01*
X166820212Y-52336776D01*
X166820205Y-52336773D01*
X166596104Y-52243947D01*
X166361785Y-52181161D01*
X166121289Y-52149500D01*
X166121288Y-52149500D01*
X165878712Y-52149500D01*
X165878711Y-52149500D01*
X165638214Y-52181161D01*
X165403895Y-52243947D01*
X165179794Y-52336773D01*
X165179785Y-52336777D01*
X164969706Y-52458067D01*
X164777263Y-52605733D01*
X164777256Y-52605739D01*
X164605739Y-52777256D01*
X164605733Y-52777263D01*
X164458067Y-52969706D01*
X164336777Y-53179785D01*
X164336773Y-53179794D01*
X164243947Y-53403895D01*
X164181161Y-53638214D01*
X164149500Y-53878711D01*
X159500000Y-53878711D01*
X159500000Y-49624500D01*
X159519685Y-49557461D01*
X159572489Y-49511706D01*
X159624000Y-49500500D01*
X170375500Y-49500500D01*
X170442539Y-49520185D01*
X170488294Y-49572989D01*
X170499500Y-49624500D01*
X170499500Y-128375500D01*
X170479815Y-128442539D01*
X170427011Y-128488294D01*
X170375500Y-128499500D01*
X96624500Y-128499500D01*
X96557461Y-128479815D01*
X96511706Y-128427011D01*
X96500500Y-128375500D01*
X96500500Y-123878711D01*
X99149500Y-123878711D01*
X99149500Y-124121288D01*
X99181161Y-124361785D01*
X99243947Y-124596104D01*
X99336773Y-124820205D01*
X99336776Y-124820212D01*
X99458064Y-125030289D01*
X99458066Y-125030292D01*
X99458067Y-125030293D01*
X99605733Y-125222736D01*
X99605739Y-125222743D01*
X99777256Y-125394260D01*
X99777262Y-125394265D01*
X99969711Y-125541936D01*
X100179788Y-125663224D01*
X100403900Y-125756054D01*
X100638211Y-125818838D01*
X100818586Y-125842584D01*
X100878711Y-125850500D01*
X100878712Y-125850500D01*
X101121289Y-125850500D01*
X101169388Y-125844167D01*
X101361789Y-125818838D01*
X101596100Y-125756054D01*
X101820212Y-125663224D01*
X102030289Y-125541936D01*
X102222738Y-125394265D01*
X102394265Y-125222738D01*
X102541936Y-125030289D01*
X102663224Y-124820212D01*
X102756054Y-124596100D01*
X102818838Y-124361789D01*
X102850500Y-124121288D01*
X102850500Y-123878712D01*
X102850500Y-123878711D01*
X164149500Y-123878711D01*
X164149500Y-124121288D01*
X164181161Y-124361785D01*
X164243947Y-124596104D01*
X164336773Y-124820205D01*
X164336776Y-124820212D01*
X164458064Y-125030289D01*
X164458066Y-125030292D01*
X164458067Y-125030293D01*
X164605733Y-125222736D01*
X164605739Y-125222743D01*
X164777256Y-125394260D01*
X164777262Y-125394265D01*
X164969711Y-125541936D01*
X165179788Y-125663224D01*
X165403900Y-125756054D01*
X165638211Y-125818838D01*
X165818586Y-125842584D01*
X165878711Y-125850500D01*
X165878712Y-125850500D01*
X166121289Y-125850500D01*
X166169388Y-125844167D01*
X166361789Y-125818838D01*
X166596100Y-125756054D01*
X166820212Y-125663224D01*
X167030289Y-125541936D01*
X167222738Y-125394265D01*
X167394265Y-125222738D01*
X167541936Y-125030289D01*
X167663224Y-124820212D01*
X167756054Y-124596100D01*
X167818838Y-124361789D01*
X167850500Y-124121288D01*
X167850500Y-123878712D01*
X167818838Y-123638211D01*
X167756054Y-123403900D01*
X167663224Y-123179788D01*
X167541936Y-122969711D01*
X167394265Y-122777262D01*
X167394260Y-122777256D01*
X167222743Y-122605739D01*
X167222736Y-122605733D01*
X167030293Y-122458067D01*
X167030292Y-122458066D01*
X167030289Y-122458064D01*
X166820212Y-122336776D01*
X166820205Y-122336773D01*
X166596104Y-122243947D01*
X166361785Y-122181161D01*
X166121289Y-122149500D01*
X166121288Y-122149500D01*
X165878712Y-122149500D01*
X165878711Y-122149500D01*
X165638214Y-122181161D01*
X165403895Y-122243947D01*
X165179794Y-122336773D01*
X165179785Y-122336777D01*
X164969706Y-122458067D01*
X164777263Y-122605733D01*
X164777256Y-122605739D01*
X164605739Y-122777256D01*
X164605733Y-122777263D01*
X164458067Y-122969706D01*
X164336777Y-123179785D01*
X164336773Y-123179794D01*
X164243947Y-123403895D01*
X164181161Y-123638214D01*
X164149500Y-123878711D01*
X102850500Y-123878711D01*
X102818838Y-123638211D01*
X102756054Y-123403900D01*
X102663224Y-123179788D01*
X102541936Y-122969711D01*
X102394265Y-122777262D01*
X102394260Y-122777256D01*
X102222743Y-122605739D01*
X102222736Y-122605733D01*
X102030293Y-122458067D01*
X102030292Y-122458066D01*
X102030289Y-122458064D01*
X101820212Y-122336776D01*
X101820205Y-122336773D01*
X101596104Y-122243947D01*
X101361785Y-122181161D01*
X101121289Y-122149500D01*
X101121288Y-122149500D01*
X100878712Y-122149500D01*
X100878711Y-122149500D01*
X100638214Y-122181161D01*
X100403895Y-122243947D01*
X100179794Y-122336773D01*
X100179785Y-122336777D01*
X99969706Y-122458067D01*
X99777263Y-122605733D01*
X99777256Y-122605739D01*
X99605739Y-122777256D01*
X99605733Y-122777263D01*
X99458067Y-122969706D01*
X99336777Y-123179785D01*
X99336773Y-123179794D01*
X99243947Y-123403895D01*
X99181161Y-123638214D01*
X99149500Y-123878711D01*
X96500500Y-123878711D01*
X96500500Y-114957155D01*
X115525000Y-114957155D01*
X115525000Y-115580000D01*
X116301518Y-115580000D01*
X116290889Y-115598409D01*
X116250000Y-115751009D01*
X116250000Y-115908991D01*
X116290889Y-116061591D01*
X116301518Y-116080000D01*
X115525000Y-116080000D01*
X115525000Y-116702844D01*
X115531401Y-116762372D01*
X115531403Y-116762379D01*
X115581645Y-116897086D01*
X115581649Y-116897093D01*
X115667809Y-117012187D01*
X115667812Y-117012190D01*
X115782906Y-117098350D01*
X115782913Y-117098354D01*
X115917620Y-117148596D01*
X115917627Y-117148598D01*
X115977155Y-117154999D01*
X115977172Y-117155000D01*
X116600000Y-117155000D01*
X116600000Y-116378482D01*
X116618409Y-116389111D01*
X116771009Y-116430000D01*
X116928991Y-116430000D01*
X117081591Y-116389111D01*
X117100000Y-116378482D01*
X117100000Y-117155000D01*
X117722828Y-117155000D01*
X117722844Y-117154999D01*
X117782372Y-117148598D01*
X117782379Y-117148596D01*
X117917086Y-117098354D01*
X117917093Y-117098350D01*
X117941607Y-117079999D01*
X138969678Y-117079999D01*
X138969678Y-117080000D01*
X138988923Y-117287691D01*
X138988923Y-117287693D01*
X138988924Y-117287696D01*
X139046006Y-117488319D01*
X139138981Y-117675038D01*
X139264682Y-117841493D01*
X139418829Y-117982016D01*
X139596172Y-118091823D01*
X139790673Y-118167173D01*
X139995707Y-118205500D01*
X139995710Y-118205500D01*
X140204290Y-118205500D01*
X140204293Y-118205500D01*
X140409327Y-118167173D01*
X140603828Y-118091823D01*
X140781171Y-117982016D01*
X140935318Y-117841493D01*
X141061019Y-117675038D01*
X141153994Y-117488319D01*
X141211076Y-117287696D01*
X141230322Y-117080000D01*
X141230322Y-117079999D01*
X148053011Y-117079999D01*
X148053011Y-117080000D01*
X148072256Y-117287691D01*
X148072256Y-117287693D01*
X148072257Y-117287696D01*
X148129339Y-117488319D01*
X148222314Y-117675038D01*
X148348015Y-117841493D01*
X148502162Y-117982016D01*
X148679505Y-118091823D01*
X148874006Y-118167173D01*
X149079040Y-118205500D01*
X149079043Y-118205500D01*
X149287623Y-118205500D01*
X149287626Y-118205500D01*
X149492660Y-118167173D01*
X149687161Y-118091823D01*
X149864504Y-117982016D01*
X150018651Y-117841493D01*
X150144352Y-117675038D01*
X150237327Y-117488319D01*
X150294409Y-117287696D01*
X150313655Y-117080000D01*
X150313655Y-117079999D01*
X157136344Y-117079999D01*
X157136344Y-117080000D01*
X157155589Y-117287691D01*
X157155589Y-117287693D01*
X157155590Y-117287696D01*
X157212672Y-117488319D01*
X157305647Y-117675038D01*
X157431348Y-117841493D01*
X157585495Y-117982016D01*
X157762838Y-118091823D01*
X157957339Y-118167173D01*
X158162373Y-118205500D01*
X158162376Y-118205500D01*
X158370956Y-118205500D01*
X158370959Y-118205500D01*
X158575993Y-118167173D01*
X158770494Y-118091823D01*
X158947837Y-117982016D01*
X159101984Y-117841493D01*
X159227685Y-117675038D01*
X159320660Y-117488319D01*
X159377742Y-117287696D01*
X159396988Y-117080000D01*
X159396988Y-117079999D01*
X166219678Y-117079999D01*
X166219678Y-117080000D01*
X166238923Y-117287691D01*
X166238923Y-117287693D01*
X166238924Y-117287696D01*
X166296006Y-117488319D01*
X166388981Y-117675038D01*
X166514682Y-117841493D01*
X166668829Y-117982016D01*
X166846172Y-118091823D01*
X167040673Y-118167173D01*
X167245707Y-118205500D01*
X167245710Y-118205500D01*
X167454290Y-118205500D01*
X167454293Y-118205500D01*
X167659327Y-118167173D01*
X167853828Y-118091823D01*
X168031171Y-117982016D01*
X168185318Y-117841493D01*
X168311019Y-117675038D01*
X168403994Y-117488319D01*
X168461076Y-117287696D01*
X168480322Y-117080000D01*
X168461076Y-116872304D01*
X168403994Y-116671681D01*
X168311019Y-116484962D01*
X168185318Y-116318507D01*
X168031171Y-116177984D01*
X167853828Y-116068177D01*
X167853827Y-116068176D01*
X167711609Y-116013081D01*
X167659327Y-115992827D01*
X167454293Y-115954500D01*
X167245707Y-115954500D01*
X167040673Y-115992827D01*
X167040670Y-115992827D01*
X167040670Y-115992828D01*
X166846172Y-116068176D01*
X166846171Y-116068177D01*
X166668827Y-116177985D01*
X166514683Y-116318505D01*
X166388981Y-116484961D01*
X166296007Y-116671677D01*
X166238923Y-116872308D01*
X166219678Y-117079999D01*
X159396988Y-117079999D01*
X159377742Y-116872304D01*
X159320660Y-116671681D01*
X159227685Y-116484962D01*
X159101984Y-116318507D01*
X158947837Y-116177984D01*
X158770494Y-116068177D01*
X158770493Y-116068176D01*
X158628275Y-116013081D01*
X158575993Y-115992827D01*
X158370959Y-115954500D01*
X158162373Y-115954500D01*
X157957339Y-115992827D01*
X157957336Y-115992827D01*
X157957336Y-115992828D01*
X157762838Y-116068176D01*
X157762837Y-116068177D01*
X157585493Y-116177985D01*
X157431349Y-116318505D01*
X157305647Y-116484961D01*
X157212673Y-116671677D01*
X157155589Y-116872308D01*
X157136344Y-117079999D01*
X150313655Y-117079999D01*
X150294409Y-116872304D01*
X150237327Y-116671681D01*
X150144352Y-116484962D01*
X150018651Y-116318507D01*
X149864504Y-116177984D01*
X149687161Y-116068177D01*
X149687160Y-116068176D01*
X149544942Y-116013081D01*
X149492660Y-115992827D01*
X149287626Y-115954500D01*
X149079040Y-115954500D01*
X148874006Y-115992827D01*
X148874003Y-115992827D01*
X148874003Y-115992828D01*
X148679505Y-116068176D01*
X148679504Y-116068177D01*
X148502160Y-116177985D01*
X148348016Y-116318505D01*
X148222314Y-116484961D01*
X148129340Y-116671677D01*
X148072256Y-116872308D01*
X148053011Y-117079999D01*
X141230322Y-117079999D01*
X141211076Y-116872304D01*
X141153994Y-116671681D01*
X141061019Y-116484962D01*
X140935318Y-116318507D01*
X140781171Y-116177984D01*
X140603828Y-116068177D01*
X140603827Y-116068176D01*
X140461609Y-116013081D01*
X140409327Y-115992827D01*
X140204293Y-115954500D01*
X139995707Y-115954500D01*
X139790673Y-115992827D01*
X139790670Y-115992827D01*
X139790670Y-115992828D01*
X139596172Y-116068176D01*
X139596171Y-116068177D01*
X139418827Y-116177985D01*
X139264683Y-116318505D01*
X139138981Y-116484961D01*
X139046007Y-116671677D01*
X138988923Y-116872308D01*
X138969678Y-117079999D01*
X117941607Y-117079999D01*
X118032187Y-117012190D01*
X118032190Y-117012187D01*
X118118350Y-116897093D01*
X118118354Y-116897086D01*
X118168596Y-116762379D01*
X118168598Y-116762372D01*
X118174999Y-116702844D01*
X118175000Y-116702827D01*
X118175000Y-116511647D01*
X118194685Y-116444608D01*
X118247489Y-116398853D01*
X118316647Y-116388909D01*
X118380203Y-116417934D01*
X118397954Y-116436920D01*
X118514683Y-116591495D01*
X118602640Y-116671677D01*
X118668829Y-116732016D01*
X118846172Y-116841823D01*
X119040673Y-116917173D01*
X119245707Y-116955500D01*
X119245710Y-116955500D01*
X119454290Y-116955500D01*
X119454293Y-116955500D01*
X119659327Y-116917173D01*
X119853828Y-116841823D01*
X120031171Y-116732016D01*
X120185318Y-116591493D01*
X120311019Y-116425038D01*
X120403994Y-116238319D01*
X120461076Y-116037696D01*
X120476529Y-115870933D01*
X120492629Y-115830384D01*
X120707064Y-115830384D01*
X120721693Y-115858566D01*
X120723471Y-115870933D01*
X120738923Y-116037691D01*
X120738923Y-116037693D01*
X120738924Y-116037696D01*
X120796006Y-116238319D01*
X120888981Y-116425038D01*
X121014682Y-116591493D01*
X121168829Y-116732016D01*
X121346172Y-116841823D01*
X121540673Y-116917173D01*
X121745707Y-116955500D01*
X121745710Y-116955500D01*
X121954290Y-116955500D01*
X121954293Y-116955500D01*
X122159327Y-116917173D01*
X122353828Y-116841823D01*
X122531171Y-116732016D01*
X122685318Y-116591493D01*
X122811019Y-116425038D01*
X122903994Y-116238319D01*
X122961076Y-116037696D01*
X122976529Y-115870933D01*
X122992629Y-115830384D01*
X123207064Y-115830384D01*
X123221693Y-115858566D01*
X123223471Y-115870933D01*
X123238923Y-116037691D01*
X123238923Y-116037693D01*
X123238924Y-116037696D01*
X123296006Y-116238319D01*
X123388981Y-116425038D01*
X123514682Y-116591493D01*
X123668829Y-116732016D01*
X123846172Y-116841823D01*
X124040673Y-116917173D01*
X124245707Y-116955500D01*
X124245710Y-116955500D01*
X124454290Y-116955500D01*
X124454293Y-116955500D01*
X124659327Y-116917173D01*
X124853828Y-116841823D01*
X125031171Y-116732016D01*
X125185318Y-116591493D01*
X125311019Y-116425038D01*
X125403994Y-116238319D01*
X125461076Y-116037696D01*
X125476529Y-115870933D01*
X125492629Y-115830384D01*
X125707064Y-115830384D01*
X125721693Y-115858566D01*
X125723471Y-115870933D01*
X125738923Y-116037691D01*
X125738923Y-116037693D01*
X125738924Y-116037696D01*
X125796006Y-116238319D01*
X125888981Y-116425038D01*
X126014682Y-116591493D01*
X126168829Y-116732016D01*
X126346172Y-116841823D01*
X126540673Y-116917173D01*
X126745707Y-116955500D01*
X126745710Y-116955500D01*
X126954290Y-116955500D01*
X126954293Y-116955500D01*
X127159327Y-116917173D01*
X127353828Y-116841823D01*
X127531171Y-116732016D01*
X127685318Y-116591493D01*
X127811019Y-116425038D01*
X127903994Y-116238319D01*
X127961076Y-116037696D01*
X127976529Y-115870933D01*
X127992629Y-115830384D01*
X128207064Y-115830384D01*
X128221693Y-115858566D01*
X128223471Y-115870933D01*
X128238923Y-116037691D01*
X128238923Y-116037693D01*
X128238924Y-116037696D01*
X128296006Y-116238319D01*
X128388981Y-116425038D01*
X128514682Y-116591493D01*
X128668829Y-116732016D01*
X128846172Y-116841823D01*
X129040673Y-116917173D01*
X129245707Y-116955500D01*
X129245710Y-116955500D01*
X129454290Y-116955500D01*
X129454293Y-116955500D01*
X129659327Y-116917173D01*
X129853828Y-116841823D01*
X130031171Y-116732016D01*
X130185318Y-116591493D01*
X130311019Y-116425038D01*
X130403994Y-116238319D01*
X130461076Y-116037696D01*
X130476529Y-115870933D01*
X130492629Y-115830384D01*
X130707064Y-115830384D01*
X130721693Y-115858566D01*
X130723471Y-115870933D01*
X130738923Y-116037691D01*
X130738923Y-116037693D01*
X130738924Y-116037696D01*
X130796006Y-116238319D01*
X130888981Y-116425038D01*
X131014682Y-116591493D01*
X131168829Y-116732016D01*
X131346172Y-116841823D01*
X131540673Y-116917173D01*
X131745707Y-116955500D01*
X131745710Y-116955500D01*
X131954290Y-116955500D01*
X131954293Y-116955500D01*
X132159327Y-116917173D01*
X132353828Y-116841823D01*
X132531171Y-116732016D01*
X132685318Y-116591493D01*
X132811019Y-116425038D01*
X132903994Y-116238319D01*
X132961076Y-116037696D01*
X132980322Y-115830000D01*
X132961076Y-115622304D01*
X132903994Y-115421681D01*
X132811019Y-115234962D01*
X132685318Y-115068507D01*
X132531171Y-114927984D01*
X132353828Y-114818177D01*
X132353827Y-114818176D01*
X132211157Y-114762906D01*
X132159327Y-114742827D01*
X131954293Y-114704500D01*
X131745707Y-114704500D01*
X131540673Y-114742827D01*
X131540670Y-114742827D01*
X131540670Y-114742828D01*
X131346172Y-114818176D01*
X131346171Y-114818177D01*
X131168827Y-114927985D01*
X131014683Y-115068505D01*
X130888981Y-115234961D01*
X130796007Y-115421677D01*
X130796006Y-115421681D01*
X130750961Y-115580000D01*
X130738923Y-115622308D01*
X130723471Y-115789066D01*
X130707064Y-115830384D01*
X130492629Y-115830384D01*
X130492935Y-115829614D01*
X130478307Y-115801433D01*
X130476529Y-115789066D01*
X130465234Y-115667173D01*
X130461076Y-115622304D01*
X130403994Y-115421681D01*
X130311019Y-115234962D01*
X130185318Y-115068507D01*
X130031171Y-114927984D01*
X129853828Y-114818177D01*
X129853827Y-114818176D01*
X129711157Y-114762906D01*
X129659327Y-114742827D01*
X129454293Y-114704500D01*
X129245707Y-114704500D01*
X129040673Y-114742827D01*
X129040670Y-114742827D01*
X129040670Y-114742828D01*
X128846172Y-114818176D01*
X128846171Y-114818177D01*
X128668827Y-114927985D01*
X128514683Y-115068505D01*
X128388981Y-115234961D01*
X128296007Y-115421677D01*
X128296006Y-115421681D01*
X128250961Y-115580000D01*
X128238923Y-115622308D01*
X128223471Y-115789066D01*
X128207064Y-115830384D01*
X127992629Y-115830384D01*
X127992935Y-115829614D01*
X127978307Y-115801433D01*
X127976529Y-115789066D01*
X127965234Y-115667173D01*
X127961076Y-115622304D01*
X127903994Y-115421681D01*
X127811019Y-115234962D01*
X127685318Y-115068507D01*
X127531171Y-114927984D01*
X127353828Y-114818177D01*
X127353827Y-114818176D01*
X127211157Y-114762906D01*
X127159327Y-114742827D01*
X126954293Y-114704500D01*
X126745707Y-114704500D01*
X126540673Y-114742827D01*
X126540670Y-114742827D01*
X126540670Y-114742828D01*
X126346172Y-114818176D01*
X126346171Y-114818177D01*
X126168827Y-114927985D01*
X126014683Y-115068505D01*
X125888981Y-115234961D01*
X125796007Y-115421677D01*
X125796006Y-115421681D01*
X125750961Y-115580000D01*
X125738923Y-115622308D01*
X125723471Y-115789066D01*
X125707064Y-115830384D01*
X125492629Y-115830384D01*
X125492935Y-115829614D01*
X125478307Y-115801433D01*
X125476529Y-115789066D01*
X125465234Y-115667173D01*
X125461076Y-115622304D01*
X125403994Y-115421681D01*
X125311019Y-115234962D01*
X125185318Y-115068507D01*
X125031171Y-114927984D01*
X124853828Y-114818177D01*
X124853827Y-114818176D01*
X124711157Y-114762906D01*
X124659327Y-114742827D01*
X124454293Y-114704500D01*
X124245707Y-114704500D01*
X124040673Y-114742827D01*
X124040670Y-114742827D01*
X124040670Y-114742828D01*
X123846172Y-114818176D01*
X123846171Y-114818177D01*
X123668827Y-114927985D01*
X123514683Y-115068505D01*
X123388981Y-115234961D01*
X123296007Y-115421677D01*
X123296006Y-115421681D01*
X123250961Y-115580000D01*
X123238923Y-115622308D01*
X123223471Y-115789066D01*
X123207064Y-115830384D01*
X122992629Y-115830384D01*
X122992935Y-115829614D01*
X122978307Y-115801433D01*
X122976529Y-115789066D01*
X122965234Y-115667173D01*
X122961076Y-115622304D01*
X122903994Y-115421681D01*
X122811019Y-115234962D01*
X122685318Y-115068507D01*
X122531171Y-114927984D01*
X122353828Y-114818177D01*
X122353827Y-114818176D01*
X122211157Y-114762906D01*
X122159327Y-114742827D01*
X121954293Y-114704500D01*
X121745707Y-114704500D01*
X121540673Y-114742827D01*
X121540670Y-114742827D01*
X121540670Y-114742828D01*
X121346172Y-114818176D01*
X121346171Y-114818177D01*
X121168827Y-114927985D01*
X121014683Y-115068505D01*
X120888981Y-115234961D01*
X120796007Y-115421677D01*
X120796006Y-115421681D01*
X120750961Y-115580000D01*
X120738923Y-115622308D01*
X120723471Y-115789066D01*
X120707064Y-115830384D01*
X120492629Y-115830384D01*
X120492935Y-115829614D01*
X120478307Y-115801433D01*
X120476529Y-115789066D01*
X120465234Y-115667173D01*
X120461076Y-115622304D01*
X120403994Y-115421681D01*
X120311019Y-115234962D01*
X120185318Y-115068507D01*
X120031171Y-114927984D01*
X119853828Y-114818177D01*
X119853827Y-114818176D01*
X119711157Y-114762906D01*
X119659327Y-114742827D01*
X119454293Y-114704500D01*
X119245707Y-114704500D01*
X119040673Y-114742827D01*
X119040670Y-114742827D01*
X119040670Y-114742828D01*
X118846172Y-114818176D01*
X118846171Y-114818177D01*
X118668827Y-114927985D01*
X118514683Y-115068505D01*
X118397954Y-115223079D01*
X118341845Y-115264715D01*
X118272133Y-115269406D01*
X118210951Y-115235664D01*
X118177724Y-115174201D01*
X118175000Y-115148352D01*
X118175000Y-114957172D01*
X118174999Y-114957155D01*
X118168598Y-114897627D01*
X118168596Y-114897620D01*
X118118354Y-114762913D01*
X118118350Y-114762906D01*
X118032190Y-114647812D01*
X118032187Y-114647809D01*
X117941605Y-114579999D01*
X138969678Y-114579999D01*
X138969678Y-114580000D01*
X138988923Y-114787691D01*
X138988923Y-114787693D01*
X138988924Y-114787696D01*
X139046006Y-114988319D01*
X139138981Y-115175038D01*
X139264682Y-115341493D01*
X139418829Y-115482016D01*
X139596172Y-115591823D01*
X139790673Y-115667173D01*
X139995707Y-115705500D01*
X139995710Y-115705500D01*
X140204290Y-115705500D01*
X140204293Y-115705500D01*
X140409327Y-115667173D01*
X140603828Y-115591823D01*
X140781171Y-115482016D01*
X140935318Y-115341493D01*
X141061019Y-115175038D01*
X141153994Y-114988319D01*
X141211076Y-114787696D01*
X141230322Y-114580000D01*
X141230322Y-114579999D01*
X148053011Y-114579999D01*
X148053011Y-114580000D01*
X148072256Y-114787691D01*
X148072256Y-114787693D01*
X148072257Y-114787696D01*
X148129339Y-114988319D01*
X148222314Y-115175038D01*
X148348015Y-115341493D01*
X148502162Y-115482016D01*
X148679505Y-115591823D01*
X148874006Y-115667173D01*
X149079040Y-115705500D01*
X149079043Y-115705500D01*
X149287623Y-115705500D01*
X149287626Y-115705500D01*
X149492660Y-115667173D01*
X149687161Y-115591823D01*
X149864504Y-115482016D01*
X150018651Y-115341493D01*
X150144352Y-115175038D01*
X150237327Y-114988319D01*
X150294409Y-114787696D01*
X150313655Y-114580000D01*
X150313655Y-114579999D01*
X157136344Y-114579999D01*
X157136344Y-114580000D01*
X157155589Y-114787691D01*
X157155589Y-114787693D01*
X157155590Y-114787696D01*
X157212672Y-114988319D01*
X157305647Y-115175038D01*
X157431348Y-115341493D01*
X157585495Y-115482016D01*
X157762838Y-115591823D01*
X157957339Y-115667173D01*
X158162373Y-115705500D01*
X158162376Y-115705500D01*
X158370956Y-115705500D01*
X158370959Y-115705500D01*
X158575993Y-115667173D01*
X158770494Y-115591823D01*
X158947837Y-115482016D01*
X159101984Y-115341493D01*
X159227685Y-115175038D01*
X159320660Y-114988319D01*
X159377742Y-114787696D01*
X159396988Y-114580000D01*
X159396988Y-114579999D01*
X166219678Y-114579999D01*
X166219678Y-114580000D01*
X166238923Y-114787691D01*
X166238923Y-114787693D01*
X166238924Y-114787696D01*
X166296006Y-114988319D01*
X166388981Y-115175038D01*
X166514682Y-115341493D01*
X166668829Y-115482016D01*
X166846172Y-115591823D01*
X167040673Y-115667173D01*
X167245707Y-115705500D01*
X167245710Y-115705500D01*
X167454290Y-115705500D01*
X167454293Y-115705500D01*
X167659327Y-115667173D01*
X167853828Y-115591823D01*
X168031171Y-115482016D01*
X168185318Y-115341493D01*
X168311019Y-115175038D01*
X168403994Y-114988319D01*
X168461076Y-114787696D01*
X168480322Y-114580000D01*
X168461076Y-114372304D01*
X168403994Y-114171681D01*
X168311019Y-113984962D01*
X168185318Y-113818507D01*
X168031171Y-113677984D01*
X167853828Y-113568177D01*
X167853827Y-113568176D01*
X167711609Y-113513081D01*
X167659327Y-113492827D01*
X167454293Y-113454500D01*
X167245707Y-113454500D01*
X167040673Y-113492827D01*
X167040670Y-113492827D01*
X167040670Y-113492828D01*
X166846172Y-113568176D01*
X166846171Y-113568177D01*
X166668827Y-113677985D01*
X166514683Y-113818505D01*
X166388981Y-113984961D01*
X166296007Y-114171677D01*
X166238923Y-114372308D01*
X166219678Y-114579999D01*
X159396988Y-114579999D01*
X159377742Y-114372304D01*
X159320660Y-114171681D01*
X159227685Y-113984962D01*
X159101984Y-113818507D01*
X158947837Y-113677984D01*
X158770494Y-113568177D01*
X158770493Y-113568176D01*
X158628275Y-113513081D01*
X158575993Y-113492827D01*
X158370959Y-113454500D01*
X158162373Y-113454500D01*
X157957339Y-113492827D01*
X157957336Y-113492827D01*
X157957336Y-113492828D01*
X157762838Y-113568176D01*
X157762837Y-113568177D01*
X157585493Y-113677985D01*
X157431349Y-113818505D01*
X157305647Y-113984961D01*
X157212673Y-114171677D01*
X157155589Y-114372308D01*
X157136344Y-114579999D01*
X150313655Y-114579999D01*
X150294409Y-114372304D01*
X150237327Y-114171681D01*
X150144352Y-113984962D01*
X150018651Y-113818507D01*
X149864504Y-113677984D01*
X149687161Y-113568177D01*
X149687160Y-113568176D01*
X149544942Y-113513081D01*
X149492660Y-113492827D01*
X149287626Y-113454500D01*
X149079040Y-113454500D01*
X148874006Y-113492827D01*
X148874003Y-113492827D01*
X148874003Y-113492828D01*
X148679505Y-113568176D01*
X148679504Y-113568177D01*
X148502160Y-113677985D01*
X148348016Y-113818505D01*
X148222314Y-113984961D01*
X148129340Y-114171677D01*
X148072256Y-114372308D01*
X148053011Y-114579999D01*
X141230322Y-114579999D01*
X141211076Y-114372304D01*
X141153994Y-114171681D01*
X141061019Y-113984962D01*
X140935318Y-113818507D01*
X140781171Y-113677984D01*
X140603828Y-113568177D01*
X140603827Y-113568176D01*
X140461609Y-113513081D01*
X140409327Y-113492827D01*
X140204293Y-113454500D01*
X139995707Y-113454500D01*
X139790673Y-113492827D01*
X139790670Y-113492827D01*
X139790670Y-113492828D01*
X139596172Y-113568176D01*
X139596171Y-113568177D01*
X139418827Y-113677985D01*
X139264683Y-113818505D01*
X139138981Y-113984961D01*
X139046007Y-114171677D01*
X138988923Y-114372308D01*
X138969678Y-114579999D01*
X117941605Y-114579999D01*
X117917093Y-114561649D01*
X117917086Y-114561645D01*
X117782379Y-114511403D01*
X117782372Y-114511401D01*
X117722844Y-114505000D01*
X117100000Y-114505000D01*
X117100000Y-115281517D01*
X117081591Y-115270889D01*
X116928991Y-115230000D01*
X116771009Y-115230000D01*
X116618409Y-115270889D01*
X116600000Y-115281517D01*
X116600000Y-114505000D01*
X115977155Y-114505000D01*
X115917627Y-114511401D01*
X115917620Y-114511403D01*
X115782913Y-114561645D01*
X115782906Y-114561649D01*
X115667812Y-114647809D01*
X115667809Y-114647812D01*
X115581649Y-114762906D01*
X115581645Y-114762913D01*
X115531403Y-114897620D01*
X115531401Y-114897627D01*
X115525000Y-114957155D01*
X96500500Y-114957155D01*
X96500500Y-111102500D01*
X107444417Y-111102500D01*
X107464699Y-111308432D01*
X107494734Y-111407444D01*
X107524768Y-111506454D01*
X107622315Y-111688950D01*
X107622317Y-111688952D01*
X107753589Y-111848910D01*
X107850209Y-111928202D01*
X107913550Y-111980185D01*
X108096046Y-112077732D01*
X108294066Y-112137800D01*
X108294065Y-112137800D01*
X108312529Y-112139618D01*
X108500000Y-112158083D01*
X108705934Y-112137800D01*
X108896481Y-112079999D01*
X138969678Y-112079999D01*
X138969678Y-112080000D01*
X138988923Y-112287691D01*
X138988923Y-112287693D01*
X138988924Y-112287696D01*
X139046006Y-112488319D01*
X139138981Y-112675038D01*
X139264682Y-112841493D01*
X139418829Y-112982016D01*
X139596172Y-113091823D01*
X139790673Y-113167173D01*
X139995707Y-113205500D01*
X139995710Y-113205500D01*
X140204290Y-113205500D01*
X140204293Y-113205500D01*
X140409327Y-113167173D01*
X140603828Y-113091823D01*
X140781171Y-112982016D01*
X140935318Y-112841493D01*
X141061019Y-112675038D01*
X141153994Y-112488319D01*
X141211076Y-112287696D01*
X141230322Y-112080000D01*
X141230322Y-112079999D01*
X148053011Y-112079999D01*
X148053011Y-112080000D01*
X148072256Y-112287691D01*
X148072256Y-112287693D01*
X148072257Y-112287696D01*
X148129339Y-112488319D01*
X148222314Y-112675038D01*
X148348015Y-112841493D01*
X148502162Y-112982016D01*
X148679505Y-113091823D01*
X148874006Y-113167173D01*
X149079040Y-113205500D01*
X149079043Y-113205500D01*
X149287623Y-113205500D01*
X149287626Y-113205500D01*
X149492660Y-113167173D01*
X149687161Y-113091823D01*
X149864504Y-112982016D01*
X150018651Y-112841493D01*
X150144352Y-112675038D01*
X150237327Y-112488319D01*
X150294409Y-112287696D01*
X150313655Y-112080000D01*
X150313655Y-112079999D01*
X157136344Y-112079999D01*
X157136344Y-112080000D01*
X157155589Y-112287691D01*
X157155589Y-112287693D01*
X157155590Y-112287696D01*
X157212672Y-112488319D01*
X157305647Y-112675038D01*
X157431348Y-112841493D01*
X157585495Y-112982016D01*
X157762838Y-113091823D01*
X157957339Y-113167173D01*
X158162373Y-113205500D01*
X158162376Y-113205500D01*
X158370956Y-113205500D01*
X158370959Y-113205500D01*
X158575993Y-113167173D01*
X158770494Y-113091823D01*
X158947837Y-112982016D01*
X159101984Y-112841493D01*
X159227685Y-112675038D01*
X159320660Y-112488319D01*
X159377742Y-112287696D01*
X159396988Y-112080000D01*
X159396988Y-112079999D01*
X166219678Y-112079999D01*
X166219678Y-112080000D01*
X166238923Y-112287691D01*
X166238923Y-112287693D01*
X166238924Y-112287696D01*
X166296006Y-112488319D01*
X166388981Y-112675038D01*
X166514682Y-112841493D01*
X166668829Y-112982016D01*
X166846172Y-113091823D01*
X167040673Y-113167173D01*
X167245707Y-113205500D01*
X167245710Y-113205500D01*
X167454290Y-113205500D01*
X167454293Y-113205500D01*
X167659327Y-113167173D01*
X167853828Y-113091823D01*
X168031171Y-112982016D01*
X168185318Y-112841493D01*
X168311019Y-112675038D01*
X168403994Y-112488319D01*
X168461076Y-112287696D01*
X168480322Y-112080000D01*
X168461076Y-111872304D01*
X168403994Y-111671681D01*
X168311019Y-111484962D01*
X168185318Y-111318507D01*
X168174268Y-111308434D01*
X168031172Y-111177985D01*
X168031171Y-111177984D01*
X167853828Y-111068177D01*
X167853827Y-111068176D01*
X167711609Y-111013081D01*
X167659327Y-110992827D01*
X167454293Y-110954500D01*
X167245707Y-110954500D01*
X167040673Y-110992827D01*
X167040670Y-110992827D01*
X167040670Y-110992828D01*
X166846172Y-111068176D01*
X166846171Y-111068177D01*
X166668827Y-111177985D01*
X166514683Y-111318505D01*
X166388981Y-111484961D01*
X166296007Y-111671677D01*
X166238923Y-111872308D01*
X166219678Y-112079999D01*
X159396988Y-112079999D01*
X159377742Y-111872304D01*
X159320660Y-111671681D01*
X159227685Y-111484962D01*
X159101984Y-111318507D01*
X159090934Y-111308434D01*
X158947838Y-111177985D01*
X158947837Y-111177984D01*
X158770494Y-111068177D01*
X158770493Y-111068176D01*
X158628275Y-111013081D01*
X158575993Y-110992827D01*
X158370959Y-110954500D01*
X158162373Y-110954500D01*
X157957339Y-110992827D01*
X157957336Y-110992827D01*
X157957336Y-110992828D01*
X157762838Y-111068176D01*
X157762837Y-111068177D01*
X157585493Y-111177985D01*
X157431349Y-111318505D01*
X157305647Y-111484961D01*
X157212673Y-111671677D01*
X157155589Y-111872308D01*
X157136344Y-112079999D01*
X150313655Y-112079999D01*
X150294409Y-111872304D01*
X150237327Y-111671681D01*
X150144352Y-111484962D01*
X150018651Y-111318507D01*
X150007601Y-111308434D01*
X149864505Y-111177985D01*
X149864504Y-111177984D01*
X149687161Y-111068177D01*
X149687160Y-111068176D01*
X149544942Y-111013081D01*
X149492660Y-110992827D01*
X149287626Y-110954500D01*
X149079040Y-110954500D01*
X148874006Y-110992827D01*
X148874003Y-110992827D01*
X148874003Y-110992828D01*
X148679505Y-111068176D01*
X148679504Y-111068177D01*
X148502160Y-111177985D01*
X148348016Y-111318505D01*
X148222314Y-111484961D01*
X148129340Y-111671677D01*
X148072256Y-111872308D01*
X148053011Y-112079999D01*
X141230322Y-112079999D01*
X141211076Y-111872304D01*
X141153994Y-111671681D01*
X141061019Y-111484962D01*
X140935318Y-111318507D01*
X140924268Y-111308434D01*
X140781172Y-111177985D01*
X140781171Y-111177984D01*
X140603828Y-111068177D01*
X140603827Y-111068176D01*
X140461609Y-111013081D01*
X140409327Y-110992827D01*
X140204293Y-110954500D01*
X139995707Y-110954500D01*
X139790673Y-110992827D01*
X139790670Y-110992827D01*
X139790670Y-110992828D01*
X139596172Y-111068176D01*
X139596171Y-111068177D01*
X139418827Y-111177985D01*
X139264683Y-111318505D01*
X139138981Y-111484961D01*
X139046007Y-111671677D01*
X138988923Y-111872308D01*
X138969678Y-112079999D01*
X108896481Y-112079999D01*
X108903954Y-112077732D01*
X109086450Y-111980185D01*
X109246410Y-111848910D01*
X109377685Y-111688950D01*
X109475232Y-111506454D01*
X109535300Y-111308434D01*
X109555583Y-111102500D01*
X109535300Y-110896566D01*
X109475232Y-110698546D01*
X109377685Y-110516050D01*
X109325702Y-110452709D01*
X109246410Y-110356089D01*
X109086452Y-110224817D01*
X109086453Y-110224817D01*
X109086450Y-110224815D01*
X108903954Y-110127268D01*
X108705934Y-110067200D01*
X108705932Y-110067199D01*
X108705934Y-110067199D01*
X108500000Y-110046917D01*
X108294067Y-110067199D01*
X108096043Y-110127269D01*
X108006675Y-110175038D01*
X107913550Y-110224815D01*
X107913548Y-110224816D01*
X107913547Y-110224817D01*
X107753589Y-110356089D01*
X107622317Y-110516047D01*
X107524769Y-110698543D01*
X107464699Y-110896567D01*
X107444417Y-111102500D01*
X96500500Y-111102500D01*
X96500500Y-109579999D01*
X138969678Y-109579999D01*
X138969678Y-109580000D01*
X138988923Y-109787691D01*
X139046007Y-109988322D01*
X139085284Y-110067200D01*
X139138981Y-110175038D01*
X139264682Y-110341493D01*
X139418829Y-110482016D01*
X139596172Y-110591823D01*
X139790673Y-110667173D01*
X139995707Y-110705500D01*
X139995710Y-110705500D01*
X140204290Y-110705500D01*
X140204293Y-110705500D01*
X140409327Y-110667173D01*
X140603828Y-110591823D01*
X140781171Y-110482016D01*
X140935318Y-110341493D01*
X141061019Y-110175038D01*
X141153994Y-109988319D01*
X141211076Y-109787696D01*
X141230322Y-109580000D01*
X141230322Y-109579999D01*
X148053011Y-109579999D01*
X148053011Y-109580000D01*
X148072256Y-109787691D01*
X148129340Y-109988322D01*
X148168617Y-110067200D01*
X148222314Y-110175038D01*
X148348015Y-110341493D01*
X148502162Y-110482016D01*
X148679505Y-110591823D01*
X148874006Y-110667173D01*
X149079040Y-110705500D01*
X149079043Y-110705500D01*
X149287623Y-110705500D01*
X149287626Y-110705500D01*
X149492660Y-110667173D01*
X149687161Y-110591823D01*
X149864504Y-110482016D01*
X150018651Y-110341493D01*
X150144352Y-110175038D01*
X150237327Y-109988319D01*
X150294409Y-109787696D01*
X150313655Y-109580000D01*
X150313655Y-109579999D01*
X157136344Y-109579999D01*
X157136344Y-109580000D01*
X157155589Y-109787691D01*
X157212673Y-109988322D01*
X157251950Y-110067200D01*
X157305647Y-110175038D01*
X157431348Y-110341493D01*
X157585495Y-110482016D01*
X157762838Y-110591823D01*
X157957339Y-110667173D01*
X158162373Y-110705500D01*
X158162376Y-110705500D01*
X158370956Y-110705500D01*
X158370959Y-110705500D01*
X158575993Y-110667173D01*
X158770494Y-110591823D01*
X158947837Y-110482016D01*
X159101984Y-110341493D01*
X159227685Y-110175038D01*
X159320660Y-109988319D01*
X159377742Y-109787696D01*
X159396988Y-109580000D01*
X159396988Y-109579999D01*
X166219678Y-109579999D01*
X166219678Y-109580000D01*
X166238923Y-109787691D01*
X166296007Y-109988322D01*
X166335284Y-110067200D01*
X166388981Y-110175038D01*
X166514682Y-110341493D01*
X166668829Y-110482016D01*
X166846172Y-110591823D01*
X167040673Y-110667173D01*
X167245707Y-110705500D01*
X167245710Y-110705500D01*
X167454290Y-110705500D01*
X167454293Y-110705500D01*
X167659327Y-110667173D01*
X167853828Y-110591823D01*
X168031171Y-110482016D01*
X168185318Y-110341493D01*
X168311019Y-110175038D01*
X168403994Y-109988319D01*
X168461076Y-109787696D01*
X168480322Y-109580000D01*
X168461076Y-109372304D01*
X168403994Y-109171681D01*
X168311019Y-108984962D01*
X168185318Y-108818507D01*
X168031171Y-108677984D01*
X167853828Y-108568177D01*
X167853827Y-108568176D01*
X167709797Y-108512379D01*
X167659327Y-108492827D01*
X167454293Y-108454500D01*
X167245707Y-108454500D01*
X167040673Y-108492827D01*
X167040670Y-108492827D01*
X167040670Y-108492828D01*
X166846172Y-108568176D01*
X166846171Y-108568177D01*
X166668827Y-108677985D01*
X166514683Y-108818505D01*
X166388981Y-108984961D01*
X166296007Y-109171677D01*
X166296006Y-109171681D01*
X166243980Y-109354536D01*
X166238923Y-109372308D01*
X166219678Y-109579999D01*
X159396988Y-109579999D01*
X159377742Y-109372304D01*
X159320660Y-109171681D01*
X159227685Y-108984962D01*
X159101984Y-108818507D01*
X158947837Y-108677984D01*
X158770494Y-108568177D01*
X158770493Y-108568176D01*
X158626463Y-108512379D01*
X158575993Y-108492827D01*
X158370959Y-108454500D01*
X158162373Y-108454500D01*
X157957339Y-108492827D01*
X157957336Y-108492827D01*
X157957336Y-108492828D01*
X157762838Y-108568176D01*
X157762837Y-108568177D01*
X157585493Y-108677985D01*
X157431349Y-108818505D01*
X157305647Y-108984961D01*
X157212673Y-109171677D01*
X157212672Y-109171681D01*
X157160646Y-109354536D01*
X157155589Y-109372308D01*
X157136344Y-109579999D01*
X150313655Y-109579999D01*
X150294409Y-109372304D01*
X150237327Y-109171681D01*
X150144352Y-108984962D01*
X150018651Y-108818507D01*
X149864504Y-108677984D01*
X149687161Y-108568177D01*
X149687160Y-108568176D01*
X149543130Y-108512379D01*
X149492660Y-108492827D01*
X149287626Y-108454500D01*
X149079040Y-108454500D01*
X148874006Y-108492827D01*
X148874003Y-108492827D01*
X148874003Y-108492828D01*
X148679505Y-108568176D01*
X148679504Y-108568177D01*
X148502160Y-108677985D01*
X148348016Y-108818505D01*
X148222314Y-108984961D01*
X148129340Y-109171677D01*
X148129339Y-109171681D01*
X148077313Y-109354536D01*
X148072256Y-109372308D01*
X148053011Y-109579999D01*
X141230322Y-109579999D01*
X141211076Y-109372304D01*
X141153994Y-109171681D01*
X141061019Y-108984962D01*
X140935318Y-108818507D01*
X140781171Y-108677984D01*
X140603828Y-108568177D01*
X140603827Y-108568176D01*
X140459797Y-108512379D01*
X140409327Y-108492827D01*
X140204293Y-108454500D01*
X139995707Y-108454500D01*
X139790673Y-108492827D01*
X139790670Y-108492827D01*
X139790670Y-108492828D01*
X139596172Y-108568176D01*
X139596171Y-108568177D01*
X139418827Y-108677985D01*
X139264683Y-108818505D01*
X139138981Y-108984961D01*
X139046007Y-109171677D01*
X139046006Y-109171681D01*
X138993980Y-109354536D01*
X138988923Y-109372308D01*
X138969678Y-109579999D01*
X96500500Y-109579999D01*
X96500500Y-106707155D01*
X115525000Y-106707155D01*
X115525000Y-107330000D01*
X116301518Y-107330000D01*
X116290889Y-107348409D01*
X116250000Y-107501009D01*
X116250000Y-107658991D01*
X116290889Y-107811591D01*
X116301518Y-107830000D01*
X115525000Y-107830000D01*
X115525000Y-108452844D01*
X115531401Y-108512372D01*
X115531403Y-108512379D01*
X115581645Y-108647086D01*
X115581649Y-108647093D01*
X115667809Y-108762187D01*
X115667812Y-108762190D01*
X115782906Y-108848350D01*
X115782913Y-108848354D01*
X115917620Y-108898596D01*
X115917627Y-108898598D01*
X115977155Y-108904999D01*
X115977172Y-108905000D01*
X116600000Y-108905000D01*
X116600000Y-108128482D01*
X116618409Y-108139111D01*
X116771009Y-108180000D01*
X116928991Y-108180000D01*
X117081591Y-108139111D01*
X117100000Y-108128482D01*
X117100000Y-108905000D01*
X117722828Y-108905000D01*
X117722844Y-108904999D01*
X117782372Y-108898598D01*
X117782379Y-108898596D01*
X117917086Y-108848354D01*
X117917093Y-108848350D01*
X117941608Y-108829998D01*
X137244318Y-108829998D01*
X137244318Y-108830001D01*
X137264955Y-108986760D01*
X137264956Y-108986762D01*
X137325464Y-109132841D01*
X137421718Y-109258282D01*
X137547159Y-109354536D01*
X137693238Y-109415044D01*
X137771619Y-109425363D01*
X137849999Y-109435682D01*
X137850000Y-109435682D01*
X137850001Y-109435682D01*
X137902254Y-109428802D01*
X138006762Y-109415044D01*
X138152841Y-109354536D01*
X138278282Y-109258282D01*
X138374536Y-109132841D01*
X138435044Y-108986762D01*
X138455682Y-108830000D01*
X138435044Y-108673238D01*
X138374536Y-108527159D01*
X138278282Y-108401718D01*
X138152841Y-108305464D01*
X138006762Y-108244956D01*
X138006760Y-108244955D01*
X137850001Y-108224318D01*
X137849999Y-108224318D01*
X137693239Y-108244955D01*
X137693237Y-108244956D01*
X137547160Y-108305463D01*
X137421718Y-108401718D01*
X137325463Y-108527160D01*
X137264956Y-108673237D01*
X137264955Y-108673239D01*
X137244318Y-108829998D01*
X117941608Y-108829998D01*
X118032187Y-108762190D01*
X118032190Y-108762187D01*
X118118350Y-108647093D01*
X118118354Y-108647086D01*
X118168596Y-108512379D01*
X118168598Y-108512372D01*
X118174999Y-108452844D01*
X118175000Y-108452827D01*
X118175000Y-108261647D01*
X118194685Y-108194608D01*
X118247489Y-108148853D01*
X118316647Y-108138909D01*
X118380203Y-108167934D01*
X118397954Y-108186920D01*
X118514683Y-108341495D01*
X118636810Y-108452827D01*
X118668829Y-108482016D01*
X118846172Y-108591823D01*
X119040673Y-108667173D01*
X119245707Y-108705500D01*
X119245710Y-108705500D01*
X119454290Y-108705500D01*
X119454293Y-108705500D01*
X119659327Y-108667173D01*
X119853828Y-108591823D01*
X120031171Y-108482016D01*
X120185318Y-108341493D01*
X120311019Y-108175038D01*
X120403994Y-107988319D01*
X120461076Y-107787696D01*
X120476529Y-107620933D01*
X120492629Y-107580384D01*
X120707064Y-107580384D01*
X120721693Y-107608566D01*
X120723471Y-107620933D01*
X120738923Y-107787691D01*
X120738923Y-107787693D01*
X120738924Y-107787696D01*
X120796006Y-107988319D01*
X120888981Y-108175038D01*
X121014682Y-108341493D01*
X121168829Y-108482016D01*
X121346172Y-108591823D01*
X121540673Y-108667173D01*
X121745707Y-108705500D01*
X121745710Y-108705500D01*
X121954290Y-108705500D01*
X121954293Y-108705500D01*
X122159327Y-108667173D01*
X122353828Y-108591823D01*
X122531171Y-108482016D01*
X122685318Y-108341493D01*
X122811019Y-108175038D01*
X122903994Y-107988319D01*
X122961076Y-107787696D01*
X122976529Y-107620933D01*
X122992629Y-107580384D01*
X123207064Y-107580384D01*
X123221693Y-107608566D01*
X123223471Y-107620933D01*
X123238923Y-107787691D01*
X123238923Y-107787693D01*
X123238924Y-107787696D01*
X123296006Y-107988319D01*
X123388981Y-108175038D01*
X123514682Y-108341493D01*
X123668829Y-108482016D01*
X123846172Y-108591823D01*
X124040673Y-108667173D01*
X124245707Y-108705500D01*
X124245710Y-108705500D01*
X124454290Y-108705500D01*
X124454293Y-108705500D01*
X124659327Y-108667173D01*
X124853828Y-108591823D01*
X125031171Y-108482016D01*
X125185318Y-108341493D01*
X125311019Y-108175038D01*
X125403994Y-107988319D01*
X125461076Y-107787696D01*
X125476529Y-107620933D01*
X125492629Y-107580384D01*
X125707064Y-107580384D01*
X125721693Y-107608566D01*
X125723471Y-107620933D01*
X125738923Y-107787691D01*
X125738923Y-107787693D01*
X125738924Y-107787696D01*
X125796006Y-107988319D01*
X125888981Y-108175038D01*
X126014682Y-108341493D01*
X126168829Y-108482016D01*
X126346172Y-108591823D01*
X126540673Y-108667173D01*
X126745707Y-108705500D01*
X126745710Y-108705500D01*
X126954290Y-108705500D01*
X126954293Y-108705500D01*
X127159327Y-108667173D01*
X127353828Y-108591823D01*
X127531171Y-108482016D01*
X127685318Y-108341493D01*
X127811019Y-108175038D01*
X127903994Y-107988319D01*
X127961076Y-107787696D01*
X127976529Y-107620933D01*
X127992629Y-107580384D01*
X128207064Y-107580384D01*
X128221693Y-107608566D01*
X128223471Y-107620933D01*
X128238923Y-107787691D01*
X128238923Y-107787693D01*
X128238924Y-107787696D01*
X128296006Y-107988319D01*
X128388981Y-108175038D01*
X128514682Y-108341493D01*
X128668829Y-108482016D01*
X128846172Y-108591823D01*
X129040673Y-108667173D01*
X129245707Y-108705500D01*
X129245710Y-108705500D01*
X129454290Y-108705500D01*
X129454293Y-108705500D01*
X129659327Y-108667173D01*
X129853828Y-108591823D01*
X130031171Y-108482016D01*
X130185318Y-108341493D01*
X130311019Y-108175038D01*
X130403994Y-107988319D01*
X130461076Y-107787696D01*
X130476529Y-107620933D01*
X130492629Y-107580384D01*
X130707064Y-107580384D01*
X130721693Y-107608566D01*
X130723471Y-107620933D01*
X130738923Y-107787691D01*
X130738923Y-107787693D01*
X130738924Y-107787696D01*
X130796006Y-107988319D01*
X130888981Y-108175038D01*
X131014682Y-108341493D01*
X131168829Y-108482016D01*
X131346172Y-108591823D01*
X131540673Y-108667173D01*
X131745707Y-108705500D01*
X131745710Y-108705500D01*
X131954290Y-108705500D01*
X131954293Y-108705500D01*
X132159327Y-108667173D01*
X132353828Y-108591823D01*
X132531171Y-108482016D01*
X132685318Y-108341493D01*
X132811019Y-108175038D01*
X132903994Y-107988319D01*
X132961076Y-107787696D01*
X132980322Y-107580000D01*
X132961076Y-107372304D01*
X132903994Y-107171681D01*
X132858342Y-107079999D01*
X138969678Y-107079999D01*
X138969678Y-107080000D01*
X138988923Y-107287691D01*
X138988923Y-107287693D01*
X138988924Y-107287696D01*
X139012997Y-107372304D01*
X139046007Y-107488322D01*
X139091849Y-107580384D01*
X139138981Y-107675038D01*
X139264682Y-107841493D01*
X139418829Y-107982016D01*
X139596172Y-108091823D01*
X139790673Y-108167173D01*
X139995707Y-108205500D01*
X139995710Y-108205500D01*
X140204290Y-108205500D01*
X140204293Y-108205500D01*
X140409327Y-108167173D01*
X140603828Y-108091823D01*
X140781171Y-107982016D01*
X140935318Y-107841493D01*
X141061019Y-107675038D01*
X141153994Y-107488319D01*
X141211076Y-107287696D01*
X141230322Y-107080000D01*
X141230322Y-107079999D01*
X148053011Y-107079999D01*
X148053011Y-107080000D01*
X148072256Y-107287691D01*
X148072256Y-107287693D01*
X148072257Y-107287696D01*
X148096330Y-107372304D01*
X148129340Y-107488322D01*
X148175182Y-107580384D01*
X148222314Y-107675038D01*
X148348015Y-107841493D01*
X148502162Y-107982016D01*
X148679505Y-108091823D01*
X148874006Y-108167173D01*
X149079040Y-108205500D01*
X149079043Y-108205500D01*
X149287623Y-108205500D01*
X149287626Y-108205500D01*
X149492660Y-108167173D01*
X149687161Y-108091823D01*
X149864504Y-107982016D01*
X150018651Y-107841493D01*
X150144352Y-107675038D01*
X150237327Y-107488319D01*
X150294409Y-107287696D01*
X150313655Y-107080000D01*
X150313655Y-107079999D01*
X157136344Y-107079999D01*
X157136344Y-107080000D01*
X157155589Y-107287691D01*
X157155589Y-107287693D01*
X157155590Y-107287696D01*
X157179663Y-107372304D01*
X157212673Y-107488322D01*
X157258515Y-107580384D01*
X157305647Y-107675038D01*
X157431348Y-107841493D01*
X157585495Y-107982016D01*
X157762838Y-108091823D01*
X157957339Y-108167173D01*
X158162373Y-108205500D01*
X158162376Y-108205500D01*
X158370956Y-108205500D01*
X158370959Y-108205500D01*
X158575993Y-108167173D01*
X158770494Y-108091823D01*
X158947837Y-107982016D01*
X159101984Y-107841493D01*
X159227685Y-107675038D01*
X159320660Y-107488319D01*
X159377742Y-107287696D01*
X159396988Y-107080000D01*
X159396988Y-107079999D01*
X166219678Y-107079999D01*
X166219678Y-107080000D01*
X166238923Y-107287691D01*
X166238923Y-107287693D01*
X166238924Y-107287696D01*
X166262997Y-107372304D01*
X166296007Y-107488322D01*
X166341849Y-107580384D01*
X166388981Y-107675038D01*
X166514682Y-107841493D01*
X166668829Y-107982016D01*
X166846172Y-108091823D01*
X167040673Y-108167173D01*
X167245707Y-108205500D01*
X167245710Y-108205500D01*
X167454290Y-108205500D01*
X167454293Y-108205500D01*
X167659327Y-108167173D01*
X167853828Y-108091823D01*
X168031171Y-107982016D01*
X168185318Y-107841493D01*
X168311019Y-107675038D01*
X168403994Y-107488319D01*
X168461076Y-107287696D01*
X168480322Y-107080000D01*
X168461076Y-106872304D01*
X168403994Y-106671681D01*
X168311019Y-106484962D01*
X168185318Y-106318507D01*
X168122675Y-106261401D01*
X168031172Y-106177985D01*
X168031171Y-106177984D01*
X167853828Y-106068177D01*
X167853827Y-106068176D01*
X167711609Y-106013081D01*
X167659327Y-105992827D01*
X167454293Y-105954500D01*
X167245707Y-105954500D01*
X167040673Y-105992827D01*
X167040670Y-105992827D01*
X167040670Y-105992828D01*
X166846172Y-106068176D01*
X166846171Y-106068177D01*
X166668827Y-106177985D01*
X166514683Y-106318505D01*
X166388981Y-106484961D01*
X166296007Y-106671677D01*
X166296006Y-106671681D01*
X166243980Y-106854536D01*
X166238923Y-106872308D01*
X166219678Y-107079999D01*
X159396988Y-107079999D01*
X159377742Y-106872304D01*
X159320660Y-106671681D01*
X159227685Y-106484962D01*
X159101984Y-106318507D01*
X159039341Y-106261401D01*
X158947838Y-106177985D01*
X158947837Y-106177984D01*
X158770494Y-106068177D01*
X158770493Y-106068176D01*
X158628275Y-106013081D01*
X158575993Y-105992827D01*
X158370959Y-105954500D01*
X158162373Y-105954500D01*
X157957339Y-105992827D01*
X157957336Y-105992827D01*
X157957336Y-105992828D01*
X157762838Y-106068176D01*
X157762837Y-106068177D01*
X157585493Y-106177985D01*
X157431349Y-106318505D01*
X157305647Y-106484961D01*
X157212673Y-106671677D01*
X157212672Y-106671681D01*
X157160646Y-106854536D01*
X157155589Y-106872308D01*
X157136344Y-107079999D01*
X150313655Y-107079999D01*
X150294409Y-106872304D01*
X150237327Y-106671681D01*
X150144352Y-106484962D01*
X150018651Y-106318507D01*
X149956008Y-106261401D01*
X149864505Y-106177985D01*
X149864504Y-106177984D01*
X149687161Y-106068177D01*
X149687160Y-106068176D01*
X149544942Y-106013081D01*
X149492660Y-105992827D01*
X149287626Y-105954500D01*
X149079040Y-105954500D01*
X148874006Y-105992827D01*
X148874003Y-105992827D01*
X148874003Y-105992828D01*
X148679505Y-106068176D01*
X148679504Y-106068177D01*
X148502160Y-106177985D01*
X148348016Y-106318505D01*
X148222314Y-106484961D01*
X148129340Y-106671677D01*
X148129339Y-106671681D01*
X148077313Y-106854536D01*
X148072256Y-106872308D01*
X148053011Y-107079999D01*
X141230322Y-107079999D01*
X141211076Y-106872304D01*
X141153994Y-106671681D01*
X141061019Y-106484962D01*
X140935318Y-106318507D01*
X140872675Y-106261401D01*
X140781172Y-106177985D01*
X140781171Y-106177984D01*
X140603828Y-106068177D01*
X140603827Y-106068176D01*
X140461609Y-106013081D01*
X140409327Y-105992827D01*
X140204293Y-105954500D01*
X139995707Y-105954500D01*
X139790673Y-105992827D01*
X139790670Y-105992827D01*
X139790670Y-105992828D01*
X139596172Y-106068176D01*
X139596171Y-106068177D01*
X139418827Y-106177985D01*
X139264683Y-106318505D01*
X139138981Y-106484961D01*
X139046007Y-106671677D01*
X139046006Y-106671681D01*
X138993980Y-106854536D01*
X138988923Y-106872308D01*
X138969678Y-107079999D01*
X132858342Y-107079999D01*
X132811019Y-106984962D01*
X132685318Y-106818507D01*
X132531171Y-106677984D01*
X132353828Y-106568177D01*
X132353827Y-106568176D01*
X132211157Y-106512906D01*
X132159327Y-106492827D01*
X131954293Y-106454500D01*
X131745707Y-106454500D01*
X131540673Y-106492827D01*
X131540670Y-106492827D01*
X131540670Y-106492828D01*
X131346172Y-106568176D01*
X131346171Y-106568177D01*
X131168827Y-106677985D01*
X131014683Y-106818505D01*
X130888981Y-106984961D01*
X130796007Y-107171677D01*
X130796006Y-107171681D01*
X130750961Y-107330000D01*
X130738923Y-107372308D01*
X130723471Y-107539066D01*
X130707064Y-107580384D01*
X130492629Y-107580384D01*
X130492935Y-107579614D01*
X130478307Y-107551433D01*
X130476529Y-107539066D01*
X130461076Y-107372308D01*
X130461076Y-107372304D01*
X130403994Y-107171681D01*
X130311019Y-106984962D01*
X130185318Y-106818507D01*
X130031171Y-106677984D01*
X129853828Y-106568177D01*
X129853827Y-106568176D01*
X129711157Y-106512906D01*
X129659327Y-106492827D01*
X129454293Y-106454500D01*
X129245707Y-106454500D01*
X129040673Y-106492827D01*
X129040670Y-106492827D01*
X129040670Y-106492828D01*
X128846172Y-106568176D01*
X128846171Y-106568177D01*
X128668827Y-106677985D01*
X128514683Y-106818505D01*
X128388981Y-106984961D01*
X128296007Y-107171677D01*
X128296006Y-107171681D01*
X128250961Y-107330000D01*
X128238923Y-107372308D01*
X128223471Y-107539066D01*
X128207064Y-107580384D01*
X127992629Y-107580384D01*
X127992935Y-107579614D01*
X127978307Y-107551433D01*
X127976529Y-107539066D01*
X127961076Y-107372308D01*
X127961076Y-107372304D01*
X127903994Y-107171681D01*
X127811019Y-106984962D01*
X127685318Y-106818507D01*
X127531171Y-106677984D01*
X127353828Y-106568177D01*
X127353827Y-106568176D01*
X127211157Y-106512906D01*
X127159327Y-106492827D01*
X126954293Y-106454500D01*
X126745707Y-106454500D01*
X126540673Y-106492827D01*
X126540670Y-106492827D01*
X126540670Y-106492828D01*
X126346172Y-106568176D01*
X126346171Y-106568177D01*
X126168827Y-106677985D01*
X126014683Y-106818505D01*
X125888981Y-106984961D01*
X125796007Y-107171677D01*
X125796006Y-107171681D01*
X125750961Y-107330000D01*
X125738923Y-107372308D01*
X125723471Y-107539066D01*
X125707064Y-107580384D01*
X125492629Y-107580384D01*
X125492935Y-107579614D01*
X125478307Y-107551433D01*
X125476529Y-107539066D01*
X125461076Y-107372308D01*
X125461076Y-107372304D01*
X125403994Y-107171681D01*
X125311019Y-106984962D01*
X125185318Y-106818507D01*
X125031171Y-106677984D01*
X124853828Y-106568177D01*
X124853827Y-106568176D01*
X124711157Y-106512906D01*
X124659327Y-106492827D01*
X124454293Y-106454500D01*
X124245707Y-106454500D01*
X124040673Y-106492827D01*
X124040670Y-106492827D01*
X124040670Y-106492828D01*
X123846172Y-106568176D01*
X123846171Y-106568177D01*
X123668827Y-106677985D01*
X123514683Y-106818505D01*
X123388981Y-106984961D01*
X123296007Y-107171677D01*
X123296006Y-107171681D01*
X123250961Y-107330000D01*
X123238923Y-107372308D01*
X123223471Y-107539066D01*
X123207064Y-107580384D01*
X122992629Y-107580384D01*
X122992935Y-107579614D01*
X122978307Y-107551433D01*
X122976529Y-107539066D01*
X122961076Y-107372308D01*
X122961076Y-107372304D01*
X122903994Y-107171681D01*
X122811019Y-106984962D01*
X122685318Y-106818507D01*
X122531171Y-106677984D01*
X122353828Y-106568177D01*
X122353827Y-106568176D01*
X122211157Y-106512906D01*
X122159327Y-106492827D01*
X121954293Y-106454500D01*
X121745707Y-106454500D01*
X121540673Y-106492827D01*
X121540670Y-106492827D01*
X121540670Y-106492828D01*
X121346172Y-106568176D01*
X121346171Y-106568177D01*
X121168827Y-106677985D01*
X121014683Y-106818505D01*
X120888981Y-106984961D01*
X120796007Y-107171677D01*
X120796006Y-107171681D01*
X120750961Y-107330000D01*
X120738923Y-107372308D01*
X120723471Y-107539066D01*
X120707064Y-107580384D01*
X120492629Y-107580384D01*
X120492935Y-107579614D01*
X120478307Y-107551433D01*
X120476529Y-107539066D01*
X120461076Y-107372308D01*
X120461076Y-107372304D01*
X120403994Y-107171681D01*
X120311019Y-106984962D01*
X120185318Y-106818507D01*
X120031171Y-106677984D01*
X119853828Y-106568177D01*
X119853827Y-106568176D01*
X119711157Y-106512906D01*
X119659327Y-106492827D01*
X119454293Y-106454500D01*
X119245707Y-106454500D01*
X119040673Y-106492827D01*
X119040670Y-106492827D01*
X119040670Y-106492828D01*
X118846172Y-106568176D01*
X118846171Y-106568177D01*
X118668827Y-106677985D01*
X118514683Y-106818505D01*
X118397954Y-106973079D01*
X118341845Y-107014715D01*
X118272133Y-107019406D01*
X118210951Y-106985664D01*
X118177724Y-106924201D01*
X118175000Y-106898352D01*
X118175000Y-106707172D01*
X118174999Y-106707155D01*
X118168598Y-106647627D01*
X118168596Y-106647620D01*
X118118354Y-106512913D01*
X118118350Y-106512906D01*
X118032190Y-106397812D01*
X118032187Y-106397809D01*
X117941604Y-106329998D01*
X136094318Y-106329998D01*
X136094318Y-106330001D01*
X136114955Y-106486760D01*
X136114956Y-106486762D01*
X136175464Y-106632841D01*
X136271718Y-106758282D01*
X136397159Y-106854536D01*
X136543238Y-106915044D01*
X136612793Y-106924201D01*
X136699999Y-106935682D01*
X136700000Y-106935682D01*
X136700001Y-106935682D01*
X136787207Y-106924201D01*
X136856762Y-106915044D01*
X137002841Y-106854536D01*
X137128282Y-106758282D01*
X137224536Y-106632841D01*
X137285044Y-106486762D01*
X137305682Y-106330000D01*
X137285044Y-106173238D01*
X137224536Y-106027159D01*
X137128282Y-105901718D01*
X137002841Y-105805464D01*
X136856762Y-105744956D01*
X136856760Y-105744955D01*
X136700001Y-105724318D01*
X136699999Y-105724318D01*
X136543239Y-105744955D01*
X136543237Y-105744956D01*
X136397160Y-105805463D01*
X136271718Y-105901718D01*
X136175463Y-106027160D01*
X136114956Y-106173237D01*
X136114955Y-106173239D01*
X136094318Y-106329998D01*
X117941604Y-106329998D01*
X117917093Y-106311649D01*
X117917086Y-106311645D01*
X117782379Y-106261403D01*
X117782372Y-106261401D01*
X117722844Y-106255000D01*
X117100000Y-106255000D01*
X117100000Y-107031517D01*
X117081591Y-107020889D01*
X116928991Y-106980000D01*
X116771009Y-106980000D01*
X116618409Y-107020889D01*
X116600000Y-107031517D01*
X116600000Y-106255000D01*
X115977155Y-106255000D01*
X115917627Y-106261401D01*
X115917620Y-106261403D01*
X115782913Y-106311645D01*
X115782906Y-106311649D01*
X115667812Y-106397809D01*
X115667809Y-106397812D01*
X115581649Y-106512906D01*
X115581645Y-106512913D01*
X115531403Y-106647620D01*
X115531401Y-106647627D01*
X115525000Y-106707155D01*
X96500500Y-106707155D01*
X96500500Y-104579999D01*
X138969678Y-104579999D01*
X138969678Y-104580000D01*
X138988923Y-104787691D01*
X138988923Y-104787693D01*
X138988924Y-104787696D01*
X139046006Y-104988319D01*
X139138981Y-105175038D01*
X139264682Y-105341493D01*
X139418829Y-105482016D01*
X139596172Y-105591823D01*
X139790673Y-105667173D01*
X139995707Y-105705500D01*
X139995710Y-105705500D01*
X140204290Y-105705500D01*
X140204293Y-105705500D01*
X140409327Y-105667173D01*
X140603828Y-105591823D01*
X140781171Y-105482016D01*
X140935318Y-105341493D01*
X141061019Y-105175038D01*
X141153994Y-104988319D01*
X141211076Y-104787696D01*
X141230322Y-104580000D01*
X141230322Y-104579999D01*
X148053011Y-104579999D01*
X148053011Y-104580000D01*
X148072256Y-104787691D01*
X148072256Y-104787693D01*
X148072257Y-104787696D01*
X148129339Y-104988319D01*
X148222314Y-105175038D01*
X148348015Y-105341493D01*
X148502162Y-105482016D01*
X148679505Y-105591823D01*
X148874006Y-105667173D01*
X149079040Y-105705500D01*
X149079043Y-105705500D01*
X149287623Y-105705500D01*
X149287626Y-105705500D01*
X149492660Y-105667173D01*
X149687161Y-105591823D01*
X149864504Y-105482016D01*
X150018651Y-105341493D01*
X150144352Y-105175038D01*
X150237327Y-104988319D01*
X150294409Y-104787696D01*
X150313655Y-104580000D01*
X150313655Y-104579999D01*
X157136344Y-104579999D01*
X157136344Y-104580000D01*
X157155589Y-104787691D01*
X157155589Y-104787693D01*
X157155590Y-104787696D01*
X157212672Y-104988319D01*
X157305647Y-105175038D01*
X157431348Y-105341493D01*
X157585495Y-105482016D01*
X157762838Y-105591823D01*
X157957339Y-105667173D01*
X158162373Y-105705500D01*
X158162376Y-105705500D01*
X158370956Y-105705500D01*
X158370959Y-105705500D01*
X158575993Y-105667173D01*
X158770494Y-105591823D01*
X158947837Y-105482016D01*
X159101984Y-105341493D01*
X159227685Y-105175038D01*
X159320660Y-104988319D01*
X159377742Y-104787696D01*
X159396988Y-104580000D01*
X159396988Y-104579999D01*
X166219678Y-104579999D01*
X166219678Y-104580000D01*
X166238923Y-104787691D01*
X166238923Y-104787693D01*
X166238924Y-104787696D01*
X166296006Y-104988319D01*
X166388981Y-105175038D01*
X166514682Y-105341493D01*
X166668829Y-105482016D01*
X166846172Y-105591823D01*
X167040673Y-105667173D01*
X167245707Y-105705500D01*
X167245710Y-105705500D01*
X167454290Y-105705500D01*
X167454293Y-105705500D01*
X167659327Y-105667173D01*
X167853828Y-105591823D01*
X168031171Y-105482016D01*
X168185318Y-105341493D01*
X168311019Y-105175038D01*
X168403994Y-104988319D01*
X168461076Y-104787696D01*
X168480322Y-104580000D01*
X168461076Y-104372304D01*
X168403994Y-104171681D01*
X168311019Y-103984962D01*
X168185318Y-103818507D01*
X168031171Y-103677984D01*
X167853828Y-103568177D01*
X167853827Y-103568176D01*
X167711609Y-103513081D01*
X167659327Y-103492827D01*
X167454293Y-103454500D01*
X167245707Y-103454500D01*
X167040673Y-103492827D01*
X167040670Y-103492827D01*
X167040670Y-103492828D01*
X166846172Y-103568176D01*
X166846171Y-103568177D01*
X166668827Y-103677985D01*
X166514683Y-103818505D01*
X166388981Y-103984961D01*
X166296007Y-104171677D01*
X166238923Y-104372308D01*
X166219678Y-104579999D01*
X159396988Y-104579999D01*
X159377742Y-104372304D01*
X159320660Y-104171681D01*
X159227685Y-103984962D01*
X159101984Y-103818507D01*
X158947837Y-103677984D01*
X158770494Y-103568177D01*
X158770493Y-103568176D01*
X158628275Y-103513081D01*
X158575993Y-103492827D01*
X158370959Y-103454500D01*
X158162373Y-103454500D01*
X157957339Y-103492827D01*
X157957336Y-103492827D01*
X157957336Y-103492828D01*
X157762838Y-103568176D01*
X157762837Y-103568177D01*
X157585493Y-103677985D01*
X157431349Y-103818505D01*
X157305647Y-103984961D01*
X157212673Y-104171677D01*
X157155589Y-104372308D01*
X157136344Y-104579999D01*
X150313655Y-104579999D01*
X150294409Y-104372304D01*
X150237327Y-104171681D01*
X150144352Y-103984962D01*
X150018651Y-103818507D01*
X149864504Y-103677984D01*
X149687161Y-103568177D01*
X149687160Y-103568176D01*
X149544942Y-103513081D01*
X149492660Y-103492827D01*
X149287626Y-103454500D01*
X149079040Y-103454500D01*
X148874006Y-103492827D01*
X148874003Y-103492827D01*
X148874003Y-103492828D01*
X148679505Y-103568176D01*
X148679504Y-103568177D01*
X148502160Y-103677985D01*
X148348016Y-103818505D01*
X148222314Y-103984961D01*
X148129340Y-104171677D01*
X148072256Y-104372308D01*
X148053011Y-104579999D01*
X141230322Y-104579999D01*
X141211076Y-104372304D01*
X141153994Y-104171681D01*
X141061019Y-103984962D01*
X140935318Y-103818507D01*
X140781171Y-103677984D01*
X140603828Y-103568177D01*
X140603827Y-103568176D01*
X140461609Y-103513081D01*
X140409327Y-103492827D01*
X140204293Y-103454500D01*
X139995707Y-103454500D01*
X139790673Y-103492827D01*
X139790670Y-103492827D01*
X139790670Y-103492828D01*
X139596172Y-103568176D01*
X139596171Y-103568177D01*
X139418827Y-103677985D01*
X139264683Y-103818505D01*
X139138981Y-103984961D01*
X139046007Y-104171677D01*
X138988923Y-104372308D01*
X138969678Y-104579999D01*
X96500500Y-104579999D01*
X96500500Y-103329998D01*
X134844318Y-103329998D01*
X134844318Y-103330001D01*
X134864955Y-103486760D01*
X134864956Y-103486762D01*
X134925464Y-103632841D01*
X135021718Y-103758282D01*
X135147159Y-103854536D01*
X135293238Y-103915044D01*
X135371619Y-103925363D01*
X135449999Y-103935682D01*
X135450000Y-103935682D01*
X135450001Y-103935682D01*
X135502254Y-103928802D01*
X135606762Y-103915044D01*
X135752841Y-103854536D01*
X135878282Y-103758282D01*
X135974536Y-103632841D01*
X136035044Y-103486762D01*
X136055682Y-103330000D01*
X136055682Y-103329998D01*
X161494318Y-103329998D01*
X161494318Y-103330001D01*
X161514955Y-103486760D01*
X161514956Y-103486762D01*
X161575464Y-103632841D01*
X161671718Y-103758282D01*
X161797159Y-103854536D01*
X161943238Y-103915044D01*
X162021619Y-103925363D01*
X162099999Y-103935682D01*
X162100000Y-103935682D01*
X162100001Y-103935682D01*
X162152254Y-103928802D01*
X162256762Y-103915044D01*
X162402841Y-103854536D01*
X162528282Y-103758282D01*
X162624536Y-103632841D01*
X162685044Y-103486762D01*
X162705682Y-103330000D01*
X162685044Y-103173238D01*
X162624536Y-103027159D01*
X162528282Y-102901718D01*
X162402841Y-102805464D01*
X162256762Y-102744956D01*
X162256760Y-102744955D01*
X162100001Y-102724318D01*
X162099999Y-102724318D01*
X161943239Y-102744955D01*
X161943237Y-102744956D01*
X161797160Y-102805463D01*
X161671718Y-102901718D01*
X161575463Y-103027160D01*
X161514956Y-103173237D01*
X161514955Y-103173239D01*
X161494318Y-103329998D01*
X136055682Y-103329998D01*
X136035044Y-103173238D01*
X135974536Y-103027159D01*
X135878282Y-102901718D01*
X135752841Y-102805464D01*
X135606762Y-102744956D01*
X135606760Y-102744955D01*
X135450001Y-102724318D01*
X135449999Y-102724318D01*
X135293239Y-102744955D01*
X135293237Y-102744956D01*
X135147160Y-102805463D01*
X135021718Y-102901718D01*
X134925463Y-103027160D01*
X134864956Y-103173237D01*
X134864955Y-103173239D01*
X134844318Y-103329998D01*
X96500500Y-103329998D01*
X96500500Y-99499998D01*
X110144318Y-99499998D01*
X110144318Y-99500001D01*
X110164955Y-99656760D01*
X110164956Y-99656762D01*
X110225464Y-99802841D01*
X110321718Y-99928282D01*
X110447159Y-100024536D01*
X110593238Y-100085044D01*
X110671619Y-100095363D01*
X110749999Y-100105682D01*
X110750000Y-100105682D01*
X110750001Y-100105682D01*
X110802254Y-100098802D01*
X110906762Y-100085044D01*
X111052841Y-100024536D01*
X111178282Y-99928282D01*
X111274536Y-99802841D01*
X111335044Y-99656762D01*
X111355682Y-99500000D01*
X111335044Y-99343238D01*
X111274536Y-99197159D01*
X111178282Y-99071718D01*
X111052841Y-98975464D01*
X110906762Y-98914956D01*
X110906760Y-98914955D01*
X110750001Y-98894318D01*
X110749999Y-98894318D01*
X110593239Y-98914955D01*
X110593237Y-98914956D01*
X110447160Y-98975463D01*
X110321718Y-99071718D01*
X110225463Y-99197160D01*
X110164956Y-99343237D01*
X110164955Y-99343239D01*
X110144318Y-99499998D01*
X96500500Y-99499998D01*
X96500500Y-98457155D01*
X115525000Y-98457155D01*
X115525000Y-99080000D01*
X116301518Y-99080000D01*
X116290889Y-99098409D01*
X116250000Y-99251009D01*
X116250000Y-99408991D01*
X116290889Y-99561591D01*
X116301518Y-99580000D01*
X115525000Y-99580000D01*
X115525000Y-100202844D01*
X115531401Y-100262372D01*
X115531403Y-100262379D01*
X115581645Y-100397086D01*
X115581649Y-100397093D01*
X115667809Y-100512187D01*
X115667812Y-100512190D01*
X115782906Y-100598350D01*
X115782913Y-100598354D01*
X115917620Y-100648596D01*
X115917627Y-100648598D01*
X115977155Y-100654999D01*
X115977172Y-100655000D01*
X116600000Y-100655000D01*
X116600000Y-99878482D01*
X116618409Y-99889111D01*
X116771009Y-99930000D01*
X116928991Y-99930000D01*
X117081591Y-99889111D01*
X117100000Y-99878482D01*
X117100000Y-100655000D01*
X117722828Y-100655000D01*
X117722844Y-100654999D01*
X117782372Y-100648598D01*
X117782379Y-100648596D01*
X117917086Y-100598354D01*
X117917093Y-100598350D01*
X118032187Y-100512190D01*
X118032190Y-100512187D01*
X118118350Y-100397093D01*
X118118354Y-100397086D01*
X118168596Y-100262379D01*
X118168598Y-100262372D01*
X118174999Y-100202844D01*
X118175000Y-100202827D01*
X118175000Y-100011647D01*
X118194685Y-99944608D01*
X118247489Y-99898853D01*
X118316647Y-99888909D01*
X118380203Y-99917934D01*
X118397954Y-99936920D01*
X118514683Y-100091495D01*
X118595266Y-100164955D01*
X118668829Y-100232016D01*
X118846172Y-100341823D01*
X119040673Y-100417173D01*
X119245707Y-100455500D01*
X119245710Y-100455500D01*
X119454290Y-100455500D01*
X119454293Y-100455500D01*
X119659327Y-100417173D01*
X119853828Y-100341823D01*
X120031171Y-100232016D01*
X120185318Y-100091493D01*
X120311019Y-99925038D01*
X120403994Y-99738319D01*
X120461076Y-99537696D01*
X120476529Y-99370933D01*
X120492629Y-99330384D01*
X120707064Y-99330384D01*
X120721693Y-99358566D01*
X120723471Y-99370933D01*
X120738923Y-99537691D01*
X120738923Y-99537693D01*
X120738924Y-99537696D01*
X120796006Y-99738319D01*
X120796007Y-99738322D01*
X120870991Y-99888909D01*
X120888981Y-99925038D01*
X121014682Y-100091493D01*
X121168829Y-100232016D01*
X121346172Y-100341823D01*
X121540673Y-100417173D01*
X121745707Y-100455500D01*
X121745710Y-100455500D01*
X121954290Y-100455500D01*
X121954293Y-100455500D01*
X122159327Y-100417173D01*
X122353828Y-100341823D01*
X122531171Y-100232016D01*
X122685318Y-100091493D01*
X122811019Y-99925038D01*
X122903994Y-99738319D01*
X122961076Y-99537696D01*
X122976529Y-99370933D01*
X122992629Y-99330384D01*
X123207064Y-99330384D01*
X123221693Y-99358566D01*
X123223471Y-99370933D01*
X123238923Y-99537691D01*
X123238923Y-99537693D01*
X123238924Y-99537696D01*
X123296006Y-99738319D01*
X123296007Y-99738322D01*
X123370991Y-99888909D01*
X123388981Y-99925038D01*
X123514682Y-100091493D01*
X123668829Y-100232016D01*
X123846172Y-100341823D01*
X124040673Y-100417173D01*
X124245707Y-100455500D01*
X124245710Y-100455500D01*
X124454290Y-100455500D01*
X124454293Y-100455500D01*
X124659327Y-100417173D01*
X124853828Y-100341823D01*
X125031171Y-100232016D01*
X125185318Y-100091493D01*
X125311019Y-99925038D01*
X125403994Y-99738319D01*
X125461076Y-99537696D01*
X125476529Y-99370933D01*
X125492629Y-99330384D01*
X125707064Y-99330384D01*
X125721693Y-99358566D01*
X125723471Y-99370933D01*
X125738923Y-99537691D01*
X125738923Y-99537693D01*
X125738924Y-99537696D01*
X125796006Y-99738319D01*
X125796007Y-99738322D01*
X125870991Y-99888909D01*
X125888981Y-99925038D01*
X126014682Y-100091493D01*
X126168829Y-100232016D01*
X126346172Y-100341823D01*
X126540673Y-100417173D01*
X126745707Y-100455500D01*
X126745710Y-100455500D01*
X126954290Y-100455500D01*
X126954293Y-100455500D01*
X127159327Y-100417173D01*
X127353828Y-100341823D01*
X127531171Y-100232016D01*
X127685318Y-100091493D01*
X127811019Y-99925038D01*
X127903994Y-99738319D01*
X127961076Y-99537696D01*
X127976529Y-99370933D01*
X127992629Y-99330384D01*
X128207064Y-99330384D01*
X128221693Y-99358566D01*
X128223471Y-99370933D01*
X128238923Y-99537691D01*
X128238923Y-99537693D01*
X128238924Y-99537696D01*
X128296006Y-99738319D01*
X128296007Y-99738322D01*
X128370991Y-99888909D01*
X128388981Y-99925038D01*
X128514682Y-100091493D01*
X128668829Y-100232016D01*
X128846172Y-100341823D01*
X129040673Y-100417173D01*
X129245707Y-100455500D01*
X129245710Y-100455500D01*
X129454290Y-100455500D01*
X129454293Y-100455500D01*
X129659327Y-100417173D01*
X129853828Y-100341823D01*
X130031171Y-100232016D01*
X130185318Y-100091493D01*
X130311019Y-99925038D01*
X130403994Y-99738319D01*
X130461076Y-99537696D01*
X130476529Y-99370933D01*
X130492629Y-99330384D01*
X130707064Y-99330384D01*
X130721693Y-99358566D01*
X130723471Y-99370933D01*
X130738923Y-99537691D01*
X130738923Y-99537693D01*
X130738924Y-99537696D01*
X130796006Y-99738319D01*
X130796007Y-99738322D01*
X130870991Y-99888909D01*
X130888981Y-99925038D01*
X131014682Y-100091493D01*
X131168829Y-100232016D01*
X131346172Y-100341823D01*
X131540673Y-100417173D01*
X131745707Y-100455500D01*
X131745710Y-100455500D01*
X131954290Y-100455500D01*
X131954293Y-100455500D01*
X132159327Y-100417173D01*
X132353828Y-100341823D01*
X132531171Y-100232016D01*
X132685318Y-100091493D01*
X132811019Y-99925038D01*
X132903994Y-99738319D01*
X132961076Y-99537696D01*
X132980322Y-99330000D01*
X132961076Y-99122304D01*
X132903994Y-98921681D01*
X132811019Y-98734962D01*
X132790020Y-98707155D01*
X138775000Y-98707155D01*
X138775000Y-99330000D01*
X139551518Y-99330000D01*
X139540889Y-99348409D01*
X139500000Y-99501009D01*
X139500000Y-99658991D01*
X139540889Y-99811591D01*
X139551518Y-99830000D01*
X138775000Y-99830000D01*
X138775000Y-100452844D01*
X138781401Y-100512372D01*
X138781403Y-100512379D01*
X138831645Y-100647086D01*
X138831649Y-100647093D01*
X138917809Y-100762187D01*
X138917812Y-100762190D01*
X139032906Y-100848350D01*
X139032913Y-100848354D01*
X139167620Y-100898596D01*
X139167627Y-100898598D01*
X139227155Y-100904999D01*
X139227172Y-100905000D01*
X139423897Y-100905000D01*
X139490936Y-100924685D01*
X139536691Y-100977489D01*
X139546635Y-101046647D01*
X139517610Y-101110203D01*
X139489175Y-101134426D01*
X139418833Y-101177980D01*
X139418828Y-101177984D01*
X139264683Y-101318505D01*
X139138981Y-101484961D01*
X139046007Y-101671677D01*
X138988923Y-101872308D01*
X138969678Y-102079999D01*
X138969678Y-102080000D01*
X138988923Y-102287691D01*
X138988923Y-102287693D01*
X138988924Y-102287696D01*
X139046006Y-102488319D01*
X139138981Y-102675038D01*
X139264682Y-102841493D01*
X139418829Y-102982016D01*
X139596172Y-103091823D01*
X139790673Y-103167173D01*
X139995707Y-103205500D01*
X139995710Y-103205500D01*
X140204290Y-103205500D01*
X140204293Y-103205500D01*
X140409327Y-103167173D01*
X140603828Y-103091823D01*
X140781171Y-102982016D01*
X140935318Y-102841493D01*
X141061019Y-102675038D01*
X141153994Y-102488319D01*
X141211076Y-102287696D01*
X141230322Y-102080000D01*
X141211076Y-101872304D01*
X141153994Y-101671681D01*
X141061019Y-101484962D01*
X140935318Y-101318507D01*
X140781171Y-101177984D01*
X140781166Y-101177980D01*
X140710825Y-101134426D01*
X140664190Y-101082398D01*
X140653086Y-101013416D01*
X140681040Y-100949382D01*
X140739175Y-100910626D01*
X140776103Y-100905000D01*
X140972828Y-100905000D01*
X140972844Y-100904999D01*
X141032372Y-100898598D01*
X141032379Y-100898596D01*
X141167086Y-100848354D01*
X141167093Y-100848350D01*
X141282187Y-100762190D01*
X141282190Y-100762187D01*
X141368350Y-100647093D01*
X141368354Y-100647086D01*
X141418596Y-100512379D01*
X141418598Y-100512372D01*
X141424999Y-100452844D01*
X141425000Y-100452827D01*
X141425000Y-99830000D01*
X140648482Y-99830000D01*
X140659111Y-99811591D01*
X140700000Y-99658991D01*
X140700000Y-99501009D01*
X140659111Y-99348409D01*
X140648482Y-99330000D01*
X141425000Y-99330000D01*
X141425000Y-98707172D01*
X141424999Y-98707155D01*
X147858333Y-98707155D01*
X147858333Y-99330000D01*
X148634851Y-99330000D01*
X148624222Y-99348409D01*
X148583333Y-99501009D01*
X148583333Y-99658991D01*
X148624222Y-99811591D01*
X148634851Y-99830000D01*
X147858333Y-99830000D01*
X147858333Y-100452844D01*
X147864734Y-100512372D01*
X147864736Y-100512379D01*
X147914978Y-100647086D01*
X147914982Y-100647093D01*
X148001142Y-100762187D01*
X148001145Y-100762190D01*
X148116239Y-100848350D01*
X148116246Y-100848354D01*
X148250953Y-100898596D01*
X148250960Y-100898598D01*
X148310488Y-100904999D01*
X148310505Y-100905000D01*
X148507230Y-100905000D01*
X148574269Y-100924685D01*
X148620024Y-100977489D01*
X148629968Y-101046647D01*
X148600943Y-101110203D01*
X148572508Y-101134426D01*
X148502166Y-101177980D01*
X148502161Y-101177984D01*
X148348016Y-101318505D01*
X148222314Y-101484961D01*
X148129340Y-101671677D01*
X148072256Y-101872308D01*
X148053011Y-102079999D01*
X148053011Y-102080000D01*
X148072256Y-102287691D01*
X148072256Y-102287693D01*
X148072257Y-102287696D01*
X148129339Y-102488319D01*
X148222314Y-102675038D01*
X148348015Y-102841493D01*
X148502162Y-102982016D01*
X148679505Y-103091823D01*
X148874006Y-103167173D01*
X149079040Y-103205500D01*
X149079043Y-103205500D01*
X149287623Y-103205500D01*
X149287626Y-103205500D01*
X149492660Y-103167173D01*
X149687161Y-103091823D01*
X149864504Y-102982016D01*
X150018651Y-102841493D01*
X150144352Y-102675038D01*
X150237327Y-102488319D01*
X150294409Y-102287696D01*
X150313655Y-102080000D01*
X150294409Y-101872304D01*
X150237327Y-101671681D01*
X150144352Y-101484962D01*
X150018651Y-101318507D01*
X149864504Y-101177984D01*
X149864499Y-101177980D01*
X149794158Y-101134426D01*
X149747523Y-101082398D01*
X149736419Y-101013416D01*
X149764373Y-100949382D01*
X149822508Y-100910626D01*
X149859436Y-100905000D01*
X150056161Y-100905000D01*
X150056177Y-100904999D01*
X150115705Y-100898598D01*
X150115712Y-100898596D01*
X150250419Y-100848354D01*
X150250426Y-100848350D01*
X150365520Y-100762190D01*
X150365523Y-100762187D01*
X150451683Y-100647093D01*
X150451687Y-100647086D01*
X150476709Y-100579998D01*
X150994318Y-100579998D01*
X150994318Y-100580001D01*
X151014955Y-100736760D01*
X151014956Y-100736762D01*
X151075464Y-100882841D01*
X151171718Y-101008282D01*
X151297159Y-101104536D01*
X151443238Y-101165044D01*
X151481012Y-101170017D01*
X151599999Y-101185682D01*
X151600000Y-101185682D01*
X151600001Y-101185682D01*
X151658503Y-101177980D01*
X151756762Y-101165044D01*
X151902841Y-101104536D01*
X152028282Y-101008282D01*
X152124536Y-100882841D01*
X152185044Y-100736762D01*
X152205682Y-100580000D01*
X152185044Y-100423238D01*
X152124536Y-100277159D01*
X152028282Y-100151718D01*
X151902841Y-100055464D01*
X151828174Y-100024536D01*
X151756762Y-99994956D01*
X151756760Y-99994955D01*
X151600001Y-99974318D01*
X151599999Y-99974318D01*
X151443239Y-99994955D01*
X151443237Y-99994956D01*
X151297160Y-100055463D01*
X151171718Y-100151718D01*
X151075463Y-100277160D01*
X151014956Y-100423237D01*
X151014955Y-100423239D01*
X150994318Y-100579998D01*
X150476709Y-100579998D01*
X150501929Y-100512379D01*
X150501931Y-100512372D01*
X150508332Y-100452844D01*
X150508333Y-100452827D01*
X150508333Y-99830000D01*
X149731815Y-99830000D01*
X149742444Y-99811591D01*
X149783333Y-99658991D01*
X149783333Y-99501009D01*
X149742444Y-99348409D01*
X149731815Y-99330000D01*
X150508333Y-99330000D01*
X150508333Y-98707172D01*
X150508332Y-98707155D01*
X156941666Y-98707155D01*
X156941666Y-99330000D01*
X157718184Y-99330000D01*
X157707555Y-99348409D01*
X157666666Y-99501009D01*
X157666666Y-99658991D01*
X157707555Y-99811591D01*
X157718184Y-99830000D01*
X156941666Y-99830000D01*
X156941666Y-100452844D01*
X156948067Y-100512372D01*
X156948069Y-100512379D01*
X156998311Y-100647086D01*
X156998315Y-100647093D01*
X157084475Y-100762187D01*
X157084478Y-100762190D01*
X157199572Y-100848350D01*
X157199579Y-100848354D01*
X157334286Y-100898596D01*
X157334293Y-100898598D01*
X157393821Y-100904999D01*
X157393838Y-100905000D01*
X157590563Y-100905000D01*
X157657602Y-100924685D01*
X157703357Y-100977489D01*
X157713301Y-101046647D01*
X157684276Y-101110203D01*
X157655841Y-101134426D01*
X157585499Y-101177980D01*
X157585494Y-101177984D01*
X157431349Y-101318505D01*
X157305647Y-101484961D01*
X157212673Y-101671677D01*
X157155589Y-101872308D01*
X157136344Y-102079999D01*
X157136344Y-102080000D01*
X157155589Y-102287691D01*
X157155589Y-102287693D01*
X157155590Y-102287696D01*
X157212672Y-102488319D01*
X157305647Y-102675038D01*
X157431348Y-102841493D01*
X157585495Y-102982016D01*
X157762838Y-103091823D01*
X157957339Y-103167173D01*
X158162373Y-103205500D01*
X158162376Y-103205500D01*
X158370956Y-103205500D01*
X158370959Y-103205500D01*
X158575993Y-103167173D01*
X158770494Y-103091823D01*
X158947837Y-102982016D01*
X159101984Y-102841493D01*
X159227685Y-102675038D01*
X159320660Y-102488319D01*
X159377742Y-102287696D01*
X159396988Y-102080000D01*
X159377742Y-101872304D01*
X159320660Y-101671681D01*
X159227685Y-101484962D01*
X159101984Y-101318507D01*
X158947837Y-101177984D01*
X158947832Y-101177980D01*
X158877491Y-101134426D01*
X158830856Y-101082398D01*
X158819752Y-101013416D01*
X158847706Y-100949382D01*
X158905841Y-100910626D01*
X158942769Y-100905000D01*
X159139494Y-100905000D01*
X159139510Y-100904999D01*
X159199038Y-100898598D01*
X159199045Y-100898596D01*
X159333752Y-100848354D01*
X159333759Y-100848350D01*
X159448853Y-100762190D01*
X159448856Y-100762187D01*
X159457981Y-100749998D01*
X161494318Y-100749998D01*
X161494318Y-100750001D01*
X161514955Y-100906760D01*
X161514956Y-100906762D01*
X161559133Y-101013416D01*
X161575464Y-101052841D01*
X161671718Y-101178282D01*
X161797159Y-101274536D01*
X161943238Y-101335044D01*
X162021619Y-101345363D01*
X162099999Y-101355682D01*
X162100000Y-101355682D01*
X162100001Y-101355682D01*
X162152254Y-101348802D01*
X162256762Y-101335044D01*
X162402841Y-101274536D01*
X162524515Y-101181171D01*
X162589683Y-101155979D01*
X162658127Y-101170017D01*
X162675478Y-101181167D01*
X162797159Y-101274536D01*
X162943238Y-101335044D01*
X163021619Y-101345363D01*
X163099999Y-101355682D01*
X163100000Y-101355682D01*
X163100001Y-101355682D01*
X163152254Y-101348802D01*
X163256762Y-101335044D01*
X163402841Y-101274536D01*
X163528282Y-101178282D01*
X163624536Y-101052841D01*
X163624535Y-101052841D01*
X163626624Y-101050120D01*
X163683052Y-101008917D01*
X163752798Y-101004762D01*
X163813718Y-101038974D01*
X163823376Y-101050120D01*
X163825464Y-101052841D01*
X163921718Y-101178282D01*
X164047159Y-101274536D01*
X164193238Y-101335044D01*
X164271619Y-101345363D01*
X164349999Y-101355682D01*
X164350000Y-101355682D01*
X164350001Y-101355682D01*
X164402254Y-101348802D01*
X164506762Y-101335044D01*
X164652841Y-101274536D01*
X164778282Y-101178282D01*
X164874536Y-101052841D01*
X164935044Y-100906762D01*
X164955682Y-100750000D01*
X164935044Y-100593238D01*
X164874536Y-100447159D01*
X164778282Y-100321718D01*
X164652841Y-100225464D01*
X164506762Y-100164956D01*
X164506760Y-100164955D01*
X164350001Y-100144318D01*
X164349999Y-100144318D01*
X164193239Y-100164955D01*
X164193237Y-100164956D01*
X164047160Y-100225463D01*
X163921718Y-100321718D01*
X163823376Y-100449880D01*
X163766947Y-100491082D01*
X163697201Y-100495237D01*
X163636281Y-100461024D01*
X163626624Y-100449880D01*
X163616957Y-100437282D01*
X163528282Y-100321718D01*
X163402841Y-100225464D01*
X163256762Y-100164956D01*
X163256760Y-100164955D01*
X163100001Y-100144318D01*
X163099999Y-100144318D01*
X162943239Y-100164955D01*
X162943237Y-100164956D01*
X162797157Y-100225464D01*
X162675486Y-100318826D01*
X162610317Y-100344020D01*
X162541872Y-100329981D01*
X162524514Y-100318826D01*
X162402842Y-100225464D01*
X162256762Y-100164956D01*
X162256760Y-100164955D01*
X162100001Y-100144318D01*
X162099999Y-100144318D01*
X161943239Y-100164955D01*
X161943237Y-100164956D01*
X161797160Y-100225463D01*
X161671718Y-100321718D01*
X161575463Y-100447160D01*
X161514956Y-100593237D01*
X161514955Y-100593239D01*
X161494318Y-100749998D01*
X159457981Y-100749998D01*
X159535016Y-100647093D01*
X159535020Y-100647086D01*
X159585262Y-100512379D01*
X159585264Y-100512372D01*
X159591665Y-100452844D01*
X159591666Y-100452827D01*
X159591666Y-99830000D01*
X158815148Y-99830000D01*
X158825777Y-99811591D01*
X158866666Y-99658991D01*
X158866666Y-99501009D01*
X158825777Y-99348409D01*
X158815148Y-99330000D01*
X159591666Y-99330000D01*
X159591666Y-98707172D01*
X159591665Y-98707155D01*
X166025000Y-98707155D01*
X166025000Y-99330000D01*
X166801518Y-99330000D01*
X166790889Y-99348409D01*
X166750000Y-99501009D01*
X166750000Y-99658991D01*
X166790889Y-99811591D01*
X166801518Y-99830000D01*
X166025000Y-99830000D01*
X166025000Y-100452844D01*
X166031401Y-100512372D01*
X166031403Y-100512379D01*
X166081645Y-100647086D01*
X166081649Y-100647093D01*
X166167809Y-100762187D01*
X166167812Y-100762190D01*
X166282906Y-100848350D01*
X166282913Y-100848354D01*
X166417620Y-100898596D01*
X166417627Y-100898598D01*
X166477155Y-100904999D01*
X166477172Y-100905000D01*
X166673897Y-100905000D01*
X166740936Y-100924685D01*
X166786691Y-100977489D01*
X166796635Y-101046647D01*
X166767610Y-101110203D01*
X166739175Y-101134426D01*
X166668833Y-101177980D01*
X166668828Y-101177984D01*
X166514683Y-101318505D01*
X166388981Y-101484961D01*
X166296007Y-101671677D01*
X166238923Y-101872308D01*
X166219678Y-102079999D01*
X166219678Y-102080000D01*
X166238923Y-102287691D01*
X166238923Y-102287693D01*
X166238924Y-102287696D01*
X166296006Y-102488319D01*
X166388981Y-102675038D01*
X166514682Y-102841493D01*
X166668829Y-102982016D01*
X166846172Y-103091823D01*
X167040673Y-103167173D01*
X167245707Y-103205500D01*
X167245710Y-103205500D01*
X167454290Y-103205500D01*
X167454293Y-103205500D01*
X167659327Y-103167173D01*
X167853828Y-103091823D01*
X168031171Y-102982016D01*
X168185318Y-102841493D01*
X168311019Y-102675038D01*
X168403994Y-102488319D01*
X168461076Y-102287696D01*
X168480322Y-102080000D01*
X168461076Y-101872304D01*
X168403994Y-101671681D01*
X168311019Y-101484962D01*
X168185318Y-101318507D01*
X168031171Y-101177984D01*
X168031166Y-101177980D01*
X167960825Y-101134426D01*
X167914190Y-101082398D01*
X167903086Y-101013416D01*
X167931040Y-100949382D01*
X167989175Y-100910626D01*
X168026103Y-100905000D01*
X168222828Y-100905000D01*
X168222844Y-100904999D01*
X168282372Y-100898598D01*
X168282379Y-100898596D01*
X168417086Y-100848354D01*
X168417093Y-100848350D01*
X168532187Y-100762190D01*
X168532190Y-100762187D01*
X168618350Y-100647093D01*
X168618354Y-100647086D01*
X168668596Y-100512379D01*
X168668598Y-100512372D01*
X168674999Y-100452844D01*
X168675000Y-100452827D01*
X168675000Y-99830000D01*
X167898482Y-99830000D01*
X167909111Y-99811591D01*
X167950000Y-99658991D01*
X167950000Y-99501009D01*
X167909111Y-99348409D01*
X167898482Y-99330000D01*
X168675000Y-99330000D01*
X168675000Y-98707172D01*
X168674999Y-98707155D01*
X168668598Y-98647627D01*
X168668596Y-98647620D01*
X168618354Y-98512913D01*
X168618350Y-98512906D01*
X168532190Y-98397812D01*
X168532187Y-98397809D01*
X168417093Y-98311649D01*
X168417086Y-98311645D01*
X168282379Y-98261403D01*
X168282372Y-98261401D01*
X168222844Y-98255000D01*
X167600000Y-98255000D01*
X167600000Y-99031517D01*
X167581591Y-99020889D01*
X167428991Y-98980000D01*
X167271009Y-98980000D01*
X167118409Y-99020889D01*
X167100000Y-99031517D01*
X167100000Y-98255000D01*
X166477155Y-98255000D01*
X166417627Y-98261401D01*
X166417620Y-98261403D01*
X166282913Y-98311645D01*
X166282906Y-98311649D01*
X166167812Y-98397809D01*
X166167809Y-98397812D01*
X166081649Y-98512906D01*
X166081645Y-98512913D01*
X166031403Y-98647620D01*
X166031401Y-98647627D01*
X166025000Y-98707155D01*
X159591665Y-98707155D01*
X159585264Y-98647627D01*
X159585262Y-98647620D01*
X159535020Y-98512913D01*
X159535016Y-98512906D01*
X159448856Y-98397812D01*
X159448853Y-98397809D01*
X159333759Y-98311649D01*
X159333752Y-98311645D01*
X159199045Y-98261403D01*
X159199038Y-98261401D01*
X159139510Y-98255000D01*
X158516666Y-98255000D01*
X158516666Y-99031517D01*
X158498257Y-99020889D01*
X158345657Y-98980000D01*
X158187675Y-98980000D01*
X158035075Y-99020889D01*
X158016666Y-99031517D01*
X158016666Y-98255000D01*
X157393821Y-98255000D01*
X157334293Y-98261401D01*
X157334286Y-98261403D01*
X157199579Y-98311645D01*
X157199572Y-98311649D01*
X157084478Y-98397809D01*
X157084475Y-98397812D01*
X156998315Y-98512906D01*
X156998311Y-98512913D01*
X156948069Y-98647620D01*
X156948067Y-98647627D01*
X156941666Y-98707155D01*
X150508332Y-98707155D01*
X150501931Y-98647627D01*
X150501929Y-98647620D01*
X150451687Y-98512913D01*
X150451683Y-98512906D01*
X150365523Y-98397812D01*
X150365520Y-98397809D01*
X150250426Y-98311649D01*
X150250419Y-98311645D01*
X150115712Y-98261403D01*
X150115705Y-98261401D01*
X150056177Y-98255000D01*
X149433333Y-98255000D01*
X149433333Y-99031517D01*
X149414924Y-99020889D01*
X149262324Y-98980000D01*
X149104342Y-98980000D01*
X148951742Y-99020889D01*
X148933333Y-99031517D01*
X148933333Y-98255000D01*
X148310488Y-98255000D01*
X148250960Y-98261401D01*
X148250953Y-98261403D01*
X148116246Y-98311645D01*
X148116239Y-98311649D01*
X148001145Y-98397809D01*
X148001142Y-98397812D01*
X147914982Y-98512906D01*
X147914978Y-98512913D01*
X147864736Y-98647620D01*
X147864734Y-98647627D01*
X147858333Y-98707155D01*
X141424999Y-98707155D01*
X141418598Y-98647627D01*
X141418596Y-98647620D01*
X141368354Y-98512913D01*
X141368350Y-98512906D01*
X141282190Y-98397812D01*
X141282187Y-98397809D01*
X141167093Y-98311649D01*
X141167086Y-98311645D01*
X141032379Y-98261403D01*
X141032372Y-98261401D01*
X140972844Y-98255000D01*
X140350000Y-98255000D01*
X140350000Y-99031517D01*
X140331591Y-99020889D01*
X140178991Y-98980000D01*
X140021009Y-98980000D01*
X139868409Y-99020889D01*
X139850000Y-99031517D01*
X139850000Y-98255000D01*
X139227155Y-98255000D01*
X139167627Y-98261401D01*
X139167620Y-98261403D01*
X139032913Y-98311645D01*
X139032906Y-98311649D01*
X138917812Y-98397809D01*
X138917809Y-98397812D01*
X138831649Y-98512906D01*
X138831645Y-98512913D01*
X138781403Y-98647620D01*
X138781401Y-98647627D01*
X138775000Y-98707155D01*
X132790020Y-98707155D01*
X132685318Y-98568507D01*
X132531171Y-98427984D01*
X132353828Y-98318177D01*
X132353827Y-98318176D01*
X132190749Y-98255000D01*
X132159327Y-98242827D01*
X131954293Y-98204500D01*
X131745707Y-98204500D01*
X131540673Y-98242827D01*
X131540670Y-98242827D01*
X131540670Y-98242828D01*
X131346172Y-98318176D01*
X131346171Y-98318177D01*
X131168827Y-98427985D01*
X131014683Y-98568505D01*
X130888981Y-98734961D01*
X130796007Y-98921677D01*
X130796006Y-98921681D01*
X130750961Y-99080000D01*
X130738923Y-99122308D01*
X130723471Y-99289066D01*
X130707064Y-99330384D01*
X130492629Y-99330384D01*
X130492935Y-99329614D01*
X130478307Y-99301433D01*
X130476529Y-99289066D01*
X130461076Y-99122308D01*
X130461076Y-99122304D01*
X130403994Y-98921681D01*
X130311019Y-98734962D01*
X130185318Y-98568507D01*
X130031171Y-98427984D01*
X129853828Y-98318177D01*
X129853827Y-98318176D01*
X129690749Y-98255000D01*
X129659327Y-98242827D01*
X129454293Y-98204500D01*
X129245707Y-98204500D01*
X129040673Y-98242827D01*
X129040670Y-98242827D01*
X129040670Y-98242828D01*
X128846172Y-98318176D01*
X128846171Y-98318177D01*
X128668827Y-98427985D01*
X128514683Y-98568505D01*
X128388981Y-98734961D01*
X128296007Y-98921677D01*
X128296006Y-98921681D01*
X128250961Y-99080000D01*
X128238923Y-99122308D01*
X128223471Y-99289066D01*
X128207064Y-99330384D01*
X127992629Y-99330384D01*
X127992935Y-99329614D01*
X127978307Y-99301433D01*
X127976529Y-99289066D01*
X127961076Y-99122308D01*
X127961076Y-99122304D01*
X127903994Y-98921681D01*
X127811019Y-98734962D01*
X127685318Y-98568507D01*
X127531171Y-98427984D01*
X127353828Y-98318177D01*
X127353827Y-98318176D01*
X127190749Y-98255000D01*
X127159327Y-98242827D01*
X126954293Y-98204500D01*
X126745707Y-98204500D01*
X126540673Y-98242827D01*
X126540670Y-98242827D01*
X126540670Y-98242828D01*
X126346172Y-98318176D01*
X126346171Y-98318177D01*
X126168827Y-98427985D01*
X126014683Y-98568505D01*
X125888981Y-98734961D01*
X125796007Y-98921677D01*
X125796006Y-98921681D01*
X125750961Y-99080000D01*
X125738923Y-99122308D01*
X125723471Y-99289066D01*
X125707064Y-99330384D01*
X125492629Y-99330384D01*
X125492935Y-99329614D01*
X125478307Y-99301433D01*
X125476529Y-99289066D01*
X125461076Y-99122308D01*
X125461076Y-99122304D01*
X125403994Y-98921681D01*
X125311019Y-98734962D01*
X125185318Y-98568507D01*
X125031171Y-98427984D01*
X124853828Y-98318177D01*
X124853827Y-98318176D01*
X124690749Y-98255000D01*
X124659327Y-98242827D01*
X124454293Y-98204500D01*
X124245707Y-98204500D01*
X124040673Y-98242827D01*
X124040670Y-98242827D01*
X124040670Y-98242828D01*
X123846172Y-98318176D01*
X123846171Y-98318177D01*
X123668827Y-98427985D01*
X123514683Y-98568505D01*
X123388981Y-98734961D01*
X123296007Y-98921677D01*
X123296006Y-98921681D01*
X123250961Y-99080000D01*
X123238923Y-99122308D01*
X123223471Y-99289066D01*
X123207064Y-99330384D01*
X122992629Y-99330384D01*
X122992935Y-99329614D01*
X122978307Y-99301433D01*
X122976529Y-99289066D01*
X122961076Y-99122308D01*
X122961076Y-99122304D01*
X122903994Y-98921681D01*
X122811019Y-98734962D01*
X122685318Y-98568507D01*
X122531171Y-98427984D01*
X122353828Y-98318177D01*
X122353827Y-98318176D01*
X122190749Y-98255000D01*
X122159327Y-98242827D01*
X121954293Y-98204500D01*
X121745707Y-98204500D01*
X121540673Y-98242827D01*
X121540670Y-98242827D01*
X121540670Y-98242828D01*
X121346172Y-98318176D01*
X121346171Y-98318177D01*
X121168827Y-98427985D01*
X121014683Y-98568505D01*
X120888981Y-98734961D01*
X120796007Y-98921677D01*
X120796006Y-98921681D01*
X120750961Y-99080000D01*
X120738923Y-99122308D01*
X120723471Y-99289066D01*
X120707064Y-99330384D01*
X120492629Y-99330384D01*
X120492935Y-99329614D01*
X120478307Y-99301433D01*
X120476529Y-99289066D01*
X120461076Y-99122308D01*
X120461076Y-99122304D01*
X120403994Y-98921681D01*
X120311019Y-98734962D01*
X120185318Y-98568507D01*
X120031171Y-98427984D01*
X119853828Y-98318177D01*
X119853827Y-98318176D01*
X119690749Y-98255000D01*
X119659327Y-98242827D01*
X119454293Y-98204500D01*
X119245707Y-98204500D01*
X119040673Y-98242827D01*
X119040670Y-98242827D01*
X119040670Y-98242828D01*
X118846172Y-98318176D01*
X118846171Y-98318177D01*
X118668827Y-98427985D01*
X118514683Y-98568505D01*
X118397954Y-98723079D01*
X118341845Y-98764715D01*
X118272133Y-98769406D01*
X118210951Y-98735664D01*
X118177724Y-98674201D01*
X118175000Y-98648352D01*
X118175000Y-98457172D01*
X118174999Y-98457155D01*
X118168598Y-98397627D01*
X118168596Y-98397620D01*
X118118354Y-98262913D01*
X118118350Y-98262906D01*
X118032190Y-98147812D01*
X118032187Y-98147809D01*
X117917093Y-98061649D01*
X117917086Y-98061645D01*
X117782379Y-98011403D01*
X117782372Y-98011401D01*
X117722844Y-98005000D01*
X117100000Y-98005000D01*
X117100000Y-98781517D01*
X117081591Y-98770889D01*
X116928991Y-98730000D01*
X116771009Y-98730000D01*
X116618409Y-98770889D01*
X116600000Y-98781517D01*
X116600000Y-98005000D01*
X115977155Y-98005000D01*
X115917627Y-98011401D01*
X115917620Y-98011403D01*
X115782913Y-98061645D01*
X115782906Y-98061649D01*
X115667812Y-98147809D01*
X115667809Y-98147812D01*
X115581649Y-98262906D01*
X115581645Y-98262913D01*
X115531403Y-98397620D01*
X115531401Y-98397627D01*
X115525000Y-98457155D01*
X96500500Y-98457155D01*
X96500500Y-95579998D01*
X133244318Y-95579998D01*
X133244318Y-95580001D01*
X133264955Y-95736760D01*
X133264956Y-95736762D01*
X133325464Y-95882841D01*
X133421718Y-96008282D01*
X133547159Y-96104536D01*
X133693238Y-96165044D01*
X133771619Y-96175363D01*
X133849999Y-96185682D01*
X133850000Y-96185682D01*
X133850001Y-96185682D01*
X133902254Y-96178802D01*
X134006762Y-96165044D01*
X134152841Y-96104536D01*
X134278282Y-96008282D01*
X134374536Y-95882841D01*
X134435044Y-95736762D01*
X134455682Y-95580000D01*
X134435044Y-95423238D01*
X134374536Y-95277159D01*
X134278282Y-95151718D01*
X134152841Y-95055464D01*
X134078174Y-95024536D01*
X134006762Y-94994956D01*
X134006760Y-94994955D01*
X133850001Y-94974318D01*
X133849999Y-94974318D01*
X133693239Y-94994955D01*
X133693237Y-94994956D01*
X133547160Y-95055463D01*
X133421718Y-95151718D01*
X133325463Y-95277160D01*
X133264956Y-95423237D01*
X133264955Y-95423239D01*
X133244318Y-95579998D01*
X96500500Y-95579998D01*
X96500500Y-94499998D01*
X127744318Y-94499998D01*
X127744318Y-94500001D01*
X127764955Y-94656760D01*
X127764956Y-94656762D01*
X127825464Y-94802841D01*
X127921718Y-94928282D01*
X128047159Y-95024536D01*
X128193238Y-95085044D01*
X128271619Y-95095363D01*
X128349999Y-95105682D01*
X128350000Y-95105682D01*
X128350001Y-95105682D01*
X128402254Y-95098802D01*
X128506762Y-95085044D01*
X128652841Y-95024536D01*
X128778282Y-94928282D01*
X128874536Y-94802841D01*
X128935044Y-94656762D01*
X128955682Y-94500000D01*
X128935044Y-94343238D01*
X128874536Y-94197159D01*
X128778282Y-94071718D01*
X128652841Y-93975464D01*
X128506762Y-93914956D01*
X128506760Y-93914955D01*
X128350001Y-93894318D01*
X128349999Y-93894318D01*
X128193239Y-93914955D01*
X128193237Y-93914956D01*
X128047160Y-93975463D01*
X127921718Y-94071718D01*
X127825463Y-94197160D01*
X127764956Y-94343237D01*
X127764955Y-94343239D01*
X127744318Y-94499998D01*
X96500500Y-94499998D01*
X96500500Y-93719999D01*
X120094722Y-93719999D01*
X120094722Y-93720000D01*
X120113762Y-93876818D01*
X120151174Y-93975463D01*
X120169780Y-94024523D01*
X120259517Y-94154530D01*
X120377760Y-94259283D01*
X120377762Y-94259284D01*
X120517634Y-94332696D01*
X120671014Y-94370500D01*
X120671015Y-94370500D01*
X120828985Y-94370500D01*
X120982365Y-94332696D01*
X121122240Y-94259283D01*
X121240483Y-94154530D01*
X121330220Y-94024523D01*
X121386237Y-93876818D01*
X121405278Y-93720000D01*
X121386237Y-93563182D01*
X121382953Y-93554524D01*
X121364992Y-93507164D01*
X121330220Y-93415477D01*
X121240483Y-93285470D01*
X121200444Y-93249999D01*
X126344722Y-93249999D01*
X126344722Y-93250000D01*
X126363762Y-93406818D01*
X126402243Y-93508282D01*
X126419780Y-93554523D01*
X126509517Y-93684530D01*
X126627760Y-93789283D01*
X126627762Y-93789284D01*
X126767634Y-93862696D01*
X126921014Y-93900500D01*
X126921015Y-93900500D01*
X127078985Y-93900500D01*
X127232365Y-93862696D01*
X127372240Y-93789283D01*
X127490483Y-93684530D01*
X127580220Y-93554523D01*
X127636237Y-93406818D01*
X127655278Y-93250000D01*
X127653671Y-93236760D01*
X127636237Y-93093181D01*
X127631237Y-93079998D01*
X139244318Y-93079998D01*
X139244318Y-93080001D01*
X139264955Y-93236760D01*
X139264956Y-93236762D01*
X139285131Y-93285470D01*
X139325464Y-93382841D01*
X139421718Y-93508282D01*
X139547159Y-93604536D01*
X139693238Y-93665044D01*
X139771619Y-93675363D01*
X139849999Y-93685682D01*
X139850000Y-93685682D01*
X139850001Y-93685682D01*
X139902254Y-93678802D01*
X140006762Y-93665044D01*
X140152841Y-93604536D01*
X140278282Y-93508282D01*
X140374536Y-93382841D01*
X140435044Y-93236762D01*
X140455682Y-93080000D01*
X140435044Y-92923238D01*
X140374536Y-92777159D01*
X140278282Y-92651718D01*
X140152841Y-92555464D01*
X140109380Y-92537462D01*
X140006762Y-92494956D01*
X140006760Y-92494955D01*
X139850001Y-92474318D01*
X139849999Y-92474318D01*
X139693239Y-92494955D01*
X139693237Y-92494956D01*
X139547160Y-92555463D01*
X139421718Y-92651718D01*
X139325463Y-92777160D01*
X139264956Y-92923237D01*
X139264955Y-92923239D01*
X139244318Y-93079998D01*
X127631237Y-93079998D01*
X127614992Y-93037164D01*
X127580220Y-92945477D01*
X127490483Y-92815470D01*
X127372240Y-92710717D01*
X127372238Y-92710716D01*
X127372237Y-92710715D01*
X127232365Y-92637303D01*
X127078986Y-92599500D01*
X127078985Y-92599500D01*
X126921015Y-92599500D01*
X126921014Y-92599500D01*
X126767634Y-92637303D01*
X126627762Y-92710715D01*
X126509516Y-92815471D01*
X126419781Y-92945475D01*
X126419780Y-92945476D01*
X126363762Y-93093181D01*
X126344722Y-93249999D01*
X121200444Y-93249999D01*
X121122240Y-93180717D01*
X121122238Y-93180716D01*
X121122237Y-93180715D01*
X120982365Y-93107303D01*
X120828986Y-93069500D01*
X120828985Y-93069500D01*
X120671015Y-93069500D01*
X120671014Y-93069500D01*
X120517634Y-93107303D01*
X120377762Y-93180715D01*
X120259516Y-93285471D01*
X120169781Y-93415475D01*
X120169780Y-93415476D01*
X120113762Y-93563181D01*
X120094722Y-93719999D01*
X96500500Y-93719999D01*
X96500500Y-91650000D01*
X97905138Y-91650000D01*
X98708012Y-91650000D01*
X98690795Y-91659940D01*
X98634940Y-91715795D01*
X98595444Y-91784204D01*
X98575000Y-91860504D01*
X98575000Y-91939496D01*
X98595444Y-92015796D01*
X98634940Y-92084205D01*
X98690795Y-92140060D01*
X98708012Y-92150000D01*
X97905138Y-92150000D01*
X97913430Y-92191690D01*
X97913430Y-92191692D01*
X97988807Y-92373671D01*
X97988814Y-92373684D01*
X98098248Y-92537462D01*
X98098251Y-92537466D01*
X98237533Y-92676748D01*
X98237537Y-92676751D01*
X98401315Y-92786185D01*
X98401328Y-92786192D01*
X98583306Y-92861569D01*
X98583318Y-92861572D01*
X98776504Y-92899999D01*
X98776508Y-92900000D01*
X99025000Y-92900000D01*
X99025000Y-92200000D01*
X99525000Y-92200000D01*
X99525000Y-92900000D01*
X99773492Y-92900000D01*
X99773495Y-92899999D01*
X99966681Y-92861572D01*
X99966693Y-92861569D01*
X100148671Y-92786192D01*
X100148684Y-92786185D01*
X100312462Y-92676751D01*
X100312466Y-92676748D01*
X100451748Y-92537466D01*
X100451751Y-92537462D01*
X100561185Y-92373684D01*
X100561192Y-92373671D01*
X100636569Y-92191692D01*
X100636569Y-92191690D01*
X100644862Y-92150000D01*
X99841988Y-92150000D01*
X99859205Y-92140060D01*
X99915060Y-92084205D01*
X99954556Y-92015796D01*
X99975000Y-91939496D01*
X99975000Y-91860504D01*
X99954556Y-91784204D01*
X99915060Y-91715795D01*
X99859205Y-91659940D01*
X99841988Y-91650000D01*
X100644862Y-91650000D01*
X101935138Y-91650000D01*
X102738012Y-91650000D01*
X102720795Y-91659940D01*
X102664940Y-91715795D01*
X102625444Y-91784204D01*
X102605000Y-91860504D01*
X102605000Y-91939496D01*
X102625444Y-92015796D01*
X102664940Y-92084205D01*
X102720795Y-92140060D01*
X102738012Y-92150000D01*
X101935138Y-92150000D01*
X101943430Y-92191690D01*
X101943430Y-92191692D01*
X102018807Y-92373671D01*
X102018814Y-92373684D01*
X102128248Y-92537462D01*
X102128251Y-92537466D01*
X102267533Y-92676748D01*
X102267537Y-92676751D01*
X102431315Y-92786185D01*
X102431328Y-92786192D01*
X102613306Y-92861569D01*
X102613318Y-92861572D01*
X102806504Y-92899999D01*
X102806508Y-92900000D01*
X103205000Y-92900000D01*
X103205000Y-92200000D01*
X103705000Y-92200000D01*
X103705000Y-92900000D01*
X104103492Y-92900000D01*
X104103495Y-92899999D01*
X104296681Y-92861572D01*
X104296693Y-92861569D01*
X104478671Y-92786192D01*
X104478684Y-92786185D01*
X104642462Y-92676751D01*
X104642466Y-92676748D01*
X104781748Y-92537466D01*
X104781751Y-92537462D01*
X104891185Y-92373684D01*
X104891192Y-92373671D01*
X104966569Y-92191692D01*
X104966569Y-92191690D01*
X104974862Y-92150000D01*
X104171988Y-92150000D01*
X104189205Y-92140060D01*
X104245060Y-92084205D01*
X104284556Y-92015796D01*
X104305000Y-91939496D01*
X104305000Y-91860504D01*
X104284556Y-91784204D01*
X104245060Y-91715795D01*
X104189205Y-91659940D01*
X104171988Y-91650000D01*
X104974862Y-91650000D01*
X104966569Y-91608309D01*
X104966569Y-91608307D01*
X104891192Y-91426328D01*
X104891185Y-91426315D01*
X104781751Y-91262537D01*
X104781748Y-91262533D01*
X104642466Y-91123251D01*
X104642462Y-91123248D01*
X104478684Y-91013814D01*
X104478671Y-91013807D01*
X104296693Y-90938430D01*
X104296681Y-90938427D01*
X104103495Y-90900000D01*
X103705000Y-90900000D01*
X103705000Y-91600000D01*
X103205000Y-91600000D01*
X103205000Y-91061784D01*
X103224685Y-90994745D01*
X103267000Y-90954397D01*
X103308365Y-90930515D01*
X103415515Y-90823365D01*
X103457872Y-90750000D01*
X105094540Y-90750000D01*
X105114326Y-90938256D01*
X105114327Y-90938259D01*
X105172818Y-91118277D01*
X105172821Y-91118284D01*
X105267467Y-91282216D01*
X105394129Y-91422888D01*
X105547265Y-91534148D01*
X105547270Y-91534151D01*
X105720192Y-91611142D01*
X105720197Y-91611144D01*
X105905354Y-91650500D01*
X105905355Y-91650500D01*
X106094644Y-91650500D01*
X106094646Y-91650500D01*
X106279803Y-91611144D01*
X106452730Y-91534151D01*
X106605871Y-91422888D01*
X106732533Y-91282216D01*
X106827179Y-91118284D01*
X106885674Y-90938256D01*
X106905460Y-90750000D01*
X106887593Y-90579998D01*
X138069318Y-90579998D01*
X138069318Y-90580001D01*
X138089955Y-90736760D01*
X138089956Y-90736762D01*
X138150464Y-90882841D01*
X138246718Y-91008282D01*
X138372159Y-91104536D01*
X138518238Y-91165044D01*
X138596619Y-91175363D01*
X138674999Y-91185682D01*
X138675000Y-91185682D01*
X138675001Y-91185682D01*
X138727254Y-91178802D01*
X138831762Y-91165044D01*
X138977841Y-91104536D01*
X139103282Y-91008282D01*
X139199536Y-90882841D01*
X139260044Y-90736762D01*
X139280682Y-90580000D01*
X139260044Y-90423238D01*
X139199536Y-90277159D01*
X139103282Y-90151718D01*
X138977841Y-90055464D01*
X138831762Y-89994956D01*
X138831760Y-89994955D01*
X138675001Y-89974318D01*
X138674999Y-89974318D01*
X138518239Y-89994955D01*
X138518237Y-89994956D01*
X138372160Y-90055463D01*
X138246718Y-90151718D01*
X138150463Y-90277160D01*
X138089956Y-90423237D01*
X138089955Y-90423239D01*
X138069318Y-90579998D01*
X106887593Y-90579998D01*
X106885674Y-90561744D01*
X106827179Y-90381716D01*
X106732533Y-90217784D01*
X106605871Y-90077112D01*
X106605870Y-90077111D01*
X106452734Y-89965851D01*
X106452729Y-89965848D01*
X106279807Y-89888857D01*
X106279802Y-89888855D01*
X106134001Y-89857865D01*
X106094646Y-89849500D01*
X105905354Y-89849500D01*
X105872897Y-89856398D01*
X105720197Y-89888855D01*
X105720192Y-89888857D01*
X105547270Y-89965848D01*
X105547265Y-89965851D01*
X105394129Y-90077111D01*
X105267466Y-90217785D01*
X105172821Y-90381715D01*
X105172818Y-90381722D01*
X105114327Y-90561740D01*
X105114326Y-90561744D01*
X105094540Y-90750000D01*
X103457872Y-90750000D01*
X103491281Y-90692135D01*
X103530500Y-90545766D01*
X103530500Y-90394234D01*
X103491281Y-90247865D01*
X103415515Y-90116635D01*
X103308365Y-90009485D01*
X103232784Y-89965848D01*
X103177136Y-89933719D01*
X103076521Y-89906760D01*
X103030766Y-89894500D01*
X102879234Y-89894500D01*
X102732863Y-89933719D01*
X102601635Y-90009485D01*
X102601632Y-90009487D01*
X102494487Y-90116632D01*
X102494485Y-90116635D01*
X102418719Y-90247863D01*
X102379500Y-90394234D01*
X102379500Y-90545765D01*
X102418719Y-90692136D01*
X102458153Y-90760437D01*
X102494485Y-90823365D01*
X102494486Y-90823366D01*
X102498549Y-90830403D01*
X102496346Y-90831674D01*
X102516959Y-90884983D01*
X102502923Y-90953428D01*
X102454112Y-91003420D01*
X102440845Y-91009866D01*
X102431324Y-91013809D01*
X102431315Y-91013814D01*
X102267537Y-91123248D01*
X102267533Y-91123251D01*
X102128251Y-91262533D01*
X102128248Y-91262537D01*
X102018814Y-91426315D01*
X102018807Y-91426328D01*
X101943430Y-91608307D01*
X101943430Y-91608309D01*
X101935138Y-91650000D01*
X100644862Y-91650000D01*
X100636569Y-91608309D01*
X100636569Y-91608307D01*
X100561192Y-91426328D01*
X100561185Y-91426315D01*
X100451751Y-91262537D01*
X100451748Y-91262533D01*
X100312466Y-91123251D01*
X100312462Y-91123248D01*
X100148684Y-91013814D01*
X100148671Y-91013807D01*
X99966693Y-90938430D01*
X99966681Y-90938427D01*
X99773495Y-90900000D01*
X99525000Y-90900000D01*
X99525000Y-91600000D01*
X99025000Y-91600000D01*
X99025000Y-90900000D01*
X98776504Y-90900000D01*
X98583318Y-90938427D01*
X98583306Y-90938430D01*
X98401328Y-91013807D01*
X98401315Y-91013814D01*
X98237537Y-91123248D01*
X98237533Y-91123251D01*
X98098251Y-91262533D01*
X98098248Y-91262537D01*
X97988814Y-91426315D01*
X97988807Y-91426328D01*
X97913430Y-91608307D01*
X97913430Y-91608309D01*
X97905138Y-91650000D01*
X96500500Y-91650000D01*
X96500500Y-89749998D01*
X119994318Y-89749998D01*
X119994318Y-89750001D01*
X120014955Y-89906760D01*
X120014956Y-89906762D01*
X120039431Y-89965851D01*
X120075464Y-90052841D01*
X120171718Y-90178282D01*
X120297159Y-90274536D01*
X120443238Y-90335044D01*
X120521619Y-90345363D01*
X120599999Y-90355682D01*
X120600000Y-90355682D01*
X120600001Y-90355682D01*
X120652254Y-90348802D01*
X120756762Y-90335044D01*
X120902841Y-90274536D01*
X121028282Y-90178282D01*
X121124536Y-90052841D01*
X121185044Y-89906762D01*
X121205682Y-89750000D01*
X121185044Y-89593238D01*
X121124536Y-89447159D01*
X121028282Y-89321718D01*
X120902841Y-89225464D01*
X120756762Y-89164956D01*
X120756760Y-89164955D01*
X120600001Y-89144318D01*
X120599999Y-89144318D01*
X120443239Y-89164955D01*
X120443237Y-89164956D01*
X120297160Y-89225463D01*
X120171718Y-89321718D01*
X120075463Y-89447160D01*
X120014956Y-89593237D01*
X120014955Y-89593239D01*
X119994318Y-89749998D01*
X96500500Y-89749998D01*
X96500500Y-86699998D01*
X144994318Y-86699998D01*
X144994318Y-86700001D01*
X145014955Y-86856760D01*
X145014956Y-86856762D01*
X145075464Y-87002841D01*
X145171718Y-87128282D01*
X145297159Y-87224536D01*
X145443238Y-87285044D01*
X145521619Y-87295363D01*
X145599999Y-87305682D01*
X145600000Y-87305682D01*
X145600001Y-87305682D01*
X145652254Y-87298802D01*
X145756762Y-87285044D01*
X145902841Y-87224536D01*
X146028282Y-87128282D01*
X146124536Y-87002841D01*
X146185044Y-86856762D01*
X146205682Y-86700000D01*
X146185044Y-86543238D01*
X146124536Y-86397159D01*
X146028282Y-86271718D01*
X145902841Y-86175464D01*
X145756762Y-86114956D01*
X145756760Y-86114955D01*
X145600001Y-86094318D01*
X145599999Y-86094318D01*
X145443239Y-86114955D01*
X145443237Y-86114956D01*
X145297160Y-86175463D01*
X145171718Y-86271718D01*
X145075463Y-86397160D01*
X145014956Y-86543237D01*
X145014955Y-86543239D01*
X144994318Y-86699998D01*
X96500500Y-86699998D01*
X96500500Y-83010000D01*
X97905138Y-83010000D01*
X98708012Y-83010000D01*
X98690795Y-83019940D01*
X98634940Y-83075795D01*
X98595444Y-83144204D01*
X98575000Y-83220504D01*
X98575000Y-83299496D01*
X98595444Y-83375796D01*
X98634940Y-83444205D01*
X98690795Y-83500060D01*
X98708012Y-83510000D01*
X97905138Y-83510000D01*
X97913430Y-83551690D01*
X97913430Y-83551692D01*
X97988807Y-83733671D01*
X97988814Y-83733684D01*
X98098248Y-83897462D01*
X98098251Y-83897466D01*
X98237533Y-84036748D01*
X98237537Y-84036751D01*
X98401315Y-84146185D01*
X98401328Y-84146192D01*
X98583306Y-84221569D01*
X98583318Y-84221572D01*
X98776504Y-84259999D01*
X98776508Y-84260000D01*
X99025000Y-84260000D01*
X99025000Y-83560000D01*
X99525000Y-83560000D01*
X99525000Y-84260000D01*
X99773492Y-84260000D01*
X99773495Y-84259999D01*
X99966681Y-84221572D01*
X99966693Y-84221569D01*
X100148671Y-84146192D01*
X100148684Y-84146185D01*
X100312462Y-84036751D01*
X100312466Y-84036748D01*
X100451748Y-83897466D01*
X100451751Y-83897462D01*
X100561185Y-83733684D01*
X100561192Y-83733671D01*
X100636569Y-83551692D01*
X100636569Y-83551690D01*
X100644862Y-83510000D01*
X99841988Y-83510000D01*
X99859205Y-83500060D01*
X99915060Y-83444205D01*
X99954556Y-83375796D01*
X99975000Y-83299496D01*
X99975000Y-83220504D01*
X99954556Y-83144204D01*
X99915060Y-83075795D01*
X99859205Y-83019940D01*
X99841988Y-83010000D01*
X100644862Y-83010000D01*
X101935138Y-83010000D01*
X102738012Y-83010000D01*
X102720795Y-83019940D01*
X102664940Y-83075795D01*
X102625444Y-83144204D01*
X102605000Y-83220504D01*
X102605000Y-83299496D01*
X102625444Y-83375796D01*
X102664940Y-83444205D01*
X102720795Y-83500060D01*
X102738012Y-83510000D01*
X101935138Y-83510000D01*
X101943430Y-83551690D01*
X101943430Y-83551692D01*
X102018807Y-83733671D01*
X102018814Y-83733684D01*
X102128248Y-83897462D01*
X102128251Y-83897466D01*
X102267533Y-84036748D01*
X102267537Y-84036751D01*
X102431315Y-84146185D01*
X102431328Y-84146192D01*
X102440838Y-84150131D01*
X102495243Y-84193970D01*
X102517310Y-84260264D01*
X102500033Y-84327963D01*
X102496350Y-84333405D01*
X102418719Y-84467863D01*
X102395950Y-84552841D01*
X102379500Y-84614234D01*
X102379500Y-84765766D01*
X102381850Y-84774536D01*
X102418719Y-84912136D01*
X102446344Y-84959983D01*
X102494485Y-85043365D01*
X102601635Y-85150515D01*
X102732865Y-85226281D01*
X102879234Y-85265500D01*
X102879236Y-85265500D01*
X103030764Y-85265500D01*
X103030766Y-85265500D01*
X103177135Y-85226281D01*
X103308365Y-85150515D01*
X103415515Y-85043365D01*
X103491281Y-84912135D01*
X103530500Y-84765766D01*
X103530500Y-84625000D01*
X105819417Y-84625000D01*
X105839699Y-84830932D01*
X105843346Y-84842953D01*
X105899768Y-85028954D01*
X105997315Y-85211450D01*
X106031969Y-85253677D01*
X106128589Y-85371410D01*
X106199984Y-85430001D01*
X106288550Y-85502685D01*
X106471046Y-85600232D01*
X106669066Y-85660300D01*
X106669065Y-85660300D01*
X106687529Y-85662118D01*
X106875000Y-85680583D01*
X107080934Y-85660300D01*
X107278954Y-85600232D01*
X107461450Y-85502685D01*
X107550020Y-85429998D01*
X127744318Y-85429998D01*
X127744318Y-85430001D01*
X127764955Y-85586760D01*
X127764956Y-85586762D01*
X127803817Y-85680582D01*
X127825464Y-85732841D01*
X127921718Y-85858282D01*
X128047159Y-85954536D01*
X128193238Y-86015044D01*
X128271619Y-86025363D01*
X128349999Y-86035682D01*
X128350000Y-86035682D01*
X128350001Y-86035682D01*
X128402254Y-86028802D01*
X128506762Y-86015044D01*
X128652841Y-85954536D01*
X128778282Y-85858282D01*
X128874536Y-85732841D01*
X128935044Y-85586762D01*
X128955682Y-85430000D01*
X128935044Y-85273238D01*
X128874536Y-85127159D01*
X128778282Y-85001718D01*
X128723890Y-84959981D01*
X128682689Y-84903555D01*
X128678534Y-84833808D01*
X128712747Y-84772888D01*
X128751926Y-84747046D01*
X128756758Y-84745044D01*
X128756762Y-84745044D01*
X128902841Y-84684536D01*
X129028282Y-84588282D01*
X129124536Y-84462841D01*
X129185044Y-84316762D01*
X129205682Y-84160000D01*
X129185044Y-84003238D01*
X129124536Y-83857159D01*
X129028282Y-83731718D01*
X128902841Y-83635464D01*
X128900861Y-83634644D01*
X128756762Y-83574956D01*
X128756760Y-83574955D01*
X128600001Y-83554318D01*
X128599999Y-83554318D01*
X128443239Y-83574955D01*
X128443237Y-83574956D01*
X128297160Y-83635463D01*
X128171718Y-83731718D01*
X128075463Y-83857160D01*
X128014956Y-84003237D01*
X128014955Y-84003239D01*
X127994318Y-84159998D01*
X127994318Y-84160001D01*
X128014955Y-84316760D01*
X128014956Y-84316762D01*
X128075464Y-84462841D01*
X128171718Y-84588282D01*
X128226109Y-84630017D01*
X128267310Y-84686444D01*
X128271465Y-84756190D01*
X128237253Y-84817111D01*
X128198074Y-84842953D01*
X128047160Y-84905463D01*
X127921718Y-85001718D01*
X127825463Y-85127160D01*
X127764956Y-85273237D01*
X127764955Y-85273239D01*
X127744318Y-85429998D01*
X107550020Y-85429998D01*
X107621410Y-85371410D01*
X107752685Y-85211450D01*
X107850232Y-85028954D01*
X107910300Y-84830934D01*
X107930583Y-84625000D01*
X107910300Y-84419066D01*
X107859014Y-84249998D01*
X120744318Y-84249998D01*
X120744318Y-84250001D01*
X120764955Y-84406760D01*
X120764956Y-84406762D01*
X120825464Y-84552841D01*
X120921718Y-84678282D01*
X121047159Y-84774536D01*
X121193238Y-84835044D01*
X121253313Y-84842953D01*
X121349999Y-84855682D01*
X121350000Y-84855682D01*
X121350001Y-84855682D01*
X121431472Y-84844956D01*
X121506762Y-84835044D01*
X121652841Y-84774536D01*
X121778282Y-84678282D01*
X121874536Y-84552841D01*
X121935044Y-84406762D01*
X121954331Y-84260264D01*
X121955682Y-84250001D01*
X121955682Y-84250000D01*
X121951870Y-84221046D01*
X121947044Y-84184389D01*
X121957809Y-84115357D01*
X122004189Y-84063101D01*
X122071458Y-84044215D01*
X122117432Y-84053644D01*
X122193238Y-84085044D01*
X122255478Y-84093238D01*
X122349999Y-84105682D01*
X122350000Y-84105682D01*
X122350001Y-84105682D01*
X122444514Y-84093239D01*
X122506762Y-84085044D01*
X122652841Y-84024536D01*
X122778282Y-83928282D01*
X122874536Y-83802841D01*
X122935044Y-83656762D01*
X122950474Y-83539556D01*
X122955682Y-83500001D01*
X122955682Y-83499998D01*
X122935044Y-83343239D01*
X122935043Y-83343237D01*
X122923438Y-83315218D01*
X122915969Y-83245749D01*
X122947244Y-83183270D01*
X123007334Y-83147618D01*
X123077159Y-83150112D01*
X123099300Y-83161890D01*
X123100119Y-83160472D01*
X123107157Y-83164534D01*
X123107159Y-83164536D01*
X123253238Y-83225044D01*
X123331619Y-83235363D01*
X123409999Y-83245682D01*
X123410000Y-83245682D01*
X123410001Y-83245682D01*
X123462254Y-83238802D01*
X123566762Y-83225044D01*
X123712841Y-83164536D01*
X123838282Y-83068282D01*
X123934536Y-82942841D01*
X123970404Y-82856247D01*
X124014243Y-82801845D01*
X124080537Y-82779780D01*
X124132415Y-82789139D01*
X124243238Y-82835044D01*
X124321619Y-82845363D01*
X124399999Y-82855682D01*
X124400000Y-82855682D01*
X124549472Y-82836003D01*
X124618504Y-82846768D01*
X124670760Y-82893148D01*
X124689646Y-82960417D01*
X124680217Y-83006392D01*
X124664957Y-83043234D01*
X124664955Y-83043239D01*
X124644318Y-83199998D01*
X124644318Y-83200001D01*
X124664955Y-83356760D01*
X124664956Y-83356762D01*
X124724287Y-83500001D01*
X124725464Y-83502841D01*
X124821718Y-83628282D01*
X124947159Y-83724536D01*
X125093238Y-83785044D01*
X125171619Y-83795363D01*
X125249999Y-83805682D01*
X125250000Y-83805682D01*
X125250001Y-83805682D01*
X125302254Y-83798802D01*
X125406762Y-83785044D01*
X125552841Y-83724536D01*
X125678282Y-83628282D01*
X125774536Y-83502841D01*
X125835044Y-83356762D01*
X125855682Y-83200000D01*
X125853479Y-83183270D01*
X125835044Y-83043239D01*
X125835044Y-83043238D01*
X125774536Y-82897159D01*
X125678282Y-82771718D01*
X125552841Y-82675464D01*
X125467223Y-82640000D01*
X125406762Y-82614956D01*
X125406760Y-82614955D01*
X125250001Y-82594318D01*
X125249999Y-82594318D01*
X125100529Y-82613996D01*
X125031494Y-82603230D01*
X124979238Y-82556850D01*
X124960353Y-82489581D01*
X124969782Y-82443606D01*
X124985044Y-82406762D01*
X124999306Y-82298430D01*
X125005682Y-82250001D01*
X125005682Y-82249998D01*
X124987970Y-82115463D01*
X124985044Y-82093238D01*
X124924536Y-81947159D01*
X124828282Y-81821718D01*
X124702841Y-81725464D01*
X124556762Y-81664956D01*
X124556760Y-81664955D01*
X124400001Y-81644318D01*
X124399999Y-81644318D01*
X124243239Y-81664955D01*
X124243237Y-81664956D01*
X124097160Y-81725463D01*
X123971718Y-81821718D01*
X123875463Y-81947160D01*
X123839596Y-82033751D01*
X123795755Y-82088154D01*
X123729460Y-82110219D01*
X123677583Y-82100859D01*
X123566765Y-82054957D01*
X123566760Y-82054955D01*
X123410001Y-82034318D01*
X123409999Y-82034318D01*
X123253239Y-82054955D01*
X123253237Y-82054956D01*
X123107160Y-82115463D01*
X122981718Y-82211718D01*
X122885463Y-82337160D01*
X122824956Y-82483237D01*
X122824955Y-82483239D01*
X122804318Y-82639998D01*
X122804318Y-82640001D01*
X122824955Y-82796760D01*
X122824956Y-82796762D01*
X122836562Y-82824782D01*
X122844029Y-82894252D01*
X122812753Y-82956730D01*
X122752664Y-82992382D01*
X122682839Y-82989887D01*
X122660692Y-82978122D01*
X122659881Y-82979528D01*
X122652843Y-82975465D01*
X122652838Y-82975463D01*
X122506762Y-82914956D01*
X122506760Y-82914955D01*
X122350001Y-82894318D01*
X122349999Y-82894318D01*
X122193239Y-82914955D01*
X122193237Y-82914956D01*
X122047160Y-82975463D01*
X121921718Y-83071718D01*
X121825463Y-83197160D01*
X121764956Y-83343237D01*
X121764955Y-83343239D01*
X121744318Y-83499998D01*
X121744318Y-83500001D01*
X121752955Y-83565608D01*
X121742189Y-83634644D01*
X121695809Y-83686899D01*
X121628540Y-83705784D01*
X121582563Y-83696354D01*
X121506762Y-83664956D01*
X121506760Y-83664955D01*
X121350001Y-83644318D01*
X121349999Y-83644318D01*
X121193239Y-83664955D01*
X121193237Y-83664956D01*
X121047160Y-83725463D01*
X120921718Y-83821718D01*
X120825463Y-83947160D01*
X120764956Y-84093237D01*
X120764955Y-84093239D01*
X120744318Y-84249998D01*
X107859014Y-84249998D01*
X107850232Y-84221046D01*
X107752685Y-84038550D01*
X107662191Y-83928282D01*
X107621410Y-83878589D01*
X107461452Y-83747317D01*
X107461453Y-83747317D01*
X107461450Y-83747315D01*
X107278954Y-83649768D01*
X107080934Y-83589700D01*
X107080932Y-83589699D01*
X107080934Y-83589699D01*
X106875000Y-83569417D01*
X106669067Y-83589699D01*
X106493692Y-83642898D01*
X106489013Y-83644318D01*
X106471043Y-83649769D01*
X106442633Y-83664955D01*
X106288550Y-83747315D01*
X106288548Y-83747316D01*
X106288547Y-83747317D01*
X106128589Y-83878589D01*
X105998791Y-84036751D01*
X105997315Y-84038550D01*
X105984192Y-84063101D01*
X105899769Y-84221043D01*
X105899768Y-84221045D01*
X105899768Y-84221046D01*
X105892898Y-84243692D01*
X105839699Y-84419067D01*
X105819417Y-84625000D01*
X103530500Y-84625000D01*
X103530500Y-84614234D01*
X103491281Y-84467865D01*
X103415515Y-84336635D01*
X103308365Y-84229485D01*
X103293743Y-84221043D01*
X103266998Y-84205601D01*
X103218784Y-84155033D01*
X103205000Y-84098215D01*
X103205000Y-83560000D01*
X103705000Y-83560000D01*
X103705000Y-84260000D01*
X104103492Y-84260000D01*
X104103495Y-84259999D01*
X104296681Y-84221572D01*
X104296693Y-84221569D01*
X104478671Y-84146192D01*
X104478684Y-84146185D01*
X104642462Y-84036751D01*
X104642466Y-84036748D01*
X104781748Y-83897466D01*
X104781751Y-83897462D01*
X104891185Y-83733684D01*
X104891192Y-83733671D01*
X104966569Y-83551692D01*
X104966569Y-83551690D01*
X104974862Y-83510000D01*
X104171988Y-83510000D01*
X104189205Y-83500060D01*
X104245060Y-83444205D01*
X104284556Y-83375796D01*
X104305000Y-83299496D01*
X104305000Y-83220504D01*
X104284556Y-83144204D01*
X104245060Y-83075795D01*
X104189205Y-83019940D01*
X104171988Y-83010000D01*
X104974862Y-83010000D01*
X104966569Y-82968309D01*
X104966569Y-82968307D01*
X104891192Y-82786328D01*
X104891185Y-82786315D01*
X104781751Y-82622537D01*
X104781748Y-82622533D01*
X104642466Y-82483251D01*
X104642462Y-82483248D01*
X104478684Y-82373814D01*
X104478671Y-82373807D01*
X104296693Y-82298430D01*
X104296681Y-82298427D01*
X104103495Y-82260000D01*
X103705000Y-82260000D01*
X103705000Y-82960000D01*
X103205000Y-82960000D01*
X103205000Y-82260000D01*
X102806504Y-82260000D01*
X102613318Y-82298427D01*
X102613306Y-82298430D01*
X102431328Y-82373807D01*
X102431315Y-82373814D01*
X102267537Y-82483248D01*
X102267533Y-82483251D01*
X102128251Y-82622533D01*
X102128248Y-82622537D01*
X102018814Y-82786315D01*
X102018807Y-82786328D01*
X101943430Y-82968307D01*
X101943430Y-82968309D01*
X101935138Y-83010000D01*
X100644862Y-83010000D01*
X100636569Y-82968309D01*
X100636569Y-82968307D01*
X100561192Y-82786328D01*
X100561185Y-82786315D01*
X100451751Y-82622537D01*
X100451748Y-82622533D01*
X100312466Y-82483251D01*
X100312462Y-82483248D01*
X100148684Y-82373814D01*
X100148671Y-82373807D01*
X99966693Y-82298430D01*
X99966681Y-82298427D01*
X99773495Y-82260000D01*
X99525000Y-82260000D01*
X99525000Y-82960000D01*
X99025000Y-82960000D01*
X99025000Y-82260000D01*
X98776504Y-82260000D01*
X98583318Y-82298427D01*
X98583306Y-82298430D01*
X98401328Y-82373807D01*
X98401315Y-82373814D01*
X98237537Y-82483248D01*
X98237533Y-82483251D01*
X98098251Y-82622533D01*
X98098248Y-82622537D01*
X97988814Y-82786315D01*
X97988807Y-82786328D01*
X97913430Y-82968307D01*
X97913430Y-82968309D01*
X97905138Y-83010000D01*
X96500500Y-83010000D01*
X96500500Y-77829998D01*
X119494318Y-77829998D01*
X119494318Y-77830001D01*
X119514955Y-77986760D01*
X119514956Y-77986762D01*
X119575464Y-78132841D01*
X119671718Y-78258282D01*
X119797159Y-78354536D01*
X119943238Y-78415044D01*
X120021619Y-78425363D01*
X120099999Y-78435682D01*
X120100000Y-78435682D01*
X120100001Y-78435682D01*
X120152254Y-78428802D01*
X120256762Y-78415044D01*
X120402841Y-78354536D01*
X120528282Y-78258282D01*
X120624536Y-78132841D01*
X120685044Y-77986762D01*
X120705682Y-77830000D01*
X120703049Y-77809998D01*
X145144318Y-77809998D01*
X145144318Y-77810001D01*
X145164955Y-77966760D01*
X145164956Y-77966762D01*
X145225464Y-78112841D01*
X145321718Y-78238282D01*
X145447159Y-78334536D01*
X145447166Y-78334541D01*
X145452487Y-78337613D01*
X145500703Y-78388179D01*
X145513927Y-78456786D01*
X145487959Y-78521651D01*
X145452487Y-78552387D01*
X145447166Y-78555458D01*
X145321718Y-78651718D01*
X145225463Y-78777160D01*
X145164956Y-78923237D01*
X145164955Y-78923239D01*
X145144318Y-79079998D01*
X145144318Y-79080001D01*
X145164955Y-79236760D01*
X145164956Y-79236762D01*
X145225464Y-79382841D01*
X145321718Y-79508282D01*
X145437282Y-79596957D01*
X145449880Y-79606624D01*
X145491082Y-79663053D01*
X145495237Y-79732799D01*
X145461024Y-79793719D01*
X145449880Y-79803376D01*
X145321718Y-79901718D01*
X145225463Y-80027160D01*
X145164956Y-80173237D01*
X145164955Y-80173239D01*
X145144318Y-80329998D01*
X145144318Y-80330001D01*
X145164955Y-80486760D01*
X145164956Y-80486762D01*
X145225464Y-80632841D01*
X145321718Y-80758282D01*
X145447159Y-80854536D01*
X145460356Y-80860002D01*
X145461410Y-80860439D01*
X145515814Y-80904281D01*
X145537878Y-80970575D01*
X145520598Y-81038274D01*
X145469461Y-81085884D01*
X145461410Y-81089561D01*
X145447160Y-81095463D01*
X145321718Y-81191718D01*
X145225463Y-81317160D01*
X145164956Y-81463237D01*
X145164955Y-81463239D01*
X145144318Y-81619998D01*
X145144318Y-81620001D01*
X145164955Y-81776760D01*
X145164956Y-81776762D01*
X145223575Y-81918282D01*
X145225464Y-81922841D01*
X145321718Y-82048282D01*
X145447159Y-82144536D01*
X145593238Y-82205044D01*
X145671619Y-82215363D01*
X145749999Y-82225682D01*
X145750000Y-82225682D01*
X145750001Y-82225682D01*
X145802254Y-82218802D01*
X145906762Y-82205044D01*
X146052841Y-82144536D01*
X146178282Y-82048282D01*
X146274536Y-81922841D01*
X146335044Y-81776762D01*
X146350842Y-81656762D01*
X146355682Y-81620001D01*
X146355682Y-81619998D01*
X146339884Y-81500000D01*
X146339884Y-81499998D01*
X151994318Y-81499998D01*
X151994318Y-81500001D01*
X152014955Y-81656760D01*
X152014956Y-81656762D01*
X152075464Y-81802841D01*
X152171718Y-81928282D01*
X152297159Y-82024536D01*
X152443238Y-82085044D01*
X152505478Y-82093238D01*
X152599999Y-82105682D01*
X152600000Y-82105682D01*
X152600001Y-82105682D01*
X152652254Y-82098802D01*
X152756762Y-82085044D01*
X152902841Y-82024536D01*
X153028282Y-81928282D01*
X153124536Y-81802841D01*
X153185044Y-81656762D01*
X153185045Y-81656749D01*
X153186562Y-81651091D01*
X153222924Y-81591429D01*
X153285769Y-81560896D01*
X153355145Y-81569187D01*
X153409026Y-81613669D01*
X153420893Y-81639647D01*
X153421846Y-81639253D01*
X153424955Y-81646760D01*
X153424956Y-81646762D01*
X153485464Y-81792841D01*
X153581718Y-81918282D01*
X153707159Y-82014536D01*
X153853238Y-82075044D01*
X153929188Y-82085043D01*
X154009999Y-82095682D01*
X154010000Y-82095682D01*
X154010001Y-82095682D01*
X154090804Y-82085044D01*
X154166762Y-82075044D01*
X154312841Y-82014536D01*
X154438282Y-81918282D01*
X154452788Y-81899376D01*
X154509212Y-81858175D01*
X154578958Y-81854018D01*
X154639879Y-81888229D01*
X154649534Y-81899371D01*
X154671718Y-81928282D01*
X154797159Y-82024536D01*
X154943238Y-82085044D01*
X155005478Y-82093238D01*
X155099999Y-82105682D01*
X155100000Y-82105682D01*
X155100001Y-82105682D01*
X155152254Y-82098802D01*
X155256762Y-82085044D01*
X155402841Y-82024536D01*
X155528282Y-81928282D01*
X155624536Y-81802841D01*
X155624535Y-81802841D01*
X155626624Y-81800120D01*
X155683052Y-81758917D01*
X155752798Y-81754762D01*
X155813718Y-81788974D01*
X155823376Y-81800120D01*
X155914044Y-81918282D01*
X155921718Y-81928282D01*
X156047159Y-82024536D01*
X156193238Y-82085044D01*
X156255478Y-82093238D01*
X156349999Y-82105682D01*
X156350000Y-82105682D01*
X156350001Y-82105682D01*
X156402254Y-82098802D01*
X156506762Y-82085044D01*
X156652841Y-82024536D01*
X156778282Y-81928282D01*
X156874536Y-81802841D01*
X156935044Y-81656762D01*
X156955682Y-81500000D01*
X156954365Y-81490000D01*
X156939399Y-81376321D01*
X156935044Y-81343238D01*
X156874536Y-81197159D01*
X156778282Y-81071718D01*
X156652841Y-80975464D01*
X156628696Y-80965463D01*
X156506762Y-80914956D01*
X156506760Y-80914955D01*
X156350001Y-80894318D01*
X156349999Y-80894318D01*
X156193239Y-80914955D01*
X156193237Y-80914956D01*
X156047160Y-80975463D01*
X155921718Y-81071718D01*
X155823376Y-81199880D01*
X155766947Y-81241082D01*
X155697201Y-81245237D01*
X155636281Y-81211024D01*
X155626624Y-81199880D01*
X155554343Y-81105682D01*
X155528282Y-81071718D01*
X155402841Y-80975464D01*
X155378696Y-80965463D01*
X155256762Y-80914956D01*
X155256760Y-80914955D01*
X155100001Y-80894318D01*
X155099999Y-80894318D01*
X154943239Y-80914955D01*
X154943237Y-80914956D01*
X154797160Y-80975463D01*
X154797159Y-80975464D01*
X154671718Y-81071718D01*
X154671716Y-81071719D01*
X154671715Y-81071721D01*
X154657210Y-81090624D01*
X154600782Y-81131826D01*
X154531036Y-81135979D01*
X154470116Y-81101766D01*
X154460462Y-81090624D01*
X154438282Y-81061718D01*
X154312841Y-80965464D01*
X154223073Y-80928281D01*
X154166762Y-80904956D01*
X154166760Y-80904955D01*
X154010001Y-80884318D01*
X154009999Y-80884318D01*
X153853239Y-80904955D01*
X153853237Y-80904956D01*
X153707160Y-80965463D01*
X153581718Y-81061718D01*
X153485463Y-81187160D01*
X153424955Y-81333239D01*
X153423434Y-81338918D01*
X153387067Y-81398578D01*
X153324219Y-81429105D01*
X153254844Y-81420808D01*
X153200967Y-81376321D01*
X153189108Y-81350351D01*
X153188154Y-81350747D01*
X153185044Y-81343238D01*
X153124536Y-81197159D01*
X153028282Y-81071718D01*
X152902841Y-80975464D01*
X152878696Y-80965463D01*
X152756762Y-80914956D01*
X152756760Y-80914955D01*
X152600001Y-80894318D01*
X152599999Y-80894318D01*
X152443239Y-80914955D01*
X152443237Y-80914956D01*
X152297160Y-80975463D01*
X152171718Y-81071718D01*
X152075463Y-81197160D01*
X152014956Y-81343237D01*
X152014955Y-81343239D01*
X151994318Y-81499998D01*
X146339884Y-81499998D01*
X146335044Y-81463238D01*
X146274536Y-81317159D01*
X146178282Y-81191718D01*
X146052841Y-81095464D01*
X146038589Y-81089560D01*
X145984187Y-81045721D01*
X145962121Y-80979427D01*
X145979400Y-80911728D01*
X146030536Y-80864117D01*
X146038578Y-80860443D01*
X146052841Y-80854536D01*
X146178282Y-80758282D01*
X146274536Y-80632841D01*
X146329561Y-80499998D01*
X158144318Y-80499998D01*
X158144318Y-80500001D01*
X158164955Y-80656760D01*
X158164956Y-80656762D01*
X158207006Y-80758281D01*
X158225464Y-80802841D01*
X158321718Y-80928282D01*
X158447159Y-81024536D01*
X158593238Y-81085044D01*
X158627556Y-81089562D01*
X158749999Y-81105682D01*
X158750000Y-81105682D01*
X158750001Y-81105682D01*
X158802254Y-81098802D01*
X158906762Y-81085044D01*
X159052841Y-81024536D01*
X159178282Y-80928282D01*
X159274536Y-80802841D01*
X159335044Y-80656762D01*
X159355682Y-80500000D01*
X159335044Y-80343238D01*
X159274536Y-80197159D01*
X159178282Y-80071718D01*
X159052841Y-79975464D01*
X158906762Y-79914956D01*
X158906760Y-79914955D01*
X158750001Y-79894318D01*
X158749999Y-79894318D01*
X158593239Y-79914955D01*
X158593237Y-79914956D01*
X158447160Y-79975463D01*
X158321718Y-80071718D01*
X158225463Y-80197160D01*
X158164956Y-80343237D01*
X158164955Y-80343239D01*
X158144318Y-80499998D01*
X146329561Y-80499998D01*
X146335044Y-80486762D01*
X146355682Y-80330000D01*
X146335044Y-80173238D01*
X146274536Y-80027159D01*
X146178282Y-79901718D01*
X146178280Y-79901717D01*
X146178280Y-79901716D01*
X146050120Y-79803376D01*
X146008917Y-79746948D01*
X146004762Y-79677202D01*
X146038974Y-79616282D01*
X146050120Y-79606624D01*
X146071824Y-79589969D01*
X146178282Y-79508282D01*
X146274536Y-79382841D01*
X146335044Y-79236762D01*
X146355682Y-79080000D01*
X146335044Y-78923238D01*
X146274536Y-78777159D01*
X146178282Y-78651718D01*
X146052841Y-78555464D01*
X146052834Y-78555461D01*
X146047515Y-78552390D01*
X145999298Y-78501825D01*
X145986072Y-78433218D01*
X146012037Y-78368352D01*
X146047515Y-78337610D01*
X146052828Y-78334541D01*
X146052841Y-78334536D01*
X146178282Y-78238282D01*
X146274536Y-78112841D01*
X146283998Y-78089998D01*
X157859318Y-78089998D01*
X157859318Y-78090001D01*
X157879955Y-78246760D01*
X157879956Y-78246762D01*
X157924597Y-78354536D01*
X157940464Y-78392841D01*
X158036718Y-78518282D01*
X158162159Y-78614536D01*
X158308238Y-78675044D01*
X158386619Y-78685363D01*
X158464999Y-78695682D01*
X158465000Y-78695682D01*
X158465001Y-78695682D01*
X158517254Y-78688802D01*
X158621762Y-78675044D01*
X158767841Y-78614536D01*
X158893282Y-78518282D01*
X158989536Y-78392841D01*
X159050044Y-78246762D01*
X159070682Y-78090000D01*
X159050044Y-77933238D01*
X158989536Y-77787159D01*
X158893282Y-77661718D01*
X158767841Y-77565464D01*
X158621762Y-77504956D01*
X158621760Y-77504955D01*
X158465001Y-77484318D01*
X158464999Y-77484318D01*
X158308239Y-77504955D01*
X158308237Y-77504956D01*
X158162160Y-77565463D01*
X158036718Y-77661718D01*
X157940463Y-77787160D01*
X157879956Y-77933237D01*
X157879955Y-77933239D01*
X157859318Y-78089998D01*
X146283998Y-78089998D01*
X146335044Y-77966762D01*
X146355682Y-77810000D01*
X146335044Y-77653238D01*
X146274536Y-77507159D01*
X146178282Y-77381718D01*
X146052841Y-77285464D01*
X145906762Y-77224956D01*
X145906760Y-77224955D01*
X145750001Y-77204318D01*
X145749999Y-77204318D01*
X145593239Y-77224955D01*
X145593237Y-77224956D01*
X145447160Y-77285463D01*
X145321718Y-77381718D01*
X145225463Y-77507160D01*
X145164956Y-77653237D01*
X145164955Y-77653239D01*
X145144318Y-77809998D01*
X120703049Y-77809998D01*
X120685044Y-77673238D01*
X120624536Y-77527159D01*
X120528282Y-77401718D01*
X120402841Y-77305464D01*
X120354554Y-77285463D01*
X120256762Y-77244956D01*
X120256760Y-77244955D01*
X120100001Y-77224318D01*
X120099999Y-77224318D01*
X119943239Y-77244955D01*
X119943237Y-77244956D01*
X119797160Y-77305463D01*
X119671718Y-77401718D01*
X119575463Y-77527160D01*
X119514956Y-77673237D01*
X119514955Y-77673239D01*
X119494318Y-77829998D01*
X96500500Y-77829998D01*
X96500500Y-76580000D01*
X108044417Y-76580000D01*
X108064699Y-76785932D01*
X108064700Y-76785934D01*
X108124768Y-76983954D01*
X108222315Y-77166450D01*
X108222317Y-77166452D01*
X108353589Y-77326410D01*
X108420983Y-77381718D01*
X108513550Y-77457685D01*
X108696046Y-77555232D01*
X108894066Y-77615300D01*
X108894065Y-77615300D01*
X108912529Y-77617118D01*
X109100000Y-77635583D01*
X109305934Y-77615300D01*
X109503954Y-77555232D01*
X109686450Y-77457685D01*
X109846410Y-77326410D01*
X109977685Y-77166450D01*
X110075232Y-76983954D01*
X110135300Y-76785934D01*
X110155583Y-76580000D01*
X110135300Y-76374066D01*
X110075232Y-76176046D01*
X109977685Y-75993550D01*
X109895034Y-75892839D01*
X109846410Y-75833589D01*
X109686452Y-75702317D01*
X109686453Y-75702317D01*
X109686450Y-75702315D01*
X109503954Y-75604768D01*
X109305934Y-75544700D01*
X109305932Y-75544699D01*
X109305934Y-75544699D01*
X109100000Y-75524417D01*
X108894067Y-75544699D01*
X108696043Y-75604769D01*
X108598668Y-75656818D01*
X108513550Y-75702315D01*
X108513548Y-75702316D01*
X108513547Y-75702317D01*
X108353589Y-75833589D01*
X108222317Y-75993547D01*
X108222315Y-75993550D01*
X108183643Y-76065898D01*
X108124769Y-76176043D01*
X108064699Y-76374067D01*
X108044417Y-76580000D01*
X96500500Y-76580000D01*
X96500500Y-75499999D01*
X113594722Y-75499999D01*
X113594722Y-75500000D01*
X113613762Y-75656818D01*
X113631018Y-75702317D01*
X113669780Y-75804523D01*
X113759517Y-75934530D01*
X113877760Y-76039283D01*
X113877762Y-76039284D01*
X114017634Y-76112696D01*
X114171014Y-76150500D01*
X114171015Y-76150500D01*
X114328985Y-76150500D01*
X114482365Y-76112696D01*
X114622240Y-76039283D01*
X114740483Y-75934530D01*
X114830220Y-75804523D01*
X114886237Y-75656818D01*
X114894350Y-75589998D01*
X157894318Y-75589998D01*
X157894318Y-75590001D01*
X157914955Y-75746760D01*
X157914956Y-75746762D01*
X157975464Y-75892841D01*
X158071718Y-76018282D01*
X158197159Y-76114536D01*
X158343238Y-76175044D01*
X158421619Y-76185363D01*
X158499999Y-76195682D01*
X158500000Y-76195682D01*
X158500001Y-76195682D01*
X158552254Y-76188802D01*
X158656762Y-76175044D01*
X158802841Y-76114536D01*
X158928282Y-76018282D01*
X159024536Y-75892841D01*
X159085044Y-75746762D01*
X159105682Y-75590000D01*
X159085044Y-75433238D01*
X159024536Y-75287159D01*
X158928282Y-75161718D01*
X158802841Y-75065464D01*
X158656762Y-75004956D01*
X158656760Y-75004955D01*
X158500001Y-74984318D01*
X158499999Y-74984318D01*
X158343239Y-75004955D01*
X158343237Y-75004956D01*
X158197160Y-75065463D01*
X158071718Y-75161718D01*
X157975463Y-75287160D01*
X157914956Y-75433237D01*
X157914955Y-75433239D01*
X157894318Y-75589998D01*
X114894350Y-75589998D01*
X114905278Y-75500000D01*
X114886237Y-75343182D01*
X114830220Y-75195477D01*
X114740483Y-75065470D01*
X114622240Y-74960717D01*
X114622238Y-74960716D01*
X114622237Y-74960715D01*
X114482365Y-74887303D01*
X114328986Y-74849500D01*
X114328985Y-74849500D01*
X114171015Y-74849500D01*
X114171014Y-74849500D01*
X114017634Y-74887303D01*
X113877762Y-74960715D01*
X113759516Y-75065471D01*
X113669781Y-75195475D01*
X113669780Y-75195476D01*
X113613762Y-75343181D01*
X113594722Y-75499999D01*
X96500500Y-75499999D01*
X96500500Y-74080000D01*
X106144901Y-74080000D01*
X106163252Y-74266331D01*
X106163253Y-74266333D01*
X106217604Y-74445502D01*
X106305862Y-74610623D01*
X106305864Y-74610626D01*
X106424642Y-74755357D01*
X106569373Y-74874135D01*
X106569376Y-74874137D01*
X106731354Y-74960715D01*
X106734499Y-74962396D01*
X106874800Y-75004956D01*
X106913666Y-75016746D01*
X106913668Y-75016747D01*
X106930374Y-75018392D01*
X107100000Y-75035099D01*
X107286331Y-75016747D01*
X107465501Y-74962396D01*
X107630625Y-74874136D01*
X107775357Y-74755357D01*
X107894136Y-74610625D01*
X107982396Y-74445501D01*
X108036747Y-74266331D01*
X108055099Y-74080000D01*
X108055099Y-74079998D01*
X119494318Y-74079998D01*
X119494318Y-74080001D01*
X119514955Y-74236760D01*
X119514956Y-74236762D01*
X119575464Y-74382841D01*
X119671718Y-74508282D01*
X119797159Y-74604536D01*
X119943238Y-74665044D01*
X120021619Y-74675363D01*
X120099999Y-74685682D01*
X120100000Y-74685682D01*
X120100001Y-74685682D01*
X120152254Y-74678802D01*
X120256762Y-74665044D01*
X120402841Y-74604536D01*
X120528282Y-74508282D01*
X120624536Y-74382841D01*
X120685044Y-74236762D01*
X120705682Y-74080000D01*
X120695150Y-73999998D01*
X124394318Y-73999998D01*
X124394318Y-74000001D01*
X124414955Y-74156760D01*
X124414956Y-74156762D01*
X124475464Y-74302841D01*
X124571718Y-74428282D01*
X124697159Y-74524536D01*
X124843238Y-74585044D01*
X124921619Y-74595363D01*
X124999999Y-74605682D01*
X125000000Y-74605682D01*
X125000001Y-74605682D01*
X125052254Y-74598802D01*
X125156762Y-74585044D01*
X125302841Y-74524536D01*
X125428282Y-74428282D01*
X125524536Y-74302841D01*
X125585044Y-74156762D01*
X125605682Y-74000000D01*
X125585044Y-73843238D01*
X125524536Y-73697159D01*
X125428282Y-73571718D01*
X125302841Y-73475464D01*
X125300074Y-73474318D01*
X125156762Y-73414956D01*
X125156760Y-73414955D01*
X125000001Y-73394318D01*
X124999999Y-73394318D01*
X124843239Y-73414955D01*
X124843237Y-73414956D01*
X124697160Y-73475463D01*
X124571718Y-73571718D01*
X124475463Y-73697160D01*
X124414956Y-73843237D01*
X124414955Y-73843239D01*
X124394318Y-73999998D01*
X120695150Y-73999998D01*
X120685044Y-73923238D01*
X120624536Y-73777159D01*
X120528282Y-73651718D01*
X120402841Y-73555464D01*
X120388143Y-73549376D01*
X120256762Y-73494956D01*
X120256760Y-73494955D01*
X120100001Y-73474318D01*
X120099999Y-73474318D01*
X119943239Y-73494955D01*
X119943237Y-73494956D01*
X119797160Y-73555463D01*
X119671718Y-73651718D01*
X119575463Y-73777160D01*
X119514956Y-73923237D01*
X119514955Y-73923239D01*
X119494318Y-74079998D01*
X108055099Y-74079998D01*
X108036747Y-73893669D01*
X107982396Y-73714499D01*
X107948839Y-73651718D01*
X107894137Y-73549376D01*
X107894135Y-73549373D01*
X107775357Y-73404642D01*
X107630626Y-73285864D01*
X107630623Y-73285862D01*
X107465502Y-73197604D01*
X107286333Y-73143253D01*
X107286331Y-73143252D01*
X107100000Y-73124901D01*
X106913668Y-73143252D01*
X106913666Y-73143253D01*
X106734497Y-73197604D01*
X106569376Y-73285862D01*
X106569373Y-73285864D01*
X106424642Y-73404642D01*
X106305864Y-73549373D01*
X106305862Y-73549376D01*
X106217604Y-73714497D01*
X106163253Y-73893666D01*
X106163252Y-73893668D01*
X106144901Y-74080000D01*
X96500500Y-74080000D01*
X96500500Y-72749998D01*
X109994318Y-72749998D01*
X109994318Y-72750001D01*
X110014955Y-72906760D01*
X110014956Y-72906762D01*
X110075464Y-73052841D01*
X110171718Y-73178282D01*
X110297159Y-73274536D01*
X110443238Y-73335044D01*
X110521619Y-73345363D01*
X110599999Y-73355682D01*
X110600000Y-73355682D01*
X110600001Y-73355682D01*
X110652254Y-73348802D01*
X110756762Y-73335044D01*
X110902841Y-73274536D01*
X111028282Y-73178282D01*
X111124536Y-73052841D01*
X111185044Y-72906762D01*
X111205682Y-72750000D01*
X111185044Y-72593238D01*
X111124536Y-72447159D01*
X111028282Y-72321718D01*
X110902841Y-72225464D01*
X110756762Y-72164956D01*
X110756760Y-72164955D01*
X110600001Y-72144318D01*
X110599999Y-72144318D01*
X110443239Y-72164955D01*
X110443237Y-72164956D01*
X110297160Y-72225463D01*
X110171718Y-72321718D01*
X110075463Y-72447160D01*
X110014956Y-72593237D01*
X110014955Y-72593239D01*
X109994318Y-72749998D01*
X96500500Y-72749998D01*
X96500500Y-71829998D01*
X111244318Y-71829998D01*
X111244318Y-71830001D01*
X111264955Y-71986760D01*
X111264956Y-71986762D01*
X111325464Y-72132841D01*
X111421718Y-72258282D01*
X111547159Y-72354536D01*
X111693238Y-72415044D01*
X111771619Y-72425363D01*
X111849999Y-72435682D01*
X111850000Y-72435682D01*
X111850001Y-72435682D01*
X111902254Y-72428802D01*
X112006762Y-72415044D01*
X112152841Y-72354536D01*
X112278282Y-72258282D01*
X112374536Y-72132841D01*
X112435044Y-71986762D01*
X112455682Y-71830000D01*
X112455682Y-71829998D01*
X114494318Y-71829998D01*
X114494318Y-71830001D01*
X114514955Y-71986760D01*
X114514956Y-71986762D01*
X114575464Y-72132841D01*
X114671718Y-72258282D01*
X114797159Y-72354536D01*
X114943238Y-72415044D01*
X115021619Y-72425363D01*
X115099999Y-72435682D01*
X115100000Y-72435682D01*
X115100001Y-72435682D01*
X115152254Y-72428802D01*
X115256762Y-72415044D01*
X115402841Y-72354536D01*
X115528282Y-72258282D01*
X115624536Y-72132841D01*
X115685044Y-71986762D01*
X115705682Y-71830000D01*
X115685044Y-71673238D01*
X115624536Y-71527159D01*
X115528282Y-71401718D01*
X115402841Y-71305464D01*
X115256762Y-71244956D01*
X115256760Y-71244955D01*
X115100001Y-71224318D01*
X115099999Y-71224318D01*
X114943239Y-71244955D01*
X114943237Y-71244956D01*
X114797160Y-71305463D01*
X114671718Y-71401718D01*
X114575463Y-71527160D01*
X114514956Y-71673237D01*
X114514955Y-71673239D01*
X114494318Y-71829998D01*
X112455682Y-71829998D01*
X112435044Y-71673238D01*
X112374536Y-71527159D01*
X112278282Y-71401718D01*
X112152841Y-71305464D01*
X112006762Y-71244956D01*
X112006760Y-71244955D01*
X111850001Y-71224318D01*
X111849999Y-71224318D01*
X111693239Y-71244955D01*
X111693237Y-71244956D01*
X111547160Y-71305463D01*
X111421718Y-71401718D01*
X111325463Y-71527160D01*
X111264956Y-71673237D01*
X111264955Y-71673239D01*
X111244318Y-71829998D01*
X96500500Y-71829998D01*
X96500500Y-68829998D01*
X109994318Y-68829998D01*
X109994318Y-68830001D01*
X110014955Y-68986760D01*
X110014956Y-68986762D01*
X110075464Y-69132841D01*
X110171718Y-69258282D01*
X110297159Y-69354536D01*
X110443238Y-69415044D01*
X110521619Y-69425363D01*
X110599999Y-69435682D01*
X110600000Y-69435682D01*
X110600001Y-69435682D01*
X110652254Y-69428802D01*
X110756762Y-69415044D01*
X110902841Y-69354536D01*
X111028282Y-69258282D01*
X111124536Y-69132841D01*
X111185044Y-68986762D01*
X111205682Y-68830000D01*
X111185044Y-68673238D01*
X111124536Y-68527159D01*
X111028282Y-68401718D01*
X110902841Y-68305464D01*
X110756762Y-68244956D01*
X110756760Y-68244955D01*
X110600001Y-68224318D01*
X110599999Y-68224318D01*
X110443239Y-68244955D01*
X110443237Y-68244956D01*
X110297160Y-68305463D01*
X110171718Y-68401718D01*
X110075463Y-68527160D01*
X110014956Y-68673237D01*
X110014955Y-68673239D01*
X109994318Y-68829998D01*
X96500500Y-68829998D01*
X96500500Y-53878711D01*
X99149500Y-53878711D01*
X99149500Y-54121288D01*
X99181161Y-54361785D01*
X99243947Y-54596104D01*
X99336773Y-54820205D01*
X99336776Y-54820212D01*
X99458064Y-55030289D01*
X99458066Y-55030292D01*
X99458067Y-55030293D01*
X99605733Y-55222736D01*
X99605739Y-55222743D01*
X99777256Y-55394260D01*
X99777262Y-55394265D01*
X99969711Y-55541936D01*
X100179788Y-55663224D01*
X100403900Y-55756054D01*
X100638211Y-55818838D01*
X100818586Y-55842584D01*
X100878711Y-55850500D01*
X100878712Y-55850500D01*
X101121289Y-55850500D01*
X101169388Y-55844167D01*
X101361789Y-55818838D01*
X101596100Y-55756054D01*
X101820212Y-55663224D01*
X102030289Y-55541936D01*
X102222738Y-55394265D01*
X102394265Y-55222738D01*
X102541936Y-55030289D01*
X102663224Y-54820212D01*
X102756054Y-54596100D01*
X102818838Y-54361789D01*
X102850500Y-54121288D01*
X102850500Y-53878712D01*
X102818838Y-53638211D01*
X102756054Y-53403900D01*
X102663224Y-53179788D01*
X102541936Y-52969711D01*
X102394265Y-52777262D01*
X102394260Y-52777256D01*
X102222743Y-52605739D01*
X102222736Y-52605733D01*
X102030293Y-52458067D01*
X102030292Y-52458066D01*
X102030289Y-52458064D01*
X101820212Y-52336776D01*
X101820205Y-52336773D01*
X101596104Y-52243947D01*
X101361785Y-52181161D01*
X101121289Y-52149500D01*
X101121288Y-52149500D01*
X100878712Y-52149500D01*
X100878711Y-52149500D01*
X100638214Y-52181161D01*
X100403895Y-52243947D01*
X100179794Y-52336773D01*
X100179785Y-52336777D01*
X99969706Y-52458067D01*
X99777263Y-52605733D01*
X99777256Y-52605739D01*
X99605739Y-52777256D01*
X99605733Y-52777263D01*
X99458067Y-52969706D01*
X99336777Y-53179785D01*
X99336773Y-53179794D01*
X99243947Y-53403895D01*
X99181161Y-53638214D01*
X99149500Y-53878711D01*
X96500500Y-53878711D01*
X96500500Y-49624500D01*
X96520185Y-49557461D01*
X96572989Y-49511706D01*
X96624500Y-49500500D01*
X111376000Y-49500500D01*
X111443039Y-49520185D01*
G37*
%TD.AperFunction*%
%TD*%
M02*
