M48
; DRILL file {KiCad 8.0.8} date 2025-05-21T09:44:12+0200
; FORMAT={-:-/ absolute / inch / decimal}
; #@! TF.CreationDate,2025-05-21T09:44:12+02:00
; #@! TF.GenerationSoftware,Kicad,Pcbnew,8.0.8
; #@! TF.FileFunction,Plated,1,2,PTH
FMAT,2
INCH
; #@! TA.AperFunction,Plated,PTH,ComponentDrill
T1C0.0079
; #@! TA.AperFunction,Plated,PTH,ViaDrill
T2C0.0118
; #@! TA.AperFunction,Plated,PTH,ComponentDrill
T3C0.0236
; #@! TA.AperFunction,Plated,PTH,ComponentDrill
T4C0.0374
; #@! TA.AperFunction,Plated,PTH,ViaDrill
T5C0.0394
; #@! TA.AperFunction,Plated,PTH,ComponentDrill
T6C0.1260
%
G90
G05
T1
X5.2598Y-2.8866
X5.2598Y-2.9417
X5.2874Y-2.8591
X5.2874Y-2.9142
X5.2874Y-2.9693
X5.315Y-2.8866
X5.315Y-2.9417
X5.3425Y-2.8591
X5.3425Y-2.9142
X5.3425Y-2.9693
X5.3701Y-2.8866
X5.3701Y-2.9417
T2
X3.8646Y-3.1827
X3.8764Y-2.822
X3.8965Y-2.7142
X3.9039Y-3.2319
X3.9043Y-2.4965
X3.9354Y-2.7728
X3.9354Y-2.8713
X3.9535Y-2.5457
X3.963Y-3.1827
X3.963Y-3.2811
X3.9846Y-2.822
X4.0122Y-3.2319
X4.0339Y-2.8713
X4.1642Y-3.6055
X4.1811Y-2.124
X4.2028Y-3.2677
X4.2323Y-3.0709
X4.2717Y-3.2677
X4.3012Y-3.0709
X4.3012Y-3.1791
X4.3307Y-3.2677
X4.3504Y-3.435
X4.3799Y-3.0709
X4.3878Y-2.8425
X4.3902Y-2.6846
X4.3996Y-3.2185
X4.4295Y-2.7339
X4.439Y-3.376
X4.4488Y-3.0709
X4.4488Y-3.1496
X4.4783Y-3.376
X4.4886Y-2.6846
X4.4886Y-2.7831
X4.5118Y-3.8228
X4.5157Y-3.6772
X4.5276Y-3.0709
X4.5276Y-3.1496
X4.5276Y-3.2874
X4.5276Y-3.3366
X4.5276Y-3.3957
X4.5378Y-2.7339
X4.5551Y-3.748
X4.5571Y-3.2185
X4.587Y-2.7831
X4.5906Y-3.6772
X4.5906Y-3.8228
X4.626Y-2.8425
X4.685Y-3.3268
X4.6949Y-3.1201
X4.7244Y-2.9921
X4.7638Y-3.6811
X4.7717Y-3.3346
X4.7736Y-3.0709
X4.7785Y-2.997
X4.7835Y-3.7992
X4.7933Y-2.7185
X4.7992Y-3.378
X4.8179Y-2.9528
X4.8622Y-3.0512
X4.8622Y-3.3268
X4.872Y-3.1102
X4.872Y-3.7106
X4.872Y-3.7992
X4.8937Y-3.3465
X4.9508Y-3.0512
X4.9705Y-3.376
X4.9803Y-3.7992
X4.9843Y-3.3031
X5.0157Y-3.3819
X5.0276Y-3.1142
X5.0295Y-2.7657
X5.0295Y-2.8102
X5.0307Y-2.7118
X5.0689Y-3.7598
X5.0984Y-3.4055
X5.1028Y-3.7047
X5.1063Y-3.7992
X5.1299Y-3.2402
X5.1378Y-3.7303
X5.1378Y-3.8287
X5.1378Y-3.9094
X5.1752Y-3.4055
X5.187Y-3.9272
X5.2165Y-3.7205
X5.2461Y-3.3858
X5.2461Y-3.8189
X5.2559Y-3.7697
X5.2598Y-3.5866
X5.2756Y-3.4154
X5.315Y-3.8189
X5.353Y-3.4906
X5.374Y-3.7008
X5.3839Y-3.5138
X5.3937Y-3.4449
X5.4232Y-3.4744
X5.449Y-3.3094
X5.499Y-3.3094
X5.5217Y-3.4646
X5.5709Y-3.4252
X5.5709Y-3.7697
X5.5748Y-3.2047
X5.5807Y-3.6909
X5.5906Y-3.5433
X5.6004Y-3.4843
X5.6201Y-3.7303
X5.622Y-3.3622
X5.6299Y-3.8189
X5.6693Y-3.7697
X5.6988Y-3.7008
X5.7087Y-3.8091
X5.7382Y-3.75
X5.7677Y-3.2087
X5.7677Y-3.3071
X5.7972Y-2.9921
X5.7972Y-3.7008
X5.7972Y-3.7992
X5.8366Y-3.0602
X5.8366Y-3.1102
X5.8366Y-3.1594
X5.8465Y-2.8642
X5.8465Y-3.75
X5.8481Y-2.9249
X5.8494Y-3.2057
X5.8957Y-3.7992
X5.9268Y-2.9249
X5.935Y-2.9724
X5.935Y-3.0315
X5.935Y-3.2185
X5.935Y-3.2874
X5.9449Y-3.1594
X5.9488Y-3.4724
X5.9547Y-2.8642
X5.9733Y-3.7117
X5.9744Y-3.2874
X5.9843Y-3.5433
X6.0276Y-3.7323
X6.0335Y-3.061
X6.0335Y-3.1201
X6.0335Y-3.4705
X6.0709Y-3.4213
X6.0728Y-3.5138
X6.0969Y-3.0622
X6.1102Y-3.4646
X6.1362Y-3.1114
X6.1654Y-3.5118
X6.1953Y-3.0622
X6.1953Y-3.1606
X6.2445Y-3.1114
X6.2937Y-3.1606
T4
X4.2799Y-3.6157
X4.2799Y-3.8874
X4.3783Y-3.6157
X4.3783Y-3.8874
X4.4768Y-3.6157
X4.4768Y-3.8874
X4.5752Y-3.6157
X4.5752Y-3.8874
X4.6736Y-3.6157
X4.6736Y-3.8874
X4.772Y-3.6157
X4.772Y-3.8874
X4.8705Y-3.6157
X4.8705Y-3.8874
X4.9689Y-3.6157
X4.9689Y-3.8874
X5.0673Y-3.6157
X5.0673Y-3.8874
X5.3437Y-3.6157
X5.3437Y-3.8874
X5.4421Y-3.6157
X5.4421Y-3.8874
X5.5406Y-3.6157
X5.5406Y-3.8874
X5.639Y-3.6157
X5.639Y-3.8874
X5.7374Y-3.6157
X5.7374Y-3.8874
X5.8358Y-3.6157
X5.8358Y-3.8874
X5.9343Y-3.6157
X5.9343Y-3.8874
X6.0327Y-3.6157
X6.0327Y-3.8874
X6.1311Y-3.6157
X6.1311Y-3.8874
T5
X4.0059Y-2.5886
X4.2323Y-2.9646
X4.6161Y-2.9646
X5.0394Y-3.4547
T6
X3.9646Y-3.9803
X3.9685Y-2.0945
X6.4449Y-3.9803
X6.4488Y-2.0945
T3
G00X3.9581Y-3.072
M15
G01X3.9266Y-3.072
M16
G05
G00X3.9581Y-3.4122
M15
G01X3.9266Y-3.4122
M16
G05
G00X4.1285Y-3.072
M15
G01X4.0852Y-3.072
M16
G05
G00X4.1285Y-3.4122
M15
G01X4.0852Y-3.4122
M16
G05
M30
