%TF.GenerationSoftware,KiCad,Pcbnew,8.0.8*%
%TF.CreationDate,2025-05-21T09:44:21+02:00*%
%TF.ProjectId,Buttons_Displays_ESP32,42757474-6f6e-4735-9f44-6973706c6179,rev?*%
%TF.SameCoordinates,Original*%
%TF.FileFunction,Copper,L1,Top*%
%TF.FilePolarity,Positive*%
%FSLAX46Y46*%
G04 Gerber Fmt 4.6, Leading zero omitted, Abs format (unit mm)*
G04 Created by KiCad (PCBNEW 8.0.8) date 2025-05-21 09:44:21*
%MOMM*%
%LPD*%
G01*
G04 APERTURE LIST*
G04 Aperture macros list*
%AMRoundRect*
0 Rectangle with rounded corners*
0 $1 Rounding radius*
0 $2 $3 $4 $5 $6 $7 $8 $9 X,Y pos of 4 corners*
0 Add a 4 corners polygon primitive as box body*
4,1,4,$2,$3,$4,$5,$6,$7,$8,$9,$2,$3,0*
0 Add four circle primitives for the rounded corners*
1,1,$1+$1,$2,$3*
1,1,$1+$1,$4,$5*
1,1,$1+$1,$6,$7*
1,1,$1+$1,$8,$9*
0 Add four rect primitives between the rounded corners*
20,1,$1+$1,$2,$3,$4,$5,0*
20,1,$1+$1,$4,$5,$6,$7,0*
20,1,$1+$1,$6,$7,$8,$9,0*
20,1,$1+$1,$8,$9,$2,$3,0*%
G04 Aperture macros list end*
%TA.AperFunction,ComponentPad*%
%ADD10RoundRect,0.250000X-0.600000X-0.725000X0.600000X-0.725000X0.600000X0.725000X-0.600000X0.725000X0*%
%TD*%
%TA.AperFunction,ComponentPad*%
%ADD11O,1.700000X1.950000*%
%TD*%
%TA.AperFunction,SMDPad,CuDef*%
%ADD12RoundRect,0.250000X-0.412500X-0.650000X0.412500X-0.650000X0.412500X0.650000X-0.412500X0.650000X0*%
%TD*%
%TA.AperFunction,SMDPad,CuDef*%
%ADD13RoundRect,0.250000X-0.625000X0.400000X-0.625000X-0.400000X0.625000X-0.400000X0.625000X0.400000X0*%
%TD*%
%TA.AperFunction,SMDPad,CuDef*%
%ADD14R,1.500000X1.500000*%
%TD*%
%TA.AperFunction,SMDPad,CuDef*%
%ADD15R,3.200000X1.200000*%
%TD*%
%TA.AperFunction,SMDPad,CuDef*%
%ADD16R,5.600000X2.200000*%
%TD*%
%TA.AperFunction,SMDPad,CuDef*%
%ADD17RoundRect,0.093750X-0.156250X-0.093750X0.156250X-0.093750X0.156250X0.093750X-0.156250X0.093750X0*%
%TD*%
%TA.AperFunction,SMDPad,CuDef*%
%ADD18RoundRect,0.075000X-0.250000X-0.075000X0.250000X-0.075000X0.250000X0.075000X-0.250000X0.075000X0*%
%TD*%
%TA.AperFunction,SMDPad,CuDef*%
%ADD19RoundRect,0.250000X0.400000X0.625000X-0.400000X0.625000X-0.400000X-0.625000X0.400000X-0.625000X0*%
%TD*%
%TA.AperFunction,SMDPad,CuDef*%
%ADD20RoundRect,0.250000X0.625000X-0.400000X0.625000X0.400000X-0.625000X0.400000X-0.625000X-0.400000X0*%
%TD*%
%TA.AperFunction,SMDPad,CuDef*%
%ADD21RoundRect,0.250000X-0.650000X0.412500X-0.650000X-0.412500X0.650000X-0.412500X0.650000X0.412500X0*%
%TD*%
%TA.AperFunction,ComponentPad*%
%ADD22C,5.600000*%
%TD*%
%TA.AperFunction,SMDPad,CuDef*%
%ADD23RoundRect,0.250000X0.650000X-0.412500X0.650000X0.412500X-0.650000X0.412500X-0.650000X-0.412500X0*%
%TD*%
%TA.AperFunction,SMDPad,CuDef*%
%ADD24R,1.500000X0.900000*%
%TD*%
%TA.AperFunction,SMDPad,CuDef*%
%ADD25R,0.900000X1.500000*%
%TD*%
%TA.AperFunction,HeatsinkPad*%
%ADD26C,0.600000*%
%TD*%
%TA.AperFunction,HeatsinkPad*%
%ADD27R,3.900000X3.900000*%
%TD*%
%TA.AperFunction,SMDPad,CuDef*%
%ADD28RoundRect,0.150000X-0.425000X0.150000X-0.425000X-0.150000X0.425000X-0.150000X0.425000X0.150000X0*%
%TD*%
%TA.AperFunction,SMDPad,CuDef*%
%ADD29RoundRect,0.075000X-0.500000X0.075000X-0.500000X-0.075000X0.500000X-0.075000X0.500000X0.075000X0*%
%TD*%
%TA.AperFunction,HeatsinkPad*%
%ADD30O,2.100000X1.000000*%
%TD*%
%TA.AperFunction,HeatsinkPad*%
%ADD31O,1.800000X1.000000*%
%TD*%
%TA.AperFunction,ViaPad*%
%ADD32C,0.600000*%
%TD*%
%TA.AperFunction,ViaPad*%
%ADD33C,1.600000*%
%TD*%
%TA.AperFunction,Conductor*%
%ADD34C,0.200000*%
%TD*%
%TA.AperFunction,Conductor*%
%ADD35C,1.000000*%
%TD*%
%TA.AperFunction,Conductor*%
%ADD36C,0.300000*%
%TD*%
%TA.AperFunction,Conductor*%
%ADD37C,0.500000*%
%TD*%
G04 APERTURE END LIST*
D10*
%TO.P,J3,1,Pin_1*%
%TO.N,GND*%
X108710000Y-91840000D03*
D11*
%TO.P,J3,2,Pin_2*%
%TO.N,+3.3V*%
X111210000Y-91840000D03*
%TO.P,J3,3,Pin_3*%
%TO.N,SCLK*%
X113710000Y-91840000D03*
%TO.P,J3,4,Pin_4*%
%TO.N,RES3*%
X116210000Y-91840000D03*
%TO.P,J3,5,Pin_5*%
%TO.N,DC3*%
X118710000Y-91840000D03*
%TO.P,J3,6,Pin_6*%
%TO.N,CS{slash}SS3*%
X121210000Y-91840000D03*
%TO.P,J3,7,Pin_7*%
%TO.N,GPIO5*%
X123710000Y-91840000D03*
%TO.P,J3,8,Pin_8*%
%TO.N,GPIO6*%
X126210000Y-91840000D03*
%TO.P,J3,9,Pin_9*%
%TO.N,VIB3*%
X128710000Y-91840000D03*
%TD*%
D12*
%TO.P,C2,1*%
%TO.N,boot0*%
X147937500Y-86250000D03*
%TO.P,C2,2*%
%TO.N,GND*%
X151062500Y-86250000D03*
%TD*%
D13*
%TO.P,R1,1*%
%TO.N,scl*%
X113250000Y-72200000D03*
%TO.P,R1,2*%
%TO.N,+3.3V*%
X113250000Y-75300000D03*
%TD*%
D14*
%TO.P,SW1,1,1*%
%TO.N,boot0*%
X147900000Y-82900000D03*
%TO.P,SW1,2,2*%
%TO.N,GND*%
X155700000Y-82900000D03*
%TD*%
D15*
%TO.P,J5,1,1*%
%TO.N,GND*%
X105175000Y-61750000D03*
%TO.P,J5,2,2*%
%TO.N,+3.3V*%
X105175000Y-64250000D03*
%TO.P,J5,3,3*%
%TO.N,sda*%
X105175000Y-66750000D03*
%TO.P,J5,4,4*%
%TO.N,scl*%
X105175000Y-69250000D03*
%TO.P,J5,5,5*%
%TO.N,+5Vin*%
X105175000Y-71750000D03*
D16*
%TO.P,J5,6*%
%TO.N,N/C*%
X100925000Y-58400000D03*
%TO.P,J5,7*%
X100925000Y-75100000D03*
%TD*%
D17*
%TO.P,U2,1,I/O1*%
%TO.N,Net-(J6-D--PadA7)*%
X112950000Y-81362500D03*
D18*
%TO.P,U2,2,GND*%
%TO.N,GND*%
X112875000Y-81900000D03*
D17*
%TO.P,U2,3,I/O2*%
%TO.N,Net-(J6-D+-PadA6)*%
X112950000Y-82437500D03*
%TO.P,U2,4,I/O2*%
%TO.N,+*%
X114650000Y-82437500D03*
D18*
%TO.P,U2,5,VBUS*%
%TO.N,+5Vout*%
X114725000Y-81900000D03*
D17*
%TO.P,U2,6,I/O1*%
%TO.N,-*%
X114650000Y-81362500D03*
%TD*%
D19*
%TO.P,R4,1*%
%TO.N,Net-(U1-USB_D+)*%
X125400000Y-83000000D03*
%TO.P,R4,2*%
%TO.N,+*%
X122300000Y-83000000D03*
%TD*%
D14*
%TO.P,SW2,1,1*%
%TO.N,reset*%
X116500000Y-67750000D03*
%TO.P,SW2,2,2*%
%TO.N,GND*%
X108700000Y-67750000D03*
%TD*%
D20*
%TO.P,R7,1*%
%TO.N,GND*%
X108300000Y-87300000D03*
%TO.P,R7,2*%
%TO.N,Net-(J6-CC2)*%
X108300000Y-84200000D03*
%TD*%
D21*
%TO.P,C5,1*%
%TO.N,GND*%
X119200000Y-77637500D03*
%TO.P,C5,2*%
%TO.N,-*%
X119200000Y-80762500D03*
%TD*%
D10*
%TO.P,J4,1,Pin_1*%
%TO.N,GND*%
X108710000Y-98740000D03*
D11*
%TO.P,J4,2,Pin_2*%
%TO.N,+3.3V*%
X111210000Y-98740000D03*
%TO.P,J4,3,Pin_3*%
%TO.N,SCLK*%
X113710000Y-98740000D03*
%TO.P,J4,4,Pin_4*%
%TO.N,RES4*%
X116210000Y-98740000D03*
%TO.P,J4,5,Pin_5*%
%TO.N,DC4*%
X118710000Y-98740000D03*
%TO.P,J4,6,Pin_6*%
%TO.N,CS{slash}SS4*%
X121210000Y-98740000D03*
%TO.P,J4,7,Pin_7*%
%TO.N,GPIO7*%
X123710000Y-98740000D03*
%TO.P,J4,8,Pin_8*%
%TO.N,GPIO8*%
X126210000Y-98740000D03*
%TO.P,J4,9,Pin_9*%
%TO.N,VIB4*%
X128710000Y-98740000D03*
%TD*%
D22*
%TO.P,REF\u002A\u002A,1*%
%TO.N,N/C*%
X163700000Y-101100000D03*
%TD*%
D19*
%TO.P,R8,1*%
%TO.N,GND*%
X110800000Y-79500000D03*
%TO.P,R8,2*%
%TO.N,Net-(J6-CC1)*%
X107700000Y-79500000D03*
%TD*%
D23*
%TO.P,C1,1*%
%TO.N,GND*%
X124750000Y-72312500D03*
%TO.P,C1,2*%
%TO.N,+3.3V*%
X124750000Y-69187500D03*
%TD*%
D19*
%TO.P,R3,1*%
%TO.N,Net-(U1-USB_D-)*%
X125400000Y-80700000D03*
%TO.P,R3,2*%
%TO.N,-*%
X122300000Y-80700000D03*
%TD*%
D21*
%TO.P,C6,1*%
%TO.N,+5Vout*%
X113250000Y-84187500D03*
%TO.P,C6,2*%
%TO.N,GND*%
X113250000Y-87312500D03*
%TD*%
D13*
%TO.P,R5,1*%
%TO.N,+3.3V*%
X121750000Y-65950000D03*
%TO.P,R5,2*%
%TO.N,reset*%
X121750000Y-69050000D03*
%TD*%
D20*
%TO.P,R6,1*%
%TO.N,+3.3V*%
X116800000Y-86050000D03*
%TO.P,R6,2*%
%TO.N,+*%
X116800000Y-82950000D03*
%TD*%
D10*
%TO.P,J2,1,Pin_1*%
%TO.N,GND*%
X135730000Y-98740000D03*
D11*
%TO.P,J2,2,Pin_2*%
%TO.N,+3.3V*%
X138230000Y-98740000D03*
%TO.P,J2,3,Pin_3*%
%TO.N,SCLK*%
X140730000Y-98740000D03*
%TO.P,J2,4,Pin_4*%
%TO.N,RES2*%
X143230000Y-98740000D03*
%TO.P,J2,5,Pin_5*%
%TO.N,DC2*%
X145730000Y-98740000D03*
%TO.P,J2,6,Pin_6*%
%TO.N,CS{slash}SS2*%
X148230000Y-98740000D03*
%TO.P,J2,7,Pin_7*%
%TO.N,GPIO3*%
X150730000Y-98740000D03*
%TO.P,J2,8,Pin_8*%
%TO.N,GPIO4*%
X153230000Y-98740000D03*
%TO.P,J2,9,Pin_9*%
%TO.N,VIB2*%
X155730000Y-98740000D03*
%TD*%
D22*
%TO.P,REF\u002A\u002A,1*%
%TO.N,N/C*%
X163800000Y-53200000D03*
%TD*%
D23*
%TO.P,C3,1*%
%TO.N,reset*%
X119250000Y-69062500D03*
%TO.P,C3,2*%
%TO.N,GND*%
X119250000Y-65937500D03*
%TD*%
D22*
%TO.P,REF\u002A\u002A,1*%
%TO.N,N/C*%
X100800000Y-53200000D03*
%TD*%
D24*
%TO.P,U1,1,GND*%
%TO.N,GND*%
X127750000Y-66300000D03*
%TO.P,U1,2,3V3*%
%TO.N,+3.3V*%
X127750000Y-67570000D03*
%TO.P,U1,3,EN*%
%TO.N,reset*%
X127750000Y-68840000D03*
%TO.P,U1,4,IO4*%
%TO.N,scl*%
X127750000Y-70110000D03*
%TO.P,U1,5,IO5*%
%TO.N,sda*%
X127750000Y-71380000D03*
%TO.P,U1,6,IO6*%
%TO.N,unconnected-(U1-IO6-Pad6)*%
X127750000Y-72650000D03*
%TO.P,U1,7,IO7*%
%TO.N,GPIO7*%
X127750000Y-73920000D03*
%TO.P,U1,8,IO15*%
%TO.N,CS{slash}SS4*%
X127750000Y-75190000D03*
%TO.P,U1,9,IO16*%
%TO.N,unconnected-(U1-IO16-Pad9)*%
X127750000Y-76460000D03*
%TO.P,U1,10,IO17*%
%TO.N,VIB2*%
X127750000Y-77730000D03*
%TO.P,U1,11,IO18*%
%TO.N,VIB3*%
X127750000Y-79000000D03*
%TO.P,U1,12,IO8*%
%TO.N,GPIO8*%
X127750000Y-80270000D03*
%TO.P,U1,13,USB_D-*%
%TO.N,Net-(U1-USB_D-)*%
X127750000Y-81540000D03*
%TO.P,U1,14,USB_D+*%
%TO.N,Net-(U1-USB_D+)*%
X127750000Y-82810000D03*
D25*
%TO.P,U1,15,IO3*%
%TO.N,GPIO3*%
X129515000Y-84060000D03*
%TO.P,U1,16,IO46*%
%TO.N,DC2*%
X130785000Y-84060000D03*
%TO.P,U1,17,IO9*%
%TO.N,CS{slash}SS1*%
X132055000Y-84060000D03*
%TO.P,U1,18,IO10*%
%TO.N,CS{slash}SS2*%
X133325000Y-84060000D03*
%TO.P,U1,19,IO11*%
%TO.N,MOSI*%
X134595000Y-84060000D03*
%TO.P,U1,20,IO12*%
%TO.N,SCLK*%
X135865000Y-84060000D03*
%TO.P,U1,21,IO13*%
%TO.N,VIB4*%
X137135000Y-84060000D03*
%TO.P,U1,22,IO14*%
%TO.N,CS{slash}SS3*%
X138405000Y-84060000D03*
%TO.P,U1,23,IO21*%
%TO.N,VIB1*%
X139675000Y-84060000D03*
%TO.P,U1,24,IO47*%
%TO.N,DC3*%
X140945000Y-84060000D03*
%TO.P,U1,25,IO48*%
%TO.N,DC4*%
X142215000Y-84060000D03*
%TO.P,U1,26,IO45*%
%TO.N,DC1*%
X143485000Y-84060000D03*
D24*
%TO.P,U1,27,IO0*%
%TO.N,boot0*%
X145250000Y-82810000D03*
%TO.P,U1,28,IO35*%
%TO.N,RES1*%
X145250000Y-81540000D03*
%TO.P,U1,29,IO36*%
%TO.N,RES2*%
X145250000Y-80270000D03*
%TO.P,U1,30,IO37*%
%TO.N,RES3*%
X145250000Y-79000000D03*
%TO.P,U1,31,IO38*%
%TO.N,RES4*%
X145250000Y-77730000D03*
%TO.P,U1,32,IO39*%
%TO.N,unconnected-(U1-IO39-Pad32)*%
X145250000Y-76460000D03*
%TO.P,U1,33,IO40*%
%TO.N,GPIO4*%
X145250000Y-75190000D03*
%TO.P,U1,34,IO41*%
%TO.N,GPIO5*%
X145250000Y-73920000D03*
%TO.P,U1,35,IO42*%
%TO.N,GPIO6*%
X145250000Y-72650000D03*
%TO.P,U1,36,RXD0*%
%TO.N,unconnected-(U1-RXD0-Pad36)*%
X145250000Y-71380000D03*
%TO.P,U1,37,TXD0*%
%TO.N,unconnected-(U1-TXD0-Pad37)*%
X145250000Y-70110000D03*
%TO.P,U1,38,IO2*%
%TO.N,GPIO2*%
X145250000Y-68840000D03*
%TO.P,U1,39,IO1*%
%TO.N,GPIO1*%
X145250000Y-67570000D03*
%TO.P,U1,40,GND*%
%TO.N,GND*%
X145250000Y-66300000D03*
D26*
%TO.P,U1,41,GND*%
X133600000Y-73320000D03*
X133600000Y-74720000D03*
X134300000Y-72620000D03*
X134300000Y-74020000D03*
X134300000Y-75420000D03*
X135000000Y-73320000D03*
D27*
X135000000Y-74020000D03*
D26*
X135000000Y-74720000D03*
X135700000Y-72620000D03*
X135700000Y-74020000D03*
X135700000Y-75420000D03*
X136400000Y-73320000D03*
X136400000Y-74720000D03*
%TD*%
D22*
%TO.P,REF\u002A\u002A,1*%
%TO.N,N/C*%
X100700000Y-101100000D03*
%TD*%
D10*
%TO.P,J1,1,Pin_1*%
%TO.N,GND*%
X135730000Y-91840000D03*
D11*
%TO.P,J1,2,Pin_2*%
%TO.N,+3.3V*%
X138230000Y-91840000D03*
%TO.P,J1,3,Pin_3*%
%TO.N,SCLK*%
X140730000Y-91840000D03*
%TO.P,J1,4,Pin_4*%
%TO.N,RES1*%
X143230000Y-91840000D03*
%TO.P,J1,5,Pin_5*%
%TO.N,DC1*%
X145730000Y-91840000D03*
%TO.P,J1,6,Pin_6*%
%TO.N,CS{slash}SS1*%
X148230000Y-91840000D03*
%TO.P,J1,7,Pin_7*%
%TO.N,GPIO1*%
X150730000Y-91840000D03*
%TO.P,J1,8,Pin_8*%
%TO.N,GPIO2*%
X153230000Y-91840000D03*
%TO.P,J1,9,Pin_9*%
%TO.N,VIB1*%
X155730000Y-91840000D03*
%TD*%
D20*
%TO.P,R2,1*%
%TO.N,+3.3V*%
X110250000Y-75300000D03*
%TO.P,R2,2*%
%TO.N,sda*%
X110250000Y-72200000D03*
%TD*%
D28*
%TO.P,J6,A1,GND*%
%TO.N,GND*%
X104890000Y-79150000D03*
%TO.P,J6,A4,VBUS*%
%TO.N,+5Vout*%
X104890000Y-79950000D03*
D29*
%TO.P,J6,A5,CC1*%
%TO.N,Net-(J6-CC1)*%
X104890000Y-81100000D03*
%TO.P,J6,A6,D+*%
%TO.N,Net-(J6-D+-PadA6)*%
X104890000Y-82100000D03*
%TO.P,J6,A7,D-*%
%TO.N,Net-(J6-D--PadA7)*%
X104890000Y-82600000D03*
%TO.P,J6,A8,SBU1*%
%TO.N,unconnected-(J6-SBU1-PadA8)*%
X104890000Y-83600000D03*
D28*
%TO.P,J6,A9,VBUS*%
%TO.N,+5Vout*%
X104890000Y-84750000D03*
%TO.P,J6,A12,GND*%
%TO.N,GND*%
X104890000Y-85550000D03*
%TO.P,J6,B1,GND*%
X104890000Y-85550000D03*
%TO.P,J6,B4,VBUS*%
%TO.N,+5Vout*%
X104890000Y-84750000D03*
D29*
%TO.P,J6,B5,CC2*%
%TO.N,Net-(J6-CC2)*%
X104890000Y-84100000D03*
%TO.P,J6,B6,D+*%
%TO.N,Net-(J6-D+-PadA6)*%
X104890000Y-83100000D03*
%TO.P,J6,B7,D-*%
%TO.N,Net-(J6-D--PadA7)*%
X104890000Y-81600000D03*
%TO.P,J6,B8,SBU2*%
%TO.N,unconnected-(J6-SBU2-PadB8)*%
X104890000Y-80600000D03*
D28*
%TO.P,J6,B9,VBUS*%
%TO.N,+5Vout*%
X104890000Y-79950000D03*
%TO.P,J6,B12,GND*%
%TO.N,GND*%
X104890000Y-79150000D03*
D30*
%TO.P,J6,S1,SHIELD*%
X104315000Y-78030000D03*
D31*
X100135000Y-78030000D03*
D30*
X104315000Y-86670000D03*
D31*
X100135000Y-86670000D03*
%TD*%
D23*
%TO.P,C4,1*%
%TO.N,GND*%
X119200000Y-86062500D03*
%TO.P,C4,2*%
%TO.N,+*%
X119200000Y-82937500D03*
%TD*%
D32*
%TO.N,GND*%
X106200000Y-53950000D03*
X153250000Y-88150000D03*
X154250000Y-89250000D03*
D33*
%TO.N,+3.3V*%
X101750000Y-65750000D03*
X117250000Y-75300000D03*
X107500000Y-75300000D03*
X128000000Y-87750000D03*
D32*
%TO.N,GND*%
X123500000Y-84500000D03*
X113000000Y-80000000D03*
X109250000Y-80750000D03*
X152000000Y-90000000D03*
X130500000Y-94750000D03*
X109250000Y-78000000D03*
X123750000Y-96500000D03*
X154860000Y-77780000D03*
X100420000Y-64660000D03*
X156600000Y-89200000D03*
X153250000Y-77750000D03*
X148500000Y-95250000D03*
X107500000Y-78000000D03*
X113750000Y-85750000D03*
X120000000Y-76000000D03*
X115000000Y-84750000D03*
X99960000Y-70430000D03*
X102460000Y-72930000D03*
X133600000Y-91100000D03*
X99960000Y-72930000D03*
X149750000Y-96500000D03*
X147250000Y-94000000D03*
X140250000Y-88000000D03*
X111510000Y-68190000D03*
X115750000Y-81750000D03*
X143000000Y-97000000D03*
X114600000Y-97100000D03*
X110000000Y-83000000D03*
X155200000Y-88000000D03*
X116510000Y-70690000D03*
X141750000Y-93750000D03*
X154200000Y-86900000D03*
X123750000Y-94250000D03*
X98970000Y-68940000D03*
X141500000Y-95750000D03*
X112750000Y-85750000D03*
X151750000Y-83500000D03*
X130500000Y-97250000D03*
X111250000Y-78000000D03*
X110500000Y-87250000D03*
X133500000Y-95750000D03*
X142750000Y-94750000D03*
X133250000Y-97000000D03*
X119000000Y-84500000D03*
X114010000Y-68190000D03*
X108500000Y-83000000D03*
X113000000Y-78000000D03*
X125750000Y-77500000D03*
X115260000Y-69440000D03*
X157360000Y-80280000D03*
X129700000Y-96500000D03*
X151100000Y-88200000D03*
X123500000Y-77500000D03*
X126500000Y-96500000D03*
X144750000Y-94000000D03*
X132500000Y-94500000D03*
X112510000Y-69440000D03*
X150750000Y-75500000D03*
X99160000Y-82090000D03*
X150750000Y-77000000D03*
X121250000Y-78000000D03*
X114010000Y-70690000D03*
X153250000Y-79250000D03*
X158610000Y-79030000D03*
X101210000Y-71680000D03*
X124300000Y-85000000D03*
X135000000Y-97000000D03*
X98460000Y-71680000D03*
X145750000Y-95250000D03*
X150750000Y-81750000D03*
X130500000Y-99300000D03*
X99170000Y-63410000D03*
X106750000Y-83000000D03*
X119250000Y-79250000D03*
X115000000Y-86250000D03*
X155860000Y-79030000D03*
X121200000Y-84700000D03*
X98160000Y-80840000D03*
X111750000Y-81750000D03*
X115000000Y-80000000D03*
X150750000Y-83500000D03*
X115700000Y-95200000D03*
X100660000Y-83340000D03*
X136500000Y-94000000D03*
X121000000Y-93500000D03*
X115000000Y-83500000D03*
X142250000Y-88500000D03*
X115000000Y-78000000D03*
X114700000Y-93400000D03*
X141500000Y-87000000D03*
X145000000Y-96750000D03*
X116600000Y-97100000D03*
X147250000Y-96500000D03*
X116600000Y-93400000D03*
X159860000Y-80280000D03*
X144000000Y-95750000D03*
X100660000Y-80840000D03*
X101910000Y-82090000D03*
X142000000Y-90000000D03*
X157360000Y-77780000D03*
X105770000Y-91580000D03*
X142800000Y-85400000D03*
X121500000Y-96500000D03*
%TO.N,RES1*%
X146500000Y-84000000D03*
X146500000Y-81500000D03*
%TO.N,scl*%
X117500000Y-72200000D03*
X127750000Y-70250000D03*
%TO.N,sda*%
X127750000Y-71380000D03*
X111450000Y-72200000D03*
%TO.N,reset*%
X127780000Y-68880000D03*
X121750000Y-69050000D03*
%TO.N,CS{slash}SS1*%
X133250000Y-86000000D03*
%TO.N,GPIO5*%
X150539743Y-74291208D03*
X148541208Y-74291208D03*
%TO.N,GPIO8*%
X123750000Y-79000000D03*
%TO.N,DC4*%
X136750000Y-89250000D03*
X137750000Y-88250000D03*
%TO.N,RES2*%
X151000000Y-80250000D03*
X148250000Y-80250000D03*
%TO.N,GPIO6*%
X151250000Y-72750000D03*
X148500000Y-72750000D03*
X131750000Y-99750000D03*
%TO.N,CS{slash}SS2*%
X134000000Y-86750000D03*
%TO.N,CS{slash}SS3*%
X126250000Y-85750000D03*
X138405000Y-84060000D03*
X121900000Y-85800000D03*
%TO.N,CS{slash}SS4*%
X121375000Y-76125000D03*
%TO.N,GPIO3*%
X129500000Y-86500000D03*
%TO.N,RES3*%
X148250000Y-79000000D03*
%TO.N,GPIO7*%
X122375000Y-75000000D03*
%TO.N,DC2*%
X131450003Y-86500000D03*
%TO.N,GPIO4*%
X147250000Y-76000000D03*
X148575736Y-81424264D03*
%TO.N,DC3*%
X135967159Y-88661158D03*
X137000000Y-87500000D03*
%TO.N,RES4*%
X148250000Y-77730000D03*
%TO.N,VIB2*%
X153100000Y-94800000D03*
X141600000Y-81400000D03*
%TO.N,VIB1*%
X139675000Y-84060000D03*
X151721827Y-94278173D03*
%TO.N,VIB3*%
X126600000Y-83900000D03*
X127700000Y-79100000D03*
X127400000Y-85900000D03*
%TO.N,VIB4*%
X129611203Y-94100000D03*
X130300000Y-82300000D03*
X128750000Y-95500000D03*
%TD*%
D34*
%TO.N,+5Vout*%
X103520000Y-83970000D02*
X103520000Y-80709594D01*
X104300000Y-84750000D02*
X103520000Y-83970000D01*
X104279594Y-79950000D02*
X104890000Y-79950000D01*
X104890000Y-84750000D02*
X104300000Y-84750000D01*
X103520000Y-80709594D02*
X104279594Y-79950000D01*
%TO.N,RES2*%
X157500000Y-88050000D02*
X153500000Y-84050000D01*
X153500000Y-84050000D02*
X153500000Y-82750000D01*
X157500000Y-99400000D02*
X157500000Y-88050000D01*
X145000000Y-100500000D02*
X156400000Y-100500000D01*
X156400000Y-100500000D02*
X157500000Y-99400000D01*
X153500000Y-82750000D02*
X151000000Y-80250000D01*
X143250000Y-98750000D02*
X145000000Y-100500000D01*
%TO.N,GND*%
X104890000Y-78605000D02*
X104315000Y-78030000D01*
X104890000Y-79150000D02*
X104890000Y-78605000D01*
X104890000Y-86095000D02*
X104315000Y-86670000D01*
X104890000Y-85550000D02*
X104890000Y-86095000D01*
D35*
%TO.N,+3.3V*%
X124750000Y-68250000D02*
X122450000Y-65950000D01*
X116800000Y-86050000D02*
X116800000Y-86230000D01*
D34*
X127632500Y-67687500D02*
X127750000Y-67570000D01*
D35*
X118637500Y-75300000D02*
X117250000Y-75300000D01*
X111240000Y-98730000D02*
X111140000Y-98830000D01*
X124750000Y-69187500D02*
X118637500Y-75300000D01*
X138250000Y-98750000D02*
X138250000Y-91860000D01*
X138250000Y-91860000D02*
X138230000Y-91840000D01*
X116800000Y-86700000D02*
X117850000Y-87750000D01*
X117250000Y-75300000D02*
X110000000Y-75300000D01*
X117850000Y-87750000D02*
X128000000Y-87750000D01*
X122450000Y-65950000D02*
X121750000Y-65950000D01*
D34*
X124750000Y-69187500D02*
X124750000Y-68350000D01*
D35*
X124750000Y-68500000D02*
X125562500Y-67687500D01*
X110250000Y-75300000D02*
X107500000Y-75300000D01*
X124750000Y-69187500D02*
X124750000Y-68500000D01*
X103250000Y-64250000D02*
X104875000Y-64250000D01*
X124750000Y-69187500D02*
X124750000Y-68250000D01*
X116800000Y-86050000D02*
X116800000Y-86700000D01*
X116800000Y-86230000D02*
X111240000Y-91790000D01*
X111240000Y-91790000D02*
X111240000Y-98730000D01*
X125562500Y-67687500D02*
X127632500Y-67687500D01*
D34*
X104875000Y-64250000D02*
X105175000Y-64250000D01*
D35*
X101750000Y-65750000D02*
X103250000Y-64250000D01*
D34*
%TO.N,GND*%
X136500000Y-94000000D02*
X135730000Y-94000000D01*
X124860000Y-100140000D02*
X124860000Y-97610000D01*
X141880000Y-99370000D02*
X141000000Y-100250000D01*
X141500000Y-95750000D02*
X141880000Y-96130000D01*
X141000000Y-100250000D02*
X137240000Y-100250000D01*
X111750000Y-81750000D02*
X111900000Y-81900000D01*
X108710000Y-98740000D02*
X110720000Y-100750000D01*
X124860000Y-97610000D02*
X123750000Y-96500000D01*
X111900000Y-81900000D02*
X112875000Y-81900000D01*
X124250000Y-100750000D02*
X124860000Y-100140000D01*
X110720000Y-100750000D02*
X124250000Y-100750000D01*
X137240000Y-100250000D02*
X135730000Y-98740000D01*
X135730000Y-94000000D02*
X135730000Y-98740000D01*
X135730000Y-91840000D02*
X135730000Y-94000000D01*
X141880000Y-96130000D02*
X141880000Y-99370000D01*
%TO.N,boot0*%
X147937500Y-86250000D02*
X147937500Y-82937500D01*
X147937500Y-82937500D02*
X147900000Y-82900000D01*
X145250000Y-82810000D02*
X147810000Y-82810000D01*
X147810000Y-82810000D02*
X147900000Y-82900000D01*
%TO.N,RES1*%
X146500000Y-81500000D02*
X146460000Y-81540000D01*
X144050000Y-90950000D02*
X146500000Y-88500000D01*
X143320000Y-91680000D02*
X143320000Y-91800000D01*
X146500000Y-86000000D02*
X146500000Y-84000000D01*
X146460000Y-81540000D02*
X145250000Y-81540000D01*
X144050000Y-90950000D02*
X143320000Y-91680000D01*
X143250000Y-91750000D02*
X144050000Y-90950000D01*
X146500000Y-88500000D02*
X146500000Y-86000000D01*
%TO.N,DC1*%
X143485000Y-84060000D02*
X143485000Y-89924009D01*
X141980000Y-91190000D02*
X141980000Y-92466980D01*
X143485000Y-89924009D02*
X143245991Y-89924009D01*
X144400333Y-93169667D02*
X145780000Y-91790000D01*
X145700000Y-91800000D02*
X145860000Y-91800000D01*
X142682687Y-93169667D02*
X144400333Y-93169667D01*
X143245991Y-89924009D02*
X141980000Y-91190000D01*
X141980000Y-92466980D02*
X142682687Y-93169667D01*
%TO.N,scl*%
X113250000Y-72200000D02*
X110300000Y-69250000D01*
X113000000Y-72200000D02*
X117500000Y-72200000D01*
X110300000Y-69250000D02*
X105175000Y-69250000D01*
X127750000Y-70110000D02*
X127750000Y-70250000D01*
%TO.N,sda*%
X104800000Y-66750000D02*
X105175000Y-66750000D01*
X110000000Y-72200000D02*
X111450000Y-72200000D01*
X127370000Y-71380000D02*
X127750000Y-71380000D01*
X108700000Y-72200000D02*
X106650000Y-70150000D01*
X110250000Y-72200000D02*
X108700000Y-72200000D01*
X106650000Y-70150000D02*
X103400000Y-70150000D01*
X103190000Y-68360000D02*
X104800000Y-66750000D01*
X103190000Y-69940000D02*
X103190000Y-68360000D01*
X103400000Y-70150000D02*
X103190000Y-69940000D01*
%TO.N,GPIO1*%
X145250000Y-67570000D02*
X145780000Y-67570000D01*
X150200000Y-73782422D02*
X149939743Y-74042679D01*
X150200000Y-87234744D02*
X150200000Y-91060000D01*
X149939743Y-86974487D02*
X150200000Y-87234744D01*
X149939743Y-74042679D02*
X149939743Y-86974487D01*
X150200000Y-91060000D02*
X150940000Y-91800000D01*
X145780000Y-67570000D02*
X150200000Y-71990000D01*
X150200000Y-71990000D02*
X150200000Y-73782422D01*
%TO.N,reset*%
X117800000Y-69050000D02*
X121750000Y-69050000D01*
X127780000Y-68880000D02*
X127780000Y-68870000D01*
X116500000Y-67750000D02*
X117800000Y-69050000D01*
X127690000Y-68900000D02*
X127750000Y-68840000D01*
X127780000Y-68870000D02*
X127750000Y-68840000D01*
%TO.N,+*%
X115670000Y-83030000D02*
X122370000Y-83030000D01*
X114650000Y-82437500D02*
X115077500Y-82437500D01*
X115077500Y-82437500D02*
X115670000Y-83030000D01*
%TO.N,-*%
X115126295Y-81322500D02*
X115668795Y-80780000D01*
X115668795Y-80780000D02*
X122370000Y-80780000D01*
X114620000Y-81322500D02*
X115126295Y-81322500D01*
D36*
%TO.N,+5Vout*%
X113780000Y-81900000D02*
X114725000Y-81900000D01*
X113590000Y-82627500D02*
X113587500Y-82630000D01*
D37*
X106082500Y-84790000D02*
X107172500Y-85880000D01*
X105062500Y-84790000D02*
X106082500Y-84790000D01*
D36*
X113590000Y-82090000D02*
X113590000Y-82627500D01*
D37*
X111087500Y-85880000D02*
X112900000Y-84067500D01*
D36*
X113587500Y-82630000D02*
X113587500Y-84067500D01*
D37*
X107172500Y-85880000D02*
X111087500Y-85880000D01*
D36*
X113590000Y-82090000D02*
X113780000Y-81900000D01*
D34*
%TO.N,CS{slash}SS1*%
X133250000Y-86000000D02*
X132055000Y-84805000D01*
X132055000Y-84805000D02*
X132055000Y-84060000D01*
%TO.N,GPIO5*%
X158700000Y-88450000D02*
X158700000Y-99900000D01*
X153900000Y-83650000D02*
X158700000Y-88450000D01*
X157500000Y-101100000D02*
X133948529Y-101100000D01*
X130948529Y-98100000D02*
X130150000Y-98100000D01*
X148541208Y-74291208D02*
X148170000Y-73920000D01*
X158700000Y-99900000D02*
X157500000Y-101100000D01*
X150750000Y-74250000D02*
X153900000Y-77400000D01*
X133948529Y-101100000D02*
X130948529Y-98100000D01*
X153900000Y-77400000D02*
X153900000Y-83650000D01*
X148170000Y-73920000D02*
X145250000Y-73920000D01*
X130150000Y-98100000D02*
X123840000Y-91790000D01*
%TO.N,GPIO8*%
X124000000Y-78750000D02*
X125259744Y-78750000D01*
X123750000Y-79000000D02*
X124000000Y-78750000D01*
X125259744Y-78750000D02*
X126779744Y-80270000D01*
X126779744Y-80270000D02*
X127750000Y-80270000D01*
%TO.N,DC4*%
X122500000Y-91250000D02*
X122500000Y-93400000D01*
X118760000Y-97140000D02*
X118760000Y-98770000D01*
X135750000Y-90250000D02*
X123500000Y-90250000D01*
X142215000Y-84937500D02*
X142215000Y-84060000D01*
X123500000Y-90250000D02*
X122500000Y-91250000D01*
X122500000Y-93400000D02*
X118760000Y-97140000D01*
X138902500Y-88250000D02*
X142215000Y-84937500D01*
X137750000Y-88250000D02*
X138902500Y-88250000D01*
X136750000Y-89250000D02*
X135750000Y-90250000D01*
%TO.N,RES2*%
X148230000Y-80270000D02*
X145250000Y-80270000D01*
X148250000Y-80250000D02*
X148230000Y-80270000D01*
%TO.N,GPIO6*%
X131750000Y-99750000D02*
X133800000Y-101800000D01*
X148500000Y-72750000D02*
X148400000Y-72650000D01*
X133800000Y-101800000D02*
X157800000Y-101800000D01*
X157800000Y-101800000D02*
X159500000Y-100100000D01*
X148400000Y-72650000D02*
X145250000Y-72650000D01*
X159500000Y-100100000D02*
X159500000Y-81000000D01*
X159500000Y-81000000D02*
X151250000Y-72750000D01*
%TO.N,CS{slash}SS2*%
X134000000Y-86750000D02*
X134000000Y-85500000D01*
X133325000Y-84825000D02*
X133325000Y-84060000D01*
X134000000Y-85500000D02*
X133325000Y-84825000D01*
%TO.N,CS{slash}SS3*%
X121950000Y-85750000D02*
X126250000Y-85750000D01*
X121900000Y-85800000D02*
X121950000Y-85750000D01*
%TO.N,CS{slash}SS4*%
X125830000Y-75190000D02*
X127750000Y-75190000D01*
X124895000Y-76125000D02*
X125830000Y-75190000D01*
X121375000Y-76125000D02*
X124895000Y-76125000D01*
%TO.N,SCLK*%
X140750000Y-92900000D02*
X140750000Y-91830000D01*
X119000000Y-89000000D02*
X133730000Y-89000000D01*
X140260000Y-91370000D02*
X140730000Y-91840000D01*
X140300000Y-91800000D02*
X140780000Y-91800000D01*
X135865000Y-86865000D02*
X135865000Y-84060000D01*
X133730000Y-89000000D02*
X135865000Y-86865000D01*
X135865000Y-87365000D02*
X140340000Y-91840000D01*
X135865000Y-86865000D02*
X135865000Y-87365000D01*
X140340000Y-91840000D02*
X140730000Y-91840000D01*
X140750000Y-91750000D02*
X140250000Y-91750000D01*
X113680000Y-91790000D02*
X113680000Y-98770000D01*
X119000000Y-89000000D02*
X116470000Y-89000000D01*
X140750000Y-92900000D02*
X140750000Y-91750000D01*
X140250000Y-91750000D02*
X140000000Y-91500000D01*
X140750000Y-91830000D02*
X140780000Y-91800000D01*
X116470000Y-89000000D02*
X113680000Y-91790000D01*
X140750000Y-98750000D02*
X140750000Y-92900000D01*
X140750000Y-91860000D02*
X140730000Y-91840000D01*
X140750000Y-92900000D02*
X140750000Y-91860000D01*
%TO.N,GPIO3*%
X129515000Y-86235000D02*
X129515000Y-84060000D01*
X129500000Y-86250000D02*
X129515000Y-86235000D01*
X129500000Y-86500000D02*
X129500000Y-86250000D01*
%TO.N,RES3*%
X148250000Y-79000000D02*
X145250000Y-79000000D01*
%TO.N,GPIO7*%
X122375000Y-75000000D02*
X123455000Y-73920000D01*
X123455000Y-73920000D02*
X127750000Y-73920000D01*
%TO.N,DC2*%
X131320000Y-86500000D02*
X130785000Y-85965000D01*
X131450003Y-86500000D02*
X131320000Y-86500000D01*
X130785000Y-85965000D02*
X130785000Y-84060000D01*
%TO.N,Net-(J6-D--PadA7)*%
X103920000Y-81815000D02*
X104135000Y-81600000D01*
X104900000Y-81610000D02*
X110840000Y-81610000D01*
X103920000Y-82405000D02*
X103920000Y-81815000D01*
X104890000Y-81600000D02*
X104900000Y-81610000D01*
X112270000Y-81100000D02*
X112520000Y-81350000D01*
X104135000Y-81600000D02*
X104890000Y-81600000D01*
X111350000Y-81100000D02*
X112270000Y-81100000D01*
X112520000Y-81350000D02*
X112892500Y-81350000D01*
X104995000Y-82610000D02*
X104125000Y-82610000D01*
X104125000Y-82610000D02*
X103920000Y-82405000D01*
X110840000Y-81610000D02*
X111350000Y-81100000D01*
%TO.N,Net-(J6-D+-PadA6)*%
X105005000Y-82100000D02*
X106010000Y-82100000D01*
X111000000Y-82110000D02*
X111490000Y-82600000D01*
X106010000Y-82100000D02*
X106020000Y-82110000D01*
X106020000Y-82110000D02*
X111000000Y-82110000D01*
X104890000Y-83100000D02*
X105875000Y-83100000D01*
X105875000Y-83100000D02*
X106020000Y-82955000D01*
X104995000Y-82110000D02*
X105005000Y-82100000D01*
X106020000Y-82955000D02*
X106020000Y-82110000D01*
X111490000Y-82600000D02*
X112270000Y-82600000D01*
X112472500Y-82397500D02*
X112920000Y-82397500D01*
X112270000Y-82600000D02*
X112472500Y-82397500D01*
%TO.N,GPIO2*%
X152123256Y-93156744D02*
X150169318Y-93156744D01*
X149525000Y-72585000D02*
X145780000Y-68840000D01*
X149525000Y-92512426D02*
X149525000Y-72585000D01*
X153480000Y-91800000D02*
X152123256Y-93156744D01*
X150169318Y-93156744D02*
X149525000Y-92512426D01*
X145780000Y-68840000D02*
X145250000Y-68840000D01*
%TO.N,Net-(J6-CC2)*%
X104890000Y-84100000D02*
X108050000Y-84100000D01*
X108050000Y-84100000D02*
X108300000Y-84350000D01*
%TO.N,Net-(J6-CC1)*%
X104890000Y-81100000D02*
X106100000Y-81100000D01*
X106100000Y-81100000D02*
X107700000Y-79500000D01*
%TO.N,Net-(U1-USB_D-)*%
X126170000Y-81480000D02*
X127670000Y-81480000D01*
X125470000Y-80780000D02*
X126170000Y-81480000D01*
%TO.N,GPIO4*%
X146690000Y-75190000D02*
X145250000Y-75190000D01*
X149000000Y-81848529D02*
X148575736Y-81424265D01*
X148575736Y-81424265D02*
X148575736Y-81424264D01*
X147250000Y-75750000D02*
X146690000Y-75190000D01*
X146980000Y-91140000D02*
X149000000Y-89120000D01*
X146980000Y-92480000D02*
X146980000Y-91140000D01*
X153250000Y-98750000D02*
X146980000Y-92480000D01*
X149000000Y-89120000D02*
X149000000Y-81848529D01*
X147250000Y-76000000D02*
X147250000Y-75750000D01*
X148575736Y-81424264D02*
X148575735Y-81424264D01*
%TO.N,Net-(U1-USB_D+)*%
X125750000Y-82750000D02*
X127670000Y-82750000D01*
%TO.N,DC3*%
X120700000Y-89850000D02*
X118710000Y-91840000D01*
X138455000Y-87500000D02*
X137000000Y-87500000D01*
X134778317Y-89850000D02*
X120700000Y-89850000D01*
X140945000Y-85010000D02*
X138455000Y-87500000D01*
X140945000Y-84060000D02*
X140945000Y-85010000D01*
X135967159Y-88661158D02*
X134778317Y-89850000D01*
%TO.N,RES4*%
X148250000Y-77730000D02*
X145250000Y-77730000D01*
%TO.N,VIB2*%
X137930000Y-77730000D02*
X127750000Y-77730000D01*
X155730000Y-97430000D02*
X155730000Y-98740000D01*
X153100000Y-94800000D02*
X155730000Y-97430000D01*
X141600000Y-81400000D02*
X137930000Y-77730000D01*
%TO.N,VIB1*%
X152850000Y-93150000D02*
X154580000Y-93150000D01*
X154580000Y-93150000D02*
X155940000Y-91790000D01*
X151721827Y-94278173D02*
X152850000Y-93150000D01*
%TO.N,VIB3*%
X127750000Y-79050000D02*
X127700000Y-79100000D01*
X127400000Y-85900000D02*
X126600000Y-85100000D01*
X127750000Y-79000000D02*
X127750000Y-79050000D01*
X126600000Y-85100000D02*
X126600000Y-83900000D01*
%TO.N,VIB4*%
X128750000Y-95450000D02*
X129611203Y-94588797D01*
X137135000Y-84060000D02*
X137135000Y-83110000D01*
X128750000Y-95500000D02*
X128750000Y-95450000D01*
X129611203Y-94588797D02*
X129611203Y-94100000D01*
X137135000Y-83110000D02*
X136325000Y-82300000D01*
X136325000Y-82300000D02*
X130300000Y-82300000D01*
%TD*%
%TA.AperFunction,Conductor*%
%TO.N,GND*%
G36*
X112443039Y-50170185D02*
G01*
X112488794Y-50222989D01*
X112500000Y-50274500D01*
X112500000Y-64810000D01*
X117954977Y-64810000D01*
X118022016Y-64829685D01*
X118067771Y-64882489D01*
X118077715Y-64951647D01*
X118048690Y-65015203D01*
X118042658Y-65021681D01*
X118007684Y-65056654D01*
X117915643Y-65205875D01*
X117915641Y-65205880D01*
X117860494Y-65372302D01*
X117860493Y-65372309D01*
X117850000Y-65475013D01*
X117850000Y-65687500D01*
X119126000Y-65687500D01*
X119193039Y-65707185D01*
X119238794Y-65759989D01*
X119250000Y-65811500D01*
X119250000Y-65937500D01*
X119376000Y-65937500D01*
X119443039Y-65957185D01*
X119488794Y-66009989D01*
X119500000Y-66061500D01*
X119500000Y-67099999D01*
X119949972Y-67099999D01*
X119949986Y-67099998D01*
X120052697Y-67089505D01*
X120219119Y-67034358D01*
X120219124Y-67034356D01*
X120368342Y-66942317D01*
X120424464Y-66886195D01*
X120485787Y-66852710D01*
X120555479Y-66857694D01*
X120599827Y-66886195D01*
X120656344Y-66942712D01*
X120805666Y-67034814D01*
X120972203Y-67089999D01*
X121074991Y-67100500D01*
X122134217Y-67100499D01*
X122201256Y-67120183D01*
X122221898Y-67136818D01*
X122873037Y-67787957D01*
X122906522Y-67849280D01*
X122901538Y-67918972D01*
X122859666Y-67974905D01*
X122794202Y-67999322D01*
X122725929Y-67984470D01*
X122720260Y-67981177D01*
X122694340Y-67965189D01*
X122694335Y-67965187D01*
X122694334Y-67965186D01*
X122527797Y-67910001D01*
X122527795Y-67910000D01*
X122425010Y-67899500D01*
X121074998Y-67899500D01*
X121074981Y-67899501D01*
X120972203Y-67910000D01*
X120972200Y-67910001D01*
X120805668Y-67965185D01*
X120805663Y-67965187D01*
X120656342Y-68057289D01*
X120600181Y-68113451D01*
X120538858Y-68146936D01*
X120469166Y-68141952D01*
X120424819Y-68113451D01*
X120368657Y-68057289D01*
X120368656Y-68057288D01*
X120219334Y-67965186D01*
X120052797Y-67910001D01*
X120052795Y-67910000D01*
X119950010Y-67899500D01*
X118549998Y-67899500D01*
X118549981Y-67899501D01*
X118447203Y-67910000D01*
X118447200Y-67910001D01*
X118280668Y-67965185D01*
X118280663Y-67965187D01*
X118131342Y-68057289D01*
X118007287Y-68181344D01*
X118003127Y-68188090D01*
X117951179Y-68234814D01*
X117882216Y-68246035D01*
X117818134Y-68218192D01*
X117809908Y-68210673D01*
X117786818Y-68187583D01*
X117753333Y-68126260D01*
X117750499Y-68099902D01*
X117750499Y-66952129D01*
X117750498Y-66952123D01*
X117750497Y-66952116D01*
X117744091Y-66892517D01*
X117743507Y-66890952D01*
X117712364Y-66807452D01*
X117709435Y-66766495D01*
X117687815Y-66749678D01*
X117607547Y-66642455D01*
X117607544Y-66642452D01*
X117492335Y-66556206D01*
X117492328Y-66556202D01*
X117357482Y-66505908D01*
X117357483Y-66505908D01*
X117297883Y-66499501D01*
X117297881Y-66499500D01*
X117297873Y-66499500D01*
X117297864Y-66499500D01*
X115702129Y-66499500D01*
X115702123Y-66499501D01*
X115642516Y-66505908D01*
X115507671Y-66556202D01*
X115507664Y-66556206D01*
X115392455Y-66642452D01*
X115392452Y-66642455D01*
X115306206Y-66757664D01*
X115306202Y-66757671D01*
X115255908Y-66892517D01*
X115250512Y-66942710D01*
X115249501Y-66952123D01*
X115249500Y-66952135D01*
X115249500Y-68547870D01*
X115249501Y-68547876D01*
X115255908Y-68607483D01*
X115306202Y-68742328D01*
X115306206Y-68742335D01*
X115392452Y-68857544D01*
X115392455Y-68857547D01*
X115507664Y-68943793D01*
X115507671Y-68943797D01*
X115642517Y-68994091D01*
X115642516Y-68994091D01*
X115649444Y-68994835D01*
X115702127Y-69000500D01*
X116849901Y-69000499D01*
X116916940Y-69020184D01*
X116937582Y-69036818D01*
X117431284Y-69530520D01*
X117431286Y-69530521D01*
X117431290Y-69530524D01*
X117568209Y-69609573D01*
X117568216Y-69609577D01*
X117720943Y-69650501D01*
X117777983Y-69650501D01*
X117845022Y-69670186D01*
X117890777Y-69722990D01*
X117895687Y-69735493D01*
X117915186Y-69794334D01*
X118007288Y-69943656D01*
X118131344Y-70067712D01*
X118280666Y-70159814D01*
X118447203Y-70214999D01*
X118549991Y-70225500D01*
X119950008Y-70225499D01*
X120052797Y-70214999D01*
X120219334Y-70159814D01*
X120368656Y-70067712D01*
X120437319Y-69999049D01*
X120498642Y-69965564D01*
X120568334Y-69970548D01*
X120612681Y-69999049D01*
X120656344Y-70042712D01*
X120805666Y-70134814D01*
X120972203Y-70189999D01*
X121074991Y-70200500D01*
X122022717Y-70200499D01*
X122089756Y-70220183D01*
X122135511Y-70272987D01*
X122145455Y-70342146D01*
X122116430Y-70405702D01*
X122110398Y-70412180D01*
X118259399Y-74263181D01*
X118198076Y-74296666D01*
X118171718Y-74299500D01*
X118127588Y-74299500D01*
X118060549Y-74279815D01*
X118056465Y-74277075D01*
X118052373Y-74274210D01*
X117902734Y-74169432D01*
X117902447Y-74169298D01*
X117696497Y-74073261D01*
X117696488Y-74073258D01*
X117476697Y-74014366D01*
X117476693Y-74014365D01*
X117476692Y-74014365D01*
X117476691Y-74014364D01*
X117476686Y-74014364D01*
X117250002Y-73994532D01*
X117249998Y-73994532D01*
X117023313Y-74014364D01*
X117023302Y-74014366D01*
X116803511Y-74073258D01*
X116803502Y-74073261D01*
X116597267Y-74169431D01*
X116597265Y-74169432D01*
X116494595Y-74241322D01*
X116447627Y-74274210D01*
X116443535Y-74277075D01*
X116377329Y-74299402D01*
X116372412Y-74299500D01*
X114366196Y-74299500D01*
X114301100Y-74281039D01*
X114194340Y-74215189D01*
X114194335Y-74215187D01*
X114194334Y-74215186D01*
X114027797Y-74160001D01*
X114027795Y-74160000D01*
X113925010Y-74149500D01*
X112574998Y-74149500D01*
X112574981Y-74149501D01*
X112472203Y-74160000D01*
X112472200Y-74160001D01*
X112305668Y-74215185D01*
X112305659Y-74215189D01*
X112198900Y-74281039D01*
X112133804Y-74299500D01*
X111366196Y-74299500D01*
X111301100Y-74281039D01*
X111194340Y-74215189D01*
X111194335Y-74215187D01*
X111194334Y-74215186D01*
X111027797Y-74160001D01*
X111027795Y-74160000D01*
X110925010Y-74149500D01*
X109574998Y-74149500D01*
X109574981Y-74149501D01*
X109472203Y-74160000D01*
X109472200Y-74160001D01*
X109305668Y-74215185D01*
X109305659Y-74215189D01*
X109198900Y-74281039D01*
X109133804Y-74299500D01*
X108377588Y-74299500D01*
X108310549Y-74279815D01*
X108306465Y-74277075D01*
X108302373Y-74274210D01*
X108152734Y-74169432D01*
X108152447Y-74169298D01*
X107946497Y-74073261D01*
X107946488Y-74073258D01*
X107726697Y-74014366D01*
X107726693Y-74014365D01*
X107726692Y-74014365D01*
X107726691Y-74014364D01*
X107726686Y-74014364D01*
X107500002Y-73994532D01*
X107499998Y-73994532D01*
X107273313Y-74014364D01*
X107273302Y-74014366D01*
X107053511Y-74073258D01*
X107053502Y-74073261D01*
X106847267Y-74169431D01*
X106847265Y-74169432D01*
X106660858Y-74299954D01*
X106499954Y-74460858D01*
X106369432Y-74647265D01*
X106369431Y-74647267D01*
X106273261Y-74853502D01*
X106273258Y-74853511D01*
X106214366Y-75073302D01*
X106214364Y-75073313D01*
X106194532Y-75299998D01*
X106194532Y-75300001D01*
X106214364Y-75526686D01*
X106214366Y-75526697D01*
X106273258Y-75746488D01*
X106273261Y-75746497D01*
X106369431Y-75952732D01*
X106369432Y-75952734D01*
X106499954Y-76139141D01*
X106660858Y-76300045D01*
X106660861Y-76300047D01*
X106847266Y-76430568D01*
X107053504Y-76526739D01*
X107273308Y-76585635D01*
X107435230Y-76599801D01*
X107499998Y-76605468D01*
X107500000Y-76605468D01*
X107500002Y-76605468D01*
X107556673Y-76600509D01*
X107726692Y-76585635D01*
X107946496Y-76526739D01*
X108152734Y-76430568D01*
X108306465Y-76322924D01*
X108372671Y-76300598D01*
X108377588Y-76300500D01*
X109133804Y-76300500D01*
X109198900Y-76318961D01*
X109305659Y-76384810D01*
X109305660Y-76384810D01*
X109305666Y-76384814D01*
X109472203Y-76439999D01*
X109574991Y-76450500D01*
X110925008Y-76450499D01*
X111027797Y-76439999D01*
X111194334Y-76384814D01*
X111294673Y-76322925D01*
X111301100Y-76318961D01*
X111366196Y-76300500D01*
X112133804Y-76300500D01*
X112198900Y-76318961D01*
X112305659Y-76384810D01*
X112305660Y-76384810D01*
X112305666Y-76384814D01*
X112472203Y-76439999D01*
X112574991Y-76450500D01*
X113925008Y-76450499D01*
X114027797Y-76439999D01*
X114194334Y-76384814D01*
X114294673Y-76322925D01*
X114301100Y-76318961D01*
X114366196Y-76300500D01*
X116372412Y-76300500D01*
X116439451Y-76320185D01*
X116443523Y-76322917D01*
X116597266Y-76430568D01*
X116803504Y-76526739D01*
X117023308Y-76585635D01*
X117185230Y-76599801D01*
X117249998Y-76605468D01*
X117250000Y-76605468D01*
X117250002Y-76605468D01*
X117306673Y-76600509D01*
X117476692Y-76585635D01*
X117696496Y-76526739D01*
X117902734Y-76430568D01*
X118056465Y-76322924D01*
X118122671Y-76300598D01*
X118127588Y-76300500D01*
X118187156Y-76300500D01*
X118254195Y-76320185D01*
X118299950Y-76372989D01*
X118309894Y-76442147D01*
X118280869Y-76505703D01*
X118236389Y-76535378D01*
X118237421Y-76537592D01*
X118230875Y-76540643D01*
X118081654Y-76632684D01*
X117957684Y-76756654D01*
X117865643Y-76905875D01*
X117865641Y-76905880D01*
X117810494Y-77072302D01*
X117810493Y-77072309D01*
X117800000Y-77175013D01*
X117800000Y-77387500D01*
X118950000Y-77387500D01*
X119450000Y-77387500D01*
X120599999Y-77387500D01*
X120599999Y-77175028D01*
X120599998Y-77175013D01*
X120589505Y-77072302D01*
X120534358Y-76905880D01*
X120534356Y-76905875D01*
X120442315Y-76756654D01*
X120318345Y-76632684D01*
X120169124Y-76540643D01*
X120169119Y-76540641D01*
X120002697Y-76485494D01*
X120002690Y-76485493D01*
X119899986Y-76475000D01*
X119450000Y-76475000D01*
X119450000Y-77387500D01*
X118950000Y-77387500D01*
X118950000Y-76474999D01*
X118924594Y-76449593D01*
X118891109Y-76388270D01*
X118896093Y-76318578D01*
X118937965Y-76262645D01*
X118964821Y-76247352D01*
X118982665Y-76239961D01*
X119111414Y-76186632D01*
X119275282Y-76077139D01*
X119414639Y-75937782D01*
X119414639Y-75937780D01*
X119424847Y-75927573D01*
X119424848Y-75927570D01*
X123253601Y-72098818D01*
X123314923Y-72065334D01*
X123341281Y-72062500D01*
X124500000Y-72062500D01*
X125000000Y-72062500D01*
X126149999Y-72062500D01*
X126149999Y-71850028D01*
X126149998Y-71850013D01*
X126139505Y-71747302D01*
X126084358Y-71580880D01*
X126084356Y-71580875D01*
X125992315Y-71431654D01*
X125868345Y-71307684D01*
X125719124Y-71215643D01*
X125719119Y-71215641D01*
X125552697Y-71160494D01*
X125552690Y-71160493D01*
X125449986Y-71150000D01*
X125000000Y-71150000D01*
X125000000Y-72062500D01*
X124500000Y-72062500D01*
X124500000Y-71150000D01*
X124499259Y-71149259D01*
X124434742Y-71130315D01*
X124388987Y-71077511D01*
X124379043Y-71008353D01*
X124408068Y-70944797D01*
X124414087Y-70938331D01*
X124965602Y-70386818D01*
X125026925Y-70353333D01*
X125053283Y-70350499D01*
X125450002Y-70350499D01*
X125450008Y-70350499D01*
X125552797Y-70339999D01*
X125719334Y-70284814D01*
X125868656Y-70192712D01*
X125992712Y-70068656D01*
X126084814Y-69919334D01*
X126139999Y-69752797D01*
X126150500Y-69650009D01*
X126150499Y-68811999D01*
X126170183Y-68744961D01*
X126222987Y-68699206D01*
X126274499Y-68688000D01*
X126375500Y-68688000D01*
X126442539Y-68707685D01*
X126488294Y-68760489D01*
X126499500Y-68812000D01*
X126499500Y-69337870D01*
X126499501Y-69337876D01*
X126505908Y-69397481D01*
X126518659Y-69431669D01*
X126523642Y-69501361D01*
X126518659Y-69518331D01*
X126505908Y-69552518D01*
X126499774Y-69609576D01*
X126499501Y-69612123D01*
X126499500Y-69612135D01*
X126499500Y-70607870D01*
X126499501Y-70607876D01*
X126505908Y-70667481D01*
X126518659Y-70701669D01*
X126523642Y-70771361D01*
X126518659Y-70788331D01*
X126505908Y-70822518D01*
X126504024Y-70840046D01*
X126499501Y-70882123D01*
X126499500Y-70882135D01*
X126499500Y-71877870D01*
X126499501Y-71877876D01*
X126505908Y-71937481D01*
X126518659Y-71971669D01*
X126523642Y-72041361D01*
X126518659Y-72058331D01*
X126505908Y-72092518D01*
X126505231Y-72098819D01*
X126499501Y-72152123D01*
X126499500Y-72152135D01*
X126499500Y-73147870D01*
X126499501Y-73147876D01*
X126503196Y-73182247D01*
X126490789Y-73251006D01*
X126443178Y-73302143D01*
X126379906Y-73319500D01*
X126136678Y-73319500D01*
X126069639Y-73299815D01*
X126023884Y-73247011D01*
X126013940Y-73177853D01*
X126031139Y-73130403D01*
X126084356Y-73044124D01*
X126084358Y-73044119D01*
X126139505Y-72877697D01*
X126139506Y-72877690D01*
X126149999Y-72774986D01*
X126150000Y-72774973D01*
X126150000Y-72562500D01*
X123350001Y-72562500D01*
X123350001Y-72774986D01*
X123360494Y-72877697D01*
X123415641Y-73044119D01*
X123415643Y-73044124D01*
X123469198Y-73130949D01*
X123487638Y-73198341D01*
X123466716Y-73265005D01*
X123413074Y-73309775D01*
X123379849Y-73318985D01*
X123375943Y-73319499D01*
X123223214Y-73360423D01*
X123223209Y-73360426D01*
X123086290Y-73439475D01*
X123086282Y-73439481D01*
X122356465Y-74169298D01*
X122295142Y-74202783D01*
X122282668Y-74204837D01*
X122195750Y-74214630D01*
X122025478Y-74274210D01*
X121872737Y-74370184D01*
X121745184Y-74497737D01*
X121649211Y-74650476D01*
X121589631Y-74820745D01*
X121589630Y-74820750D01*
X121569435Y-74999996D01*
X121569435Y-75000003D01*
X121590411Y-75186175D01*
X121588711Y-75186366D01*
X121584972Y-75247321D01*
X121543670Y-75303677D01*
X121478457Y-75328756D01*
X121454475Y-75328388D01*
X121375006Y-75319435D01*
X121374996Y-75319435D01*
X121195750Y-75339630D01*
X121195745Y-75339631D01*
X121025476Y-75399211D01*
X120872737Y-75495184D01*
X120745184Y-75622737D01*
X120649211Y-75775476D01*
X120589631Y-75945745D01*
X120589630Y-75945750D01*
X120569435Y-76124996D01*
X120569435Y-76125003D01*
X120589630Y-76304249D01*
X120589631Y-76304254D01*
X120649211Y-76474523D01*
X120737416Y-76614900D01*
X120745184Y-76627262D01*
X120872738Y-76754816D01*
X121025478Y-76850789D01*
X121182905Y-76905875D01*
X121195745Y-76910368D01*
X121195750Y-76910369D01*
X121374996Y-76930565D01*
X121375000Y-76930565D01*
X121375004Y-76930565D01*
X121554249Y-76910369D01*
X121554252Y-76910368D01*
X121554255Y-76910368D01*
X121724522Y-76850789D01*
X121877262Y-76754816D01*
X121877267Y-76754810D01*
X121880097Y-76752555D01*
X121882275Y-76751665D01*
X121883158Y-76751111D01*
X121883255Y-76751265D01*
X121944783Y-76726145D01*
X121957412Y-76725500D01*
X124808331Y-76725500D01*
X124808347Y-76725501D01*
X124815943Y-76725501D01*
X124974054Y-76725501D01*
X124974057Y-76725501D01*
X125126785Y-76684577D01*
X125176904Y-76655639D01*
X125263716Y-76605520D01*
X125375520Y-76493716D01*
X125375520Y-76493714D01*
X125385728Y-76483507D01*
X125385729Y-76483504D01*
X126042417Y-75826819D01*
X126103740Y-75793334D01*
X126130098Y-75790500D01*
X126379906Y-75790500D01*
X126446945Y-75810185D01*
X126492700Y-75862989D01*
X126503195Y-75927752D01*
X126499500Y-75962127D01*
X126499500Y-75962128D01*
X126499500Y-75962132D01*
X126499500Y-76957870D01*
X126499501Y-76957876D01*
X126505908Y-77017481D01*
X126518659Y-77051669D01*
X126523642Y-77121361D01*
X126518659Y-77138331D01*
X126505908Y-77172518D01*
X126499501Y-77232116D01*
X126499500Y-77232135D01*
X126499500Y-78227870D01*
X126499501Y-78227876D01*
X126505908Y-78287481D01*
X126518659Y-78321669D01*
X126523642Y-78391361D01*
X126518659Y-78408331D01*
X126505908Y-78442518D01*
X126499972Y-78497737D01*
X126499501Y-78502123D01*
X126499500Y-78502135D01*
X126499500Y-78841159D01*
X126479815Y-78908198D01*
X126427011Y-78953953D01*
X126357853Y-78963897D01*
X126294297Y-78934872D01*
X126287819Y-78928840D01*
X125747334Y-78388355D01*
X125747332Y-78388352D01*
X125628461Y-78269481D01*
X125628453Y-78269475D01*
X125533461Y-78214632D01*
X125533459Y-78214631D01*
X125491534Y-78190425D01*
X125491533Y-78190424D01*
X125479007Y-78187067D01*
X125338801Y-78149499D01*
X125180687Y-78149499D01*
X125173091Y-78149499D01*
X125173075Y-78149500D01*
X123920940Y-78149500D01*
X123880019Y-78160464D01*
X123880019Y-78160465D01*
X123769097Y-78190187D01*
X123764574Y-78191399D01*
X123746364Y-78194844D01*
X123570749Y-78214630D01*
X123570745Y-78214631D01*
X123400476Y-78274211D01*
X123247737Y-78370184D01*
X123120184Y-78497737D01*
X123024211Y-78650476D01*
X122964631Y-78820745D01*
X122964630Y-78820750D01*
X122944435Y-78999996D01*
X122944435Y-79000003D01*
X122964631Y-79179253D01*
X122965235Y-79181899D01*
X122965127Y-79183656D01*
X122965411Y-79186175D01*
X122964969Y-79186224D01*
X122960962Y-79251638D01*
X122919663Y-79307995D01*
X122854451Y-79333078D01*
X122831743Y-79332849D01*
X122750012Y-79324500D01*
X121849998Y-79324500D01*
X121849980Y-79324501D01*
X121747203Y-79335000D01*
X121747200Y-79335001D01*
X121580668Y-79390185D01*
X121580663Y-79390187D01*
X121431342Y-79482289D01*
X121307289Y-79606342D01*
X121215187Y-79755663D01*
X121215185Y-79755668D01*
X121199719Y-79802342D01*
X121160001Y-79922203D01*
X121160001Y-79922204D01*
X121160000Y-79922204D01*
X121149500Y-80024983D01*
X121149500Y-80055500D01*
X121129815Y-80122539D01*
X121077011Y-80168294D01*
X121025500Y-80179500D01*
X120673674Y-80179500D01*
X120606635Y-80159815D01*
X120560880Y-80107011D01*
X120555968Y-80094505D01*
X120553117Y-80085901D01*
X120534814Y-80030666D01*
X120442712Y-79881344D01*
X120318656Y-79757288D01*
X120210879Y-79690811D01*
X120169336Y-79665187D01*
X120169331Y-79665185D01*
X120157791Y-79661361D01*
X120002797Y-79610001D01*
X120002795Y-79610000D01*
X119900010Y-79599500D01*
X118499998Y-79599500D01*
X118499981Y-79599501D01*
X118397203Y-79610000D01*
X118397200Y-79610001D01*
X118230668Y-79665185D01*
X118230663Y-79665187D01*
X118081342Y-79757289D01*
X117957289Y-79881342D01*
X117865187Y-80030663D01*
X117865186Y-80030666D01*
X117844032Y-80094505D01*
X117804259Y-80151949D01*
X117739743Y-80178772D01*
X117726326Y-80179500D01*
X115755464Y-80179500D01*
X115755448Y-80179499D01*
X115747852Y-80179499D01*
X115589738Y-80179499D01*
X115437010Y-80220423D01*
X115437008Y-80220424D01*
X115412164Y-80234766D01*
X115412165Y-80234767D01*
X115300082Y-80299477D01*
X115300077Y-80299481D01*
X115188273Y-80411286D01*
X114959008Y-80640550D01*
X114897685Y-80674035D01*
X114855146Y-80675809D01*
X114852270Y-80675430D01*
X114845202Y-80674500D01*
X114454798Y-80674500D01*
X114454792Y-80674500D01*
X114454788Y-80674501D01*
X114338621Y-80689794D01*
X114338616Y-80689796D01*
X114194063Y-80749671D01*
X114069926Y-80844926D01*
X113974672Y-80969062D01*
X113914561Y-81114185D01*
X113870720Y-81168588D01*
X113804426Y-81190653D01*
X113736727Y-81173374D01*
X113689116Y-81122237D01*
X113685439Y-81114185D01*
X113684525Y-81111978D01*
X113625327Y-80969061D01*
X113530074Y-80844926D01*
X113405939Y-80749673D01*
X113405938Y-80749672D01*
X113405936Y-80749671D01*
X113261383Y-80689796D01*
X113261378Y-80689794D01*
X113145211Y-80674501D01*
X113145208Y-80674500D01*
X113145202Y-80674500D01*
X112754798Y-80674500D01*
X112754791Y-80674500D01*
X112753555Y-80674581D01*
X112753193Y-80674500D01*
X112750739Y-80674500D01*
X112750739Y-80673950D01*
X112685372Y-80659324D01*
X112657764Y-80638528D01*
X112638717Y-80619481D01*
X112638716Y-80619480D01*
X112551904Y-80569360D01*
X112551904Y-80569359D01*
X112551900Y-80569358D01*
X112501785Y-80540423D01*
X112349057Y-80499499D01*
X112190943Y-80499499D01*
X112183347Y-80499499D01*
X112183331Y-80499500D01*
X112037727Y-80499500D01*
X111970688Y-80479815D01*
X111924933Y-80427011D01*
X111914989Y-80357853D01*
X111920021Y-80336496D01*
X111939505Y-80277697D01*
X111939506Y-80277690D01*
X111949999Y-80174986D01*
X111950000Y-80174973D01*
X111950000Y-79750000D01*
X109650001Y-79750000D01*
X109650001Y-80174986D01*
X109660494Y-80277697D01*
X109715641Y-80444119D01*
X109715643Y-80444124D01*
X109807684Y-80593345D01*
X109931654Y-80717315D01*
X110033219Y-80779961D01*
X110079943Y-80831909D01*
X110091166Y-80900872D01*
X110063322Y-80964954D01*
X110005254Y-81003810D01*
X109968122Y-81009500D01*
X108532830Y-81009500D01*
X108465791Y-80989815D01*
X108420036Y-80937011D01*
X108410092Y-80867853D01*
X108439117Y-80804297D01*
X108467731Y-80779962D01*
X108568656Y-80717712D01*
X108692712Y-80593656D01*
X108784814Y-80444334D01*
X108839999Y-80277797D01*
X108850500Y-80175009D01*
X108850499Y-78825013D01*
X109650000Y-78825013D01*
X109650000Y-79250000D01*
X110550000Y-79250000D01*
X111050000Y-79250000D01*
X111949999Y-79250000D01*
X111949999Y-78825028D01*
X111949998Y-78825013D01*
X111939505Y-78722302D01*
X111884358Y-78555880D01*
X111884356Y-78555875D01*
X111792315Y-78406654D01*
X111668345Y-78282684D01*
X111519124Y-78190643D01*
X111519119Y-78190641D01*
X111352697Y-78135494D01*
X111352690Y-78135493D01*
X111249986Y-78125000D01*
X111050000Y-78125000D01*
X111050000Y-79250000D01*
X110550000Y-79250000D01*
X110550000Y-78125000D01*
X110350029Y-78125000D01*
X110350012Y-78125001D01*
X110247302Y-78135494D01*
X110080880Y-78190641D01*
X110080875Y-78190643D01*
X109931654Y-78282684D01*
X109807684Y-78406654D01*
X109715643Y-78555875D01*
X109715641Y-78555880D01*
X109660494Y-78722302D01*
X109660493Y-78722309D01*
X109650000Y-78825013D01*
X108850499Y-78825013D01*
X108850499Y-78824992D01*
X108839999Y-78722203D01*
X108784814Y-78555666D01*
X108692712Y-78406344D01*
X108568656Y-78282288D01*
X108439618Y-78202697D01*
X108419336Y-78190187D01*
X108419331Y-78190185D01*
X108417862Y-78189698D01*
X108252797Y-78135001D01*
X108252795Y-78135000D01*
X108150010Y-78124500D01*
X107249998Y-78124500D01*
X107249980Y-78124501D01*
X107147203Y-78135000D01*
X107147200Y-78135001D01*
X106980668Y-78190185D01*
X106980663Y-78190187D01*
X106831342Y-78282289D01*
X106707289Y-78406342D01*
X106615187Y-78555663D01*
X106615185Y-78555668D01*
X106609890Y-78571648D01*
X106560001Y-78722203D01*
X106560001Y-78722204D01*
X106560000Y-78722204D01*
X106549500Y-78824983D01*
X106549500Y-79749901D01*
X106529815Y-79816940D01*
X106513181Y-79837582D01*
X106177181Y-80173582D01*
X106115858Y-80207067D01*
X106046166Y-80202083D01*
X105990233Y-80160211D01*
X105965816Y-80094747D01*
X105965500Y-80085901D01*
X105965500Y-79734313D01*
X105965499Y-79734298D01*
X105964829Y-79725789D01*
X105962598Y-79697431D01*
X105929555Y-79583697D01*
X105929555Y-79514507D01*
X105962100Y-79402490D01*
X105962295Y-79400001D01*
X105962295Y-79400000D01*
X105886308Y-79400000D01*
X105819269Y-79380315D01*
X105798631Y-79363685D01*
X105716865Y-79281919D01*
X105665662Y-79251638D01*
X105575396Y-79198255D01*
X105575393Y-79198254D01*
X105417573Y-79152402D01*
X105417567Y-79152401D01*
X105380701Y-79149500D01*
X105380694Y-79149500D01*
X104399306Y-79149500D01*
X104399295Y-79149500D01*
X104380699Y-79150964D01*
X104312322Y-79136599D01*
X104282444Y-79111199D01*
X104281262Y-79112382D01*
X104280561Y-79111681D01*
X104278438Y-79107794D01*
X104272586Y-79102819D01*
X104270557Y-79100174D01*
X104273179Y-79098162D01*
X104247076Y-79050358D01*
X104252060Y-78980666D01*
X104293932Y-78924733D01*
X104359396Y-78900316D01*
X104368242Y-78900000D01*
X105962295Y-78900000D01*
X105962295Y-78899998D01*
X105962100Y-78897513D01*
X105916281Y-78739801D01*
X105832685Y-78598447D01*
X105832678Y-78598438D01*
X105805888Y-78571648D01*
X105772403Y-78510325D01*
X105777387Y-78440633D01*
X105779008Y-78436514D01*
X105826570Y-78321689D01*
X105834862Y-78280000D01*
X105031988Y-78280000D01*
X105049205Y-78270060D01*
X105105060Y-78214205D01*
X105144556Y-78145796D01*
X105156830Y-78099986D01*
X117800001Y-78099986D01*
X117810494Y-78202697D01*
X117865641Y-78369119D01*
X117865643Y-78369124D01*
X117957684Y-78518345D01*
X118081654Y-78642315D01*
X118230875Y-78734356D01*
X118230880Y-78734358D01*
X118397302Y-78789505D01*
X118397309Y-78789506D01*
X118500019Y-78799999D01*
X118949999Y-78799999D01*
X119450000Y-78799999D01*
X119899972Y-78799999D01*
X119899986Y-78799998D01*
X120002697Y-78789505D01*
X120169119Y-78734358D01*
X120169124Y-78734356D01*
X120318345Y-78642315D01*
X120442315Y-78518345D01*
X120534356Y-78369124D01*
X120534358Y-78369119D01*
X120589505Y-78202697D01*
X120589506Y-78202690D01*
X120599999Y-78099986D01*
X120600000Y-78099973D01*
X120600000Y-77887500D01*
X119450000Y-77887500D01*
X119450000Y-78799999D01*
X118949999Y-78799999D01*
X118950000Y-78799998D01*
X118950000Y-77887500D01*
X117800001Y-77887500D01*
X117800001Y-78099986D01*
X105156830Y-78099986D01*
X105165000Y-78069496D01*
X105165000Y-77990504D01*
X105144556Y-77914204D01*
X105105060Y-77845795D01*
X105049205Y-77789940D01*
X105031988Y-77780000D01*
X105834862Y-77780000D01*
X105826569Y-77738309D01*
X105826569Y-77738307D01*
X105751192Y-77556328D01*
X105751185Y-77556315D01*
X105641751Y-77392537D01*
X105641748Y-77392533D01*
X105502466Y-77253251D01*
X105502462Y-77253248D01*
X105338684Y-77143814D01*
X105338671Y-77143807D01*
X105156693Y-77068430D01*
X105156681Y-77068427D01*
X104963495Y-77030000D01*
X104565000Y-77030000D01*
X104565000Y-77730000D01*
X104065000Y-77730000D01*
X104065000Y-77030000D01*
X103666504Y-77030000D01*
X103473318Y-77068427D01*
X103473306Y-77068430D01*
X103291328Y-77143807D01*
X103291315Y-77143814D01*
X103127537Y-77253248D01*
X103127533Y-77253251D01*
X102988251Y-77392533D01*
X102988248Y-77392537D01*
X102878814Y-77556315D01*
X102878807Y-77556328D01*
X102803430Y-77738307D01*
X102803430Y-77738309D01*
X102795138Y-77780000D01*
X103598012Y-77780000D01*
X103580795Y-77789940D01*
X103524940Y-77845795D01*
X103485444Y-77914204D01*
X103465000Y-77990504D01*
X103465000Y-78069496D01*
X103485444Y-78145796D01*
X103524940Y-78214205D01*
X103580795Y-78270060D01*
X103598012Y-78280000D01*
X102795138Y-78280000D01*
X102803430Y-78321690D01*
X102803430Y-78321692D01*
X102878807Y-78503671D01*
X102878814Y-78503684D01*
X102988248Y-78667462D01*
X102988251Y-78667466D01*
X103127533Y-78806748D01*
X103127537Y-78806751D01*
X103291315Y-78916185D01*
X103291328Y-78916192D01*
X103300838Y-78920131D01*
X103355243Y-78963970D01*
X103377310Y-79030264D01*
X103360033Y-79097963D01*
X103356350Y-79103405D01*
X103278719Y-79237863D01*
X103259928Y-79307995D01*
X103239500Y-79384234D01*
X103239500Y-79535766D01*
X103254478Y-79591666D01*
X103278719Y-79682136D01*
X103302564Y-79723436D01*
X103354485Y-79813365D01*
X103354487Y-79813367D01*
X103373058Y-79831938D01*
X103406543Y-79893261D01*
X103401559Y-79962953D01*
X103373058Y-80007300D01*
X103039481Y-80340876D01*
X103039479Y-80340879D01*
X103019916Y-80374764D01*
X102989752Y-80427011D01*
X102989361Y-80427688D01*
X102989359Y-80427690D01*
X102960425Y-80477803D01*
X102960424Y-80477804D01*
X102949258Y-80519478D01*
X102919499Y-80630537D01*
X102919499Y-80630539D01*
X102919499Y-80798640D01*
X102919500Y-80798653D01*
X102919500Y-83883330D01*
X102919499Y-83883348D01*
X102919499Y-84049054D01*
X102919498Y-84049054D01*
X102960423Y-84201787D01*
X102969619Y-84217713D01*
X102969618Y-84217713D01*
X102969620Y-84217715D01*
X103039475Y-84338709D01*
X103039481Y-84338717D01*
X103158349Y-84457585D01*
X103158355Y-84457590D01*
X103383261Y-84682496D01*
X103416746Y-84743819D01*
X103411762Y-84813511D01*
X103383263Y-84857857D01*
X103354485Y-84886635D01*
X103278719Y-85017863D01*
X103248230Y-85131654D01*
X103239500Y-85164234D01*
X103239500Y-85315766D01*
X103253179Y-85366818D01*
X103278719Y-85462136D01*
X103309645Y-85515701D01*
X103354485Y-85593365D01*
X103354486Y-85593366D01*
X103358549Y-85600403D01*
X103356346Y-85601674D01*
X103376959Y-85654983D01*
X103362923Y-85723428D01*
X103314112Y-85773420D01*
X103300845Y-85779866D01*
X103291324Y-85783809D01*
X103291315Y-85783814D01*
X103127537Y-85893248D01*
X103127533Y-85893251D01*
X102988251Y-86032533D01*
X102988248Y-86032537D01*
X102878814Y-86196315D01*
X102878807Y-86196328D01*
X102803430Y-86378307D01*
X102803430Y-86378309D01*
X102795138Y-86420000D01*
X103598012Y-86420000D01*
X103580795Y-86429940D01*
X103524940Y-86485795D01*
X103485444Y-86554204D01*
X103465000Y-86630504D01*
X103465000Y-86709496D01*
X103485444Y-86785796D01*
X103524940Y-86854205D01*
X103580795Y-86910060D01*
X103598012Y-86920000D01*
X102795138Y-86920000D01*
X102803430Y-86961690D01*
X102803430Y-86961692D01*
X102878807Y-87143671D01*
X102878814Y-87143684D01*
X102988248Y-87307462D01*
X102988251Y-87307466D01*
X103127533Y-87446748D01*
X103127537Y-87446751D01*
X103291315Y-87556185D01*
X103291328Y-87556192D01*
X103473306Y-87631569D01*
X103473318Y-87631572D01*
X103666504Y-87669999D01*
X103666508Y-87670000D01*
X104065000Y-87670000D01*
X104065000Y-86970000D01*
X104565000Y-86970000D01*
X104565000Y-87670000D01*
X104963492Y-87670000D01*
X104963495Y-87669999D01*
X105156681Y-87631572D01*
X105156693Y-87631569D01*
X105338671Y-87556192D01*
X105338684Y-87556185D01*
X105502462Y-87446751D01*
X105502466Y-87446748D01*
X105641748Y-87307466D01*
X105641751Y-87307462D01*
X105751185Y-87143684D01*
X105751192Y-87143671D01*
X105826569Y-86961692D01*
X105826569Y-86961690D01*
X105834862Y-86920000D01*
X105031988Y-86920000D01*
X105049205Y-86910060D01*
X105105060Y-86854205D01*
X105144556Y-86785796D01*
X105165000Y-86709496D01*
X105165000Y-86630504D01*
X105144556Y-86554204D01*
X105105060Y-86485795D01*
X105049205Y-86429940D01*
X104980796Y-86390444D01*
X104904496Y-86370000D01*
X104640000Y-86370000D01*
X104640000Y-85800000D01*
X104368242Y-85800000D01*
X104301203Y-85780315D01*
X104255448Y-85727511D01*
X104245504Y-85658353D01*
X104271788Y-85600798D01*
X104270543Y-85599844D01*
X104272572Y-85597198D01*
X104273863Y-85596254D01*
X104274529Y-85594797D01*
X104280561Y-85588319D01*
X104281262Y-85587618D01*
X104283128Y-85589484D01*
X104328987Y-85555977D01*
X104380704Y-85549036D01*
X104399306Y-85550500D01*
X104399314Y-85550500D01*
X105016000Y-85550500D01*
X105083039Y-85570185D01*
X105128794Y-85622989D01*
X105140000Y-85674500D01*
X105140000Y-86420000D01*
X105834862Y-86420000D01*
X105826569Y-86378309D01*
X105826569Y-86378307D01*
X105779008Y-86263483D01*
X105771539Y-86194014D01*
X105802814Y-86131535D01*
X105805889Y-86128348D01*
X105832683Y-86101553D01*
X105832686Y-86101550D01*
X105916282Y-85960196D01*
X105916283Y-85960194D01*
X105919704Y-85948420D01*
X105957308Y-85889533D01*
X106020780Y-85860325D01*
X106089967Y-85870068D01*
X106126462Y-85895330D01*
X106694084Y-86462952D01*
X106723500Y-86482607D01*
X106752912Y-86502259D01*
X106752914Y-86502260D01*
X106752917Y-86502262D01*
X106817005Y-86545084D01*
X106817006Y-86545084D01*
X106817007Y-86545085D01*
X106873594Y-86568524D01*
X106927998Y-86612364D01*
X106950063Y-86678658D01*
X106943849Y-86722085D01*
X106935494Y-86747299D01*
X106935494Y-86747301D01*
X106925000Y-86850013D01*
X106925000Y-87050000D01*
X109674999Y-87050000D01*
X109674999Y-86850028D01*
X109674998Y-86850013D01*
X111850000Y-86850013D01*
X111850000Y-87062500D01*
X113000000Y-87062500D01*
X113000000Y-86150000D01*
X112550028Y-86150000D01*
X112550012Y-86150001D01*
X112447302Y-86160494D01*
X112280880Y-86215641D01*
X112280875Y-86215643D01*
X112131654Y-86307684D01*
X112007684Y-86431654D01*
X111915643Y-86580875D01*
X111915641Y-86580880D01*
X111860494Y-86747302D01*
X111860493Y-86747309D01*
X111850000Y-86850013D01*
X109674998Y-86850013D01*
X109666528Y-86767102D01*
X109679297Y-86698409D01*
X109727178Y-86647525D01*
X109789886Y-86630500D01*
X111161420Y-86630500D01*
X111275269Y-86607853D01*
X111306413Y-86601658D01*
X111417692Y-86555565D01*
X111442993Y-86545085D01*
X111442993Y-86545084D01*
X111442995Y-86545084D01*
X111507083Y-86502262D01*
X111507083Y-86502261D01*
X111507085Y-86502261D01*
X111536499Y-86482607D01*
X111565916Y-86462952D01*
X112642049Y-85386817D01*
X112703372Y-85353333D01*
X112729730Y-85350499D01*
X113950002Y-85350499D01*
X113950008Y-85350499D01*
X114052797Y-85339999D01*
X114219334Y-85284814D01*
X114368656Y-85192712D01*
X114492712Y-85068656D01*
X114584814Y-84919334D01*
X114639999Y-84752797D01*
X114650500Y-84650009D01*
X114650499Y-83724992D01*
X114648251Y-83702989D01*
X114639999Y-83622203D01*
X114639998Y-83622200D01*
X114627412Y-83584217D01*
X114584814Y-83455666D01*
X114575519Y-83440597D01*
X114497802Y-83314596D01*
X114479362Y-83247204D01*
X114500285Y-83180541D01*
X114553927Y-83135771D01*
X114603341Y-83125500D01*
X114845196Y-83125500D01*
X114845202Y-83125500D01*
X114847356Y-83125216D01*
X114847998Y-83125316D01*
X114849255Y-83125234D01*
X114849273Y-83125514D01*
X114916392Y-83135973D01*
X114951236Y-83160471D01*
X115301284Y-83510520D01*
X115428936Y-83584219D01*
X115477150Y-83634784D01*
X115484640Y-83652599D01*
X115490184Y-83669331D01*
X115507771Y-83697844D01*
X115582288Y-83818656D01*
X115706344Y-83942712D01*
X115855666Y-84034814D01*
X116022203Y-84089999D01*
X116124991Y-84100500D01*
X117475008Y-84100499D01*
X117577797Y-84089999D01*
X117744334Y-84034814D01*
X117893656Y-83942712D01*
X117899819Y-83936549D01*
X117961142Y-83903064D01*
X118030834Y-83908048D01*
X118075181Y-83936549D01*
X118081344Y-83942712D01*
X118230666Y-84034814D01*
X118397203Y-84089999D01*
X118499991Y-84100500D01*
X119900008Y-84100499D01*
X120002797Y-84089999D01*
X120169334Y-84034814D01*
X120318656Y-83942712D01*
X120442712Y-83818656D01*
X120522435Y-83689402D01*
X120574383Y-83642679D01*
X120627974Y-83630500D01*
X121032976Y-83630500D01*
X121100015Y-83650185D01*
X121145770Y-83702989D01*
X121156334Y-83741899D01*
X121160000Y-83777796D01*
X121160001Y-83777799D01*
X121200495Y-83899999D01*
X121215186Y-83944334D01*
X121307288Y-84093656D01*
X121431344Y-84217712D01*
X121580666Y-84309814D01*
X121747203Y-84364999D01*
X121849991Y-84375500D01*
X122750008Y-84375499D01*
X122750016Y-84375498D01*
X122750019Y-84375498D01*
X122806302Y-84369748D01*
X122852797Y-84364999D01*
X123019334Y-84309814D01*
X123168656Y-84217712D01*
X123292712Y-84093656D01*
X123384814Y-83944334D01*
X123439999Y-83777797D01*
X123450500Y-83675009D01*
X123450499Y-82324992D01*
X123449184Y-82312123D01*
X123439999Y-82222203D01*
X123439998Y-82222200D01*
X123424357Y-82175000D01*
X123384814Y-82055666D01*
X123298109Y-81915094D01*
X123279670Y-81847704D01*
X123298110Y-81784904D01*
X123384814Y-81644334D01*
X123439999Y-81477797D01*
X123450500Y-81375009D01*
X123450499Y-80024992D01*
X123439999Y-79922203D01*
X123439997Y-79922198D01*
X123439969Y-79921919D01*
X123452738Y-79853227D01*
X123500619Y-79802342D01*
X123568408Y-79785421D01*
X123577210Y-79786097D01*
X123749996Y-79805565D01*
X123750000Y-79805565D01*
X123750004Y-79805565D01*
X123929249Y-79785369D01*
X123929252Y-79785368D01*
X123929255Y-79785368D01*
X124099522Y-79725789D01*
X124099524Y-79725788D01*
X124104408Y-79723436D01*
X124173349Y-79712080D01*
X124237485Y-79739799D01*
X124276454Y-79797792D01*
X124277883Y-79867647D01*
X124275922Y-79874156D01*
X124260001Y-79922200D01*
X124260000Y-79922204D01*
X124249500Y-80024983D01*
X124249500Y-81375001D01*
X124249501Y-81375018D01*
X124260000Y-81477796D01*
X124260001Y-81477799D01*
X124315185Y-81644331D01*
X124315189Y-81644340D01*
X124401889Y-81784904D01*
X124420329Y-81852296D01*
X124401889Y-81915096D01*
X124315189Y-82055659D01*
X124315185Y-82055668D01*
X124301330Y-82097481D01*
X124260001Y-82222203D01*
X124260001Y-82222204D01*
X124260000Y-82222204D01*
X124249500Y-82324983D01*
X124249500Y-83675001D01*
X124249501Y-83675018D01*
X124260000Y-83777796D01*
X124260001Y-83777799D01*
X124300495Y-83899999D01*
X124315186Y-83944334D01*
X124407288Y-84093656D01*
X124531344Y-84217712D01*
X124680666Y-84309814D01*
X124847203Y-84364999D01*
X124949991Y-84375500D01*
X125850008Y-84375499D01*
X125862896Y-84374182D01*
X125931588Y-84386950D01*
X125982474Y-84434829D01*
X125999500Y-84497540D01*
X125999500Y-84901579D01*
X125979815Y-84968618D01*
X125927011Y-85014373D01*
X125916464Y-85018616D01*
X125908388Y-85021442D01*
X125900474Y-85024212D01*
X125747736Y-85120185D01*
X125744903Y-85122445D01*
X125742724Y-85123334D01*
X125741842Y-85123889D01*
X125741744Y-85123734D01*
X125680217Y-85148855D01*
X125667588Y-85149500D01*
X122405068Y-85149500D01*
X122339096Y-85130494D01*
X122249522Y-85074210D01*
X122249518Y-85074209D01*
X122079262Y-85014633D01*
X122079249Y-85014630D01*
X121900004Y-84994435D01*
X121899996Y-84994435D01*
X121720750Y-85014630D01*
X121720745Y-85014631D01*
X121550476Y-85074211D01*
X121397737Y-85170184D01*
X121270184Y-85297737D01*
X121174211Y-85450476D01*
X121114631Y-85620745D01*
X121114630Y-85620750D01*
X121094435Y-85799996D01*
X121094435Y-85800000D01*
X121114630Y-85979249D01*
X121114631Y-85979254D01*
X121174211Y-86149523D01*
X121249684Y-86269637D01*
X121270184Y-86302262D01*
X121397738Y-86429816D01*
X121452724Y-86464366D01*
X121542070Y-86520506D01*
X121588361Y-86572841D01*
X121599009Y-86641895D01*
X121570634Y-86705743D01*
X121512244Y-86744115D01*
X121476098Y-86749500D01*
X120714376Y-86749500D01*
X120647337Y-86729815D01*
X120601582Y-86677011D01*
X120591018Y-86612897D01*
X120599999Y-86524986D01*
X120600000Y-86524970D01*
X120600000Y-86312500D01*
X119324000Y-86312500D01*
X119256961Y-86292815D01*
X119211206Y-86240011D01*
X119200000Y-86188500D01*
X119200000Y-86062500D01*
X119074000Y-86062500D01*
X119006961Y-86042815D01*
X118961206Y-85990011D01*
X118950000Y-85938500D01*
X118950000Y-85812500D01*
X119450000Y-85812500D01*
X120599999Y-85812500D01*
X120599999Y-85600028D01*
X120599998Y-85600013D01*
X120589505Y-85497302D01*
X120534358Y-85330880D01*
X120534356Y-85330875D01*
X120442315Y-85181654D01*
X120318345Y-85057684D01*
X120169124Y-84965643D01*
X120169119Y-84965641D01*
X120002697Y-84910494D01*
X120002690Y-84910493D01*
X119899986Y-84900000D01*
X119450000Y-84900000D01*
X119450000Y-85812500D01*
X118950000Y-85812500D01*
X118950000Y-84900000D01*
X118500028Y-84900000D01*
X118500012Y-84900001D01*
X118397302Y-84910494D01*
X118230880Y-84965641D01*
X118230875Y-84965643D01*
X118081653Y-85057684D01*
X118081653Y-85057685D01*
X118075530Y-85063808D01*
X118014206Y-85097290D01*
X117944514Y-85092303D01*
X117900172Y-85063804D01*
X117893657Y-85057289D01*
X117893656Y-85057288D01*
X117800888Y-85000069D01*
X117744336Y-84965187D01*
X117744331Y-84965185D01*
X117742862Y-84964698D01*
X117577797Y-84910001D01*
X117577795Y-84910000D01*
X117475010Y-84899500D01*
X116124998Y-84899500D01*
X116124981Y-84899501D01*
X116022203Y-84910000D01*
X116022200Y-84910001D01*
X115855668Y-84965185D01*
X115855663Y-84965187D01*
X115706342Y-85057289D01*
X115582289Y-85181342D01*
X115490187Y-85330663D01*
X115490185Y-85330668D01*
X115471579Y-85386818D01*
X115435001Y-85497203D01*
X115435001Y-85497204D01*
X115435000Y-85497204D01*
X115424500Y-85599983D01*
X115424500Y-86139216D01*
X115404815Y-86206255D01*
X115388181Y-86226897D01*
X114838472Y-86776605D01*
X114777149Y-86810090D01*
X114707457Y-86805106D01*
X114651524Y-86763234D01*
X114633085Y-86727928D01*
X114584358Y-86580880D01*
X114584356Y-86580875D01*
X114492315Y-86431654D01*
X114368345Y-86307684D01*
X114219124Y-86215643D01*
X114219119Y-86215641D01*
X114052697Y-86160494D01*
X114052690Y-86160493D01*
X113949986Y-86150000D01*
X113500000Y-86150000D01*
X113500000Y-87188500D01*
X113480315Y-87255539D01*
X113427511Y-87301294D01*
X113376000Y-87312500D01*
X113250000Y-87312500D01*
X113250000Y-87438500D01*
X113230315Y-87505539D01*
X113177511Y-87551294D01*
X113126000Y-87562500D01*
X111850001Y-87562500D01*
X111850001Y-87774986D01*
X111860494Y-87877697D01*
X111915641Y-88044119D01*
X111915643Y-88044124D01*
X112007684Y-88193345D01*
X112131654Y-88317315D01*
X112280875Y-88409356D01*
X112280880Y-88409358D01*
X112447302Y-88464505D01*
X112447309Y-88464506D01*
X112550019Y-88474999D01*
X112840716Y-88474999D01*
X112907755Y-88494683D01*
X112953510Y-88547487D01*
X112963454Y-88616646D01*
X112934429Y-88680201D01*
X112928397Y-88686680D01*
X111286899Y-90328181D01*
X111225576Y-90361666D01*
X111199218Y-90364500D01*
X111103713Y-90364500D01*
X111055042Y-90372208D01*
X110893760Y-90397753D01*
X110691585Y-90463444D01*
X110502179Y-90559951D01*
X110330215Y-90684889D01*
X110191035Y-90824069D01*
X110129712Y-90857553D01*
X110060020Y-90852569D01*
X110004087Y-90810697D01*
X109997815Y-90801484D01*
X109902315Y-90646654D01*
X109778345Y-90522684D01*
X109629124Y-90430643D01*
X109629119Y-90430641D01*
X109462697Y-90375494D01*
X109462690Y-90375493D01*
X109359986Y-90365000D01*
X108960000Y-90365000D01*
X108960000Y-91435854D01*
X108893343Y-91397370D01*
X108772535Y-91365000D01*
X108647465Y-91365000D01*
X108526657Y-91397370D01*
X108460000Y-91435854D01*
X108460000Y-90365000D01*
X108060028Y-90365000D01*
X108060012Y-90365001D01*
X107957302Y-90375494D01*
X107790880Y-90430641D01*
X107790875Y-90430643D01*
X107641654Y-90522684D01*
X107517684Y-90646654D01*
X107425643Y-90795875D01*
X107425641Y-90795880D01*
X107370494Y-90962302D01*
X107370493Y-90962309D01*
X107360000Y-91065013D01*
X107360000Y-91590000D01*
X108305854Y-91590000D01*
X108267370Y-91656657D01*
X108235000Y-91777465D01*
X108235000Y-91902535D01*
X108267370Y-92023343D01*
X108305854Y-92090000D01*
X107360001Y-92090000D01*
X107360001Y-92614986D01*
X107370494Y-92717697D01*
X107425641Y-92884119D01*
X107425643Y-92884124D01*
X107517684Y-93033345D01*
X107641654Y-93157315D01*
X107790875Y-93249356D01*
X107790880Y-93249358D01*
X107957302Y-93304505D01*
X107957309Y-93304506D01*
X108060019Y-93314999D01*
X108459999Y-93314999D01*
X108460000Y-93314998D01*
X108460000Y-92244145D01*
X108526657Y-92282630D01*
X108647465Y-92315000D01*
X108772535Y-92315000D01*
X108893343Y-92282630D01*
X108960000Y-92244145D01*
X108960000Y-93314999D01*
X109359972Y-93314999D01*
X109359986Y-93314998D01*
X109462697Y-93304505D01*
X109629119Y-93249358D01*
X109629124Y-93249356D01*
X109778345Y-93157315D01*
X109902317Y-93033343D01*
X109997815Y-92878516D01*
X110049763Y-92831791D01*
X110118725Y-92820568D01*
X110182808Y-92848412D01*
X110191035Y-92855931D01*
X110203181Y-92868077D01*
X110236666Y-92929400D01*
X110239500Y-92955758D01*
X110239500Y-97624242D01*
X110219815Y-97691281D01*
X110203182Y-97711921D01*
X110193160Y-97721944D01*
X110191032Y-97724072D01*
X110129707Y-97757554D01*
X110060016Y-97752567D01*
X110004084Y-97710693D01*
X109997815Y-97701484D01*
X109902315Y-97546654D01*
X109778345Y-97422684D01*
X109629124Y-97330643D01*
X109629119Y-97330641D01*
X109462697Y-97275494D01*
X109462690Y-97275493D01*
X109359986Y-97265000D01*
X108960000Y-97265000D01*
X108960000Y-98335854D01*
X108893343Y-98297370D01*
X108772535Y-98265000D01*
X108647465Y-98265000D01*
X108526657Y-98297370D01*
X108460000Y-98335854D01*
X108460000Y-97265000D01*
X108060028Y-97265000D01*
X108060012Y-97265001D01*
X107957302Y-97275494D01*
X107790880Y-97330641D01*
X107790875Y-97330643D01*
X107641654Y-97422684D01*
X107517684Y-97546654D01*
X107425643Y-97695875D01*
X107425641Y-97695880D01*
X107370494Y-97862302D01*
X107370493Y-97862309D01*
X107360000Y-97965013D01*
X107360000Y-98490000D01*
X108305854Y-98490000D01*
X108267370Y-98556657D01*
X108235000Y-98677465D01*
X108235000Y-98802535D01*
X108267370Y-98923343D01*
X108305854Y-98990000D01*
X107360001Y-98990000D01*
X107360001Y-99514986D01*
X107370494Y-99617697D01*
X107425641Y-99784119D01*
X107425643Y-99784124D01*
X107517684Y-99933345D01*
X107641654Y-100057315D01*
X107790875Y-100149356D01*
X107790880Y-100149358D01*
X107957302Y-100204505D01*
X107957309Y-100204506D01*
X108060019Y-100214999D01*
X108459999Y-100214999D01*
X108460000Y-100214998D01*
X108460000Y-99144145D01*
X108526657Y-99182630D01*
X108647465Y-99215000D01*
X108772535Y-99215000D01*
X108893343Y-99182630D01*
X108960000Y-99144145D01*
X108960000Y-100214999D01*
X109359972Y-100214999D01*
X109359986Y-100214998D01*
X109462697Y-100204505D01*
X109629119Y-100149358D01*
X109629124Y-100149356D01*
X109778345Y-100057315D01*
X109902317Y-99933343D01*
X109997815Y-99778516D01*
X110049763Y-99731791D01*
X110118725Y-99720568D01*
X110182808Y-99748412D01*
X110191035Y-99755931D01*
X110330213Y-99895109D01*
X110502179Y-100020048D01*
X110502181Y-100020049D01*
X110502184Y-100020051D01*
X110691588Y-100116557D01*
X110893757Y-100182246D01*
X111103713Y-100215500D01*
X111103714Y-100215500D01*
X111316286Y-100215500D01*
X111316287Y-100215500D01*
X111526243Y-100182246D01*
X111728412Y-100116557D01*
X111917816Y-100020051D01*
X111939789Y-100004086D01*
X112089786Y-99895109D01*
X112089788Y-99895106D01*
X112089792Y-99895104D01*
X112240104Y-99744792D01*
X112359683Y-99580204D01*
X112415011Y-99537540D01*
X112484624Y-99531561D01*
X112546420Y-99564166D01*
X112560313Y-99580199D01*
X112634206Y-99681904D01*
X112679896Y-99744792D01*
X112830213Y-99895109D01*
X113002179Y-100020048D01*
X113002181Y-100020049D01*
X113002184Y-100020051D01*
X113191588Y-100116557D01*
X113393757Y-100182246D01*
X113603713Y-100215500D01*
X113603714Y-100215500D01*
X113816286Y-100215500D01*
X113816287Y-100215500D01*
X114026243Y-100182246D01*
X114228412Y-100116557D01*
X114417816Y-100020051D01*
X114439789Y-100004086D01*
X114589786Y-99895109D01*
X114589788Y-99895106D01*
X114589792Y-99895104D01*
X114740104Y-99744792D01*
X114859683Y-99580204D01*
X114915011Y-99537540D01*
X114984624Y-99531561D01*
X115046420Y-99564166D01*
X115060313Y-99580199D01*
X115134206Y-99681904D01*
X115179896Y-99744792D01*
X115330213Y-99895109D01*
X115502179Y-100020048D01*
X115502181Y-100020049D01*
X115502184Y-100020051D01*
X115691588Y-100116557D01*
X115893757Y-100182246D01*
X116103713Y-100215500D01*
X116103714Y-100215500D01*
X116316286Y-100215500D01*
X116316287Y-100215500D01*
X116526243Y-100182246D01*
X116728412Y-100116557D01*
X116917816Y-100020051D01*
X116939789Y-100004086D01*
X117089786Y-99895109D01*
X117089788Y-99895106D01*
X117089792Y-99895104D01*
X117240104Y-99744792D01*
X117359683Y-99580204D01*
X117415011Y-99537540D01*
X117484624Y-99531561D01*
X117546420Y-99564166D01*
X117560313Y-99580199D01*
X117634206Y-99681904D01*
X117679896Y-99744792D01*
X117830213Y-99895109D01*
X118002179Y-100020048D01*
X118002181Y-100020049D01*
X118002184Y-100020051D01*
X118191588Y-100116557D01*
X118393757Y-100182246D01*
X118603713Y-100215500D01*
X118603714Y-100215500D01*
X118816286Y-100215500D01*
X118816287Y-100215500D01*
X119026243Y-100182246D01*
X119228412Y-100116557D01*
X119417816Y-100020051D01*
X119439789Y-100004086D01*
X119589786Y-99895109D01*
X119589788Y-99895106D01*
X119589792Y-99895104D01*
X119740104Y-99744792D01*
X119859683Y-99580204D01*
X119915011Y-99537540D01*
X119984624Y-99531561D01*
X120046420Y-99564166D01*
X120060313Y-99580199D01*
X120134206Y-99681904D01*
X120179896Y-99744792D01*
X120330213Y-99895109D01*
X120502179Y-100020048D01*
X120502181Y-100020049D01*
X120502184Y-100020051D01*
X120691588Y-100116557D01*
X120893757Y-100182246D01*
X121103713Y-100215500D01*
X121103714Y-100215500D01*
X121316286Y-100215500D01*
X121316287Y-100215500D01*
X121526243Y-100182246D01*
X121728412Y-100116557D01*
X121917816Y-100020051D01*
X121939789Y-100004086D01*
X122089786Y-99895109D01*
X122089788Y-99895106D01*
X122089792Y-99895104D01*
X122240104Y-99744792D01*
X122359683Y-99580204D01*
X122415011Y-99537540D01*
X122484624Y-99531561D01*
X122546420Y-99564166D01*
X122560313Y-99580199D01*
X122634206Y-99681904D01*
X122679896Y-99744792D01*
X122830213Y-99895109D01*
X123002179Y-100020048D01*
X123002181Y-100020049D01*
X123002184Y-100020051D01*
X123191588Y-100116557D01*
X123393757Y-100182246D01*
X123603713Y-100215500D01*
X123603714Y-100215500D01*
X123816286Y-100215500D01*
X123816287Y-100215500D01*
X124026243Y-100182246D01*
X124228412Y-100116557D01*
X124417816Y-100020051D01*
X124439789Y-100004086D01*
X124589786Y-99895109D01*
X124589788Y-99895106D01*
X124589792Y-99895104D01*
X124740104Y-99744792D01*
X124859683Y-99580204D01*
X124915011Y-99537540D01*
X124984624Y-99531561D01*
X125046420Y-99564166D01*
X125060313Y-99580199D01*
X125134206Y-99681904D01*
X125179896Y-99744792D01*
X125330213Y-99895109D01*
X125502179Y-100020048D01*
X125502181Y-100020049D01*
X125502184Y-100020051D01*
X125691588Y-100116557D01*
X125893757Y-100182246D01*
X126103713Y-100215500D01*
X126103714Y-100215500D01*
X126316286Y-100215500D01*
X126316287Y-100215500D01*
X126526243Y-100182246D01*
X126728412Y-100116557D01*
X126917816Y-100020051D01*
X126939789Y-100004086D01*
X127089786Y-99895109D01*
X127089788Y-99895106D01*
X127089792Y-99895104D01*
X127240104Y-99744792D01*
X127359683Y-99580204D01*
X127415011Y-99537540D01*
X127484624Y-99531561D01*
X127546420Y-99564166D01*
X127560313Y-99580199D01*
X127634206Y-99681904D01*
X127679896Y-99744792D01*
X127830213Y-99895109D01*
X128002179Y-100020048D01*
X128002181Y-100020049D01*
X128002184Y-100020051D01*
X128191588Y-100116557D01*
X128393757Y-100182246D01*
X128603713Y-100215500D01*
X128603714Y-100215500D01*
X128816286Y-100215500D01*
X128816287Y-100215500D01*
X129026243Y-100182246D01*
X129228412Y-100116557D01*
X129417816Y-100020051D01*
X129439789Y-100004086D01*
X129589786Y-99895109D01*
X129589788Y-99895106D01*
X129589792Y-99895104D01*
X129740104Y-99744792D01*
X129740106Y-99744788D01*
X129740109Y-99744786D01*
X129865048Y-99572820D01*
X129865047Y-99572820D01*
X129865051Y-99572816D01*
X129961557Y-99383412D01*
X130027246Y-99181243D01*
X130060500Y-98971287D01*
X130060500Y-98824501D01*
X130080185Y-98757462D01*
X130132989Y-98711707D01*
X130184500Y-98700501D01*
X130236654Y-98700501D01*
X130236670Y-98700500D01*
X130648432Y-98700500D01*
X130715471Y-98720185D01*
X130736112Y-98736818D01*
X131099208Y-99099915D01*
X131132693Y-99161237D01*
X131127709Y-99230929D01*
X131116521Y-99253567D01*
X131024211Y-99400476D01*
X130964631Y-99570745D01*
X130964630Y-99570750D01*
X130944435Y-99749996D01*
X130944435Y-99750003D01*
X130964630Y-99929249D01*
X130964631Y-99929254D01*
X131024211Y-100099523D01*
X131074186Y-100179057D01*
X131120184Y-100252262D01*
X131247738Y-100379816D01*
X131400478Y-100475789D01*
X131570745Y-100535368D01*
X131657669Y-100545161D01*
X131722080Y-100572226D01*
X131731464Y-100580699D01*
X133431284Y-102280520D01*
X133568215Y-102359577D01*
X133720943Y-102400501D01*
X133720946Y-102400501D01*
X133886654Y-102400501D01*
X133886670Y-102400500D01*
X157713331Y-102400500D01*
X157713347Y-102400501D01*
X157720943Y-102400501D01*
X157879054Y-102400501D01*
X157879057Y-102400501D01*
X158031785Y-102359577D01*
X158081904Y-102330639D01*
X158168716Y-102280520D01*
X158280520Y-102168716D01*
X158280520Y-102168714D01*
X158290728Y-102158507D01*
X158290730Y-102158504D01*
X159858506Y-100590728D01*
X159858511Y-100590724D01*
X159868714Y-100580520D01*
X159868716Y-100580520D01*
X159980520Y-100468716D01*
X160041730Y-100362696D01*
X160059577Y-100331785D01*
X160100500Y-100179057D01*
X160100500Y-100020943D01*
X160100500Y-81089059D01*
X160100501Y-81089046D01*
X160100501Y-80920945D01*
X160100501Y-80920943D01*
X160059577Y-80768215D01*
X160011261Y-80684530D01*
X159980520Y-80631284D01*
X159868716Y-80519480D01*
X159868715Y-80519479D01*
X159864385Y-80515149D01*
X159864374Y-80515139D01*
X152080700Y-72731465D01*
X152047215Y-72670142D01*
X152045163Y-72657686D01*
X152035368Y-72570745D01*
X151975789Y-72400478D01*
X151879816Y-72247738D01*
X151752262Y-72120184D01*
X151708232Y-72092518D01*
X151599523Y-72024211D01*
X151429254Y-71964631D01*
X151429249Y-71964630D01*
X151250004Y-71944435D01*
X151249996Y-71944435D01*
X151070750Y-71964630D01*
X151070742Y-71964632D01*
X150962959Y-72002347D01*
X150893180Y-72005908D01*
X150832553Y-71971179D01*
X150802230Y-71917399D01*
X150800501Y-71910946D01*
X150800501Y-71910943D01*
X150759577Y-71758215D01*
X150744819Y-71732654D01*
X150724660Y-71697737D01*
X150724660Y-71697736D01*
X150680524Y-71621290D01*
X150680521Y-71621286D01*
X150680520Y-71621284D01*
X150568716Y-71509480D01*
X150568715Y-71509479D01*
X150564385Y-71505149D01*
X150564374Y-71505139D01*
X146536818Y-67477583D01*
X146503333Y-67416260D01*
X146500499Y-67389902D01*
X146500499Y-67072129D01*
X146500498Y-67072123D01*
X146500497Y-67072116D01*
X146494091Y-67012517D01*
X146481073Y-66977616D01*
X146476090Y-66907926D01*
X146481075Y-66890949D01*
X146493597Y-66857375D01*
X146493598Y-66857372D01*
X146499999Y-66797844D01*
X146500000Y-66797827D01*
X146500000Y-66550000D01*
X144000000Y-66550000D01*
X144000000Y-66797844D01*
X144006401Y-66857372D01*
X144006403Y-66857379D01*
X144018925Y-66890952D01*
X144023909Y-66960643D01*
X144018925Y-66977617D01*
X144005909Y-67012514D01*
X144005908Y-67012516D01*
X144003423Y-67035635D01*
X143999501Y-67072123D01*
X143999500Y-67072135D01*
X143999500Y-68067870D01*
X143999501Y-68067876D01*
X144005908Y-68127481D01*
X144018659Y-68161669D01*
X144023642Y-68231361D01*
X144018659Y-68248331D01*
X144005908Y-68282518D01*
X144000733Y-68330657D01*
X143999501Y-68342123D01*
X143999500Y-68342135D01*
X143999500Y-69337870D01*
X143999501Y-69337876D01*
X144005908Y-69397481D01*
X144018659Y-69431669D01*
X144023642Y-69501361D01*
X144018659Y-69518331D01*
X144005908Y-69552518D01*
X143999774Y-69609576D01*
X143999501Y-69612123D01*
X143999500Y-69612135D01*
X143999500Y-70607870D01*
X143999501Y-70607876D01*
X144005908Y-70667481D01*
X144018659Y-70701669D01*
X144023642Y-70771361D01*
X144018659Y-70788331D01*
X144005908Y-70822518D01*
X144004024Y-70840046D01*
X143999501Y-70882123D01*
X143999500Y-70882135D01*
X143999500Y-71877870D01*
X143999501Y-71877876D01*
X144005908Y-71937481D01*
X144018659Y-71971669D01*
X144023642Y-72041361D01*
X144018659Y-72058331D01*
X144005908Y-72092518D01*
X144005231Y-72098819D01*
X143999501Y-72152123D01*
X143999500Y-72152135D01*
X143999500Y-73147870D01*
X143999501Y-73147876D01*
X144005908Y-73207481D01*
X144018659Y-73241669D01*
X144023642Y-73311361D01*
X144018659Y-73328331D01*
X144005908Y-73362518D01*
X143999501Y-73422116D01*
X143999501Y-73422123D01*
X143999500Y-73422135D01*
X143999500Y-74417870D01*
X143999501Y-74417876D01*
X144005908Y-74477481D01*
X144018659Y-74511669D01*
X144023642Y-74581361D01*
X144018659Y-74598331D01*
X144005908Y-74632518D01*
X143999501Y-74692116D01*
X143999501Y-74692123D01*
X143999500Y-74692135D01*
X143999500Y-75687870D01*
X143999501Y-75687876D01*
X144005908Y-75747481D01*
X144018659Y-75781669D01*
X144023642Y-75851361D01*
X144018659Y-75868331D01*
X144005908Y-75902518D01*
X144000510Y-75952732D01*
X143999501Y-75962123D01*
X143999500Y-75962135D01*
X143999500Y-76957870D01*
X143999501Y-76957876D01*
X144005908Y-77017481D01*
X144018659Y-77051669D01*
X144023642Y-77121361D01*
X144018659Y-77138331D01*
X144005908Y-77172518D01*
X143999501Y-77232116D01*
X143999500Y-77232135D01*
X143999500Y-78227870D01*
X143999501Y-78227876D01*
X144005908Y-78287481D01*
X144018659Y-78321669D01*
X144023642Y-78391361D01*
X144018659Y-78408331D01*
X144005908Y-78442518D01*
X143999972Y-78497737D01*
X143999501Y-78502123D01*
X143999500Y-78502135D01*
X143999500Y-79497870D01*
X143999501Y-79497876D01*
X144005908Y-79557481D01*
X144018659Y-79591669D01*
X144023642Y-79661361D01*
X144018659Y-79678331D01*
X144005908Y-79712518D01*
X144001095Y-79757288D01*
X143999501Y-79772123D01*
X143999500Y-79772135D01*
X143999500Y-80767870D01*
X143999501Y-80767876D01*
X144005908Y-80827481D01*
X144018659Y-80861669D01*
X144023642Y-80931361D01*
X144018659Y-80948331D01*
X144005908Y-80982518D01*
X144000069Y-81036832D01*
X143999501Y-81042123D01*
X143999500Y-81042135D01*
X143999500Y-82037870D01*
X143999501Y-82037876D01*
X144005908Y-82097481D01*
X144018659Y-82131669D01*
X144023642Y-82201361D01*
X144018659Y-82218331D01*
X144005908Y-82252518D01*
X143999501Y-82312116D01*
X143999501Y-82312123D01*
X143999500Y-82312135D01*
X143999500Y-82685500D01*
X143979815Y-82752539D01*
X143927011Y-82798294D01*
X143875500Y-82809500D01*
X142987129Y-82809500D01*
X142987123Y-82809501D01*
X142927518Y-82815908D01*
X142893331Y-82828659D01*
X142823639Y-82833642D01*
X142806669Y-82828659D01*
X142772480Y-82815908D01*
X142772482Y-82815908D01*
X142712883Y-82809501D01*
X142712881Y-82809500D01*
X142712873Y-82809500D01*
X142712864Y-82809500D01*
X141717129Y-82809500D01*
X141717123Y-82809501D01*
X141657518Y-82815908D01*
X141623331Y-82828659D01*
X141553639Y-82833642D01*
X141536669Y-82828659D01*
X141502480Y-82815908D01*
X141502482Y-82815908D01*
X141442883Y-82809501D01*
X141442881Y-82809500D01*
X141442873Y-82809500D01*
X141442864Y-82809500D01*
X140447129Y-82809500D01*
X140447123Y-82809501D01*
X140387518Y-82815908D01*
X140353331Y-82828659D01*
X140283639Y-82833642D01*
X140266669Y-82828659D01*
X140232480Y-82815908D01*
X140232482Y-82815908D01*
X140172883Y-82809501D01*
X140172881Y-82809500D01*
X140172873Y-82809500D01*
X140172864Y-82809500D01*
X139177129Y-82809500D01*
X139177123Y-82809501D01*
X139117518Y-82815908D01*
X139083331Y-82828659D01*
X139013639Y-82833642D01*
X138996669Y-82828659D01*
X138962480Y-82815908D01*
X138962482Y-82815908D01*
X138902883Y-82809501D01*
X138902881Y-82809500D01*
X138902873Y-82809500D01*
X138902864Y-82809500D01*
X137907129Y-82809500D01*
X137907123Y-82809501D01*
X137847518Y-82815908D01*
X137813331Y-82828659D01*
X137743639Y-82833642D01*
X137726666Y-82828658D01*
X137691072Y-82815382D01*
X137635139Y-82773510D01*
X137627019Y-82761200D01*
X137615522Y-82741287D01*
X137615521Y-82741286D01*
X137615520Y-82741284D01*
X137503716Y-82629480D01*
X137503715Y-82629479D01*
X137499385Y-82625149D01*
X137499374Y-82625139D01*
X136812590Y-81938355D01*
X136812588Y-81938352D01*
X136693717Y-81819481D01*
X136693709Y-81819475D01*
X136583660Y-81755939D01*
X136583659Y-81755938D01*
X136564769Y-81745032D01*
X136556785Y-81740423D01*
X136404057Y-81699499D01*
X136245943Y-81699499D01*
X136238347Y-81699499D01*
X136238331Y-81699500D01*
X130882412Y-81699500D01*
X130815373Y-81679815D01*
X130805097Y-81672445D01*
X130802263Y-81670185D01*
X130802262Y-81670184D01*
X130738015Y-81629815D01*
X130649523Y-81574211D01*
X130479254Y-81514631D01*
X130479249Y-81514630D01*
X130300004Y-81494435D01*
X130299996Y-81494435D01*
X130120750Y-81514630D01*
X130120745Y-81514631D01*
X129950476Y-81574211D01*
X129797737Y-81670184D01*
X129670184Y-81797737D01*
X129574211Y-81950476D01*
X129514631Y-82120745D01*
X129514630Y-82120750D01*
X129494435Y-82299996D01*
X129494435Y-82300003D01*
X129514630Y-82479249D01*
X129514632Y-82479257D01*
X129572469Y-82644546D01*
X129576030Y-82714325D01*
X129541301Y-82774952D01*
X129479308Y-82807179D01*
X129455427Y-82809500D01*
X129124499Y-82809500D01*
X129057460Y-82789815D01*
X129011705Y-82737011D01*
X129000499Y-82685500D01*
X129000499Y-82312129D01*
X129000498Y-82312123D01*
X129000497Y-82312116D01*
X128994091Y-82252517D01*
X128981340Y-82218332D01*
X128976357Y-82148642D01*
X128981340Y-82131669D01*
X128994091Y-82097483D01*
X129000500Y-82037873D01*
X129000499Y-81042128D01*
X128994091Y-80982517D01*
X128981340Y-80948332D01*
X128976357Y-80878642D01*
X128981340Y-80861669D01*
X128994091Y-80827483D01*
X129000500Y-80767873D01*
X129000499Y-79772128D01*
X128994091Y-79712517D01*
X128981340Y-79678332D01*
X128976357Y-79608642D01*
X128981340Y-79591669D01*
X128994091Y-79557483D01*
X129000500Y-79497873D01*
X129000499Y-78502128D01*
X128996804Y-78467753D01*
X129009211Y-78398994D01*
X129056822Y-78347857D01*
X129120094Y-78330500D01*
X137629903Y-78330500D01*
X137696942Y-78350185D01*
X137717584Y-78366819D01*
X140769298Y-81418534D01*
X140802783Y-81479857D01*
X140804837Y-81492331D01*
X140814630Y-81579249D01*
X140874210Y-81749521D01*
X140946888Y-81865187D01*
X140970184Y-81902262D01*
X141097738Y-82029816D01*
X141139954Y-82056342D01*
X141242450Y-82120745D01*
X141250478Y-82125789D01*
X141391115Y-82175000D01*
X141420745Y-82185368D01*
X141420750Y-82185369D01*
X141599996Y-82205565D01*
X141600000Y-82205565D01*
X141600004Y-82205565D01*
X141779249Y-82185369D01*
X141779252Y-82185368D01*
X141779255Y-82185368D01*
X141949522Y-82125789D01*
X142102262Y-82029816D01*
X142229816Y-81902262D01*
X142325789Y-81749522D01*
X142385368Y-81579255D01*
X142385621Y-81577011D01*
X142405565Y-81400003D01*
X142405565Y-81399996D01*
X142385369Y-81220750D01*
X142385368Y-81220745D01*
X142367117Y-81168588D01*
X142325789Y-81050478D01*
X142322447Y-81045160D01*
X142272051Y-80964954D01*
X142229816Y-80897738D01*
X142102262Y-80770184D01*
X142040353Y-80731284D01*
X141949521Y-80674210D01*
X141779249Y-80614630D01*
X141692331Y-80604837D01*
X141627917Y-80577770D01*
X141618534Y-80569298D01*
X138417590Y-77368355D01*
X138417588Y-77368352D01*
X138298717Y-77249481D01*
X138298709Y-77249475D01*
X138196936Y-77190717D01*
X138196934Y-77190716D01*
X138161790Y-77170425D01*
X138161789Y-77170424D01*
X138149263Y-77167067D01*
X138009057Y-77129499D01*
X137850943Y-77129499D01*
X137843347Y-77129499D01*
X137843331Y-77129500D01*
X129120094Y-77129500D01*
X129053055Y-77109815D01*
X129007300Y-77057011D01*
X128996804Y-76992246D01*
X129000500Y-76957873D01*
X129000499Y-75962128D01*
X128994091Y-75902517D01*
X128981340Y-75868332D01*
X128976357Y-75798642D01*
X128981340Y-75781669D01*
X128994091Y-75747483D01*
X129000500Y-75687873D01*
X129000499Y-74692128D01*
X128994091Y-74632517D01*
X128981340Y-74598332D01*
X128976357Y-74528642D01*
X128981340Y-74511669D01*
X128994091Y-74477483D01*
X129000500Y-74417873D01*
X129000499Y-73422128D01*
X128994091Y-73362517D01*
X128981340Y-73328332D01*
X128976357Y-73258642D01*
X128981340Y-73241669D01*
X128994091Y-73207483D01*
X129000500Y-73147873D01*
X129000499Y-72152128D01*
X128994091Y-72092517D01*
X128981340Y-72058332D01*
X128976357Y-71988642D01*
X128981340Y-71971669D01*
X128994091Y-71937483D01*
X129000500Y-71877873D01*
X129000499Y-70882128D01*
X128994091Y-70822517D01*
X128981340Y-70788332D01*
X128976357Y-70718642D01*
X128981340Y-70701669D01*
X128994091Y-70667483D01*
X129000500Y-70607873D01*
X129000499Y-69612128D01*
X128994091Y-69552517D01*
X128981340Y-69518332D01*
X128976357Y-69448642D01*
X128981340Y-69431669D01*
X128994091Y-69397483D01*
X129000500Y-69337873D01*
X129000499Y-68342128D01*
X128994091Y-68282517D01*
X128981340Y-68248332D01*
X128976357Y-68178642D01*
X128981340Y-68161669D01*
X128994091Y-68127483D01*
X129000500Y-68067873D01*
X129000499Y-67072128D01*
X128994091Y-67012517D01*
X128981073Y-66977616D01*
X128976090Y-66907926D01*
X128981075Y-66890949D01*
X128993597Y-66857375D01*
X128993598Y-66857372D01*
X128999999Y-66797844D01*
X129000000Y-66797827D01*
X129000000Y-66550000D01*
X126500000Y-66550000D01*
X126500000Y-66563000D01*
X126480315Y-66630039D01*
X126427511Y-66675794D01*
X126376000Y-66687000D01*
X125667175Y-66687000D01*
X125667155Y-66686999D01*
X125661041Y-66686999D01*
X125463960Y-66686999D01*
X125463957Y-66686999D01*
X125270672Y-66725446D01*
X125270664Y-66725448D01*
X125088588Y-66800866D01*
X125088574Y-66800874D01*
X124949722Y-66893652D01*
X124883045Y-66914530D01*
X124815665Y-66896045D01*
X124793151Y-66878231D01*
X123717075Y-65802155D01*
X126500000Y-65802155D01*
X126500000Y-66050000D01*
X127500000Y-66050000D01*
X128000000Y-66050000D01*
X129000000Y-66050000D01*
X129000000Y-65802172D01*
X128999999Y-65802155D01*
X144000000Y-65802155D01*
X144000000Y-66050000D01*
X145000000Y-66050000D01*
X145500000Y-66050000D01*
X146500000Y-66050000D01*
X146500000Y-65802172D01*
X146499999Y-65802155D01*
X146493598Y-65742627D01*
X146493596Y-65742620D01*
X146443354Y-65607913D01*
X146443350Y-65607906D01*
X146357190Y-65492812D01*
X146357187Y-65492809D01*
X146242093Y-65406649D01*
X146242086Y-65406645D01*
X146107379Y-65356403D01*
X146107372Y-65356401D01*
X146047844Y-65350000D01*
X145500000Y-65350000D01*
X145500000Y-66050000D01*
X145000000Y-66050000D01*
X145000000Y-65350000D01*
X144452155Y-65350000D01*
X144392627Y-65356401D01*
X144392620Y-65356403D01*
X144257913Y-65406645D01*
X144257906Y-65406649D01*
X144142812Y-65492809D01*
X144142809Y-65492812D01*
X144056649Y-65607906D01*
X144056645Y-65607913D01*
X144006403Y-65742620D01*
X144006401Y-65742627D01*
X144000000Y-65802155D01*
X128999999Y-65802155D01*
X128993598Y-65742627D01*
X128993596Y-65742620D01*
X128943354Y-65607913D01*
X128943350Y-65607906D01*
X128857190Y-65492812D01*
X128857187Y-65492809D01*
X128742093Y-65406649D01*
X128742086Y-65406645D01*
X128607379Y-65356403D01*
X128607372Y-65356401D01*
X128547844Y-65350000D01*
X128000000Y-65350000D01*
X128000000Y-66050000D01*
X127500000Y-66050000D01*
X127500000Y-65350000D01*
X126952155Y-65350000D01*
X126892627Y-65356401D01*
X126892620Y-65356403D01*
X126757913Y-65406645D01*
X126757906Y-65406649D01*
X126642812Y-65492809D01*
X126642809Y-65492812D01*
X126556649Y-65607906D01*
X126556645Y-65607913D01*
X126506403Y-65742620D01*
X126506401Y-65742627D01*
X126500000Y-65802155D01*
X123717075Y-65802155D01*
X123231479Y-65316559D01*
X123231459Y-65316537D01*
X123087784Y-65172862D01*
X123050114Y-65147692D01*
X123002019Y-65115556D01*
X122973494Y-65085972D01*
X122972188Y-65087005D01*
X122967710Y-65081341D01*
X122908050Y-65021681D01*
X122874565Y-64960358D01*
X122879549Y-64890666D01*
X122921421Y-64834733D01*
X122986885Y-64810316D01*
X122995731Y-64810000D01*
X160500000Y-64810000D01*
X160500000Y-54480794D01*
X160519685Y-54413755D01*
X160572489Y-54368000D01*
X160641647Y-54358056D01*
X160705203Y-54387081D01*
X160739193Y-54434897D01*
X160800142Y-54587870D01*
X160800151Y-54587888D01*
X160967784Y-54904077D01*
X160967787Y-54904082D01*
X160967789Y-54904085D01*
X161124314Y-55134943D01*
X161168634Y-55200309D01*
X161168641Y-55200319D01*
X161400331Y-55473085D01*
X161400332Y-55473086D01*
X161660163Y-55719211D01*
X161945081Y-55935800D01*
X162251747Y-56120315D01*
X162251749Y-56120316D01*
X162251751Y-56120317D01*
X162251755Y-56120319D01*
X162576552Y-56270585D01*
X162576565Y-56270591D01*
X162915726Y-56384868D01*
X163265254Y-56461805D01*
X163621052Y-56500500D01*
X163621058Y-56500500D01*
X163978942Y-56500500D01*
X163978948Y-56500500D01*
X164334746Y-56461805D01*
X164684274Y-56384868D01*
X165023435Y-56270591D01*
X165348253Y-56120315D01*
X165654919Y-55935800D01*
X165939837Y-55719211D01*
X166199668Y-55473086D01*
X166431365Y-55200311D01*
X166522867Y-55065356D01*
X166576781Y-55020915D01*
X166646163Y-55012677D01*
X166708985Y-55043258D01*
X166745301Y-55102948D01*
X166749500Y-55134943D01*
X166749500Y-99312546D01*
X166729815Y-99379585D01*
X166677011Y-99425340D01*
X166607853Y-99435284D01*
X166544297Y-99406259D01*
X166522867Y-99382133D01*
X166420348Y-99230929D01*
X166331365Y-99099689D01*
X166331361Y-99099684D01*
X166331358Y-99099680D01*
X166099668Y-98826914D01*
X166004556Y-98736819D01*
X165839837Y-98580789D01*
X165839830Y-98580783D01*
X165839827Y-98580781D01*
X165772245Y-98529407D01*
X165554919Y-98364200D01*
X165248253Y-98179685D01*
X165248252Y-98179684D01*
X165248248Y-98179682D01*
X165248244Y-98179680D01*
X164923447Y-98029414D01*
X164923441Y-98029411D01*
X164923435Y-98029409D01*
X164732315Y-97965013D01*
X164584273Y-97915131D01*
X164234744Y-97838194D01*
X163878949Y-97799500D01*
X163878948Y-97799500D01*
X163521052Y-97799500D01*
X163521050Y-97799500D01*
X163165255Y-97838194D01*
X162815726Y-97915131D01*
X162559970Y-98001306D01*
X162476565Y-98029409D01*
X162476563Y-98029410D01*
X162476552Y-98029414D01*
X162151755Y-98179680D01*
X162151751Y-98179682D01*
X161956153Y-98297370D01*
X161845081Y-98364200D01*
X161756768Y-98431333D01*
X161560172Y-98580781D01*
X161560163Y-98580789D01*
X161300331Y-98826914D01*
X161068641Y-99099680D01*
X161068634Y-99099690D01*
X160867790Y-99395913D01*
X160867784Y-99395922D01*
X160700151Y-99712111D01*
X160700142Y-99712129D01*
X160567674Y-100044600D01*
X160567672Y-100044607D01*
X160471932Y-100389434D01*
X160471926Y-100389460D01*
X160414029Y-100742614D01*
X160414028Y-100742631D01*
X160394652Y-101099997D01*
X160394652Y-101100002D01*
X160414028Y-101457368D01*
X160414029Y-101457385D01*
X160471926Y-101810539D01*
X160471932Y-101810565D01*
X160567672Y-102155392D01*
X160567674Y-102155399D01*
X160700142Y-102487870D01*
X160700151Y-102487888D01*
X160867784Y-102804077D01*
X160867787Y-102804082D01*
X160867789Y-102804085D01*
X161024314Y-103034943D01*
X161068634Y-103100309D01*
X161068641Y-103100319D01*
X161300331Y-103373085D01*
X161300332Y-103373086D01*
X161560163Y-103619211D01*
X161845081Y-103835800D01*
X161983776Y-103919250D01*
X162031071Y-103970679D01*
X162043053Y-104039514D01*
X162015918Y-104103899D01*
X161958281Y-104143393D01*
X161919847Y-104149500D01*
X102480153Y-104149500D01*
X102413114Y-104129815D01*
X102367359Y-104077011D01*
X102357415Y-104007853D01*
X102386440Y-103944297D01*
X102416224Y-103919250D01*
X102554919Y-103835800D01*
X102839837Y-103619211D01*
X103099668Y-103373086D01*
X103331365Y-103100311D01*
X103532211Y-102804085D01*
X103699853Y-102487880D01*
X103832324Y-102155403D01*
X103928071Y-101810552D01*
X103985972Y-101457371D01*
X104005348Y-101100000D01*
X103985972Y-100742629D01*
X103961068Y-100590724D01*
X103928073Y-100389460D01*
X103928072Y-100389459D01*
X103928071Y-100389448D01*
X103870542Y-100182246D01*
X103832327Y-100044607D01*
X103832325Y-100044600D01*
X103699857Y-99712129D01*
X103699848Y-99712111D01*
X103667589Y-99651265D01*
X103595339Y-99514986D01*
X103532215Y-99395922D01*
X103532213Y-99395919D01*
X103532211Y-99395915D01*
X103331365Y-99099689D01*
X103331361Y-99099684D01*
X103331358Y-99099680D01*
X103099668Y-98826914D01*
X103004556Y-98736819D01*
X102839837Y-98580789D01*
X102839830Y-98580783D01*
X102839827Y-98580781D01*
X102772245Y-98529407D01*
X102554919Y-98364200D01*
X102248253Y-98179685D01*
X102248252Y-98179684D01*
X102248248Y-98179682D01*
X102248244Y-98179680D01*
X101923447Y-98029414D01*
X101923441Y-98029411D01*
X101923435Y-98029409D01*
X101732315Y-97965013D01*
X101584273Y-97915131D01*
X101234744Y-97838194D01*
X100878949Y-97799500D01*
X100878948Y-97799500D01*
X100521052Y-97799500D01*
X100521050Y-97799500D01*
X100165255Y-97838194D01*
X99815726Y-97915131D01*
X99559970Y-98001306D01*
X99476565Y-98029409D01*
X99476563Y-98029410D01*
X99476552Y-98029414D01*
X99151755Y-98179680D01*
X99151751Y-98179682D01*
X98956153Y-98297370D01*
X98845081Y-98364200D01*
X98756768Y-98431333D01*
X98560172Y-98580781D01*
X98560163Y-98580789D01*
X98300331Y-98826914D01*
X98068641Y-99099680D01*
X98068633Y-99099690D01*
X97977133Y-99234644D01*
X97923219Y-99279085D01*
X97853837Y-99287323D01*
X97791015Y-99256742D01*
X97754699Y-99197052D01*
X97750500Y-99165057D01*
X97750500Y-87749986D01*
X106925001Y-87749986D01*
X106935494Y-87852697D01*
X106990641Y-88019119D01*
X106990643Y-88019124D01*
X107082684Y-88168345D01*
X107206654Y-88292315D01*
X107355875Y-88384356D01*
X107355880Y-88384358D01*
X107522302Y-88439505D01*
X107522309Y-88439506D01*
X107625019Y-88449999D01*
X108049999Y-88449999D01*
X108550000Y-88449999D01*
X108974972Y-88449999D01*
X108974986Y-88449998D01*
X109077697Y-88439505D01*
X109244119Y-88384358D01*
X109244124Y-88384356D01*
X109393345Y-88292315D01*
X109517315Y-88168345D01*
X109609356Y-88019124D01*
X109609358Y-88019119D01*
X109664505Y-87852697D01*
X109664506Y-87852690D01*
X109674999Y-87749986D01*
X109675000Y-87749973D01*
X109675000Y-87550000D01*
X108550000Y-87550000D01*
X108550000Y-88449999D01*
X108049999Y-88449999D01*
X108050000Y-88449998D01*
X108050000Y-87550000D01*
X106925001Y-87550000D01*
X106925001Y-87749986D01*
X97750500Y-87749986D01*
X97750500Y-86420000D01*
X98765138Y-86420000D01*
X99568012Y-86420000D01*
X99550795Y-86429940D01*
X99494940Y-86485795D01*
X99455444Y-86554204D01*
X99435000Y-86630504D01*
X99435000Y-86709496D01*
X99455444Y-86785796D01*
X99494940Y-86854205D01*
X99550795Y-86910060D01*
X99568012Y-86920000D01*
X98765138Y-86920000D01*
X98773430Y-86961690D01*
X98773430Y-86961692D01*
X98848807Y-87143671D01*
X98848814Y-87143684D01*
X98958248Y-87307462D01*
X98958251Y-87307466D01*
X99097533Y-87446748D01*
X99097537Y-87446751D01*
X99261315Y-87556185D01*
X99261328Y-87556192D01*
X99443306Y-87631569D01*
X99443318Y-87631572D01*
X99636504Y-87669999D01*
X99636508Y-87670000D01*
X99885000Y-87670000D01*
X99885000Y-86970000D01*
X100385000Y-86970000D01*
X100385000Y-87670000D01*
X100633492Y-87670000D01*
X100633495Y-87669999D01*
X100826681Y-87631572D01*
X100826693Y-87631569D01*
X101008671Y-87556192D01*
X101008684Y-87556185D01*
X101172462Y-87446751D01*
X101172466Y-87446748D01*
X101311748Y-87307466D01*
X101311751Y-87307462D01*
X101421185Y-87143684D01*
X101421192Y-87143671D01*
X101496569Y-86961692D01*
X101496569Y-86961690D01*
X101504862Y-86920000D01*
X100701988Y-86920000D01*
X100719205Y-86910060D01*
X100775060Y-86854205D01*
X100814556Y-86785796D01*
X100835000Y-86709496D01*
X100835000Y-86630504D01*
X100814556Y-86554204D01*
X100775060Y-86485795D01*
X100719205Y-86429940D01*
X100701988Y-86420000D01*
X101504862Y-86420000D01*
X101496569Y-86378309D01*
X101496569Y-86378307D01*
X101421192Y-86196328D01*
X101421185Y-86196315D01*
X101311751Y-86032537D01*
X101311748Y-86032533D01*
X101172466Y-85893251D01*
X101172462Y-85893248D01*
X101008684Y-85783814D01*
X101008671Y-85783807D01*
X100826693Y-85708430D01*
X100826681Y-85708427D01*
X100633495Y-85670000D01*
X100385000Y-85670000D01*
X100385000Y-86370000D01*
X99885000Y-86370000D01*
X99885000Y-85670000D01*
X99636504Y-85670000D01*
X99443318Y-85708427D01*
X99443306Y-85708430D01*
X99261328Y-85783807D01*
X99261315Y-85783814D01*
X99097537Y-85893248D01*
X99097533Y-85893251D01*
X98958251Y-86032533D01*
X98958248Y-86032537D01*
X98848814Y-86196315D01*
X98848807Y-86196328D01*
X98773430Y-86378307D01*
X98773430Y-86378309D01*
X98765138Y-86420000D01*
X97750500Y-86420000D01*
X97750500Y-77780000D01*
X98765138Y-77780000D01*
X99568012Y-77780000D01*
X99550795Y-77789940D01*
X99494940Y-77845795D01*
X99455444Y-77914204D01*
X99435000Y-77990504D01*
X99435000Y-78069496D01*
X99455444Y-78145796D01*
X99494940Y-78214205D01*
X99550795Y-78270060D01*
X99568012Y-78280000D01*
X98765138Y-78280000D01*
X98773430Y-78321690D01*
X98773430Y-78321692D01*
X98848807Y-78503671D01*
X98848814Y-78503684D01*
X98958248Y-78667462D01*
X98958251Y-78667466D01*
X99097533Y-78806748D01*
X99097537Y-78806751D01*
X99261315Y-78916185D01*
X99261328Y-78916192D01*
X99443306Y-78991569D01*
X99443318Y-78991572D01*
X99636504Y-79029999D01*
X99636508Y-79030000D01*
X99885000Y-79030000D01*
X99885000Y-78330000D01*
X100385000Y-78330000D01*
X100385000Y-79030000D01*
X100633492Y-79030000D01*
X100633495Y-79029999D01*
X100826681Y-78991572D01*
X100826693Y-78991569D01*
X101008671Y-78916192D01*
X101008684Y-78916185D01*
X101172462Y-78806751D01*
X101172466Y-78806748D01*
X101311748Y-78667466D01*
X101311751Y-78667462D01*
X101421185Y-78503684D01*
X101421192Y-78503671D01*
X101496569Y-78321692D01*
X101496569Y-78321690D01*
X101504862Y-78280000D01*
X100701988Y-78280000D01*
X100719205Y-78270060D01*
X100775060Y-78214205D01*
X100814556Y-78145796D01*
X100835000Y-78069496D01*
X100835000Y-77990504D01*
X100814556Y-77914204D01*
X100775060Y-77845795D01*
X100719205Y-77789940D01*
X100701988Y-77780000D01*
X101504862Y-77780000D01*
X101496569Y-77738309D01*
X101496569Y-77738307D01*
X101421192Y-77556328D01*
X101421185Y-77556315D01*
X101311751Y-77392537D01*
X101311748Y-77392533D01*
X101172466Y-77253251D01*
X101172462Y-77253248D01*
X101008684Y-77143814D01*
X101008671Y-77143807D01*
X100826693Y-77068430D01*
X100826681Y-77068427D01*
X100633495Y-77030000D01*
X100385000Y-77030000D01*
X100385000Y-77730000D01*
X99885000Y-77730000D01*
X99885000Y-77030000D01*
X99636504Y-77030000D01*
X99443318Y-77068427D01*
X99443306Y-77068430D01*
X99261328Y-77143807D01*
X99261315Y-77143814D01*
X99097537Y-77253248D01*
X99097533Y-77253251D01*
X98958251Y-77392533D01*
X98958248Y-77392537D01*
X98848814Y-77556315D01*
X98848807Y-77556328D01*
X98773430Y-77738307D01*
X98773430Y-77738309D01*
X98765138Y-77780000D01*
X97750500Y-77780000D01*
X97750500Y-76773093D01*
X97770185Y-76706054D01*
X97822989Y-76660299D01*
X97892147Y-76650355D01*
X97917828Y-76656909D01*
X98017517Y-76694091D01*
X98077127Y-76700500D01*
X103772872Y-76700499D01*
X103832483Y-76694091D01*
X103967331Y-76643796D01*
X104082546Y-76557546D01*
X104168796Y-76442331D01*
X104219091Y-76307483D01*
X104225500Y-76247873D01*
X104225499Y-73952128D01*
X104219091Y-73892517D01*
X104168796Y-73757669D01*
X104168795Y-73757668D01*
X104168793Y-73757664D01*
X104082547Y-73642455D01*
X104082544Y-73642452D01*
X103967335Y-73556206D01*
X103967328Y-73556202D01*
X103832482Y-73505908D01*
X103832483Y-73505908D01*
X103772883Y-73499501D01*
X103772881Y-73499500D01*
X103772873Y-73499500D01*
X103772864Y-73499500D01*
X98077129Y-73499500D01*
X98077123Y-73499501D01*
X98017516Y-73505908D01*
X97917833Y-73543088D01*
X97848141Y-73548072D01*
X97786818Y-73514586D01*
X97753334Y-73453263D01*
X97750500Y-73426906D01*
X97750500Y-65749998D01*
X100444532Y-65749998D01*
X100444532Y-65750001D01*
X100464364Y-65976686D01*
X100464366Y-65976697D01*
X100523258Y-66196488D01*
X100523261Y-66196497D01*
X100619431Y-66402732D01*
X100619432Y-66402734D01*
X100749954Y-66589141D01*
X100910858Y-66750045D01*
X100910861Y-66750047D01*
X101097266Y-66880568D01*
X101303504Y-66976739D01*
X101303509Y-66976740D01*
X101303511Y-66976741D01*
X101306784Y-66977618D01*
X101523308Y-67035635D01*
X101685230Y-67049801D01*
X101749998Y-67055468D01*
X101750000Y-67055468D01*
X101750002Y-67055468D01*
X101806673Y-67050509D01*
X101976692Y-67035635D01*
X102196496Y-66976739D01*
X102402734Y-66880568D01*
X102589139Y-66750047D01*
X102750047Y-66589139D01*
X102848926Y-66447922D01*
X102903501Y-66404299D01*
X102972999Y-66397105D01*
X103035354Y-66428627D01*
X103070769Y-66488857D01*
X103074500Y-66519047D01*
X103074500Y-67397870D01*
X103074501Y-67397876D01*
X103080908Y-67457482D01*
X103097170Y-67501083D01*
X103102153Y-67570774D01*
X103068668Y-67632095D01*
X102821286Y-67879478D01*
X102709481Y-67991282D01*
X102709479Y-67991284D01*
X102683129Y-68036924D01*
X102671992Y-68056216D01*
X102665262Y-68067873D01*
X102630846Y-68127483D01*
X102630423Y-68128215D01*
X102589499Y-68280943D01*
X102589499Y-68280945D01*
X102589499Y-68449046D01*
X102589500Y-68449059D01*
X102589500Y-69853330D01*
X102589499Y-69853348D01*
X102589499Y-70019054D01*
X102589498Y-70019054D01*
X102630424Y-70171789D01*
X102630425Y-70171790D01*
X102642505Y-70192712D01*
X102647001Y-70200499D01*
X102695680Y-70284814D01*
X102709481Y-70308717D01*
X102828349Y-70427585D01*
X102828355Y-70427590D01*
X102915139Y-70514374D01*
X102915149Y-70514385D01*
X102919479Y-70518715D01*
X102919480Y-70518716D01*
X103031284Y-70630520D01*
X103118095Y-70680639D01*
X103118094Y-70680639D01*
X103124916Y-70684577D01*
X103173134Y-70735142D01*
X103186360Y-70803748D01*
X103162189Y-70866276D01*
X103131205Y-70907665D01*
X103131202Y-70907671D01*
X103080908Y-71042517D01*
X103074501Y-71102116D01*
X103074500Y-71102135D01*
X103074500Y-72397870D01*
X103074501Y-72397876D01*
X103080908Y-72457483D01*
X103131202Y-72592328D01*
X103131206Y-72592335D01*
X103217452Y-72707544D01*
X103217455Y-72707547D01*
X103332664Y-72793793D01*
X103332671Y-72793797D01*
X103467517Y-72844091D01*
X103467516Y-72844091D01*
X103474444Y-72844835D01*
X103527127Y-72850500D01*
X106822872Y-72850499D01*
X106882483Y-72844091D01*
X107017331Y-72793796D01*
X107132546Y-72707546D01*
X107218796Y-72592331D01*
X107269091Y-72457483D01*
X107275500Y-72397873D01*
X107275499Y-71924094D01*
X107295183Y-71857057D01*
X107347987Y-71811302D01*
X107417146Y-71801358D01*
X107480702Y-71830383D01*
X107487177Y-71836412D01*
X108331284Y-72680520D01*
X108468215Y-72759577D01*
X108620943Y-72800501D01*
X108620946Y-72800501D01*
X108786654Y-72800501D01*
X108786670Y-72800500D01*
X108811267Y-72800500D01*
X108878306Y-72820185D01*
X108924061Y-72872989D01*
X108928972Y-72885494D01*
X108940184Y-72919328D01*
X108940187Y-72919336D01*
X108969406Y-72966707D01*
X109032288Y-73068656D01*
X109156344Y-73192712D01*
X109305666Y-73284814D01*
X109472203Y-73339999D01*
X109574991Y-73350500D01*
X110925008Y-73350499D01*
X111027797Y-73339999D01*
X111194334Y-73284814D01*
X111343656Y-73192712D01*
X111467712Y-73068656D01*
X111479171Y-73050076D01*
X111531116Y-73003352D01*
X111570829Y-72991951D01*
X111629249Y-72985369D01*
X111629251Y-72985368D01*
X111629255Y-72985368D01*
X111629258Y-72985366D01*
X111629262Y-72985366D01*
X111724987Y-72951869D01*
X111799522Y-72925789D01*
X111799525Y-72925786D01*
X111805795Y-72922768D01*
X111806563Y-72924363D01*
X111865119Y-72907810D01*
X111931956Y-72928171D01*
X111969405Y-72966706D01*
X112032288Y-73068656D01*
X112156344Y-73192712D01*
X112305666Y-73284814D01*
X112472203Y-73339999D01*
X112574991Y-73350500D01*
X113925008Y-73350499D01*
X114027797Y-73339999D01*
X114194334Y-73284814D01*
X114343656Y-73192712D01*
X114467712Y-73068656D01*
X114559814Y-72919334D01*
X114571028Y-72885494D01*
X114610801Y-72828050D01*
X114675317Y-72801228D01*
X114688733Y-72800500D01*
X116917588Y-72800500D01*
X116984627Y-72820185D01*
X116994903Y-72827555D01*
X116997736Y-72829814D01*
X116997738Y-72829816D01*
X117073929Y-72877690D01*
X117148208Y-72924363D01*
X117150478Y-72925789D01*
X117267415Y-72966707D01*
X117320745Y-72985368D01*
X117320750Y-72985369D01*
X117499996Y-73005565D01*
X117500000Y-73005565D01*
X117500004Y-73005565D01*
X117679249Y-72985369D01*
X117679252Y-72985368D01*
X117679255Y-72985368D01*
X117849522Y-72925789D01*
X118002262Y-72829816D01*
X118129816Y-72702262D01*
X118225789Y-72549522D01*
X118285368Y-72379255D01*
X118285369Y-72379249D01*
X118305565Y-72200003D01*
X118305565Y-72199996D01*
X118285369Y-72020750D01*
X118285368Y-72020745D01*
X118270065Y-71977011D01*
X118225789Y-71850478D01*
X118213162Y-71830383D01*
X118167816Y-71758215D01*
X118129816Y-71697738D01*
X118002262Y-71570184D01*
X117933553Y-71527011D01*
X117849523Y-71474211D01*
X117679254Y-71414631D01*
X117679249Y-71414630D01*
X117500004Y-71394435D01*
X117499996Y-71394435D01*
X117320750Y-71414630D01*
X117320745Y-71414631D01*
X117150476Y-71474211D01*
X116997736Y-71570185D01*
X116994903Y-71572445D01*
X116992724Y-71573334D01*
X116991842Y-71573889D01*
X116991744Y-71573734D01*
X116930217Y-71598855D01*
X116917588Y-71599500D01*
X114688733Y-71599500D01*
X114621694Y-71579815D01*
X114575939Y-71527011D01*
X114571028Y-71514506D01*
X114566495Y-71500829D01*
X114559814Y-71480666D01*
X114467712Y-71331344D01*
X114343656Y-71207288D01*
X114194334Y-71115186D01*
X114027797Y-71060001D01*
X114027795Y-71060000D01*
X113925016Y-71049500D01*
X113925009Y-71049500D01*
X113000097Y-71049500D01*
X112933058Y-71029815D01*
X112912416Y-71013181D01*
X110787590Y-68888355D01*
X110787588Y-68888352D01*
X110668717Y-68769481D01*
X110668716Y-68769480D01*
X110571904Y-68713586D01*
X110531785Y-68690423D01*
X110379057Y-68649499D01*
X110220943Y-68649499D01*
X110213347Y-68649499D01*
X110213331Y-68649500D01*
X110074000Y-68649500D01*
X110006961Y-68629815D01*
X109961206Y-68577011D01*
X109950000Y-68525500D01*
X109950000Y-68000000D01*
X107450000Y-68000000D01*
X107450000Y-68345259D01*
X107430315Y-68412298D01*
X107377511Y-68458053D01*
X107308353Y-68467997D01*
X107244797Y-68438972D01*
X107224847Y-68414218D01*
X107224112Y-68414769D01*
X107132547Y-68292455D01*
X107132544Y-68292452D01*
X107017335Y-68206206D01*
X107017328Y-68206202D01*
X106882482Y-68155908D01*
X106882483Y-68155908D01*
X106822883Y-68149501D01*
X106822881Y-68149500D01*
X106822873Y-68149500D01*
X106822865Y-68149500D01*
X104549096Y-68149500D01*
X104482057Y-68129815D01*
X104436302Y-68077011D01*
X104426358Y-68007853D01*
X104455383Y-67944297D01*
X104461415Y-67937819D01*
X104512416Y-67886818D01*
X104573739Y-67853333D01*
X104600097Y-67850499D01*
X106822871Y-67850499D01*
X106822872Y-67850499D01*
X106882483Y-67844091D01*
X107017331Y-67793796D01*
X107132546Y-67707546D01*
X107218796Y-67592331D01*
X107239258Y-67537470D01*
X107281128Y-67481536D01*
X107346592Y-67457118D01*
X107414865Y-67471969D01*
X107443121Y-67493121D01*
X107450000Y-67500000D01*
X108450000Y-67500000D01*
X108950000Y-67500000D01*
X109950000Y-67500000D01*
X109950000Y-66952172D01*
X109949999Y-66952155D01*
X109943598Y-66892627D01*
X109943596Y-66892620D01*
X109893354Y-66757913D01*
X109893350Y-66757906D01*
X109807190Y-66642812D01*
X109807187Y-66642809D01*
X109692093Y-66556649D01*
X109692086Y-66556645D01*
X109557379Y-66506403D01*
X109557372Y-66506401D01*
X109497844Y-66500000D01*
X108950000Y-66500000D01*
X108950000Y-67500000D01*
X108450000Y-67500000D01*
X108450000Y-66500000D01*
X107902155Y-66500000D01*
X107842627Y-66506401D01*
X107842620Y-66506403D01*
X107707913Y-66556645D01*
X107707906Y-66556649D01*
X107592812Y-66642809D01*
X107592809Y-66642812D01*
X107501331Y-66765011D01*
X107499510Y-66763648D01*
X107458913Y-66804237D01*
X107390639Y-66819081D01*
X107325177Y-66794657D01*
X107283312Y-66738718D01*
X107275499Y-66695398D01*
X107275499Y-66399986D01*
X117850001Y-66399986D01*
X117860494Y-66502697D01*
X117904787Y-66636363D01*
X117906065Y-66673528D01*
X117927813Y-66689809D01*
X117934085Y-66699022D01*
X118007684Y-66818345D01*
X118131654Y-66942315D01*
X118280875Y-67034356D01*
X118280880Y-67034358D01*
X118447302Y-67089505D01*
X118447309Y-67089506D01*
X118550019Y-67099999D01*
X118999999Y-67099999D01*
X119000000Y-67099998D01*
X119000000Y-66187500D01*
X117850001Y-66187500D01*
X117850001Y-66399986D01*
X107275499Y-66399986D01*
X107275499Y-66102129D01*
X107275498Y-66102123D01*
X107269091Y-66042516D01*
X107218797Y-65907671D01*
X107218793Y-65907664D01*
X107132547Y-65792455D01*
X107132544Y-65792452D01*
X107017335Y-65706206D01*
X107017328Y-65706202D01*
X106882482Y-65655908D01*
X106882483Y-65655908D01*
X106822883Y-65649501D01*
X106822881Y-65649500D01*
X106822873Y-65649500D01*
X106822865Y-65649500D01*
X103564780Y-65649500D01*
X103497741Y-65629815D01*
X103451986Y-65577011D01*
X103442042Y-65507853D01*
X103471067Y-65444297D01*
X103477084Y-65437834D01*
X103528102Y-65386816D01*
X103589425Y-65353333D01*
X103615782Y-65350499D01*
X106822871Y-65350499D01*
X106822872Y-65350499D01*
X106882483Y-65344091D01*
X107017331Y-65293796D01*
X107132546Y-65207546D01*
X107218796Y-65092331D01*
X107269091Y-64957483D01*
X107275500Y-64897873D01*
X107275499Y-63602128D01*
X107269091Y-63542517D01*
X107218796Y-63407669D01*
X107218795Y-63407668D01*
X107218793Y-63407664D01*
X107132547Y-63292455D01*
X107132544Y-63292452D01*
X107017335Y-63206206D01*
X107017328Y-63206202D01*
X106882482Y-63155908D01*
X106882483Y-63155908D01*
X106822883Y-63149501D01*
X106822881Y-63149500D01*
X106822873Y-63149500D01*
X106822864Y-63149500D01*
X103527129Y-63149500D01*
X103527123Y-63149501D01*
X103467516Y-63155908D01*
X103332671Y-63206202D01*
X103332668Y-63206204D01*
X103307872Y-63224767D01*
X103242408Y-63249184D01*
X103233561Y-63249500D01*
X103151456Y-63249500D01*
X102958171Y-63287946D01*
X102958167Y-63287948D01*
X102958165Y-63287948D01*
X102958164Y-63287949D01*
X102882745Y-63319188D01*
X102882743Y-63319189D01*
X102776085Y-63363368D01*
X102776085Y-63363369D01*
X102776084Y-63363369D01*
X102612222Y-63472857D01*
X102612214Y-63472863D01*
X101661966Y-64423111D01*
X101600643Y-64456596D01*
X101585095Y-64458958D01*
X101523307Y-64464365D01*
X101303511Y-64523258D01*
X101303502Y-64523261D01*
X101097267Y-64619431D01*
X101097265Y-64619432D01*
X100910858Y-64749954D01*
X100749954Y-64910858D01*
X100619432Y-65097265D01*
X100619431Y-65097267D01*
X100523261Y-65303502D01*
X100523258Y-65303511D01*
X100464366Y-65523302D01*
X100464364Y-65523313D01*
X100444532Y-65749998D01*
X97750500Y-65749998D01*
X97750500Y-62397844D01*
X103075000Y-62397844D01*
X103081401Y-62457372D01*
X103081403Y-62457379D01*
X103131645Y-62592086D01*
X103131649Y-62592093D01*
X103217809Y-62707187D01*
X103217812Y-62707190D01*
X103332906Y-62793350D01*
X103332913Y-62793354D01*
X103467620Y-62843596D01*
X103467627Y-62843598D01*
X103527155Y-62849999D01*
X103527172Y-62850000D01*
X104925000Y-62850000D01*
X105425000Y-62850000D01*
X106822828Y-62850000D01*
X106822844Y-62849999D01*
X106882372Y-62843598D01*
X106882379Y-62843596D01*
X107017086Y-62793354D01*
X107017093Y-62793350D01*
X107132187Y-62707190D01*
X107132190Y-62707187D01*
X107218350Y-62592093D01*
X107218354Y-62592086D01*
X107268596Y-62457379D01*
X107268598Y-62457372D01*
X107274999Y-62397844D01*
X107275000Y-62397827D01*
X107275000Y-62000000D01*
X105425000Y-62000000D01*
X105425000Y-62850000D01*
X104925000Y-62850000D01*
X104925000Y-62000000D01*
X103075000Y-62000000D01*
X103075000Y-62397844D01*
X97750500Y-62397844D01*
X97750500Y-61102155D01*
X103075000Y-61102155D01*
X103075000Y-61500000D01*
X104925000Y-61500000D01*
X105425000Y-61500000D01*
X107275000Y-61500000D01*
X107275000Y-61102172D01*
X107274999Y-61102155D01*
X107268598Y-61042627D01*
X107268596Y-61042620D01*
X107218354Y-60907913D01*
X107218350Y-60907906D01*
X107132190Y-60792812D01*
X107132187Y-60792809D01*
X107017093Y-60706649D01*
X107017086Y-60706645D01*
X106882379Y-60656403D01*
X106882372Y-60656401D01*
X106822844Y-60650000D01*
X105425000Y-60650000D01*
X105425000Y-61500000D01*
X104925000Y-61500000D01*
X104925000Y-60650000D01*
X103527155Y-60650000D01*
X103467627Y-60656401D01*
X103467620Y-60656403D01*
X103332913Y-60706645D01*
X103332906Y-60706649D01*
X103217812Y-60792809D01*
X103217809Y-60792812D01*
X103131649Y-60907906D01*
X103131645Y-60907913D01*
X103081403Y-61042620D01*
X103081401Y-61042627D01*
X103075000Y-61102155D01*
X97750500Y-61102155D01*
X97750500Y-60073093D01*
X97770185Y-60006054D01*
X97822989Y-59960299D01*
X97892147Y-59950355D01*
X97917828Y-59956909D01*
X98017517Y-59994091D01*
X98077127Y-60000500D01*
X103772872Y-60000499D01*
X103832483Y-59994091D01*
X103967331Y-59943796D01*
X104082546Y-59857546D01*
X104168796Y-59742331D01*
X104219091Y-59607483D01*
X104225500Y-59547873D01*
X104225499Y-57252128D01*
X104219091Y-57192517D01*
X104168796Y-57057669D01*
X104168795Y-57057668D01*
X104168793Y-57057664D01*
X104082547Y-56942455D01*
X104082544Y-56942452D01*
X103967335Y-56856206D01*
X103967328Y-56856202D01*
X103832482Y-56805908D01*
X103832483Y-56805908D01*
X103772883Y-56799501D01*
X103772881Y-56799500D01*
X103772873Y-56799500D01*
X103772864Y-56799500D01*
X98077129Y-56799500D01*
X98077123Y-56799501D01*
X98017516Y-56805908D01*
X97917833Y-56843088D01*
X97848141Y-56848072D01*
X97786818Y-56814586D01*
X97753334Y-56753263D01*
X97750500Y-56726906D01*
X97750500Y-54987453D01*
X97770185Y-54920414D01*
X97822989Y-54874659D01*
X97892147Y-54864715D01*
X97955703Y-54893740D01*
X97977131Y-54917864D01*
X98124314Y-55134943D01*
X98168634Y-55200309D01*
X98168641Y-55200319D01*
X98400331Y-55473085D01*
X98400332Y-55473086D01*
X98660163Y-55719211D01*
X98945081Y-55935800D01*
X99251747Y-56120315D01*
X99251749Y-56120316D01*
X99251751Y-56120317D01*
X99251755Y-56120319D01*
X99576552Y-56270585D01*
X99576565Y-56270591D01*
X99915726Y-56384868D01*
X100265254Y-56461805D01*
X100621052Y-56500500D01*
X100621058Y-56500500D01*
X100978942Y-56500500D01*
X100978948Y-56500500D01*
X101334746Y-56461805D01*
X101684274Y-56384868D01*
X102023435Y-56270591D01*
X102348253Y-56120315D01*
X102654919Y-55935800D01*
X102939837Y-55719211D01*
X103199668Y-55473086D01*
X103431365Y-55200311D01*
X103632211Y-54904085D01*
X103799853Y-54587880D01*
X103932324Y-54255403D01*
X104028071Y-53910552D01*
X104085972Y-53557371D01*
X104105348Y-53200000D01*
X104085972Y-52842629D01*
X104028071Y-52489448D01*
X103932324Y-52144597D01*
X103799853Y-51812120D01*
X103652833Y-51534812D01*
X103632215Y-51495922D01*
X103632213Y-51495919D01*
X103632211Y-51495915D01*
X103431365Y-51199689D01*
X103431361Y-51199684D01*
X103431358Y-51199680D01*
X103199668Y-50926914D01*
X102939837Y-50680789D01*
X102939830Y-50680783D01*
X102939827Y-50680781D01*
X102872245Y-50629407D01*
X102654919Y-50464200D01*
X102516223Y-50380749D01*
X102468929Y-50329321D01*
X102456947Y-50260486D01*
X102484082Y-50196101D01*
X102541719Y-50156607D01*
X102580153Y-50150500D01*
X112376000Y-50150500D01*
X112443039Y-50170185D01*
G37*
%TD.AperFunction*%
%TA.AperFunction,Conductor*%
G36*
X134331641Y-90870185D02*
G01*
X134377396Y-90922989D01*
X134387960Y-90987102D01*
X134380000Y-91065011D01*
X134380000Y-91590000D01*
X135325854Y-91590000D01*
X135287370Y-91656657D01*
X135255000Y-91777465D01*
X135255000Y-91902535D01*
X135287370Y-92023343D01*
X135325854Y-92090000D01*
X134380001Y-92090000D01*
X134380001Y-92614986D01*
X134390494Y-92717697D01*
X134445641Y-92884119D01*
X134445643Y-92884124D01*
X134537684Y-93033345D01*
X134661654Y-93157315D01*
X134810875Y-93249356D01*
X134810880Y-93249358D01*
X134977302Y-93304505D01*
X134977309Y-93304506D01*
X135080019Y-93314999D01*
X135479999Y-93314999D01*
X135480000Y-93314998D01*
X135480000Y-92244145D01*
X135546657Y-92282630D01*
X135667465Y-92315000D01*
X135792535Y-92315000D01*
X135913343Y-92282630D01*
X135980000Y-92244145D01*
X135980000Y-93314999D01*
X136379972Y-93314999D01*
X136379986Y-93314998D01*
X136482697Y-93304505D01*
X136649119Y-93249358D01*
X136649124Y-93249356D01*
X136798345Y-93157315D01*
X136922317Y-93033343D01*
X137017815Y-92878516D01*
X137069763Y-92831791D01*
X137138725Y-92820568D01*
X137202808Y-92848412D01*
X137211035Y-92855931D01*
X137213181Y-92858077D01*
X137246666Y-92919400D01*
X137249500Y-92945758D01*
X137249500Y-97634242D01*
X137229815Y-97701281D01*
X137213165Y-97721938D01*
X137211032Y-97724072D01*
X137211015Y-97724089D01*
X137149684Y-97757559D01*
X137079993Y-97752559D01*
X137024070Y-97710674D01*
X137017815Y-97701484D01*
X136922315Y-97546654D01*
X136798345Y-97422684D01*
X136649124Y-97330643D01*
X136649119Y-97330641D01*
X136482697Y-97275494D01*
X136482690Y-97275493D01*
X136379986Y-97265000D01*
X135980000Y-97265000D01*
X135980000Y-98335854D01*
X135913343Y-98297370D01*
X135792535Y-98265000D01*
X135667465Y-98265000D01*
X135546657Y-98297370D01*
X135480000Y-98335854D01*
X135480000Y-97265000D01*
X135080028Y-97265000D01*
X135080012Y-97265001D01*
X134977302Y-97275494D01*
X134810880Y-97330641D01*
X134810875Y-97330643D01*
X134661654Y-97422684D01*
X134537684Y-97546654D01*
X134445643Y-97695875D01*
X134445641Y-97695880D01*
X134390494Y-97862302D01*
X134390493Y-97862309D01*
X134380000Y-97965013D01*
X134380000Y-98490000D01*
X135325854Y-98490000D01*
X135287370Y-98556657D01*
X135255000Y-98677465D01*
X135255000Y-98802535D01*
X135287370Y-98923343D01*
X135325854Y-98990000D01*
X134380001Y-98990000D01*
X134380001Y-99514986D01*
X134390494Y-99617697D01*
X134445641Y-99784119D01*
X134445643Y-99784124D01*
X134537684Y-99933345D01*
X134661654Y-100057315D01*
X134810875Y-100149356D01*
X134810880Y-100149358D01*
X134977302Y-100204505D01*
X134977309Y-100204506D01*
X135080019Y-100214999D01*
X135479999Y-100214999D01*
X135480000Y-100214998D01*
X135480000Y-99144145D01*
X135546657Y-99182630D01*
X135667465Y-99215000D01*
X135792535Y-99215000D01*
X135913343Y-99182630D01*
X135980000Y-99144145D01*
X135980000Y-100214999D01*
X136379972Y-100214999D01*
X136379986Y-100214998D01*
X136482697Y-100204505D01*
X136649119Y-100149358D01*
X136649124Y-100149356D01*
X136798345Y-100057315D01*
X136922317Y-99933343D01*
X137017815Y-99778516D01*
X137069763Y-99731791D01*
X137138725Y-99720568D01*
X137202808Y-99748412D01*
X137211035Y-99755931D01*
X137350213Y-99895109D01*
X137522179Y-100020048D01*
X137522181Y-100020049D01*
X137522184Y-100020051D01*
X137711588Y-100116557D01*
X137913757Y-100182246D01*
X138123713Y-100215500D01*
X138123714Y-100215500D01*
X138336286Y-100215500D01*
X138336287Y-100215500D01*
X138546243Y-100182246D01*
X138748412Y-100116557D01*
X138937816Y-100020051D01*
X138959789Y-100004086D01*
X139109786Y-99895109D01*
X139109788Y-99895106D01*
X139109792Y-99895104D01*
X139260104Y-99744792D01*
X139379683Y-99580204D01*
X139435011Y-99537540D01*
X139504624Y-99531561D01*
X139566420Y-99564166D01*
X139580313Y-99580199D01*
X139654206Y-99681904D01*
X139699896Y-99744792D01*
X139850213Y-99895109D01*
X140022179Y-100020048D01*
X140022181Y-100020049D01*
X140022184Y-100020051D01*
X140211588Y-100116557D01*
X140413757Y-100182246D01*
X140623713Y-100215500D01*
X140623714Y-100215500D01*
X140836286Y-100215500D01*
X140836287Y-100215500D01*
X141046243Y-100182246D01*
X141248412Y-100116557D01*
X141437816Y-100020051D01*
X141459789Y-100004086D01*
X141609786Y-99895109D01*
X141609788Y-99895106D01*
X141609792Y-99895104D01*
X141760104Y-99744792D01*
X141879683Y-99580204D01*
X141935011Y-99537540D01*
X142004624Y-99531561D01*
X142066420Y-99564166D01*
X142080313Y-99580199D01*
X142154206Y-99681904D01*
X142199896Y-99744792D01*
X142350213Y-99895109D01*
X142522179Y-100020048D01*
X142522181Y-100020049D01*
X142522184Y-100020051D01*
X142711588Y-100116557D01*
X142913757Y-100182246D01*
X143123713Y-100215500D01*
X143123714Y-100215500D01*
X143336286Y-100215500D01*
X143336287Y-100215500D01*
X143546243Y-100182246D01*
X143690416Y-100135400D01*
X143760257Y-100133406D01*
X143816415Y-100165651D01*
X143938583Y-100287819D01*
X143972068Y-100349142D01*
X143967084Y-100418834D01*
X143925212Y-100474767D01*
X143859748Y-100499184D01*
X143850902Y-100499500D01*
X134248627Y-100499500D01*
X134181588Y-100479815D01*
X134160946Y-100463181D01*
X131436119Y-97738355D01*
X131436117Y-97738352D01*
X131317246Y-97619481D01*
X131317245Y-97619480D01*
X131230433Y-97569360D01*
X131230433Y-97569359D01*
X131230429Y-97569358D01*
X131180314Y-97540423D01*
X131027586Y-97499499D01*
X130869472Y-97499499D01*
X130861876Y-97499499D01*
X130861860Y-97499500D01*
X130450098Y-97499500D01*
X130383059Y-97479815D01*
X130362417Y-97463181D01*
X129225132Y-96325896D01*
X129191647Y-96264573D01*
X129196631Y-96194881D01*
X129238503Y-96138948D01*
X129246822Y-96133234D01*
X129252262Y-96129816D01*
X129379816Y-96002262D01*
X129475789Y-95849522D01*
X129535368Y-95679255D01*
X129545947Y-95585368D01*
X129551511Y-95535981D01*
X129578577Y-95471567D01*
X129587040Y-95462193D01*
X129969709Y-95079525D01*
X129969714Y-95079521D01*
X129979917Y-95069317D01*
X129979919Y-95069317D01*
X130091723Y-94957513D01*
X130160868Y-94837750D01*
X130170780Y-94820582D01*
X130211704Y-94667854D01*
X130211704Y-94667850D01*
X130211751Y-94667495D01*
X130211882Y-94667186D01*
X130213807Y-94660003D01*
X130214821Y-94660274D01*
X130237746Y-94606366D01*
X130241013Y-94602267D01*
X130241019Y-94602262D01*
X130336992Y-94449522D01*
X130396571Y-94279255D01*
X130396693Y-94278173D01*
X130416768Y-94100003D01*
X130416768Y-94099996D01*
X130396572Y-93920750D01*
X130396571Y-93920745D01*
X130369694Y-93843936D01*
X130336992Y-93750478D01*
X130241019Y-93597738D01*
X130113465Y-93470184D01*
X129960726Y-93374211D01*
X129790457Y-93314631D01*
X129790452Y-93314630D01*
X129611207Y-93294435D01*
X129611199Y-93294435D01*
X129565089Y-93299630D01*
X129496267Y-93287575D01*
X129444888Y-93240226D01*
X129427264Y-93172615D01*
X129448991Y-93106210D01*
X129478318Y-93076093D01*
X129589792Y-92995104D01*
X129740104Y-92844792D01*
X129740106Y-92844788D01*
X129740109Y-92844786D01*
X129865048Y-92672820D01*
X129865047Y-92672820D01*
X129865051Y-92672816D01*
X129961557Y-92483412D01*
X130027246Y-92281243D01*
X130060500Y-92071287D01*
X130060500Y-91608713D01*
X130027246Y-91398757D01*
X129961557Y-91196588D01*
X129877080Y-91030793D01*
X129864185Y-90962126D01*
X129890461Y-90897385D01*
X129947568Y-90857128D01*
X129987566Y-90850500D01*
X134264602Y-90850500D01*
X134331641Y-90870185D01*
G37*
%TD.AperFunction*%
%TA.AperFunction,Conductor*%
G36*
X120046420Y-92664166D02*
G01*
X120060313Y-92680199D01*
X120162296Y-92820568D01*
X120179896Y-92844792D01*
X120330213Y-92995109D01*
X120502179Y-93120048D01*
X120502181Y-93120049D01*
X120502184Y-93120051D01*
X120691588Y-93216557D01*
X120893757Y-93282246D01*
X121103713Y-93315500D01*
X121103714Y-93315500D01*
X121316286Y-93315500D01*
X121316287Y-93315500D01*
X121437180Y-93296352D01*
X121506471Y-93305306D01*
X121559923Y-93350302D01*
X121580563Y-93417054D01*
X121561838Y-93484368D01*
X121544257Y-93506506D01*
X118391286Y-96659478D01*
X118279481Y-96771282D01*
X118279479Y-96771285D01*
X118229361Y-96858094D01*
X118229359Y-96858096D01*
X118200425Y-96908209D01*
X118200424Y-96908210D01*
X118200423Y-96908215D01*
X118159499Y-97060943D01*
X118159499Y-97060945D01*
X118159499Y-97229046D01*
X118159500Y-97229059D01*
X118159500Y-97303804D01*
X118139815Y-97370843D01*
X118091796Y-97414288D01*
X118002182Y-97459949D01*
X117830213Y-97584890D01*
X117679894Y-97735209D01*
X117679890Y-97735214D01*
X117560318Y-97899793D01*
X117504989Y-97942459D01*
X117435375Y-97948438D01*
X117373580Y-97915833D01*
X117359682Y-97899793D01*
X117240109Y-97735214D01*
X117240105Y-97735209D01*
X117089786Y-97584890D01*
X116917820Y-97459951D01*
X116728414Y-97363444D01*
X116728413Y-97363443D01*
X116728412Y-97363443D01*
X116526243Y-97297754D01*
X116526241Y-97297753D01*
X116526240Y-97297753D01*
X116364957Y-97272208D01*
X116316287Y-97264500D01*
X116103713Y-97264500D01*
X116055042Y-97272208D01*
X115893760Y-97297753D01*
X115691585Y-97363444D01*
X115502179Y-97459951D01*
X115330213Y-97584890D01*
X115179894Y-97735209D01*
X115179890Y-97735214D01*
X115060318Y-97899793D01*
X115004989Y-97942459D01*
X114935375Y-97948438D01*
X114873580Y-97915833D01*
X114859682Y-97899793D01*
X114740109Y-97735214D01*
X114740105Y-97735209D01*
X114589786Y-97584890D01*
X114417817Y-97459949D01*
X114348204Y-97424479D01*
X114297409Y-97376505D01*
X114280500Y-97313995D01*
X114280500Y-93266003D01*
X114300185Y-93198964D01*
X114348204Y-93155519D01*
X114417816Y-93120051D01*
X114589792Y-92995104D01*
X114740104Y-92844792D01*
X114859683Y-92680204D01*
X114915011Y-92637540D01*
X114984624Y-92631561D01*
X115046420Y-92664166D01*
X115060313Y-92680199D01*
X115162296Y-92820568D01*
X115179896Y-92844792D01*
X115330213Y-92995109D01*
X115502179Y-93120048D01*
X115502181Y-93120049D01*
X115502184Y-93120051D01*
X115691588Y-93216557D01*
X115893757Y-93282246D01*
X116103713Y-93315500D01*
X116103714Y-93315500D01*
X116316286Y-93315500D01*
X116316287Y-93315500D01*
X116526243Y-93282246D01*
X116728412Y-93216557D01*
X116917816Y-93120051D01*
X117015156Y-93049330D01*
X117089786Y-92995109D01*
X117089788Y-92995106D01*
X117089792Y-92995104D01*
X117240104Y-92844792D01*
X117359683Y-92680204D01*
X117415011Y-92637540D01*
X117484624Y-92631561D01*
X117546420Y-92664166D01*
X117560313Y-92680199D01*
X117662296Y-92820568D01*
X117679896Y-92844792D01*
X117830213Y-92995109D01*
X118002179Y-93120048D01*
X118002181Y-93120049D01*
X118002184Y-93120051D01*
X118191588Y-93216557D01*
X118393757Y-93282246D01*
X118603713Y-93315500D01*
X118603714Y-93315500D01*
X118816286Y-93315500D01*
X118816287Y-93315500D01*
X119026243Y-93282246D01*
X119228412Y-93216557D01*
X119417816Y-93120051D01*
X119515156Y-93049330D01*
X119589786Y-92995109D01*
X119589788Y-92995106D01*
X119589792Y-92995104D01*
X119740104Y-92844792D01*
X119859683Y-92680204D01*
X119915011Y-92637540D01*
X119984624Y-92631561D01*
X120046420Y-92664166D01*
G37*
%TD.AperFunction*%
%TA.AperFunction,Conductor*%
G36*
X124406693Y-93207071D02*
G01*
X124417261Y-93216496D01*
X128329744Y-97128980D01*
X128363229Y-97190303D01*
X128358245Y-97259995D01*
X128316373Y-97315928D01*
X128280382Y-97334592D01*
X128191583Y-97363444D01*
X128002179Y-97459951D01*
X127830213Y-97584890D01*
X127679894Y-97735209D01*
X127679890Y-97735214D01*
X127560318Y-97899793D01*
X127504989Y-97942459D01*
X127435375Y-97948438D01*
X127373580Y-97915833D01*
X127359682Y-97899793D01*
X127240109Y-97735214D01*
X127240105Y-97735209D01*
X127089786Y-97584890D01*
X126917820Y-97459951D01*
X126728414Y-97363444D01*
X126728413Y-97363443D01*
X126728412Y-97363443D01*
X126526243Y-97297754D01*
X126526241Y-97297753D01*
X126526240Y-97297753D01*
X126364957Y-97272208D01*
X126316287Y-97264500D01*
X126103713Y-97264500D01*
X126055042Y-97272208D01*
X125893760Y-97297753D01*
X125691585Y-97363444D01*
X125502179Y-97459951D01*
X125330213Y-97584890D01*
X125179894Y-97735209D01*
X125179890Y-97735214D01*
X125060318Y-97899793D01*
X125004989Y-97942459D01*
X124935375Y-97948438D01*
X124873580Y-97915833D01*
X124859682Y-97899793D01*
X124740109Y-97735214D01*
X124740105Y-97735209D01*
X124589786Y-97584890D01*
X124417820Y-97459951D01*
X124228414Y-97363444D01*
X124228413Y-97363443D01*
X124228412Y-97363443D01*
X124026243Y-97297754D01*
X124026241Y-97297753D01*
X124026240Y-97297753D01*
X123864957Y-97272208D01*
X123816287Y-97264500D01*
X123603713Y-97264500D01*
X123555042Y-97272208D01*
X123393760Y-97297753D01*
X123191585Y-97363444D01*
X123002179Y-97459951D01*
X122830213Y-97584890D01*
X122679894Y-97735209D01*
X122679890Y-97735214D01*
X122560318Y-97899793D01*
X122504989Y-97942459D01*
X122435375Y-97948438D01*
X122373580Y-97915833D01*
X122359682Y-97899793D01*
X122240109Y-97735214D01*
X122240105Y-97735209D01*
X122089786Y-97584890D01*
X121917820Y-97459951D01*
X121728414Y-97363444D01*
X121728413Y-97363443D01*
X121728412Y-97363443D01*
X121526243Y-97297754D01*
X121526241Y-97297753D01*
X121526240Y-97297753D01*
X121364957Y-97272208D01*
X121316287Y-97264500D01*
X121103713Y-97264500D01*
X121055042Y-97272208D01*
X120893760Y-97297753D01*
X120691585Y-97363444D01*
X120502179Y-97459951D01*
X120330213Y-97584890D01*
X120179894Y-97735209D01*
X120179890Y-97735214D01*
X120060318Y-97899793D01*
X120004989Y-97942459D01*
X119935375Y-97948438D01*
X119873580Y-97915833D01*
X119859682Y-97899793D01*
X119740109Y-97735214D01*
X119740105Y-97735209D01*
X119589790Y-97584894D01*
X119589785Y-97584890D01*
X119460830Y-97491199D01*
X119418164Y-97435869D01*
X119412185Y-97366256D01*
X119444790Y-97304461D01*
X119445959Y-97303275D01*
X122980520Y-93768716D01*
X123059577Y-93631784D01*
X123100501Y-93479057D01*
X123100501Y-93357632D01*
X123120186Y-93290593D01*
X123172990Y-93244838D01*
X123242148Y-93234894D01*
X123262813Y-93239699D01*
X123393757Y-93282246D01*
X123603713Y-93315500D01*
X123603714Y-93315500D01*
X123816286Y-93315500D01*
X123816287Y-93315500D01*
X124026243Y-93282246D01*
X124228412Y-93216557D01*
X124273285Y-93193692D01*
X124341952Y-93180796D01*
X124406693Y-93207071D01*
G37*
%TD.AperFunction*%
%TA.AperFunction,Conductor*%
G36*
X141686409Y-93029039D02*
G01*
X141713115Y-93049330D01*
X142197826Y-93534041D01*
X142197836Y-93534052D01*
X142202166Y-93538382D01*
X142202167Y-93538383D01*
X142313971Y-93650187D01*
X142313973Y-93650188D01*
X142313977Y-93650191D01*
X142450896Y-93729240D01*
X142450903Y-93729244D01*
X142562706Y-93759201D01*
X142603629Y-93770167D01*
X142603630Y-93770167D01*
X144313664Y-93770167D01*
X144313680Y-93770168D01*
X144321276Y-93770168D01*
X144479387Y-93770168D01*
X144479390Y-93770168D01*
X144632118Y-93729244D01*
X144682237Y-93700306D01*
X144769049Y-93650187D01*
X144880853Y-93538383D01*
X144880853Y-93538381D01*
X144891061Y-93528174D01*
X144891063Y-93528171D01*
X145151133Y-93268100D01*
X145212454Y-93234617D01*
X145277126Y-93237851D01*
X145413757Y-93282246D01*
X145623713Y-93315500D01*
X145623714Y-93315500D01*
X145836286Y-93315500D01*
X145836287Y-93315500D01*
X146046243Y-93282246D01*
X146248412Y-93216557D01*
X146437816Y-93120051D01*
X146545008Y-93042171D01*
X146610814Y-93018692D01*
X146678868Y-93034517D01*
X146705574Y-93054809D01*
X150703798Y-97053033D01*
X150737283Y-97114356D01*
X150732299Y-97184048D01*
X150690427Y-97239981D01*
X150628463Y-97263349D01*
X150628525Y-97263738D01*
X150626643Y-97264036D01*
X150625861Y-97264331D01*
X150623710Y-97264500D01*
X150413760Y-97297753D01*
X150211585Y-97363444D01*
X150022179Y-97459951D01*
X149850213Y-97584890D01*
X149699894Y-97735209D01*
X149699890Y-97735214D01*
X149580318Y-97899793D01*
X149524989Y-97942459D01*
X149455375Y-97948438D01*
X149393580Y-97915833D01*
X149379682Y-97899793D01*
X149260109Y-97735214D01*
X149260105Y-97735209D01*
X149109786Y-97584890D01*
X148937820Y-97459951D01*
X148748414Y-97363444D01*
X148748413Y-97363443D01*
X148748412Y-97363443D01*
X148546243Y-97297754D01*
X148546241Y-97297753D01*
X148546240Y-97297753D01*
X148384957Y-97272208D01*
X148336287Y-97264500D01*
X148123713Y-97264500D01*
X148075042Y-97272208D01*
X147913760Y-97297753D01*
X147711585Y-97363444D01*
X147522179Y-97459951D01*
X147350213Y-97584890D01*
X147199894Y-97735209D01*
X147199890Y-97735214D01*
X147080318Y-97899793D01*
X147024989Y-97942459D01*
X146955375Y-97948438D01*
X146893580Y-97915833D01*
X146879682Y-97899793D01*
X146760109Y-97735214D01*
X146760105Y-97735209D01*
X146609786Y-97584890D01*
X146437820Y-97459951D01*
X146248414Y-97363444D01*
X146248413Y-97363443D01*
X146248412Y-97363443D01*
X146046243Y-97297754D01*
X146046241Y-97297753D01*
X146046240Y-97297753D01*
X145884957Y-97272208D01*
X145836287Y-97264500D01*
X145623713Y-97264500D01*
X145575042Y-97272208D01*
X145413760Y-97297753D01*
X145211585Y-97363444D01*
X145022179Y-97459951D01*
X144850213Y-97584890D01*
X144699894Y-97735209D01*
X144699890Y-97735214D01*
X144580318Y-97899793D01*
X144524989Y-97942459D01*
X144455375Y-97948438D01*
X144393580Y-97915833D01*
X144379682Y-97899793D01*
X144260109Y-97735214D01*
X144260105Y-97735209D01*
X144109786Y-97584890D01*
X143937820Y-97459951D01*
X143748414Y-97363444D01*
X143748413Y-97363443D01*
X143748412Y-97363443D01*
X143546243Y-97297754D01*
X143546241Y-97297753D01*
X143546240Y-97297753D01*
X143384957Y-97272208D01*
X143336287Y-97264500D01*
X143123713Y-97264500D01*
X143075042Y-97272208D01*
X142913760Y-97297753D01*
X142711585Y-97363444D01*
X142522179Y-97459951D01*
X142350213Y-97584890D01*
X142199894Y-97735209D01*
X142199890Y-97735214D01*
X142080318Y-97899793D01*
X142024989Y-97942459D01*
X141955375Y-97948438D01*
X141893580Y-97915833D01*
X141879682Y-97899793D01*
X141760109Y-97735214D01*
X141760105Y-97735209D01*
X141609786Y-97584890D01*
X141437817Y-97459949D01*
X141418202Y-97449954D01*
X141367407Y-97401978D01*
X141350500Y-97339471D01*
X141350500Y-93240527D01*
X141370185Y-93173488D01*
X141418206Y-93130042D01*
X141437816Y-93120051D01*
X141552549Y-93036692D01*
X141618355Y-93013213D01*
X141686409Y-93029039D01*
G37*
%TD.AperFunction*%
%TA.AperFunction,Conductor*%
G36*
X150705194Y-80994935D02*
G01*
X150820745Y-81035368D01*
X150907669Y-81045161D01*
X150972080Y-81072226D01*
X150981465Y-81080700D01*
X152863181Y-82962416D01*
X152896666Y-83023739D01*
X152899500Y-83050097D01*
X152899500Y-83963330D01*
X152899499Y-83963348D01*
X152899499Y-84129054D01*
X152899498Y-84129054D01*
X152940423Y-84281785D01*
X152946196Y-84291784D01*
X153019477Y-84418712D01*
X153019481Y-84418717D01*
X153138349Y-84537585D01*
X153138355Y-84537590D01*
X156863181Y-88262416D01*
X156896666Y-88323739D01*
X156899500Y-88350097D01*
X156899500Y-90675242D01*
X156879815Y-90742281D01*
X156827011Y-90788036D01*
X156757853Y-90797980D01*
X156694297Y-90768955D01*
X156687819Y-90762923D01*
X156609786Y-90684890D01*
X156437820Y-90559951D01*
X156248414Y-90463444D01*
X156248413Y-90463443D01*
X156248412Y-90463443D01*
X156046243Y-90397754D01*
X156046241Y-90397753D01*
X156046240Y-90397753D01*
X155884957Y-90372208D01*
X155836287Y-90364500D01*
X155623713Y-90364500D01*
X155575042Y-90372208D01*
X155413760Y-90397753D01*
X155211585Y-90463444D01*
X155022179Y-90559951D01*
X154850213Y-90684890D01*
X154699894Y-90835209D01*
X154699890Y-90835214D01*
X154580318Y-90999793D01*
X154524989Y-91042459D01*
X154455375Y-91048438D01*
X154393580Y-91015833D01*
X154379682Y-90999793D01*
X154260109Y-90835214D01*
X154260105Y-90835209D01*
X154109786Y-90684890D01*
X153937820Y-90559951D01*
X153748414Y-90463444D01*
X153748413Y-90463443D01*
X153748412Y-90463443D01*
X153546243Y-90397754D01*
X153546241Y-90397753D01*
X153546240Y-90397753D01*
X153384957Y-90372208D01*
X153336287Y-90364500D01*
X153123713Y-90364500D01*
X153075042Y-90372208D01*
X152913760Y-90397753D01*
X152711585Y-90463444D01*
X152522179Y-90559951D01*
X152350213Y-90684890D01*
X152199894Y-90835209D01*
X152199890Y-90835214D01*
X152080318Y-90999793D01*
X152024989Y-91042459D01*
X151955375Y-91048438D01*
X151893580Y-91015833D01*
X151879682Y-90999793D01*
X151760109Y-90835214D01*
X151760105Y-90835209D01*
X151609786Y-90684890D01*
X151437820Y-90559951D01*
X151248414Y-90463444D01*
X151248413Y-90463443D01*
X151248412Y-90463443D01*
X151046243Y-90397754D01*
X151046241Y-90397753D01*
X151046239Y-90397753D01*
X150905102Y-90375399D01*
X150841967Y-90345470D01*
X150805036Y-90286158D01*
X150800500Y-90252926D01*
X150800500Y-87713361D01*
X150812500Y-87672493D01*
X150812500Y-87649999D01*
X151312500Y-87649999D01*
X151524972Y-87649999D01*
X151524986Y-87649998D01*
X151627697Y-87639505D01*
X151794119Y-87584358D01*
X151794124Y-87584356D01*
X151943345Y-87492315D01*
X152067315Y-87368345D01*
X152159356Y-87219124D01*
X152159358Y-87219119D01*
X152214505Y-87052697D01*
X152214506Y-87052690D01*
X152224999Y-86949986D01*
X152225000Y-86949973D01*
X152225000Y-86500000D01*
X151312500Y-86500000D01*
X151312500Y-87649999D01*
X150812500Y-87649999D01*
X150812500Y-86000000D01*
X151312500Y-86000000D01*
X152224999Y-86000000D01*
X152224999Y-85550028D01*
X152224998Y-85550013D01*
X152214505Y-85447302D01*
X152159358Y-85280880D01*
X152159356Y-85280875D01*
X152067315Y-85131654D01*
X151943345Y-85007684D01*
X151794124Y-84915643D01*
X151794119Y-84915641D01*
X151627697Y-84860494D01*
X151627690Y-84860493D01*
X151524986Y-84850000D01*
X151312500Y-84850000D01*
X151312500Y-86000000D01*
X150812500Y-86000000D01*
X150812500Y-84850000D01*
X150664243Y-84850000D01*
X150597204Y-84830315D01*
X150551449Y-84777511D01*
X150540243Y-84726000D01*
X150540243Y-81111978D01*
X150559928Y-81044939D01*
X150612732Y-80999184D01*
X150681890Y-80989240D01*
X150705194Y-80994935D01*
G37*
%TD.AperFunction*%
%TA.AperFunction,Conductor*%
G36*
X142816003Y-85319208D02*
G01*
X142867141Y-85366818D01*
X142884500Y-85430093D01*
X142884500Y-89384901D01*
X142864815Y-89451940D01*
X142848181Y-89472582D01*
X141699781Y-90620981D01*
X141638458Y-90654466D01*
X141568766Y-90649482D01*
X141539215Y-90633619D01*
X141437815Y-90559948D01*
X141248414Y-90463444D01*
X141248413Y-90463443D01*
X141248412Y-90463443D01*
X141046243Y-90397754D01*
X141046241Y-90397753D01*
X141046240Y-90397753D01*
X140884957Y-90372208D01*
X140836287Y-90364500D01*
X140623713Y-90364500D01*
X140575042Y-90372208D01*
X140413760Y-90397753D01*
X140211585Y-90463444D01*
X140027598Y-90557190D01*
X139958928Y-90570086D01*
X139894188Y-90543809D01*
X139883622Y-90534386D01*
X139149072Y-89799836D01*
X138411415Y-89062180D01*
X138377931Y-89000858D01*
X138382915Y-88931166D01*
X138424787Y-88875233D01*
X138490251Y-88850816D01*
X138499097Y-88850500D01*
X138815831Y-88850500D01*
X138815847Y-88850501D01*
X138823443Y-88850501D01*
X138981554Y-88850501D01*
X138981557Y-88850501D01*
X139134285Y-88809577D01*
X139184404Y-88780639D01*
X139271216Y-88730520D01*
X139383020Y-88618716D01*
X139383020Y-88618714D01*
X139393228Y-88608507D01*
X139393230Y-88608504D01*
X142573504Y-85428229D01*
X142573514Y-85428222D01*
X142614918Y-85386818D01*
X142657696Y-85344038D01*
X142719018Y-85310553D01*
X142732121Y-85308430D01*
X142739433Y-85307643D01*
X142747243Y-85306804D01*
X142816003Y-85319208D01*
G37*
%TD.AperFunction*%
%TA.AperFunction,Conductor*%
G36*
X154632515Y-76981799D02*
G01*
X154634626Y-76983861D01*
X158863181Y-81212416D01*
X158896666Y-81273739D01*
X158899500Y-81300097D01*
X158899500Y-87500903D01*
X158879815Y-87567942D01*
X158827011Y-87613697D01*
X158757853Y-87623641D01*
X158694297Y-87594616D01*
X158687819Y-87588584D01*
X155437298Y-84338063D01*
X155403813Y-84276740D01*
X155408797Y-84207048D01*
X155437299Y-84162700D01*
X155449999Y-84150000D01*
X155950000Y-84150000D01*
X156497828Y-84150000D01*
X156497844Y-84149999D01*
X156557372Y-84143598D01*
X156557379Y-84143596D01*
X156692086Y-84093354D01*
X156692093Y-84093350D01*
X156807187Y-84007190D01*
X156807190Y-84007187D01*
X156893350Y-83892093D01*
X156893354Y-83892086D01*
X156943596Y-83757379D01*
X156943598Y-83757372D01*
X156949999Y-83697844D01*
X156950000Y-83697827D01*
X156950000Y-83150000D01*
X155950000Y-83150000D01*
X155950000Y-84150000D01*
X155449999Y-84150000D01*
X155450000Y-84149999D01*
X155450000Y-82650000D01*
X155950000Y-82650000D01*
X156950000Y-82650000D01*
X156950000Y-82102172D01*
X156949999Y-82102155D01*
X156943598Y-82042627D01*
X156943596Y-82042620D01*
X156893354Y-81907913D01*
X156893350Y-81907906D01*
X156807190Y-81792812D01*
X156807187Y-81792809D01*
X156692093Y-81706649D01*
X156692086Y-81706645D01*
X156557379Y-81656403D01*
X156557372Y-81656401D01*
X156497844Y-81650000D01*
X155950000Y-81650000D01*
X155950000Y-82650000D01*
X155450000Y-82650000D01*
X155450000Y-81650000D01*
X154902155Y-81650000D01*
X154842627Y-81656401D01*
X154842620Y-81656403D01*
X154707913Y-81706645D01*
X154707911Y-81706646D01*
X154698810Y-81713460D01*
X154633345Y-81737876D01*
X154565072Y-81723024D01*
X154515667Y-81673618D01*
X154500500Y-81614192D01*
X154500500Y-77489060D01*
X154500501Y-77489047D01*
X154500501Y-77320944D01*
X154500501Y-77320943D01*
X154459577Y-77168216D01*
X154439557Y-77133541D01*
X154423085Y-77065642D01*
X154445938Y-76999615D01*
X154500859Y-76956424D01*
X154570412Y-76949783D01*
X154632515Y-76981799D01*
G37*
%TD.AperFunction*%
%TA.AperFunction,Conductor*%
G36*
X110766942Y-82730185D02*
G01*
X110787583Y-82746818D01*
X111121284Y-83080520D01*
X111121286Y-83080521D01*
X111121290Y-83080524D01*
X111216982Y-83135771D01*
X111258216Y-83159577D01*
X111410943Y-83200501D01*
X111410945Y-83200501D01*
X111576654Y-83200501D01*
X111576670Y-83200500D01*
X111850399Y-83200500D01*
X111917438Y-83220185D01*
X111963193Y-83272989D01*
X111973137Y-83342147D01*
X111955938Y-83389594D01*
X111948741Y-83401265D01*
X111915187Y-83455663D01*
X111915185Y-83455668D01*
X111900661Y-83499500D01*
X111860001Y-83622203D01*
X111860001Y-83622204D01*
X111860000Y-83622204D01*
X111849500Y-83724983D01*
X111849500Y-84005269D01*
X111829815Y-84072308D01*
X111813181Y-84092950D01*
X110812951Y-85093181D01*
X110751628Y-85126666D01*
X110725270Y-85129500D01*
X109702357Y-85129500D01*
X109635318Y-85109815D01*
X109589563Y-85057011D01*
X109579619Y-84987853D01*
X109596817Y-84940405D01*
X109609814Y-84919334D01*
X109664999Y-84752797D01*
X109675500Y-84650009D01*
X109675499Y-83749992D01*
X109664999Y-83647203D01*
X109609814Y-83480666D01*
X109517712Y-83331344D01*
X109393656Y-83207288D01*
X109277708Y-83135771D01*
X109244336Y-83115187D01*
X109244331Y-83115185D01*
X109203633Y-83101699D01*
X109077797Y-83060001D01*
X109077795Y-83060000D01*
X108975010Y-83049500D01*
X107624998Y-83049500D01*
X107624981Y-83049501D01*
X107522203Y-83060000D01*
X107522200Y-83060001D01*
X107355668Y-83115185D01*
X107355663Y-83115187D01*
X107206342Y-83207289D01*
X107082289Y-83331342D01*
X107082288Y-83331344D01*
X107018032Y-83435521D01*
X107014901Y-83440597D01*
X106962953Y-83487321D01*
X106909362Y-83499500D01*
X106613805Y-83499500D01*
X106546766Y-83479815D01*
X106501011Y-83427011D01*
X106491067Y-83357853D01*
X106506416Y-83313503D01*
X106567739Y-83207288D01*
X106579577Y-83186785D01*
X106620501Y-83034057D01*
X106620501Y-82875943D01*
X106620501Y-82868348D01*
X106620500Y-82868330D01*
X106620500Y-82834500D01*
X106640185Y-82767461D01*
X106692989Y-82721706D01*
X106744500Y-82710500D01*
X110699903Y-82710500D01*
X110766942Y-82730185D01*
G37*
%TD.AperFunction*%
%TA.AperFunction,Conductor*%
G36*
X117804963Y-81400185D02*
G01*
X117850718Y-81452989D01*
X117855629Y-81465495D01*
X117865182Y-81494325D01*
X117865187Y-81494336D01*
X117900069Y-81550888D01*
X117949986Y-81631818D01*
X117957289Y-81643657D01*
X118075951Y-81762319D01*
X118109436Y-81823642D01*
X118104452Y-81893334D01*
X118075951Y-81937681D01*
X118063156Y-81950476D01*
X118062534Y-81951098D01*
X118001210Y-81984580D01*
X117931518Y-81979593D01*
X117897948Y-81960681D01*
X117893662Y-81957292D01*
X117862960Y-81938355D01*
X117804444Y-81902262D01*
X117744336Y-81865187D01*
X117744331Y-81865185D01*
X117728798Y-81860038D01*
X117577797Y-81810001D01*
X117577795Y-81810000D01*
X117475010Y-81799500D01*
X116124998Y-81799500D01*
X116124981Y-81799501D01*
X116022203Y-81810000D01*
X116022200Y-81810001D01*
X115855668Y-81865185D01*
X115855663Y-81865187D01*
X115795556Y-81902262D01*
X115739595Y-81936778D01*
X115672204Y-81955218D01*
X115605541Y-81934295D01*
X115560771Y-81880653D01*
X115550500Y-81831239D01*
X115550500Y-81798893D01*
X115570185Y-81731854D01*
X115586817Y-81711213D01*
X115606815Y-81691216D01*
X115606815Y-81691214D01*
X115617017Y-81681013D01*
X115617020Y-81681008D01*
X115881212Y-81416816D01*
X115942534Y-81383334D01*
X115968892Y-81380500D01*
X117737924Y-81380500D01*
X117804963Y-81400185D01*
G37*
%TD.AperFunction*%
%TA.AperFunction,Conductor*%
G36*
X150735974Y-75094469D02*
G01*
X150768720Y-75117955D01*
X153263181Y-77612416D01*
X153296666Y-77673739D01*
X153299500Y-77700097D01*
X153299500Y-81400903D01*
X153279815Y-81467942D01*
X153227011Y-81513697D01*
X153157853Y-81523641D01*
X153094297Y-81494616D01*
X153087819Y-81488584D01*
X151830700Y-80231465D01*
X151797215Y-80170142D01*
X151795163Y-80157686D01*
X151785368Y-80070745D01*
X151725789Y-79900478D01*
X151629816Y-79747738D01*
X151502262Y-79620184D01*
X151444197Y-79583699D01*
X151349523Y-79524211D01*
X151179254Y-79464631D01*
X151179249Y-79464630D01*
X151000004Y-79444435D01*
X150999996Y-79444435D01*
X150820750Y-79464630D01*
X150820742Y-79464632D01*
X150705197Y-79505063D01*
X150635418Y-79508624D01*
X150574791Y-79473895D01*
X150542564Y-79411901D01*
X150540243Y-79388021D01*
X150540243Y-75207529D01*
X150559928Y-75140490D01*
X150612732Y-75094735D01*
X150650349Y-75084310D01*
X150667156Y-75082416D01*
X150735974Y-75094469D01*
G37*
%TD.AperFunction*%
%TD*%
M02*
