%TF.GenerationSoftware,KiCad,Pcbnew,8.0.8*%
%TF.CreationDate,2025-05-21T09:44:21+02:00*%
%TF.ProjectId,Buttons_Displays_ESP32,42757474-6f6e-4735-9f44-6973706c6179,rev?*%
%TF.SameCoordinates,Original*%
%TF.FileFunction,Soldermask,Top*%
%TF.FilePolarity,Negative*%
%FSLAX46Y46*%
G04 Gerber Fmt 4.6, Leading zero omitted, Abs format (unit mm)*
G04 Created by KiCad (PCBNEW 8.0.8) date 2025-05-21 09:44:21*
%MOMM*%
%LPD*%
G01*
G04 APERTURE LIST*
G04 Aperture macros list*
%AMRoundRect*
0 Rectangle with rounded corners*
0 $1 Rounding radius*
0 $2 $3 $4 $5 $6 $7 $8 $9 X,Y pos of 4 corners*
0 Add a 4 corners polygon primitive as box body*
4,1,4,$2,$3,$4,$5,$6,$7,$8,$9,$2,$3,0*
0 Add four circle primitives for the rounded corners*
1,1,$1+$1,$2,$3*
1,1,$1+$1,$4,$5*
1,1,$1+$1,$6,$7*
1,1,$1+$1,$8,$9*
0 Add four rect primitives between the rounded corners*
20,1,$1+$1,$2,$3,$4,$5,0*
20,1,$1+$1,$4,$5,$6,$7,0*
20,1,$1+$1,$6,$7,$8,$9,0*
20,1,$1+$1,$8,$9,$2,$3,0*%
G04 Aperture macros list end*
%ADD10RoundRect,0.250000X-0.600000X-0.725000X0.600000X-0.725000X0.600000X0.725000X-0.600000X0.725000X0*%
%ADD11O,1.700000X1.950000*%
%ADD12RoundRect,0.250000X-0.412500X-0.650000X0.412500X-0.650000X0.412500X0.650000X-0.412500X0.650000X0*%
%ADD13RoundRect,0.250000X-0.625000X0.400000X-0.625000X-0.400000X0.625000X-0.400000X0.625000X0.400000X0*%
%ADD14R,1.500000X1.500000*%
%ADD15R,3.200000X1.200000*%
%ADD16R,5.600000X2.200000*%
%ADD17RoundRect,0.093750X-0.156250X-0.093750X0.156250X-0.093750X0.156250X0.093750X-0.156250X0.093750X0*%
%ADD18RoundRect,0.075000X-0.250000X-0.075000X0.250000X-0.075000X0.250000X0.075000X-0.250000X0.075000X0*%
%ADD19RoundRect,0.250000X0.400000X0.625000X-0.400000X0.625000X-0.400000X-0.625000X0.400000X-0.625000X0*%
%ADD20RoundRect,0.250000X0.625000X-0.400000X0.625000X0.400000X-0.625000X0.400000X-0.625000X-0.400000X0*%
%ADD21RoundRect,0.250000X-0.650000X0.412500X-0.650000X-0.412500X0.650000X-0.412500X0.650000X0.412500X0*%
%ADD22C,5.600000*%
%ADD23RoundRect,0.250000X0.650000X-0.412500X0.650000X0.412500X-0.650000X0.412500X-0.650000X-0.412500X0*%
%ADD24R,1.500000X0.900000*%
%ADD25R,0.900000X1.500000*%
%ADD26C,0.600000*%
%ADD27R,3.900000X3.900000*%
%ADD28C,0.650000*%
%ADD29RoundRect,0.150000X-0.425000X0.150000X-0.425000X-0.150000X0.425000X-0.150000X0.425000X0.150000X0*%
%ADD30RoundRect,0.075000X-0.500000X0.075000X-0.500000X-0.075000X0.500000X-0.075000X0.500000X0.075000X0*%
%ADD31O,2.100000X1.000000*%
%ADD32O,1.800000X1.000000*%
G04 APERTURE END LIST*
D10*
%TO.C,J3*%
X108710000Y-91840000D03*
D11*
X111210000Y-91840000D03*
X113710000Y-91840000D03*
X116210000Y-91840000D03*
X118710000Y-91840000D03*
X121210000Y-91840000D03*
X123710000Y-91840000D03*
X126210000Y-91840000D03*
X128710000Y-91840000D03*
%TD*%
D12*
%TO.C,C2*%
X147937500Y-86250000D03*
X151062500Y-86250000D03*
%TD*%
D13*
%TO.C,R1*%
X113250000Y-72200000D03*
X113250000Y-75300000D03*
%TD*%
D14*
%TO.C,SW1*%
X147900000Y-82900000D03*
X155700000Y-82900000D03*
%TD*%
D15*
%TO.C,J5*%
X105175000Y-61750000D03*
X105175000Y-64250000D03*
X105175000Y-66750000D03*
X105175000Y-69250000D03*
X105175000Y-71750000D03*
D16*
X100925000Y-58400000D03*
X100925000Y-75100000D03*
%TD*%
D17*
%TO.C,U2*%
X112950000Y-81362500D03*
D18*
X112875000Y-81900000D03*
D17*
X112950000Y-82437500D03*
X114650000Y-82437500D03*
D18*
X114725000Y-81900000D03*
D17*
X114650000Y-81362500D03*
%TD*%
D19*
%TO.C,R4*%
X125400000Y-83000000D03*
X122300000Y-83000000D03*
%TD*%
D14*
%TO.C,SW2*%
X116500000Y-67750000D03*
X108700000Y-67750000D03*
%TD*%
D20*
%TO.C,R7*%
X108300000Y-87300000D03*
X108300000Y-84200000D03*
%TD*%
D21*
%TO.C,C5*%
X119200000Y-77637500D03*
X119200000Y-80762500D03*
%TD*%
D10*
%TO.C,J4*%
X108710000Y-98740000D03*
D11*
X111210000Y-98740000D03*
X113710000Y-98740000D03*
X116210000Y-98740000D03*
X118710000Y-98740000D03*
X121210000Y-98740000D03*
X123710000Y-98740000D03*
X126210000Y-98740000D03*
X128710000Y-98740000D03*
%TD*%
D22*
%TO.C,REF\u002A\u002A*%
X163700000Y-101100000D03*
%TD*%
D19*
%TO.C,R8*%
X110800000Y-79500000D03*
X107700000Y-79500000D03*
%TD*%
D23*
%TO.C,C1*%
X124750000Y-72312500D03*
X124750000Y-69187500D03*
%TD*%
D19*
%TO.C,R3*%
X125400000Y-80700000D03*
X122300000Y-80700000D03*
%TD*%
D21*
%TO.C,C6*%
X113250000Y-84187500D03*
X113250000Y-87312500D03*
%TD*%
D13*
%TO.C,R5*%
X121750000Y-65950000D03*
X121750000Y-69050000D03*
%TD*%
D20*
%TO.C,R6*%
X116800000Y-86050000D03*
X116800000Y-82950000D03*
%TD*%
D10*
%TO.C,J2*%
X135730000Y-98740000D03*
D11*
X138230000Y-98740000D03*
X140730000Y-98740000D03*
X143230000Y-98740000D03*
X145730000Y-98740000D03*
X148230000Y-98740000D03*
X150730000Y-98740000D03*
X153230000Y-98740000D03*
X155730000Y-98740000D03*
%TD*%
D22*
%TO.C,REF\u002A\u002A*%
X163800000Y-53200000D03*
%TD*%
D23*
%TO.C,C3*%
X119250000Y-69062500D03*
X119250000Y-65937500D03*
%TD*%
D22*
%TO.C,REF\u002A\u002A*%
X100800000Y-53200000D03*
%TD*%
D24*
%TO.C,U1*%
X127750000Y-66300000D03*
X127750000Y-67570000D03*
X127750000Y-68840000D03*
X127750000Y-70110000D03*
X127750000Y-71380000D03*
X127750000Y-72650000D03*
X127750000Y-73920000D03*
X127750000Y-75190000D03*
X127750000Y-76460000D03*
X127750000Y-77730000D03*
X127750000Y-79000000D03*
X127750000Y-80270000D03*
X127750000Y-81540000D03*
X127750000Y-82810000D03*
D25*
X129515000Y-84060000D03*
X130785000Y-84060000D03*
X132055000Y-84060000D03*
X133325000Y-84060000D03*
X134595000Y-84060000D03*
X135865000Y-84060000D03*
X137135000Y-84060000D03*
X138405000Y-84060000D03*
X139675000Y-84060000D03*
X140945000Y-84060000D03*
X142215000Y-84060000D03*
X143485000Y-84060000D03*
D24*
X145250000Y-82810000D03*
X145250000Y-81540000D03*
X145250000Y-80270000D03*
X145250000Y-79000000D03*
X145250000Y-77730000D03*
X145250000Y-76460000D03*
X145250000Y-75190000D03*
X145250000Y-73920000D03*
X145250000Y-72650000D03*
X145250000Y-71380000D03*
X145250000Y-70110000D03*
X145250000Y-68840000D03*
X145250000Y-67570000D03*
X145250000Y-66300000D03*
D26*
X133600000Y-73320000D03*
X133600000Y-74720000D03*
X134300000Y-72620000D03*
X134300000Y-74020000D03*
X134300000Y-75420000D03*
X135000000Y-73320000D03*
D27*
X135000000Y-74020000D03*
D26*
X135000000Y-74720000D03*
X135700000Y-72620000D03*
X135700000Y-74020000D03*
X135700000Y-75420000D03*
X136400000Y-73320000D03*
X136400000Y-74720000D03*
%TD*%
D22*
%TO.C,REF\u002A\u002A*%
X100700000Y-101100000D03*
%TD*%
D10*
%TO.C,J1*%
X135730000Y-91840000D03*
D11*
X138230000Y-91840000D03*
X140730000Y-91840000D03*
X143230000Y-91840000D03*
X145730000Y-91840000D03*
X148230000Y-91840000D03*
X150730000Y-91840000D03*
X153230000Y-91840000D03*
X155730000Y-91840000D03*
%TD*%
D20*
%TO.C,R2*%
X110250000Y-75300000D03*
X110250000Y-72200000D03*
%TD*%
D28*
%TO.C,J6*%
X103815000Y-79460000D03*
X103815000Y-85240000D03*
D29*
X104890000Y-79150000D03*
X104890000Y-79950000D03*
D30*
X104890000Y-81100000D03*
X104890000Y-82100000D03*
X104890000Y-82600000D03*
X104890000Y-83600000D03*
D29*
X104890000Y-84750000D03*
X104890000Y-85550000D03*
X104890000Y-85550000D03*
X104890000Y-84750000D03*
D30*
X104890000Y-84100000D03*
X104890000Y-83100000D03*
X104890000Y-81600000D03*
X104890000Y-80600000D03*
D29*
X104890000Y-79950000D03*
X104890000Y-79150000D03*
D31*
X104315000Y-78030000D03*
D32*
X100135000Y-78030000D03*
D31*
X104315000Y-86670000D03*
D32*
X100135000Y-86670000D03*
%TD*%
D23*
%TO.C,C4*%
X119200000Y-86062500D03*
X119200000Y-82937500D03*
%TD*%
M02*
