%TF.GenerationSoftware,KiCad,Pcbnew,8.0.8*%
%TF.CreationDate,2025-05-21T09:44:21+02:00*%
%TF.ProjectId,Buttons_Displays_ESP32,42757474-6f6e-4735-9f44-6973706c6179,rev?*%
%TF.SameCoordinates,Original*%
%TF.FileFunction,Copper,L2,Bot*%
%TF.FilePolarity,Positive*%
%FSLAX46Y46*%
G04 Gerber Fmt 4.6, Leading zero omitted, Abs format (unit mm)*
G04 Created by KiCad (PCBNEW 8.0.8) date 2025-05-21 09:44:21*
%MOMM*%
%LPD*%
G01*
G04 APERTURE LIST*
G04 Aperture macros list*
%AMRoundRect*
0 Rectangle with rounded corners*
0 $1 Rounding radius*
0 $2 $3 $4 $5 $6 $7 $8 $9 X,Y pos of 4 corners*
0 Add a 4 corners polygon primitive as box body*
4,1,4,$2,$3,$4,$5,$6,$7,$8,$9,$2,$3,0*
0 Add four circle primitives for the rounded corners*
1,1,$1+$1,$2,$3*
1,1,$1+$1,$4,$5*
1,1,$1+$1,$6,$7*
1,1,$1+$1,$8,$9*
0 Add four rect primitives between the rounded corners*
20,1,$1+$1,$2,$3,$4,$5,0*
20,1,$1+$1,$4,$5,$6,$7,0*
20,1,$1+$1,$6,$7,$8,$9,0*
20,1,$1+$1,$8,$9,$2,$3,0*%
G04 Aperture macros list end*
%TA.AperFunction,ComponentPad*%
%ADD10RoundRect,0.250000X-0.600000X-0.725000X0.600000X-0.725000X0.600000X0.725000X-0.600000X0.725000X0*%
%TD*%
%TA.AperFunction,ComponentPad*%
%ADD11O,1.700000X1.950000*%
%TD*%
%TA.AperFunction,ComponentPad*%
%ADD12C,5.600000*%
%TD*%
%TA.AperFunction,HeatsinkPad*%
%ADD13C,0.600000*%
%TD*%
%TA.AperFunction,HeatsinkPad*%
%ADD14O,2.100000X1.000000*%
%TD*%
%TA.AperFunction,HeatsinkPad*%
%ADD15O,1.800000X1.000000*%
%TD*%
%TA.AperFunction,ViaPad*%
%ADD16C,0.600000*%
%TD*%
%TA.AperFunction,ViaPad*%
%ADD17C,1.600000*%
%TD*%
%TA.AperFunction,Conductor*%
%ADD18C,1.000000*%
%TD*%
%TA.AperFunction,Conductor*%
%ADD19C,0.200000*%
%TD*%
G04 APERTURE END LIST*
D10*
%TO.P,J3,1,Pin_1*%
%TO.N,GND*%
X108710000Y-91840000D03*
D11*
%TO.P,J3,2,Pin_2*%
%TO.N,+3.3V*%
X111210000Y-91840000D03*
%TO.P,J3,3,Pin_3*%
%TO.N,SCLK*%
X113710000Y-91840000D03*
%TO.P,J3,4,Pin_4*%
%TO.N,RES3*%
X116210000Y-91840000D03*
%TO.P,J3,5,Pin_5*%
%TO.N,DC3*%
X118710000Y-91840000D03*
%TO.P,J3,6,Pin_6*%
%TO.N,CS{slash}SS3*%
X121210000Y-91840000D03*
%TO.P,J3,7,Pin_7*%
%TO.N,GPIO5*%
X123710000Y-91840000D03*
%TO.P,J3,8,Pin_8*%
%TO.N,GPIO6*%
X126210000Y-91840000D03*
%TO.P,J3,9,Pin_9*%
%TO.N,VIB3*%
X128710000Y-91840000D03*
%TD*%
D10*
%TO.P,J4,1,Pin_1*%
%TO.N,GND*%
X108710000Y-98740000D03*
D11*
%TO.P,J4,2,Pin_2*%
%TO.N,+3.3V*%
X111210000Y-98740000D03*
%TO.P,J4,3,Pin_3*%
%TO.N,SCLK*%
X113710000Y-98740000D03*
%TO.P,J4,4,Pin_4*%
%TO.N,RES4*%
X116210000Y-98740000D03*
%TO.P,J4,5,Pin_5*%
%TO.N,DC4*%
X118710000Y-98740000D03*
%TO.P,J4,6,Pin_6*%
%TO.N,CS{slash}SS4*%
X121210000Y-98740000D03*
%TO.P,J4,7,Pin_7*%
%TO.N,GPIO7*%
X123710000Y-98740000D03*
%TO.P,J4,8,Pin_8*%
%TO.N,GPIO8*%
X126210000Y-98740000D03*
%TO.P,J4,9,Pin_9*%
%TO.N,VIB4*%
X128710000Y-98740000D03*
%TD*%
D12*
%TO.P,REF\u002A\u002A,1*%
%TO.N,N/C*%
X163700000Y-101100000D03*
%TD*%
D10*
%TO.P,J2,1,Pin_1*%
%TO.N,GND*%
X135730000Y-98740000D03*
D11*
%TO.P,J2,2,Pin_2*%
%TO.N,+3.3V*%
X138230000Y-98740000D03*
%TO.P,J2,3,Pin_3*%
%TO.N,SCLK*%
X140730000Y-98740000D03*
%TO.P,J2,4,Pin_4*%
%TO.N,RES2*%
X143230000Y-98740000D03*
%TO.P,J2,5,Pin_5*%
%TO.N,DC2*%
X145730000Y-98740000D03*
%TO.P,J2,6,Pin_6*%
%TO.N,CS{slash}SS2*%
X148230000Y-98740000D03*
%TO.P,J2,7,Pin_7*%
%TO.N,GPIO3*%
X150730000Y-98740000D03*
%TO.P,J2,8,Pin_8*%
%TO.N,GPIO4*%
X153230000Y-98740000D03*
%TO.P,J2,9,Pin_9*%
%TO.N,VIB2*%
X155730000Y-98740000D03*
%TD*%
D12*
%TO.P,REF\u002A\u002A,1*%
%TO.N,N/C*%
X163800000Y-53200000D03*
%TD*%
%TO.P,REF\u002A\u002A,1*%
%TO.N,N/C*%
X100800000Y-53200000D03*
%TD*%
D13*
%TO.P,U1,41,GND*%
%TO.N,GND*%
X133600000Y-73320000D03*
X133600000Y-74720000D03*
X134300000Y-72620000D03*
X134300000Y-74020000D03*
X134300000Y-75420000D03*
X135000000Y-73320000D03*
X135000000Y-74720000D03*
X135700000Y-72620000D03*
X135700000Y-74020000D03*
X135700000Y-75420000D03*
X136400000Y-73320000D03*
X136400000Y-74720000D03*
%TD*%
D12*
%TO.P,REF\u002A\u002A,1*%
%TO.N,N/C*%
X100700000Y-101100000D03*
%TD*%
D10*
%TO.P,J1,1,Pin_1*%
%TO.N,GND*%
X135730000Y-91840000D03*
D11*
%TO.P,J1,2,Pin_2*%
%TO.N,+3.3V*%
X138230000Y-91840000D03*
%TO.P,J1,3,Pin_3*%
%TO.N,SCLK*%
X140730000Y-91840000D03*
%TO.P,J1,4,Pin_4*%
%TO.N,RES1*%
X143230000Y-91840000D03*
%TO.P,J1,5,Pin_5*%
%TO.N,DC1*%
X145730000Y-91840000D03*
%TO.P,J1,6,Pin_6*%
%TO.N,CS{slash}SS1*%
X148230000Y-91840000D03*
%TO.P,J1,7,Pin_7*%
%TO.N,GPIO1*%
X150730000Y-91840000D03*
%TO.P,J1,8,Pin_8*%
%TO.N,GPIO2*%
X153230000Y-91840000D03*
%TO.P,J1,9,Pin_9*%
%TO.N,VIB1*%
X155730000Y-91840000D03*
%TD*%
D14*
%TO.P,J6,S1,SHIELD*%
%TO.N,GND*%
X104315000Y-78030000D03*
D15*
X100135000Y-78030000D03*
D14*
X104315000Y-86670000D03*
D15*
X100135000Y-86670000D03*
%TD*%
D16*
%TO.N,GND*%
X106200000Y-53950000D03*
X153250000Y-88150000D03*
X154250000Y-89250000D03*
D17*
%TO.N,+3.3V*%
X101750000Y-65750000D03*
X117250000Y-75300000D03*
X107500000Y-75300000D03*
X128000000Y-87750000D03*
D16*
%TO.N,GND*%
X123500000Y-84500000D03*
X113000000Y-80000000D03*
X109250000Y-80750000D03*
X152000000Y-90000000D03*
X130500000Y-94750000D03*
X109250000Y-78000000D03*
X123750000Y-96500000D03*
X154860000Y-77780000D03*
X100420000Y-64660000D03*
X156600000Y-89200000D03*
X153250000Y-77750000D03*
X148500000Y-95250000D03*
X107500000Y-78000000D03*
X113750000Y-85750000D03*
X120000000Y-76000000D03*
X115000000Y-84750000D03*
X99960000Y-70430000D03*
X102460000Y-72930000D03*
X133600000Y-91100000D03*
X99960000Y-72930000D03*
X149750000Y-96500000D03*
X147250000Y-94000000D03*
X140250000Y-88000000D03*
X111510000Y-68190000D03*
X115750000Y-81750000D03*
X143000000Y-97000000D03*
X114600000Y-97100000D03*
X110000000Y-83000000D03*
X155200000Y-88000000D03*
X116510000Y-70690000D03*
X141750000Y-93750000D03*
X154200000Y-86900000D03*
X123750000Y-94250000D03*
X98970000Y-68940000D03*
X141500000Y-95750000D03*
X112750000Y-85750000D03*
X151750000Y-83500000D03*
X130500000Y-97250000D03*
X111250000Y-78000000D03*
X110500000Y-87250000D03*
X133500000Y-95750000D03*
X142750000Y-94750000D03*
X133250000Y-97000000D03*
X119000000Y-84500000D03*
X114010000Y-68190000D03*
X108500000Y-83000000D03*
X113000000Y-78000000D03*
X125750000Y-77500000D03*
X115260000Y-69440000D03*
X157360000Y-80280000D03*
X129700000Y-96500000D03*
X151100000Y-88200000D03*
X123500000Y-77500000D03*
X126500000Y-96500000D03*
X144750000Y-94000000D03*
X132500000Y-94500000D03*
X112510000Y-69440000D03*
X150750000Y-75500000D03*
X99160000Y-82090000D03*
X150750000Y-77000000D03*
X121250000Y-78000000D03*
X114010000Y-70690000D03*
X153250000Y-79250000D03*
X158610000Y-79030000D03*
X101210000Y-71680000D03*
X124300000Y-85000000D03*
X135000000Y-97000000D03*
X98460000Y-71680000D03*
X145750000Y-95250000D03*
X150750000Y-81750000D03*
X130500000Y-99300000D03*
X99170000Y-63410000D03*
X106750000Y-83000000D03*
X119250000Y-79250000D03*
X115000000Y-86250000D03*
X155860000Y-79030000D03*
X121200000Y-84700000D03*
X98160000Y-80840000D03*
X111750000Y-81750000D03*
X115000000Y-80000000D03*
X150750000Y-83500000D03*
X115700000Y-95200000D03*
X100660000Y-83340000D03*
X136500000Y-94000000D03*
X121000000Y-93500000D03*
X115000000Y-83500000D03*
X142250000Y-88500000D03*
X115000000Y-78000000D03*
X114700000Y-93400000D03*
X141500000Y-87000000D03*
X145000000Y-96750000D03*
X116600000Y-97100000D03*
X147250000Y-96500000D03*
X116600000Y-93400000D03*
X159860000Y-80280000D03*
X144000000Y-95750000D03*
X100660000Y-80840000D03*
X101910000Y-82090000D03*
X142000000Y-90000000D03*
X157360000Y-77780000D03*
X105770000Y-91580000D03*
X142800000Y-85400000D03*
X121500000Y-96500000D03*
%TO.N,RES1*%
X146500000Y-84000000D03*
X146500000Y-81500000D03*
%TO.N,scl*%
X117500000Y-72200000D03*
X127750000Y-70250000D03*
%TO.N,sda*%
X127750000Y-71380000D03*
X111450000Y-72200000D03*
%TO.N,reset*%
X127780000Y-68880000D03*
X121750000Y-69050000D03*
%TO.N,CS{slash}SS1*%
X133250000Y-86000000D03*
%TO.N,GPIO5*%
X150539743Y-74291208D03*
X148541208Y-74291208D03*
%TO.N,GPIO8*%
X123750000Y-79000000D03*
%TO.N,DC4*%
X136750000Y-89250000D03*
X137750000Y-88250000D03*
%TO.N,RES2*%
X151000000Y-80250000D03*
X148250000Y-80250000D03*
%TO.N,GPIO6*%
X151250000Y-72750000D03*
X148500000Y-72750000D03*
X131750000Y-99750000D03*
%TO.N,CS{slash}SS2*%
X134000000Y-86750000D03*
%TO.N,CS{slash}SS3*%
X126250000Y-85750000D03*
X138405000Y-84060000D03*
X121900000Y-85800000D03*
%TO.N,CS{slash}SS4*%
X121375000Y-76125000D03*
%TO.N,GPIO3*%
X129500000Y-86500000D03*
%TO.N,RES3*%
X148250000Y-79000000D03*
%TO.N,GPIO7*%
X122375000Y-75000000D03*
%TO.N,DC2*%
X131450003Y-86500000D03*
%TO.N,GPIO4*%
X147250000Y-76000000D03*
X148575736Y-81424264D03*
%TO.N,DC3*%
X135967159Y-88661158D03*
X137000000Y-87500000D03*
%TO.N,RES4*%
X148250000Y-77730000D03*
%TO.N,VIB2*%
X153100000Y-94800000D03*
X141600000Y-81400000D03*
%TO.N,VIB1*%
X139675000Y-84060000D03*
X151721827Y-94278173D03*
%TO.N,VIB3*%
X126600000Y-83900000D03*
X127700000Y-79100000D03*
X127400000Y-85900000D03*
%TO.N,VIB4*%
X129611203Y-94100000D03*
X130300000Y-82300000D03*
X128750000Y-95500000D03*
%TD*%
D18*
%TO.N,+3.3V*%
X137650000Y-98150000D02*
X138250000Y-98750000D01*
X117250000Y-85750000D02*
X113500000Y-89500000D01*
X128000000Y-88130000D02*
X137650000Y-97780000D01*
X101750000Y-65750000D02*
X101750000Y-69500000D01*
X101750000Y-69500000D02*
X107500000Y-75250000D01*
X113500000Y-89500000D02*
X113430000Y-89500000D01*
X113430000Y-89500000D02*
X111140000Y-91790000D01*
X128000000Y-87750000D02*
X128000000Y-88130000D01*
X137650000Y-97780000D02*
X137650000Y-98150000D01*
X117250000Y-75500000D02*
X117250000Y-85750000D01*
D19*
%TO.N,GND*%
X135730000Y-91840000D02*
X135730000Y-93230000D01*
X135730000Y-93230000D02*
X136500000Y-94000000D01*
%TO.N,RES1*%
X146500000Y-84000000D02*
X146500000Y-81500000D01*
%TO.N,scl*%
X125800000Y-72200000D02*
X127750000Y-70250000D01*
X117500000Y-72200000D02*
X125800000Y-72200000D01*
%TO.N,sda*%
X126450000Y-72800000D02*
X127750000Y-71500000D01*
X112050000Y-72800000D02*
X126450000Y-72800000D01*
X111450000Y-72200000D02*
X112050000Y-72800000D01*
%TO.N,reset*%
X127610000Y-69050000D02*
X127780000Y-68880000D01*
X121750000Y-69050000D02*
X127610000Y-69050000D01*
%TO.N,CS{slash}SS1*%
X142500000Y-86000000D02*
X148250000Y-91750000D01*
X133250000Y-86000000D02*
X142500000Y-86000000D01*
%TO.N,GPIO5*%
X148541208Y-74291208D02*
X150539743Y-74291208D01*
%TO.N,GPIO8*%
X125000000Y-97390000D02*
X126380000Y-98770000D01*
X123750000Y-79750000D02*
X125000000Y-81000000D01*
X123750000Y-79000000D02*
X123750000Y-79750000D01*
X125000000Y-81000000D02*
X125000000Y-97390000D01*
%TO.N,DC4*%
X136750000Y-89250000D02*
X137750000Y-88250000D01*
%TO.N,RES2*%
X151000000Y-80250000D02*
X148250000Y-80250000D01*
%TO.N,GPIO6*%
X151250000Y-72750000D02*
X148500000Y-72750000D01*
X131750000Y-97330000D02*
X131750000Y-99750000D01*
X126380000Y-91960000D02*
X131750000Y-97330000D01*
X126380000Y-91790000D02*
X126380000Y-91960000D01*
%TO.N,CS{slash}SS2*%
X134000000Y-86750000D02*
X134250000Y-86500000D01*
X137170000Y-86500000D02*
X141970000Y-91300000D01*
X141970000Y-92470000D02*
X148250000Y-98750000D01*
X141970000Y-91300000D02*
X141970000Y-92470000D01*
X134250000Y-86500000D02*
X137170000Y-86500000D01*
%TO.N,CS{slash}SS3*%
X121300000Y-86400000D02*
X121300000Y-91790000D01*
X121900000Y-85800000D02*
X121300000Y-86400000D01*
X138405000Y-84060000D02*
X127940000Y-84060000D01*
X127940000Y-84060000D02*
X126250000Y-85750000D01*
%TO.N,CS{slash}SS4*%
X121375000Y-76125000D02*
X119990000Y-77510000D01*
X119990000Y-97460000D02*
X121300000Y-98770000D01*
X121375000Y-76125000D02*
X121500000Y-76000000D01*
X119990000Y-77510000D02*
X119990000Y-97460000D01*
%TO.N,GPIO3*%
X150730000Y-98770000D02*
X150860000Y-98770000D01*
X148750000Y-100750000D02*
X140860000Y-100750000D01*
X139480000Y-99370000D02*
X139480000Y-98139009D01*
X139480000Y-98139009D02*
X129500000Y-88159009D01*
X150750000Y-98750000D02*
X150050000Y-99450000D01*
X140860000Y-100750000D02*
X139480000Y-99370000D01*
X150050000Y-99450000D02*
X148750000Y-100750000D01*
X129500000Y-88159009D02*
X129500000Y-86500000D01*
X150050000Y-99450000D02*
X150730000Y-98770000D01*
%TO.N,RES3*%
X152600000Y-80850000D02*
X150750000Y-79000000D01*
X153950000Y-101150000D02*
X154440000Y-100660000D01*
X117440000Y-99380000D02*
X119210000Y-101150000D01*
X154440000Y-90960190D02*
X152600000Y-89120190D01*
X150750000Y-79000000D02*
X148250000Y-79000000D01*
X119210000Y-101150000D02*
X153950000Y-101150000D01*
X152600000Y-89120190D02*
X152600000Y-80850000D01*
X117440000Y-93010000D02*
X117440000Y-99380000D01*
X116220000Y-91790000D02*
X117440000Y-93010000D01*
X154440000Y-100660000D02*
X154440000Y-90960190D01*
%TO.N,GPIO7*%
X122500000Y-97430000D02*
X122500000Y-75125000D01*
X123840000Y-98770000D02*
X122500000Y-97430000D01*
X122500000Y-75125000D02*
X122375000Y-75000000D01*
%TO.N,DC2*%
X132750000Y-86500000D02*
X137000000Y-90750000D01*
X141930000Y-99530000D02*
X142510000Y-100110000D01*
X142510000Y-100110000D02*
X144390000Y-100110000D01*
X144390000Y-100110000D02*
X145050000Y-99450000D01*
X145100000Y-99450000D02*
X145780000Y-98770000D01*
X137000000Y-93250000D02*
X141930000Y-98180000D01*
X145050000Y-99450000D02*
X145750000Y-98750000D01*
X141930000Y-98180000D02*
X141930000Y-99530000D01*
X131450003Y-86500000D02*
X132750000Y-86500000D01*
X145050000Y-99450000D02*
X145100000Y-99450000D01*
X137000000Y-90750000D02*
X137000000Y-93250000D01*
%TO.N,GPIO4*%
X147250000Y-76000000D02*
X147250000Y-80098529D01*
X147250001Y-80098529D02*
X148575736Y-81424264D01*
X147250000Y-80098529D02*
X147250001Y-80098529D01*
%TO.N,DC3*%
X137000000Y-87500000D02*
X136000000Y-88500000D01*
X118750000Y-91750000D02*
X119250000Y-92250000D01*
%TO.N,RES4*%
X157700000Y-91400000D02*
X153000000Y-86700000D01*
X119000000Y-101550000D02*
X155750000Y-101550000D01*
X155750000Y-101550000D02*
X157700000Y-99600000D01*
X157700000Y-99600000D02*
X157700000Y-91400000D01*
X153000000Y-86700000D02*
X153000000Y-80016747D01*
X116220000Y-98770000D02*
X119000000Y-101550000D01*
X153000000Y-80016747D02*
X150713253Y-77730000D01*
X150713253Y-77730000D02*
X148250000Y-77730000D01*
%TO.N,VIB2*%
X152000000Y-90900000D02*
X152000000Y-93700000D01*
X152000000Y-93700000D02*
X153100000Y-94800000D01*
X141600000Y-81400000D02*
X142500000Y-81400000D01*
X142500000Y-81400000D02*
X152000000Y-90900000D01*
%TO.N,VIB1*%
X142308529Y-84060000D02*
X149490000Y-91241471D01*
X139675000Y-84060000D02*
X142308529Y-84060000D01*
X149490000Y-91241471D02*
X149490000Y-92481733D01*
X149490000Y-92481733D02*
X151286440Y-94278173D01*
X151286440Y-94278173D02*
X151721827Y-94278173D01*
%TO.N,VIB3*%
X126900000Y-89770000D02*
X126900000Y-86400000D01*
X126900000Y-86400000D02*
X127400000Y-85900000D01*
X126600000Y-83900000D02*
X127700000Y-82800000D01*
X127700000Y-82800000D02*
X127700000Y-79100000D01*
X128920000Y-91790000D02*
X126900000Y-89770000D01*
%TO.N,VIB4*%
X127500000Y-91283654D02*
X127500000Y-92500000D01*
X125600000Y-85400000D02*
X125600000Y-89383654D01*
X129134314Y-82300000D02*
X126334314Y-85100000D01*
X128750000Y-95500000D02*
X128750000Y-98600000D01*
X125900000Y-85100000D02*
X125600000Y-85400000D01*
X129100000Y-94100000D02*
X129600000Y-94100000D01*
X125600000Y-89383654D02*
X127500000Y-91283654D01*
X126334314Y-85100000D02*
X125900000Y-85100000D01*
X127500000Y-92500000D02*
X129100000Y-94100000D01*
X128750000Y-98600000D02*
X128920000Y-98770000D01*
X130300000Y-82300000D02*
X129134314Y-82300000D01*
%TD*%
%TA.AperFunction,Conductor*%
%TO.N,GND*%
G36*
X129563652Y-95992887D02*
G01*
X131113181Y-97542416D01*
X131146666Y-97603739D01*
X131149500Y-97630097D01*
X131149500Y-99167587D01*
X131129815Y-99234626D01*
X131122450Y-99244896D01*
X131120186Y-99247734D01*
X131024211Y-99400476D01*
X130964631Y-99570745D01*
X130964630Y-99570750D01*
X130944435Y-99749996D01*
X130944435Y-99750003D01*
X130964630Y-99929249D01*
X130964631Y-99929254D01*
X131024211Y-100099523D01*
X131120184Y-100252262D01*
X131205741Y-100337819D01*
X131239226Y-100399142D01*
X131234242Y-100468834D01*
X131192370Y-100524767D01*
X131126906Y-100549184D01*
X131118060Y-100549500D01*
X119510097Y-100549500D01*
X119443058Y-100529815D01*
X119422416Y-100513181D01*
X119214867Y-100305632D01*
X119181382Y-100244309D01*
X119186366Y-100174617D01*
X119228238Y-100118684D01*
X119246247Y-100107469D01*
X119417816Y-100020051D01*
X119494849Y-99964084D01*
X119589786Y-99895109D01*
X119589788Y-99895106D01*
X119589792Y-99895104D01*
X119740104Y-99744792D01*
X119859683Y-99580204D01*
X119915011Y-99537540D01*
X119984624Y-99531561D01*
X120046420Y-99564166D01*
X120060313Y-99580199D01*
X120134119Y-99681785D01*
X120179896Y-99744792D01*
X120330213Y-99895109D01*
X120502179Y-100020048D01*
X120502181Y-100020049D01*
X120502184Y-100020051D01*
X120691588Y-100116557D01*
X120893757Y-100182246D01*
X121103713Y-100215500D01*
X121103714Y-100215500D01*
X121316286Y-100215500D01*
X121316287Y-100215500D01*
X121526243Y-100182246D01*
X121728412Y-100116557D01*
X121917816Y-100020051D01*
X121994849Y-99964084D01*
X122089786Y-99895109D01*
X122089788Y-99895106D01*
X122089792Y-99895104D01*
X122240104Y-99744792D01*
X122359683Y-99580204D01*
X122415011Y-99537540D01*
X122484624Y-99531561D01*
X122546420Y-99564166D01*
X122560313Y-99580199D01*
X122634119Y-99681785D01*
X122679896Y-99744792D01*
X122830213Y-99895109D01*
X123002179Y-100020048D01*
X123002181Y-100020049D01*
X123002184Y-100020051D01*
X123191588Y-100116557D01*
X123393757Y-100182246D01*
X123603713Y-100215500D01*
X123603714Y-100215500D01*
X123816286Y-100215500D01*
X123816287Y-100215500D01*
X124026243Y-100182246D01*
X124228412Y-100116557D01*
X124417816Y-100020051D01*
X124494849Y-99964084D01*
X124589786Y-99895109D01*
X124589788Y-99895106D01*
X124589792Y-99895104D01*
X124740104Y-99744792D01*
X124859683Y-99580204D01*
X124915011Y-99537540D01*
X124984624Y-99531561D01*
X125046420Y-99564166D01*
X125060313Y-99580199D01*
X125134119Y-99681785D01*
X125179896Y-99744792D01*
X125330213Y-99895109D01*
X125502179Y-100020048D01*
X125502181Y-100020049D01*
X125502184Y-100020051D01*
X125691588Y-100116557D01*
X125893757Y-100182246D01*
X126103713Y-100215500D01*
X126103714Y-100215500D01*
X126316286Y-100215500D01*
X126316287Y-100215500D01*
X126526243Y-100182246D01*
X126728412Y-100116557D01*
X126917816Y-100020051D01*
X126994849Y-99964084D01*
X127089786Y-99895109D01*
X127089788Y-99895106D01*
X127089792Y-99895104D01*
X127240104Y-99744792D01*
X127359683Y-99580204D01*
X127415011Y-99537540D01*
X127484624Y-99531561D01*
X127546420Y-99564166D01*
X127560313Y-99580199D01*
X127634119Y-99681785D01*
X127679896Y-99744792D01*
X127830213Y-99895109D01*
X128002179Y-100020048D01*
X128002181Y-100020049D01*
X128002184Y-100020051D01*
X128191588Y-100116557D01*
X128393757Y-100182246D01*
X128603713Y-100215500D01*
X128603714Y-100215500D01*
X128816286Y-100215500D01*
X128816287Y-100215500D01*
X129026243Y-100182246D01*
X129228412Y-100116557D01*
X129417816Y-100020051D01*
X129494849Y-99964084D01*
X129589786Y-99895109D01*
X129589788Y-99895106D01*
X129589792Y-99895104D01*
X129740104Y-99744792D01*
X129740106Y-99744788D01*
X129740109Y-99744786D01*
X129865048Y-99572820D01*
X129865047Y-99572820D01*
X129865051Y-99572816D01*
X129961557Y-99383412D01*
X130027246Y-99181243D01*
X130060500Y-98971287D01*
X130060500Y-98508713D01*
X130027246Y-98298757D01*
X129961557Y-98096588D01*
X129865051Y-97907184D01*
X129865049Y-97907181D01*
X129865048Y-97907179D01*
X129740109Y-97735213D01*
X129589786Y-97584890D01*
X129417815Y-97459948D01*
X129413664Y-97457404D01*
X129414262Y-97456426D01*
X129367405Y-97412165D01*
X129350500Y-97349662D01*
X129350500Y-96082413D01*
X129370185Y-96015374D01*
X129377544Y-96005111D01*
X129379015Y-96003266D01*
X129436199Y-95963119D01*
X129506010Y-95960262D01*
X129563652Y-95992887D01*
G37*
%TD.AperFunction*%
%TA.AperFunction,Conductor*%
G36*
X130265703Y-91811069D02*
G01*
X130272181Y-91817101D01*
X135508399Y-97053319D01*
X135541884Y-97114642D01*
X135536900Y-97184334D01*
X135495028Y-97240267D01*
X135429564Y-97264684D01*
X135420718Y-97265000D01*
X135080029Y-97265000D01*
X135080012Y-97265001D01*
X134977302Y-97275494D01*
X134810880Y-97330641D01*
X134810875Y-97330643D01*
X134661654Y-97422684D01*
X134537684Y-97546654D01*
X134445643Y-97695875D01*
X134445641Y-97695880D01*
X134390494Y-97862302D01*
X134390493Y-97862309D01*
X134380000Y-97965013D01*
X134380000Y-98490000D01*
X135325854Y-98490000D01*
X135287370Y-98556657D01*
X135255000Y-98677465D01*
X135255000Y-98802535D01*
X135287370Y-98923343D01*
X135325854Y-98990000D01*
X134380001Y-98990000D01*
X134380001Y-99514986D01*
X134390494Y-99617697D01*
X134445641Y-99784119D01*
X134445643Y-99784124D01*
X134537684Y-99933345D01*
X134661654Y-100057315D01*
X134810875Y-100149356D01*
X134810880Y-100149358D01*
X134977302Y-100204505D01*
X134977309Y-100204506D01*
X135080019Y-100214999D01*
X135479999Y-100214999D01*
X135480000Y-100214998D01*
X135480000Y-99144145D01*
X135546657Y-99182630D01*
X135667465Y-99215000D01*
X135792535Y-99215000D01*
X135913343Y-99182630D01*
X135980000Y-99144145D01*
X135980000Y-100214999D01*
X136379972Y-100214999D01*
X136379986Y-100214998D01*
X136482697Y-100204505D01*
X136649119Y-100149358D01*
X136649124Y-100149356D01*
X136798345Y-100057315D01*
X136922317Y-99933343D01*
X137017815Y-99778516D01*
X137069763Y-99731791D01*
X137138725Y-99720568D01*
X137202808Y-99748412D01*
X137211035Y-99755931D01*
X137350213Y-99895109D01*
X137522179Y-100020048D01*
X137522181Y-100020049D01*
X137522184Y-100020051D01*
X137711588Y-100116557D01*
X137913757Y-100182246D01*
X138123713Y-100215500D01*
X138123714Y-100215500D01*
X138336286Y-100215500D01*
X138336287Y-100215500D01*
X138546243Y-100182246D01*
X138748412Y-100116557D01*
X138937816Y-100020051D01*
X139050800Y-99937964D01*
X139116606Y-99914484D01*
X139184660Y-99930309D01*
X139211366Y-99950601D01*
X139598583Y-100337819D01*
X139632068Y-100399142D01*
X139627084Y-100468834D01*
X139585212Y-100524767D01*
X139519748Y-100549184D01*
X139510902Y-100549500D01*
X132381940Y-100549500D01*
X132314901Y-100529815D01*
X132269146Y-100477011D01*
X132259202Y-100407853D01*
X132288227Y-100344297D01*
X132294259Y-100337819D01*
X132326446Y-100305632D01*
X132379816Y-100252262D01*
X132475789Y-100099522D01*
X132535368Y-99929255D01*
X132535827Y-99925181D01*
X132555565Y-99750003D01*
X132555565Y-99749996D01*
X132535369Y-99570750D01*
X132535368Y-99570745D01*
X132521657Y-99531561D01*
X132475789Y-99400478D01*
X132472926Y-99395922D01*
X132442645Y-99347730D01*
X132379816Y-99247738D01*
X132379814Y-99247736D01*
X132379813Y-99247734D01*
X132377550Y-99244896D01*
X132376659Y-99242715D01*
X132376111Y-99241842D01*
X132376264Y-99241745D01*
X132351144Y-99180209D01*
X132350500Y-99167587D01*
X132350500Y-97419059D01*
X132350501Y-97419046D01*
X132350501Y-97250945D01*
X132350501Y-97250943D01*
X132309577Y-97098215D01*
X132280639Y-97048095D01*
X132230520Y-96961284D01*
X132118716Y-96849480D01*
X132118715Y-96849479D01*
X132114385Y-96845149D01*
X132114374Y-96845139D01*
X130143939Y-94874704D01*
X130110454Y-94813381D01*
X130115438Y-94743689D01*
X130143939Y-94699342D01*
X130156933Y-94686348D01*
X130241019Y-94602262D01*
X130336992Y-94449522D01*
X130396571Y-94279255D01*
X130405981Y-94195741D01*
X130416768Y-94100003D01*
X130416768Y-94099996D01*
X130396572Y-93920750D01*
X130396571Y-93920745D01*
X130336991Y-93750476D01*
X130241018Y-93597737D01*
X130113465Y-93470184D01*
X129960726Y-93374211D01*
X129790457Y-93314631D01*
X129790452Y-93314630D01*
X129611207Y-93294435D01*
X129611199Y-93294435D01*
X129565089Y-93299630D01*
X129496267Y-93287575D01*
X129444888Y-93240226D01*
X129427264Y-93172615D01*
X129448991Y-93106210D01*
X129478318Y-93076093D01*
X129589792Y-92995104D01*
X129740104Y-92844792D01*
X129740106Y-92844788D01*
X129740109Y-92844786D01*
X129865048Y-92672820D01*
X129865047Y-92672820D01*
X129865051Y-92672816D01*
X129961557Y-92483412D01*
X130027246Y-92281243D01*
X130060500Y-92071287D01*
X130060500Y-91904782D01*
X130080185Y-91837743D01*
X130132989Y-91791988D01*
X130202147Y-91782044D01*
X130265703Y-91811069D01*
G37*
%TD.AperFunction*%
%TA.AperFunction,Conductor*%
G36*
X126826606Y-93255841D02*
G01*
X128257113Y-94686348D01*
X128290598Y-94747671D01*
X128285614Y-94817363D01*
X128251635Y-94864233D01*
X128252662Y-94865260D01*
X128120184Y-94997737D01*
X128024211Y-95150476D01*
X127964631Y-95320745D01*
X127964630Y-95320750D01*
X127944435Y-95499996D01*
X127944435Y-95500003D01*
X127964630Y-95679249D01*
X127964631Y-95679254D01*
X128024211Y-95849523D01*
X128045627Y-95883606D01*
X128114293Y-95992887D01*
X128120185Y-96002263D01*
X128122445Y-96005097D01*
X128123334Y-96007275D01*
X128123889Y-96008158D01*
X128123734Y-96008255D01*
X128148855Y-96069783D01*
X128149500Y-96082412D01*
X128149500Y-97308899D01*
X128129815Y-97375938D01*
X128081796Y-97419383D01*
X128002182Y-97459949D01*
X127830213Y-97584890D01*
X127679894Y-97735209D01*
X127679890Y-97735214D01*
X127560318Y-97899793D01*
X127504989Y-97942459D01*
X127435375Y-97948438D01*
X127373580Y-97915833D01*
X127359682Y-97899793D01*
X127240109Y-97735214D01*
X127240105Y-97735209D01*
X127089786Y-97584890D01*
X126917820Y-97459951D01*
X126728414Y-97363444D01*
X126728413Y-97363443D01*
X126728412Y-97363443D01*
X126526243Y-97297754D01*
X126526241Y-97297753D01*
X126526240Y-97297753D01*
X126364957Y-97272208D01*
X126316287Y-97264500D01*
X126103713Y-97264500D01*
X126034306Y-97275493D01*
X125893755Y-97297754D01*
X125862797Y-97307813D01*
X125792955Y-97309808D01*
X125736800Y-97277564D01*
X125636817Y-97177581D01*
X125603334Y-97116259D01*
X125600500Y-97089902D01*
X125600500Y-93357631D01*
X125620185Y-93290592D01*
X125672989Y-93244837D01*
X125742147Y-93234893D01*
X125762803Y-93239696D01*
X125893757Y-93282246D01*
X126103713Y-93315500D01*
X126103714Y-93315500D01*
X126316286Y-93315500D01*
X126316287Y-93315500D01*
X126526243Y-93282246D01*
X126700608Y-93225590D01*
X126770448Y-93223596D01*
X126826606Y-93255841D01*
G37*
%TD.AperFunction*%
%TA.AperFunction,Conductor*%
G36*
X139566420Y-92664166D02*
G01*
X139580313Y-92680199D01*
X139637772Y-92759285D01*
X139699896Y-92844792D01*
X139850213Y-92995109D01*
X140022179Y-93120048D01*
X140022181Y-93120049D01*
X140022184Y-93120051D01*
X140211588Y-93216557D01*
X140413757Y-93282246D01*
X140623713Y-93315500D01*
X140623714Y-93315500D01*
X140836286Y-93315500D01*
X140836287Y-93315500D01*
X141046243Y-93282246D01*
X141248412Y-93216557D01*
X141437816Y-93120051D01*
X141545008Y-93042171D01*
X141610814Y-93018692D01*
X141678868Y-93034517D01*
X141705574Y-93054809D01*
X145703798Y-97053033D01*
X145737283Y-97114356D01*
X145732299Y-97184048D01*
X145690427Y-97239981D01*
X145628463Y-97263349D01*
X145628525Y-97263738D01*
X145626643Y-97264036D01*
X145625861Y-97264331D01*
X145623710Y-97264500D01*
X145413760Y-97297753D01*
X145413757Y-97297754D01*
X145216679Y-97361789D01*
X145211585Y-97363444D01*
X145022179Y-97459951D01*
X144850213Y-97584890D01*
X144699894Y-97735209D01*
X144699890Y-97735214D01*
X144580318Y-97899793D01*
X144524989Y-97942459D01*
X144455375Y-97948438D01*
X144393580Y-97915833D01*
X144379682Y-97899793D01*
X144260109Y-97735214D01*
X144260105Y-97735209D01*
X144109786Y-97584890D01*
X143937820Y-97459951D01*
X143748414Y-97363444D01*
X143748413Y-97363443D01*
X143748412Y-97363443D01*
X143546243Y-97297754D01*
X143546241Y-97297753D01*
X143546240Y-97297753D01*
X143384957Y-97272208D01*
X143336287Y-97264500D01*
X143123713Y-97264500D01*
X143075042Y-97272208D01*
X142913760Y-97297753D01*
X142913757Y-97297754D01*
X142716679Y-97361789D01*
X142711585Y-97363444D01*
X142522180Y-97459951D01*
X142350210Y-97584893D01*
X142347785Y-97586965D01*
X142346676Y-97587461D01*
X142346267Y-97587759D01*
X142346204Y-97587672D01*
X142284020Y-97615529D01*
X142214936Y-97605084D01*
X142179582Y-97580347D01*
X138126416Y-93527181D01*
X138092931Y-93465858D01*
X138097915Y-93396166D01*
X138139787Y-93340233D01*
X138205251Y-93315816D01*
X138214097Y-93315500D01*
X138336286Y-93315500D01*
X138336287Y-93315500D01*
X138546243Y-93282246D01*
X138748412Y-93216557D01*
X138937816Y-93120051D01*
X139032403Y-93051330D01*
X139109786Y-92995109D01*
X139109788Y-92995106D01*
X139109792Y-92995104D01*
X139260104Y-92844792D01*
X139379683Y-92680204D01*
X139435011Y-92637540D01*
X139504624Y-92631561D01*
X139566420Y-92664166D01*
G37*
%TD.AperFunction*%
%TA.AperFunction,Conductor*%
G36*
X147066420Y-92664166D02*
G01*
X147080313Y-92680199D01*
X147137772Y-92759285D01*
X147199896Y-92844792D01*
X147350213Y-92995109D01*
X147522179Y-93120048D01*
X147522181Y-93120049D01*
X147522184Y-93120051D01*
X147711588Y-93216557D01*
X147913757Y-93282246D01*
X148123713Y-93315500D01*
X148123714Y-93315500D01*
X148336286Y-93315500D01*
X148336287Y-93315500D01*
X148546243Y-93282246D01*
X148748412Y-93216557D01*
X148937816Y-93120051D01*
X149049797Y-93038691D01*
X149115602Y-93015213D01*
X149183656Y-93031038D01*
X149210362Y-93051330D01*
X150801579Y-94642547D01*
X150801589Y-94642558D01*
X150805919Y-94646888D01*
X150805920Y-94646889D01*
X150917724Y-94758693D01*
X150944177Y-94773965D01*
X151004535Y-94808812D01*
X151004537Y-94808814D01*
X151054653Y-94837749D01*
X151054655Y-94837750D01*
X151151885Y-94863802D01*
X151207472Y-94895896D01*
X151219565Y-94907989D01*
X151267203Y-94937922D01*
X151362399Y-94997738D01*
X151372305Y-95003962D01*
X151542572Y-95063541D01*
X151542577Y-95063542D01*
X151721823Y-95083738D01*
X151721827Y-95083738D01*
X151721831Y-95083738D01*
X151901076Y-95063542D01*
X151901079Y-95063541D01*
X151901082Y-95063541D01*
X152071349Y-95003962D01*
X152081255Y-94997738D01*
X152146211Y-94956923D01*
X152213448Y-94937922D01*
X152280283Y-94958289D01*
X152325498Y-95011557D01*
X152329226Y-95020962D01*
X152374210Y-95149521D01*
X152470184Y-95302262D01*
X152597738Y-95429816D01*
X152750478Y-95525789D01*
X152920745Y-95585368D01*
X152920750Y-95585369D01*
X153099996Y-95605565D01*
X153100000Y-95605565D01*
X153100004Y-95605565D01*
X153279249Y-95585369D01*
X153279252Y-95585368D01*
X153279255Y-95585368D01*
X153449522Y-95525789D01*
X153602262Y-95429816D01*
X153627819Y-95404259D01*
X153689142Y-95370774D01*
X153758834Y-95375758D01*
X153814767Y-95417630D01*
X153839184Y-95483094D01*
X153839500Y-95491940D01*
X153839500Y-97222368D01*
X153819815Y-97289407D01*
X153767011Y-97335162D01*
X153697853Y-97345106D01*
X153677182Y-97340299D01*
X153674612Y-97339464D01*
X153546243Y-97297754D01*
X153546240Y-97297753D01*
X153384957Y-97272208D01*
X153336287Y-97264500D01*
X153123713Y-97264500D01*
X153075042Y-97272208D01*
X152913760Y-97297753D01*
X152913757Y-97297754D01*
X152716679Y-97361789D01*
X152711585Y-97363444D01*
X152522179Y-97459951D01*
X152350213Y-97584890D01*
X152199894Y-97735209D01*
X152199890Y-97735214D01*
X152080318Y-97899793D01*
X152024989Y-97942459D01*
X151955375Y-97948438D01*
X151893580Y-97915833D01*
X151879682Y-97899793D01*
X151760109Y-97735214D01*
X151760105Y-97735209D01*
X151609786Y-97584890D01*
X151437820Y-97459951D01*
X151248414Y-97363444D01*
X151248413Y-97363443D01*
X151248412Y-97363443D01*
X151046243Y-97297754D01*
X151046241Y-97297753D01*
X151046240Y-97297753D01*
X150884957Y-97272208D01*
X150836287Y-97264500D01*
X150623713Y-97264500D01*
X150575042Y-97272208D01*
X150413760Y-97297753D01*
X150413757Y-97297754D01*
X150216679Y-97361789D01*
X150211585Y-97363444D01*
X150022179Y-97459951D01*
X149850213Y-97584890D01*
X149699894Y-97735209D01*
X149699890Y-97735214D01*
X149580318Y-97899793D01*
X149524989Y-97942459D01*
X149455375Y-97948438D01*
X149393580Y-97915833D01*
X149379682Y-97899793D01*
X149260109Y-97735214D01*
X149260105Y-97735209D01*
X149109786Y-97584890D01*
X148937820Y-97459951D01*
X148748414Y-97363444D01*
X148748413Y-97363443D01*
X148748412Y-97363443D01*
X148546243Y-97297754D01*
X148546241Y-97297753D01*
X148546240Y-97297753D01*
X148384957Y-97272208D01*
X148336287Y-97264500D01*
X148123713Y-97264500D01*
X148081721Y-97271150D01*
X147913753Y-97297754D01*
X147784676Y-97339693D01*
X147714835Y-97341688D01*
X147658678Y-97309443D01*
X143748116Y-93398881D01*
X143714631Y-93337558D01*
X143719615Y-93267866D01*
X143761487Y-93211933D01*
X143779499Y-93200717D01*
X143937816Y-93120051D01*
X144045008Y-93042172D01*
X144109786Y-92995109D01*
X144109788Y-92995106D01*
X144109792Y-92995104D01*
X144260104Y-92844792D01*
X144379683Y-92680204D01*
X144435011Y-92637540D01*
X144504624Y-92631561D01*
X144566420Y-92664166D01*
X144580313Y-92680199D01*
X144637772Y-92759285D01*
X144699896Y-92844792D01*
X144850213Y-92995109D01*
X145022179Y-93120048D01*
X145022181Y-93120049D01*
X145022184Y-93120051D01*
X145211588Y-93216557D01*
X145413757Y-93282246D01*
X145623713Y-93315500D01*
X145623714Y-93315500D01*
X145836286Y-93315500D01*
X145836287Y-93315500D01*
X146046243Y-93282246D01*
X146248412Y-93216557D01*
X146437816Y-93120051D01*
X146532403Y-93051330D01*
X146609786Y-92995109D01*
X146609788Y-92995106D01*
X146609792Y-92995104D01*
X146760104Y-92844792D01*
X146879683Y-92680204D01*
X146935011Y-92637540D01*
X147004624Y-92631561D01*
X147066420Y-92664166D01*
G37*
%TD.AperFunction*%
%TA.AperFunction,Conductor*%
G36*
X135980000Y-93314999D02*
G01*
X136300584Y-93314999D01*
X136367623Y-93334684D01*
X136413378Y-93387488D01*
X136420357Y-93406901D01*
X136440423Y-93481785D01*
X136450651Y-93499500D01*
X136519477Y-93618712D01*
X136519481Y-93618717D01*
X136638349Y-93737585D01*
X136638355Y-93737590D01*
X140125763Y-97224998D01*
X140159248Y-97286321D01*
X140154264Y-97356013D01*
X140112392Y-97411946D01*
X140094378Y-97423163D01*
X140022183Y-97459948D01*
X139892396Y-97554243D01*
X139826590Y-97577722D01*
X139758536Y-97561896D01*
X139731831Y-97541605D01*
X135516319Y-93326093D01*
X135482834Y-93264770D01*
X135480000Y-93238412D01*
X135480000Y-92244145D01*
X135546657Y-92282630D01*
X135667465Y-92315000D01*
X135792535Y-92315000D01*
X135913343Y-92282630D01*
X135980000Y-92244145D01*
X135980000Y-93314999D01*
G37*
%TD.AperFunction*%
%TA.AperFunction,Conductor*%
G36*
X121859999Y-93240517D02*
G01*
X121895649Y-93300608D01*
X121899500Y-93331269D01*
X121899500Y-97248730D01*
X121879815Y-97315769D01*
X121827011Y-97361524D01*
X121757853Y-97371468D01*
X121733130Y-97364689D01*
X121733046Y-97364949D01*
X121728413Y-97363443D01*
X121728412Y-97363443D01*
X121526243Y-97297754D01*
X121526241Y-97297753D01*
X121526240Y-97297753D01*
X121364957Y-97272208D01*
X121316287Y-97264500D01*
X121103713Y-97264500D01*
X121061721Y-97271150D01*
X120893753Y-97297754D01*
X120802415Y-97327431D01*
X120732574Y-97329426D01*
X120676416Y-97297180D01*
X120626818Y-97247581D01*
X120593334Y-97186258D01*
X120590500Y-97159901D01*
X120590500Y-93354382D01*
X120610185Y-93287343D01*
X120662989Y-93241588D01*
X120732147Y-93231644D01*
X120752805Y-93236447D01*
X120893757Y-93282246D01*
X121103713Y-93315500D01*
X121103714Y-93315500D01*
X121316286Y-93315500D01*
X121316287Y-93315500D01*
X121526243Y-93282246D01*
X121728412Y-93216557D01*
X121728413Y-93216556D01*
X121733046Y-93215051D01*
X121733397Y-93216131D01*
X121797521Y-93209240D01*
X121859999Y-93240517D01*
G37*
%TD.AperFunction*%
%TA.AperFunction,Conductor*%
G36*
X124359999Y-93240517D02*
G01*
X124395649Y-93300608D01*
X124399500Y-93331269D01*
X124399500Y-97248730D01*
X124379815Y-97315769D01*
X124327011Y-97361524D01*
X124257853Y-97371468D01*
X124233130Y-97364689D01*
X124233046Y-97364949D01*
X124228413Y-97363443D01*
X124228412Y-97363443D01*
X124026243Y-97297754D01*
X124026241Y-97297753D01*
X124026240Y-97297753D01*
X123864957Y-97272208D01*
X123816287Y-97264500D01*
X123603713Y-97264500D01*
X123534306Y-97275493D01*
X123393755Y-97297754D01*
X123393748Y-97297755D01*
X123332605Y-97317622D01*
X123262764Y-97319617D01*
X123206607Y-97287372D01*
X123136819Y-97217584D01*
X123103334Y-97156261D01*
X123100500Y-97129903D01*
X123100500Y-93357631D01*
X123120185Y-93290592D01*
X123172989Y-93244837D01*
X123242147Y-93234893D01*
X123262803Y-93239696D01*
X123393757Y-93282246D01*
X123603713Y-93315500D01*
X123603714Y-93315500D01*
X123816286Y-93315500D01*
X123816287Y-93315500D01*
X124026243Y-93282246D01*
X124228412Y-93216557D01*
X124228413Y-93216556D01*
X124233046Y-93215051D01*
X124233397Y-93216131D01*
X124297521Y-93209240D01*
X124359999Y-93240517D01*
G37*
%TD.AperFunction*%
%TA.AperFunction,Conductor*%
G36*
X139083334Y-84616258D02*
G01*
X139127681Y-84644759D01*
X139172738Y-84689816D01*
X139214607Y-84716124D01*
X139303623Y-84772057D01*
X139325478Y-84785789D01*
X139495745Y-84845368D01*
X139495750Y-84845369D01*
X139674996Y-84865565D01*
X139675000Y-84865565D01*
X139675004Y-84865565D01*
X139854249Y-84845369D01*
X139854252Y-84845368D01*
X139854255Y-84845368D01*
X140024522Y-84785789D01*
X140177262Y-84689816D01*
X140177267Y-84689810D01*
X140180097Y-84687555D01*
X140182275Y-84686665D01*
X140183158Y-84686111D01*
X140183255Y-84686265D01*
X140244783Y-84661145D01*
X140257412Y-84660500D01*
X142008432Y-84660500D01*
X142075471Y-84680185D01*
X142096113Y-84696819D01*
X142587112Y-85187818D01*
X142620597Y-85249141D01*
X142615613Y-85318833D01*
X142573741Y-85374766D01*
X142508277Y-85399183D01*
X142499431Y-85399499D01*
X142413347Y-85399499D01*
X142413331Y-85399500D01*
X133832412Y-85399500D01*
X133765373Y-85379815D01*
X133755097Y-85372445D01*
X133752263Y-85370185D01*
X133752262Y-85370184D01*
X133695496Y-85334515D01*
X133599523Y-85274211D01*
X133429254Y-85214631D01*
X133429249Y-85214630D01*
X133250004Y-85194435D01*
X133249996Y-85194435D01*
X133070750Y-85214630D01*
X133070745Y-85214631D01*
X132900476Y-85274211D01*
X132747737Y-85370184D01*
X132620184Y-85497737D01*
X132524211Y-85650477D01*
X132466133Y-85816455D01*
X132425411Y-85873231D01*
X132360458Y-85898978D01*
X132349091Y-85899500D01*
X132032415Y-85899500D01*
X131965376Y-85879815D01*
X131955100Y-85872445D01*
X131952266Y-85870185D01*
X131952265Y-85870184D01*
X131891152Y-85831784D01*
X131799526Y-85774211D01*
X131629257Y-85714631D01*
X131629252Y-85714630D01*
X131450007Y-85694435D01*
X131449999Y-85694435D01*
X131270753Y-85714630D01*
X131270748Y-85714631D01*
X131100479Y-85774211D01*
X130947740Y-85870184D01*
X130820187Y-85997737D01*
X130724214Y-86150476D01*
X130664634Y-86320745D01*
X130664633Y-86320750D01*
X130644438Y-86499996D01*
X130644438Y-86500003D01*
X130664633Y-86679249D01*
X130664634Y-86679254D01*
X130724214Y-86849523D01*
X130794694Y-86961690D01*
X130820187Y-87002262D01*
X130947741Y-87129816D01*
X131100481Y-87225789D01*
X131213840Y-87265455D01*
X131270748Y-87285368D01*
X131270753Y-87285369D01*
X131449999Y-87305565D01*
X131450003Y-87305565D01*
X131450007Y-87305565D01*
X131629252Y-87285369D01*
X131629255Y-87285368D01*
X131629258Y-87285368D01*
X131799525Y-87225789D01*
X131952265Y-87129816D01*
X131952270Y-87129810D01*
X131955100Y-87127555D01*
X131957278Y-87126665D01*
X131958161Y-87126111D01*
X131958258Y-87126265D01*
X132019786Y-87101145D01*
X132032415Y-87100500D01*
X132449903Y-87100500D01*
X132516942Y-87120185D01*
X132537584Y-87136819D01*
X135554084Y-90153319D01*
X135587569Y-90214642D01*
X135582585Y-90284334D01*
X135540713Y-90340267D01*
X135475249Y-90364684D01*
X135466403Y-90365000D01*
X135080028Y-90365000D01*
X135080012Y-90365001D01*
X134977302Y-90375494D01*
X134810880Y-90430641D01*
X134810875Y-90430643D01*
X134661654Y-90522684D01*
X134537684Y-90646654D01*
X134445643Y-90795875D01*
X134445641Y-90795880D01*
X134390494Y-90962302D01*
X134390493Y-90962309D01*
X134380000Y-91065013D01*
X134380000Y-91590000D01*
X135325854Y-91590000D01*
X135287370Y-91656657D01*
X135255000Y-91777465D01*
X135255000Y-91902535D01*
X135287370Y-92023343D01*
X135325854Y-92090000D01*
X134331588Y-92090000D01*
X134264549Y-92070315D01*
X134243907Y-92053681D01*
X130136819Y-87946593D01*
X130103334Y-87885270D01*
X130100500Y-87858912D01*
X130100500Y-87082412D01*
X130120185Y-87015373D01*
X130127555Y-87005097D01*
X130129810Y-87002267D01*
X130129816Y-87002262D01*
X130225789Y-86849522D01*
X130285368Y-86679255D01*
X130287384Y-86661361D01*
X130305565Y-86500003D01*
X130305565Y-86499996D01*
X130285369Y-86320750D01*
X130285368Y-86320745D01*
X130251483Y-86223907D01*
X130225789Y-86150478D01*
X130129816Y-85997738D01*
X130002262Y-85870184D01*
X129967819Y-85848542D01*
X129849523Y-85774211D01*
X129679254Y-85714631D01*
X129679249Y-85714630D01*
X129500004Y-85694435D01*
X129499996Y-85694435D01*
X129320750Y-85714630D01*
X129320745Y-85714631D01*
X129150476Y-85774211D01*
X128997737Y-85870184D01*
X128870184Y-85997737D01*
X128774211Y-86150476D01*
X128714631Y-86320745D01*
X128714630Y-86320749D01*
X128698878Y-86460556D01*
X128671811Y-86524970D01*
X128614216Y-86564525D01*
X128544379Y-86566662D01*
X128523256Y-86559055D01*
X128488568Y-86542879D01*
X128446497Y-86523261D01*
X128446488Y-86523258D01*
X128226697Y-86464366D01*
X128226688Y-86464364D01*
X128205228Y-86462487D01*
X128140160Y-86437033D01*
X128099183Y-86380442D01*
X128095306Y-86310680D01*
X128111044Y-86272987D01*
X128125789Y-86249522D01*
X128185368Y-86079255D01*
X128187898Y-86056805D01*
X128205565Y-85900001D01*
X128205565Y-85899996D01*
X128185369Y-85720750D01*
X128185368Y-85720745D01*
X128176162Y-85694435D01*
X128125789Y-85550478D01*
X128029816Y-85397738D01*
X127902262Y-85270184D01*
X127902260Y-85270182D01*
X127835427Y-85228188D01*
X127789137Y-85175853D01*
X127778489Y-85106800D01*
X127806864Y-85042952D01*
X127813704Y-85035529D01*
X128152416Y-84696819D01*
X128213739Y-84663334D01*
X128240097Y-84660500D01*
X137822588Y-84660500D01*
X137889627Y-84680185D01*
X137899903Y-84687555D01*
X137902736Y-84689814D01*
X137902738Y-84689816D01*
X137959989Y-84725789D01*
X138033623Y-84772057D01*
X138055478Y-84785789D01*
X138225745Y-84845368D01*
X138225750Y-84845369D01*
X138404996Y-84865565D01*
X138405000Y-84865565D01*
X138405004Y-84865565D01*
X138584249Y-84845369D01*
X138584252Y-84845368D01*
X138584255Y-84845368D01*
X138754522Y-84785789D01*
X138907262Y-84689816D01*
X138952319Y-84644759D01*
X139013642Y-84611274D01*
X139083334Y-84616258D01*
G37*
%TD.AperFunction*%
%TA.AperFunction,Conductor*%
G36*
X142266942Y-86620185D02*
G01*
X142287584Y-86636819D01*
X145803584Y-90152819D01*
X145837069Y-90214142D01*
X145832085Y-90283834D01*
X145790213Y-90339767D01*
X145724749Y-90364184D01*
X145715903Y-90364500D01*
X145623713Y-90364500D01*
X145575042Y-90372208D01*
X145413760Y-90397753D01*
X145211585Y-90463444D01*
X145022179Y-90559951D01*
X144850213Y-90684890D01*
X144699894Y-90835209D01*
X144699890Y-90835214D01*
X144580318Y-90999793D01*
X144524989Y-91042459D01*
X144455375Y-91048438D01*
X144393580Y-91015833D01*
X144379682Y-90999793D01*
X144260109Y-90835214D01*
X144260105Y-90835209D01*
X144109786Y-90684890D01*
X143937820Y-90559951D01*
X143748414Y-90463444D01*
X143748413Y-90463443D01*
X143748412Y-90463443D01*
X143546243Y-90397754D01*
X143546241Y-90397753D01*
X143546240Y-90397753D01*
X143384957Y-90372208D01*
X143336287Y-90364500D01*
X143123713Y-90364500D01*
X143075042Y-90372208D01*
X142913760Y-90397753D01*
X142711585Y-90463444D01*
X142522179Y-90559951D01*
X142351280Y-90684116D01*
X142285473Y-90707596D01*
X142217420Y-90691770D01*
X142190714Y-90671479D01*
X138331416Y-86812181D01*
X138297931Y-86750858D01*
X138302915Y-86681166D01*
X138344787Y-86625233D01*
X138410251Y-86600816D01*
X138419097Y-86600500D01*
X142199903Y-86600500D01*
X142266942Y-86620185D01*
G37*
%TD.AperFunction*%
%TA.AperFunction,Conductor*%
G36*
X153405703Y-87955384D02*
G01*
X153412181Y-87961416D01*
X155616989Y-90166225D01*
X155650474Y-90227548D01*
X155645490Y-90297240D01*
X155603618Y-90353173D01*
X155548707Y-90376379D01*
X155413759Y-90397753D01*
X155211585Y-90463444D01*
X155149232Y-90495215D01*
X155022184Y-90559949D01*
X155022181Y-90559951D01*
X155017844Y-90562161D01*
X155017263Y-90561022D01*
X154955483Y-90577723D01*
X154888884Y-90556596D01*
X154870483Y-90541437D01*
X154808716Y-90479670D01*
X154808715Y-90479669D01*
X154804385Y-90475339D01*
X154804374Y-90475329D01*
X153236819Y-88907774D01*
X153203334Y-88846451D01*
X153200500Y-88820093D01*
X153200500Y-88049097D01*
X153220185Y-87982058D01*
X153272989Y-87936303D01*
X153342147Y-87926359D01*
X153405703Y-87955384D01*
G37*
%TD.AperFunction*%
%TA.AperFunction,Conductor*%
G36*
X151684754Y-80799836D02*
G01*
X151729102Y-80828337D01*
X151963181Y-81062416D01*
X151996666Y-81123739D01*
X151999500Y-81150097D01*
X151999500Y-89033520D01*
X151999499Y-89033538D01*
X151999499Y-89199244D01*
X151999498Y-89199244D01*
X152040423Y-89351976D01*
X152040424Y-89351977D01*
X152060614Y-89386947D01*
X152119481Y-89488907D01*
X152238349Y-89607775D01*
X152238355Y-89607780D01*
X152857149Y-90226574D01*
X152890634Y-90287897D01*
X152885650Y-90357589D01*
X152843778Y-90413522D01*
X152807787Y-90432186D01*
X152711583Y-90463444D01*
X152593844Y-90523436D01*
X152525174Y-90536332D01*
X152460434Y-90510055D01*
X152449876Y-90500640D01*
X152368716Y-90419480D01*
X152368715Y-90419479D01*
X152364385Y-90415149D01*
X152364374Y-90415139D01*
X146852307Y-84903072D01*
X146818822Y-84841749D01*
X146823806Y-84772057D01*
X146865678Y-84716124D01*
X146874004Y-84710405D01*
X147002262Y-84629816D01*
X147129816Y-84502262D01*
X147225789Y-84349522D01*
X147285368Y-84179255D01*
X147285369Y-84179249D01*
X147305565Y-84000003D01*
X147305565Y-83999996D01*
X147285369Y-83820750D01*
X147285368Y-83820745D01*
X147240068Y-83691286D01*
X147225789Y-83650478D01*
X147224038Y-83647692D01*
X147192645Y-83597730D01*
X147129816Y-83497738D01*
X147129814Y-83497736D01*
X147129813Y-83497734D01*
X147127550Y-83494896D01*
X147126659Y-83492715D01*
X147126111Y-83491842D01*
X147126264Y-83491745D01*
X147101144Y-83430209D01*
X147100500Y-83417587D01*
X147100500Y-82082412D01*
X147120185Y-82015373D01*
X147127555Y-82005097D01*
X147129810Y-82002267D01*
X147129816Y-82002262D01*
X147225789Y-81849522D01*
X147285368Y-81679255D01*
X147286035Y-81673334D01*
X147305565Y-81500003D01*
X147305565Y-81499996D01*
X147285369Y-81320750D01*
X147285366Y-81320739D01*
X147283079Y-81314202D01*
X147279515Y-81244424D01*
X147314242Y-81183795D01*
X147376234Y-81151566D01*
X147445810Y-81157969D01*
X147487800Y-81185563D01*
X147745034Y-81442797D01*
X147778519Y-81504120D01*
X147780573Y-81516594D01*
X147790366Y-81603513D01*
X147849946Y-81773785D01*
X147864996Y-81797737D01*
X147945920Y-81926526D01*
X148073474Y-82054080D01*
X148103421Y-82072897D01*
X148187596Y-82125788D01*
X148226214Y-82150053D01*
X148384858Y-82205565D01*
X148396481Y-82209632D01*
X148396486Y-82209633D01*
X148575732Y-82229829D01*
X148575736Y-82229829D01*
X148575740Y-82229829D01*
X148754985Y-82209633D01*
X148754988Y-82209632D01*
X148754991Y-82209632D01*
X148925258Y-82150053D01*
X149077998Y-82054080D01*
X149205552Y-81926526D01*
X149301525Y-81773786D01*
X149361104Y-81603519D01*
X149363839Y-81579249D01*
X149381301Y-81424267D01*
X149381301Y-81424260D01*
X149361105Y-81245014D01*
X149361104Y-81245009D01*
X149318670Y-81123739D01*
X149301525Y-81074742D01*
X149293780Y-81062416D01*
X149279992Y-81040472D01*
X149260992Y-80973235D01*
X149281360Y-80906400D01*
X149334628Y-80861186D01*
X149384986Y-80850500D01*
X150417588Y-80850500D01*
X150484627Y-80870185D01*
X150494903Y-80877555D01*
X150497736Y-80879814D01*
X150497738Y-80879816D01*
X150650478Y-80975789D01*
X150713202Y-80997737D01*
X150820745Y-81035368D01*
X150820750Y-81035369D01*
X150999996Y-81055565D01*
X151000000Y-81055565D01*
X151000004Y-81055565D01*
X151179249Y-81035369D01*
X151179252Y-81035368D01*
X151179255Y-81035368D01*
X151349522Y-80975789D01*
X151502262Y-80879816D01*
X151553741Y-80828336D01*
X151615062Y-80794852D01*
X151684754Y-80799836D01*
G37*
%TD.AperFunction*%
%TA.AperFunction,Conductor*%
G36*
X123305703Y-80155385D02*
G01*
X123312181Y-80161417D01*
X123388349Y-80237585D01*
X123388355Y-80237590D01*
X124363181Y-81212416D01*
X124396666Y-81273739D01*
X124399500Y-81300097D01*
X124399500Y-90348730D01*
X124379815Y-90415769D01*
X124327011Y-90461524D01*
X124257853Y-90471468D01*
X124233130Y-90464689D01*
X124233046Y-90464949D01*
X124228413Y-90463443D01*
X124228412Y-90463443D01*
X124026243Y-90397754D01*
X124026241Y-90397753D01*
X124026240Y-90397753D01*
X123864957Y-90372208D01*
X123816287Y-90364500D01*
X123603713Y-90364500D01*
X123596421Y-90365655D01*
X123393759Y-90397753D01*
X123262818Y-90440299D01*
X123192977Y-90442294D01*
X123133144Y-90406214D01*
X123102316Y-90343513D01*
X123100500Y-90322368D01*
X123100500Y-80249098D01*
X123120185Y-80182059D01*
X123172989Y-80136304D01*
X123242147Y-80126360D01*
X123305703Y-80155385D01*
G37*
%TD.AperFunction*%
%TA.AperFunction,Conductor*%
G36*
X121854761Y-76868509D02*
G01*
X121893735Y-76926499D01*
X121899500Y-76963869D01*
X121899500Y-84883677D01*
X121879815Y-84950716D01*
X121827011Y-84996471D01*
X121789384Y-85006897D01*
X121720750Y-85014630D01*
X121550478Y-85074210D01*
X121397737Y-85170184D01*
X121270184Y-85297737D01*
X121174210Y-85450478D01*
X121114630Y-85620750D01*
X121104837Y-85707668D01*
X121077770Y-85772082D01*
X121069299Y-85781465D01*
X120931286Y-85919478D01*
X120819481Y-86031282D01*
X120814530Y-86037735D01*
X120812435Y-86036127D01*
X120771315Y-86075332D01*
X120702708Y-86088552D01*
X120637844Y-86062581D01*
X120597318Y-86005666D01*
X120590500Y-85965114D01*
X120590500Y-77810096D01*
X120610185Y-77743057D01*
X120626815Y-77722419D01*
X121393535Y-76955698D01*
X121454856Y-76922215D01*
X121467311Y-76920163D01*
X121554255Y-76910368D01*
X121686020Y-76864261D01*
X121731096Y-76848489D01*
X121731795Y-76850489D01*
X121790623Y-76840795D01*
X121854761Y-76868509D01*
G37*
%TD.AperFunction*%
%TA.AperFunction,Conductor*%
G36*
X112443039Y-50170185D02*
G01*
X112488794Y-50222989D01*
X112500000Y-50274500D01*
X112500000Y-64810000D01*
X160500000Y-64810000D01*
X160500000Y-54480794D01*
X160519685Y-54413755D01*
X160572489Y-54368000D01*
X160641647Y-54358056D01*
X160705203Y-54387081D01*
X160739193Y-54434897D01*
X160800142Y-54587870D01*
X160800151Y-54587888D01*
X160967784Y-54904077D01*
X160967787Y-54904082D01*
X160967789Y-54904085D01*
X161124314Y-55134943D01*
X161168634Y-55200309D01*
X161168641Y-55200319D01*
X161400331Y-55473085D01*
X161400332Y-55473086D01*
X161660163Y-55719211D01*
X161945081Y-55935800D01*
X162251747Y-56120315D01*
X162251749Y-56120316D01*
X162251751Y-56120317D01*
X162251755Y-56120319D01*
X162576552Y-56270585D01*
X162576565Y-56270591D01*
X162915726Y-56384868D01*
X163265254Y-56461805D01*
X163621052Y-56500500D01*
X163621058Y-56500500D01*
X163978942Y-56500500D01*
X163978948Y-56500500D01*
X164334746Y-56461805D01*
X164684274Y-56384868D01*
X165023435Y-56270591D01*
X165348253Y-56120315D01*
X165654919Y-55935800D01*
X165939837Y-55719211D01*
X166199668Y-55473086D01*
X166431365Y-55200311D01*
X166522867Y-55065356D01*
X166576781Y-55020915D01*
X166646163Y-55012677D01*
X166708985Y-55043258D01*
X166745301Y-55102948D01*
X166749500Y-55134943D01*
X166749500Y-99312546D01*
X166729815Y-99379585D01*
X166677011Y-99425340D01*
X166607853Y-99435284D01*
X166544297Y-99406259D01*
X166522867Y-99382133D01*
X166411868Y-99218422D01*
X166331365Y-99099689D01*
X166331361Y-99099684D01*
X166331358Y-99099680D01*
X166099668Y-98826914D01*
X166073931Y-98802535D01*
X165839837Y-98580789D01*
X165839830Y-98580783D01*
X165839827Y-98580781D01*
X165746301Y-98509685D01*
X165554919Y-98364200D01*
X165248253Y-98179685D01*
X165248252Y-98179684D01*
X165248248Y-98179682D01*
X165248244Y-98179680D01*
X164923447Y-98029414D01*
X164923441Y-98029411D01*
X164923435Y-98029409D01*
X164732315Y-97965013D01*
X164584273Y-97915131D01*
X164234744Y-97838194D01*
X163878949Y-97799500D01*
X163878948Y-97799500D01*
X163521052Y-97799500D01*
X163521050Y-97799500D01*
X163165255Y-97838194D01*
X162815726Y-97915131D01*
X162559970Y-98001306D01*
X162476565Y-98029409D01*
X162476563Y-98029410D01*
X162476552Y-98029414D01*
X162151755Y-98179680D01*
X162151751Y-98179682D01*
X161956153Y-98297370D01*
X161845081Y-98364200D01*
X161756768Y-98431333D01*
X161560172Y-98580781D01*
X161560163Y-98580789D01*
X161300331Y-98826914D01*
X161068641Y-99099680D01*
X161068634Y-99099690D01*
X160867790Y-99395913D01*
X160867784Y-99395922D01*
X160700151Y-99712111D01*
X160700142Y-99712129D01*
X160567674Y-100044600D01*
X160567672Y-100044607D01*
X160471932Y-100389434D01*
X160471926Y-100389460D01*
X160414029Y-100742614D01*
X160414028Y-100742631D01*
X160394652Y-101099997D01*
X160394652Y-101100002D01*
X160414028Y-101457368D01*
X160414029Y-101457385D01*
X160471926Y-101810539D01*
X160471932Y-101810565D01*
X160567672Y-102155392D01*
X160567674Y-102155399D01*
X160700142Y-102487870D01*
X160700151Y-102487888D01*
X160867784Y-102804077D01*
X160867787Y-102804082D01*
X160867789Y-102804085D01*
X161024314Y-103034943D01*
X161068634Y-103100309D01*
X161068641Y-103100319D01*
X161300331Y-103373085D01*
X161300332Y-103373086D01*
X161560163Y-103619211D01*
X161845081Y-103835800D01*
X161983776Y-103919250D01*
X162031071Y-103970679D01*
X162043053Y-104039514D01*
X162015918Y-104103899D01*
X161958281Y-104143393D01*
X161919847Y-104149500D01*
X102480153Y-104149500D01*
X102413114Y-104129815D01*
X102367359Y-104077011D01*
X102357415Y-104007853D01*
X102386440Y-103944297D01*
X102416224Y-103919250D01*
X102554919Y-103835800D01*
X102839837Y-103619211D01*
X103099668Y-103373086D01*
X103331365Y-103100311D01*
X103532211Y-102804085D01*
X103699853Y-102487880D01*
X103832324Y-102155403D01*
X103928071Y-101810552D01*
X103985972Y-101457371D01*
X104005348Y-101100000D01*
X103985972Y-100742629D01*
X103985386Y-100739057D01*
X103928073Y-100389460D01*
X103928072Y-100389459D01*
X103928071Y-100389448D01*
X103876722Y-100204505D01*
X103832327Y-100044607D01*
X103832325Y-100044600D01*
X103699857Y-99712129D01*
X103699848Y-99712111D01*
X103682324Y-99679058D01*
X103532211Y-99395915D01*
X103331365Y-99099689D01*
X103331361Y-99099684D01*
X103331358Y-99099680D01*
X103099668Y-98826914D01*
X103073931Y-98802535D01*
X102839837Y-98580789D01*
X102839830Y-98580783D01*
X102839827Y-98580781D01*
X102746301Y-98509685D01*
X102554919Y-98364200D01*
X102248253Y-98179685D01*
X102248252Y-98179684D01*
X102248248Y-98179682D01*
X102248244Y-98179680D01*
X101923447Y-98029414D01*
X101923441Y-98029411D01*
X101923435Y-98029409D01*
X101732315Y-97965013D01*
X101584273Y-97915131D01*
X101234744Y-97838194D01*
X100878949Y-97799500D01*
X100878948Y-97799500D01*
X100521052Y-97799500D01*
X100521050Y-97799500D01*
X100165255Y-97838194D01*
X99815726Y-97915131D01*
X99559970Y-98001306D01*
X99476565Y-98029409D01*
X99476563Y-98029410D01*
X99476552Y-98029414D01*
X99151755Y-98179680D01*
X99151751Y-98179682D01*
X98956153Y-98297370D01*
X98845081Y-98364200D01*
X98756768Y-98431333D01*
X98560172Y-98580781D01*
X98560163Y-98580789D01*
X98300331Y-98826914D01*
X98068641Y-99099680D01*
X98068633Y-99099690D01*
X97977133Y-99234644D01*
X97923219Y-99279085D01*
X97853837Y-99287323D01*
X97791015Y-99256742D01*
X97754699Y-99197052D01*
X97750500Y-99165057D01*
X97750500Y-91065013D01*
X107360000Y-91065013D01*
X107360000Y-91590000D01*
X108305854Y-91590000D01*
X108267370Y-91656657D01*
X108235000Y-91777465D01*
X108235000Y-91902535D01*
X108267370Y-92023343D01*
X108305854Y-92090000D01*
X107360001Y-92090000D01*
X107360001Y-92614986D01*
X107370494Y-92717697D01*
X107425641Y-92884119D01*
X107425643Y-92884124D01*
X107517684Y-93033345D01*
X107641654Y-93157315D01*
X107790875Y-93249356D01*
X107790880Y-93249358D01*
X107957302Y-93304505D01*
X107957309Y-93304506D01*
X108060019Y-93314999D01*
X108459999Y-93314999D01*
X108460000Y-93314998D01*
X108460000Y-92244145D01*
X108526657Y-92282630D01*
X108647465Y-92315000D01*
X108772535Y-92315000D01*
X108893343Y-92282630D01*
X108960000Y-92244145D01*
X108960000Y-93314999D01*
X109359972Y-93314999D01*
X109359986Y-93314998D01*
X109462697Y-93304505D01*
X109629119Y-93249358D01*
X109629124Y-93249356D01*
X109778345Y-93157315D01*
X109902317Y-93033343D01*
X109997815Y-92878516D01*
X110049763Y-92831791D01*
X110118725Y-92820568D01*
X110182808Y-92848412D01*
X110191035Y-92855931D01*
X110330213Y-92995109D01*
X110502179Y-93120048D01*
X110502181Y-93120049D01*
X110502184Y-93120051D01*
X110691588Y-93216557D01*
X110893757Y-93282246D01*
X111103713Y-93315500D01*
X111103714Y-93315500D01*
X111316286Y-93315500D01*
X111316287Y-93315500D01*
X111526243Y-93282246D01*
X111728412Y-93216557D01*
X111917816Y-93120051D01*
X112012403Y-93051330D01*
X112089786Y-92995109D01*
X112089788Y-92995106D01*
X112089792Y-92995104D01*
X112240104Y-92844792D01*
X112359683Y-92680204D01*
X112415011Y-92637540D01*
X112484624Y-92631561D01*
X112546420Y-92664166D01*
X112560313Y-92680199D01*
X112617772Y-92759285D01*
X112679896Y-92844792D01*
X112830213Y-92995109D01*
X113002179Y-93120048D01*
X113002181Y-93120049D01*
X113002184Y-93120051D01*
X113191588Y-93216557D01*
X113393757Y-93282246D01*
X113603713Y-93315500D01*
X113603714Y-93315500D01*
X113816286Y-93315500D01*
X113816287Y-93315500D01*
X114026243Y-93282246D01*
X114228412Y-93216557D01*
X114417816Y-93120051D01*
X114512403Y-93051330D01*
X114589786Y-92995109D01*
X114589788Y-92995106D01*
X114589792Y-92995104D01*
X114740104Y-92844792D01*
X114859683Y-92680204D01*
X114915011Y-92637540D01*
X114984624Y-92631561D01*
X115046420Y-92664166D01*
X115060313Y-92680199D01*
X115117772Y-92759285D01*
X115179896Y-92844792D01*
X115330213Y-92995109D01*
X115502179Y-93120048D01*
X115502181Y-93120049D01*
X115502184Y-93120051D01*
X115691588Y-93216557D01*
X115893757Y-93282246D01*
X116103713Y-93315500D01*
X116103714Y-93315500D01*
X116316286Y-93315500D01*
X116316287Y-93315500D01*
X116526243Y-93282246D01*
X116677184Y-93233201D01*
X116747023Y-93231207D01*
X116806856Y-93267287D01*
X116837684Y-93329988D01*
X116839500Y-93351133D01*
X116839500Y-97228866D01*
X116819815Y-97295905D01*
X116767011Y-97341660D01*
X116697853Y-97351604D01*
X116677182Y-97346797D01*
X116526240Y-97297753D01*
X116364957Y-97272208D01*
X116316287Y-97264500D01*
X116103713Y-97264500D01*
X116055042Y-97272208D01*
X115893760Y-97297753D01*
X115893757Y-97297754D01*
X115696679Y-97361789D01*
X115691585Y-97363444D01*
X115502179Y-97459951D01*
X115330213Y-97584890D01*
X115179894Y-97735209D01*
X115179890Y-97735214D01*
X115060318Y-97899793D01*
X115004989Y-97942459D01*
X114935375Y-97948438D01*
X114873580Y-97915833D01*
X114859682Y-97899793D01*
X114740109Y-97735214D01*
X114740105Y-97735209D01*
X114589786Y-97584890D01*
X114417820Y-97459951D01*
X114228414Y-97363444D01*
X114228413Y-97363443D01*
X114228412Y-97363443D01*
X114026243Y-97297754D01*
X114026241Y-97297753D01*
X114026240Y-97297753D01*
X113864957Y-97272208D01*
X113816287Y-97264500D01*
X113603713Y-97264500D01*
X113555042Y-97272208D01*
X113393760Y-97297753D01*
X113393757Y-97297754D01*
X113196679Y-97361789D01*
X113191585Y-97363444D01*
X113002179Y-97459951D01*
X112830213Y-97584890D01*
X112679894Y-97735209D01*
X112679890Y-97735214D01*
X112560318Y-97899793D01*
X112504989Y-97942459D01*
X112435375Y-97948438D01*
X112373580Y-97915833D01*
X112359682Y-97899793D01*
X112240109Y-97735214D01*
X112240105Y-97735209D01*
X112089786Y-97584890D01*
X111917820Y-97459951D01*
X111728414Y-97363444D01*
X111728413Y-97363443D01*
X111728412Y-97363443D01*
X111526243Y-97297754D01*
X111526241Y-97297753D01*
X111526240Y-97297753D01*
X111364957Y-97272208D01*
X111316287Y-97264500D01*
X111103713Y-97264500D01*
X111055042Y-97272208D01*
X110893760Y-97297753D01*
X110893757Y-97297754D01*
X110696679Y-97361789D01*
X110691585Y-97363444D01*
X110502179Y-97459951D01*
X110330215Y-97584889D01*
X110191035Y-97724069D01*
X110129712Y-97757553D01*
X110060020Y-97752569D01*
X110004087Y-97710697D01*
X109997815Y-97701484D01*
X109902315Y-97546654D01*
X109778345Y-97422684D01*
X109629124Y-97330643D01*
X109629119Y-97330641D01*
X109462697Y-97275494D01*
X109462690Y-97275493D01*
X109359986Y-97265000D01*
X108960000Y-97265000D01*
X108960000Y-98335854D01*
X108893343Y-98297370D01*
X108772535Y-98265000D01*
X108647465Y-98265000D01*
X108526657Y-98297370D01*
X108460000Y-98335854D01*
X108460000Y-97265000D01*
X108060028Y-97265000D01*
X108060012Y-97265001D01*
X107957302Y-97275494D01*
X107790880Y-97330641D01*
X107790875Y-97330643D01*
X107641654Y-97422684D01*
X107517684Y-97546654D01*
X107425643Y-97695875D01*
X107425641Y-97695880D01*
X107370494Y-97862302D01*
X107370493Y-97862309D01*
X107360000Y-97965013D01*
X107360000Y-98490000D01*
X108305854Y-98490000D01*
X108267370Y-98556657D01*
X108235000Y-98677465D01*
X108235000Y-98802535D01*
X108267370Y-98923343D01*
X108305854Y-98990000D01*
X107360001Y-98990000D01*
X107360001Y-99514986D01*
X107370494Y-99617697D01*
X107425641Y-99784119D01*
X107425643Y-99784124D01*
X107517684Y-99933345D01*
X107641654Y-100057315D01*
X107790875Y-100149356D01*
X107790880Y-100149358D01*
X107957302Y-100204505D01*
X107957309Y-100204506D01*
X108060019Y-100214999D01*
X108459999Y-100214999D01*
X108460000Y-100214998D01*
X108460000Y-99144145D01*
X108526657Y-99182630D01*
X108647465Y-99215000D01*
X108772535Y-99215000D01*
X108893343Y-99182630D01*
X108960000Y-99144145D01*
X108960000Y-100214999D01*
X109359972Y-100214999D01*
X109359986Y-100214998D01*
X109462697Y-100204505D01*
X109629119Y-100149358D01*
X109629124Y-100149356D01*
X109778345Y-100057315D01*
X109902317Y-99933343D01*
X109997815Y-99778516D01*
X110049763Y-99731791D01*
X110118725Y-99720568D01*
X110182808Y-99748412D01*
X110191035Y-99755931D01*
X110330213Y-99895109D01*
X110502179Y-100020048D01*
X110502181Y-100020049D01*
X110502184Y-100020051D01*
X110691588Y-100116557D01*
X110893757Y-100182246D01*
X111103713Y-100215500D01*
X111103714Y-100215500D01*
X111316286Y-100215500D01*
X111316287Y-100215500D01*
X111526243Y-100182246D01*
X111728412Y-100116557D01*
X111917816Y-100020051D01*
X111994849Y-99964084D01*
X112089786Y-99895109D01*
X112089788Y-99895106D01*
X112089792Y-99895104D01*
X112240104Y-99744792D01*
X112359683Y-99580204D01*
X112415011Y-99537540D01*
X112484624Y-99531561D01*
X112546420Y-99564166D01*
X112560313Y-99580199D01*
X112634119Y-99681785D01*
X112679896Y-99744792D01*
X112830213Y-99895109D01*
X113002179Y-100020048D01*
X113002181Y-100020049D01*
X113002184Y-100020051D01*
X113191588Y-100116557D01*
X113393757Y-100182246D01*
X113603713Y-100215500D01*
X113603714Y-100215500D01*
X113816286Y-100215500D01*
X113816287Y-100215500D01*
X114026243Y-100182246D01*
X114228412Y-100116557D01*
X114417816Y-100020051D01*
X114494849Y-99964084D01*
X114589786Y-99895109D01*
X114589788Y-99895106D01*
X114589792Y-99895104D01*
X114740104Y-99744792D01*
X114859683Y-99580204D01*
X114915011Y-99537540D01*
X114984624Y-99531561D01*
X115046420Y-99564166D01*
X115060313Y-99580199D01*
X115134119Y-99681785D01*
X115179896Y-99744792D01*
X115330213Y-99895109D01*
X115502179Y-100020048D01*
X115502181Y-100020049D01*
X115502184Y-100020051D01*
X115691588Y-100116557D01*
X115893757Y-100182246D01*
X116103713Y-100215500D01*
X116103714Y-100215500D01*
X116316286Y-100215500D01*
X116316287Y-100215500D01*
X116526243Y-100182246D01*
X116647775Y-100142756D01*
X116717613Y-100140762D01*
X116773771Y-100173006D01*
X118631284Y-102030520D01*
X118631286Y-102030521D01*
X118631290Y-102030524D01*
X118768209Y-102109573D01*
X118768216Y-102109577D01*
X118920943Y-102150501D01*
X118920945Y-102150501D01*
X119086654Y-102150501D01*
X119086670Y-102150500D01*
X155663331Y-102150500D01*
X155663347Y-102150501D01*
X155670943Y-102150501D01*
X155829054Y-102150501D01*
X155829057Y-102150501D01*
X155981785Y-102109577D01*
X156031904Y-102080639D01*
X156118716Y-102030520D01*
X156230520Y-101918716D01*
X156230520Y-101918714D01*
X156240728Y-101908507D01*
X156240730Y-101908504D01*
X158058506Y-100090728D01*
X158058511Y-100090724D01*
X158068714Y-100080520D01*
X158068716Y-100080520D01*
X158180520Y-99968716D01*
X158259577Y-99831784D01*
X158299769Y-99681785D01*
X158299769Y-99681784D01*
X158299775Y-99681785D01*
X158299775Y-99681759D01*
X158300500Y-99679058D01*
X158300500Y-99520943D01*
X158300500Y-91489060D01*
X158300501Y-91489047D01*
X158300501Y-91320944D01*
X158267179Y-91196588D01*
X158259577Y-91168216D01*
X158259573Y-91168209D01*
X158180524Y-91031290D01*
X158180518Y-91031282D01*
X153636819Y-86487583D01*
X153603334Y-86426260D01*
X153600500Y-86399902D01*
X153600500Y-80105807D01*
X153600501Y-80105794D01*
X153600501Y-79937691D01*
X153595899Y-79920515D01*
X153559577Y-79784963D01*
X153500370Y-79682412D01*
X153480524Y-79648037D01*
X153480518Y-79648029D01*
X151200843Y-77368355D01*
X151200841Y-77368352D01*
X151081970Y-77249481D01*
X151081962Y-77249475D01*
X150980189Y-77190717D01*
X150980187Y-77190716D01*
X150945043Y-77170425D01*
X150945042Y-77170424D01*
X150932516Y-77167067D01*
X150792310Y-77129499D01*
X150634196Y-77129499D01*
X150626600Y-77129499D01*
X150626584Y-77129500D01*
X148832412Y-77129500D01*
X148765373Y-77109815D01*
X148755097Y-77102445D01*
X148752263Y-77100185D01*
X148752262Y-77100184D01*
X148640565Y-77030000D01*
X148599523Y-77004211D01*
X148429254Y-76944631D01*
X148429249Y-76944630D01*
X148250004Y-76924435D01*
X148249996Y-76924435D01*
X148070750Y-76944630D01*
X148070739Y-76944633D01*
X148015453Y-76963978D01*
X147945674Y-76967539D01*
X147885047Y-76932809D01*
X147852821Y-76870816D01*
X147850500Y-76846936D01*
X147850500Y-76582412D01*
X147870185Y-76515373D01*
X147877555Y-76505097D01*
X147879810Y-76502267D01*
X147879816Y-76502262D01*
X147975789Y-76349522D01*
X148035368Y-76179255D01*
X148039961Y-76138492D01*
X148055565Y-76000003D01*
X148055565Y-75999996D01*
X148035369Y-75820750D01*
X148035368Y-75820745D01*
X148019528Y-75775478D01*
X147975789Y-75650478D01*
X147879816Y-75497738D01*
X147752262Y-75370184D01*
X147703639Y-75339632D01*
X147599523Y-75274211D01*
X147429254Y-75214631D01*
X147429249Y-75214630D01*
X147250004Y-75194435D01*
X147249996Y-75194435D01*
X147070750Y-75214630D01*
X147070745Y-75214631D01*
X146900476Y-75274211D01*
X146747737Y-75370184D01*
X146620184Y-75497737D01*
X146524211Y-75650476D01*
X146464631Y-75820745D01*
X146464630Y-75820750D01*
X146444435Y-75999996D01*
X146444435Y-76000003D01*
X146464630Y-76179249D01*
X146464631Y-76179254D01*
X146524211Y-76349523D01*
X146620185Y-76502263D01*
X146622445Y-76505097D01*
X146623334Y-76507275D01*
X146623889Y-76508158D01*
X146623734Y-76508255D01*
X146648855Y-76569783D01*
X146649500Y-76582412D01*
X146649500Y-80177585D01*
X146690423Y-80330312D01*
X146690426Y-80330319D01*
X146769475Y-80467238D01*
X146769481Y-80467246D01*
X146814433Y-80512198D01*
X146847918Y-80573521D01*
X146842934Y-80643213D01*
X146801062Y-80699146D01*
X146735598Y-80723563D01*
X146685798Y-80716921D01*
X146679257Y-80714632D01*
X146679249Y-80714630D01*
X146500004Y-80694435D01*
X146499996Y-80694435D01*
X146320750Y-80714630D01*
X146320745Y-80714631D01*
X146150476Y-80774211D01*
X145997737Y-80870184D01*
X145870184Y-80997737D01*
X145774211Y-81150476D01*
X145714631Y-81320745D01*
X145714630Y-81320750D01*
X145694435Y-81499996D01*
X145694435Y-81500003D01*
X145714630Y-81679249D01*
X145714631Y-81679254D01*
X145774211Y-81849523D01*
X145825587Y-81931286D01*
X145869482Y-82001145D01*
X145870185Y-82002263D01*
X145872445Y-82005097D01*
X145873334Y-82007275D01*
X145873889Y-82008158D01*
X145873734Y-82008255D01*
X145898855Y-82069783D01*
X145899500Y-82082412D01*
X145899500Y-83417587D01*
X145879815Y-83484626D01*
X145872450Y-83494896D01*
X145870186Y-83497734D01*
X145789602Y-83625983D01*
X145737267Y-83672274D01*
X145668213Y-83682922D01*
X145604365Y-83654547D01*
X145596927Y-83647692D01*
X142987590Y-81038355D01*
X142987588Y-81038352D01*
X142868717Y-80919481D01*
X142868716Y-80919480D01*
X142781904Y-80869360D01*
X142781904Y-80869359D01*
X142781900Y-80869358D01*
X142731785Y-80840423D01*
X142579057Y-80799499D01*
X142420943Y-80799499D01*
X142413347Y-80799499D01*
X142413331Y-80799500D01*
X142182412Y-80799500D01*
X142115373Y-80779815D01*
X142105097Y-80772445D01*
X142102263Y-80770185D01*
X142102262Y-80770184D01*
X142013850Y-80714631D01*
X141949523Y-80674211D01*
X141779254Y-80614631D01*
X141779249Y-80614630D01*
X141600004Y-80594435D01*
X141599996Y-80594435D01*
X141420750Y-80614630D01*
X141420745Y-80614631D01*
X141250476Y-80674211D01*
X141097737Y-80770184D01*
X140970184Y-80897737D01*
X140874211Y-81050476D01*
X140814631Y-81220745D01*
X140814630Y-81220750D01*
X140794435Y-81399996D01*
X140794435Y-81400003D01*
X140814630Y-81579249D01*
X140814631Y-81579254D01*
X140874211Y-81749523D01*
X140918169Y-81819481D01*
X140970184Y-81902262D01*
X141097738Y-82029816D01*
X141136354Y-82054080D01*
X141242450Y-82120745D01*
X141250478Y-82125789D01*
X141319818Y-82150052D01*
X141420745Y-82185368D01*
X141420750Y-82185369D01*
X141599996Y-82205565D01*
X141600000Y-82205565D01*
X141600004Y-82205565D01*
X141779249Y-82185369D01*
X141779252Y-82185368D01*
X141779255Y-82185368D01*
X141949522Y-82125789D01*
X142102262Y-82029816D01*
X142102267Y-82029810D01*
X142105097Y-82027555D01*
X142107275Y-82026665D01*
X142108158Y-82026111D01*
X142108255Y-82026265D01*
X142169783Y-82001145D01*
X142182412Y-82000500D01*
X142199903Y-82000500D01*
X142266942Y-82020185D01*
X142287584Y-82036819D01*
X150447864Y-90197099D01*
X150481349Y-90258422D01*
X150476365Y-90328114D01*
X150434493Y-90384047D01*
X150398501Y-90402711D01*
X150211585Y-90463444D01*
X150022184Y-90559948D01*
X149896764Y-90651071D01*
X149830957Y-90674550D01*
X149762903Y-90658724D01*
X149736198Y-90638433D01*
X142796119Y-83698355D01*
X142796117Y-83698352D01*
X142677246Y-83579481D01*
X142677238Y-83579475D01*
X142575465Y-83520717D01*
X142575463Y-83520716D01*
X142540319Y-83500425D01*
X142540318Y-83500424D01*
X142519687Y-83494896D01*
X142387586Y-83459499D01*
X142229472Y-83459499D01*
X142221876Y-83459499D01*
X142221860Y-83459500D01*
X140257412Y-83459500D01*
X140190373Y-83439815D01*
X140180097Y-83432445D01*
X140177263Y-83430185D01*
X140177262Y-83430184D01*
X140108553Y-83387011D01*
X140024523Y-83334211D01*
X139854254Y-83274631D01*
X139854249Y-83274630D01*
X139675004Y-83254435D01*
X139674996Y-83254435D01*
X139495750Y-83274630D01*
X139495745Y-83274631D01*
X139325476Y-83334211D01*
X139172737Y-83430184D01*
X139127680Y-83475241D01*
X139066357Y-83508725D01*
X138996665Y-83503740D01*
X138952320Y-83475241D01*
X138907263Y-83430185D01*
X138907262Y-83430184D01*
X138754523Y-83334211D01*
X138584254Y-83274631D01*
X138584249Y-83274630D01*
X138405004Y-83254435D01*
X138404996Y-83254435D01*
X138225750Y-83274630D01*
X138225745Y-83274631D01*
X138055476Y-83334211D01*
X137902736Y-83430185D01*
X137899903Y-83432445D01*
X137897724Y-83433334D01*
X137896842Y-83433889D01*
X137896744Y-83433734D01*
X137835217Y-83458855D01*
X137822588Y-83459500D01*
X129123411Y-83459500D01*
X129056372Y-83439815D01*
X129010617Y-83387011D01*
X129000673Y-83317853D01*
X129029698Y-83254297D01*
X129035730Y-83247819D01*
X129346730Y-82936819D01*
X129408053Y-82903334D01*
X129434411Y-82900500D01*
X129717588Y-82900500D01*
X129784627Y-82920185D01*
X129794903Y-82927555D01*
X129797736Y-82929814D01*
X129797738Y-82929816D01*
X129950478Y-83025789D01*
X130074820Y-83069298D01*
X130120745Y-83085368D01*
X130120750Y-83085369D01*
X130299996Y-83105565D01*
X130300000Y-83105565D01*
X130300004Y-83105565D01*
X130479249Y-83085369D01*
X130479252Y-83085368D01*
X130479255Y-83085368D01*
X130649522Y-83025789D01*
X130802262Y-82929816D01*
X130929816Y-82802262D01*
X131025789Y-82649522D01*
X131085368Y-82479255D01*
X131105565Y-82300000D01*
X131103827Y-82284579D01*
X131085369Y-82120750D01*
X131085368Y-82120745D01*
X131067536Y-82069783D01*
X131025789Y-81950478D01*
X130929816Y-81797738D01*
X130802262Y-81670184D01*
X130649523Y-81574211D01*
X130479254Y-81514631D01*
X130479249Y-81514630D01*
X130300004Y-81494435D01*
X130299996Y-81494435D01*
X130120750Y-81514630D01*
X130120745Y-81514631D01*
X129950476Y-81574211D01*
X129797736Y-81670185D01*
X129794903Y-81672445D01*
X129792724Y-81673334D01*
X129791842Y-81673889D01*
X129791744Y-81673734D01*
X129730217Y-81698855D01*
X129717588Y-81699500D01*
X129220983Y-81699500D01*
X129220967Y-81699499D01*
X129213371Y-81699499D01*
X129055257Y-81699499D01*
X128947901Y-81728265D01*
X128902524Y-81740424D01*
X128902523Y-81740425D01*
X128867380Y-81760716D01*
X128867378Y-81760717D01*
X128765604Y-81819475D01*
X128765596Y-81819481D01*
X128512181Y-82072897D01*
X128450858Y-82106382D01*
X128381166Y-82101398D01*
X128325233Y-82059526D01*
X128300816Y-81994062D01*
X128300500Y-81985216D01*
X128300500Y-79682412D01*
X128320185Y-79615373D01*
X128327555Y-79605097D01*
X128329810Y-79602267D01*
X128329816Y-79602262D01*
X128425789Y-79449522D01*
X128485368Y-79279255D01*
X128485369Y-79279249D01*
X128505565Y-79100003D01*
X128505565Y-79099996D01*
X128485369Y-78920750D01*
X128485368Y-78920745D01*
X128425788Y-78750476D01*
X128373629Y-78667466D01*
X128329816Y-78597738D01*
X128202262Y-78470184D01*
X128049523Y-78374211D01*
X127879254Y-78314631D01*
X127879249Y-78314630D01*
X127700004Y-78294435D01*
X127699996Y-78294435D01*
X127520750Y-78314630D01*
X127520745Y-78314631D01*
X127350476Y-78374211D01*
X127197737Y-78470184D01*
X127070184Y-78597737D01*
X126974211Y-78750476D01*
X126914631Y-78920745D01*
X126914630Y-78920750D01*
X126894435Y-79099996D01*
X126894435Y-79100003D01*
X126914630Y-79279249D01*
X126914631Y-79279254D01*
X126974211Y-79449523D01*
X127070185Y-79602263D01*
X127072445Y-79605097D01*
X127073334Y-79607275D01*
X127073889Y-79608158D01*
X127073734Y-79608255D01*
X127098855Y-79669783D01*
X127099500Y-79682412D01*
X127099500Y-82499902D01*
X127079815Y-82566941D01*
X127063181Y-82587583D01*
X126581465Y-83069298D01*
X126520142Y-83102783D01*
X126507668Y-83104837D01*
X126420750Y-83114630D01*
X126250478Y-83174210D01*
X126097737Y-83270184D01*
X125970184Y-83397737D01*
X125874209Y-83550480D01*
X125841541Y-83643840D01*
X125800820Y-83700616D01*
X125735867Y-83726363D01*
X125667305Y-83712907D01*
X125616903Y-83664519D01*
X125600500Y-83602885D01*
X125600500Y-81089059D01*
X125600501Y-81089046D01*
X125600501Y-80920945D01*
X125600501Y-80920943D01*
X125559577Y-80768215D01*
X125511261Y-80684530D01*
X125480520Y-80631284D01*
X125368716Y-80519480D01*
X125368715Y-80519479D01*
X125364385Y-80515149D01*
X125364374Y-80515139D01*
X124438811Y-79589576D01*
X124405326Y-79528253D01*
X124410310Y-79458561D01*
X124421492Y-79435934D01*
X124475789Y-79349522D01*
X124535368Y-79179255D01*
X124535369Y-79179249D01*
X124555565Y-79000003D01*
X124555565Y-78999996D01*
X124535369Y-78820750D01*
X124535368Y-78820745D01*
X124530470Y-78806748D01*
X124475789Y-78650478D01*
X124379816Y-78497738D01*
X124252262Y-78370184D01*
X124239766Y-78362332D01*
X124099523Y-78274211D01*
X123929254Y-78214631D01*
X123929249Y-78214630D01*
X123750004Y-78194435D01*
X123749996Y-78194435D01*
X123570750Y-78214630D01*
X123570745Y-78214631D01*
X123400476Y-78274211D01*
X123290472Y-78343332D01*
X123223235Y-78362332D01*
X123156400Y-78341964D01*
X123111186Y-78288696D01*
X123100500Y-78238338D01*
X123100500Y-75371416D01*
X123107459Y-75330461D01*
X123160366Y-75179262D01*
X123160369Y-75179249D01*
X123180565Y-75000003D01*
X123180565Y-74999996D01*
X123160369Y-74820750D01*
X123160368Y-74820745D01*
X123100788Y-74650476D01*
X123004815Y-74497737D01*
X122877262Y-74370184D01*
X122724523Y-74274211D01*
X122554254Y-74214631D01*
X122554249Y-74214630D01*
X122375004Y-74194435D01*
X122374996Y-74194435D01*
X122195750Y-74214630D01*
X122195745Y-74214631D01*
X122025476Y-74274211D01*
X121872737Y-74370184D01*
X121745184Y-74497737D01*
X121649211Y-74650476D01*
X121589631Y-74820745D01*
X121589630Y-74820750D01*
X121569435Y-74999996D01*
X121569435Y-75000003D01*
X121590411Y-75186175D01*
X121588711Y-75186366D01*
X121584972Y-75247321D01*
X121543670Y-75303677D01*
X121478457Y-75328756D01*
X121454475Y-75328388D01*
X121375006Y-75319435D01*
X121374996Y-75319435D01*
X121195750Y-75339630D01*
X121195745Y-75339631D01*
X121025476Y-75399211D01*
X120872737Y-75495184D01*
X120745184Y-75622737D01*
X120649210Y-75775478D01*
X120589630Y-75945750D01*
X120579837Y-76032668D01*
X120552770Y-76097082D01*
X120544298Y-76106465D01*
X119621286Y-77029478D01*
X119509481Y-77141282D01*
X119509475Y-77141290D01*
X119459566Y-77227737D01*
X119459566Y-77227738D01*
X119430423Y-77278215D01*
X119389499Y-77430943D01*
X119389499Y-77430945D01*
X119389499Y-77599046D01*
X119389500Y-77599059D01*
X119389500Y-90345112D01*
X119369815Y-90412151D01*
X119317011Y-90457906D01*
X119247853Y-90467850D01*
X119227182Y-90463043D01*
X119026240Y-90397753D01*
X118864957Y-90372208D01*
X118816287Y-90364500D01*
X118603713Y-90364500D01*
X118555042Y-90372208D01*
X118393760Y-90397753D01*
X118191585Y-90463444D01*
X118002179Y-90559951D01*
X117830213Y-90684890D01*
X117679894Y-90835209D01*
X117679890Y-90835214D01*
X117560318Y-90999793D01*
X117504989Y-91042459D01*
X117435375Y-91048438D01*
X117373580Y-91015833D01*
X117359682Y-90999793D01*
X117240109Y-90835214D01*
X117240105Y-90835209D01*
X117089786Y-90684890D01*
X116917820Y-90559951D01*
X116728414Y-90463444D01*
X116728413Y-90463443D01*
X116728412Y-90463443D01*
X116526243Y-90397754D01*
X116526241Y-90397753D01*
X116526240Y-90397753D01*
X116364957Y-90372208D01*
X116316287Y-90364500D01*
X116103713Y-90364500D01*
X116055042Y-90372208D01*
X115893760Y-90397753D01*
X115691585Y-90463444D01*
X115502179Y-90559951D01*
X115330213Y-90684890D01*
X115179894Y-90835209D01*
X115179890Y-90835214D01*
X115060318Y-90999793D01*
X115004989Y-91042459D01*
X114935375Y-91048438D01*
X114873580Y-91015833D01*
X114859682Y-90999793D01*
X114740109Y-90835214D01*
X114740105Y-90835209D01*
X114589786Y-90684890D01*
X114417820Y-90559951D01*
X114228416Y-90463444D01*
X114220499Y-90460872D01*
X114211835Y-90458056D01*
X114154162Y-90418620D01*
X114126964Y-90354261D01*
X114138879Y-90285415D01*
X114162475Y-90252446D01*
X114217822Y-90197099D01*
X114277139Y-90137782D01*
X114277139Y-90137780D01*
X114284200Y-90130720D01*
X114284206Y-90130713D01*
X117887778Y-86527141D01*
X117887782Y-86527139D01*
X118027139Y-86387782D01*
X118136632Y-86223914D01*
X118205845Y-86056818D01*
X118212051Y-86041836D01*
X118240264Y-85900000D01*
X118250500Y-85848541D01*
X118250500Y-76177588D01*
X118270185Y-76110549D01*
X118272925Y-76106465D01*
X118294408Y-76075784D01*
X118380568Y-75952734D01*
X118476739Y-75746496D01*
X118535635Y-75526692D01*
X118555468Y-75300000D01*
X118535635Y-75073308D01*
X118476739Y-74853504D01*
X118380568Y-74647266D01*
X118250047Y-74460861D01*
X118250045Y-74460858D01*
X118089141Y-74299954D01*
X117902734Y-74169432D01*
X117902732Y-74169431D01*
X117696497Y-74073261D01*
X117696488Y-74073258D01*
X117476697Y-74014366D01*
X117476693Y-74014365D01*
X117476692Y-74014365D01*
X117476691Y-74014364D01*
X117476686Y-74014364D01*
X117250002Y-73994532D01*
X117249998Y-73994532D01*
X117023313Y-74014364D01*
X117023302Y-74014366D01*
X116803511Y-74073258D01*
X116803502Y-74073261D01*
X116597267Y-74169431D01*
X116597265Y-74169432D01*
X116410858Y-74299954D01*
X116249954Y-74460858D01*
X116119432Y-74647265D01*
X116119431Y-74647267D01*
X116023261Y-74853502D01*
X116023258Y-74853511D01*
X115964366Y-75073302D01*
X115964364Y-75073313D01*
X115944532Y-75299998D01*
X115944532Y-75300001D01*
X115964364Y-75526686D01*
X115964366Y-75526697D01*
X116023258Y-75746488D01*
X116023261Y-75746497D01*
X116119431Y-75952732D01*
X116119432Y-75952734D01*
X116227075Y-76106465D01*
X116249402Y-76172671D01*
X116249500Y-76177588D01*
X116249500Y-85284217D01*
X116229815Y-85351256D01*
X116213181Y-85371898D01*
X113000201Y-88584877D01*
X112959982Y-88611753D01*
X112956092Y-88613364D01*
X112956083Y-88613368D01*
X112792222Y-88722857D01*
X112792219Y-88722859D01*
X112722540Y-88792538D01*
X112652861Y-88862218D01*
X112652858Y-88862221D01*
X111907300Y-89607780D01*
X111186899Y-90328181D01*
X111125576Y-90361666D01*
X111108527Y-90363499D01*
X111108576Y-90364117D01*
X111103715Y-90364499D01*
X110893760Y-90397753D01*
X110691585Y-90463444D01*
X110502179Y-90559951D01*
X110330215Y-90684889D01*
X110191035Y-90824069D01*
X110129712Y-90857553D01*
X110060020Y-90852569D01*
X110004087Y-90810697D01*
X109997815Y-90801484D01*
X109902315Y-90646654D01*
X109778345Y-90522684D01*
X109629124Y-90430643D01*
X109629119Y-90430641D01*
X109462697Y-90375494D01*
X109462690Y-90375493D01*
X109359986Y-90365000D01*
X108960000Y-90365000D01*
X108960000Y-91435854D01*
X108893343Y-91397370D01*
X108772535Y-91365000D01*
X108647465Y-91365000D01*
X108526657Y-91397370D01*
X108460000Y-91435854D01*
X108460000Y-90365000D01*
X108060028Y-90365000D01*
X108060012Y-90365001D01*
X107957302Y-90375494D01*
X107790880Y-90430641D01*
X107790875Y-90430643D01*
X107641654Y-90522684D01*
X107517684Y-90646654D01*
X107425643Y-90795875D01*
X107425641Y-90795880D01*
X107370494Y-90962302D01*
X107370493Y-90962309D01*
X107360000Y-91065013D01*
X97750500Y-91065013D01*
X97750500Y-86420000D01*
X98765138Y-86420000D01*
X99568012Y-86420000D01*
X99550795Y-86429940D01*
X99494940Y-86485795D01*
X99455444Y-86554204D01*
X99435000Y-86630504D01*
X99435000Y-86709496D01*
X99455444Y-86785796D01*
X99494940Y-86854205D01*
X99550795Y-86910060D01*
X99568012Y-86920000D01*
X98765138Y-86920000D01*
X98773430Y-86961690D01*
X98773430Y-86961692D01*
X98848807Y-87143671D01*
X98848814Y-87143684D01*
X98958248Y-87307462D01*
X98958251Y-87307466D01*
X99097533Y-87446748D01*
X99097537Y-87446751D01*
X99261315Y-87556185D01*
X99261328Y-87556192D01*
X99443306Y-87631569D01*
X99443318Y-87631572D01*
X99636504Y-87669999D01*
X99636508Y-87670000D01*
X99885000Y-87670000D01*
X99885000Y-86970000D01*
X100385000Y-86970000D01*
X100385000Y-87670000D01*
X100633492Y-87670000D01*
X100633495Y-87669999D01*
X100826681Y-87631572D01*
X100826693Y-87631569D01*
X101008671Y-87556192D01*
X101008684Y-87556185D01*
X101172462Y-87446751D01*
X101172466Y-87446748D01*
X101311748Y-87307466D01*
X101311751Y-87307462D01*
X101421185Y-87143684D01*
X101421192Y-87143671D01*
X101496569Y-86961692D01*
X101496569Y-86961690D01*
X101504862Y-86920000D01*
X100701988Y-86920000D01*
X100719205Y-86910060D01*
X100775060Y-86854205D01*
X100814556Y-86785796D01*
X100835000Y-86709496D01*
X100835000Y-86630504D01*
X100814556Y-86554204D01*
X100775060Y-86485795D01*
X100719205Y-86429940D01*
X100701988Y-86420000D01*
X101504862Y-86420000D01*
X102795138Y-86420000D01*
X103598012Y-86420000D01*
X103580795Y-86429940D01*
X103524940Y-86485795D01*
X103485444Y-86554204D01*
X103465000Y-86630504D01*
X103465000Y-86709496D01*
X103485444Y-86785796D01*
X103524940Y-86854205D01*
X103580795Y-86910060D01*
X103598012Y-86920000D01*
X102795138Y-86920000D01*
X102803430Y-86961690D01*
X102803430Y-86961692D01*
X102878807Y-87143671D01*
X102878814Y-87143684D01*
X102988248Y-87307462D01*
X102988251Y-87307466D01*
X103127533Y-87446748D01*
X103127537Y-87446751D01*
X103291315Y-87556185D01*
X103291328Y-87556192D01*
X103473306Y-87631569D01*
X103473318Y-87631572D01*
X103666504Y-87669999D01*
X103666508Y-87670000D01*
X104065000Y-87670000D01*
X104065000Y-86970000D01*
X104565000Y-86970000D01*
X104565000Y-87670000D01*
X104963492Y-87670000D01*
X104963495Y-87669999D01*
X105156681Y-87631572D01*
X105156693Y-87631569D01*
X105338671Y-87556192D01*
X105338684Y-87556185D01*
X105502462Y-87446751D01*
X105502466Y-87446748D01*
X105641748Y-87307466D01*
X105641751Y-87307462D01*
X105751185Y-87143684D01*
X105751192Y-87143671D01*
X105826569Y-86961692D01*
X105826569Y-86961690D01*
X105834862Y-86920000D01*
X105031988Y-86920000D01*
X105049205Y-86910060D01*
X105105060Y-86854205D01*
X105144556Y-86785796D01*
X105165000Y-86709496D01*
X105165000Y-86630504D01*
X105144556Y-86554204D01*
X105105060Y-86485795D01*
X105049205Y-86429940D01*
X105031988Y-86420000D01*
X105834862Y-86420000D01*
X105826569Y-86378309D01*
X105826569Y-86378307D01*
X105751192Y-86196328D01*
X105751185Y-86196315D01*
X105641751Y-86032537D01*
X105641748Y-86032533D01*
X105502466Y-85893251D01*
X105502462Y-85893248D01*
X105338684Y-85783814D01*
X105338671Y-85783807D01*
X105156693Y-85708430D01*
X105156681Y-85708427D01*
X104963495Y-85670000D01*
X104565000Y-85670000D01*
X104565000Y-86370000D01*
X104065000Y-86370000D01*
X104065000Y-85831784D01*
X104084685Y-85764745D01*
X104127000Y-85724397D01*
X104168365Y-85700515D01*
X104275515Y-85593365D01*
X104351281Y-85462135D01*
X104390500Y-85315766D01*
X104390500Y-85164234D01*
X104351281Y-85017865D01*
X104349414Y-85014632D01*
X104312512Y-84950716D01*
X104275515Y-84886635D01*
X104168365Y-84779485D01*
X104102750Y-84741602D01*
X104037136Y-84703719D01*
X103949304Y-84680185D01*
X103890766Y-84664500D01*
X103739234Y-84664500D01*
X103592863Y-84703719D01*
X103461635Y-84779485D01*
X103461632Y-84779487D01*
X103354487Y-84886632D01*
X103354485Y-84886635D01*
X103278719Y-85017863D01*
X103263621Y-85074211D01*
X103239500Y-85164234D01*
X103239500Y-85315766D01*
X103254081Y-85370184D01*
X103278719Y-85462136D01*
X103299274Y-85497737D01*
X103354485Y-85593365D01*
X103354486Y-85593366D01*
X103358549Y-85600403D01*
X103356346Y-85601674D01*
X103376959Y-85654983D01*
X103362923Y-85723428D01*
X103314112Y-85773420D01*
X103300845Y-85779866D01*
X103291324Y-85783809D01*
X103291315Y-85783814D01*
X103127537Y-85893248D01*
X103127533Y-85893251D01*
X102988251Y-86032533D01*
X102988248Y-86032537D01*
X102878814Y-86196315D01*
X102878807Y-86196328D01*
X102803430Y-86378307D01*
X102803430Y-86378309D01*
X102795138Y-86420000D01*
X101504862Y-86420000D01*
X101496569Y-86378309D01*
X101496569Y-86378307D01*
X101421192Y-86196328D01*
X101421185Y-86196315D01*
X101311751Y-86032537D01*
X101311748Y-86032533D01*
X101172466Y-85893251D01*
X101172462Y-85893248D01*
X101008684Y-85783814D01*
X101008671Y-85783807D01*
X100826693Y-85708430D01*
X100826681Y-85708427D01*
X100633495Y-85670000D01*
X100385000Y-85670000D01*
X100385000Y-86370000D01*
X99885000Y-86370000D01*
X99885000Y-85670000D01*
X99636504Y-85670000D01*
X99443318Y-85708427D01*
X99443306Y-85708430D01*
X99261328Y-85783807D01*
X99261315Y-85783814D01*
X99097537Y-85893248D01*
X99097533Y-85893251D01*
X98958251Y-86032533D01*
X98958248Y-86032537D01*
X98848814Y-86196315D01*
X98848807Y-86196328D01*
X98773430Y-86378307D01*
X98773430Y-86378309D01*
X98765138Y-86420000D01*
X97750500Y-86420000D01*
X97750500Y-77780000D01*
X98765138Y-77780000D01*
X99568012Y-77780000D01*
X99550795Y-77789940D01*
X99494940Y-77845795D01*
X99455444Y-77914204D01*
X99435000Y-77990504D01*
X99435000Y-78069496D01*
X99455444Y-78145796D01*
X99494940Y-78214205D01*
X99550795Y-78270060D01*
X99568012Y-78280000D01*
X98765138Y-78280000D01*
X98773430Y-78321690D01*
X98773430Y-78321692D01*
X98848807Y-78503671D01*
X98848814Y-78503684D01*
X98958248Y-78667462D01*
X98958251Y-78667466D01*
X99097533Y-78806748D01*
X99097537Y-78806751D01*
X99261315Y-78916185D01*
X99261328Y-78916192D01*
X99443306Y-78991569D01*
X99443318Y-78991572D01*
X99636504Y-79029999D01*
X99636508Y-79030000D01*
X99885000Y-79030000D01*
X99885000Y-78330000D01*
X100385000Y-78330000D01*
X100385000Y-79030000D01*
X100633492Y-79030000D01*
X100633495Y-79029999D01*
X100826681Y-78991572D01*
X100826693Y-78991569D01*
X101008671Y-78916192D01*
X101008684Y-78916185D01*
X101172462Y-78806751D01*
X101172466Y-78806748D01*
X101311748Y-78667466D01*
X101311751Y-78667462D01*
X101421185Y-78503684D01*
X101421192Y-78503671D01*
X101496569Y-78321692D01*
X101496569Y-78321690D01*
X101504862Y-78280000D01*
X100701988Y-78280000D01*
X100719205Y-78270060D01*
X100775060Y-78214205D01*
X100814556Y-78145796D01*
X100835000Y-78069496D01*
X100835000Y-77990504D01*
X100814556Y-77914204D01*
X100775060Y-77845795D01*
X100719205Y-77789940D01*
X100701988Y-77780000D01*
X101504862Y-77780000D01*
X102795138Y-77780000D01*
X103598012Y-77780000D01*
X103580795Y-77789940D01*
X103524940Y-77845795D01*
X103485444Y-77914204D01*
X103465000Y-77990504D01*
X103465000Y-78069496D01*
X103485444Y-78145796D01*
X103524940Y-78214205D01*
X103580795Y-78270060D01*
X103598012Y-78280000D01*
X102795138Y-78280000D01*
X102803430Y-78321690D01*
X102803430Y-78321692D01*
X102878807Y-78503671D01*
X102878814Y-78503684D01*
X102988248Y-78667462D01*
X102988251Y-78667466D01*
X103127533Y-78806748D01*
X103127537Y-78806751D01*
X103291315Y-78916185D01*
X103291328Y-78916192D01*
X103300838Y-78920131D01*
X103355243Y-78963970D01*
X103377310Y-79030264D01*
X103360033Y-79097963D01*
X103356350Y-79103405D01*
X103278719Y-79237863D01*
X103239500Y-79384234D01*
X103239500Y-79535765D01*
X103278719Y-79682136D01*
X103316602Y-79747750D01*
X103354485Y-79813365D01*
X103461635Y-79920515D01*
X103592865Y-79996281D01*
X103739234Y-80035500D01*
X103739236Y-80035500D01*
X103890764Y-80035500D01*
X103890766Y-80035500D01*
X104037135Y-79996281D01*
X104168365Y-79920515D01*
X104275515Y-79813365D01*
X104351281Y-79682135D01*
X104390500Y-79535766D01*
X104390500Y-79384234D01*
X104351281Y-79237865D01*
X104275515Y-79106635D01*
X104168365Y-78999485D01*
X104154654Y-78991569D01*
X104126998Y-78975601D01*
X104078784Y-78925033D01*
X104065000Y-78868215D01*
X104065000Y-78330000D01*
X104565000Y-78330000D01*
X104565000Y-79030000D01*
X104963492Y-79030000D01*
X104963495Y-79029999D01*
X105156681Y-78991572D01*
X105156693Y-78991569D01*
X105338671Y-78916192D01*
X105338684Y-78916185D01*
X105502462Y-78806751D01*
X105502466Y-78806748D01*
X105641748Y-78667466D01*
X105641751Y-78667462D01*
X105751185Y-78503684D01*
X105751192Y-78503671D01*
X105826569Y-78321692D01*
X105826569Y-78321690D01*
X105834862Y-78280000D01*
X105031988Y-78280000D01*
X105049205Y-78270060D01*
X105105060Y-78214205D01*
X105144556Y-78145796D01*
X105165000Y-78069496D01*
X105165000Y-77990504D01*
X105144556Y-77914204D01*
X105105060Y-77845795D01*
X105049205Y-77789940D01*
X105031988Y-77780000D01*
X105834862Y-77780000D01*
X105826569Y-77738309D01*
X105826569Y-77738307D01*
X105751192Y-77556328D01*
X105751185Y-77556315D01*
X105641751Y-77392537D01*
X105641748Y-77392533D01*
X105502466Y-77253251D01*
X105502462Y-77253248D01*
X105338684Y-77143814D01*
X105338671Y-77143807D01*
X105156693Y-77068430D01*
X105156681Y-77068427D01*
X104963495Y-77030000D01*
X104565000Y-77030000D01*
X104565000Y-77730000D01*
X104065000Y-77730000D01*
X104065000Y-77030000D01*
X103666504Y-77030000D01*
X103473318Y-77068427D01*
X103473306Y-77068430D01*
X103291328Y-77143807D01*
X103291315Y-77143814D01*
X103127537Y-77253248D01*
X103127533Y-77253251D01*
X102988251Y-77392533D01*
X102988248Y-77392537D01*
X102878814Y-77556315D01*
X102878807Y-77556328D01*
X102803430Y-77738307D01*
X102803430Y-77738309D01*
X102795138Y-77780000D01*
X101504862Y-77780000D01*
X101496569Y-77738309D01*
X101496569Y-77738307D01*
X101421192Y-77556328D01*
X101421185Y-77556315D01*
X101311751Y-77392537D01*
X101311748Y-77392533D01*
X101172466Y-77253251D01*
X101172462Y-77253248D01*
X101008684Y-77143814D01*
X101008671Y-77143807D01*
X100826693Y-77068430D01*
X100826681Y-77068427D01*
X100633495Y-77030000D01*
X100385000Y-77030000D01*
X100385000Y-77730000D01*
X99885000Y-77730000D01*
X99885000Y-77030000D01*
X99636504Y-77030000D01*
X99443318Y-77068427D01*
X99443306Y-77068430D01*
X99261328Y-77143807D01*
X99261315Y-77143814D01*
X99097537Y-77253248D01*
X99097533Y-77253251D01*
X98958251Y-77392533D01*
X98958248Y-77392537D01*
X98848814Y-77556315D01*
X98848807Y-77556328D01*
X98773430Y-77738307D01*
X98773430Y-77738309D01*
X98765138Y-77780000D01*
X97750500Y-77780000D01*
X97750500Y-65749998D01*
X100444532Y-65749998D01*
X100444532Y-65750001D01*
X100464364Y-65976686D01*
X100464366Y-65976697D01*
X100523258Y-66196488D01*
X100523261Y-66196497D01*
X100619431Y-66402732D01*
X100619432Y-66402734D01*
X100727075Y-66556465D01*
X100749402Y-66622671D01*
X100749500Y-66627588D01*
X100749500Y-69598541D01*
X100749500Y-69598543D01*
X100749499Y-69598543D01*
X100787947Y-69791829D01*
X100787950Y-69791839D01*
X100863364Y-69973907D01*
X100863371Y-69973920D01*
X100972860Y-70137781D01*
X100972863Y-70137785D01*
X101116537Y-70281459D01*
X101116559Y-70281479D01*
X106168318Y-75333238D01*
X106201803Y-75394561D01*
X106204165Y-75410111D01*
X106214364Y-75526687D01*
X106214366Y-75526697D01*
X106273258Y-75746488D01*
X106273261Y-75746497D01*
X106369431Y-75952732D01*
X106369432Y-75952734D01*
X106499954Y-76139141D01*
X106660858Y-76300045D01*
X106660861Y-76300047D01*
X106847266Y-76430568D01*
X107053504Y-76526739D01*
X107273308Y-76585635D01*
X107435230Y-76599801D01*
X107499998Y-76605468D01*
X107500000Y-76605468D01*
X107500002Y-76605468D01*
X107556673Y-76600509D01*
X107726692Y-76585635D01*
X107946496Y-76526739D01*
X108152734Y-76430568D01*
X108339139Y-76300047D01*
X108500047Y-76139139D01*
X108630568Y-75952734D01*
X108726739Y-75746496D01*
X108785635Y-75526692D01*
X108805468Y-75300000D01*
X108785635Y-75073308D01*
X108726739Y-74853504D01*
X108630568Y-74647266D01*
X108500047Y-74460861D01*
X108500045Y-74460858D01*
X108339141Y-74299954D01*
X108152734Y-74169432D01*
X108152732Y-74169431D01*
X107946497Y-74073261D01*
X107946488Y-74073258D01*
X107726692Y-74014365D01*
X107726681Y-74014364D01*
X107719696Y-74013752D01*
X107654629Y-73988299D01*
X107642826Y-73977906D01*
X105864916Y-72199996D01*
X110644435Y-72199996D01*
X110644435Y-72200003D01*
X110664630Y-72379249D01*
X110664631Y-72379254D01*
X110724211Y-72549523D01*
X110737546Y-72570745D01*
X110820184Y-72702262D01*
X110947738Y-72829816D01*
X111100478Y-72925789D01*
X111270745Y-72985368D01*
X111357669Y-72995161D01*
X111422080Y-73022226D01*
X111431465Y-73030700D01*
X111565139Y-73164374D01*
X111565149Y-73164385D01*
X111569479Y-73168715D01*
X111569480Y-73168716D01*
X111681284Y-73280520D01*
X111681286Y-73280521D01*
X111681290Y-73280524D01*
X111731610Y-73309576D01*
X111731615Y-73309578D01*
X111818209Y-73359574D01*
X111818210Y-73359574D01*
X111818215Y-73359577D01*
X111970943Y-73400500D01*
X112129057Y-73400500D01*
X126363331Y-73400500D01*
X126363347Y-73400501D01*
X126370943Y-73400501D01*
X126529054Y-73400501D01*
X126529057Y-73400501D01*
X126681785Y-73359577D01*
X126768387Y-73309577D01*
X126818716Y-73280520D01*
X126930520Y-73168716D01*
X126930520Y-73168714D01*
X126940724Y-73158511D01*
X126940727Y-73158506D01*
X127349237Y-72749996D01*
X147694435Y-72749996D01*
X147694435Y-72750003D01*
X147714630Y-72929249D01*
X147714631Y-72929254D01*
X147774211Y-73099523D01*
X147870184Y-73252262D01*
X147997738Y-73379816D01*
X148030658Y-73400501D01*
X148075307Y-73428556D01*
X148121598Y-73480891D01*
X148132246Y-73549945D01*
X148103871Y-73613793D01*
X148075309Y-73638542D01*
X148038950Y-73661388D01*
X148038945Y-73661392D01*
X147911392Y-73788945D01*
X147815419Y-73941684D01*
X147755839Y-74111953D01*
X147755838Y-74111958D01*
X147735643Y-74291204D01*
X147735643Y-74291211D01*
X147755838Y-74470457D01*
X147755839Y-74470462D01*
X147815419Y-74640731D01*
X147911392Y-74793470D01*
X148038946Y-74921024D01*
X148191686Y-75016997D01*
X148352596Y-75073302D01*
X148361953Y-75076576D01*
X148361958Y-75076577D01*
X148541204Y-75096773D01*
X148541208Y-75096773D01*
X148541212Y-75096773D01*
X148720457Y-75076577D01*
X148720460Y-75076576D01*
X148720463Y-75076576D01*
X148890730Y-75016997D01*
X149043470Y-74921024D01*
X149043475Y-74921018D01*
X149046305Y-74918763D01*
X149048483Y-74917873D01*
X149049366Y-74917319D01*
X149049463Y-74917473D01*
X149110991Y-74892353D01*
X149123620Y-74891708D01*
X149957331Y-74891708D01*
X150024370Y-74911393D01*
X150034646Y-74918763D01*
X150037479Y-74921022D01*
X150037481Y-74921024D01*
X150190221Y-75016997D01*
X150351131Y-75073302D01*
X150360488Y-75076576D01*
X150360493Y-75076577D01*
X150539739Y-75096773D01*
X150539743Y-75096773D01*
X150539747Y-75096773D01*
X150718992Y-75076577D01*
X150718995Y-75076576D01*
X150718998Y-75076576D01*
X150889265Y-75016997D01*
X151042005Y-74921024D01*
X151169559Y-74793470D01*
X151265532Y-74640730D01*
X151325111Y-74470463D01*
X151326193Y-74460861D01*
X151345308Y-74291211D01*
X151345308Y-74291204D01*
X151325112Y-74111958D01*
X151325111Y-74111953D01*
X151289373Y-74009819D01*
X151265532Y-73941686D01*
X151169559Y-73788946D01*
X151146907Y-73766294D01*
X151113422Y-73704971D01*
X151118406Y-73635279D01*
X151160278Y-73579346D01*
X151225742Y-73554929D01*
X151248473Y-73555392D01*
X151250000Y-73555565D01*
X151250004Y-73555565D01*
X151429249Y-73535369D01*
X151429252Y-73535368D01*
X151429255Y-73535368D01*
X151599522Y-73475789D01*
X151752262Y-73379816D01*
X151879816Y-73252262D01*
X151975789Y-73099522D01*
X152035368Y-72929255D01*
X152055565Y-72750000D01*
X152050186Y-72702262D01*
X152035369Y-72570750D01*
X152035368Y-72570745D01*
X151975788Y-72400476D01*
X151879815Y-72247737D01*
X151752262Y-72120184D01*
X151599523Y-72024211D01*
X151429254Y-71964631D01*
X151429249Y-71964630D01*
X151250004Y-71944435D01*
X151249996Y-71944435D01*
X151070750Y-71964630D01*
X151070745Y-71964631D01*
X150900476Y-72024211D01*
X150747736Y-72120185D01*
X150744903Y-72122445D01*
X150742724Y-72123334D01*
X150741842Y-72123889D01*
X150741744Y-72123734D01*
X150680217Y-72148855D01*
X150667588Y-72149500D01*
X149082412Y-72149500D01*
X149015373Y-72129815D01*
X149005097Y-72122445D01*
X149002263Y-72120185D01*
X149002262Y-72120184D01*
X148945496Y-72084515D01*
X148849523Y-72024211D01*
X148679254Y-71964631D01*
X148679249Y-71964630D01*
X148500004Y-71944435D01*
X148499996Y-71944435D01*
X148320750Y-71964630D01*
X148320745Y-71964631D01*
X148150476Y-72024211D01*
X147997737Y-72120184D01*
X147870184Y-72247737D01*
X147774211Y-72400476D01*
X147714631Y-72570745D01*
X147714630Y-72570750D01*
X147694435Y-72749996D01*
X127349237Y-72749996D01*
X127916338Y-72182896D01*
X127963060Y-72153538D01*
X128099522Y-72105789D01*
X128252262Y-72009816D01*
X128379816Y-71882262D01*
X128475789Y-71729522D01*
X128535368Y-71559255D01*
X128551663Y-71414631D01*
X128555565Y-71380003D01*
X128555565Y-71379996D01*
X128535369Y-71200750D01*
X128535368Y-71200745D01*
X128475788Y-71030475D01*
X128422910Y-70946322D01*
X128381847Y-70880971D01*
X128362847Y-70813736D01*
X128381847Y-70749029D01*
X128475789Y-70599522D01*
X128535368Y-70429255D01*
X128535369Y-70429249D01*
X128555565Y-70250003D01*
X128555565Y-70249996D01*
X128535369Y-70070750D01*
X128535368Y-70070745D01*
X128475788Y-69900476D01*
X128407720Y-69792147D01*
X128379816Y-69747738D01*
X128299759Y-69667681D01*
X128266274Y-69606358D01*
X128271258Y-69536666D01*
X128299759Y-69492319D01*
X128409816Y-69382262D01*
X128505789Y-69229522D01*
X128565368Y-69059255D01*
X128565369Y-69059249D01*
X128585565Y-68880003D01*
X128585565Y-68879996D01*
X128565369Y-68700750D01*
X128565368Y-68700745D01*
X128565274Y-68700476D01*
X128505789Y-68530478D01*
X128409816Y-68377738D01*
X128282262Y-68250184D01*
X128273113Y-68244435D01*
X128129523Y-68154211D01*
X127959254Y-68094631D01*
X127959249Y-68094630D01*
X127780004Y-68074435D01*
X127779996Y-68074435D01*
X127600750Y-68094630D01*
X127600745Y-68094631D01*
X127430476Y-68154211D01*
X127277737Y-68250184D01*
X127150186Y-68377735D01*
X127150184Y-68377737D01*
X127150184Y-68377738D01*
X127141553Y-68391473D01*
X127089222Y-68437762D01*
X127036561Y-68449500D01*
X122332412Y-68449500D01*
X122265373Y-68429815D01*
X122255097Y-68422445D01*
X122252263Y-68420185D01*
X122252262Y-68420184D01*
X122184705Y-68377735D01*
X122099523Y-68324211D01*
X121929254Y-68264631D01*
X121929249Y-68264630D01*
X121750004Y-68244435D01*
X121749996Y-68244435D01*
X121570750Y-68264630D01*
X121570745Y-68264631D01*
X121400476Y-68324211D01*
X121247737Y-68420184D01*
X121120184Y-68547737D01*
X121024211Y-68700476D01*
X120964631Y-68870745D01*
X120964630Y-68870750D01*
X120944435Y-69049996D01*
X120944435Y-69050003D01*
X120964630Y-69229249D01*
X120964631Y-69229254D01*
X121024211Y-69399523D01*
X121082519Y-69492319D01*
X121120184Y-69552262D01*
X121247738Y-69679816D01*
X121338080Y-69736582D01*
X121355833Y-69747737D01*
X121400478Y-69775789D01*
X121570745Y-69835368D01*
X121570750Y-69835369D01*
X121749996Y-69855565D01*
X121750000Y-69855565D01*
X121750004Y-69855565D01*
X121929249Y-69835369D01*
X121929252Y-69835368D01*
X121929255Y-69835368D01*
X122099522Y-69775789D01*
X122252262Y-69679816D01*
X122252267Y-69679810D01*
X122255097Y-69677555D01*
X122257275Y-69676665D01*
X122258158Y-69676111D01*
X122258255Y-69676265D01*
X122319783Y-69651145D01*
X122332412Y-69650500D01*
X126956921Y-69650500D01*
X127023960Y-69670185D01*
X127069715Y-69722989D01*
X127079659Y-69792147D01*
X127061915Y-69840472D01*
X127024210Y-69900478D01*
X126964630Y-70070750D01*
X126954837Y-70157668D01*
X126927770Y-70222082D01*
X126919298Y-70231465D01*
X125587584Y-71563181D01*
X125526261Y-71596666D01*
X125499903Y-71599500D01*
X118082412Y-71599500D01*
X118015373Y-71579815D01*
X118005097Y-71572445D01*
X118002263Y-71570185D01*
X118002262Y-71570184D01*
X117945496Y-71534515D01*
X117849523Y-71474211D01*
X117679254Y-71414631D01*
X117679249Y-71414630D01*
X117500004Y-71394435D01*
X117499996Y-71394435D01*
X117320750Y-71414630D01*
X117320745Y-71414631D01*
X117150476Y-71474211D01*
X116997737Y-71570184D01*
X116870184Y-71697737D01*
X116774210Y-71850478D01*
X116714630Y-72020750D01*
X116706898Y-72089383D01*
X116679832Y-72153797D01*
X116622237Y-72193352D01*
X116583678Y-72199500D01*
X112366321Y-72199500D01*
X112299282Y-72179815D01*
X112253527Y-72127011D01*
X112243101Y-72089383D01*
X112235368Y-72020745D01*
X112175789Y-71850478D01*
X112079816Y-71697738D01*
X111952262Y-71570184D01*
X111934859Y-71559249D01*
X111799523Y-71474211D01*
X111629254Y-71414631D01*
X111629249Y-71414630D01*
X111450004Y-71394435D01*
X111449996Y-71394435D01*
X111270750Y-71414630D01*
X111270745Y-71414631D01*
X111100476Y-71474211D01*
X110947737Y-71570184D01*
X110820184Y-71697737D01*
X110724211Y-71850476D01*
X110664631Y-72020745D01*
X110664630Y-72020750D01*
X110644435Y-72199996D01*
X105864916Y-72199996D01*
X102786819Y-69121899D01*
X102753334Y-69060576D01*
X102750500Y-69034218D01*
X102750500Y-66627588D01*
X102770185Y-66560549D01*
X102772925Y-66556465D01*
X102880568Y-66402734D01*
X102976739Y-66196496D01*
X103035635Y-65976692D01*
X103055468Y-65750000D01*
X103035635Y-65523308D01*
X102976739Y-65303504D01*
X102880568Y-65097266D01*
X102750047Y-64910861D01*
X102750045Y-64910858D01*
X102589141Y-64749954D01*
X102402734Y-64619432D01*
X102402732Y-64619431D01*
X102196497Y-64523261D01*
X102196488Y-64523258D01*
X101976697Y-64464366D01*
X101976693Y-64464365D01*
X101976692Y-64464365D01*
X101976691Y-64464364D01*
X101976686Y-64464364D01*
X101750002Y-64444532D01*
X101749998Y-64444532D01*
X101523313Y-64464364D01*
X101523302Y-64464366D01*
X101303511Y-64523258D01*
X101303502Y-64523261D01*
X101097267Y-64619431D01*
X101097265Y-64619432D01*
X100910858Y-64749954D01*
X100749954Y-64910858D01*
X100619432Y-65097265D01*
X100619431Y-65097267D01*
X100523261Y-65303502D01*
X100523258Y-65303511D01*
X100464366Y-65523302D01*
X100464364Y-65523313D01*
X100444532Y-65749998D01*
X97750500Y-65749998D01*
X97750500Y-54987453D01*
X97770185Y-54920414D01*
X97822989Y-54874659D01*
X97892147Y-54864715D01*
X97955703Y-54893740D01*
X97977131Y-54917864D01*
X98124314Y-55134943D01*
X98168634Y-55200309D01*
X98168641Y-55200319D01*
X98400331Y-55473085D01*
X98400332Y-55473086D01*
X98660163Y-55719211D01*
X98945081Y-55935800D01*
X99251747Y-56120315D01*
X99251749Y-56120316D01*
X99251751Y-56120317D01*
X99251755Y-56120319D01*
X99576552Y-56270585D01*
X99576565Y-56270591D01*
X99915726Y-56384868D01*
X100265254Y-56461805D01*
X100621052Y-56500500D01*
X100621058Y-56500500D01*
X100978942Y-56500500D01*
X100978948Y-56500500D01*
X101334746Y-56461805D01*
X101684274Y-56384868D01*
X102023435Y-56270591D01*
X102348253Y-56120315D01*
X102654919Y-55935800D01*
X102939837Y-55719211D01*
X103199668Y-55473086D01*
X103431365Y-55200311D01*
X103632211Y-54904085D01*
X103799853Y-54587880D01*
X103932324Y-54255403D01*
X104028071Y-53910552D01*
X104085972Y-53557371D01*
X104105348Y-53200000D01*
X104085972Y-52842629D01*
X104028071Y-52489448D01*
X103932324Y-52144597D01*
X103799853Y-51812120D01*
X103652833Y-51534812D01*
X103632215Y-51495922D01*
X103632213Y-51495919D01*
X103632211Y-51495915D01*
X103431365Y-51199689D01*
X103431361Y-51199684D01*
X103431358Y-51199680D01*
X103199668Y-50926914D01*
X102939837Y-50680789D01*
X102939830Y-50680783D01*
X102939827Y-50680781D01*
X102872245Y-50629407D01*
X102654919Y-50464200D01*
X102516223Y-50380749D01*
X102468929Y-50329321D01*
X102456947Y-50260486D01*
X102484082Y-50196101D01*
X102541719Y-50156607D01*
X102580153Y-50150500D01*
X112376000Y-50150500D01*
X112443039Y-50170185D01*
G37*
%TD.AperFunction*%
%TD*%
M02*
