%TF.GenerationSoftware,KiCad,Pcbnew,8.0.8*%
%TF.CreationDate,2025-05-21T09:44:21+02:00*%
%TF.ProjectId,Buttons_Displays_ESP32,42757474-6f6e-4735-9f44-6973706c6179,rev?*%
%TF.SameCoordinates,Original*%
%TF.FileFunction,Soldermask,Bot*%
%TF.FilePolarity,Negative*%
%FSLAX46Y46*%
G04 Gerber Fmt 4.6, Leading zero omitted, Abs format (unit mm)*
G04 Created by KiCad (PCBNEW 8.0.8) date 2025-05-21 09:44:21*
%MOMM*%
%LPD*%
G01*
G04 APERTURE LIST*
G04 Aperture macros list*
%AMRoundRect*
0 Rectangle with rounded corners*
0 $1 Rounding radius*
0 $2 $3 $4 $5 $6 $7 $8 $9 X,Y pos of 4 corners*
0 Add a 4 corners polygon primitive as box body*
4,1,4,$2,$3,$4,$5,$6,$7,$8,$9,$2,$3,0*
0 Add four circle primitives for the rounded corners*
1,1,$1+$1,$2,$3*
1,1,$1+$1,$4,$5*
1,1,$1+$1,$6,$7*
1,1,$1+$1,$8,$9*
0 Add four rect primitives between the rounded corners*
20,1,$1+$1,$2,$3,$4,$5,0*
20,1,$1+$1,$4,$5,$6,$7,0*
20,1,$1+$1,$6,$7,$8,$9,0*
20,1,$1+$1,$8,$9,$2,$3,0*%
G04 Aperture macros list end*
%ADD10RoundRect,0.250000X-0.600000X-0.725000X0.600000X-0.725000X0.600000X0.725000X-0.600000X0.725000X0*%
%ADD11O,1.700000X1.950000*%
%ADD12C,5.600000*%
%ADD13C,0.650000*%
%ADD14O,2.100000X1.000000*%
%ADD15O,1.800000X1.000000*%
G04 APERTURE END LIST*
D10*
%TO.C,J3*%
X108710000Y-91840000D03*
D11*
X111210000Y-91840000D03*
X113710000Y-91840000D03*
X116210000Y-91840000D03*
X118710000Y-91840000D03*
X121210000Y-91840000D03*
X123710000Y-91840000D03*
X126210000Y-91840000D03*
X128710000Y-91840000D03*
%TD*%
D10*
%TO.C,J4*%
X108710000Y-98740000D03*
D11*
X111210000Y-98740000D03*
X113710000Y-98740000D03*
X116210000Y-98740000D03*
X118710000Y-98740000D03*
X121210000Y-98740000D03*
X123710000Y-98740000D03*
X126210000Y-98740000D03*
X128710000Y-98740000D03*
%TD*%
D12*
%TO.C,REF\u002A\u002A*%
X163700000Y-101100000D03*
%TD*%
D10*
%TO.C,J2*%
X135730000Y-98740000D03*
D11*
X138230000Y-98740000D03*
X140730000Y-98740000D03*
X143230000Y-98740000D03*
X145730000Y-98740000D03*
X148230000Y-98740000D03*
X150730000Y-98740000D03*
X153230000Y-98740000D03*
X155730000Y-98740000D03*
%TD*%
D12*
%TO.C,REF\u002A\u002A*%
X163800000Y-53200000D03*
%TD*%
%TO.C,REF\u002A\u002A*%
X100800000Y-53200000D03*
%TD*%
%TO.C,REF\u002A\u002A*%
X100700000Y-101100000D03*
%TD*%
D10*
%TO.C,J1*%
X135730000Y-91840000D03*
D11*
X138230000Y-91840000D03*
X140730000Y-91840000D03*
X143230000Y-91840000D03*
X145730000Y-91840000D03*
X148230000Y-91840000D03*
X150730000Y-91840000D03*
X153230000Y-91840000D03*
X155730000Y-91840000D03*
%TD*%
D13*
%TO.C,J6*%
X103815000Y-79460000D03*
X103815000Y-85240000D03*
D14*
X104315000Y-78030000D03*
D15*
X100135000Y-78030000D03*
D14*
X104315000Y-86670000D03*
D15*
X100135000Y-86670000D03*
%TD*%
M02*
